%TF.GenerationSoftware,KiCad,Pcbnew,(5.1.9-0-10_14)*%
%TF.CreationDate,2020-12-31T21:37:28-06:00*%
%TF.ProjectId,JNTUB_board2,4a4e5455-425f-4626-9f61-7264322e6b69,rev?*%
%TF.SameCoordinates,Original*%
%TF.FileFunction,Copper,L1,Top*%
%TF.FilePolarity,Positive*%
%FSLAX46Y46*%
G04 Gerber Fmt 4.6, Leading zero omitted, Abs format (unit mm)*
G04 Created by KiCad (PCBNEW (5.1.9-0-10_14)) date 2020-12-31 21:37:28*
%MOMM*%
%LPD*%
G01*
G04 APERTURE LIST*
%TA.AperFunction,ComponentPad*%
%ADD10R,1.700000X1.700000*%
%TD*%
%TA.AperFunction,ComponentPad*%
%ADD11O,1.700000X1.700000*%
%TD*%
%TA.AperFunction,ComponentPad*%
%ADD12C,1.600000*%
%TD*%
%TA.AperFunction,ComponentPad*%
%ADD13C,1.520000*%
%TD*%
%TA.AperFunction,ComponentPad*%
%ADD14R,1.520000X1.520000*%
%TD*%
%TA.AperFunction,ComponentPad*%
%ADD15R,1.600000X1.600000*%
%TD*%
%TA.AperFunction,ComponentPad*%
%ADD16O,1.600000X1.600000*%
%TD*%
%TA.AperFunction,ComponentPad*%
%ADD17O,1.400000X1.400000*%
%TD*%
%TA.AperFunction,ComponentPad*%
%ADD18C,1.400000*%
%TD*%
%TA.AperFunction,ComponentPad*%
%ADD19O,2.200000X2.200000*%
%TD*%
%TA.AperFunction,ComponentPad*%
%ADD20R,2.200000X2.200000*%
%TD*%
%TA.AperFunction,ComponentPad*%
%ADD21O,2.400000X1.600000*%
%TD*%
%TA.AperFunction,ComponentPad*%
%ADD22R,2.400000X1.600000*%
%TD*%
%TA.AperFunction,ViaPad*%
%ADD23C,0.762000*%
%TD*%
%TA.AperFunction,ViaPad*%
%ADD24C,0.609600*%
%TD*%
%TA.AperFunction,Conductor*%
%ADD25C,0.609600*%
%TD*%
%TA.AperFunction,Conductor*%
%ADD26C,1.016000*%
%TD*%
%TA.AperFunction,Conductor*%
%ADD27C,0.304800*%
%TD*%
%TA.AperFunction,Conductor*%
%ADD28C,0.406400*%
%TD*%
%TA.AperFunction,Conductor*%
%ADD29C,0.254000*%
%TD*%
%TA.AperFunction,Conductor*%
%ADD30C,0.100000*%
%TD*%
G04 APERTURE END LIST*
D10*
%TO.P,JP1,1*%
%TO.N,Net-(JP1-Pad1)*%
X213487000Y-83439000D03*
D11*
%TO.P,JP1,2*%
%TO.N,Net-(JP1-Pad2)*%
X213487000Y-80899000D03*
%TD*%
D12*
%TO.P,C12,1*%
%TO.N,Net-(C12-Pad1)*%
X204216000Y-148336000D03*
%TO.P,C12,2*%
%TO.N,GNDREF*%
X199216000Y-148336000D03*
%TD*%
D13*
%TO.P,U3,2*%
%TO.N,GNDREF*%
X206248000Y-68326000D03*
%TO.P,U3,3*%
%TO.N,+12V*%
X206248000Y-65786000D03*
D14*
%TO.P,U3,1*%
%TO.N,+5V*%
X206248000Y-70866000D03*
%TD*%
D13*
%TO.P,U4,2*%
%TO.N,-5V*%
X206248000Y-75438000D03*
%TO.P,U4,3*%
%TO.N,-12V*%
X206248000Y-72898000D03*
D14*
%TO.P,U4,1*%
%TO.N,GNDREF*%
X206248000Y-77978000D03*
%TD*%
D15*
%TO.P,D5,1*%
%TO.N,Net-(D5-Pad1)*%
X214249000Y-152527000D03*
D16*
%TO.P,D5,2*%
%TO.N,GNDREF*%
X207391000Y-152527000D03*
%TD*%
D15*
%TO.P,D4,1*%
%TO.N,/MainBoard/MCU_ADC1*%
X207391000Y-128778000D03*
D16*
%TO.P,D4,2*%
%TO.N,GNDREF*%
X214249000Y-128778000D03*
%TD*%
%TO.P,D3,2*%
%TO.N,/MainBoard/MCU_ADC1*%
X207391000Y-125730000D03*
D15*
%TO.P,D3,1*%
%TO.N,+5V*%
X214249000Y-125730000D03*
%TD*%
%TO.P,D2,1*%
%TO.N,/MainBoard/MCU_ADC2*%
X204063600Y-128778000D03*
D16*
%TO.P,D2,2*%
%TO.N,GNDREF*%
X197205600Y-128778000D03*
%TD*%
D15*
%TO.P,D1,1*%
%TO.N,+5V*%
X197231000Y-125730000D03*
D16*
%TO.P,D1,2*%
%TO.N,/MainBoard/MCU_ADC2*%
X204089000Y-125730000D03*
%TD*%
D12*
%TO.P,C4,2*%
%TO.N,GNDREF*%
X198120000Y-75478000D03*
%TO.P,C4,1*%
%TO.N,+5V*%
X198120000Y-77978000D03*
%TD*%
%TO.P,C10,2*%
%TO.N,GNDREF*%
X197271000Y-131826000D03*
%TO.P,C10,1*%
%TO.N,+5V*%
X199771000Y-131826000D03*
%TD*%
%TO.P,C9,2*%
%TO.N,-12V*%
X210210400Y-96276800D03*
%TO.P,C9,1*%
%TO.N,GNDREF*%
X210210400Y-93776800D03*
%TD*%
%TO.P,C8,2*%
%TO.N,GNDREF*%
X201462000Y-95910400D03*
%TO.P,C8,1*%
%TO.N,+12V*%
X203962000Y-95910400D03*
%TD*%
%TO.P,C6,2*%
%TO.N,-5V*%
X202057000Y-77912600D03*
%TO.P,C6,1*%
%TO.N,GNDREF*%
X202057000Y-75412600D03*
%TD*%
D17*
%TO.P,R25,2*%
%TO.N,Net-(JP1-Pad2)*%
X210566000Y-83629500D03*
D18*
%TO.P,R25,1*%
%TO.N,Net-(JP1-Pad1)*%
X205486000Y-83629500D03*
%TD*%
D17*
%TO.P,R24,2*%
%TO.N,Net-(JP1-Pad1)*%
X203327000Y-81026000D03*
D18*
%TO.P,R24,1*%
%TO.N,+5V*%
X198247000Y-81026000D03*
%TD*%
%TO.P,R23,1*%
%TO.N,Net-(JP1-Pad2)*%
X201422000Y-83185000D03*
D17*
%TO.P,R23,2*%
%TO.N,/MainBoard/OUT_LED+*%
X201422000Y-88265000D03*
%TD*%
%TO.P,R22,2*%
%TO.N,Net-(C12-Pad1)*%
X204216000Y-145669000D03*
D18*
%TO.P,R22,1*%
%TO.N,/MainBoard/MCU_PWM*%
X199136000Y-145669000D03*
%TD*%
%TO.P,R21,1*%
%TO.N,/MainBoard/OUT*%
X210566000Y-85979000D03*
D17*
%TO.P,R21,2*%
%TO.N,Net-(JP1-Pad2)*%
X205486000Y-85979000D03*
%TD*%
D18*
%TO.P,R20,1*%
%TO.N,Net-(Q3-Pad2)*%
X213487000Y-155194000D03*
D17*
%TO.P,R20,2*%
%TO.N,/MainBoard/MCU_PB0*%
X208407000Y-155194000D03*
%TD*%
D18*
%TO.P,R19,1*%
%TO.N,Net-(Q3-Pad3)*%
X199136000Y-151003000D03*
D17*
%TO.P,R19,2*%
%TO.N,+5V*%
X204216000Y-151003000D03*
%TD*%
D18*
%TO.P,R18,1*%
%TO.N,GNDREF*%
X209245200Y-137033000D03*
D17*
%TO.P,R18,2*%
%TO.N,Net-(Q1-Pad1)*%
X214325200Y-137033000D03*
%TD*%
D18*
%TO.P,R17,1*%
%TO.N,GNDREF*%
X209245200Y-131953000D03*
D17*
%TO.P,R17,2*%
%TO.N,/MainBoard/CLK_TRG*%
X214325200Y-131953000D03*
%TD*%
D18*
%TO.P,R16,1*%
%TO.N,Net-(D5-Pad1)*%
X209245200Y-134366000D03*
D17*
%TO.P,R16,2*%
%TO.N,/MainBoard/CLK_TRG*%
X214325200Y-134366000D03*
%TD*%
D18*
%TO.P,R14,1*%
%TO.N,/MainBoard/MCU_PB0*%
X213487000Y-149860000D03*
D17*
%TO.P,R14,2*%
%TO.N,+5V*%
X208407000Y-149860000D03*
%TD*%
D18*
%TO.P,R13,1*%
%TO.N,Net-(Q1-Pad3)*%
X213537800Y-147243800D03*
D17*
%TO.P,R13,2*%
%TO.N,+5V*%
X208457800Y-147243800D03*
%TD*%
D18*
%TO.P,R12,1*%
%TO.N,Net-(R10-Pad1)*%
X213106000Y-115316000D03*
D17*
%TO.P,R12,2*%
%TO.N,Net-(R11-Pad1)*%
X213106000Y-110236000D03*
%TD*%
D18*
%TO.P,R11,1*%
%TO.N,Net-(R11-Pad1)*%
X207645000Y-117475000D03*
D17*
%TO.P,R11,2*%
%TO.N,GNDREF*%
X212725000Y-117475000D03*
%TD*%
D18*
%TO.P,R10,1*%
%TO.N,Net-(R10-Pad1)*%
X212801200Y-120142000D03*
D17*
%TO.P,R10,2*%
%TO.N,/MainBoard/MCU_ADC1*%
X207721200Y-120142000D03*
%TD*%
D18*
%TO.P,R8,1*%
%TO.N,+5V*%
X212852000Y-122809000D03*
D17*
%TO.P,R8,2*%
%TO.N,/MainBoard/MCU_ADC1*%
X207772000Y-122809000D03*
%TD*%
D18*
%TO.P,R6,1*%
%TO.N,Net-(R4-Pad1)*%
X197993000Y-115316000D03*
D17*
%TO.P,R6,2*%
%TO.N,Net-(R5-Pad1)*%
X197993000Y-110236000D03*
%TD*%
D18*
%TO.P,R5,1*%
%TO.N,Net-(R5-Pad1)*%
X203835000Y-117475000D03*
D17*
%TO.P,R5,2*%
%TO.N,GNDREF*%
X198755000Y-117475000D03*
%TD*%
D18*
%TO.P,R4,1*%
%TO.N,Net-(R4-Pad1)*%
X198755000Y-120142000D03*
D17*
%TO.P,R4,2*%
%TO.N,/MainBoard/MCU_ADC2*%
X203835000Y-120142000D03*
%TD*%
D18*
%TO.P,R2,1*%
%TO.N,+5V*%
X198755000Y-122809000D03*
D17*
%TO.P,R2,2*%
%TO.N,/MainBoard/MCU_ADC2*%
X203835000Y-122809000D03*
%TD*%
D19*
%TO.P,D11,2*%
%TO.N,-12V*%
X213868000Y-62992000D03*
D20*
%TO.P,D11,1*%
%TO.N,Net-(D11-Pad1)*%
X206248000Y-62992000D03*
%TD*%
%TO.P,D10,1*%
%TO.N,+12V*%
X213868000Y-59563000D03*
D19*
%TO.P,D10,2*%
%TO.N,Net-(D10-Pad2)*%
X206248000Y-59563000D03*
%TD*%
D15*
%TO.P,C2,1*%
%TO.N,GNDREF*%
X211836000Y-74168000D03*
D12*
%TO.P,C2,2*%
%TO.N,-12V*%
X211836000Y-76668000D03*
%TD*%
D15*
%TO.P,C1,1*%
%TO.N,+12V*%
X211836000Y-69596000D03*
D12*
%TO.P,C1,2*%
%TO.N,GNDREF*%
X211836000Y-67096000D03*
%TD*%
D21*
%TO.P,U2,14*%
%TO.N,Net-(JP1-Pad2)*%
X209550000Y-98933000D03*
%TO.P,U2,7*%
%TO.N,Net-(R4-Pad1)*%
X201930000Y-114173000D03*
%TO.P,U2,13*%
%TO.N,Net-(JP1-Pad1)*%
X209550000Y-101473000D03*
%TO.P,U2,6*%
%TO.N,Net-(R5-Pad1)*%
X201930000Y-111633000D03*
%TO.P,U2,12*%
%TO.N,Net-(C12-Pad1)*%
X209550000Y-104013000D03*
%TO.P,U2,5*%
%TO.N,/MainBoard/P1_AVG*%
X201930000Y-109093000D03*
%TO.P,U2,11*%
%TO.N,-12V*%
X209550000Y-106553000D03*
%TO.P,U2,4*%
%TO.N,+12V*%
X201930000Y-106553000D03*
%TO.P,U2,10*%
%TO.N,/MainBoard/P2_AVG*%
X209550000Y-109093000D03*
%TO.P,U2,3*%
%TO.N,GNDREF*%
X201930000Y-104013000D03*
%TO.P,U2,9*%
%TO.N,Net-(R11-Pad1)*%
X209550000Y-111633000D03*
%TO.P,U2,2*%
%TO.N,/MainBoard/OUT_LED+*%
X201930000Y-101473000D03*
%TO.P,U2,8*%
%TO.N,Net-(R10-Pad1)*%
X209550000Y-114173000D03*
D22*
%TO.P,U2,1*%
%TO.N,/MainBoard/OUT_LED-*%
X201930000Y-98933000D03*
%TD*%
%TO.P,U1,1*%
%TO.N,+5V*%
X197739000Y-135128000D03*
D21*
%TO.P,U1,5*%
%TO.N,/MainBoard/MCU_PB0*%
X205359000Y-142748000D03*
%TO.P,U1,2*%
%TO.N,/MainBoard/MCU_ADC3*%
X197739000Y-137668000D03*
%TO.P,U1,6*%
%TO.N,/MainBoard/MCU_PWM*%
X205359000Y-140208000D03*
%TO.P,U1,3*%
%TO.N,/MainBoard/MCU_ADC2*%
X197739000Y-140208000D03*
%TO.P,U1,7*%
%TO.N,/MainBoard/MCU_ADC1*%
X205359000Y-137668000D03*
%TO.P,U1,4*%
%TO.N,GNDREF*%
X197739000Y-142748000D03*
%TO.P,U1,8*%
%TO.N,+5V*%
X205359000Y-135128000D03*
%TD*%
D11*
%TO.P,J9,10*%
%TO.N,Net-(D11-Pad1)*%
X198374000Y-69850000D03*
%TO.P,J9,9*%
X200914000Y-69850000D03*
%TO.P,J9,8*%
%TO.N,GNDREF*%
X198374000Y-67310000D03*
%TO.P,J9,7*%
X200914000Y-67310000D03*
%TO.P,J9,6*%
X198374000Y-64770000D03*
%TO.P,J9,5*%
X200914000Y-64770000D03*
%TO.P,J9,4*%
X198374000Y-62230000D03*
%TO.P,J9,3*%
X200914000Y-62230000D03*
%TO.P,J9,2*%
%TO.N,Net-(D10-Pad2)*%
X198374000Y-59690000D03*
D10*
%TO.P,J9,1*%
X200914000Y-59690000D03*
%TD*%
D13*
%TO.P,Q1,2*%
%TO.N,Net-(D5-Pad1)*%
X214122000Y-142113000D03*
%TO.P,Q1,3*%
%TO.N,Net-(Q1-Pad3)*%
X214122000Y-144653000D03*
D14*
%TO.P,Q1,1*%
%TO.N,Net-(Q1-Pad1)*%
X214122000Y-139573000D03*
%TD*%
D13*
%TO.P,Q2,2*%
%TO.N,Net-(Q1-Pad3)*%
X209359500Y-142113000D03*
%TO.P,Q2,3*%
%TO.N,/MainBoard/MCU_PB0*%
X209359500Y-144653000D03*
D14*
%TO.P,Q2,1*%
%TO.N,Net-(Q1-Pad1)*%
X209359500Y-139573000D03*
%TD*%
D13*
%TO.P,Q3,2*%
%TO.N,Net-(Q3-Pad2)*%
X201676000Y-154178000D03*
%TO.P,Q3,3*%
%TO.N,Net-(Q3-Pad3)*%
X199136000Y-154178000D03*
D14*
%TO.P,Q3,1*%
%TO.N,/MainBoard/IN_LED+*%
X204216000Y-154178000D03*
%TD*%
D10*
%TO.P,J10,1*%
%TO.N,+5V*%
X197993000Y-87122000D03*
D11*
%TO.P,J10,2*%
%TO.N,-5V*%
X197993000Y-89662000D03*
%TO.P,J10,3*%
%TO.N,GNDREF*%
X197993000Y-92202000D03*
%TO.P,J10,4*%
X197993000Y-94742000D03*
%TO.P,J10,5*%
X197993000Y-97282000D03*
%TO.P,J10,6*%
%TO.N,/MainBoard/OUT_LED-*%
X197993000Y-99822000D03*
%TO.P,J10,7*%
%TO.N,/MainBoard/OUT_LED+*%
X197993000Y-102362000D03*
%TO.P,J10,8*%
%TO.N,/MainBoard/MCU_ADC3*%
X197993000Y-104902000D03*
%TO.P,J10,9*%
%TO.N,/MainBoard/P1_AVG*%
X197993000Y-107442000D03*
%TD*%
D10*
%TO.P,J11,1*%
%TO.N,/MainBoard/OUT*%
X213487000Y-87122000D03*
D11*
%TO.P,J11,2*%
%TO.N,GNDREF*%
X213487000Y-89662000D03*
%TO.P,J11,3*%
X213487000Y-92202000D03*
%TO.P,J11,4*%
X213487000Y-94742000D03*
%TO.P,J11,5*%
X213487000Y-97282000D03*
%TO.P,J11,6*%
X213487000Y-99822000D03*
%TO.P,J11,7*%
%TO.N,/MainBoard/IN_LED+*%
X213487000Y-102362000D03*
%TO.P,J11,8*%
%TO.N,/MainBoard/CLK_TRG*%
X213487000Y-104902000D03*
%TO.P,J11,9*%
%TO.N,/MainBoard/P2_AVG*%
X213487000Y-107442000D03*
%TD*%
D23*
%TO.N,*%
X201422000Y-130632200D03*
X201422000Y-133045200D03*
%TO.N,GNDREF*%
X210947000Y-143446500D03*
X211836000Y-137985500D03*
%TO.N,+5V*%
X199707500Y-115443000D03*
D24*
X199720611Y-105486611D03*
D23*
X200025410Y-90932000D03*
X211188389Y-124869579D03*
%TO.N,Net-(C12-Pad1)*%
X205740000Y-107772200D03*
%TO.N,Net-(D5-Pad1)*%
X210745789Y-141097000D03*
%TO.N,Net-(JP1-Pad1)*%
X209650132Y-80618132D03*
%TO.N,Net-(JP1-Pad2)*%
X208330800Y-87731600D03*
%TO.N,/MainBoard/MCU_PB0*%
X206663306Y-147137596D03*
X211366122Y-149861523D03*
%TO.N,/MainBoard/MCU_PWM*%
X201977695Y-143379895D03*
%TO.N,/MainBoard/IN_LED+*%
X211582000Y-115316000D03*
%TO.N,/MainBoard/OUT_LED+*%
X205155800Y-102006400D03*
X201741001Y-93980000D03*
X204128601Y-94132400D03*
%TD*%
D25*
%TO.N,+5V*%
X199720611Y-105486611D02*
X199707500Y-115443000D01*
X202057000Y-131826000D02*
X205359000Y-135128000D01*
X199771000Y-131826000D02*
X202057000Y-131826000D01*
X200025410Y-89154410D02*
X197993000Y-87122000D01*
X200025410Y-90932000D02*
X200025410Y-89154410D01*
X212852000Y-124333000D02*
X214249000Y-125730000D01*
X212852000Y-122809000D02*
X212852000Y-124333000D01*
X198755000Y-122809000D02*
X197612000Y-122809000D01*
X197231000Y-123190000D02*
X197231000Y-125730000D01*
X197612000Y-122809000D02*
X197231000Y-123190000D01*
X212048810Y-125730000D02*
X211188389Y-124869579D01*
X214249000Y-125730000D02*
X212048810Y-125730000D01*
D26*
%TO.N,-12V*%
X210018000Y-76668000D02*
X206248000Y-72898000D01*
X211836000Y-76668000D02*
X210018000Y-76668000D01*
D27*
%TO.N,Net-(C12-Pad1)*%
X209524600Y-104013000D02*
X209550000Y-104013000D01*
D28*
X209499200Y-104013000D02*
X209550000Y-104013000D01*
X205740000Y-107772200D02*
X209499200Y-104013000D01*
D27*
%TO.N,Net-(D5-Pad1)*%
X212788500Y-140779500D02*
X214122000Y-142113000D01*
X211063289Y-140779500D02*
X210745789Y-141097000D01*
X212788500Y-140779500D02*
X211063289Y-140779500D01*
D28*
%TO.N,Net-(JP1-Pad1)*%
X212471000Y-83439000D02*
X213487000Y-83439000D01*
X209650132Y-80618132D02*
X212471000Y-83439000D01*
D27*
X205486000Y-83185000D02*
X205486000Y-83629500D01*
X203327000Y-81026000D02*
X205486000Y-83185000D01*
D28*
%TO.N,Net-(JP1-Pad2)*%
X208330800Y-85864700D02*
X208330800Y-87731600D01*
X210566000Y-83629500D02*
X208330800Y-85864700D01*
X205486000Y-85979000D02*
X202666600Y-83159600D01*
X201447400Y-83159600D02*
X201422000Y-83185000D01*
X202666600Y-83159600D02*
X201447400Y-83159600D01*
%TO.N,Net-(Q1-Pad3)*%
X211582000Y-142113000D02*
X214122000Y-144653000D01*
X209359500Y-142113000D02*
X211582000Y-142113000D01*
X214122000Y-146659600D02*
X213537800Y-147243800D01*
X214122000Y-144653000D02*
X214122000Y-146659600D01*
%TO.N,Net-(Q1-Pad1)*%
X209359500Y-139573000D02*
X214122000Y-139573000D01*
%TO.N,/MainBoard/MCU_PB0*%
X209064203Y-145832599D02*
X207780423Y-145832599D01*
X209169000Y-145727802D02*
X209064203Y-145832599D01*
X209169000Y-144653000D02*
X209169000Y-145727802D01*
X206663306Y-146949716D02*
X206663306Y-147137596D01*
X207780423Y-145832599D02*
X206663306Y-146949716D01*
X211367645Y-149860000D02*
X211366122Y-149861523D01*
X213487000Y-149860000D02*
X211367645Y-149860000D01*
D27*
%TO.N,/MainBoard/MCU_PWM*%
X201977695Y-143379895D02*
X205149590Y-140208000D01*
X205149590Y-140208000D02*
X205359000Y-140208000D01*
%TO.N,/MainBoard/IN_LED+*%
X211582000Y-107412342D02*
X211582000Y-115316000D01*
X212179799Y-106814543D02*
X211582000Y-107412342D01*
X212179799Y-103669201D02*
X212179799Y-106814543D01*
X213487000Y-102362000D02*
X212179799Y-103669201D01*
D28*
%TO.N,/MainBoard/OUT_LED+*%
X198882000Y-101473000D02*
X197993000Y-102362000D01*
X201930000Y-101473000D02*
X198882000Y-101473000D01*
X204622400Y-101473000D02*
X205155800Y-102006400D01*
X201930000Y-101473000D02*
X204622400Y-101473000D01*
D27*
X203976201Y-93980000D02*
X204128601Y-94132400D01*
X201741001Y-93980000D02*
X203976201Y-93980000D01*
D28*
%TO.N,/MainBoard/OUT_LED-*%
X198882000Y-98933000D02*
X197993000Y-99822000D01*
X201930000Y-98933000D02*
X198882000Y-98933000D01*
%TD*%
D29*
%TO.N,GNDREF*%
X197220525Y-58743368D02*
X197058010Y-58986589D01*
X196946068Y-59256842D01*
X196889000Y-59543740D01*
X196889000Y-59836260D01*
X196946068Y-60123158D01*
X197058010Y-60393411D01*
X197220525Y-60636632D01*
X197427368Y-60843475D01*
X197609534Y-60965195D01*
X197492645Y-61034822D01*
X197276412Y-61229731D01*
X197102359Y-61463080D01*
X196977175Y-61725901D01*
X196932524Y-61873110D01*
X197053845Y-62103000D01*
X198247000Y-62103000D01*
X198247000Y-62083000D01*
X198501000Y-62083000D01*
X198501000Y-62103000D01*
X200787000Y-62103000D01*
X200787000Y-62083000D01*
X201041000Y-62083000D01*
X201041000Y-62103000D01*
X202234155Y-62103000D01*
X202355476Y-61873110D01*
X202310825Y-61725901D01*
X202185641Y-61463080D01*
X202011588Y-61229731D01*
X201927534Y-61153966D01*
X202008180Y-61129502D01*
X202118494Y-61070537D01*
X202215185Y-60991185D01*
X202294537Y-60894494D01*
X202353502Y-60784180D01*
X202389812Y-60664482D01*
X202402072Y-60540000D01*
X202402072Y-58840000D01*
X202389812Y-58715518D01*
X202361444Y-58622000D01*
X204790089Y-58622000D01*
X204710463Y-58741169D01*
X204579675Y-59056919D01*
X204513000Y-59392117D01*
X204513000Y-59733883D01*
X204579675Y-60069081D01*
X204710463Y-60384831D01*
X204900337Y-60668998D01*
X205142002Y-60910663D01*
X205426169Y-61100537D01*
X205741919Y-61231325D01*
X205855552Y-61253928D01*
X205148000Y-61253928D01*
X205023518Y-61266188D01*
X204903820Y-61302498D01*
X204793506Y-61361463D01*
X204696815Y-61440815D01*
X204617463Y-61537506D01*
X204558498Y-61647820D01*
X204522188Y-61767518D01*
X204509928Y-61892000D01*
X204509928Y-64092000D01*
X204522188Y-64216482D01*
X204558498Y-64336180D01*
X204617463Y-64446494D01*
X204696815Y-64543185D01*
X204793506Y-64622537D01*
X204903820Y-64681502D01*
X205023518Y-64717812D01*
X205148000Y-64730072D01*
X205331100Y-64730072D01*
X205164433Y-64896739D01*
X205011767Y-65125220D01*
X204906609Y-65379093D01*
X204853000Y-65648604D01*
X204853000Y-65923396D01*
X204906609Y-66192907D01*
X205011767Y-66446780D01*
X205164433Y-66675261D01*
X205358739Y-66869567D01*
X205587220Y-67022233D01*
X205663501Y-67053830D01*
X205645674Y-67060256D01*
X205530206Y-67121975D01*
X205463469Y-67361863D01*
X206248000Y-68146395D01*
X207032531Y-67361863D01*
X206978185Y-67166512D01*
X210395783Y-67166512D01*
X210437213Y-67446130D01*
X210532397Y-67712292D01*
X210599329Y-67837514D01*
X210843298Y-67909097D01*
X211656395Y-67096000D01*
X212015605Y-67096000D01*
X212828702Y-67909097D01*
X213072671Y-67837514D01*
X213193571Y-67582004D01*
X213262300Y-67307816D01*
X213276217Y-67025488D01*
X213234787Y-66745870D01*
X213139603Y-66479708D01*
X213072671Y-66354486D01*
X212828702Y-66282903D01*
X212015605Y-67096000D01*
X211656395Y-67096000D01*
X210843298Y-66282903D01*
X210599329Y-66354486D01*
X210478429Y-66609996D01*
X210409700Y-66884184D01*
X210395783Y-67166512D01*
X206978185Y-67166512D01*
X206965794Y-67121975D01*
X206826293Y-67056400D01*
X206908780Y-67022233D01*
X207137261Y-66869567D01*
X207331567Y-66675261D01*
X207484233Y-66446780D01*
X207589391Y-66192907D01*
X207607215Y-66103298D01*
X211022903Y-66103298D01*
X211836000Y-66916395D01*
X212649097Y-66103298D01*
X212577514Y-65859329D01*
X212322004Y-65738429D01*
X212047816Y-65669700D01*
X211765488Y-65655783D01*
X211485870Y-65697213D01*
X211219708Y-65792397D01*
X211094486Y-65859329D01*
X211022903Y-66103298D01*
X207607215Y-66103298D01*
X207643000Y-65923396D01*
X207643000Y-65648604D01*
X207589391Y-65379093D01*
X207484233Y-65125220D01*
X207331567Y-64896739D01*
X207164900Y-64730072D01*
X207348000Y-64730072D01*
X207472482Y-64717812D01*
X207592180Y-64681502D01*
X207702494Y-64622537D01*
X207799185Y-64543185D01*
X207878537Y-64446494D01*
X207937502Y-64336180D01*
X207973812Y-64216482D01*
X207986072Y-64092000D01*
X207986072Y-61892000D01*
X207973812Y-61767518D01*
X207937502Y-61647820D01*
X207878537Y-61537506D01*
X207799185Y-61440815D01*
X207702494Y-61361463D01*
X207592180Y-61302498D01*
X207472482Y-61266188D01*
X207348000Y-61253928D01*
X206640448Y-61253928D01*
X206754081Y-61231325D01*
X207069831Y-61100537D01*
X207353998Y-60910663D01*
X207595663Y-60668998D01*
X207785537Y-60384831D01*
X207916325Y-60069081D01*
X207983000Y-59733883D01*
X207983000Y-59392117D01*
X207916325Y-59056919D01*
X207785537Y-58741169D01*
X207705911Y-58622000D01*
X212129928Y-58622000D01*
X212129928Y-60663000D01*
X212142188Y-60787482D01*
X212178498Y-60907180D01*
X212237463Y-61017494D01*
X212316815Y-61114185D01*
X212413506Y-61193537D01*
X212523820Y-61252502D01*
X212643518Y-61288812D01*
X212768000Y-61301072D01*
X213475552Y-61301072D01*
X213361919Y-61323675D01*
X213046169Y-61454463D01*
X212762002Y-61644337D01*
X212520337Y-61886002D01*
X212330463Y-62170169D01*
X212199675Y-62485919D01*
X212133000Y-62821117D01*
X212133000Y-63162883D01*
X212199675Y-63498081D01*
X212330463Y-63813831D01*
X212520337Y-64097998D01*
X212762002Y-64339663D01*
X213046169Y-64529537D01*
X213361919Y-64660325D01*
X213697117Y-64727000D01*
X214038883Y-64727000D01*
X214374081Y-64660325D01*
X214682000Y-64532781D01*
X214682000Y-80014515D01*
X214640475Y-79952368D01*
X214433632Y-79745525D01*
X214190411Y-79583010D01*
X213920158Y-79471068D01*
X213633260Y-79414000D01*
X213340740Y-79414000D01*
X213053842Y-79471068D01*
X212783589Y-79583010D01*
X212540368Y-79745525D01*
X212333525Y-79952368D01*
X212171010Y-80195589D01*
X212059068Y-80465842D01*
X212002000Y-80752740D01*
X212002000Y-81045260D01*
X212059068Y-81332158D01*
X212171010Y-81602411D01*
X212333525Y-81845632D01*
X212465380Y-81977487D01*
X212392820Y-81999498D01*
X212282506Y-82058463D01*
X212278854Y-82061460D01*
X210648918Y-80431525D01*
X210627088Y-80321776D01*
X210550500Y-80136876D01*
X210439311Y-79970470D01*
X210297794Y-79828953D01*
X210131388Y-79717764D01*
X209946488Y-79641176D01*
X209750199Y-79602132D01*
X209550065Y-79602132D01*
X209353776Y-79641176D01*
X209168876Y-79717764D01*
X209002470Y-79828953D01*
X208860953Y-79970470D01*
X208749764Y-80136876D01*
X208673176Y-80321776D01*
X208634132Y-80518065D01*
X208634132Y-80718199D01*
X208673176Y-80914488D01*
X208749764Y-81099388D01*
X208860953Y-81265794D01*
X209002470Y-81407311D01*
X209168876Y-81518500D01*
X209353776Y-81595088D01*
X209463525Y-81616918D01*
X210189787Y-82343180D01*
X210176595Y-82345804D01*
X209933641Y-82446439D01*
X209714987Y-82592538D01*
X209529038Y-82778487D01*
X209382939Y-82997141D01*
X209282304Y-83240095D01*
X209231000Y-83498014D01*
X209231000Y-83760986D01*
X209234006Y-83776100D01*
X207767218Y-85242889D01*
X207735236Y-85269136D01*
X207630491Y-85396769D01*
X207552658Y-85542384D01*
X207504729Y-85700385D01*
X207492600Y-85823531D01*
X207492600Y-85823537D01*
X207488546Y-85864700D01*
X207492600Y-85905863D01*
X207492601Y-87157302D01*
X207430432Y-87250344D01*
X207353844Y-87435244D01*
X207314800Y-87631533D01*
X207314800Y-87831667D01*
X207353844Y-88027956D01*
X207430432Y-88212856D01*
X207541621Y-88379262D01*
X207683138Y-88520779D01*
X207849544Y-88631968D01*
X208034444Y-88708556D01*
X208230733Y-88747600D01*
X208430867Y-88747600D01*
X208627156Y-88708556D01*
X208812056Y-88631968D01*
X208978462Y-88520779D01*
X209119979Y-88379262D01*
X209231168Y-88212856D01*
X209307756Y-88027956D01*
X209346800Y-87831667D01*
X209346800Y-87631533D01*
X209307756Y-87435244D01*
X209231168Y-87250344D01*
X209169000Y-87157303D01*
X209169000Y-86211893D01*
X209237538Y-86143355D01*
X209282304Y-86368405D01*
X209382939Y-86611359D01*
X209529038Y-86830013D01*
X209714987Y-87015962D01*
X209933641Y-87162061D01*
X210176595Y-87262696D01*
X210434514Y-87314000D01*
X210697486Y-87314000D01*
X210955405Y-87262696D01*
X211198359Y-87162061D01*
X211417013Y-87015962D01*
X211602962Y-86830013D01*
X211749061Y-86611359D01*
X211849696Y-86368405D01*
X211901000Y-86110486D01*
X211901000Y-85847514D01*
X211849696Y-85589595D01*
X211749061Y-85346641D01*
X211602962Y-85127987D01*
X211417013Y-84942038D01*
X211210797Y-84804250D01*
X211417013Y-84666462D01*
X211602962Y-84480513D01*
X211749061Y-84261859D01*
X211849696Y-84018905D01*
X211852211Y-84006264D01*
X211875436Y-84034564D01*
X211998928Y-84135911D01*
X211998928Y-84289000D01*
X212011188Y-84413482D01*
X212047498Y-84533180D01*
X212106463Y-84643494D01*
X212185815Y-84740185D01*
X212282506Y-84819537D01*
X212392820Y-84878502D01*
X212512518Y-84914812D01*
X212637000Y-84927072D01*
X214337000Y-84927072D01*
X214461482Y-84914812D01*
X214581180Y-84878502D01*
X214682000Y-84824612D01*
X214682000Y-85736388D01*
X214581180Y-85682498D01*
X214461482Y-85646188D01*
X214337000Y-85633928D01*
X212637000Y-85633928D01*
X212512518Y-85646188D01*
X212392820Y-85682498D01*
X212282506Y-85741463D01*
X212185815Y-85820815D01*
X212106463Y-85917506D01*
X212047498Y-86027820D01*
X212011188Y-86147518D01*
X211998928Y-86272000D01*
X211998928Y-87972000D01*
X212011188Y-88096482D01*
X212047498Y-88216180D01*
X212106463Y-88326494D01*
X212185815Y-88423185D01*
X212282506Y-88502537D01*
X212392820Y-88561502D01*
X212473466Y-88585966D01*
X212389412Y-88661731D01*
X212215359Y-88895080D01*
X212090175Y-89157901D01*
X212045524Y-89305110D01*
X212166845Y-89535000D01*
X213360000Y-89535000D01*
X213360000Y-89515000D01*
X213614000Y-89515000D01*
X213614000Y-89535000D01*
X213634000Y-89535000D01*
X213634000Y-89789000D01*
X213614000Y-89789000D01*
X213614000Y-92075000D01*
X213634000Y-92075000D01*
X213634000Y-92329000D01*
X213614000Y-92329000D01*
X213614000Y-94615000D01*
X213634000Y-94615000D01*
X213634000Y-94869000D01*
X213614000Y-94869000D01*
X213614000Y-97155000D01*
X213634000Y-97155000D01*
X213634000Y-97409000D01*
X213614000Y-97409000D01*
X213614000Y-99695000D01*
X213634000Y-99695000D01*
X213634000Y-99949000D01*
X213614000Y-99949000D01*
X213614000Y-99969000D01*
X213360000Y-99969000D01*
X213360000Y-99949000D01*
X212166845Y-99949000D01*
X212045524Y-100178890D01*
X212090175Y-100326099D01*
X212215359Y-100588920D01*
X212389412Y-100822269D01*
X212605645Y-101017178D01*
X212722534Y-101086805D01*
X212540368Y-101208525D01*
X212333525Y-101415368D01*
X212171010Y-101658589D01*
X212059068Y-101928842D01*
X212002000Y-102215740D01*
X212002000Y-102508260D01*
X212039362Y-102696088D01*
X211650376Y-103085074D01*
X211620330Y-103109732D01*
X211521933Y-103229630D01*
X211448817Y-103366419D01*
X211403793Y-103514845D01*
X211392399Y-103630529D01*
X211392399Y-103630538D01*
X211388591Y-103669201D01*
X211392399Y-103707864D01*
X211392400Y-106488391D01*
X211386191Y-106494600D01*
X211364236Y-106271691D01*
X211282182Y-106001192D01*
X211148932Y-105751899D01*
X210969608Y-105533392D01*
X210751101Y-105354068D01*
X210618142Y-105283000D01*
X210751101Y-105211932D01*
X210969608Y-105032608D01*
X211148932Y-104814101D01*
X211282182Y-104564808D01*
X211364236Y-104294309D01*
X211391943Y-104013000D01*
X211364236Y-103731691D01*
X211282182Y-103461192D01*
X211148932Y-103211899D01*
X210969608Y-102993392D01*
X210751101Y-102814068D01*
X210618142Y-102743000D01*
X210751101Y-102671932D01*
X210969608Y-102492608D01*
X211148932Y-102274101D01*
X211282182Y-102024808D01*
X211364236Y-101754309D01*
X211391943Y-101473000D01*
X211364236Y-101191691D01*
X211282182Y-100921192D01*
X211148932Y-100671899D01*
X210969608Y-100453392D01*
X210751101Y-100274068D01*
X210618142Y-100203000D01*
X210751101Y-100131932D01*
X210969608Y-99952608D01*
X211148932Y-99734101D01*
X211282182Y-99484808D01*
X211364236Y-99214309D01*
X211391943Y-98933000D01*
X211364236Y-98651691D01*
X211282182Y-98381192D01*
X211148932Y-98131899D01*
X210969608Y-97913392D01*
X210751101Y-97734068D01*
X210612426Y-97659945D01*
X210628974Y-97656653D01*
X210671857Y-97638890D01*
X212045524Y-97638890D01*
X212090175Y-97786099D01*
X212215359Y-98048920D01*
X212389412Y-98282269D01*
X212605645Y-98477178D01*
X212731255Y-98552000D01*
X212605645Y-98626822D01*
X212389412Y-98821731D01*
X212215359Y-99055080D01*
X212090175Y-99317901D01*
X212045524Y-99465110D01*
X212166845Y-99695000D01*
X213360000Y-99695000D01*
X213360000Y-97409000D01*
X212166845Y-97409000D01*
X212045524Y-97638890D01*
X210671857Y-97638890D01*
X210890127Y-97548480D01*
X211125159Y-97391437D01*
X211325037Y-97191559D01*
X211482080Y-96956527D01*
X211590253Y-96695374D01*
X211645400Y-96418135D01*
X211645400Y-96135465D01*
X211590253Y-95858226D01*
X211482080Y-95597073D01*
X211325037Y-95362041D01*
X211125159Y-95162163D01*
X211030465Y-95098890D01*
X212045524Y-95098890D01*
X212090175Y-95246099D01*
X212215359Y-95508920D01*
X212389412Y-95742269D01*
X212605645Y-95937178D01*
X212731255Y-96012000D01*
X212605645Y-96086822D01*
X212389412Y-96281731D01*
X212215359Y-96515080D01*
X212090175Y-96777901D01*
X212045524Y-96925110D01*
X212166845Y-97155000D01*
X213360000Y-97155000D01*
X213360000Y-94869000D01*
X212166845Y-94869000D01*
X212045524Y-95098890D01*
X211030465Y-95098890D01*
X210924531Y-95028108D01*
X210951914Y-95013471D01*
X211023497Y-94769502D01*
X210210400Y-93956405D01*
X209397303Y-94769502D01*
X209468886Y-95013471D01*
X209497741Y-95027124D01*
X209295641Y-95162163D01*
X209095763Y-95362041D01*
X208938720Y-95597073D01*
X208830547Y-95858226D01*
X208775400Y-96135465D01*
X208775400Y-96418135D01*
X208830547Y-96695374D01*
X208938720Y-96956527D01*
X209095763Y-97191559D01*
X209295641Y-97391437D01*
X209455124Y-97498000D01*
X209079508Y-97498000D01*
X208868691Y-97518764D01*
X208598192Y-97600818D01*
X208348899Y-97734068D01*
X208130392Y-97913392D01*
X207951068Y-98131899D01*
X207817818Y-98381192D01*
X207735764Y-98651691D01*
X207708057Y-98933000D01*
X207735764Y-99214309D01*
X207817818Y-99484808D01*
X207951068Y-99734101D01*
X208130392Y-99952608D01*
X208348899Y-100131932D01*
X208481858Y-100203000D01*
X208348899Y-100274068D01*
X208130392Y-100453392D01*
X207951068Y-100671899D01*
X207817818Y-100921192D01*
X207735764Y-101191691D01*
X207708057Y-101473000D01*
X207735764Y-101754309D01*
X207817818Y-102024808D01*
X207951068Y-102274101D01*
X208130392Y-102492608D01*
X208348899Y-102671932D01*
X208481858Y-102743000D01*
X208348899Y-102814068D01*
X208130392Y-102993392D01*
X207951068Y-103211899D01*
X207817818Y-103461192D01*
X207735764Y-103731691D01*
X207708057Y-104013000D01*
X207735764Y-104294309D01*
X207804826Y-104521980D01*
X205553393Y-106773414D01*
X205443644Y-106795244D01*
X205258744Y-106871832D01*
X205092338Y-106983021D01*
X204950821Y-107124538D01*
X204839632Y-107290944D01*
X204763044Y-107475844D01*
X204724000Y-107672133D01*
X204724000Y-107872267D01*
X204763044Y-108068556D01*
X204839632Y-108253456D01*
X204950821Y-108419862D01*
X205092338Y-108561379D01*
X205258744Y-108672568D01*
X205443644Y-108749156D01*
X205639933Y-108788200D01*
X205840067Y-108788200D01*
X206036356Y-108749156D01*
X206221256Y-108672568D01*
X206387662Y-108561379D01*
X206529179Y-108419862D01*
X206640368Y-108253456D01*
X206716956Y-108068556D01*
X206738786Y-107958807D01*
X207765443Y-106932150D01*
X207817818Y-107104808D01*
X207951068Y-107354101D01*
X208130392Y-107572608D01*
X208348899Y-107751932D01*
X208481858Y-107823000D01*
X208348899Y-107894068D01*
X208130392Y-108073392D01*
X207951068Y-108291899D01*
X207817818Y-108541192D01*
X207735764Y-108811691D01*
X207708057Y-109093000D01*
X207735764Y-109374309D01*
X207817818Y-109644808D01*
X207951068Y-109894101D01*
X208130392Y-110112608D01*
X208348899Y-110291932D01*
X208481858Y-110363000D01*
X208348899Y-110434068D01*
X208130392Y-110613392D01*
X207951068Y-110831899D01*
X207817818Y-111081192D01*
X207735764Y-111351691D01*
X207708057Y-111633000D01*
X207735764Y-111914309D01*
X207817818Y-112184808D01*
X207951068Y-112434101D01*
X208130392Y-112652608D01*
X208348899Y-112831932D01*
X208481858Y-112903000D01*
X208348899Y-112974068D01*
X208130392Y-113153392D01*
X207951068Y-113371899D01*
X207817818Y-113621192D01*
X207735764Y-113891691D01*
X207708057Y-114173000D01*
X207735764Y-114454309D01*
X207817818Y-114724808D01*
X207951068Y-114974101D01*
X208130392Y-115192608D01*
X208348899Y-115371932D01*
X208598192Y-115505182D01*
X208868691Y-115587236D01*
X209079508Y-115608000D01*
X210020492Y-115608000D01*
X210231309Y-115587236D01*
X210501808Y-115505182D01*
X210575853Y-115465604D01*
X210605044Y-115612356D01*
X210681632Y-115797256D01*
X210792821Y-115963662D01*
X210934338Y-116105179D01*
X211100744Y-116216368D01*
X211285644Y-116292956D01*
X211481933Y-116332000D01*
X211682067Y-116332000D01*
X211878356Y-116292956D01*
X212063256Y-116216368D01*
X212096308Y-116194283D01*
X212166596Y-116264571D01*
X212145877Y-116272147D01*
X211922340Y-116408241D01*
X211729649Y-116585330D01*
X211575208Y-116796608D01*
X211464953Y-117033956D01*
X211432284Y-117141671D01*
X211555626Y-117348000D01*
X212598000Y-117348000D01*
X212598000Y-117328000D01*
X212852000Y-117328000D01*
X212852000Y-117348000D01*
X213894374Y-117348000D01*
X214017716Y-117141671D01*
X213985047Y-117033956D01*
X213874792Y-116796608D01*
X213720351Y-116585330D01*
X213661240Y-116531005D01*
X213738359Y-116499061D01*
X213957013Y-116352962D01*
X214142962Y-116167013D01*
X214289061Y-115948359D01*
X214389696Y-115705405D01*
X214441000Y-115447486D01*
X214441000Y-115184514D01*
X214389696Y-114926595D01*
X214289061Y-114683641D01*
X214142962Y-114464987D01*
X213957013Y-114279038D01*
X213738359Y-114132939D01*
X213495405Y-114032304D01*
X213237486Y-113981000D01*
X212974514Y-113981000D01*
X212716595Y-114032304D01*
X212473641Y-114132939D01*
X212369400Y-114202590D01*
X212369400Y-111349410D01*
X212473641Y-111419061D01*
X212716595Y-111519696D01*
X212974514Y-111571000D01*
X213237486Y-111571000D01*
X213495405Y-111519696D01*
X213738359Y-111419061D01*
X213957013Y-111272962D01*
X214142962Y-111087013D01*
X214289061Y-110868359D01*
X214389696Y-110625405D01*
X214441000Y-110367486D01*
X214441000Y-110104514D01*
X214389696Y-109846595D01*
X214289061Y-109603641D01*
X214142962Y-109384987D01*
X213957013Y-109199038D01*
X213738359Y-109052939D01*
X213495405Y-108952304D01*
X213368195Y-108927000D01*
X213633260Y-108927000D01*
X213920158Y-108869932D01*
X214190411Y-108757990D01*
X214433632Y-108595475D01*
X214640475Y-108388632D01*
X214682001Y-108326485D01*
X214682001Y-124291928D01*
X214140005Y-124291928D01*
X213791800Y-123943724D01*
X213791800Y-123757175D01*
X213888962Y-123660013D01*
X214035061Y-123441359D01*
X214135696Y-123198405D01*
X214187000Y-122940486D01*
X214187000Y-122677514D01*
X214135696Y-122419595D01*
X214035061Y-122176641D01*
X213888962Y-121957987D01*
X213703013Y-121772038D01*
X213484359Y-121625939D01*
X213241405Y-121525304D01*
X212983486Y-121474000D01*
X212947768Y-121474000D01*
X213190605Y-121425696D01*
X213433559Y-121325061D01*
X213652213Y-121178962D01*
X213838162Y-120993013D01*
X213984261Y-120774359D01*
X214084896Y-120531405D01*
X214136200Y-120273486D01*
X214136200Y-120010514D01*
X214084896Y-119752595D01*
X213984261Y-119509641D01*
X213838162Y-119290987D01*
X213652213Y-119105038D01*
X213433559Y-118958939D01*
X213190605Y-118858304D01*
X212932686Y-118807000D01*
X212852002Y-118807000D01*
X212852002Y-118645202D01*
X213058330Y-118767722D01*
X213304123Y-118677853D01*
X213527660Y-118541759D01*
X213720351Y-118364670D01*
X213874792Y-118153392D01*
X213985047Y-117916044D01*
X214017716Y-117808329D01*
X213894374Y-117602000D01*
X212852000Y-117602000D01*
X212852000Y-117622000D01*
X212598000Y-117622000D01*
X212598000Y-117602000D01*
X211555626Y-117602000D01*
X211432284Y-117808329D01*
X211464953Y-117916044D01*
X211575208Y-118153392D01*
X211729649Y-118364670D01*
X211922340Y-118541759D01*
X212145877Y-118677853D01*
X212391670Y-118767722D01*
X212597998Y-118645202D01*
X212597998Y-118810000D01*
X212654632Y-118810000D01*
X212411795Y-118858304D01*
X212168841Y-118958939D01*
X211950187Y-119105038D01*
X211764238Y-119290987D01*
X211618139Y-119509641D01*
X211517504Y-119752595D01*
X211466200Y-120010514D01*
X211466200Y-120273486D01*
X211517504Y-120531405D01*
X211618139Y-120774359D01*
X211764238Y-120993013D01*
X211950187Y-121178962D01*
X212168841Y-121325061D01*
X212411795Y-121425696D01*
X212669714Y-121477000D01*
X212705432Y-121477000D01*
X212462595Y-121525304D01*
X212219641Y-121625939D01*
X212000987Y-121772038D01*
X211815038Y-121957987D01*
X211668939Y-122176641D01*
X211568304Y-122419595D01*
X211517000Y-122677514D01*
X211517000Y-122940486D01*
X211568304Y-123198405D01*
X211668939Y-123441359D01*
X211815038Y-123660013D01*
X211912201Y-123757176D01*
X211912201Y-124156550D01*
X211836051Y-124080400D01*
X211669645Y-123969211D01*
X211484745Y-123892623D01*
X211288456Y-123853579D01*
X211088322Y-123853579D01*
X210892033Y-123892623D01*
X210707133Y-123969211D01*
X210540727Y-124080400D01*
X210399210Y-124221917D01*
X210288021Y-124388323D01*
X210211433Y-124573223D01*
X210172389Y-124769512D01*
X210172389Y-124969646D01*
X210211433Y-125165935D01*
X210288021Y-125350835D01*
X210399210Y-125517241D01*
X210540727Y-125658758D01*
X210707133Y-125769947D01*
X210796837Y-125807104D01*
X211351623Y-126361890D01*
X211381056Y-126397754D01*
X211464004Y-126465828D01*
X211524158Y-126515196D01*
X211551855Y-126530000D01*
X211687424Y-126602463D01*
X211864577Y-126656202D01*
X212002643Y-126669800D01*
X212002652Y-126669800D01*
X212048809Y-126674346D01*
X212094966Y-126669800D01*
X212827835Y-126669800D01*
X212859498Y-126774180D01*
X212918463Y-126884494D01*
X212997815Y-126981185D01*
X213094506Y-127060537D01*
X213204820Y-127119502D01*
X213324518Y-127155812D01*
X213449000Y-127168072D01*
X214682001Y-127168072D01*
X214682001Y-127416157D01*
X214598040Y-127386091D01*
X214376000Y-127507376D01*
X214376000Y-128651000D01*
X214396000Y-128651000D01*
X214396000Y-128905000D01*
X214376000Y-128905000D01*
X214376000Y-130048624D01*
X214598040Y-130169909D01*
X214682001Y-130139843D01*
X214682001Y-130662819D01*
X214456686Y-130618000D01*
X214193714Y-130618000D01*
X213935795Y-130669304D01*
X213692841Y-130769939D01*
X213474187Y-130916038D01*
X213288238Y-131101987D01*
X213142139Y-131320641D01*
X213041504Y-131563595D01*
X212990200Y-131821514D01*
X212990200Y-132084486D01*
X213041504Y-132342405D01*
X213142139Y-132585359D01*
X213288238Y-132804013D01*
X213474187Y-132989962D01*
X213692841Y-133136061D01*
X213749428Y-133159500D01*
X213692841Y-133182939D01*
X213474187Y-133329038D01*
X213288238Y-133514987D01*
X213142139Y-133733641D01*
X213041504Y-133976595D01*
X212990200Y-134234514D01*
X212990200Y-134497486D01*
X213041504Y-134755405D01*
X213142139Y-134998359D01*
X213288238Y-135217013D01*
X213474187Y-135402962D01*
X213692841Y-135549061D01*
X213935795Y-135649696D01*
X214186173Y-135699500D01*
X213935795Y-135749304D01*
X213692841Y-135849939D01*
X213474187Y-135996038D01*
X213288238Y-136181987D01*
X213142139Y-136400641D01*
X213041504Y-136643595D01*
X212990200Y-136901514D01*
X212990200Y-137164486D01*
X213041504Y-137422405D01*
X213142139Y-137665359D01*
X213288238Y-137884013D01*
X213474187Y-138069962D01*
X213631281Y-138174928D01*
X213362000Y-138174928D01*
X213237518Y-138187188D01*
X213117820Y-138223498D01*
X213007506Y-138282463D01*
X212910815Y-138361815D01*
X212831463Y-138458506D01*
X212772498Y-138568820D01*
X212736188Y-138688518D01*
X212731630Y-138734800D01*
X210749870Y-138734800D01*
X210745312Y-138688518D01*
X210709002Y-138568820D01*
X210650037Y-138458506D01*
X210570685Y-138361815D01*
X210473994Y-138282463D01*
X210363680Y-138223498D01*
X210243982Y-138187188D01*
X210119500Y-138174928D01*
X209930737Y-138174928D01*
X209986864Y-137954269D01*
X209245200Y-137212605D01*
X208503536Y-137954269D01*
X208560636Y-138178756D01*
X208475018Y-138187188D01*
X208355320Y-138223498D01*
X208245006Y-138282463D01*
X208148315Y-138361815D01*
X208068963Y-138458506D01*
X208009998Y-138568820D01*
X207973688Y-138688518D01*
X207961428Y-138813000D01*
X207961428Y-140333000D01*
X207973688Y-140457482D01*
X208009998Y-140577180D01*
X208068963Y-140687494D01*
X208148315Y-140784185D01*
X208245006Y-140863537D01*
X208355320Y-140922502D01*
X208475018Y-140958812D01*
X208562967Y-140967474D01*
X208470239Y-141029433D01*
X208275933Y-141223739D01*
X208123267Y-141452220D01*
X208018109Y-141706093D01*
X207964500Y-141975604D01*
X207964500Y-142250396D01*
X208018109Y-142519907D01*
X208123267Y-142773780D01*
X208275933Y-143002261D01*
X208470239Y-143196567D01*
X208698720Y-143349233D01*
X208780240Y-143383000D01*
X208698720Y-143416767D01*
X208470239Y-143569433D01*
X208275933Y-143763739D01*
X208123267Y-143992220D01*
X208018109Y-144246093D01*
X207964500Y-144515604D01*
X207964500Y-144790396D01*
X208005079Y-144994399D01*
X207821585Y-144994399D01*
X207780422Y-144990345D01*
X207739259Y-144994399D01*
X207739253Y-144994399D01*
X207616107Y-145006528D01*
X207458106Y-145054457D01*
X207312491Y-145132290D01*
X207184859Y-145237035D01*
X207158616Y-145269012D01*
X206196306Y-146231323D01*
X206182050Y-146237228D01*
X206015644Y-146348417D01*
X205874127Y-146489934D01*
X205762938Y-146656340D01*
X205686350Y-146841240D01*
X205647306Y-147037529D01*
X205647306Y-147237663D01*
X205686350Y-147433952D01*
X205762938Y-147618852D01*
X205874127Y-147785258D01*
X206015644Y-147926775D01*
X206182050Y-148037964D01*
X206366950Y-148114552D01*
X206563239Y-148153596D01*
X206763373Y-148153596D01*
X206959662Y-148114552D01*
X207144562Y-148037964D01*
X207309303Y-147927888D01*
X207420838Y-148094813D01*
X207606787Y-148280762D01*
X207825441Y-148426861D01*
X208068395Y-148527496D01*
X208165680Y-148546848D01*
X208017595Y-148576304D01*
X207774641Y-148676939D01*
X207555987Y-148823038D01*
X207370038Y-149008987D01*
X207223939Y-149227641D01*
X207123304Y-149470595D01*
X207072000Y-149728514D01*
X207072000Y-149991486D01*
X207123304Y-150249405D01*
X207223939Y-150492359D01*
X207370038Y-150711013D01*
X207555987Y-150896962D01*
X207774641Y-151043061D01*
X208017595Y-151143696D01*
X208275514Y-151195000D01*
X208538486Y-151195000D01*
X208796405Y-151143696D01*
X209039359Y-151043061D01*
X209258013Y-150896962D01*
X209443962Y-150711013D01*
X209590061Y-150492359D01*
X209690696Y-150249405D01*
X209742000Y-149991486D01*
X209742000Y-149728514D01*
X209690696Y-149470595D01*
X209590061Y-149227641D01*
X209443962Y-149008987D01*
X209258013Y-148823038D01*
X209039359Y-148676939D01*
X208796405Y-148576304D01*
X208699120Y-148556952D01*
X208847205Y-148527496D01*
X209090159Y-148426861D01*
X209308813Y-148280762D01*
X209494762Y-148094813D01*
X209640861Y-147876159D01*
X209741496Y-147633205D01*
X209792800Y-147375286D01*
X209792800Y-147112314D01*
X209741496Y-146854395D01*
X209640861Y-146611441D01*
X209568465Y-146503092D01*
X209659767Y-146428163D01*
X209686014Y-146396181D01*
X209732582Y-146349613D01*
X209764564Y-146323366D01*
X209869309Y-146195734D01*
X209947142Y-146050119D01*
X209992449Y-145900761D01*
X210020280Y-145889233D01*
X210248761Y-145736567D01*
X210443067Y-145542261D01*
X210595733Y-145313780D01*
X210700891Y-145059907D01*
X210754500Y-144790396D01*
X210754500Y-144515604D01*
X210700891Y-144246093D01*
X210595733Y-143992220D01*
X210443067Y-143763739D01*
X210248761Y-143569433D01*
X210020280Y-143416767D01*
X209938760Y-143383000D01*
X210020280Y-143349233D01*
X210248761Y-143196567D01*
X210443067Y-143002261D01*
X210477185Y-142951200D01*
X211234807Y-142951200D01*
X212738980Y-144455374D01*
X212727000Y-144515604D01*
X212727000Y-144790396D01*
X212780609Y-145059907D01*
X212885767Y-145313780D01*
X213038433Y-145542261D01*
X213232739Y-145736567D01*
X213283801Y-145770685D01*
X213283801Y-145933170D01*
X213148395Y-145960104D01*
X212905441Y-146060739D01*
X212686787Y-146206838D01*
X212500838Y-146392787D01*
X212354739Y-146611441D01*
X212254104Y-146854395D01*
X212202800Y-147112314D01*
X212202800Y-147375286D01*
X212254104Y-147633205D01*
X212354739Y-147876159D01*
X212500838Y-148094813D01*
X212686787Y-148280762D01*
X212905441Y-148426861D01*
X213148395Y-148527496D01*
X213245680Y-148546848D01*
X213097595Y-148576304D01*
X212854641Y-148676939D01*
X212635987Y-148823038D01*
X212450038Y-149008987D01*
X212441477Y-149021800D01*
X211938140Y-149021800D01*
X211847378Y-148961155D01*
X211662478Y-148884567D01*
X211466189Y-148845523D01*
X211266055Y-148845523D01*
X211069766Y-148884567D01*
X210884866Y-148961155D01*
X210718460Y-149072344D01*
X210576943Y-149213861D01*
X210465754Y-149380267D01*
X210389166Y-149565167D01*
X210350122Y-149761456D01*
X210350122Y-149961590D01*
X210389166Y-150157879D01*
X210465754Y-150342779D01*
X210576943Y-150509185D01*
X210718460Y-150650702D01*
X210884866Y-150761891D01*
X211069766Y-150838479D01*
X211266055Y-150877523D01*
X211466189Y-150877523D01*
X211662478Y-150838479D01*
X211847378Y-150761891D01*
X211942698Y-150698200D01*
X212441477Y-150698200D01*
X212450038Y-150711013D01*
X212635987Y-150896962D01*
X212854641Y-151043061D01*
X213097595Y-151143696D01*
X213167289Y-151157559D01*
X213094506Y-151196463D01*
X212997815Y-151275815D01*
X212918463Y-151372506D01*
X212859498Y-151482820D01*
X212823188Y-151602518D01*
X212810928Y-151727000D01*
X212810928Y-153327000D01*
X212823188Y-153451482D01*
X212859498Y-153571180D01*
X212918463Y-153681494D01*
X212997815Y-153778185D01*
X213094506Y-153857537D01*
X213167289Y-153896441D01*
X213097595Y-153910304D01*
X212854641Y-154010939D01*
X212635987Y-154157038D01*
X212450038Y-154342987D01*
X212303939Y-154561641D01*
X212203304Y-154804595D01*
X212152000Y-155062514D01*
X212152000Y-155325486D01*
X212203304Y-155583405D01*
X212303939Y-155826359D01*
X212450038Y-156045013D01*
X212635987Y-156230962D01*
X212682439Y-156262000D01*
X209211561Y-156262000D01*
X209258013Y-156230962D01*
X209443962Y-156045013D01*
X209590061Y-155826359D01*
X209690696Y-155583405D01*
X209742000Y-155325486D01*
X209742000Y-155062514D01*
X209690696Y-154804595D01*
X209590061Y-154561641D01*
X209443962Y-154342987D01*
X209258013Y-154157038D01*
X209039359Y-154010939D01*
X208796405Y-153910304D01*
X208538486Y-153859000D01*
X208275514Y-153859000D01*
X208017595Y-153910304D01*
X207774641Y-154010939D01*
X207555987Y-154157038D01*
X207370038Y-154342987D01*
X207223939Y-154561641D01*
X207123304Y-154804595D01*
X207072000Y-155062514D01*
X207072000Y-155325486D01*
X207123304Y-155583405D01*
X207223939Y-155826359D01*
X207370038Y-156045013D01*
X207555987Y-156230962D01*
X207602439Y-156262000D01*
X196798000Y-156262000D01*
X196798000Y-154040604D01*
X197741000Y-154040604D01*
X197741000Y-154315396D01*
X197794609Y-154584907D01*
X197899767Y-154838780D01*
X198052433Y-155067261D01*
X198246739Y-155261567D01*
X198475220Y-155414233D01*
X198729093Y-155519391D01*
X198998604Y-155573000D01*
X199273396Y-155573000D01*
X199542907Y-155519391D01*
X199796780Y-155414233D01*
X200025261Y-155261567D01*
X200219567Y-155067261D01*
X200372233Y-154838780D01*
X200406000Y-154757260D01*
X200439767Y-154838780D01*
X200592433Y-155067261D01*
X200786739Y-155261567D01*
X201015220Y-155414233D01*
X201269093Y-155519391D01*
X201538604Y-155573000D01*
X201813396Y-155573000D01*
X202082907Y-155519391D01*
X202336780Y-155414233D01*
X202565261Y-155261567D01*
X202759567Y-155067261D01*
X202821526Y-154974533D01*
X202830188Y-155062482D01*
X202866498Y-155182180D01*
X202925463Y-155292494D01*
X203004815Y-155389185D01*
X203101506Y-155468537D01*
X203211820Y-155527502D01*
X203331518Y-155563812D01*
X203456000Y-155576072D01*
X204976000Y-155576072D01*
X205100482Y-155563812D01*
X205220180Y-155527502D01*
X205330494Y-155468537D01*
X205427185Y-155389185D01*
X205506537Y-155292494D01*
X205565502Y-155182180D01*
X205601812Y-155062482D01*
X205614072Y-154938000D01*
X205614072Y-153418000D01*
X205601812Y-153293518D01*
X205565502Y-153173820D01*
X205506537Y-153063506D01*
X205427185Y-152966815D01*
X205330494Y-152887463D01*
X205309122Y-152876039D01*
X205999096Y-152876039D01*
X206039754Y-153010087D01*
X206159963Y-153264420D01*
X206327481Y-153490414D01*
X206535869Y-153679385D01*
X206777119Y-153824070D01*
X207041960Y-153918909D01*
X207264000Y-153797624D01*
X207264000Y-152654000D01*
X207518000Y-152654000D01*
X207518000Y-153797624D01*
X207740040Y-153918909D01*
X208004881Y-153824070D01*
X208246131Y-153679385D01*
X208454519Y-153490414D01*
X208622037Y-153264420D01*
X208742246Y-153010087D01*
X208782904Y-152876039D01*
X208660915Y-152654000D01*
X207518000Y-152654000D01*
X207264000Y-152654000D01*
X206121085Y-152654000D01*
X205999096Y-152876039D01*
X205309122Y-152876039D01*
X205220180Y-152828498D01*
X205100482Y-152792188D01*
X204976000Y-152779928D01*
X203456000Y-152779928D01*
X203331518Y-152792188D01*
X203211820Y-152828498D01*
X203101506Y-152887463D01*
X203004815Y-152966815D01*
X202925463Y-153063506D01*
X202866498Y-153173820D01*
X202830188Y-153293518D01*
X202821526Y-153381467D01*
X202759567Y-153288739D01*
X202565261Y-153094433D01*
X202336780Y-152941767D01*
X202082907Y-152836609D01*
X201813396Y-152783000D01*
X201538604Y-152783000D01*
X201269093Y-152836609D01*
X201015220Y-152941767D01*
X200786739Y-153094433D01*
X200592433Y-153288739D01*
X200439767Y-153517220D01*
X200406000Y-153598740D01*
X200372233Y-153517220D01*
X200219567Y-153288739D01*
X200025261Y-153094433D01*
X199796780Y-152941767D01*
X199542907Y-152836609D01*
X199273396Y-152783000D01*
X198998604Y-152783000D01*
X198729093Y-152836609D01*
X198475220Y-152941767D01*
X198246739Y-153094433D01*
X198052433Y-153288739D01*
X197899767Y-153517220D01*
X197794609Y-153771093D01*
X197741000Y-154040604D01*
X196798000Y-154040604D01*
X196798000Y-150871514D01*
X197801000Y-150871514D01*
X197801000Y-151134486D01*
X197852304Y-151392405D01*
X197952939Y-151635359D01*
X198099038Y-151854013D01*
X198284987Y-152039962D01*
X198503641Y-152186061D01*
X198746595Y-152286696D01*
X199004514Y-152338000D01*
X199267486Y-152338000D01*
X199525405Y-152286696D01*
X199768359Y-152186061D01*
X199987013Y-152039962D01*
X200172962Y-151854013D01*
X200319061Y-151635359D01*
X200419696Y-151392405D01*
X200471000Y-151134486D01*
X200471000Y-150871514D01*
X200419696Y-150613595D01*
X200319061Y-150370641D01*
X200172962Y-150151987D01*
X199987013Y-149966038D01*
X199768359Y-149819939D01*
X199563666Y-149735152D01*
X199566130Y-149734787D01*
X199832292Y-149639603D01*
X199957514Y-149572671D01*
X200029097Y-149328702D01*
X199216000Y-148515605D01*
X198402903Y-149328702D01*
X198474486Y-149572671D01*
X198729996Y-149693571D01*
X198794578Y-149709759D01*
X198746595Y-149719304D01*
X198503641Y-149819939D01*
X198284987Y-149966038D01*
X198099038Y-150151987D01*
X197952939Y-150370641D01*
X197852304Y-150613595D01*
X197801000Y-150871514D01*
X196798000Y-150871514D01*
X196798000Y-148406512D01*
X197775783Y-148406512D01*
X197817213Y-148686130D01*
X197912397Y-148952292D01*
X197979329Y-149077514D01*
X198223298Y-149149097D01*
X199036395Y-148336000D01*
X199395605Y-148336000D01*
X200208702Y-149149097D01*
X200452671Y-149077514D01*
X200573571Y-148822004D01*
X200642300Y-148547816D01*
X200656217Y-148265488D01*
X200645724Y-148194665D01*
X202781000Y-148194665D01*
X202781000Y-148477335D01*
X202836147Y-148754574D01*
X202944320Y-149015727D01*
X203101363Y-149250759D01*
X203301241Y-149450637D01*
X203536273Y-149607680D01*
X203797426Y-149715853D01*
X203822760Y-149720892D01*
X203583641Y-149819939D01*
X203364987Y-149966038D01*
X203179038Y-150151987D01*
X203032939Y-150370641D01*
X202932304Y-150613595D01*
X202881000Y-150871514D01*
X202881000Y-151134486D01*
X202932304Y-151392405D01*
X203032939Y-151635359D01*
X203179038Y-151854013D01*
X203364987Y-152039962D01*
X203583641Y-152186061D01*
X203826595Y-152286696D01*
X204084514Y-152338000D01*
X204347486Y-152338000D01*
X204605405Y-152286696D01*
X204848359Y-152186061D01*
X204860481Y-152177961D01*
X205999096Y-152177961D01*
X206121085Y-152400000D01*
X207264000Y-152400000D01*
X207264000Y-151256376D01*
X207518000Y-151256376D01*
X207518000Y-152400000D01*
X208660915Y-152400000D01*
X208782904Y-152177961D01*
X208742246Y-152043913D01*
X208622037Y-151789580D01*
X208454519Y-151563586D01*
X208246131Y-151374615D01*
X208004881Y-151229930D01*
X207740040Y-151135091D01*
X207518000Y-151256376D01*
X207264000Y-151256376D01*
X207041960Y-151135091D01*
X206777119Y-151229930D01*
X206535869Y-151374615D01*
X206327481Y-151563586D01*
X206159963Y-151789580D01*
X206039754Y-152043913D01*
X205999096Y-152177961D01*
X204860481Y-152177961D01*
X205067013Y-152039962D01*
X205252962Y-151854013D01*
X205399061Y-151635359D01*
X205499696Y-151392405D01*
X205551000Y-151134486D01*
X205551000Y-150871514D01*
X205499696Y-150613595D01*
X205399061Y-150370641D01*
X205252962Y-150151987D01*
X205067013Y-149966038D01*
X204848359Y-149819939D01*
X204609240Y-149720892D01*
X204634574Y-149715853D01*
X204895727Y-149607680D01*
X205130759Y-149450637D01*
X205330637Y-149250759D01*
X205487680Y-149015727D01*
X205595853Y-148754574D01*
X205651000Y-148477335D01*
X205651000Y-148194665D01*
X205595853Y-147917426D01*
X205487680Y-147656273D01*
X205330637Y-147421241D01*
X205130759Y-147221363D01*
X204895727Y-147064320D01*
X204634574Y-146956147D01*
X204609240Y-146951108D01*
X204848359Y-146852061D01*
X205067013Y-146705962D01*
X205252962Y-146520013D01*
X205399061Y-146301359D01*
X205499696Y-146058405D01*
X205551000Y-145800486D01*
X205551000Y-145537514D01*
X205499696Y-145279595D01*
X205399061Y-145036641D01*
X205252962Y-144817987D01*
X205067013Y-144632038D01*
X204848359Y-144485939D01*
X204605405Y-144385304D01*
X204347486Y-144334000D01*
X204084514Y-144334000D01*
X203826595Y-144385304D01*
X203583641Y-144485939D01*
X203364987Y-144632038D01*
X203179038Y-144817987D01*
X203032939Y-145036641D01*
X202932304Y-145279595D01*
X202881000Y-145537514D01*
X202881000Y-145800486D01*
X202932304Y-146058405D01*
X203032939Y-146301359D01*
X203179038Y-146520013D01*
X203364987Y-146705962D01*
X203583641Y-146852061D01*
X203822760Y-146951108D01*
X203797426Y-146956147D01*
X203536273Y-147064320D01*
X203301241Y-147221363D01*
X203101363Y-147421241D01*
X202944320Y-147656273D01*
X202836147Y-147917426D01*
X202781000Y-148194665D01*
X200645724Y-148194665D01*
X200614787Y-147985870D01*
X200519603Y-147719708D01*
X200452671Y-147594486D01*
X200208702Y-147522903D01*
X199395605Y-148336000D01*
X199036395Y-148336000D01*
X198223298Y-147522903D01*
X197979329Y-147594486D01*
X197858429Y-147849996D01*
X197789700Y-148124184D01*
X197775783Y-148406512D01*
X196798000Y-148406512D01*
X196798000Y-145537514D01*
X197801000Y-145537514D01*
X197801000Y-145800486D01*
X197852304Y-146058405D01*
X197952939Y-146301359D01*
X198099038Y-146520013D01*
X198284987Y-146705962D01*
X198503641Y-146852061D01*
X198746595Y-146952696D01*
X198795418Y-146962408D01*
X198599708Y-147032397D01*
X198474486Y-147099329D01*
X198402903Y-147343298D01*
X199216000Y-148156395D01*
X200029097Y-147343298D01*
X199957514Y-147099329D01*
X199702004Y-146978429D01*
X199553281Y-146941149D01*
X199768359Y-146852061D01*
X199987013Y-146705962D01*
X200172962Y-146520013D01*
X200319061Y-146301359D01*
X200419696Y-146058405D01*
X200471000Y-145800486D01*
X200471000Y-145537514D01*
X200419696Y-145279595D01*
X200319061Y-145036641D01*
X200172962Y-144817987D01*
X199987013Y-144632038D01*
X199768359Y-144485939D01*
X199525405Y-144385304D01*
X199267486Y-144334000D01*
X199004514Y-144334000D01*
X198746595Y-144385304D01*
X198503641Y-144485939D01*
X198284987Y-144632038D01*
X198099038Y-144817987D01*
X197952939Y-145036641D01*
X197852304Y-145279595D01*
X197801000Y-145537514D01*
X196798000Y-145537514D01*
X196798000Y-144075693D01*
X196934486Y-144130650D01*
X197212000Y-144183000D01*
X197612000Y-144183000D01*
X197612000Y-142875000D01*
X197866000Y-142875000D01*
X197866000Y-144183000D01*
X198266000Y-144183000D01*
X198543514Y-144130650D01*
X198805483Y-144025166D01*
X199041839Y-143870601D01*
X199243500Y-143672895D01*
X199402715Y-143439646D01*
X199513367Y-143179818D01*
X199530904Y-143097039D01*
X199408915Y-142875000D01*
X197866000Y-142875000D01*
X197612000Y-142875000D01*
X197592000Y-142875000D01*
X197592000Y-142621000D01*
X197612000Y-142621000D01*
X197612000Y-142601000D01*
X197866000Y-142601000D01*
X197866000Y-142621000D01*
X199408915Y-142621000D01*
X199530904Y-142398961D01*
X199513367Y-142316182D01*
X199402715Y-142056354D01*
X199243500Y-141823105D01*
X199041839Y-141625399D01*
X198812259Y-141475265D01*
X198940101Y-141406932D01*
X199158608Y-141227608D01*
X199337932Y-141009101D01*
X199471182Y-140759808D01*
X199553236Y-140489309D01*
X199580943Y-140208000D01*
X199553236Y-139926691D01*
X199471182Y-139656192D01*
X199337932Y-139406899D01*
X199158608Y-139188392D01*
X198940101Y-139009068D01*
X198807142Y-138938000D01*
X198940101Y-138866932D01*
X199158608Y-138687608D01*
X199337932Y-138469101D01*
X199471182Y-138219808D01*
X199553236Y-137949309D01*
X199580943Y-137668000D01*
X199553236Y-137386691D01*
X199471182Y-137116192D01*
X199337932Y-136866899D01*
X199158608Y-136648392D01*
X199045518Y-136555581D01*
X199063482Y-136553812D01*
X199183180Y-136517502D01*
X199293494Y-136458537D01*
X199390185Y-136379185D01*
X199469537Y-136282494D01*
X199528502Y-136172180D01*
X199564812Y-136052482D01*
X199577072Y-135928000D01*
X199577072Y-134328000D01*
X199564812Y-134203518D01*
X199528502Y-134083820D01*
X199469537Y-133973506D01*
X199390185Y-133876815D01*
X199293494Y-133797463D01*
X199183180Y-133738498D01*
X199063482Y-133702188D01*
X198939000Y-133689928D01*
X196798000Y-133689928D01*
X196798000Y-133186831D01*
X197059184Y-133252300D01*
X197341512Y-133266217D01*
X197621130Y-133224787D01*
X197887292Y-133129603D01*
X198012514Y-133062671D01*
X198084097Y-132818702D01*
X197271000Y-132005605D01*
X197256858Y-132019748D01*
X197077253Y-131840143D01*
X197091395Y-131826000D01*
X197450605Y-131826000D01*
X198263702Y-132639097D01*
X198507671Y-132567514D01*
X198521324Y-132538659D01*
X198656363Y-132740759D01*
X198856241Y-132940637D01*
X199091273Y-133097680D01*
X199352426Y-133205853D01*
X199629665Y-133261000D01*
X199912335Y-133261000D01*
X200189574Y-133205853D01*
X200406000Y-133116207D01*
X200406000Y-133145267D01*
X200445044Y-133341556D01*
X200521632Y-133526456D01*
X200632821Y-133692862D01*
X200774338Y-133834379D01*
X200940744Y-133945568D01*
X201125644Y-134022156D01*
X201321933Y-134061200D01*
X201522067Y-134061200D01*
X201718356Y-134022156D01*
X201903256Y-133945568D01*
X202069662Y-133834379D01*
X202211179Y-133692862D01*
X202322368Y-133526456D01*
X202353418Y-133451495D01*
X203592208Y-134690286D01*
X203544764Y-134846691D01*
X203517057Y-135128000D01*
X203544764Y-135409309D01*
X203626818Y-135679808D01*
X203760068Y-135929101D01*
X203939392Y-136147608D01*
X204157899Y-136326932D01*
X204290858Y-136398000D01*
X204157899Y-136469068D01*
X203939392Y-136648392D01*
X203760068Y-136866899D01*
X203626818Y-137116192D01*
X203544764Y-137386691D01*
X203517057Y-137668000D01*
X203544764Y-137949309D01*
X203626818Y-138219808D01*
X203760068Y-138469101D01*
X203939392Y-138687608D01*
X204157899Y-138866932D01*
X204290858Y-138938000D01*
X204157899Y-139009068D01*
X203939392Y-139188392D01*
X203760068Y-139406899D01*
X203626818Y-139656192D01*
X203544764Y-139926691D01*
X203517057Y-140208000D01*
X203544764Y-140489309D01*
X203593632Y-140650407D01*
X201880145Y-142363895D01*
X201877628Y-142363895D01*
X201681339Y-142402939D01*
X201496439Y-142479527D01*
X201330033Y-142590716D01*
X201188516Y-142732233D01*
X201077327Y-142898639D01*
X201000739Y-143083539D01*
X200961695Y-143279828D01*
X200961695Y-143479962D01*
X201000739Y-143676251D01*
X201077327Y-143861151D01*
X201188516Y-144027557D01*
X201330033Y-144169074D01*
X201496439Y-144280263D01*
X201681339Y-144356851D01*
X201877628Y-144395895D01*
X202077762Y-144395895D01*
X202274051Y-144356851D01*
X202458951Y-144280263D01*
X202625357Y-144169074D01*
X202766874Y-144027557D01*
X202878063Y-143861151D01*
X202954651Y-143676251D01*
X202993695Y-143479962D01*
X202993695Y-143477445D01*
X203535535Y-142935605D01*
X203544764Y-143029309D01*
X203626818Y-143299808D01*
X203760068Y-143549101D01*
X203939392Y-143767608D01*
X204157899Y-143946932D01*
X204407192Y-144080182D01*
X204677691Y-144162236D01*
X204888508Y-144183000D01*
X205829492Y-144183000D01*
X206040309Y-144162236D01*
X206310808Y-144080182D01*
X206560101Y-143946932D01*
X206778608Y-143767608D01*
X206957932Y-143549101D01*
X207091182Y-143299808D01*
X207173236Y-143029309D01*
X207200943Y-142748000D01*
X207173236Y-142466691D01*
X207091182Y-142196192D01*
X206957932Y-141946899D01*
X206778608Y-141728392D01*
X206560101Y-141549068D01*
X206427142Y-141478000D01*
X206560101Y-141406932D01*
X206778608Y-141227608D01*
X206957932Y-141009101D01*
X207091182Y-140759808D01*
X207173236Y-140489309D01*
X207200943Y-140208000D01*
X207173236Y-139926691D01*
X207091182Y-139656192D01*
X206957932Y-139406899D01*
X206778608Y-139188392D01*
X206560101Y-139009068D01*
X206427142Y-138938000D01*
X206560101Y-138866932D01*
X206778608Y-138687608D01*
X206957932Y-138469101D01*
X207091182Y-138219808D01*
X207173236Y-137949309D01*
X207200943Y-137668000D01*
X207173236Y-137386691D01*
X207091182Y-137116192D01*
X207086522Y-137107473D01*
X207905810Y-137107473D01*
X207946075Y-137367344D01*
X208036265Y-137614366D01*
X208090163Y-137715203D01*
X208323931Y-137774664D01*
X209065595Y-137033000D01*
X209424805Y-137033000D01*
X210166469Y-137774664D01*
X210400237Y-137715203D01*
X210511134Y-137476758D01*
X210573383Y-137221260D01*
X210584590Y-136958527D01*
X210544325Y-136698656D01*
X210454135Y-136451634D01*
X210400237Y-136350797D01*
X210166469Y-136291336D01*
X209424805Y-137033000D01*
X209065595Y-137033000D01*
X208323931Y-136291336D01*
X208090163Y-136350797D01*
X207979266Y-136589242D01*
X207917017Y-136844740D01*
X207905810Y-137107473D01*
X207086522Y-137107473D01*
X206957932Y-136866899D01*
X206778608Y-136648392D01*
X206560101Y-136469068D01*
X206427142Y-136398000D01*
X206560101Y-136326932D01*
X206778608Y-136147608D01*
X206957932Y-135929101D01*
X207091182Y-135679808D01*
X207173236Y-135409309D01*
X207200943Y-135128000D01*
X207173236Y-134846691D01*
X207091182Y-134576192D01*
X206957932Y-134326899D01*
X206882114Y-134234514D01*
X207910200Y-134234514D01*
X207910200Y-134497486D01*
X207961504Y-134755405D01*
X208062139Y-134998359D01*
X208208238Y-135217013D01*
X208394187Y-135402962D01*
X208612841Y-135549061D01*
X208855795Y-135649696D01*
X209113714Y-135701000D01*
X209123032Y-135701000D01*
X208910856Y-135733875D01*
X208663834Y-135824065D01*
X208562997Y-135877963D01*
X208503536Y-136111731D01*
X209245200Y-136853395D01*
X209986864Y-136111731D01*
X209927403Y-135877963D01*
X209688958Y-135767066D01*
X209433460Y-135704817D01*
X209343976Y-135701000D01*
X209376686Y-135701000D01*
X209634605Y-135649696D01*
X209877559Y-135549061D01*
X210096213Y-135402962D01*
X210282162Y-135217013D01*
X210428261Y-134998359D01*
X210528896Y-134755405D01*
X210580200Y-134497486D01*
X210580200Y-134234514D01*
X210528896Y-133976595D01*
X210428261Y-133733641D01*
X210282162Y-133514987D01*
X210096213Y-133329038D01*
X209877559Y-133182939D01*
X209826690Y-133161869D01*
X209927403Y-133108037D01*
X209986864Y-132874269D01*
X209245200Y-132132605D01*
X208503536Y-132874269D01*
X208562997Y-133108037D01*
X208671661Y-133158575D01*
X208612841Y-133182939D01*
X208394187Y-133329038D01*
X208208238Y-133514987D01*
X208062139Y-133733641D01*
X207961504Y-133976595D01*
X207910200Y-134234514D01*
X206882114Y-134234514D01*
X206778608Y-134108392D01*
X206560101Y-133929068D01*
X206310808Y-133795818D01*
X206040309Y-133713764D01*
X205829492Y-133693000D01*
X205253078Y-133693000D01*
X203587550Y-132027473D01*
X207905810Y-132027473D01*
X207946075Y-132287344D01*
X208036265Y-132534366D01*
X208090163Y-132635203D01*
X208323931Y-132694664D01*
X209065595Y-131953000D01*
X209424805Y-131953000D01*
X210166469Y-132694664D01*
X210400237Y-132635203D01*
X210511134Y-132396758D01*
X210573383Y-132141260D01*
X210584590Y-131878527D01*
X210544325Y-131618656D01*
X210454135Y-131371634D01*
X210400237Y-131270797D01*
X210166469Y-131211336D01*
X209424805Y-131953000D01*
X209065595Y-131953000D01*
X208323931Y-131211336D01*
X208090163Y-131270797D01*
X207979266Y-131509242D01*
X207917017Y-131764740D01*
X207905810Y-132027473D01*
X203587550Y-132027473D01*
X202754191Y-131194115D01*
X202724754Y-131158246D01*
X202581651Y-131040804D01*
X202564677Y-131031731D01*
X208503536Y-131031731D01*
X209245200Y-131773395D01*
X209986864Y-131031731D01*
X209927403Y-130797963D01*
X209688958Y-130687066D01*
X209433460Y-130624817D01*
X209170727Y-130613610D01*
X208910856Y-130653875D01*
X208663834Y-130744065D01*
X208562997Y-130797963D01*
X208503536Y-131031731D01*
X202564677Y-131031731D01*
X202418386Y-130953537D01*
X202391932Y-130945512D01*
X202398956Y-130928556D01*
X202438000Y-130732267D01*
X202438000Y-130532133D01*
X202398956Y-130335844D01*
X202322368Y-130150944D01*
X202211179Y-129984538D01*
X202069662Y-129843021D01*
X201903256Y-129731832D01*
X201718356Y-129655244D01*
X201522067Y-129616200D01*
X201321933Y-129616200D01*
X201125644Y-129655244D01*
X200940744Y-129731832D01*
X200774338Y-129843021D01*
X200632821Y-129984538D01*
X200521632Y-130150944D01*
X200445044Y-130335844D01*
X200406000Y-130532133D01*
X200406000Y-130535793D01*
X200189574Y-130446147D01*
X199912335Y-130391000D01*
X199629665Y-130391000D01*
X199352426Y-130446147D01*
X199091273Y-130554320D01*
X198856241Y-130711363D01*
X198656363Y-130911241D01*
X198522308Y-131111869D01*
X198507671Y-131084486D01*
X198263702Y-131012903D01*
X197450605Y-131826000D01*
X197091395Y-131826000D01*
X197077253Y-131811858D01*
X197256858Y-131632253D01*
X197271000Y-131646395D01*
X198084097Y-130833298D01*
X198012514Y-130589329D01*
X197757004Y-130468429D01*
X197482816Y-130399700D01*
X197200488Y-130385783D01*
X196920870Y-130427213D01*
X196798000Y-130471153D01*
X196798000Y-130148939D01*
X196856560Y-130169909D01*
X197078600Y-130048624D01*
X197078600Y-128905000D01*
X197332600Y-128905000D01*
X197332600Y-130048624D01*
X197554640Y-130169909D01*
X197819481Y-130075070D01*
X198060731Y-129930385D01*
X198269119Y-129741414D01*
X198436637Y-129515420D01*
X198556846Y-129261087D01*
X198597504Y-129127039D01*
X198475515Y-128905000D01*
X197332600Y-128905000D01*
X197078600Y-128905000D01*
X197058600Y-128905000D01*
X197058600Y-128651000D01*
X197078600Y-128651000D01*
X197078600Y-127507376D01*
X197332600Y-127507376D01*
X197332600Y-128651000D01*
X198475515Y-128651000D01*
X198597504Y-128428961D01*
X198556846Y-128294913D01*
X198436637Y-128040580D01*
X198390250Y-127978000D01*
X202625528Y-127978000D01*
X202625528Y-129578000D01*
X202637788Y-129702482D01*
X202674098Y-129822180D01*
X202733063Y-129932494D01*
X202812415Y-130029185D01*
X202909106Y-130108537D01*
X203019420Y-130167502D01*
X203139118Y-130203812D01*
X203263600Y-130216072D01*
X204863600Y-130216072D01*
X204988082Y-130203812D01*
X205107780Y-130167502D01*
X205218094Y-130108537D01*
X205314785Y-130029185D01*
X205394137Y-129932494D01*
X205453102Y-129822180D01*
X205489412Y-129702482D01*
X205501672Y-129578000D01*
X205501672Y-127978000D01*
X205952928Y-127978000D01*
X205952928Y-129578000D01*
X205965188Y-129702482D01*
X206001498Y-129822180D01*
X206060463Y-129932494D01*
X206139815Y-130029185D01*
X206236506Y-130108537D01*
X206346820Y-130167502D01*
X206466518Y-130203812D01*
X206591000Y-130216072D01*
X208191000Y-130216072D01*
X208315482Y-130203812D01*
X208435180Y-130167502D01*
X208545494Y-130108537D01*
X208642185Y-130029185D01*
X208721537Y-129932494D01*
X208780502Y-129822180D01*
X208816812Y-129702482D01*
X208829072Y-129578000D01*
X208829072Y-129127039D01*
X212857096Y-129127039D01*
X212897754Y-129261087D01*
X213017963Y-129515420D01*
X213185481Y-129741414D01*
X213393869Y-129930385D01*
X213635119Y-130075070D01*
X213899960Y-130169909D01*
X214122000Y-130048624D01*
X214122000Y-128905000D01*
X212979085Y-128905000D01*
X212857096Y-129127039D01*
X208829072Y-129127039D01*
X208829072Y-128428961D01*
X212857096Y-128428961D01*
X212979085Y-128651000D01*
X214122000Y-128651000D01*
X214122000Y-127507376D01*
X213899960Y-127386091D01*
X213635119Y-127480930D01*
X213393869Y-127625615D01*
X213185481Y-127814586D01*
X213017963Y-128040580D01*
X212897754Y-128294913D01*
X212857096Y-128428961D01*
X208829072Y-128428961D01*
X208829072Y-127978000D01*
X208816812Y-127853518D01*
X208780502Y-127733820D01*
X208721537Y-127623506D01*
X208642185Y-127526815D01*
X208545494Y-127447463D01*
X208435180Y-127388498D01*
X208315482Y-127352188D01*
X208191000Y-127339928D01*
X206591000Y-127339928D01*
X206466518Y-127352188D01*
X206346820Y-127388498D01*
X206236506Y-127447463D01*
X206139815Y-127526815D01*
X206060463Y-127623506D01*
X206001498Y-127733820D01*
X205965188Y-127853518D01*
X205952928Y-127978000D01*
X205501672Y-127978000D01*
X205489412Y-127853518D01*
X205453102Y-127733820D01*
X205394137Y-127623506D01*
X205314785Y-127526815D01*
X205218094Y-127447463D01*
X205107780Y-127388498D01*
X204988082Y-127352188D01*
X204863600Y-127339928D01*
X203263600Y-127339928D01*
X203139118Y-127352188D01*
X203019420Y-127388498D01*
X202909106Y-127447463D01*
X202812415Y-127526815D01*
X202733063Y-127623506D01*
X202674098Y-127733820D01*
X202637788Y-127853518D01*
X202625528Y-127978000D01*
X198390250Y-127978000D01*
X198269119Y-127814586D01*
X198060731Y-127625615D01*
X197819481Y-127480930D01*
X197554640Y-127386091D01*
X197332600Y-127507376D01*
X197078600Y-127507376D01*
X196856560Y-127386091D01*
X196798000Y-127407061D01*
X196798000Y-127168072D01*
X198031000Y-127168072D01*
X198155482Y-127155812D01*
X198275180Y-127119502D01*
X198385494Y-127060537D01*
X198482185Y-126981185D01*
X198561537Y-126884494D01*
X198620502Y-126774180D01*
X198656812Y-126654482D01*
X198669072Y-126530000D01*
X198669072Y-125588665D01*
X202654000Y-125588665D01*
X202654000Y-125871335D01*
X202709147Y-126148574D01*
X202817320Y-126409727D01*
X202974363Y-126644759D01*
X203174241Y-126844637D01*
X203409273Y-127001680D01*
X203670426Y-127109853D01*
X203947665Y-127165000D01*
X204230335Y-127165000D01*
X204507574Y-127109853D01*
X204768727Y-127001680D01*
X205003759Y-126844637D01*
X205203637Y-126644759D01*
X205360680Y-126409727D01*
X205468853Y-126148574D01*
X205524000Y-125871335D01*
X205524000Y-125588665D01*
X205956000Y-125588665D01*
X205956000Y-125871335D01*
X206011147Y-126148574D01*
X206119320Y-126409727D01*
X206276363Y-126644759D01*
X206476241Y-126844637D01*
X206711273Y-127001680D01*
X206972426Y-127109853D01*
X207249665Y-127165000D01*
X207532335Y-127165000D01*
X207809574Y-127109853D01*
X208070727Y-127001680D01*
X208305759Y-126844637D01*
X208505637Y-126644759D01*
X208662680Y-126409727D01*
X208770853Y-126148574D01*
X208826000Y-125871335D01*
X208826000Y-125588665D01*
X208770853Y-125311426D01*
X208662680Y-125050273D01*
X208505637Y-124815241D01*
X208305759Y-124615363D01*
X208070727Y-124458320D01*
X207809574Y-124350147D01*
X207532335Y-124295000D01*
X207249665Y-124295000D01*
X206972426Y-124350147D01*
X206711273Y-124458320D01*
X206476241Y-124615363D01*
X206276363Y-124815241D01*
X206119320Y-125050273D01*
X206011147Y-125311426D01*
X205956000Y-125588665D01*
X205524000Y-125588665D01*
X205468853Y-125311426D01*
X205360680Y-125050273D01*
X205203637Y-124815241D01*
X205003759Y-124615363D01*
X204768727Y-124458320D01*
X204507574Y-124350147D01*
X204230335Y-124295000D01*
X203947665Y-124295000D01*
X203670426Y-124350147D01*
X203409273Y-124458320D01*
X203174241Y-124615363D01*
X202974363Y-124815241D01*
X202817320Y-125050273D01*
X202709147Y-125311426D01*
X202654000Y-125588665D01*
X198669072Y-125588665D01*
X198669072Y-124930000D01*
X198656812Y-124805518D01*
X198620502Y-124685820D01*
X198561537Y-124575506D01*
X198482185Y-124478815D01*
X198385494Y-124399463D01*
X198275180Y-124340498D01*
X198170800Y-124308835D01*
X198170800Y-124012009D01*
X198365595Y-124092696D01*
X198623514Y-124144000D01*
X198886486Y-124144000D01*
X199144405Y-124092696D01*
X199387359Y-123992061D01*
X199606013Y-123845962D01*
X199791962Y-123660013D01*
X199938061Y-123441359D01*
X200038696Y-123198405D01*
X200090000Y-122940486D01*
X200090000Y-122677514D01*
X200038696Y-122419595D01*
X199938061Y-122176641D01*
X199791962Y-121957987D01*
X199606013Y-121772038D01*
X199387359Y-121625939D01*
X199144405Y-121525304D01*
X198894027Y-121475500D01*
X199144405Y-121425696D01*
X199387359Y-121325061D01*
X199606013Y-121178962D01*
X199791962Y-120993013D01*
X199938061Y-120774359D01*
X200038696Y-120531405D01*
X200090000Y-120273486D01*
X200090000Y-120010514D01*
X200038696Y-119752595D01*
X199938061Y-119509641D01*
X199791962Y-119290987D01*
X199606013Y-119105038D01*
X199387359Y-118958939D01*
X199144405Y-118858304D01*
X198886486Y-118807000D01*
X198882002Y-118807000D01*
X198882002Y-118645202D01*
X199088330Y-118767722D01*
X199334123Y-118677853D01*
X199557660Y-118541759D01*
X199750351Y-118364670D01*
X199904792Y-118153392D01*
X200015047Y-117916044D01*
X200047716Y-117808329D01*
X199924374Y-117602000D01*
X198882000Y-117602000D01*
X198882000Y-117622000D01*
X198628000Y-117622000D01*
X198628000Y-117602000D01*
X197585626Y-117602000D01*
X197462284Y-117808329D01*
X197494953Y-117916044D01*
X197605208Y-118153392D01*
X197759649Y-118364670D01*
X197952340Y-118541759D01*
X198175877Y-118677853D01*
X198421670Y-118767722D01*
X198627998Y-118645202D01*
X198627998Y-118807000D01*
X198623514Y-118807000D01*
X198365595Y-118858304D01*
X198122641Y-118958939D01*
X197903987Y-119105038D01*
X197718038Y-119290987D01*
X197571939Y-119509641D01*
X197471304Y-119752595D01*
X197420000Y-120010514D01*
X197420000Y-120273486D01*
X197471304Y-120531405D01*
X197571939Y-120774359D01*
X197718038Y-120993013D01*
X197903987Y-121178962D01*
X198122641Y-121325061D01*
X198365595Y-121425696D01*
X198615973Y-121475500D01*
X198365595Y-121525304D01*
X198122641Y-121625939D01*
X197903987Y-121772038D01*
X197806825Y-121869200D01*
X197658156Y-121869200D01*
X197611999Y-121864654D01*
X197565842Y-121869200D01*
X197565833Y-121869200D01*
X197427767Y-121882798D01*
X197250614Y-121936537D01*
X197087349Y-122023804D01*
X196944246Y-122141246D01*
X196914813Y-122177110D01*
X196798000Y-122293923D01*
X196798000Y-115919536D01*
X196809939Y-115948359D01*
X196956038Y-116167013D01*
X197141987Y-116352962D01*
X197360641Y-116499061D01*
X197603595Y-116599696D01*
X197730670Y-116624973D01*
X197605208Y-116796608D01*
X197494953Y-117033956D01*
X197462284Y-117141671D01*
X197585626Y-117348000D01*
X198628000Y-117348000D01*
X198628000Y-117328000D01*
X198882000Y-117328000D01*
X198882000Y-117348000D01*
X199924374Y-117348000D01*
X199927055Y-117343514D01*
X202500000Y-117343514D01*
X202500000Y-117606486D01*
X202551304Y-117864405D01*
X202651939Y-118107359D01*
X202798038Y-118326013D01*
X202983987Y-118511962D01*
X203202641Y-118658061D01*
X203445595Y-118758696D01*
X203695973Y-118808500D01*
X203445595Y-118858304D01*
X203202641Y-118958939D01*
X202983987Y-119105038D01*
X202798038Y-119290987D01*
X202651939Y-119509641D01*
X202551304Y-119752595D01*
X202500000Y-120010514D01*
X202500000Y-120273486D01*
X202551304Y-120531405D01*
X202651939Y-120774359D01*
X202798038Y-120993013D01*
X202983987Y-121178962D01*
X203202641Y-121325061D01*
X203445595Y-121425696D01*
X203695973Y-121475500D01*
X203445595Y-121525304D01*
X203202641Y-121625939D01*
X202983987Y-121772038D01*
X202798038Y-121957987D01*
X202651939Y-122176641D01*
X202551304Y-122419595D01*
X202500000Y-122677514D01*
X202500000Y-122940486D01*
X202551304Y-123198405D01*
X202651939Y-123441359D01*
X202798038Y-123660013D01*
X202983987Y-123845962D01*
X203202641Y-123992061D01*
X203445595Y-124092696D01*
X203703514Y-124144000D01*
X203966486Y-124144000D01*
X204224405Y-124092696D01*
X204467359Y-123992061D01*
X204686013Y-123845962D01*
X204871962Y-123660013D01*
X205018061Y-123441359D01*
X205118696Y-123198405D01*
X205170000Y-122940486D01*
X205170000Y-122677514D01*
X205118696Y-122419595D01*
X205018061Y-122176641D01*
X204871962Y-121957987D01*
X204686013Y-121772038D01*
X204467359Y-121625939D01*
X204224405Y-121525304D01*
X203974027Y-121475500D01*
X204224405Y-121425696D01*
X204467359Y-121325061D01*
X204686013Y-121178962D01*
X204871962Y-120993013D01*
X205018061Y-120774359D01*
X205118696Y-120531405D01*
X205170000Y-120273486D01*
X205170000Y-120010514D01*
X205118696Y-119752595D01*
X205018061Y-119509641D01*
X204871962Y-119290987D01*
X204686013Y-119105038D01*
X204467359Y-118958939D01*
X204224405Y-118858304D01*
X203974027Y-118808500D01*
X204224405Y-118758696D01*
X204467359Y-118658061D01*
X204686013Y-118511962D01*
X204871962Y-118326013D01*
X205018061Y-118107359D01*
X205118696Y-117864405D01*
X205170000Y-117606486D01*
X205170000Y-117343514D01*
X206310000Y-117343514D01*
X206310000Y-117606486D01*
X206361304Y-117864405D01*
X206461939Y-118107359D01*
X206608038Y-118326013D01*
X206793987Y-118511962D01*
X207012641Y-118658061D01*
X207255595Y-118758696D01*
X207513514Y-118810000D01*
X207574632Y-118810000D01*
X207331795Y-118858304D01*
X207088841Y-118958939D01*
X206870187Y-119105038D01*
X206684238Y-119290987D01*
X206538139Y-119509641D01*
X206437504Y-119752595D01*
X206386200Y-120010514D01*
X206386200Y-120273486D01*
X206437504Y-120531405D01*
X206538139Y-120774359D01*
X206684238Y-120993013D01*
X206870187Y-121178962D01*
X207088841Y-121325061D01*
X207331795Y-121425696D01*
X207589714Y-121477000D01*
X207625432Y-121477000D01*
X207382595Y-121525304D01*
X207139641Y-121625939D01*
X206920987Y-121772038D01*
X206735038Y-121957987D01*
X206588939Y-122176641D01*
X206488304Y-122419595D01*
X206437000Y-122677514D01*
X206437000Y-122940486D01*
X206488304Y-123198405D01*
X206588939Y-123441359D01*
X206735038Y-123660013D01*
X206920987Y-123845962D01*
X207139641Y-123992061D01*
X207382595Y-124092696D01*
X207640514Y-124144000D01*
X207903486Y-124144000D01*
X208161405Y-124092696D01*
X208404359Y-123992061D01*
X208623013Y-123845962D01*
X208808962Y-123660013D01*
X208955061Y-123441359D01*
X209055696Y-123198405D01*
X209107000Y-122940486D01*
X209107000Y-122677514D01*
X209055696Y-122419595D01*
X208955061Y-122176641D01*
X208808962Y-121957987D01*
X208623013Y-121772038D01*
X208404359Y-121625939D01*
X208161405Y-121525304D01*
X207903486Y-121474000D01*
X207867768Y-121474000D01*
X208110605Y-121425696D01*
X208353559Y-121325061D01*
X208572213Y-121178962D01*
X208758162Y-120993013D01*
X208904261Y-120774359D01*
X209004896Y-120531405D01*
X209056200Y-120273486D01*
X209056200Y-120010514D01*
X209004896Y-119752595D01*
X208904261Y-119509641D01*
X208758162Y-119290987D01*
X208572213Y-119105038D01*
X208353559Y-118958939D01*
X208110605Y-118858304D01*
X207852686Y-118807000D01*
X207791568Y-118807000D01*
X208034405Y-118758696D01*
X208277359Y-118658061D01*
X208496013Y-118511962D01*
X208681962Y-118326013D01*
X208828061Y-118107359D01*
X208928696Y-117864405D01*
X208980000Y-117606486D01*
X208980000Y-117343514D01*
X208928696Y-117085595D01*
X208828061Y-116842641D01*
X208681962Y-116623987D01*
X208496013Y-116438038D01*
X208277359Y-116291939D01*
X208034405Y-116191304D01*
X207776486Y-116140000D01*
X207513514Y-116140000D01*
X207255595Y-116191304D01*
X207012641Y-116291939D01*
X206793987Y-116438038D01*
X206608038Y-116623987D01*
X206461939Y-116842641D01*
X206361304Y-117085595D01*
X206310000Y-117343514D01*
X205170000Y-117343514D01*
X205118696Y-117085595D01*
X205018061Y-116842641D01*
X204871962Y-116623987D01*
X204686013Y-116438038D01*
X204467359Y-116291939D01*
X204224405Y-116191304D01*
X203966486Y-116140000D01*
X203703514Y-116140000D01*
X203445595Y-116191304D01*
X203202641Y-116291939D01*
X202983987Y-116438038D01*
X202798038Y-116623987D01*
X202651939Y-116842641D01*
X202551304Y-117085595D01*
X202500000Y-117343514D01*
X199927055Y-117343514D01*
X200047716Y-117141671D01*
X200015047Y-117033956D01*
X199904792Y-116796608D01*
X199750351Y-116585330D01*
X199612891Y-116459000D01*
X199807567Y-116459000D01*
X200003856Y-116419956D01*
X200188756Y-116343368D01*
X200355162Y-116232179D01*
X200496679Y-116090662D01*
X200607868Y-115924256D01*
X200684456Y-115739356D01*
X200723500Y-115543067D01*
X200723500Y-115367501D01*
X200728899Y-115371932D01*
X200978192Y-115505182D01*
X201248691Y-115587236D01*
X201459508Y-115608000D01*
X202400492Y-115608000D01*
X202611309Y-115587236D01*
X202881808Y-115505182D01*
X203131101Y-115371932D01*
X203349608Y-115192608D01*
X203528932Y-114974101D01*
X203662182Y-114724808D01*
X203744236Y-114454309D01*
X203771943Y-114173000D01*
X203744236Y-113891691D01*
X203662182Y-113621192D01*
X203528932Y-113371899D01*
X203349608Y-113153392D01*
X203131101Y-112974068D01*
X202998142Y-112903000D01*
X203131101Y-112831932D01*
X203349608Y-112652608D01*
X203528932Y-112434101D01*
X203662182Y-112184808D01*
X203744236Y-111914309D01*
X203771943Y-111633000D01*
X203744236Y-111351691D01*
X203662182Y-111081192D01*
X203528932Y-110831899D01*
X203349608Y-110613392D01*
X203131101Y-110434068D01*
X202998142Y-110363000D01*
X203131101Y-110291932D01*
X203349608Y-110112608D01*
X203528932Y-109894101D01*
X203662182Y-109644808D01*
X203744236Y-109374309D01*
X203771943Y-109093000D01*
X203744236Y-108811691D01*
X203662182Y-108541192D01*
X203528932Y-108291899D01*
X203349608Y-108073392D01*
X203131101Y-107894068D01*
X202998142Y-107823000D01*
X203131101Y-107751932D01*
X203349608Y-107572608D01*
X203528932Y-107354101D01*
X203662182Y-107104808D01*
X203744236Y-106834309D01*
X203771943Y-106553000D01*
X203744236Y-106271691D01*
X203662182Y-106001192D01*
X203528932Y-105751899D01*
X203349608Y-105533392D01*
X203131101Y-105354068D01*
X203003259Y-105285735D01*
X203232839Y-105135601D01*
X203434500Y-104937895D01*
X203593715Y-104704646D01*
X203704367Y-104444818D01*
X203721904Y-104362039D01*
X203599915Y-104140000D01*
X202057000Y-104140000D01*
X202057000Y-104160000D01*
X201803000Y-104160000D01*
X201803000Y-104140000D01*
X200260085Y-104140000D01*
X200138096Y-104362039D01*
X200155633Y-104444818D01*
X200266285Y-104704646D01*
X200286723Y-104734588D01*
X200281636Y-104731189D01*
X200246295Y-104702107D01*
X200204868Y-104679894D01*
X200165773Y-104653771D01*
X200123479Y-104636252D01*
X200083145Y-104614625D01*
X200038179Y-104600920D01*
X199994740Y-104582927D01*
X199949842Y-104573996D01*
X199906063Y-104560653D01*
X199859288Y-104555984D01*
X199813173Y-104546811D01*
X199767395Y-104546811D01*
X199721854Y-104542265D01*
X199675064Y-104546811D01*
X199628049Y-104546811D01*
X199583157Y-104555741D01*
X199537598Y-104560167D01*
X199492590Y-104573756D01*
X199446482Y-104582927D01*
X199443843Y-104584020D01*
X199420932Y-104468842D01*
X199308990Y-104198589D01*
X199146475Y-103955368D01*
X198939632Y-103748525D01*
X198765240Y-103632000D01*
X198939632Y-103515475D01*
X199146475Y-103308632D01*
X199308990Y-103065411D01*
X199420932Y-102795158D01*
X199478000Y-102508260D01*
X199478000Y-102311200D01*
X200361514Y-102311200D01*
X200510392Y-102492608D01*
X200728899Y-102671932D01*
X200856741Y-102740265D01*
X200627161Y-102890399D01*
X200425500Y-103088105D01*
X200266285Y-103321354D01*
X200155633Y-103581182D01*
X200138096Y-103663961D01*
X200260085Y-103886000D01*
X201803000Y-103886000D01*
X201803000Y-103866000D01*
X202057000Y-103866000D01*
X202057000Y-103886000D01*
X203599915Y-103886000D01*
X203721904Y-103663961D01*
X203704367Y-103581182D01*
X203593715Y-103321354D01*
X203434500Y-103088105D01*
X203232839Y-102890399D01*
X203003259Y-102740265D01*
X203131101Y-102671932D01*
X203349608Y-102492608D01*
X203498486Y-102311200D01*
X204182342Y-102311200D01*
X204255432Y-102487656D01*
X204366621Y-102654062D01*
X204508138Y-102795579D01*
X204674544Y-102906768D01*
X204859444Y-102983356D01*
X205055733Y-103022400D01*
X205255867Y-103022400D01*
X205452156Y-102983356D01*
X205637056Y-102906768D01*
X205803462Y-102795579D01*
X205944979Y-102654062D01*
X206056168Y-102487656D01*
X206132756Y-102302756D01*
X206171800Y-102106467D01*
X206171800Y-101906333D01*
X206132756Y-101710044D01*
X206056168Y-101525144D01*
X205944979Y-101358738D01*
X205803462Y-101217221D01*
X205637056Y-101106032D01*
X205452156Y-101029444D01*
X205342406Y-101007614D01*
X205244211Y-100909418D01*
X205217964Y-100877436D01*
X205090332Y-100772691D01*
X204944717Y-100694858D01*
X204786716Y-100646929D01*
X204663570Y-100634800D01*
X204663563Y-100634800D01*
X204622400Y-100630746D01*
X204581237Y-100634800D01*
X203498486Y-100634800D01*
X203349608Y-100453392D01*
X203236518Y-100360581D01*
X203254482Y-100358812D01*
X203374180Y-100322502D01*
X203484494Y-100263537D01*
X203581185Y-100184185D01*
X203660537Y-100087494D01*
X203719502Y-99977180D01*
X203755812Y-99857482D01*
X203768072Y-99733000D01*
X203768072Y-98133000D01*
X203755812Y-98008518D01*
X203719502Y-97888820D01*
X203660537Y-97778506D01*
X203581185Y-97681815D01*
X203484494Y-97602463D01*
X203374180Y-97543498D01*
X203254482Y-97507188D01*
X203130000Y-97494928D01*
X200730000Y-97494928D01*
X200605518Y-97507188D01*
X200485820Y-97543498D01*
X200375506Y-97602463D01*
X200278815Y-97681815D01*
X200199463Y-97778506D01*
X200140498Y-97888820D01*
X200104188Y-98008518D01*
X200095690Y-98094800D01*
X199230420Y-98094800D01*
X199264641Y-98048920D01*
X199389825Y-97786099D01*
X199434476Y-97638890D01*
X199313155Y-97409000D01*
X198120000Y-97409000D01*
X198120000Y-97429000D01*
X197866000Y-97429000D01*
X197866000Y-97409000D01*
X197846000Y-97409000D01*
X197846000Y-97155000D01*
X197866000Y-97155000D01*
X197866000Y-94869000D01*
X198120000Y-94869000D01*
X198120000Y-97155000D01*
X199313155Y-97155000D01*
X199434476Y-96925110D01*
X199427801Y-96903102D01*
X200648903Y-96903102D01*
X200720486Y-97147071D01*
X200975996Y-97267971D01*
X201250184Y-97336700D01*
X201532512Y-97350617D01*
X201812130Y-97309187D01*
X202078292Y-97214003D01*
X202203514Y-97147071D01*
X202275097Y-96903102D01*
X201462000Y-96090005D01*
X200648903Y-96903102D01*
X199427801Y-96903102D01*
X199389825Y-96777901D01*
X199264641Y-96515080D01*
X199090588Y-96281731D01*
X198874355Y-96086822D01*
X198748745Y-96012000D01*
X198800935Y-95980912D01*
X200021783Y-95980912D01*
X200063213Y-96260530D01*
X200158397Y-96526692D01*
X200225329Y-96651914D01*
X200469298Y-96723497D01*
X201282395Y-95910400D01*
X200469298Y-95097303D01*
X200225329Y-95168886D01*
X200104429Y-95424396D01*
X200035700Y-95698584D01*
X200021783Y-95980912D01*
X198800935Y-95980912D01*
X198874355Y-95937178D01*
X199090588Y-95742269D01*
X199264641Y-95508920D01*
X199389825Y-95246099D01*
X199434476Y-95098890D01*
X199338855Y-94917698D01*
X200648903Y-94917698D01*
X201462000Y-95730795D01*
X202275097Y-94917698D01*
X202257278Y-94856968D01*
X202388663Y-94769179D01*
X202390442Y-94767400D01*
X203089689Y-94767400D01*
X203047241Y-94795763D01*
X202847363Y-94995641D01*
X202713308Y-95196269D01*
X202698671Y-95168886D01*
X202454702Y-95097303D01*
X201641605Y-95910400D01*
X202454702Y-96723497D01*
X202698671Y-96651914D01*
X202712324Y-96623059D01*
X202847363Y-96825159D01*
X203047241Y-97025037D01*
X203282273Y-97182080D01*
X203543426Y-97290253D01*
X203820665Y-97345400D01*
X204103335Y-97345400D01*
X204380574Y-97290253D01*
X204641727Y-97182080D01*
X204876759Y-97025037D01*
X205076637Y-96825159D01*
X205233680Y-96590127D01*
X205341853Y-96328974D01*
X205397000Y-96051735D01*
X205397000Y-95769065D01*
X205341853Y-95491826D01*
X205233680Y-95230673D01*
X205076637Y-94995641D01*
X204889419Y-94808423D01*
X204917780Y-94780062D01*
X205028969Y-94613656D01*
X205105557Y-94428756D01*
X205144601Y-94232467D01*
X205144601Y-94032333D01*
X205107799Y-93847312D01*
X208770183Y-93847312D01*
X208811613Y-94126930D01*
X208906797Y-94393092D01*
X208973729Y-94518314D01*
X209217698Y-94589897D01*
X210030795Y-93776800D01*
X210390005Y-93776800D01*
X211203102Y-94589897D01*
X211447071Y-94518314D01*
X211567971Y-94262804D01*
X211636700Y-93988616D01*
X211650617Y-93706288D01*
X211609187Y-93426670D01*
X211514003Y-93160508D01*
X211447071Y-93035286D01*
X211203102Y-92963703D01*
X210390005Y-93776800D01*
X210030795Y-93776800D01*
X209217698Y-92963703D01*
X208973729Y-93035286D01*
X208852829Y-93290796D01*
X208784100Y-93564984D01*
X208770183Y-93847312D01*
X205107799Y-93847312D01*
X205105557Y-93836044D01*
X205028969Y-93651144D01*
X204917780Y-93484738D01*
X204776263Y-93343221D01*
X204609857Y-93232032D01*
X204424957Y-93155444D01*
X204228668Y-93116400D01*
X204028534Y-93116400D01*
X203832245Y-93155444D01*
X203742542Y-93192600D01*
X202390442Y-93192600D01*
X202388663Y-93190821D01*
X202222257Y-93079632D01*
X202037357Y-93003044D01*
X201841068Y-92964000D01*
X201640934Y-92964000D01*
X201444645Y-93003044D01*
X201259745Y-93079632D01*
X201093339Y-93190821D01*
X200951822Y-93332338D01*
X200840633Y-93498744D01*
X200764045Y-93683644D01*
X200725001Y-93879933D01*
X200725001Y-94080067D01*
X200764045Y-94276356D01*
X200840633Y-94461256D01*
X200920103Y-94580192D01*
X200845708Y-94606797D01*
X200720486Y-94673729D01*
X200648903Y-94917698D01*
X199338855Y-94917698D01*
X199313155Y-94869000D01*
X198120000Y-94869000D01*
X197866000Y-94869000D01*
X197846000Y-94869000D01*
X197846000Y-94615000D01*
X197866000Y-94615000D01*
X197866000Y-92329000D01*
X198120000Y-92329000D01*
X198120000Y-94615000D01*
X199313155Y-94615000D01*
X199434476Y-94385110D01*
X199389825Y-94237901D01*
X199264641Y-93975080D01*
X199090588Y-93741731D01*
X198874355Y-93546822D01*
X198748745Y-93472000D01*
X198874355Y-93397178D01*
X199090588Y-93202269D01*
X199264641Y-92968920D01*
X199389825Y-92706099D01*
X199434476Y-92558890D01*
X199313155Y-92329000D01*
X198120000Y-92329000D01*
X197866000Y-92329000D01*
X197846000Y-92329000D01*
X197846000Y-92075000D01*
X197866000Y-92075000D01*
X197866000Y-92055000D01*
X198120000Y-92055000D01*
X198120000Y-92075000D01*
X199313155Y-92075000D01*
X199434476Y-91845110D01*
X199401750Y-91737217D01*
X199544154Y-91832368D01*
X199729054Y-91908956D01*
X199925343Y-91948000D01*
X200125477Y-91948000D01*
X200321766Y-91908956D01*
X200506666Y-91832368D01*
X200673072Y-91721179D01*
X200814589Y-91579662D01*
X200925778Y-91413256D01*
X201002366Y-91228356D01*
X201041410Y-91032067D01*
X201041410Y-90831933D01*
X201002366Y-90635644D01*
X200965210Y-90545941D01*
X200965210Y-90457872D01*
X203505000Y-90457872D01*
X203505000Y-90898128D01*
X203590890Y-91329925D01*
X203759369Y-91736669D01*
X204003962Y-92102729D01*
X204315271Y-92414038D01*
X204681331Y-92658631D01*
X205088075Y-92827110D01*
X205519872Y-92913000D01*
X205960128Y-92913000D01*
X206391925Y-92827110D01*
X206495765Y-92784098D01*
X209397303Y-92784098D01*
X210210400Y-93597195D01*
X211023497Y-92784098D01*
X210957419Y-92558890D01*
X212045524Y-92558890D01*
X212090175Y-92706099D01*
X212215359Y-92968920D01*
X212389412Y-93202269D01*
X212605645Y-93397178D01*
X212731255Y-93472000D01*
X212605645Y-93546822D01*
X212389412Y-93741731D01*
X212215359Y-93975080D01*
X212090175Y-94237901D01*
X212045524Y-94385110D01*
X212166845Y-94615000D01*
X213360000Y-94615000D01*
X213360000Y-92329000D01*
X212166845Y-92329000D01*
X212045524Y-92558890D01*
X210957419Y-92558890D01*
X210951914Y-92540129D01*
X210696404Y-92419229D01*
X210422216Y-92350500D01*
X210139888Y-92336583D01*
X209860270Y-92378013D01*
X209594108Y-92473197D01*
X209468886Y-92540129D01*
X209397303Y-92784098D01*
X206495765Y-92784098D01*
X206798669Y-92658631D01*
X207164729Y-92414038D01*
X207476038Y-92102729D01*
X207720631Y-91736669D01*
X207889110Y-91329925D01*
X207975000Y-90898128D01*
X207975000Y-90457872D01*
X207889110Y-90026075D01*
X207886134Y-90018890D01*
X212045524Y-90018890D01*
X212090175Y-90166099D01*
X212215359Y-90428920D01*
X212389412Y-90662269D01*
X212605645Y-90857178D01*
X212731255Y-90932000D01*
X212605645Y-91006822D01*
X212389412Y-91201731D01*
X212215359Y-91435080D01*
X212090175Y-91697901D01*
X212045524Y-91845110D01*
X212166845Y-92075000D01*
X213360000Y-92075000D01*
X213360000Y-89789000D01*
X212166845Y-89789000D01*
X212045524Y-90018890D01*
X207886134Y-90018890D01*
X207720631Y-89619331D01*
X207476038Y-89253271D01*
X207164729Y-88941962D01*
X206798669Y-88697369D01*
X206391925Y-88528890D01*
X205960128Y-88443000D01*
X205519872Y-88443000D01*
X205088075Y-88528890D01*
X204681331Y-88697369D01*
X204315271Y-88941962D01*
X204003962Y-89253271D01*
X203759369Y-89619331D01*
X203590890Y-90026075D01*
X203505000Y-90457872D01*
X200965210Y-90457872D01*
X200965210Y-89520784D01*
X201032595Y-89548696D01*
X201290514Y-89600000D01*
X201553486Y-89600000D01*
X201811405Y-89548696D01*
X202054359Y-89448061D01*
X202273013Y-89301962D01*
X202458962Y-89116013D01*
X202605061Y-88897359D01*
X202705696Y-88654405D01*
X202757000Y-88396486D01*
X202757000Y-88133514D01*
X202705696Y-87875595D01*
X202605061Y-87632641D01*
X202458962Y-87413987D01*
X202273013Y-87228038D01*
X202054359Y-87081939D01*
X201811405Y-86981304D01*
X201553486Y-86930000D01*
X201290514Y-86930000D01*
X201032595Y-86981304D01*
X200789641Y-87081939D01*
X200570987Y-87228038D01*
X200385038Y-87413987D01*
X200238939Y-87632641D01*
X200138304Y-87875595D01*
X200127913Y-87927835D01*
X199481072Y-87280995D01*
X199481072Y-86272000D01*
X199468812Y-86147518D01*
X199432502Y-86027820D01*
X199373537Y-85917506D01*
X199294185Y-85820815D01*
X199197494Y-85741463D01*
X199087180Y-85682498D01*
X198967482Y-85646188D01*
X198843000Y-85633928D01*
X197143000Y-85633928D01*
X197018518Y-85646188D01*
X196898820Y-85682498D01*
X196798000Y-85736388D01*
X196798000Y-83053514D01*
X200087000Y-83053514D01*
X200087000Y-83316486D01*
X200138304Y-83574405D01*
X200238939Y-83817359D01*
X200385038Y-84036013D01*
X200570987Y-84221962D01*
X200789641Y-84368061D01*
X201032595Y-84468696D01*
X201290514Y-84520000D01*
X201553486Y-84520000D01*
X201811405Y-84468696D01*
X202054359Y-84368061D01*
X202273013Y-84221962D01*
X202408291Y-84086684D01*
X204154006Y-85832400D01*
X204151000Y-85847514D01*
X204151000Y-86110486D01*
X204202304Y-86368405D01*
X204302939Y-86611359D01*
X204449038Y-86830013D01*
X204634987Y-87015962D01*
X204853641Y-87162061D01*
X205096595Y-87262696D01*
X205354514Y-87314000D01*
X205617486Y-87314000D01*
X205875405Y-87262696D01*
X206118359Y-87162061D01*
X206337013Y-87015962D01*
X206522962Y-86830013D01*
X206669061Y-86611359D01*
X206769696Y-86368405D01*
X206821000Y-86110486D01*
X206821000Y-85847514D01*
X206769696Y-85589595D01*
X206669061Y-85346641D01*
X206522962Y-85127987D01*
X206337013Y-84942038D01*
X206130797Y-84804250D01*
X206337013Y-84666462D01*
X206522962Y-84480513D01*
X206669061Y-84261859D01*
X206769696Y-84018905D01*
X206821000Y-83760986D01*
X206821000Y-83498014D01*
X206769696Y-83240095D01*
X206669061Y-82997141D01*
X206522962Y-82778487D01*
X206337013Y-82592538D01*
X206118359Y-82446439D01*
X205875405Y-82345804D01*
X205731787Y-82317236D01*
X204647074Y-81232524D01*
X204662000Y-81157486D01*
X204662000Y-80894514D01*
X204610696Y-80636595D01*
X204510061Y-80393641D01*
X204363962Y-80174987D01*
X204178013Y-79989038D01*
X203959359Y-79842939D01*
X203716405Y-79742304D01*
X203458486Y-79691000D01*
X203195514Y-79691000D01*
X202937595Y-79742304D01*
X202694641Y-79842939D01*
X202475987Y-79989038D01*
X202290038Y-80174987D01*
X202143939Y-80393641D01*
X202043304Y-80636595D01*
X201992000Y-80894514D01*
X201992000Y-81157486D01*
X202043304Y-81415405D01*
X202143939Y-81658359D01*
X202290038Y-81877013D01*
X202475987Y-82062962D01*
X202694641Y-82209061D01*
X202937595Y-82309696D01*
X203195514Y-82361000D01*
X203458486Y-82361000D01*
X203533524Y-82346074D01*
X204268275Y-83080826D01*
X204202304Y-83240095D01*
X204157538Y-83465145D01*
X203288411Y-82596018D01*
X203262164Y-82564036D01*
X203134532Y-82459291D01*
X202988917Y-82381458D01*
X202830916Y-82333529D01*
X202707770Y-82321400D01*
X202707763Y-82321400D01*
X202666600Y-82317346D01*
X202625437Y-82321400D01*
X202446375Y-82321400D01*
X202273013Y-82148038D01*
X202054359Y-82001939D01*
X201811405Y-81901304D01*
X201553486Y-81850000D01*
X201290514Y-81850000D01*
X201032595Y-81901304D01*
X200789641Y-82001939D01*
X200570987Y-82148038D01*
X200385038Y-82333987D01*
X200238939Y-82552641D01*
X200138304Y-82795595D01*
X200087000Y-83053514D01*
X196798000Y-83053514D01*
X196798000Y-80894514D01*
X196912000Y-80894514D01*
X196912000Y-81157486D01*
X196963304Y-81415405D01*
X197063939Y-81658359D01*
X197210038Y-81877013D01*
X197395987Y-82062962D01*
X197614641Y-82209061D01*
X197857595Y-82309696D01*
X198115514Y-82361000D01*
X198378486Y-82361000D01*
X198636405Y-82309696D01*
X198879359Y-82209061D01*
X199098013Y-82062962D01*
X199283962Y-81877013D01*
X199430061Y-81658359D01*
X199530696Y-81415405D01*
X199582000Y-81157486D01*
X199582000Y-80894514D01*
X199530696Y-80636595D01*
X199430061Y-80393641D01*
X199283962Y-80174987D01*
X199098013Y-79989038D01*
X198879359Y-79842939D01*
X198636405Y-79742304D01*
X198378486Y-79691000D01*
X198115514Y-79691000D01*
X197857595Y-79742304D01*
X197614641Y-79842939D01*
X197395987Y-79989038D01*
X197210038Y-80174987D01*
X197063939Y-80393641D01*
X196963304Y-80636595D01*
X196912000Y-80894514D01*
X196798000Y-80894514D01*
X196798000Y-78536244D01*
X196848320Y-78657727D01*
X197005363Y-78892759D01*
X197205241Y-79092637D01*
X197440273Y-79249680D01*
X197701426Y-79357853D01*
X197978665Y-79413000D01*
X198261335Y-79413000D01*
X198538574Y-79357853D01*
X198799727Y-79249680D01*
X199034759Y-79092637D01*
X199234637Y-78892759D01*
X199391680Y-78657727D01*
X199499853Y-78396574D01*
X199555000Y-78119335D01*
X199555000Y-77836665D01*
X199541991Y-77771265D01*
X200622000Y-77771265D01*
X200622000Y-78053935D01*
X200677147Y-78331174D01*
X200785320Y-78592327D01*
X200942363Y-78827359D01*
X201142241Y-79027237D01*
X201377273Y-79184280D01*
X201638426Y-79292453D01*
X201915665Y-79347600D01*
X202198335Y-79347600D01*
X202475574Y-79292453D01*
X202736727Y-79184280D01*
X202971759Y-79027237D01*
X203171637Y-78827359D01*
X203231344Y-78738000D01*
X204849928Y-78738000D01*
X204862188Y-78862482D01*
X204898498Y-78982180D01*
X204957463Y-79092494D01*
X205036815Y-79189185D01*
X205133506Y-79268537D01*
X205243820Y-79327502D01*
X205363518Y-79363812D01*
X205488000Y-79376072D01*
X205962250Y-79373000D01*
X206121000Y-79214250D01*
X206121000Y-78105000D01*
X206375000Y-78105000D01*
X206375000Y-79214250D01*
X206533750Y-79373000D01*
X207008000Y-79376072D01*
X207132482Y-79363812D01*
X207252180Y-79327502D01*
X207362494Y-79268537D01*
X207459185Y-79189185D01*
X207538537Y-79092494D01*
X207597502Y-78982180D01*
X207633812Y-78862482D01*
X207646072Y-78738000D01*
X207643000Y-78263750D01*
X207484250Y-78105000D01*
X206375000Y-78105000D01*
X206121000Y-78105000D01*
X205011750Y-78105000D01*
X204853000Y-78263750D01*
X204849928Y-78738000D01*
X203231344Y-78738000D01*
X203328680Y-78592327D01*
X203436853Y-78331174D01*
X203492000Y-78053935D01*
X203492000Y-77771265D01*
X203436853Y-77494026D01*
X203328680Y-77232873D01*
X203171637Y-76997841D01*
X202971759Y-76797963D01*
X202771131Y-76663908D01*
X202798514Y-76649271D01*
X202870097Y-76405302D01*
X202057000Y-75592205D01*
X201243903Y-76405302D01*
X201315486Y-76649271D01*
X201344341Y-76662924D01*
X201142241Y-76797963D01*
X200942363Y-76997841D01*
X200785320Y-77232873D01*
X200677147Y-77494026D01*
X200622000Y-77771265D01*
X199541991Y-77771265D01*
X199499853Y-77559426D01*
X199391680Y-77298273D01*
X199234637Y-77063241D01*
X199034759Y-76863363D01*
X198834131Y-76729308D01*
X198861514Y-76714671D01*
X198933097Y-76470702D01*
X198120000Y-75657605D01*
X197306903Y-76470702D01*
X197378486Y-76714671D01*
X197407341Y-76728324D01*
X197205241Y-76863363D01*
X197005363Y-77063241D01*
X196848320Y-77298273D01*
X196798000Y-77419756D01*
X196798000Y-76042849D01*
X196816397Y-76094292D01*
X196883329Y-76219514D01*
X197127298Y-76291097D01*
X197940395Y-75478000D01*
X198299605Y-75478000D01*
X199112702Y-76291097D01*
X199356671Y-76219514D01*
X199477571Y-75964004D01*
X199546300Y-75689816D01*
X199556489Y-75483112D01*
X200616783Y-75483112D01*
X200658213Y-75762730D01*
X200753397Y-76028892D01*
X200820329Y-76154114D01*
X201064298Y-76225697D01*
X201877395Y-75412600D01*
X202236605Y-75412600D01*
X203049702Y-76225697D01*
X203293671Y-76154114D01*
X203414571Y-75898604D01*
X203483300Y-75624416D01*
X203497217Y-75342088D01*
X203455787Y-75062470D01*
X203360603Y-74796308D01*
X203293671Y-74671086D01*
X203049702Y-74599503D01*
X202236605Y-75412600D01*
X201877395Y-75412600D01*
X201064298Y-74599503D01*
X200820329Y-74671086D01*
X200699429Y-74926596D01*
X200630700Y-75200784D01*
X200616783Y-75483112D01*
X199556489Y-75483112D01*
X199560217Y-75407488D01*
X199518787Y-75127870D01*
X199423603Y-74861708D01*
X199356671Y-74736486D01*
X199112702Y-74664903D01*
X198299605Y-75478000D01*
X197940395Y-75478000D01*
X197127298Y-74664903D01*
X196883329Y-74736486D01*
X196798000Y-74916820D01*
X196798000Y-74485298D01*
X197306903Y-74485298D01*
X198120000Y-75298395D01*
X198933097Y-74485298D01*
X198913908Y-74419898D01*
X201243903Y-74419898D01*
X202057000Y-75232995D01*
X202870097Y-74419898D01*
X202798514Y-74175929D01*
X202543004Y-74055029D01*
X202268816Y-73986300D01*
X201986488Y-73972383D01*
X201706870Y-74013813D01*
X201440708Y-74108997D01*
X201315486Y-74175929D01*
X201243903Y-74419898D01*
X198913908Y-74419898D01*
X198861514Y-74241329D01*
X198606004Y-74120429D01*
X198331816Y-74051700D01*
X198049488Y-74037783D01*
X197769870Y-74079213D01*
X197503708Y-74174397D01*
X197378486Y-74241329D01*
X197306903Y-74485298D01*
X196798000Y-74485298D01*
X196798000Y-69703740D01*
X196889000Y-69703740D01*
X196889000Y-69996260D01*
X196946068Y-70283158D01*
X197058010Y-70553411D01*
X197220525Y-70796632D01*
X197427368Y-71003475D01*
X197670589Y-71165990D01*
X197940842Y-71277932D01*
X198227740Y-71335000D01*
X198520260Y-71335000D01*
X198807158Y-71277932D01*
X199077411Y-71165990D01*
X199320632Y-71003475D01*
X199527475Y-70796632D01*
X199644000Y-70622240D01*
X199760525Y-70796632D01*
X199967368Y-71003475D01*
X200210589Y-71165990D01*
X200480842Y-71277932D01*
X200767740Y-71335000D01*
X201060260Y-71335000D01*
X201347158Y-71277932D01*
X201617411Y-71165990D01*
X201860632Y-71003475D01*
X202067475Y-70796632D01*
X202229990Y-70553411D01*
X202341932Y-70283158D01*
X202377171Y-70106000D01*
X204849928Y-70106000D01*
X204849928Y-71626000D01*
X204862188Y-71750482D01*
X204898498Y-71870180D01*
X204957463Y-71980494D01*
X205036815Y-72077185D01*
X205089699Y-72120586D01*
X205011767Y-72237220D01*
X204906609Y-72491093D01*
X204853000Y-72760604D01*
X204853000Y-73035396D01*
X204906609Y-73304907D01*
X205011767Y-73558780D01*
X205164433Y-73787261D01*
X205358739Y-73981567D01*
X205587220Y-74134233D01*
X205668740Y-74168000D01*
X205587220Y-74201767D01*
X205358739Y-74354433D01*
X205164433Y-74548739D01*
X205011767Y-74777220D01*
X204906609Y-75031093D01*
X204853000Y-75300604D01*
X204853000Y-75575396D01*
X204906609Y-75844907D01*
X205011767Y-76098780D01*
X205164433Y-76327261D01*
X205358739Y-76521567D01*
X205451467Y-76583526D01*
X205363518Y-76592188D01*
X205243820Y-76628498D01*
X205133506Y-76687463D01*
X205036815Y-76766815D01*
X204957463Y-76863506D01*
X204898498Y-76973820D01*
X204862188Y-77093518D01*
X204849928Y-77218000D01*
X204853000Y-77692250D01*
X205011750Y-77851000D01*
X206121000Y-77851000D01*
X206121000Y-77831000D01*
X206375000Y-77831000D01*
X206375000Y-77851000D01*
X207484250Y-77851000D01*
X207643000Y-77692250D01*
X207646072Y-77218000D01*
X207633812Y-77093518D01*
X207597502Y-76973820D01*
X207538537Y-76863506D01*
X207459185Y-76766815D01*
X207362494Y-76687463D01*
X207252180Y-76628498D01*
X207132482Y-76592188D01*
X207044533Y-76583526D01*
X207137261Y-76521567D01*
X207331567Y-76327261D01*
X207484233Y-76098780D01*
X207586190Y-75852635D01*
X209170077Y-77436523D01*
X209205867Y-77480133D01*
X209379911Y-77622968D01*
X209578477Y-77729103D01*
X209717466Y-77771265D01*
X209793932Y-77794461D01*
X209816600Y-77796694D01*
X209961854Y-77811000D01*
X209961860Y-77811000D01*
X210017999Y-77816529D01*
X210074138Y-77811000D01*
X210963689Y-77811000D01*
X211156273Y-77939680D01*
X211417426Y-78047853D01*
X211694665Y-78103000D01*
X211977335Y-78103000D01*
X212254574Y-78047853D01*
X212515727Y-77939680D01*
X212750759Y-77782637D01*
X212950637Y-77582759D01*
X213107680Y-77347727D01*
X213215853Y-77086574D01*
X213271000Y-76809335D01*
X213271000Y-76526665D01*
X213215853Y-76249426D01*
X213107680Y-75988273D01*
X212950637Y-75753241D01*
X212784057Y-75586661D01*
X212880180Y-75557502D01*
X212990494Y-75498537D01*
X213087185Y-75419185D01*
X213166537Y-75322494D01*
X213225502Y-75212180D01*
X213261812Y-75092482D01*
X213274072Y-74968000D01*
X213271000Y-74453750D01*
X213112250Y-74295000D01*
X211963000Y-74295000D01*
X211963000Y-74315000D01*
X211709000Y-74315000D01*
X211709000Y-74295000D01*
X210559750Y-74295000D01*
X210401000Y-74453750D01*
X210397928Y-74968000D01*
X210410188Y-75092482D01*
X210446498Y-75212180D01*
X210505463Y-75322494D01*
X210584815Y-75419185D01*
X210681506Y-75498537D01*
X210731014Y-75525000D01*
X210491446Y-75525000D01*
X208334446Y-73368000D01*
X210397928Y-73368000D01*
X210401000Y-73882250D01*
X210559750Y-74041000D01*
X211709000Y-74041000D01*
X211709000Y-72891750D01*
X211963000Y-72891750D01*
X211963000Y-74041000D01*
X213112250Y-74041000D01*
X213271000Y-73882250D01*
X213274072Y-73368000D01*
X213261812Y-73243518D01*
X213225502Y-73123820D01*
X213166537Y-73013506D01*
X213087185Y-72916815D01*
X212990494Y-72837463D01*
X212880180Y-72778498D01*
X212760482Y-72742188D01*
X212636000Y-72729928D01*
X212121750Y-72733000D01*
X211963000Y-72891750D01*
X211709000Y-72891750D01*
X211550250Y-72733000D01*
X211036000Y-72729928D01*
X210911518Y-72742188D01*
X210791820Y-72778498D01*
X210681506Y-72837463D01*
X210584815Y-72916815D01*
X210505463Y-73013506D01*
X210446498Y-73123820D01*
X210410188Y-73243518D01*
X210397928Y-73368000D01*
X208334446Y-73368000D01*
X207622130Y-72655685D01*
X207589391Y-72491093D01*
X207484233Y-72237220D01*
X207406301Y-72120586D01*
X207459185Y-72077185D01*
X207538537Y-71980494D01*
X207597502Y-71870180D01*
X207633812Y-71750482D01*
X207646072Y-71626000D01*
X207646072Y-70106000D01*
X207633812Y-69981518D01*
X207597502Y-69861820D01*
X207538537Y-69751506D01*
X207459185Y-69654815D01*
X207362494Y-69575463D01*
X207252180Y-69516498D01*
X207132482Y-69480188D01*
X207008000Y-69467928D01*
X206983069Y-69467928D01*
X207032531Y-69290137D01*
X206248000Y-68505605D01*
X205463469Y-69290137D01*
X205512931Y-69467928D01*
X205488000Y-69467928D01*
X205363518Y-69480188D01*
X205243820Y-69516498D01*
X205133506Y-69575463D01*
X205036815Y-69654815D01*
X204957463Y-69751506D01*
X204898498Y-69861820D01*
X204862188Y-69981518D01*
X204849928Y-70106000D01*
X202377171Y-70106000D01*
X202399000Y-69996260D01*
X202399000Y-69703740D01*
X202341932Y-69416842D01*
X202229990Y-69146589D01*
X202067475Y-68903368D01*
X201860632Y-68696525D01*
X201678466Y-68574805D01*
X201795355Y-68505178D01*
X201914151Y-68398097D01*
X204848105Y-68398097D01*
X204889069Y-68669817D01*
X204982256Y-68928326D01*
X205043975Y-69043794D01*
X205283863Y-69110531D01*
X206068395Y-68326000D01*
X206427605Y-68326000D01*
X207212137Y-69110531D01*
X207452025Y-69043794D01*
X207568504Y-68796000D01*
X210397928Y-68796000D01*
X210397928Y-70396000D01*
X210410188Y-70520482D01*
X210446498Y-70640180D01*
X210505463Y-70750494D01*
X210584815Y-70847185D01*
X210681506Y-70926537D01*
X210791820Y-70985502D01*
X210911518Y-71021812D01*
X211036000Y-71034072D01*
X212636000Y-71034072D01*
X212760482Y-71021812D01*
X212880180Y-70985502D01*
X212990494Y-70926537D01*
X213087185Y-70847185D01*
X213166537Y-70750494D01*
X213225502Y-70640180D01*
X213261812Y-70520482D01*
X213274072Y-70396000D01*
X213274072Y-68796000D01*
X213261812Y-68671518D01*
X213225502Y-68551820D01*
X213166537Y-68441506D01*
X213087185Y-68344815D01*
X212990494Y-68265463D01*
X212880180Y-68206498D01*
X212760482Y-68170188D01*
X212636000Y-68157928D01*
X212628785Y-68157928D01*
X212649097Y-68088702D01*
X211836000Y-67275605D01*
X211022903Y-68088702D01*
X211043215Y-68157928D01*
X211036000Y-68157928D01*
X210911518Y-68170188D01*
X210791820Y-68206498D01*
X210681506Y-68265463D01*
X210584815Y-68344815D01*
X210505463Y-68441506D01*
X210446498Y-68551820D01*
X210410188Y-68671518D01*
X210397928Y-68796000D01*
X207568504Y-68796000D01*
X207568924Y-68795108D01*
X207635061Y-68528394D01*
X207647895Y-68253903D01*
X207606931Y-67982183D01*
X207513744Y-67723674D01*
X207452025Y-67608206D01*
X207212137Y-67541469D01*
X206427605Y-68326000D01*
X206068395Y-68326000D01*
X205283863Y-67541469D01*
X205043975Y-67608206D01*
X204927076Y-67856892D01*
X204860939Y-68123606D01*
X204848105Y-68398097D01*
X201914151Y-68398097D01*
X202011588Y-68310269D01*
X202185641Y-68076920D01*
X202310825Y-67814099D01*
X202355476Y-67666890D01*
X202234155Y-67437000D01*
X201041000Y-67437000D01*
X201041000Y-67457000D01*
X200787000Y-67457000D01*
X200787000Y-67437000D01*
X198501000Y-67437000D01*
X198501000Y-67457000D01*
X198247000Y-67457000D01*
X198247000Y-67437000D01*
X197053845Y-67437000D01*
X196932524Y-67666890D01*
X196977175Y-67814099D01*
X197102359Y-68076920D01*
X197276412Y-68310269D01*
X197492645Y-68505178D01*
X197609534Y-68574805D01*
X197427368Y-68696525D01*
X197220525Y-68903368D01*
X197058010Y-69146589D01*
X196946068Y-69416842D01*
X196889000Y-69703740D01*
X196798000Y-69703740D01*
X196798000Y-65126890D01*
X196932524Y-65126890D01*
X196977175Y-65274099D01*
X197102359Y-65536920D01*
X197276412Y-65770269D01*
X197492645Y-65965178D01*
X197618255Y-66040000D01*
X197492645Y-66114822D01*
X197276412Y-66309731D01*
X197102359Y-66543080D01*
X196977175Y-66805901D01*
X196932524Y-66953110D01*
X197053845Y-67183000D01*
X198247000Y-67183000D01*
X198247000Y-64897000D01*
X198501000Y-64897000D01*
X198501000Y-67183000D01*
X200787000Y-67183000D01*
X200787000Y-64897000D01*
X201041000Y-64897000D01*
X201041000Y-67183000D01*
X202234155Y-67183000D01*
X202355476Y-66953110D01*
X202310825Y-66805901D01*
X202185641Y-66543080D01*
X202011588Y-66309731D01*
X201795355Y-66114822D01*
X201669745Y-66040000D01*
X201795355Y-65965178D01*
X202011588Y-65770269D01*
X202185641Y-65536920D01*
X202310825Y-65274099D01*
X202355476Y-65126890D01*
X202234155Y-64897000D01*
X201041000Y-64897000D01*
X200787000Y-64897000D01*
X198501000Y-64897000D01*
X198247000Y-64897000D01*
X197053845Y-64897000D01*
X196932524Y-65126890D01*
X196798000Y-65126890D01*
X196798000Y-62586890D01*
X196932524Y-62586890D01*
X196977175Y-62734099D01*
X197102359Y-62996920D01*
X197276412Y-63230269D01*
X197492645Y-63425178D01*
X197618255Y-63500000D01*
X197492645Y-63574822D01*
X197276412Y-63769731D01*
X197102359Y-64003080D01*
X196977175Y-64265901D01*
X196932524Y-64413110D01*
X197053845Y-64643000D01*
X198247000Y-64643000D01*
X198247000Y-62357000D01*
X198501000Y-62357000D01*
X198501000Y-64643000D01*
X200787000Y-64643000D01*
X200787000Y-62357000D01*
X201041000Y-62357000D01*
X201041000Y-64643000D01*
X202234155Y-64643000D01*
X202355476Y-64413110D01*
X202310825Y-64265901D01*
X202185641Y-64003080D01*
X202011588Y-63769731D01*
X201795355Y-63574822D01*
X201669745Y-63500000D01*
X201795355Y-63425178D01*
X202011588Y-63230269D01*
X202185641Y-62996920D01*
X202310825Y-62734099D01*
X202355476Y-62586890D01*
X202234155Y-62357000D01*
X201041000Y-62357000D01*
X200787000Y-62357000D01*
X198501000Y-62357000D01*
X198247000Y-62357000D01*
X197053845Y-62357000D01*
X196932524Y-62586890D01*
X196798000Y-62586890D01*
X196798000Y-58622000D01*
X197341893Y-58622000D01*
X197220525Y-58743368D01*
%TA.AperFunction,Conductor*%
D30*
G36*
X197220525Y-58743368D02*
G01*
X197058010Y-58986589D01*
X196946068Y-59256842D01*
X196889000Y-59543740D01*
X196889000Y-59836260D01*
X196946068Y-60123158D01*
X197058010Y-60393411D01*
X197220525Y-60636632D01*
X197427368Y-60843475D01*
X197609534Y-60965195D01*
X197492645Y-61034822D01*
X197276412Y-61229731D01*
X197102359Y-61463080D01*
X196977175Y-61725901D01*
X196932524Y-61873110D01*
X197053845Y-62103000D01*
X198247000Y-62103000D01*
X198247000Y-62083000D01*
X198501000Y-62083000D01*
X198501000Y-62103000D01*
X200787000Y-62103000D01*
X200787000Y-62083000D01*
X201041000Y-62083000D01*
X201041000Y-62103000D01*
X202234155Y-62103000D01*
X202355476Y-61873110D01*
X202310825Y-61725901D01*
X202185641Y-61463080D01*
X202011588Y-61229731D01*
X201927534Y-61153966D01*
X202008180Y-61129502D01*
X202118494Y-61070537D01*
X202215185Y-60991185D01*
X202294537Y-60894494D01*
X202353502Y-60784180D01*
X202389812Y-60664482D01*
X202402072Y-60540000D01*
X202402072Y-58840000D01*
X202389812Y-58715518D01*
X202361444Y-58622000D01*
X204790089Y-58622000D01*
X204710463Y-58741169D01*
X204579675Y-59056919D01*
X204513000Y-59392117D01*
X204513000Y-59733883D01*
X204579675Y-60069081D01*
X204710463Y-60384831D01*
X204900337Y-60668998D01*
X205142002Y-60910663D01*
X205426169Y-61100537D01*
X205741919Y-61231325D01*
X205855552Y-61253928D01*
X205148000Y-61253928D01*
X205023518Y-61266188D01*
X204903820Y-61302498D01*
X204793506Y-61361463D01*
X204696815Y-61440815D01*
X204617463Y-61537506D01*
X204558498Y-61647820D01*
X204522188Y-61767518D01*
X204509928Y-61892000D01*
X204509928Y-64092000D01*
X204522188Y-64216482D01*
X204558498Y-64336180D01*
X204617463Y-64446494D01*
X204696815Y-64543185D01*
X204793506Y-64622537D01*
X204903820Y-64681502D01*
X205023518Y-64717812D01*
X205148000Y-64730072D01*
X205331100Y-64730072D01*
X205164433Y-64896739D01*
X205011767Y-65125220D01*
X204906609Y-65379093D01*
X204853000Y-65648604D01*
X204853000Y-65923396D01*
X204906609Y-66192907D01*
X205011767Y-66446780D01*
X205164433Y-66675261D01*
X205358739Y-66869567D01*
X205587220Y-67022233D01*
X205663501Y-67053830D01*
X205645674Y-67060256D01*
X205530206Y-67121975D01*
X205463469Y-67361863D01*
X206248000Y-68146395D01*
X207032531Y-67361863D01*
X206978185Y-67166512D01*
X210395783Y-67166512D01*
X210437213Y-67446130D01*
X210532397Y-67712292D01*
X210599329Y-67837514D01*
X210843298Y-67909097D01*
X211656395Y-67096000D01*
X212015605Y-67096000D01*
X212828702Y-67909097D01*
X213072671Y-67837514D01*
X213193571Y-67582004D01*
X213262300Y-67307816D01*
X213276217Y-67025488D01*
X213234787Y-66745870D01*
X213139603Y-66479708D01*
X213072671Y-66354486D01*
X212828702Y-66282903D01*
X212015605Y-67096000D01*
X211656395Y-67096000D01*
X210843298Y-66282903D01*
X210599329Y-66354486D01*
X210478429Y-66609996D01*
X210409700Y-66884184D01*
X210395783Y-67166512D01*
X206978185Y-67166512D01*
X206965794Y-67121975D01*
X206826293Y-67056400D01*
X206908780Y-67022233D01*
X207137261Y-66869567D01*
X207331567Y-66675261D01*
X207484233Y-66446780D01*
X207589391Y-66192907D01*
X207607215Y-66103298D01*
X211022903Y-66103298D01*
X211836000Y-66916395D01*
X212649097Y-66103298D01*
X212577514Y-65859329D01*
X212322004Y-65738429D01*
X212047816Y-65669700D01*
X211765488Y-65655783D01*
X211485870Y-65697213D01*
X211219708Y-65792397D01*
X211094486Y-65859329D01*
X211022903Y-66103298D01*
X207607215Y-66103298D01*
X207643000Y-65923396D01*
X207643000Y-65648604D01*
X207589391Y-65379093D01*
X207484233Y-65125220D01*
X207331567Y-64896739D01*
X207164900Y-64730072D01*
X207348000Y-64730072D01*
X207472482Y-64717812D01*
X207592180Y-64681502D01*
X207702494Y-64622537D01*
X207799185Y-64543185D01*
X207878537Y-64446494D01*
X207937502Y-64336180D01*
X207973812Y-64216482D01*
X207986072Y-64092000D01*
X207986072Y-61892000D01*
X207973812Y-61767518D01*
X207937502Y-61647820D01*
X207878537Y-61537506D01*
X207799185Y-61440815D01*
X207702494Y-61361463D01*
X207592180Y-61302498D01*
X207472482Y-61266188D01*
X207348000Y-61253928D01*
X206640448Y-61253928D01*
X206754081Y-61231325D01*
X207069831Y-61100537D01*
X207353998Y-60910663D01*
X207595663Y-60668998D01*
X207785537Y-60384831D01*
X207916325Y-60069081D01*
X207983000Y-59733883D01*
X207983000Y-59392117D01*
X207916325Y-59056919D01*
X207785537Y-58741169D01*
X207705911Y-58622000D01*
X212129928Y-58622000D01*
X212129928Y-60663000D01*
X212142188Y-60787482D01*
X212178498Y-60907180D01*
X212237463Y-61017494D01*
X212316815Y-61114185D01*
X212413506Y-61193537D01*
X212523820Y-61252502D01*
X212643518Y-61288812D01*
X212768000Y-61301072D01*
X213475552Y-61301072D01*
X213361919Y-61323675D01*
X213046169Y-61454463D01*
X212762002Y-61644337D01*
X212520337Y-61886002D01*
X212330463Y-62170169D01*
X212199675Y-62485919D01*
X212133000Y-62821117D01*
X212133000Y-63162883D01*
X212199675Y-63498081D01*
X212330463Y-63813831D01*
X212520337Y-64097998D01*
X212762002Y-64339663D01*
X213046169Y-64529537D01*
X213361919Y-64660325D01*
X213697117Y-64727000D01*
X214038883Y-64727000D01*
X214374081Y-64660325D01*
X214682000Y-64532781D01*
X214682000Y-80014515D01*
X214640475Y-79952368D01*
X214433632Y-79745525D01*
X214190411Y-79583010D01*
X213920158Y-79471068D01*
X213633260Y-79414000D01*
X213340740Y-79414000D01*
X213053842Y-79471068D01*
X212783589Y-79583010D01*
X212540368Y-79745525D01*
X212333525Y-79952368D01*
X212171010Y-80195589D01*
X212059068Y-80465842D01*
X212002000Y-80752740D01*
X212002000Y-81045260D01*
X212059068Y-81332158D01*
X212171010Y-81602411D01*
X212333525Y-81845632D01*
X212465380Y-81977487D01*
X212392820Y-81999498D01*
X212282506Y-82058463D01*
X212278854Y-82061460D01*
X210648918Y-80431525D01*
X210627088Y-80321776D01*
X210550500Y-80136876D01*
X210439311Y-79970470D01*
X210297794Y-79828953D01*
X210131388Y-79717764D01*
X209946488Y-79641176D01*
X209750199Y-79602132D01*
X209550065Y-79602132D01*
X209353776Y-79641176D01*
X209168876Y-79717764D01*
X209002470Y-79828953D01*
X208860953Y-79970470D01*
X208749764Y-80136876D01*
X208673176Y-80321776D01*
X208634132Y-80518065D01*
X208634132Y-80718199D01*
X208673176Y-80914488D01*
X208749764Y-81099388D01*
X208860953Y-81265794D01*
X209002470Y-81407311D01*
X209168876Y-81518500D01*
X209353776Y-81595088D01*
X209463525Y-81616918D01*
X210189787Y-82343180D01*
X210176595Y-82345804D01*
X209933641Y-82446439D01*
X209714987Y-82592538D01*
X209529038Y-82778487D01*
X209382939Y-82997141D01*
X209282304Y-83240095D01*
X209231000Y-83498014D01*
X209231000Y-83760986D01*
X209234006Y-83776100D01*
X207767218Y-85242889D01*
X207735236Y-85269136D01*
X207630491Y-85396769D01*
X207552658Y-85542384D01*
X207504729Y-85700385D01*
X207492600Y-85823531D01*
X207492600Y-85823537D01*
X207488546Y-85864700D01*
X207492600Y-85905863D01*
X207492601Y-87157302D01*
X207430432Y-87250344D01*
X207353844Y-87435244D01*
X207314800Y-87631533D01*
X207314800Y-87831667D01*
X207353844Y-88027956D01*
X207430432Y-88212856D01*
X207541621Y-88379262D01*
X207683138Y-88520779D01*
X207849544Y-88631968D01*
X208034444Y-88708556D01*
X208230733Y-88747600D01*
X208430867Y-88747600D01*
X208627156Y-88708556D01*
X208812056Y-88631968D01*
X208978462Y-88520779D01*
X209119979Y-88379262D01*
X209231168Y-88212856D01*
X209307756Y-88027956D01*
X209346800Y-87831667D01*
X209346800Y-87631533D01*
X209307756Y-87435244D01*
X209231168Y-87250344D01*
X209169000Y-87157303D01*
X209169000Y-86211893D01*
X209237538Y-86143355D01*
X209282304Y-86368405D01*
X209382939Y-86611359D01*
X209529038Y-86830013D01*
X209714987Y-87015962D01*
X209933641Y-87162061D01*
X210176595Y-87262696D01*
X210434514Y-87314000D01*
X210697486Y-87314000D01*
X210955405Y-87262696D01*
X211198359Y-87162061D01*
X211417013Y-87015962D01*
X211602962Y-86830013D01*
X211749061Y-86611359D01*
X211849696Y-86368405D01*
X211901000Y-86110486D01*
X211901000Y-85847514D01*
X211849696Y-85589595D01*
X211749061Y-85346641D01*
X211602962Y-85127987D01*
X211417013Y-84942038D01*
X211210797Y-84804250D01*
X211417013Y-84666462D01*
X211602962Y-84480513D01*
X211749061Y-84261859D01*
X211849696Y-84018905D01*
X211852211Y-84006264D01*
X211875436Y-84034564D01*
X211998928Y-84135911D01*
X211998928Y-84289000D01*
X212011188Y-84413482D01*
X212047498Y-84533180D01*
X212106463Y-84643494D01*
X212185815Y-84740185D01*
X212282506Y-84819537D01*
X212392820Y-84878502D01*
X212512518Y-84914812D01*
X212637000Y-84927072D01*
X214337000Y-84927072D01*
X214461482Y-84914812D01*
X214581180Y-84878502D01*
X214682000Y-84824612D01*
X214682000Y-85736388D01*
X214581180Y-85682498D01*
X214461482Y-85646188D01*
X214337000Y-85633928D01*
X212637000Y-85633928D01*
X212512518Y-85646188D01*
X212392820Y-85682498D01*
X212282506Y-85741463D01*
X212185815Y-85820815D01*
X212106463Y-85917506D01*
X212047498Y-86027820D01*
X212011188Y-86147518D01*
X211998928Y-86272000D01*
X211998928Y-87972000D01*
X212011188Y-88096482D01*
X212047498Y-88216180D01*
X212106463Y-88326494D01*
X212185815Y-88423185D01*
X212282506Y-88502537D01*
X212392820Y-88561502D01*
X212473466Y-88585966D01*
X212389412Y-88661731D01*
X212215359Y-88895080D01*
X212090175Y-89157901D01*
X212045524Y-89305110D01*
X212166845Y-89535000D01*
X213360000Y-89535000D01*
X213360000Y-89515000D01*
X213614000Y-89515000D01*
X213614000Y-89535000D01*
X213634000Y-89535000D01*
X213634000Y-89789000D01*
X213614000Y-89789000D01*
X213614000Y-92075000D01*
X213634000Y-92075000D01*
X213634000Y-92329000D01*
X213614000Y-92329000D01*
X213614000Y-94615000D01*
X213634000Y-94615000D01*
X213634000Y-94869000D01*
X213614000Y-94869000D01*
X213614000Y-97155000D01*
X213634000Y-97155000D01*
X213634000Y-97409000D01*
X213614000Y-97409000D01*
X213614000Y-99695000D01*
X213634000Y-99695000D01*
X213634000Y-99949000D01*
X213614000Y-99949000D01*
X213614000Y-99969000D01*
X213360000Y-99969000D01*
X213360000Y-99949000D01*
X212166845Y-99949000D01*
X212045524Y-100178890D01*
X212090175Y-100326099D01*
X212215359Y-100588920D01*
X212389412Y-100822269D01*
X212605645Y-101017178D01*
X212722534Y-101086805D01*
X212540368Y-101208525D01*
X212333525Y-101415368D01*
X212171010Y-101658589D01*
X212059068Y-101928842D01*
X212002000Y-102215740D01*
X212002000Y-102508260D01*
X212039362Y-102696088D01*
X211650376Y-103085074D01*
X211620330Y-103109732D01*
X211521933Y-103229630D01*
X211448817Y-103366419D01*
X211403793Y-103514845D01*
X211392399Y-103630529D01*
X211392399Y-103630538D01*
X211388591Y-103669201D01*
X211392399Y-103707864D01*
X211392400Y-106488391D01*
X211386191Y-106494600D01*
X211364236Y-106271691D01*
X211282182Y-106001192D01*
X211148932Y-105751899D01*
X210969608Y-105533392D01*
X210751101Y-105354068D01*
X210618142Y-105283000D01*
X210751101Y-105211932D01*
X210969608Y-105032608D01*
X211148932Y-104814101D01*
X211282182Y-104564808D01*
X211364236Y-104294309D01*
X211391943Y-104013000D01*
X211364236Y-103731691D01*
X211282182Y-103461192D01*
X211148932Y-103211899D01*
X210969608Y-102993392D01*
X210751101Y-102814068D01*
X210618142Y-102743000D01*
X210751101Y-102671932D01*
X210969608Y-102492608D01*
X211148932Y-102274101D01*
X211282182Y-102024808D01*
X211364236Y-101754309D01*
X211391943Y-101473000D01*
X211364236Y-101191691D01*
X211282182Y-100921192D01*
X211148932Y-100671899D01*
X210969608Y-100453392D01*
X210751101Y-100274068D01*
X210618142Y-100203000D01*
X210751101Y-100131932D01*
X210969608Y-99952608D01*
X211148932Y-99734101D01*
X211282182Y-99484808D01*
X211364236Y-99214309D01*
X211391943Y-98933000D01*
X211364236Y-98651691D01*
X211282182Y-98381192D01*
X211148932Y-98131899D01*
X210969608Y-97913392D01*
X210751101Y-97734068D01*
X210612426Y-97659945D01*
X210628974Y-97656653D01*
X210671857Y-97638890D01*
X212045524Y-97638890D01*
X212090175Y-97786099D01*
X212215359Y-98048920D01*
X212389412Y-98282269D01*
X212605645Y-98477178D01*
X212731255Y-98552000D01*
X212605645Y-98626822D01*
X212389412Y-98821731D01*
X212215359Y-99055080D01*
X212090175Y-99317901D01*
X212045524Y-99465110D01*
X212166845Y-99695000D01*
X213360000Y-99695000D01*
X213360000Y-97409000D01*
X212166845Y-97409000D01*
X212045524Y-97638890D01*
X210671857Y-97638890D01*
X210890127Y-97548480D01*
X211125159Y-97391437D01*
X211325037Y-97191559D01*
X211482080Y-96956527D01*
X211590253Y-96695374D01*
X211645400Y-96418135D01*
X211645400Y-96135465D01*
X211590253Y-95858226D01*
X211482080Y-95597073D01*
X211325037Y-95362041D01*
X211125159Y-95162163D01*
X211030465Y-95098890D01*
X212045524Y-95098890D01*
X212090175Y-95246099D01*
X212215359Y-95508920D01*
X212389412Y-95742269D01*
X212605645Y-95937178D01*
X212731255Y-96012000D01*
X212605645Y-96086822D01*
X212389412Y-96281731D01*
X212215359Y-96515080D01*
X212090175Y-96777901D01*
X212045524Y-96925110D01*
X212166845Y-97155000D01*
X213360000Y-97155000D01*
X213360000Y-94869000D01*
X212166845Y-94869000D01*
X212045524Y-95098890D01*
X211030465Y-95098890D01*
X210924531Y-95028108D01*
X210951914Y-95013471D01*
X211023497Y-94769502D01*
X210210400Y-93956405D01*
X209397303Y-94769502D01*
X209468886Y-95013471D01*
X209497741Y-95027124D01*
X209295641Y-95162163D01*
X209095763Y-95362041D01*
X208938720Y-95597073D01*
X208830547Y-95858226D01*
X208775400Y-96135465D01*
X208775400Y-96418135D01*
X208830547Y-96695374D01*
X208938720Y-96956527D01*
X209095763Y-97191559D01*
X209295641Y-97391437D01*
X209455124Y-97498000D01*
X209079508Y-97498000D01*
X208868691Y-97518764D01*
X208598192Y-97600818D01*
X208348899Y-97734068D01*
X208130392Y-97913392D01*
X207951068Y-98131899D01*
X207817818Y-98381192D01*
X207735764Y-98651691D01*
X207708057Y-98933000D01*
X207735764Y-99214309D01*
X207817818Y-99484808D01*
X207951068Y-99734101D01*
X208130392Y-99952608D01*
X208348899Y-100131932D01*
X208481858Y-100203000D01*
X208348899Y-100274068D01*
X208130392Y-100453392D01*
X207951068Y-100671899D01*
X207817818Y-100921192D01*
X207735764Y-101191691D01*
X207708057Y-101473000D01*
X207735764Y-101754309D01*
X207817818Y-102024808D01*
X207951068Y-102274101D01*
X208130392Y-102492608D01*
X208348899Y-102671932D01*
X208481858Y-102743000D01*
X208348899Y-102814068D01*
X208130392Y-102993392D01*
X207951068Y-103211899D01*
X207817818Y-103461192D01*
X207735764Y-103731691D01*
X207708057Y-104013000D01*
X207735764Y-104294309D01*
X207804826Y-104521980D01*
X205553393Y-106773414D01*
X205443644Y-106795244D01*
X205258744Y-106871832D01*
X205092338Y-106983021D01*
X204950821Y-107124538D01*
X204839632Y-107290944D01*
X204763044Y-107475844D01*
X204724000Y-107672133D01*
X204724000Y-107872267D01*
X204763044Y-108068556D01*
X204839632Y-108253456D01*
X204950821Y-108419862D01*
X205092338Y-108561379D01*
X205258744Y-108672568D01*
X205443644Y-108749156D01*
X205639933Y-108788200D01*
X205840067Y-108788200D01*
X206036356Y-108749156D01*
X206221256Y-108672568D01*
X206387662Y-108561379D01*
X206529179Y-108419862D01*
X206640368Y-108253456D01*
X206716956Y-108068556D01*
X206738786Y-107958807D01*
X207765443Y-106932150D01*
X207817818Y-107104808D01*
X207951068Y-107354101D01*
X208130392Y-107572608D01*
X208348899Y-107751932D01*
X208481858Y-107823000D01*
X208348899Y-107894068D01*
X208130392Y-108073392D01*
X207951068Y-108291899D01*
X207817818Y-108541192D01*
X207735764Y-108811691D01*
X207708057Y-109093000D01*
X207735764Y-109374309D01*
X207817818Y-109644808D01*
X207951068Y-109894101D01*
X208130392Y-110112608D01*
X208348899Y-110291932D01*
X208481858Y-110363000D01*
X208348899Y-110434068D01*
X208130392Y-110613392D01*
X207951068Y-110831899D01*
X207817818Y-111081192D01*
X207735764Y-111351691D01*
X207708057Y-111633000D01*
X207735764Y-111914309D01*
X207817818Y-112184808D01*
X207951068Y-112434101D01*
X208130392Y-112652608D01*
X208348899Y-112831932D01*
X208481858Y-112903000D01*
X208348899Y-112974068D01*
X208130392Y-113153392D01*
X207951068Y-113371899D01*
X207817818Y-113621192D01*
X207735764Y-113891691D01*
X207708057Y-114173000D01*
X207735764Y-114454309D01*
X207817818Y-114724808D01*
X207951068Y-114974101D01*
X208130392Y-115192608D01*
X208348899Y-115371932D01*
X208598192Y-115505182D01*
X208868691Y-115587236D01*
X209079508Y-115608000D01*
X210020492Y-115608000D01*
X210231309Y-115587236D01*
X210501808Y-115505182D01*
X210575853Y-115465604D01*
X210605044Y-115612356D01*
X210681632Y-115797256D01*
X210792821Y-115963662D01*
X210934338Y-116105179D01*
X211100744Y-116216368D01*
X211285644Y-116292956D01*
X211481933Y-116332000D01*
X211682067Y-116332000D01*
X211878356Y-116292956D01*
X212063256Y-116216368D01*
X212096308Y-116194283D01*
X212166596Y-116264571D01*
X212145877Y-116272147D01*
X211922340Y-116408241D01*
X211729649Y-116585330D01*
X211575208Y-116796608D01*
X211464953Y-117033956D01*
X211432284Y-117141671D01*
X211555626Y-117348000D01*
X212598000Y-117348000D01*
X212598000Y-117328000D01*
X212852000Y-117328000D01*
X212852000Y-117348000D01*
X213894374Y-117348000D01*
X214017716Y-117141671D01*
X213985047Y-117033956D01*
X213874792Y-116796608D01*
X213720351Y-116585330D01*
X213661240Y-116531005D01*
X213738359Y-116499061D01*
X213957013Y-116352962D01*
X214142962Y-116167013D01*
X214289061Y-115948359D01*
X214389696Y-115705405D01*
X214441000Y-115447486D01*
X214441000Y-115184514D01*
X214389696Y-114926595D01*
X214289061Y-114683641D01*
X214142962Y-114464987D01*
X213957013Y-114279038D01*
X213738359Y-114132939D01*
X213495405Y-114032304D01*
X213237486Y-113981000D01*
X212974514Y-113981000D01*
X212716595Y-114032304D01*
X212473641Y-114132939D01*
X212369400Y-114202590D01*
X212369400Y-111349410D01*
X212473641Y-111419061D01*
X212716595Y-111519696D01*
X212974514Y-111571000D01*
X213237486Y-111571000D01*
X213495405Y-111519696D01*
X213738359Y-111419061D01*
X213957013Y-111272962D01*
X214142962Y-111087013D01*
X214289061Y-110868359D01*
X214389696Y-110625405D01*
X214441000Y-110367486D01*
X214441000Y-110104514D01*
X214389696Y-109846595D01*
X214289061Y-109603641D01*
X214142962Y-109384987D01*
X213957013Y-109199038D01*
X213738359Y-109052939D01*
X213495405Y-108952304D01*
X213368195Y-108927000D01*
X213633260Y-108927000D01*
X213920158Y-108869932D01*
X214190411Y-108757990D01*
X214433632Y-108595475D01*
X214640475Y-108388632D01*
X214682001Y-108326485D01*
X214682001Y-124291928D01*
X214140005Y-124291928D01*
X213791800Y-123943724D01*
X213791800Y-123757175D01*
X213888962Y-123660013D01*
X214035061Y-123441359D01*
X214135696Y-123198405D01*
X214187000Y-122940486D01*
X214187000Y-122677514D01*
X214135696Y-122419595D01*
X214035061Y-122176641D01*
X213888962Y-121957987D01*
X213703013Y-121772038D01*
X213484359Y-121625939D01*
X213241405Y-121525304D01*
X212983486Y-121474000D01*
X212947768Y-121474000D01*
X213190605Y-121425696D01*
X213433559Y-121325061D01*
X213652213Y-121178962D01*
X213838162Y-120993013D01*
X213984261Y-120774359D01*
X214084896Y-120531405D01*
X214136200Y-120273486D01*
X214136200Y-120010514D01*
X214084896Y-119752595D01*
X213984261Y-119509641D01*
X213838162Y-119290987D01*
X213652213Y-119105038D01*
X213433559Y-118958939D01*
X213190605Y-118858304D01*
X212932686Y-118807000D01*
X212852002Y-118807000D01*
X212852002Y-118645202D01*
X213058330Y-118767722D01*
X213304123Y-118677853D01*
X213527660Y-118541759D01*
X213720351Y-118364670D01*
X213874792Y-118153392D01*
X213985047Y-117916044D01*
X214017716Y-117808329D01*
X213894374Y-117602000D01*
X212852000Y-117602000D01*
X212852000Y-117622000D01*
X212598000Y-117622000D01*
X212598000Y-117602000D01*
X211555626Y-117602000D01*
X211432284Y-117808329D01*
X211464953Y-117916044D01*
X211575208Y-118153392D01*
X211729649Y-118364670D01*
X211922340Y-118541759D01*
X212145877Y-118677853D01*
X212391670Y-118767722D01*
X212597998Y-118645202D01*
X212597998Y-118810000D01*
X212654632Y-118810000D01*
X212411795Y-118858304D01*
X212168841Y-118958939D01*
X211950187Y-119105038D01*
X211764238Y-119290987D01*
X211618139Y-119509641D01*
X211517504Y-119752595D01*
X211466200Y-120010514D01*
X211466200Y-120273486D01*
X211517504Y-120531405D01*
X211618139Y-120774359D01*
X211764238Y-120993013D01*
X211950187Y-121178962D01*
X212168841Y-121325061D01*
X212411795Y-121425696D01*
X212669714Y-121477000D01*
X212705432Y-121477000D01*
X212462595Y-121525304D01*
X212219641Y-121625939D01*
X212000987Y-121772038D01*
X211815038Y-121957987D01*
X211668939Y-122176641D01*
X211568304Y-122419595D01*
X211517000Y-122677514D01*
X211517000Y-122940486D01*
X211568304Y-123198405D01*
X211668939Y-123441359D01*
X211815038Y-123660013D01*
X211912201Y-123757176D01*
X211912201Y-124156550D01*
X211836051Y-124080400D01*
X211669645Y-123969211D01*
X211484745Y-123892623D01*
X211288456Y-123853579D01*
X211088322Y-123853579D01*
X210892033Y-123892623D01*
X210707133Y-123969211D01*
X210540727Y-124080400D01*
X210399210Y-124221917D01*
X210288021Y-124388323D01*
X210211433Y-124573223D01*
X210172389Y-124769512D01*
X210172389Y-124969646D01*
X210211433Y-125165935D01*
X210288021Y-125350835D01*
X210399210Y-125517241D01*
X210540727Y-125658758D01*
X210707133Y-125769947D01*
X210796837Y-125807104D01*
X211351623Y-126361890D01*
X211381056Y-126397754D01*
X211464004Y-126465828D01*
X211524158Y-126515196D01*
X211551855Y-126530000D01*
X211687424Y-126602463D01*
X211864577Y-126656202D01*
X212002643Y-126669800D01*
X212002652Y-126669800D01*
X212048809Y-126674346D01*
X212094966Y-126669800D01*
X212827835Y-126669800D01*
X212859498Y-126774180D01*
X212918463Y-126884494D01*
X212997815Y-126981185D01*
X213094506Y-127060537D01*
X213204820Y-127119502D01*
X213324518Y-127155812D01*
X213449000Y-127168072D01*
X214682001Y-127168072D01*
X214682001Y-127416157D01*
X214598040Y-127386091D01*
X214376000Y-127507376D01*
X214376000Y-128651000D01*
X214396000Y-128651000D01*
X214396000Y-128905000D01*
X214376000Y-128905000D01*
X214376000Y-130048624D01*
X214598040Y-130169909D01*
X214682001Y-130139843D01*
X214682001Y-130662819D01*
X214456686Y-130618000D01*
X214193714Y-130618000D01*
X213935795Y-130669304D01*
X213692841Y-130769939D01*
X213474187Y-130916038D01*
X213288238Y-131101987D01*
X213142139Y-131320641D01*
X213041504Y-131563595D01*
X212990200Y-131821514D01*
X212990200Y-132084486D01*
X213041504Y-132342405D01*
X213142139Y-132585359D01*
X213288238Y-132804013D01*
X213474187Y-132989962D01*
X213692841Y-133136061D01*
X213749428Y-133159500D01*
X213692841Y-133182939D01*
X213474187Y-133329038D01*
X213288238Y-133514987D01*
X213142139Y-133733641D01*
X213041504Y-133976595D01*
X212990200Y-134234514D01*
X212990200Y-134497486D01*
X213041504Y-134755405D01*
X213142139Y-134998359D01*
X213288238Y-135217013D01*
X213474187Y-135402962D01*
X213692841Y-135549061D01*
X213935795Y-135649696D01*
X214186173Y-135699500D01*
X213935795Y-135749304D01*
X213692841Y-135849939D01*
X213474187Y-135996038D01*
X213288238Y-136181987D01*
X213142139Y-136400641D01*
X213041504Y-136643595D01*
X212990200Y-136901514D01*
X212990200Y-137164486D01*
X213041504Y-137422405D01*
X213142139Y-137665359D01*
X213288238Y-137884013D01*
X213474187Y-138069962D01*
X213631281Y-138174928D01*
X213362000Y-138174928D01*
X213237518Y-138187188D01*
X213117820Y-138223498D01*
X213007506Y-138282463D01*
X212910815Y-138361815D01*
X212831463Y-138458506D01*
X212772498Y-138568820D01*
X212736188Y-138688518D01*
X212731630Y-138734800D01*
X210749870Y-138734800D01*
X210745312Y-138688518D01*
X210709002Y-138568820D01*
X210650037Y-138458506D01*
X210570685Y-138361815D01*
X210473994Y-138282463D01*
X210363680Y-138223498D01*
X210243982Y-138187188D01*
X210119500Y-138174928D01*
X209930737Y-138174928D01*
X209986864Y-137954269D01*
X209245200Y-137212605D01*
X208503536Y-137954269D01*
X208560636Y-138178756D01*
X208475018Y-138187188D01*
X208355320Y-138223498D01*
X208245006Y-138282463D01*
X208148315Y-138361815D01*
X208068963Y-138458506D01*
X208009998Y-138568820D01*
X207973688Y-138688518D01*
X207961428Y-138813000D01*
X207961428Y-140333000D01*
X207973688Y-140457482D01*
X208009998Y-140577180D01*
X208068963Y-140687494D01*
X208148315Y-140784185D01*
X208245006Y-140863537D01*
X208355320Y-140922502D01*
X208475018Y-140958812D01*
X208562967Y-140967474D01*
X208470239Y-141029433D01*
X208275933Y-141223739D01*
X208123267Y-141452220D01*
X208018109Y-141706093D01*
X207964500Y-141975604D01*
X207964500Y-142250396D01*
X208018109Y-142519907D01*
X208123267Y-142773780D01*
X208275933Y-143002261D01*
X208470239Y-143196567D01*
X208698720Y-143349233D01*
X208780240Y-143383000D01*
X208698720Y-143416767D01*
X208470239Y-143569433D01*
X208275933Y-143763739D01*
X208123267Y-143992220D01*
X208018109Y-144246093D01*
X207964500Y-144515604D01*
X207964500Y-144790396D01*
X208005079Y-144994399D01*
X207821585Y-144994399D01*
X207780422Y-144990345D01*
X207739259Y-144994399D01*
X207739253Y-144994399D01*
X207616107Y-145006528D01*
X207458106Y-145054457D01*
X207312491Y-145132290D01*
X207184859Y-145237035D01*
X207158616Y-145269012D01*
X206196306Y-146231323D01*
X206182050Y-146237228D01*
X206015644Y-146348417D01*
X205874127Y-146489934D01*
X205762938Y-146656340D01*
X205686350Y-146841240D01*
X205647306Y-147037529D01*
X205647306Y-147237663D01*
X205686350Y-147433952D01*
X205762938Y-147618852D01*
X205874127Y-147785258D01*
X206015644Y-147926775D01*
X206182050Y-148037964D01*
X206366950Y-148114552D01*
X206563239Y-148153596D01*
X206763373Y-148153596D01*
X206959662Y-148114552D01*
X207144562Y-148037964D01*
X207309303Y-147927888D01*
X207420838Y-148094813D01*
X207606787Y-148280762D01*
X207825441Y-148426861D01*
X208068395Y-148527496D01*
X208165680Y-148546848D01*
X208017595Y-148576304D01*
X207774641Y-148676939D01*
X207555987Y-148823038D01*
X207370038Y-149008987D01*
X207223939Y-149227641D01*
X207123304Y-149470595D01*
X207072000Y-149728514D01*
X207072000Y-149991486D01*
X207123304Y-150249405D01*
X207223939Y-150492359D01*
X207370038Y-150711013D01*
X207555987Y-150896962D01*
X207774641Y-151043061D01*
X208017595Y-151143696D01*
X208275514Y-151195000D01*
X208538486Y-151195000D01*
X208796405Y-151143696D01*
X209039359Y-151043061D01*
X209258013Y-150896962D01*
X209443962Y-150711013D01*
X209590061Y-150492359D01*
X209690696Y-150249405D01*
X209742000Y-149991486D01*
X209742000Y-149728514D01*
X209690696Y-149470595D01*
X209590061Y-149227641D01*
X209443962Y-149008987D01*
X209258013Y-148823038D01*
X209039359Y-148676939D01*
X208796405Y-148576304D01*
X208699120Y-148556952D01*
X208847205Y-148527496D01*
X209090159Y-148426861D01*
X209308813Y-148280762D01*
X209494762Y-148094813D01*
X209640861Y-147876159D01*
X209741496Y-147633205D01*
X209792800Y-147375286D01*
X209792800Y-147112314D01*
X209741496Y-146854395D01*
X209640861Y-146611441D01*
X209568465Y-146503092D01*
X209659767Y-146428163D01*
X209686014Y-146396181D01*
X209732582Y-146349613D01*
X209764564Y-146323366D01*
X209869309Y-146195734D01*
X209947142Y-146050119D01*
X209992449Y-145900761D01*
X210020280Y-145889233D01*
X210248761Y-145736567D01*
X210443067Y-145542261D01*
X210595733Y-145313780D01*
X210700891Y-145059907D01*
X210754500Y-144790396D01*
X210754500Y-144515604D01*
X210700891Y-144246093D01*
X210595733Y-143992220D01*
X210443067Y-143763739D01*
X210248761Y-143569433D01*
X210020280Y-143416767D01*
X209938760Y-143383000D01*
X210020280Y-143349233D01*
X210248761Y-143196567D01*
X210443067Y-143002261D01*
X210477185Y-142951200D01*
X211234807Y-142951200D01*
X212738980Y-144455374D01*
X212727000Y-144515604D01*
X212727000Y-144790396D01*
X212780609Y-145059907D01*
X212885767Y-145313780D01*
X213038433Y-145542261D01*
X213232739Y-145736567D01*
X213283801Y-145770685D01*
X213283801Y-145933170D01*
X213148395Y-145960104D01*
X212905441Y-146060739D01*
X212686787Y-146206838D01*
X212500838Y-146392787D01*
X212354739Y-146611441D01*
X212254104Y-146854395D01*
X212202800Y-147112314D01*
X212202800Y-147375286D01*
X212254104Y-147633205D01*
X212354739Y-147876159D01*
X212500838Y-148094813D01*
X212686787Y-148280762D01*
X212905441Y-148426861D01*
X213148395Y-148527496D01*
X213245680Y-148546848D01*
X213097595Y-148576304D01*
X212854641Y-148676939D01*
X212635987Y-148823038D01*
X212450038Y-149008987D01*
X212441477Y-149021800D01*
X211938140Y-149021800D01*
X211847378Y-148961155D01*
X211662478Y-148884567D01*
X211466189Y-148845523D01*
X211266055Y-148845523D01*
X211069766Y-148884567D01*
X210884866Y-148961155D01*
X210718460Y-149072344D01*
X210576943Y-149213861D01*
X210465754Y-149380267D01*
X210389166Y-149565167D01*
X210350122Y-149761456D01*
X210350122Y-149961590D01*
X210389166Y-150157879D01*
X210465754Y-150342779D01*
X210576943Y-150509185D01*
X210718460Y-150650702D01*
X210884866Y-150761891D01*
X211069766Y-150838479D01*
X211266055Y-150877523D01*
X211466189Y-150877523D01*
X211662478Y-150838479D01*
X211847378Y-150761891D01*
X211942698Y-150698200D01*
X212441477Y-150698200D01*
X212450038Y-150711013D01*
X212635987Y-150896962D01*
X212854641Y-151043061D01*
X213097595Y-151143696D01*
X213167289Y-151157559D01*
X213094506Y-151196463D01*
X212997815Y-151275815D01*
X212918463Y-151372506D01*
X212859498Y-151482820D01*
X212823188Y-151602518D01*
X212810928Y-151727000D01*
X212810928Y-153327000D01*
X212823188Y-153451482D01*
X212859498Y-153571180D01*
X212918463Y-153681494D01*
X212997815Y-153778185D01*
X213094506Y-153857537D01*
X213167289Y-153896441D01*
X213097595Y-153910304D01*
X212854641Y-154010939D01*
X212635987Y-154157038D01*
X212450038Y-154342987D01*
X212303939Y-154561641D01*
X212203304Y-154804595D01*
X212152000Y-155062514D01*
X212152000Y-155325486D01*
X212203304Y-155583405D01*
X212303939Y-155826359D01*
X212450038Y-156045013D01*
X212635987Y-156230962D01*
X212682439Y-156262000D01*
X209211561Y-156262000D01*
X209258013Y-156230962D01*
X209443962Y-156045013D01*
X209590061Y-155826359D01*
X209690696Y-155583405D01*
X209742000Y-155325486D01*
X209742000Y-155062514D01*
X209690696Y-154804595D01*
X209590061Y-154561641D01*
X209443962Y-154342987D01*
X209258013Y-154157038D01*
X209039359Y-154010939D01*
X208796405Y-153910304D01*
X208538486Y-153859000D01*
X208275514Y-153859000D01*
X208017595Y-153910304D01*
X207774641Y-154010939D01*
X207555987Y-154157038D01*
X207370038Y-154342987D01*
X207223939Y-154561641D01*
X207123304Y-154804595D01*
X207072000Y-155062514D01*
X207072000Y-155325486D01*
X207123304Y-155583405D01*
X207223939Y-155826359D01*
X207370038Y-156045013D01*
X207555987Y-156230962D01*
X207602439Y-156262000D01*
X196798000Y-156262000D01*
X196798000Y-154040604D01*
X197741000Y-154040604D01*
X197741000Y-154315396D01*
X197794609Y-154584907D01*
X197899767Y-154838780D01*
X198052433Y-155067261D01*
X198246739Y-155261567D01*
X198475220Y-155414233D01*
X198729093Y-155519391D01*
X198998604Y-155573000D01*
X199273396Y-155573000D01*
X199542907Y-155519391D01*
X199796780Y-155414233D01*
X200025261Y-155261567D01*
X200219567Y-155067261D01*
X200372233Y-154838780D01*
X200406000Y-154757260D01*
X200439767Y-154838780D01*
X200592433Y-155067261D01*
X200786739Y-155261567D01*
X201015220Y-155414233D01*
X201269093Y-155519391D01*
X201538604Y-155573000D01*
X201813396Y-155573000D01*
X202082907Y-155519391D01*
X202336780Y-155414233D01*
X202565261Y-155261567D01*
X202759567Y-155067261D01*
X202821526Y-154974533D01*
X202830188Y-155062482D01*
X202866498Y-155182180D01*
X202925463Y-155292494D01*
X203004815Y-155389185D01*
X203101506Y-155468537D01*
X203211820Y-155527502D01*
X203331518Y-155563812D01*
X203456000Y-155576072D01*
X204976000Y-155576072D01*
X205100482Y-155563812D01*
X205220180Y-155527502D01*
X205330494Y-155468537D01*
X205427185Y-155389185D01*
X205506537Y-155292494D01*
X205565502Y-155182180D01*
X205601812Y-155062482D01*
X205614072Y-154938000D01*
X205614072Y-153418000D01*
X205601812Y-153293518D01*
X205565502Y-153173820D01*
X205506537Y-153063506D01*
X205427185Y-152966815D01*
X205330494Y-152887463D01*
X205309122Y-152876039D01*
X205999096Y-152876039D01*
X206039754Y-153010087D01*
X206159963Y-153264420D01*
X206327481Y-153490414D01*
X206535869Y-153679385D01*
X206777119Y-153824070D01*
X207041960Y-153918909D01*
X207264000Y-153797624D01*
X207264000Y-152654000D01*
X207518000Y-152654000D01*
X207518000Y-153797624D01*
X207740040Y-153918909D01*
X208004881Y-153824070D01*
X208246131Y-153679385D01*
X208454519Y-153490414D01*
X208622037Y-153264420D01*
X208742246Y-153010087D01*
X208782904Y-152876039D01*
X208660915Y-152654000D01*
X207518000Y-152654000D01*
X207264000Y-152654000D01*
X206121085Y-152654000D01*
X205999096Y-152876039D01*
X205309122Y-152876039D01*
X205220180Y-152828498D01*
X205100482Y-152792188D01*
X204976000Y-152779928D01*
X203456000Y-152779928D01*
X203331518Y-152792188D01*
X203211820Y-152828498D01*
X203101506Y-152887463D01*
X203004815Y-152966815D01*
X202925463Y-153063506D01*
X202866498Y-153173820D01*
X202830188Y-153293518D01*
X202821526Y-153381467D01*
X202759567Y-153288739D01*
X202565261Y-153094433D01*
X202336780Y-152941767D01*
X202082907Y-152836609D01*
X201813396Y-152783000D01*
X201538604Y-152783000D01*
X201269093Y-152836609D01*
X201015220Y-152941767D01*
X200786739Y-153094433D01*
X200592433Y-153288739D01*
X200439767Y-153517220D01*
X200406000Y-153598740D01*
X200372233Y-153517220D01*
X200219567Y-153288739D01*
X200025261Y-153094433D01*
X199796780Y-152941767D01*
X199542907Y-152836609D01*
X199273396Y-152783000D01*
X198998604Y-152783000D01*
X198729093Y-152836609D01*
X198475220Y-152941767D01*
X198246739Y-153094433D01*
X198052433Y-153288739D01*
X197899767Y-153517220D01*
X197794609Y-153771093D01*
X197741000Y-154040604D01*
X196798000Y-154040604D01*
X196798000Y-150871514D01*
X197801000Y-150871514D01*
X197801000Y-151134486D01*
X197852304Y-151392405D01*
X197952939Y-151635359D01*
X198099038Y-151854013D01*
X198284987Y-152039962D01*
X198503641Y-152186061D01*
X198746595Y-152286696D01*
X199004514Y-152338000D01*
X199267486Y-152338000D01*
X199525405Y-152286696D01*
X199768359Y-152186061D01*
X199987013Y-152039962D01*
X200172962Y-151854013D01*
X200319061Y-151635359D01*
X200419696Y-151392405D01*
X200471000Y-151134486D01*
X200471000Y-150871514D01*
X200419696Y-150613595D01*
X200319061Y-150370641D01*
X200172962Y-150151987D01*
X199987013Y-149966038D01*
X199768359Y-149819939D01*
X199563666Y-149735152D01*
X199566130Y-149734787D01*
X199832292Y-149639603D01*
X199957514Y-149572671D01*
X200029097Y-149328702D01*
X199216000Y-148515605D01*
X198402903Y-149328702D01*
X198474486Y-149572671D01*
X198729996Y-149693571D01*
X198794578Y-149709759D01*
X198746595Y-149719304D01*
X198503641Y-149819939D01*
X198284987Y-149966038D01*
X198099038Y-150151987D01*
X197952939Y-150370641D01*
X197852304Y-150613595D01*
X197801000Y-150871514D01*
X196798000Y-150871514D01*
X196798000Y-148406512D01*
X197775783Y-148406512D01*
X197817213Y-148686130D01*
X197912397Y-148952292D01*
X197979329Y-149077514D01*
X198223298Y-149149097D01*
X199036395Y-148336000D01*
X199395605Y-148336000D01*
X200208702Y-149149097D01*
X200452671Y-149077514D01*
X200573571Y-148822004D01*
X200642300Y-148547816D01*
X200656217Y-148265488D01*
X200645724Y-148194665D01*
X202781000Y-148194665D01*
X202781000Y-148477335D01*
X202836147Y-148754574D01*
X202944320Y-149015727D01*
X203101363Y-149250759D01*
X203301241Y-149450637D01*
X203536273Y-149607680D01*
X203797426Y-149715853D01*
X203822760Y-149720892D01*
X203583641Y-149819939D01*
X203364987Y-149966038D01*
X203179038Y-150151987D01*
X203032939Y-150370641D01*
X202932304Y-150613595D01*
X202881000Y-150871514D01*
X202881000Y-151134486D01*
X202932304Y-151392405D01*
X203032939Y-151635359D01*
X203179038Y-151854013D01*
X203364987Y-152039962D01*
X203583641Y-152186061D01*
X203826595Y-152286696D01*
X204084514Y-152338000D01*
X204347486Y-152338000D01*
X204605405Y-152286696D01*
X204848359Y-152186061D01*
X204860481Y-152177961D01*
X205999096Y-152177961D01*
X206121085Y-152400000D01*
X207264000Y-152400000D01*
X207264000Y-151256376D01*
X207518000Y-151256376D01*
X207518000Y-152400000D01*
X208660915Y-152400000D01*
X208782904Y-152177961D01*
X208742246Y-152043913D01*
X208622037Y-151789580D01*
X208454519Y-151563586D01*
X208246131Y-151374615D01*
X208004881Y-151229930D01*
X207740040Y-151135091D01*
X207518000Y-151256376D01*
X207264000Y-151256376D01*
X207041960Y-151135091D01*
X206777119Y-151229930D01*
X206535869Y-151374615D01*
X206327481Y-151563586D01*
X206159963Y-151789580D01*
X206039754Y-152043913D01*
X205999096Y-152177961D01*
X204860481Y-152177961D01*
X205067013Y-152039962D01*
X205252962Y-151854013D01*
X205399061Y-151635359D01*
X205499696Y-151392405D01*
X205551000Y-151134486D01*
X205551000Y-150871514D01*
X205499696Y-150613595D01*
X205399061Y-150370641D01*
X205252962Y-150151987D01*
X205067013Y-149966038D01*
X204848359Y-149819939D01*
X204609240Y-149720892D01*
X204634574Y-149715853D01*
X204895727Y-149607680D01*
X205130759Y-149450637D01*
X205330637Y-149250759D01*
X205487680Y-149015727D01*
X205595853Y-148754574D01*
X205651000Y-148477335D01*
X205651000Y-148194665D01*
X205595853Y-147917426D01*
X205487680Y-147656273D01*
X205330637Y-147421241D01*
X205130759Y-147221363D01*
X204895727Y-147064320D01*
X204634574Y-146956147D01*
X204609240Y-146951108D01*
X204848359Y-146852061D01*
X205067013Y-146705962D01*
X205252962Y-146520013D01*
X205399061Y-146301359D01*
X205499696Y-146058405D01*
X205551000Y-145800486D01*
X205551000Y-145537514D01*
X205499696Y-145279595D01*
X205399061Y-145036641D01*
X205252962Y-144817987D01*
X205067013Y-144632038D01*
X204848359Y-144485939D01*
X204605405Y-144385304D01*
X204347486Y-144334000D01*
X204084514Y-144334000D01*
X203826595Y-144385304D01*
X203583641Y-144485939D01*
X203364987Y-144632038D01*
X203179038Y-144817987D01*
X203032939Y-145036641D01*
X202932304Y-145279595D01*
X202881000Y-145537514D01*
X202881000Y-145800486D01*
X202932304Y-146058405D01*
X203032939Y-146301359D01*
X203179038Y-146520013D01*
X203364987Y-146705962D01*
X203583641Y-146852061D01*
X203822760Y-146951108D01*
X203797426Y-146956147D01*
X203536273Y-147064320D01*
X203301241Y-147221363D01*
X203101363Y-147421241D01*
X202944320Y-147656273D01*
X202836147Y-147917426D01*
X202781000Y-148194665D01*
X200645724Y-148194665D01*
X200614787Y-147985870D01*
X200519603Y-147719708D01*
X200452671Y-147594486D01*
X200208702Y-147522903D01*
X199395605Y-148336000D01*
X199036395Y-148336000D01*
X198223298Y-147522903D01*
X197979329Y-147594486D01*
X197858429Y-147849996D01*
X197789700Y-148124184D01*
X197775783Y-148406512D01*
X196798000Y-148406512D01*
X196798000Y-145537514D01*
X197801000Y-145537514D01*
X197801000Y-145800486D01*
X197852304Y-146058405D01*
X197952939Y-146301359D01*
X198099038Y-146520013D01*
X198284987Y-146705962D01*
X198503641Y-146852061D01*
X198746595Y-146952696D01*
X198795418Y-146962408D01*
X198599708Y-147032397D01*
X198474486Y-147099329D01*
X198402903Y-147343298D01*
X199216000Y-148156395D01*
X200029097Y-147343298D01*
X199957514Y-147099329D01*
X199702004Y-146978429D01*
X199553281Y-146941149D01*
X199768359Y-146852061D01*
X199987013Y-146705962D01*
X200172962Y-146520013D01*
X200319061Y-146301359D01*
X200419696Y-146058405D01*
X200471000Y-145800486D01*
X200471000Y-145537514D01*
X200419696Y-145279595D01*
X200319061Y-145036641D01*
X200172962Y-144817987D01*
X199987013Y-144632038D01*
X199768359Y-144485939D01*
X199525405Y-144385304D01*
X199267486Y-144334000D01*
X199004514Y-144334000D01*
X198746595Y-144385304D01*
X198503641Y-144485939D01*
X198284987Y-144632038D01*
X198099038Y-144817987D01*
X197952939Y-145036641D01*
X197852304Y-145279595D01*
X197801000Y-145537514D01*
X196798000Y-145537514D01*
X196798000Y-144075693D01*
X196934486Y-144130650D01*
X197212000Y-144183000D01*
X197612000Y-144183000D01*
X197612000Y-142875000D01*
X197866000Y-142875000D01*
X197866000Y-144183000D01*
X198266000Y-144183000D01*
X198543514Y-144130650D01*
X198805483Y-144025166D01*
X199041839Y-143870601D01*
X199243500Y-143672895D01*
X199402715Y-143439646D01*
X199513367Y-143179818D01*
X199530904Y-143097039D01*
X199408915Y-142875000D01*
X197866000Y-142875000D01*
X197612000Y-142875000D01*
X197592000Y-142875000D01*
X197592000Y-142621000D01*
X197612000Y-142621000D01*
X197612000Y-142601000D01*
X197866000Y-142601000D01*
X197866000Y-142621000D01*
X199408915Y-142621000D01*
X199530904Y-142398961D01*
X199513367Y-142316182D01*
X199402715Y-142056354D01*
X199243500Y-141823105D01*
X199041839Y-141625399D01*
X198812259Y-141475265D01*
X198940101Y-141406932D01*
X199158608Y-141227608D01*
X199337932Y-141009101D01*
X199471182Y-140759808D01*
X199553236Y-140489309D01*
X199580943Y-140208000D01*
X199553236Y-139926691D01*
X199471182Y-139656192D01*
X199337932Y-139406899D01*
X199158608Y-139188392D01*
X198940101Y-139009068D01*
X198807142Y-138938000D01*
X198940101Y-138866932D01*
X199158608Y-138687608D01*
X199337932Y-138469101D01*
X199471182Y-138219808D01*
X199553236Y-137949309D01*
X199580943Y-137668000D01*
X199553236Y-137386691D01*
X199471182Y-137116192D01*
X199337932Y-136866899D01*
X199158608Y-136648392D01*
X199045518Y-136555581D01*
X199063482Y-136553812D01*
X199183180Y-136517502D01*
X199293494Y-136458537D01*
X199390185Y-136379185D01*
X199469537Y-136282494D01*
X199528502Y-136172180D01*
X199564812Y-136052482D01*
X199577072Y-135928000D01*
X199577072Y-134328000D01*
X199564812Y-134203518D01*
X199528502Y-134083820D01*
X199469537Y-133973506D01*
X199390185Y-133876815D01*
X199293494Y-133797463D01*
X199183180Y-133738498D01*
X199063482Y-133702188D01*
X198939000Y-133689928D01*
X196798000Y-133689928D01*
X196798000Y-133186831D01*
X197059184Y-133252300D01*
X197341512Y-133266217D01*
X197621130Y-133224787D01*
X197887292Y-133129603D01*
X198012514Y-133062671D01*
X198084097Y-132818702D01*
X197271000Y-132005605D01*
X197256858Y-132019748D01*
X197077253Y-131840143D01*
X197091395Y-131826000D01*
X197450605Y-131826000D01*
X198263702Y-132639097D01*
X198507671Y-132567514D01*
X198521324Y-132538659D01*
X198656363Y-132740759D01*
X198856241Y-132940637D01*
X199091273Y-133097680D01*
X199352426Y-133205853D01*
X199629665Y-133261000D01*
X199912335Y-133261000D01*
X200189574Y-133205853D01*
X200406000Y-133116207D01*
X200406000Y-133145267D01*
X200445044Y-133341556D01*
X200521632Y-133526456D01*
X200632821Y-133692862D01*
X200774338Y-133834379D01*
X200940744Y-133945568D01*
X201125644Y-134022156D01*
X201321933Y-134061200D01*
X201522067Y-134061200D01*
X201718356Y-134022156D01*
X201903256Y-133945568D01*
X202069662Y-133834379D01*
X202211179Y-133692862D01*
X202322368Y-133526456D01*
X202353418Y-133451495D01*
X203592208Y-134690286D01*
X203544764Y-134846691D01*
X203517057Y-135128000D01*
X203544764Y-135409309D01*
X203626818Y-135679808D01*
X203760068Y-135929101D01*
X203939392Y-136147608D01*
X204157899Y-136326932D01*
X204290858Y-136398000D01*
X204157899Y-136469068D01*
X203939392Y-136648392D01*
X203760068Y-136866899D01*
X203626818Y-137116192D01*
X203544764Y-137386691D01*
X203517057Y-137668000D01*
X203544764Y-137949309D01*
X203626818Y-138219808D01*
X203760068Y-138469101D01*
X203939392Y-138687608D01*
X204157899Y-138866932D01*
X204290858Y-138938000D01*
X204157899Y-139009068D01*
X203939392Y-139188392D01*
X203760068Y-139406899D01*
X203626818Y-139656192D01*
X203544764Y-139926691D01*
X203517057Y-140208000D01*
X203544764Y-140489309D01*
X203593632Y-140650407D01*
X201880145Y-142363895D01*
X201877628Y-142363895D01*
X201681339Y-142402939D01*
X201496439Y-142479527D01*
X201330033Y-142590716D01*
X201188516Y-142732233D01*
X201077327Y-142898639D01*
X201000739Y-143083539D01*
X200961695Y-143279828D01*
X200961695Y-143479962D01*
X201000739Y-143676251D01*
X201077327Y-143861151D01*
X201188516Y-144027557D01*
X201330033Y-144169074D01*
X201496439Y-144280263D01*
X201681339Y-144356851D01*
X201877628Y-144395895D01*
X202077762Y-144395895D01*
X202274051Y-144356851D01*
X202458951Y-144280263D01*
X202625357Y-144169074D01*
X202766874Y-144027557D01*
X202878063Y-143861151D01*
X202954651Y-143676251D01*
X202993695Y-143479962D01*
X202993695Y-143477445D01*
X203535535Y-142935605D01*
X203544764Y-143029309D01*
X203626818Y-143299808D01*
X203760068Y-143549101D01*
X203939392Y-143767608D01*
X204157899Y-143946932D01*
X204407192Y-144080182D01*
X204677691Y-144162236D01*
X204888508Y-144183000D01*
X205829492Y-144183000D01*
X206040309Y-144162236D01*
X206310808Y-144080182D01*
X206560101Y-143946932D01*
X206778608Y-143767608D01*
X206957932Y-143549101D01*
X207091182Y-143299808D01*
X207173236Y-143029309D01*
X207200943Y-142748000D01*
X207173236Y-142466691D01*
X207091182Y-142196192D01*
X206957932Y-141946899D01*
X206778608Y-141728392D01*
X206560101Y-141549068D01*
X206427142Y-141478000D01*
X206560101Y-141406932D01*
X206778608Y-141227608D01*
X206957932Y-141009101D01*
X207091182Y-140759808D01*
X207173236Y-140489309D01*
X207200943Y-140208000D01*
X207173236Y-139926691D01*
X207091182Y-139656192D01*
X206957932Y-139406899D01*
X206778608Y-139188392D01*
X206560101Y-139009068D01*
X206427142Y-138938000D01*
X206560101Y-138866932D01*
X206778608Y-138687608D01*
X206957932Y-138469101D01*
X207091182Y-138219808D01*
X207173236Y-137949309D01*
X207200943Y-137668000D01*
X207173236Y-137386691D01*
X207091182Y-137116192D01*
X207086522Y-137107473D01*
X207905810Y-137107473D01*
X207946075Y-137367344D01*
X208036265Y-137614366D01*
X208090163Y-137715203D01*
X208323931Y-137774664D01*
X209065595Y-137033000D01*
X209424805Y-137033000D01*
X210166469Y-137774664D01*
X210400237Y-137715203D01*
X210511134Y-137476758D01*
X210573383Y-137221260D01*
X210584590Y-136958527D01*
X210544325Y-136698656D01*
X210454135Y-136451634D01*
X210400237Y-136350797D01*
X210166469Y-136291336D01*
X209424805Y-137033000D01*
X209065595Y-137033000D01*
X208323931Y-136291336D01*
X208090163Y-136350797D01*
X207979266Y-136589242D01*
X207917017Y-136844740D01*
X207905810Y-137107473D01*
X207086522Y-137107473D01*
X206957932Y-136866899D01*
X206778608Y-136648392D01*
X206560101Y-136469068D01*
X206427142Y-136398000D01*
X206560101Y-136326932D01*
X206778608Y-136147608D01*
X206957932Y-135929101D01*
X207091182Y-135679808D01*
X207173236Y-135409309D01*
X207200943Y-135128000D01*
X207173236Y-134846691D01*
X207091182Y-134576192D01*
X206957932Y-134326899D01*
X206882114Y-134234514D01*
X207910200Y-134234514D01*
X207910200Y-134497486D01*
X207961504Y-134755405D01*
X208062139Y-134998359D01*
X208208238Y-135217013D01*
X208394187Y-135402962D01*
X208612841Y-135549061D01*
X208855795Y-135649696D01*
X209113714Y-135701000D01*
X209123032Y-135701000D01*
X208910856Y-135733875D01*
X208663834Y-135824065D01*
X208562997Y-135877963D01*
X208503536Y-136111731D01*
X209245200Y-136853395D01*
X209986864Y-136111731D01*
X209927403Y-135877963D01*
X209688958Y-135767066D01*
X209433460Y-135704817D01*
X209343976Y-135701000D01*
X209376686Y-135701000D01*
X209634605Y-135649696D01*
X209877559Y-135549061D01*
X210096213Y-135402962D01*
X210282162Y-135217013D01*
X210428261Y-134998359D01*
X210528896Y-134755405D01*
X210580200Y-134497486D01*
X210580200Y-134234514D01*
X210528896Y-133976595D01*
X210428261Y-133733641D01*
X210282162Y-133514987D01*
X210096213Y-133329038D01*
X209877559Y-133182939D01*
X209826690Y-133161869D01*
X209927403Y-133108037D01*
X209986864Y-132874269D01*
X209245200Y-132132605D01*
X208503536Y-132874269D01*
X208562997Y-133108037D01*
X208671661Y-133158575D01*
X208612841Y-133182939D01*
X208394187Y-133329038D01*
X208208238Y-133514987D01*
X208062139Y-133733641D01*
X207961504Y-133976595D01*
X207910200Y-134234514D01*
X206882114Y-134234514D01*
X206778608Y-134108392D01*
X206560101Y-133929068D01*
X206310808Y-133795818D01*
X206040309Y-133713764D01*
X205829492Y-133693000D01*
X205253078Y-133693000D01*
X203587550Y-132027473D01*
X207905810Y-132027473D01*
X207946075Y-132287344D01*
X208036265Y-132534366D01*
X208090163Y-132635203D01*
X208323931Y-132694664D01*
X209065595Y-131953000D01*
X209424805Y-131953000D01*
X210166469Y-132694664D01*
X210400237Y-132635203D01*
X210511134Y-132396758D01*
X210573383Y-132141260D01*
X210584590Y-131878527D01*
X210544325Y-131618656D01*
X210454135Y-131371634D01*
X210400237Y-131270797D01*
X210166469Y-131211336D01*
X209424805Y-131953000D01*
X209065595Y-131953000D01*
X208323931Y-131211336D01*
X208090163Y-131270797D01*
X207979266Y-131509242D01*
X207917017Y-131764740D01*
X207905810Y-132027473D01*
X203587550Y-132027473D01*
X202754191Y-131194115D01*
X202724754Y-131158246D01*
X202581651Y-131040804D01*
X202564677Y-131031731D01*
X208503536Y-131031731D01*
X209245200Y-131773395D01*
X209986864Y-131031731D01*
X209927403Y-130797963D01*
X209688958Y-130687066D01*
X209433460Y-130624817D01*
X209170727Y-130613610D01*
X208910856Y-130653875D01*
X208663834Y-130744065D01*
X208562997Y-130797963D01*
X208503536Y-131031731D01*
X202564677Y-131031731D01*
X202418386Y-130953537D01*
X202391932Y-130945512D01*
X202398956Y-130928556D01*
X202438000Y-130732267D01*
X202438000Y-130532133D01*
X202398956Y-130335844D01*
X202322368Y-130150944D01*
X202211179Y-129984538D01*
X202069662Y-129843021D01*
X201903256Y-129731832D01*
X201718356Y-129655244D01*
X201522067Y-129616200D01*
X201321933Y-129616200D01*
X201125644Y-129655244D01*
X200940744Y-129731832D01*
X200774338Y-129843021D01*
X200632821Y-129984538D01*
X200521632Y-130150944D01*
X200445044Y-130335844D01*
X200406000Y-130532133D01*
X200406000Y-130535793D01*
X200189574Y-130446147D01*
X199912335Y-130391000D01*
X199629665Y-130391000D01*
X199352426Y-130446147D01*
X199091273Y-130554320D01*
X198856241Y-130711363D01*
X198656363Y-130911241D01*
X198522308Y-131111869D01*
X198507671Y-131084486D01*
X198263702Y-131012903D01*
X197450605Y-131826000D01*
X197091395Y-131826000D01*
X197077253Y-131811858D01*
X197256858Y-131632253D01*
X197271000Y-131646395D01*
X198084097Y-130833298D01*
X198012514Y-130589329D01*
X197757004Y-130468429D01*
X197482816Y-130399700D01*
X197200488Y-130385783D01*
X196920870Y-130427213D01*
X196798000Y-130471153D01*
X196798000Y-130148939D01*
X196856560Y-130169909D01*
X197078600Y-130048624D01*
X197078600Y-128905000D01*
X197332600Y-128905000D01*
X197332600Y-130048624D01*
X197554640Y-130169909D01*
X197819481Y-130075070D01*
X198060731Y-129930385D01*
X198269119Y-129741414D01*
X198436637Y-129515420D01*
X198556846Y-129261087D01*
X198597504Y-129127039D01*
X198475515Y-128905000D01*
X197332600Y-128905000D01*
X197078600Y-128905000D01*
X197058600Y-128905000D01*
X197058600Y-128651000D01*
X197078600Y-128651000D01*
X197078600Y-127507376D01*
X197332600Y-127507376D01*
X197332600Y-128651000D01*
X198475515Y-128651000D01*
X198597504Y-128428961D01*
X198556846Y-128294913D01*
X198436637Y-128040580D01*
X198390250Y-127978000D01*
X202625528Y-127978000D01*
X202625528Y-129578000D01*
X202637788Y-129702482D01*
X202674098Y-129822180D01*
X202733063Y-129932494D01*
X202812415Y-130029185D01*
X202909106Y-130108537D01*
X203019420Y-130167502D01*
X203139118Y-130203812D01*
X203263600Y-130216072D01*
X204863600Y-130216072D01*
X204988082Y-130203812D01*
X205107780Y-130167502D01*
X205218094Y-130108537D01*
X205314785Y-130029185D01*
X205394137Y-129932494D01*
X205453102Y-129822180D01*
X205489412Y-129702482D01*
X205501672Y-129578000D01*
X205501672Y-127978000D01*
X205952928Y-127978000D01*
X205952928Y-129578000D01*
X205965188Y-129702482D01*
X206001498Y-129822180D01*
X206060463Y-129932494D01*
X206139815Y-130029185D01*
X206236506Y-130108537D01*
X206346820Y-130167502D01*
X206466518Y-130203812D01*
X206591000Y-130216072D01*
X208191000Y-130216072D01*
X208315482Y-130203812D01*
X208435180Y-130167502D01*
X208545494Y-130108537D01*
X208642185Y-130029185D01*
X208721537Y-129932494D01*
X208780502Y-129822180D01*
X208816812Y-129702482D01*
X208829072Y-129578000D01*
X208829072Y-129127039D01*
X212857096Y-129127039D01*
X212897754Y-129261087D01*
X213017963Y-129515420D01*
X213185481Y-129741414D01*
X213393869Y-129930385D01*
X213635119Y-130075070D01*
X213899960Y-130169909D01*
X214122000Y-130048624D01*
X214122000Y-128905000D01*
X212979085Y-128905000D01*
X212857096Y-129127039D01*
X208829072Y-129127039D01*
X208829072Y-128428961D01*
X212857096Y-128428961D01*
X212979085Y-128651000D01*
X214122000Y-128651000D01*
X214122000Y-127507376D01*
X213899960Y-127386091D01*
X213635119Y-127480930D01*
X213393869Y-127625615D01*
X213185481Y-127814586D01*
X213017963Y-128040580D01*
X212897754Y-128294913D01*
X212857096Y-128428961D01*
X208829072Y-128428961D01*
X208829072Y-127978000D01*
X208816812Y-127853518D01*
X208780502Y-127733820D01*
X208721537Y-127623506D01*
X208642185Y-127526815D01*
X208545494Y-127447463D01*
X208435180Y-127388498D01*
X208315482Y-127352188D01*
X208191000Y-127339928D01*
X206591000Y-127339928D01*
X206466518Y-127352188D01*
X206346820Y-127388498D01*
X206236506Y-127447463D01*
X206139815Y-127526815D01*
X206060463Y-127623506D01*
X206001498Y-127733820D01*
X205965188Y-127853518D01*
X205952928Y-127978000D01*
X205501672Y-127978000D01*
X205489412Y-127853518D01*
X205453102Y-127733820D01*
X205394137Y-127623506D01*
X205314785Y-127526815D01*
X205218094Y-127447463D01*
X205107780Y-127388498D01*
X204988082Y-127352188D01*
X204863600Y-127339928D01*
X203263600Y-127339928D01*
X203139118Y-127352188D01*
X203019420Y-127388498D01*
X202909106Y-127447463D01*
X202812415Y-127526815D01*
X202733063Y-127623506D01*
X202674098Y-127733820D01*
X202637788Y-127853518D01*
X202625528Y-127978000D01*
X198390250Y-127978000D01*
X198269119Y-127814586D01*
X198060731Y-127625615D01*
X197819481Y-127480930D01*
X197554640Y-127386091D01*
X197332600Y-127507376D01*
X197078600Y-127507376D01*
X196856560Y-127386091D01*
X196798000Y-127407061D01*
X196798000Y-127168072D01*
X198031000Y-127168072D01*
X198155482Y-127155812D01*
X198275180Y-127119502D01*
X198385494Y-127060537D01*
X198482185Y-126981185D01*
X198561537Y-126884494D01*
X198620502Y-126774180D01*
X198656812Y-126654482D01*
X198669072Y-126530000D01*
X198669072Y-125588665D01*
X202654000Y-125588665D01*
X202654000Y-125871335D01*
X202709147Y-126148574D01*
X202817320Y-126409727D01*
X202974363Y-126644759D01*
X203174241Y-126844637D01*
X203409273Y-127001680D01*
X203670426Y-127109853D01*
X203947665Y-127165000D01*
X204230335Y-127165000D01*
X204507574Y-127109853D01*
X204768727Y-127001680D01*
X205003759Y-126844637D01*
X205203637Y-126644759D01*
X205360680Y-126409727D01*
X205468853Y-126148574D01*
X205524000Y-125871335D01*
X205524000Y-125588665D01*
X205956000Y-125588665D01*
X205956000Y-125871335D01*
X206011147Y-126148574D01*
X206119320Y-126409727D01*
X206276363Y-126644759D01*
X206476241Y-126844637D01*
X206711273Y-127001680D01*
X206972426Y-127109853D01*
X207249665Y-127165000D01*
X207532335Y-127165000D01*
X207809574Y-127109853D01*
X208070727Y-127001680D01*
X208305759Y-126844637D01*
X208505637Y-126644759D01*
X208662680Y-126409727D01*
X208770853Y-126148574D01*
X208826000Y-125871335D01*
X208826000Y-125588665D01*
X208770853Y-125311426D01*
X208662680Y-125050273D01*
X208505637Y-124815241D01*
X208305759Y-124615363D01*
X208070727Y-124458320D01*
X207809574Y-124350147D01*
X207532335Y-124295000D01*
X207249665Y-124295000D01*
X206972426Y-124350147D01*
X206711273Y-124458320D01*
X206476241Y-124615363D01*
X206276363Y-124815241D01*
X206119320Y-125050273D01*
X206011147Y-125311426D01*
X205956000Y-125588665D01*
X205524000Y-125588665D01*
X205468853Y-125311426D01*
X205360680Y-125050273D01*
X205203637Y-124815241D01*
X205003759Y-124615363D01*
X204768727Y-124458320D01*
X204507574Y-124350147D01*
X204230335Y-124295000D01*
X203947665Y-124295000D01*
X203670426Y-124350147D01*
X203409273Y-124458320D01*
X203174241Y-124615363D01*
X202974363Y-124815241D01*
X202817320Y-125050273D01*
X202709147Y-125311426D01*
X202654000Y-125588665D01*
X198669072Y-125588665D01*
X198669072Y-124930000D01*
X198656812Y-124805518D01*
X198620502Y-124685820D01*
X198561537Y-124575506D01*
X198482185Y-124478815D01*
X198385494Y-124399463D01*
X198275180Y-124340498D01*
X198170800Y-124308835D01*
X198170800Y-124012009D01*
X198365595Y-124092696D01*
X198623514Y-124144000D01*
X198886486Y-124144000D01*
X199144405Y-124092696D01*
X199387359Y-123992061D01*
X199606013Y-123845962D01*
X199791962Y-123660013D01*
X199938061Y-123441359D01*
X200038696Y-123198405D01*
X200090000Y-122940486D01*
X200090000Y-122677514D01*
X200038696Y-122419595D01*
X199938061Y-122176641D01*
X199791962Y-121957987D01*
X199606013Y-121772038D01*
X199387359Y-121625939D01*
X199144405Y-121525304D01*
X198894027Y-121475500D01*
X199144405Y-121425696D01*
X199387359Y-121325061D01*
X199606013Y-121178962D01*
X199791962Y-120993013D01*
X199938061Y-120774359D01*
X200038696Y-120531405D01*
X200090000Y-120273486D01*
X200090000Y-120010514D01*
X200038696Y-119752595D01*
X199938061Y-119509641D01*
X199791962Y-119290987D01*
X199606013Y-119105038D01*
X199387359Y-118958939D01*
X199144405Y-118858304D01*
X198886486Y-118807000D01*
X198882002Y-118807000D01*
X198882002Y-118645202D01*
X199088330Y-118767722D01*
X199334123Y-118677853D01*
X199557660Y-118541759D01*
X199750351Y-118364670D01*
X199904792Y-118153392D01*
X200015047Y-117916044D01*
X200047716Y-117808329D01*
X199924374Y-117602000D01*
X198882000Y-117602000D01*
X198882000Y-117622000D01*
X198628000Y-117622000D01*
X198628000Y-117602000D01*
X197585626Y-117602000D01*
X197462284Y-117808329D01*
X197494953Y-117916044D01*
X197605208Y-118153392D01*
X197759649Y-118364670D01*
X197952340Y-118541759D01*
X198175877Y-118677853D01*
X198421670Y-118767722D01*
X198627998Y-118645202D01*
X198627998Y-118807000D01*
X198623514Y-118807000D01*
X198365595Y-118858304D01*
X198122641Y-118958939D01*
X197903987Y-119105038D01*
X197718038Y-119290987D01*
X197571939Y-119509641D01*
X197471304Y-119752595D01*
X197420000Y-120010514D01*
X197420000Y-120273486D01*
X197471304Y-120531405D01*
X197571939Y-120774359D01*
X197718038Y-120993013D01*
X197903987Y-121178962D01*
X198122641Y-121325061D01*
X198365595Y-121425696D01*
X198615973Y-121475500D01*
X198365595Y-121525304D01*
X198122641Y-121625939D01*
X197903987Y-121772038D01*
X197806825Y-121869200D01*
X197658156Y-121869200D01*
X197611999Y-121864654D01*
X197565842Y-121869200D01*
X197565833Y-121869200D01*
X197427767Y-121882798D01*
X197250614Y-121936537D01*
X197087349Y-122023804D01*
X196944246Y-122141246D01*
X196914813Y-122177110D01*
X196798000Y-122293923D01*
X196798000Y-115919536D01*
X196809939Y-115948359D01*
X196956038Y-116167013D01*
X197141987Y-116352962D01*
X197360641Y-116499061D01*
X197603595Y-116599696D01*
X197730670Y-116624973D01*
X197605208Y-116796608D01*
X197494953Y-117033956D01*
X197462284Y-117141671D01*
X197585626Y-117348000D01*
X198628000Y-117348000D01*
X198628000Y-117328000D01*
X198882000Y-117328000D01*
X198882000Y-117348000D01*
X199924374Y-117348000D01*
X199927055Y-117343514D01*
X202500000Y-117343514D01*
X202500000Y-117606486D01*
X202551304Y-117864405D01*
X202651939Y-118107359D01*
X202798038Y-118326013D01*
X202983987Y-118511962D01*
X203202641Y-118658061D01*
X203445595Y-118758696D01*
X203695973Y-118808500D01*
X203445595Y-118858304D01*
X203202641Y-118958939D01*
X202983987Y-119105038D01*
X202798038Y-119290987D01*
X202651939Y-119509641D01*
X202551304Y-119752595D01*
X202500000Y-120010514D01*
X202500000Y-120273486D01*
X202551304Y-120531405D01*
X202651939Y-120774359D01*
X202798038Y-120993013D01*
X202983987Y-121178962D01*
X203202641Y-121325061D01*
X203445595Y-121425696D01*
X203695973Y-121475500D01*
X203445595Y-121525304D01*
X203202641Y-121625939D01*
X202983987Y-121772038D01*
X202798038Y-121957987D01*
X202651939Y-122176641D01*
X202551304Y-122419595D01*
X202500000Y-122677514D01*
X202500000Y-122940486D01*
X202551304Y-123198405D01*
X202651939Y-123441359D01*
X202798038Y-123660013D01*
X202983987Y-123845962D01*
X203202641Y-123992061D01*
X203445595Y-124092696D01*
X203703514Y-124144000D01*
X203966486Y-124144000D01*
X204224405Y-124092696D01*
X204467359Y-123992061D01*
X204686013Y-123845962D01*
X204871962Y-123660013D01*
X205018061Y-123441359D01*
X205118696Y-123198405D01*
X205170000Y-122940486D01*
X205170000Y-122677514D01*
X205118696Y-122419595D01*
X205018061Y-122176641D01*
X204871962Y-121957987D01*
X204686013Y-121772038D01*
X204467359Y-121625939D01*
X204224405Y-121525304D01*
X203974027Y-121475500D01*
X204224405Y-121425696D01*
X204467359Y-121325061D01*
X204686013Y-121178962D01*
X204871962Y-120993013D01*
X205018061Y-120774359D01*
X205118696Y-120531405D01*
X205170000Y-120273486D01*
X205170000Y-120010514D01*
X205118696Y-119752595D01*
X205018061Y-119509641D01*
X204871962Y-119290987D01*
X204686013Y-119105038D01*
X204467359Y-118958939D01*
X204224405Y-118858304D01*
X203974027Y-118808500D01*
X204224405Y-118758696D01*
X204467359Y-118658061D01*
X204686013Y-118511962D01*
X204871962Y-118326013D01*
X205018061Y-118107359D01*
X205118696Y-117864405D01*
X205170000Y-117606486D01*
X205170000Y-117343514D01*
X206310000Y-117343514D01*
X206310000Y-117606486D01*
X206361304Y-117864405D01*
X206461939Y-118107359D01*
X206608038Y-118326013D01*
X206793987Y-118511962D01*
X207012641Y-118658061D01*
X207255595Y-118758696D01*
X207513514Y-118810000D01*
X207574632Y-118810000D01*
X207331795Y-118858304D01*
X207088841Y-118958939D01*
X206870187Y-119105038D01*
X206684238Y-119290987D01*
X206538139Y-119509641D01*
X206437504Y-119752595D01*
X206386200Y-120010514D01*
X206386200Y-120273486D01*
X206437504Y-120531405D01*
X206538139Y-120774359D01*
X206684238Y-120993013D01*
X206870187Y-121178962D01*
X207088841Y-121325061D01*
X207331795Y-121425696D01*
X207589714Y-121477000D01*
X207625432Y-121477000D01*
X207382595Y-121525304D01*
X207139641Y-121625939D01*
X206920987Y-121772038D01*
X206735038Y-121957987D01*
X206588939Y-122176641D01*
X206488304Y-122419595D01*
X206437000Y-122677514D01*
X206437000Y-122940486D01*
X206488304Y-123198405D01*
X206588939Y-123441359D01*
X206735038Y-123660013D01*
X206920987Y-123845962D01*
X207139641Y-123992061D01*
X207382595Y-124092696D01*
X207640514Y-124144000D01*
X207903486Y-124144000D01*
X208161405Y-124092696D01*
X208404359Y-123992061D01*
X208623013Y-123845962D01*
X208808962Y-123660013D01*
X208955061Y-123441359D01*
X209055696Y-123198405D01*
X209107000Y-122940486D01*
X209107000Y-122677514D01*
X209055696Y-122419595D01*
X208955061Y-122176641D01*
X208808962Y-121957987D01*
X208623013Y-121772038D01*
X208404359Y-121625939D01*
X208161405Y-121525304D01*
X207903486Y-121474000D01*
X207867768Y-121474000D01*
X208110605Y-121425696D01*
X208353559Y-121325061D01*
X208572213Y-121178962D01*
X208758162Y-120993013D01*
X208904261Y-120774359D01*
X209004896Y-120531405D01*
X209056200Y-120273486D01*
X209056200Y-120010514D01*
X209004896Y-119752595D01*
X208904261Y-119509641D01*
X208758162Y-119290987D01*
X208572213Y-119105038D01*
X208353559Y-118958939D01*
X208110605Y-118858304D01*
X207852686Y-118807000D01*
X207791568Y-118807000D01*
X208034405Y-118758696D01*
X208277359Y-118658061D01*
X208496013Y-118511962D01*
X208681962Y-118326013D01*
X208828061Y-118107359D01*
X208928696Y-117864405D01*
X208980000Y-117606486D01*
X208980000Y-117343514D01*
X208928696Y-117085595D01*
X208828061Y-116842641D01*
X208681962Y-116623987D01*
X208496013Y-116438038D01*
X208277359Y-116291939D01*
X208034405Y-116191304D01*
X207776486Y-116140000D01*
X207513514Y-116140000D01*
X207255595Y-116191304D01*
X207012641Y-116291939D01*
X206793987Y-116438038D01*
X206608038Y-116623987D01*
X206461939Y-116842641D01*
X206361304Y-117085595D01*
X206310000Y-117343514D01*
X205170000Y-117343514D01*
X205118696Y-117085595D01*
X205018061Y-116842641D01*
X204871962Y-116623987D01*
X204686013Y-116438038D01*
X204467359Y-116291939D01*
X204224405Y-116191304D01*
X203966486Y-116140000D01*
X203703514Y-116140000D01*
X203445595Y-116191304D01*
X203202641Y-116291939D01*
X202983987Y-116438038D01*
X202798038Y-116623987D01*
X202651939Y-116842641D01*
X202551304Y-117085595D01*
X202500000Y-117343514D01*
X199927055Y-117343514D01*
X200047716Y-117141671D01*
X200015047Y-117033956D01*
X199904792Y-116796608D01*
X199750351Y-116585330D01*
X199612891Y-116459000D01*
X199807567Y-116459000D01*
X200003856Y-116419956D01*
X200188756Y-116343368D01*
X200355162Y-116232179D01*
X200496679Y-116090662D01*
X200607868Y-115924256D01*
X200684456Y-115739356D01*
X200723500Y-115543067D01*
X200723500Y-115367501D01*
X200728899Y-115371932D01*
X200978192Y-115505182D01*
X201248691Y-115587236D01*
X201459508Y-115608000D01*
X202400492Y-115608000D01*
X202611309Y-115587236D01*
X202881808Y-115505182D01*
X203131101Y-115371932D01*
X203349608Y-115192608D01*
X203528932Y-114974101D01*
X203662182Y-114724808D01*
X203744236Y-114454309D01*
X203771943Y-114173000D01*
X203744236Y-113891691D01*
X203662182Y-113621192D01*
X203528932Y-113371899D01*
X203349608Y-113153392D01*
X203131101Y-112974068D01*
X202998142Y-112903000D01*
X203131101Y-112831932D01*
X203349608Y-112652608D01*
X203528932Y-112434101D01*
X203662182Y-112184808D01*
X203744236Y-111914309D01*
X203771943Y-111633000D01*
X203744236Y-111351691D01*
X203662182Y-111081192D01*
X203528932Y-110831899D01*
X203349608Y-110613392D01*
X203131101Y-110434068D01*
X202998142Y-110363000D01*
X203131101Y-110291932D01*
X203349608Y-110112608D01*
X203528932Y-109894101D01*
X203662182Y-109644808D01*
X203744236Y-109374309D01*
X203771943Y-109093000D01*
X203744236Y-108811691D01*
X203662182Y-108541192D01*
X203528932Y-108291899D01*
X203349608Y-108073392D01*
X203131101Y-107894068D01*
X202998142Y-107823000D01*
X203131101Y-107751932D01*
X203349608Y-107572608D01*
X203528932Y-107354101D01*
X203662182Y-107104808D01*
X203744236Y-106834309D01*
X203771943Y-106553000D01*
X203744236Y-106271691D01*
X203662182Y-106001192D01*
X203528932Y-105751899D01*
X203349608Y-105533392D01*
X203131101Y-105354068D01*
X203003259Y-105285735D01*
X203232839Y-105135601D01*
X203434500Y-104937895D01*
X203593715Y-104704646D01*
X203704367Y-104444818D01*
X203721904Y-104362039D01*
X203599915Y-104140000D01*
X202057000Y-104140000D01*
X202057000Y-104160000D01*
X201803000Y-104160000D01*
X201803000Y-104140000D01*
X200260085Y-104140000D01*
X200138096Y-104362039D01*
X200155633Y-104444818D01*
X200266285Y-104704646D01*
X200286723Y-104734588D01*
X200281636Y-104731189D01*
X200246295Y-104702107D01*
X200204868Y-104679894D01*
X200165773Y-104653771D01*
X200123479Y-104636252D01*
X200083145Y-104614625D01*
X200038179Y-104600920D01*
X199994740Y-104582927D01*
X199949842Y-104573996D01*
X199906063Y-104560653D01*
X199859288Y-104555984D01*
X199813173Y-104546811D01*
X199767395Y-104546811D01*
X199721854Y-104542265D01*
X199675064Y-104546811D01*
X199628049Y-104546811D01*
X199583157Y-104555741D01*
X199537598Y-104560167D01*
X199492590Y-104573756D01*
X199446482Y-104582927D01*
X199443843Y-104584020D01*
X199420932Y-104468842D01*
X199308990Y-104198589D01*
X199146475Y-103955368D01*
X198939632Y-103748525D01*
X198765240Y-103632000D01*
X198939632Y-103515475D01*
X199146475Y-103308632D01*
X199308990Y-103065411D01*
X199420932Y-102795158D01*
X199478000Y-102508260D01*
X199478000Y-102311200D01*
X200361514Y-102311200D01*
X200510392Y-102492608D01*
X200728899Y-102671932D01*
X200856741Y-102740265D01*
X200627161Y-102890399D01*
X200425500Y-103088105D01*
X200266285Y-103321354D01*
X200155633Y-103581182D01*
X200138096Y-103663961D01*
X200260085Y-103886000D01*
X201803000Y-103886000D01*
X201803000Y-103866000D01*
X202057000Y-103866000D01*
X202057000Y-103886000D01*
X203599915Y-103886000D01*
X203721904Y-103663961D01*
X203704367Y-103581182D01*
X203593715Y-103321354D01*
X203434500Y-103088105D01*
X203232839Y-102890399D01*
X203003259Y-102740265D01*
X203131101Y-102671932D01*
X203349608Y-102492608D01*
X203498486Y-102311200D01*
X204182342Y-102311200D01*
X204255432Y-102487656D01*
X204366621Y-102654062D01*
X204508138Y-102795579D01*
X204674544Y-102906768D01*
X204859444Y-102983356D01*
X205055733Y-103022400D01*
X205255867Y-103022400D01*
X205452156Y-102983356D01*
X205637056Y-102906768D01*
X205803462Y-102795579D01*
X205944979Y-102654062D01*
X206056168Y-102487656D01*
X206132756Y-102302756D01*
X206171800Y-102106467D01*
X206171800Y-101906333D01*
X206132756Y-101710044D01*
X206056168Y-101525144D01*
X205944979Y-101358738D01*
X205803462Y-101217221D01*
X205637056Y-101106032D01*
X205452156Y-101029444D01*
X205342406Y-101007614D01*
X205244211Y-100909418D01*
X205217964Y-100877436D01*
X205090332Y-100772691D01*
X204944717Y-100694858D01*
X204786716Y-100646929D01*
X204663570Y-100634800D01*
X204663563Y-100634800D01*
X204622400Y-100630746D01*
X204581237Y-100634800D01*
X203498486Y-100634800D01*
X203349608Y-100453392D01*
X203236518Y-100360581D01*
X203254482Y-100358812D01*
X203374180Y-100322502D01*
X203484494Y-100263537D01*
X203581185Y-100184185D01*
X203660537Y-100087494D01*
X203719502Y-99977180D01*
X203755812Y-99857482D01*
X203768072Y-99733000D01*
X203768072Y-98133000D01*
X203755812Y-98008518D01*
X203719502Y-97888820D01*
X203660537Y-97778506D01*
X203581185Y-97681815D01*
X203484494Y-97602463D01*
X203374180Y-97543498D01*
X203254482Y-97507188D01*
X203130000Y-97494928D01*
X200730000Y-97494928D01*
X200605518Y-97507188D01*
X200485820Y-97543498D01*
X200375506Y-97602463D01*
X200278815Y-97681815D01*
X200199463Y-97778506D01*
X200140498Y-97888820D01*
X200104188Y-98008518D01*
X200095690Y-98094800D01*
X199230420Y-98094800D01*
X199264641Y-98048920D01*
X199389825Y-97786099D01*
X199434476Y-97638890D01*
X199313155Y-97409000D01*
X198120000Y-97409000D01*
X198120000Y-97429000D01*
X197866000Y-97429000D01*
X197866000Y-97409000D01*
X197846000Y-97409000D01*
X197846000Y-97155000D01*
X197866000Y-97155000D01*
X197866000Y-94869000D01*
X198120000Y-94869000D01*
X198120000Y-97155000D01*
X199313155Y-97155000D01*
X199434476Y-96925110D01*
X199427801Y-96903102D01*
X200648903Y-96903102D01*
X200720486Y-97147071D01*
X200975996Y-97267971D01*
X201250184Y-97336700D01*
X201532512Y-97350617D01*
X201812130Y-97309187D01*
X202078292Y-97214003D01*
X202203514Y-97147071D01*
X202275097Y-96903102D01*
X201462000Y-96090005D01*
X200648903Y-96903102D01*
X199427801Y-96903102D01*
X199389825Y-96777901D01*
X199264641Y-96515080D01*
X199090588Y-96281731D01*
X198874355Y-96086822D01*
X198748745Y-96012000D01*
X198800935Y-95980912D01*
X200021783Y-95980912D01*
X200063213Y-96260530D01*
X200158397Y-96526692D01*
X200225329Y-96651914D01*
X200469298Y-96723497D01*
X201282395Y-95910400D01*
X200469298Y-95097303D01*
X200225329Y-95168886D01*
X200104429Y-95424396D01*
X200035700Y-95698584D01*
X200021783Y-95980912D01*
X198800935Y-95980912D01*
X198874355Y-95937178D01*
X199090588Y-95742269D01*
X199264641Y-95508920D01*
X199389825Y-95246099D01*
X199434476Y-95098890D01*
X199338855Y-94917698D01*
X200648903Y-94917698D01*
X201462000Y-95730795D01*
X202275097Y-94917698D01*
X202257278Y-94856968D01*
X202388663Y-94769179D01*
X202390442Y-94767400D01*
X203089689Y-94767400D01*
X203047241Y-94795763D01*
X202847363Y-94995641D01*
X202713308Y-95196269D01*
X202698671Y-95168886D01*
X202454702Y-95097303D01*
X201641605Y-95910400D01*
X202454702Y-96723497D01*
X202698671Y-96651914D01*
X202712324Y-96623059D01*
X202847363Y-96825159D01*
X203047241Y-97025037D01*
X203282273Y-97182080D01*
X203543426Y-97290253D01*
X203820665Y-97345400D01*
X204103335Y-97345400D01*
X204380574Y-97290253D01*
X204641727Y-97182080D01*
X204876759Y-97025037D01*
X205076637Y-96825159D01*
X205233680Y-96590127D01*
X205341853Y-96328974D01*
X205397000Y-96051735D01*
X205397000Y-95769065D01*
X205341853Y-95491826D01*
X205233680Y-95230673D01*
X205076637Y-94995641D01*
X204889419Y-94808423D01*
X204917780Y-94780062D01*
X205028969Y-94613656D01*
X205105557Y-94428756D01*
X205144601Y-94232467D01*
X205144601Y-94032333D01*
X205107799Y-93847312D01*
X208770183Y-93847312D01*
X208811613Y-94126930D01*
X208906797Y-94393092D01*
X208973729Y-94518314D01*
X209217698Y-94589897D01*
X210030795Y-93776800D01*
X210390005Y-93776800D01*
X211203102Y-94589897D01*
X211447071Y-94518314D01*
X211567971Y-94262804D01*
X211636700Y-93988616D01*
X211650617Y-93706288D01*
X211609187Y-93426670D01*
X211514003Y-93160508D01*
X211447071Y-93035286D01*
X211203102Y-92963703D01*
X210390005Y-93776800D01*
X210030795Y-93776800D01*
X209217698Y-92963703D01*
X208973729Y-93035286D01*
X208852829Y-93290796D01*
X208784100Y-93564984D01*
X208770183Y-93847312D01*
X205107799Y-93847312D01*
X205105557Y-93836044D01*
X205028969Y-93651144D01*
X204917780Y-93484738D01*
X204776263Y-93343221D01*
X204609857Y-93232032D01*
X204424957Y-93155444D01*
X204228668Y-93116400D01*
X204028534Y-93116400D01*
X203832245Y-93155444D01*
X203742542Y-93192600D01*
X202390442Y-93192600D01*
X202388663Y-93190821D01*
X202222257Y-93079632D01*
X202037357Y-93003044D01*
X201841068Y-92964000D01*
X201640934Y-92964000D01*
X201444645Y-93003044D01*
X201259745Y-93079632D01*
X201093339Y-93190821D01*
X200951822Y-93332338D01*
X200840633Y-93498744D01*
X200764045Y-93683644D01*
X200725001Y-93879933D01*
X200725001Y-94080067D01*
X200764045Y-94276356D01*
X200840633Y-94461256D01*
X200920103Y-94580192D01*
X200845708Y-94606797D01*
X200720486Y-94673729D01*
X200648903Y-94917698D01*
X199338855Y-94917698D01*
X199313155Y-94869000D01*
X198120000Y-94869000D01*
X197866000Y-94869000D01*
X197846000Y-94869000D01*
X197846000Y-94615000D01*
X197866000Y-94615000D01*
X197866000Y-92329000D01*
X198120000Y-92329000D01*
X198120000Y-94615000D01*
X199313155Y-94615000D01*
X199434476Y-94385110D01*
X199389825Y-94237901D01*
X199264641Y-93975080D01*
X199090588Y-93741731D01*
X198874355Y-93546822D01*
X198748745Y-93472000D01*
X198874355Y-93397178D01*
X199090588Y-93202269D01*
X199264641Y-92968920D01*
X199389825Y-92706099D01*
X199434476Y-92558890D01*
X199313155Y-92329000D01*
X198120000Y-92329000D01*
X197866000Y-92329000D01*
X197846000Y-92329000D01*
X197846000Y-92075000D01*
X197866000Y-92075000D01*
X197866000Y-92055000D01*
X198120000Y-92055000D01*
X198120000Y-92075000D01*
X199313155Y-92075000D01*
X199434476Y-91845110D01*
X199401750Y-91737217D01*
X199544154Y-91832368D01*
X199729054Y-91908956D01*
X199925343Y-91948000D01*
X200125477Y-91948000D01*
X200321766Y-91908956D01*
X200506666Y-91832368D01*
X200673072Y-91721179D01*
X200814589Y-91579662D01*
X200925778Y-91413256D01*
X201002366Y-91228356D01*
X201041410Y-91032067D01*
X201041410Y-90831933D01*
X201002366Y-90635644D01*
X200965210Y-90545941D01*
X200965210Y-90457872D01*
X203505000Y-90457872D01*
X203505000Y-90898128D01*
X203590890Y-91329925D01*
X203759369Y-91736669D01*
X204003962Y-92102729D01*
X204315271Y-92414038D01*
X204681331Y-92658631D01*
X205088075Y-92827110D01*
X205519872Y-92913000D01*
X205960128Y-92913000D01*
X206391925Y-92827110D01*
X206495765Y-92784098D01*
X209397303Y-92784098D01*
X210210400Y-93597195D01*
X211023497Y-92784098D01*
X210957419Y-92558890D01*
X212045524Y-92558890D01*
X212090175Y-92706099D01*
X212215359Y-92968920D01*
X212389412Y-93202269D01*
X212605645Y-93397178D01*
X212731255Y-93472000D01*
X212605645Y-93546822D01*
X212389412Y-93741731D01*
X212215359Y-93975080D01*
X212090175Y-94237901D01*
X212045524Y-94385110D01*
X212166845Y-94615000D01*
X213360000Y-94615000D01*
X213360000Y-92329000D01*
X212166845Y-92329000D01*
X212045524Y-92558890D01*
X210957419Y-92558890D01*
X210951914Y-92540129D01*
X210696404Y-92419229D01*
X210422216Y-92350500D01*
X210139888Y-92336583D01*
X209860270Y-92378013D01*
X209594108Y-92473197D01*
X209468886Y-92540129D01*
X209397303Y-92784098D01*
X206495765Y-92784098D01*
X206798669Y-92658631D01*
X207164729Y-92414038D01*
X207476038Y-92102729D01*
X207720631Y-91736669D01*
X207889110Y-91329925D01*
X207975000Y-90898128D01*
X207975000Y-90457872D01*
X207889110Y-90026075D01*
X207886134Y-90018890D01*
X212045524Y-90018890D01*
X212090175Y-90166099D01*
X212215359Y-90428920D01*
X212389412Y-90662269D01*
X212605645Y-90857178D01*
X212731255Y-90932000D01*
X212605645Y-91006822D01*
X212389412Y-91201731D01*
X212215359Y-91435080D01*
X212090175Y-91697901D01*
X212045524Y-91845110D01*
X212166845Y-92075000D01*
X213360000Y-92075000D01*
X213360000Y-89789000D01*
X212166845Y-89789000D01*
X212045524Y-90018890D01*
X207886134Y-90018890D01*
X207720631Y-89619331D01*
X207476038Y-89253271D01*
X207164729Y-88941962D01*
X206798669Y-88697369D01*
X206391925Y-88528890D01*
X205960128Y-88443000D01*
X205519872Y-88443000D01*
X205088075Y-88528890D01*
X204681331Y-88697369D01*
X204315271Y-88941962D01*
X204003962Y-89253271D01*
X203759369Y-89619331D01*
X203590890Y-90026075D01*
X203505000Y-90457872D01*
X200965210Y-90457872D01*
X200965210Y-89520784D01*
X201032595Y-89548696D01*
X201290514Y-89600000D01*
X201553486Y-89600000D01*
X201811405Y-89548696D01*
X202054359Y-89448061D01*
X202273013Y-89301962D01*
X202458962Y-89116013D01*
X202605061Y-88897359D01*
X202705696Y-88654405D01*
X202757000Y-88396486D01*
X202757000Y-88133514D01*
X202705696Y-87875595D01*
X202605061Y-87632641D01*
X202458962Y-87413987D01*
X202273013Y-87228038D01*
X202054359Y-87081939D01*
X201811405Y-86981304D01*
X201553486Y-86930000D01*
X201290514Y-86930000D01*
X201032595Y-86981304D01*
X200789641Y-87081939D01*
X200570987Y-87228038D01*
X200385038Y-87413987D01*
X200238939Y-87632641D01*
X200138304Y-87875595D01*
X200127913Y-87927835D01*
X199481072Y-87280995D01*
X199481072Y-86272000D01*
X199468812Y-86147518D01*
X199432502Y-86027820D01*
X199373537Y-85917506D01*
X199294185Y-85820815D01*
X199197494Y-85741463D01*
X199087180Y-85682498D01*
X198967482Y-85646188D01*
X198843000Y-85633928D01*
X197143000Y-85633928D01*
X197018518Y-85646188D01*
X196898820Y-85682498D01*
X196798000Y-85736388D01*
X196798000Y-83053514D01*
X200087000Y-83053514D01*
X200087000Y-83316486D01*
X200138304Y-83574405D01*
X200238939Y-83817359D01*
X200385038Y-84036013D01*
X200570987Y-84221962D01*
X200789641Y-84368061D01*
X201032595Y-84468696D01*
X201290514Y-84520000D01*
X201553486Y-84520000D01*
X201811405Y-84468696D01*
X202054359Y-84368061D01*
X202273013Y-84221962D01*
X202408291Y-84086684D01*
X204154006Y-85832400D01*
X204151000Y-85847514D01*
X204151000Y-86110486D01*
X204202304Y-86368405D01*
X204302939Y-86611359D01*
X204449038Y-86830013D01*
X204634987Y-87015962D01*
X204853641Y-87162061D01*
X205096595Y-87262696D01*
X205354514Y-87314000D01*
X205617486Y-87314000D01*
X205875405Y-87262696D01*
X206118359Y-87162061D01*
X206337013Y-87015962D01*
X206522962Y-86830013D01*
X206669061Y-86611359D01*
X206769696Y-86368405D01*
X206821000Y-86110486D01*
X206821000Y-85847514D01*
X206769696Y-85589595D01*
X206669061Y-85346641D01*
X206522962Y-85127987D01*
X206337013Y-84942038D01*
X206130797Y-84804250D01*
X206337013Y-84666462D01*
X206522962Y-84480513D01*
X206669061Y-84261859D01*
X206769696Y-84018905D01*
X206821000Y-83760986D01*
X206821000Y-83498014D01*
X206769696Y-83240095D01*
X206669061Y-82997141D01*
X206522962Y-82778487D01*
X206337013Y-82592538D01*
X206118359Y-82446439D01*
X205875405Y-82345804D01*
X205731787Y-82317236D01*
X204647074Y-81232524D01*
X204662000Y-81157486D01*
X204662000Y-80894514D01*
X204610696Y-80636595D01*
X204510061Y-80393641D01*
X204363962Y-80174987D01*
X204178013Y-79989038D01*
X203959359Y-79842939D01*
X203716405Y-79742304D01*
X203458486Y-79691000D01*
X203195514Y-79691000D01*
X202937595Y-79742304D01*
X202694641Y-79842939D01*
X202475987Y-79989038D01*
X202290038Y-80174987D01*
X202143939Y-80393641D01*
X202043304Y-80636595D01*
X201992000Y-80894514D01*
X201992000Y-81157486D01*
X202043304Y-81415405D01*
X202143939Y-81658359D01*
X202290038Y-81877013D01*
X202475987Y-82062962D01*
X202694641Y-82209061D01*
X202937595Y-82309696D01*
X203195514Y-82361000D01*
X203458486Y-82361000D01*
X203533524Y-82346074D01*
X204268275Y-83080826D01*
X204202304Y-83240095D01*
X204157538Y-83465145D01*
X203288411Y-82596018D01*
X203262164Y-82564036D01*
X203134532Y-82459291D01*
X202988917Y-82381458D01*
X202830916Y-82333529D01*
X202707770Y-82321400D01*
X202707763Y-82321400D01*
X202666600Y-82317346D01*
X202625437Y-82321400D01*
X202446375Y-82321400D01*
X202273013Y-82148038D01*
X202054359Y-82001939D01*
X201811405Y-81901304D01*
X201553486Y-81850000D01*
X201290514Y-81850000D01*
X201032595Y-81901304D01*
X200789641Y-82001939D01*
X200570987Y-82148038D01*
X200385038Y-82333987D01*
X200238939Y-82552641D01*
X200138304Y-82795595D01*
X200087000Y-83053514D01*
X196798000Y-83053514D01*
X196798000Y-80894514D01*
X196912000Y-80894514D01*
X196912000Y-81157486D01*
X196963304Y-81415405D01*
X197063939Y-81658359D01*
X197210038Y-81877013D01*
X197395987Y-82062962D01*
X197614641Y-82209061D01*
X197857595Y-82309696D01*
X198115514Y-82361000D01*
X198378486Y-82361000D01*
X198636405Y-82309696D01*
X198879359Y-82209061D01*
X199098013Y-82062962D01*
X199283962Y-81877013D01*
X199430061Y-81658359D01*
X199530696Y-81415405D01*
X199582000Y-81157486D01*
X199582000Y-80894514D01*
X199530696Y-80636595D01*
X199430061Y-80393641D01*
X199283962Y-80174987D01*
X199098013Y-79989038D01*
X198879359Y-79842939D01*
X198636405Y-79742304D01*
X198378486Y-79691000D01*
X198115514Y-79691000D01*
X197857595Y-79742304D01*
X197614641Y-79842939D01*
X197395987Y-79989038D01*
X197210038Y-80174987D01*
X197063939Y-80393641D01*
X196963304Y-80636595D01*
X196912000Y-80894514D01*
X196798000Y-80894514D01*
X196798000Y-78536244D01*
X196848320Y-78657727D01*
X197005363Y-78892759D01*
X197205241Y-79092637D01*
X197440273Y-79249680D01*
X197701426Y-79357853D01*
X197978665Y-79413000D01*
X198261335Y-79413000D01*
X198538574Y-79357853D01*
X198799727Y-79249680D01*
X199034759Y-79092637D01*
X199234637Y-78892759D01*
X199391680Y-78657727D01*
X199499853Y-78396574D01*
X199555000Y-78119335D01*
X199555000Y-77836665D01*
X199541991Y-77771265D01*
X200622000Y-77771265D01*
X200622000Y-78053935D01*
X200677147Y-78331174D01*
X200785320Y-78592327D01*
X200942363Y-78827359D01*
X201142241Y-79027237D01*
X201377273Y-79184280D01*
X201638426Y-79292453D01*
X201915665Y-79347600D01*
X202198335Y-79347600D01*
X202475574Y-79292453D01*
X202736727Y-79184280D01*
X202971759Y-79027237D01*
X203171637Y-78827359D01*
X203231344Y-78738000D01*
X204849928Y-78738000D01*
X204862188Y-78862482D01*
X204898498Y-78982180D01*
X204957463Y-79092494D01*
X205036815Y-79189185D01*
X205133506Y-79268537D01*
X205243820Y-79327502D01*
X205363518Y-79363812D01*
X205488000Y-79376072D01*
X205962250Y-79373000D01*
X206121000Y-79214250D01*
X206121000Y-78105000D01*
X206375000Y-78105000D01*
X206375000Y-79214250D01*
X206533750Y-79373000D01*
X207008000Y-79376072D01*
X207132482Y-79363812D01*
X207252180Y-79327502D01*
X207362494Y-79268537D01*
X207459185Y-79189185D01*
X207538537Y-79092494D01*
X207597502Y-78982180D01*
X207633812Y-78862482D01*
X207646072Y-78738000D01*
X207643000Y-78263750D01*
X207484250Y-78105000D01*
X206375000Y-78105000D01*
X206121000Y-78105000D01*
X205011750Y-78105000D01*
X204853000Y-78263750D01*
X204849928Y-78738000D01*
X203231344Y-78738000D01*
X203328680Y-78592327D01*
X203436853Y-78331174D01*
X203492000Y-78053935D01*
X203492000Y-77771265D01*
X203436853Y-77494026D01*
X203328680Y-77232873D01*
X203171637Y-76997841D01*
X202971759Y-76797963D01*
X202771131Y-76663908D01*
X202798514Y-76649271D01*
X202870097Y-76405302D01*
X202057000Y-75592205D01*
X201243903Y-76405302D01*
X201315486Y-76649271D01*
X201344341Y-76662924D01*
X201142241Y-76797963D01*
X200942363Y-76997841D01*
X200785320Y-77232873D01*
X200677147Y-77494026D01*
X200622000Y-77771265D01*
X199541991Y-77771265D01*
X199499853Y-77559426D01*
X199391680Y-77298273D01*
X199234637Y-77063241D01*
X199034759Y-76863363D01*
X198834131Y-76729308D01*
X198861514Y-76714671D01*
X198933097Y-76470702D01*
X198120000Y-75657605D01*
X197306903Y-76470702D01*
X197378486Y-76714671D01*
X197407341Y-76728324D01*
X197205241Y-76863363D01*
X197005363Y-77063241D01*
X196848320Y-77298273D01*
X196798000Y-77419756D01*
X196798000Y-76042849D01*
X196816397Y-76094292D01*
X196883329Y-76219514D01*
X197127298Y-76291097D01*
X197940395Y-75478000D01*
X198299605Y-75478000D01*
X199112702Y-76291097D01*
X199356671Y-76219514D01*
X199477571Y-75964004D01*
X199546300Y-75689816D01*
X199556489Y-75483112D01*
X200616783Y-75483112D01*
X200658213Y-75762730D01*
X200753397Y-76028892D01*
X200820329Y-76154114D01*
X201064298Y-76225697D01*
X201877395Y-75412600D01*
X202236605Y-75412600D01*
X203049702Y-76225697D01*
X203293671Y-76154114D01*
X203414571Y-75898604D01*
X203483300Y-75624416D01*
X203497217Y-75342088D01*
X203455787Y-75062470D01*
X203360603Y-74796308D01*
X203293671Y-74671086D01*
X203049702Y-74599503D01*
X202236605Y-75412600D01*
X201877395Y-75412600D01*
X201064298Y-74599503D01*
X200820329Y-74671086D01*
X200699429Y-74926596D01*
X200630700Y-75200784D01*
X200616783Y-75483112D01*
X199556489Y-75483112D01*
X199560217Y-75407488D01*
X199518787Y-75127870D01*
X199423603Y-74861708D01*
X199356671Y-74736486D01*
X199112702Y-74664903D01*
X198299605Y-75478000D01*
X197940395Y-75478000D01*
X197127298Y-74664903D01*
X196883329Y-74736486D01*
X196798000Y-74916820D01*
X196798000Y-74485298D01*
X197306903Y-74485298D01*
X198120000Y-75298395D01*
X198933097Y-74485298D01*
X198913908Y-74419898D01*
X201243903Y-74419898D01*
X202057000Y-75232995D01*
X202870097Y-74419898D01*
X202798514Y-74175929D01*
X202543004Y-74055029D01*
X202268816Y-73986300D01*
X201986488Y-73972383D01*
X201706870Y-74013813D01*
X201440708Y-74108997D01*
X201315486Y-74175929D01*
X201243903Y-74419898D01*
X198913908Y-74419898D01*
X198861514Y-74241329D01*
X198606004Y-74120429D01*
X198331816Y-74051700D01*
X198049488Y-74037783D01*
X197769870Y-74079213D01*
X197503708Y-74174397D01*
X197378486Y-74241329D01*
X197306903Y-74485298D01*
X196798000Y-74485298D01*
X196798000Y-69703740D01*
X196889000Y-69703740D01*
X196889000Y-69996260D01*
X196946068Y-70283158D01*
X197058010Y-70553411D01*
X197220525Y-70796632D01*
X197427368Y-71003475D01*
X197670589Y-71165990D01*
X197940842Y-71277932D01*
X198227740Y-71335000D01*
X198520260Y-71335000D01*
X198807158Y-71277932D01*
X199077411Y-71165990D01*
X199320632Y-71003475D01*
X199527475Y-70796632D01*
X199644000Y-70622240D01*
X199760525Y-70796632D01*
X199967368Y-71003475D01*
X200210589Y-71165990D01*
X200480842Y-71277932D01*
X200767740Y-71335000D01*
X201060260Y-71335000D01*
X201347158Y-71277932D01*
X201617411Y-71165990D01*
X201860632Y-71003475D01*
X202067475Y-70796632D01*
X202229990Y-70553411D01*
X202341932Y-70283158D01*
X202377171Y-70106000D01*
X204849928Y-70106000D01*
X204849928Y-71626000D01*
X204862188Y-71750482D01*
X204898498Y-71870180D01*
X204957463Y-71980494D01*
X205036815Y-72077185D01*
X205089699Y-72120586D01*
X205011767Y-72237220D01*
X204906609Y-72491093D01*
X204853000Y-72760604D01*
X204853000Y-73035396D01*
X204906609Y-73304907D01*
X205011767Y-73558780D01*
X205164433Y-73787261D01*
X205358739Y-73981567D01*
X205587220Y-74134233D01*
X205668740Y-74168000D01*
X205587220Y-74201767D01*
X205358739Y-74354433D01*
X205164433Y-74548739D01*
X205011767Y-74777220D01*
X204906609Y-75031093D01*
X204853000Y-75300604D01*
X204853000Y-75575396D01*
X204906609Y-75844907D01*
X205011767Y-76098780D01*
X205164433Y-76327261D01*
X205358739Y-76521567D01*
X205451467Y-76583526D01*
X205363518Y-76592188D01*
X205243820Y-76628498D01*
X205133506Y-76687463D01*
X205036815Y-76766815D01*
X204957463Y-76863506D01*
X204898498Y-76973820D01*
X204862188Y-77093518D01*
X204849928Y-77218000D01*
X204853000Y-77692250D01*
X205011750Y-77851000D01*
X206121000Y-77851000D01*
X206121000Y-77831000D01*
X206375000Y-77831000D01*
X206375000Y-77851000D01*
X207484250Y-77851000D01*
X207643000Y-77692250D01*
X207646072Y-77218000D01*
X207633812Y-77093518D01*
X207597502Y-76973820D01*
X207538537Y-76863506D01*
X207459185Y-76766815D01*
X207362494Y-76687463D01*
X207252180Y-76628498D01*
X207132482Y-76592188D01*
X207044533Y-76583526D01*
X207137261Y-76521567D01*
X207331567Y-76327261D01*
X207484233Y-76098780D01*
X207586190Y-75852635D01*
X209170077Y-77436523D01*
X209205867Y-77480133D01*
X209379911Y-77622968D01*
X209578477Y-77729103D01*
X209717466Y-77771265D01*
X209793932Y-77794461D01*
X209816600Y-77796694D01*
X209961854Y-77811000D01*
X209961860Y-77811000D01*
X210017999Y-77816529D01*
X210074138Y-77811000D01*
X210963689Y-77811000D01*
X211156273Y-77939680D01*
X211417426Y-78047853D01*
X211694665Y-78103000D01*
X211977335Y-78103000D01*
X212254574Y-78047853D01*
X212515727Y-77939680D01*
X212750759Y-77782637D01*
X212950637Y-77582759D01*
X213107680Y-77347727D01*
X213215853Y-77086574D01*
X213271000Y-76809335D01*
X213271000Y-76526665D01*
X213215853Y-76249426D01*
X213107680Y-75988273D01*
X212950637Y-75753241D01*
X212784057Y-75586661D01*
X212880180Y-75557502D01*
X212990494Y-75498537D01*
X213087185Y-75419185D01*
X213166537Y-75322494D01*
X213225502Y-75212180D01*
X213261812Y-75092482D01*
X213274072Y-74968000D01*
X213271000Y-74453750D01*
X213112250Y-74295000D01*
X211963000Y-74295000D01*
X211963000Y-74315000D01*
X211709000Y-74315000D01*
X211709000Y-74295000D01*
X210559750Y-74295000D01*
X210401000Y-74453750D01*
X210397928Y-74968000D01*
X210410188Y-75092482D01*
X210446498Y-75212180D01*
X210505463Y-75322494D01*
X210584815Y-75419185D01*
X210681506Y-75498537D01*
X210731014Y-75525000D01*
X210491446Y-75525000D01*
X208334446Y-73368000D01*
X210397928Y-73368000D01*
X210401000Y-73882250D01*
X210559750Y-74041000D01*
X211709000Y-74041000D01*
X211709000Y-72891750D01*
X211963000Y-72891750D01*
X211963000Y-74041000D01*
X213112250Y-74041000D01*
X213271000Y-73882250D01*
X213274072Y-73368000D01*
X213261812Y-73243518D01*
X213225502Y-73123820D01*
X213166537Y-73013506D01*
X213087185Y-72916815D01*
X212990494Y-72837463D01*
X212880180Y-72778498D01*
X212760482Y-72742188D01*
X212636000Y-72729928D01*
X212121750Y-72733000D01*
X211963000Y-72891750D01*
X211709000Y-72891750D01*
X211550250Y-72733000D01*
X211036000Y-72729928D01*
X210911518Y-72742188D01*
X210791820Y-72778498D01*
X210681506Y-72837463D01*
X210584815Y-72916815D01*
X210505463Y-73013506D01*
X210446498Y-73123820D01*
X210410188Y-73243518D01*
X210397928Y-73368000D01*
X208334446Y-73368000D01*
X207622130Y-72655685D01*
X207589391Y-72491093D01*
X207484233Y-72237220D01*
X207406301Y-72120586D01*
X207459185Y-72077185D01*
X207538537Y-71980494D01*
X207597502Y-71870180D01*
X207633812Y-71750482D01*
X207646072Y-71626000D01*
X207646072Y-70106000D01*
X207633812Y-69981518D01*
X207597502Y-69861820D01*
X207538537Y-69751506D01*
X207459185Y-69654815D01*
X207362494Y-69575463D01*
X207252180Y-69516498D01*
X207132482Y-69480188D01*
X207008000Y-69467928D01*
X206983069Y-69467928D01*
X207032531Y-69290137D01*
X206248000Y-68505605D01*
X205463469Y-69290137D01*
X205512931Y-69467928D01*
X205488000Y-69467928D01*
X205363518Y-69480188D01*
X205243820Y-69516498D01*
X205133506Y-69575463D01*
X205036815Y-69654815D01*
X204957463Y-69751506D01*
X204898498Y-69861820D01*
X204862188Y-69981518D01*
X204849928Y-70106000D01*
X202377171Y-70106000D01*
X202399000Y-69996260D01*
X202399000Y-69703740D01*
X202341932Y-69416842D01*
X202229990Y-69146589D01*
X202067475Y-68903368D01*
X201860632Y-68696525D01*
X201678466Y-68574805D01*
X201795355Y-68505178D01*
X201914151Y-68398097D01*
X204848105Y-68398097D01*
X204889069Y-68669817D01*
X204982256Y-68928326D01*
X205043975Y-69043794D01*
X205283863Y-69110531D01*
X206068395Y-68326000D01*
X206427605Y-68326000D01*
X207212137Y-69110531D01*
X207452025Y-69043794D01*
X207568504Y-68796000D01*
X210397928Y-68796000D01*
X210397928Y-70396000D01*
X210410188Y-70520482D01*
X210446498Y-70640180D01*
X210505463Y-70750494D01*
X210584815Y-70847185D01*
X210681506Y-70926537D01*
X210791820Y-70985502D01*
X210911518Y-71021812D01*
X211036000Y-71034072D01*
X212636000Y-71034072D01*
X212760482Y-71021812D01*
X212880180Y-70985502D01*
X212990494Y-70926537D01*
X213087185Y-70847185D01*
X213166537Y-70750494D01*
X213225502Y-70640180D01*
X213261812Y-70520482D01*
X213274072Y-70396000D01*
X213274072Y-68796000D01*
X213261812Y-68671518D01*
X213225502Y-68551820D01*
X213166537Y-68441506D01*
X213087185Y-68344815D01*
X212990494Y-68265463D01*
X212880180Y-68206498D01*
X212760482Y-68170188D01*
X212636000Y-68157928D01*
X212628785Y-68157928D01*
X212649097Y-68088702D01*
X211836000Y-67275605D01*
X211022903Y-68088702D01*
X211043215Y-68157928D01*
X211036000Y-68157928D01*
X210911518Y-68170188D01*
X210791820Y-68206498D01*
X210681506Y-68265463D01*
X210584815Y-68344815D01*
X210505463Y-68441506D01*
X210446498Y-68551820D01*
X210410188Y-68671518D01*
X210397928Y-68796000D01*
X207568504Y-68796000D01*
X207568924Y-68795108D01*
X207635061Y-68528394D01*
X207647895Y-68253903D01*
X207606931Y-67982183D01*
X207513744Y-67723674D01*
X207452025Y-67608206D01*
X207212137Y-67541469D01*
X206427605Y-68326000D01*
X206068395Y-68326000D01*
X205283863Y-67541469D01*
X205043975Y-67608206D01*
X204927076Y-67856892D01*
X204860939Y-68123606D01*
X204848105Y-68398097D01*
X201914151Y-68398097D01*
X202011588Y-68310269D01*
X202185641Y-68076920D01*
X202310825Y-67814099D01*
X202355476Y-67666890D01*
X202234155Y-67437000D01*
X201041000Y-67437000D01*
X201041000Y-67457000D01*
X200787000Y-67457000D01*
X200787000Y-67437000D01*
X198501000Y-67437000D01*
X198501000Y-67457000D01*
X198247000Y-67457000D01*
X198247000Y-67437000D01*
X197053845Y-67437000D01*
X196932524Y-67666890D01*
X196977175Y-67814099D01*
X197102359Y-68076920D01*
X197276412Y-68310269D01*
X197492645Y-68505178D01*
X197609534Y-68574805D01*
X197427368Y-68696525D01*
X197220525Y-68903368D01*
X197058010Y-69146589D01*
X196946068Y-69416842D01*
X196889000Y-69703740D01*
X196798000Y-69703740D01*
X196798000Y-65126890D01*
X196932524Y-65126890D01*
X196977175Y-65274099D01*
X197102359Y-65536920D01*
X197276412Y-65770269D01*
X197492645Y-65965178D01*
X197618255Y-66040000D01*
X197492645Y-66114822D01*
X197276412Y-66309731D01*
X197102359Y-66543080D01*
X196977175Y-66805901D01*
X196932524Y-66953110D01*
X197053845Y-67183000D01*
X198247000Y-67183000D01*
X198247000Y-64897000D01*
X198501000Y-64897000D01*
X198501000Y-67183000D01*
X200787000Y-67183000D01*
X200787000Y-64897000D01*
X201041000Y-64897000D01*
X201041000Y-67183000D01*
X202234155Y-67183000D01*
X202355476Y-66953110D01*
X202310825Y-66805901D01*
X202185641Y-66543080D01*
X202011588Y-66309731D01*
X201795355Y-66114822D01*
X201669745Y-66040000D01*
X201795355Y-65965178D01*
X202011588Y-65770269D01*
X202185641Y-65536920D01*
X202310825Y-65274099D01*
X202355476Y-65126890D01*
X202234155Y-64897000D01*
X201041000Y-64897000D01*
X200787000Y-64897000D01*
X198501000Y-64897000D01*
X198247000Y-64897000D01*
X197053845Y-64897000D01*
X196932524Y-65126890D01*
X196798000Y-65126890D01*
X196798000Y-62586890D01*
X196932524Y-62586890D01*
X196977175Y-62734099D01*
X197102359Y-62996920D01*
X197276412Y-63230269D01*
X197492645Y-63425178D01*
X197618255Y-63500000D01*
X197492645Y-63574822D01*
X197276412Y-63769731D01*
X197102359Y-64003080D01*
X196977175Y-64265901D01*
X196932524Y-64413110D01*
X197053845Y-64643000D01*
X198247000Y-64643000D01*
X198247000Y-62357000D01*
X198501000Y-62357000D01*
X198501000Y-64643000D01*
X200787000Y-64643000D01*
X200787000Y-62357000D01*
X201041000Y-62357000D01*
X201041000Y-64643000D01*
X202234155Y-64643000D01*
X202355476Y-64413110D01*
X202310825Y-64265901D01*
X202185641Y-64003080D01*
X202011588Y-63769731D01*
X201795355Y-63574822D01*
X201669745Y-63500000D01*
X201795355Y-63425178D01*
X202011588Y-63230269D01*
X202185641Y-62996920D01*
X202310825Y-62734099D01*
X202355476Y-62586890D01*
X202234155Y-62357000D01*
X201041000Y-62357000D01*
X200787000Y-62357000D01*
X198501000Y-62357000D01*
X198247000Y-62357000D01*
X197053845Y-62357000D01*
X196932524Y-62586890D01*
X196798000Y-62586890D01*
X196798000Y-58622000D01*
X197341893Y-58622000D01*
X197220525Y-58743368D01*
G37*
%TD.AperFunction*%
%TD*%
M02*
