G04 #@! TF.GenerationSoftware,KiCad,Pcbnew,(5.1.9-0-10_14)*
G04 #@! TF.CreationDate,2021-02-07T03:37:40-06:00*
G04 #@! TF.ProjectId,JNTUB_board2,4a4e5455-425f-4626-9f61-7264322e6b69,rev?*
G04 #@! TF.SameCoordinates,Original*
G04 #@! TF.FileFunction,Copper,L2,Bot*
G04 #@! TF.FilePolarity,Positive*
%FSLAX46Y46*%
G04 Gerber Fmt 4.6, Leading zero omitted, Abs format (unit mm)*
G04 Created by KiCad (PCBNEW (5.1.9-0-10_14)) date 2021-02-07 03:37:40*
%MOMM*%
%LPD*%
G01*
G04 APERTURE LIST*
G04 #@! TA.AperFunction,ComponentPad*
%ADD10O,1.600000X1.600000*%
G04 #@! TD*
G04 #@! TA.AperFunction,ComponentPad*
%ADD11C,1.600000*%
G04 #@! TD*
G04 #@! TA.AperFunction,ComponentPad*
%ADD12R,1.600000X1.600000*%
G04 #@! TD*
G04 #@! TA.AperFunction,ComponentPad*
%ADD13O,1.700000X1.700000*%
G04 #@! TD*
G04 #@! TA.AperFunction,ComponentPad*
%ADD14R,1.700000X1.700000*%
G04 #@! TD*
G04 #@! TA.AperFunction,ComponentPad*
%ADD15C,1.520000*%
G04 #@! TD*
G04 #@! TA.AperFunction,ComponentPad*
%ADD16R,1.520000X1.520000*%
G04 #@! TD*
G04 #@! TA.AperFunction,ComponentPad*
%ADD17O,2.200000X2.200000*%
G04 #@! TD*
G04 #@! TA.AperFunction,ComponentPad*
%ADD18R,2.200000X2.200000*%
G04 #@! TD*
G04 #@! TA.AperFunction,ComponentPad*
%ADD19O,2.400000X1.600000*%
G04 #@! TD*
G04 #@! TA.AperFunction,ComponentPad*
%ADD20R,2.400000X1.600000*%
G04 #@! TD*
G04 #@! TA.AperFunction,ViaPad*
%ADD21C,0.762000*%
G04 #@! TD*
G04 #@! TA.AperFunction,ViaPad*
%ADD22C,0.914400*%
G04 #@! TD*
G04 #@! TA.AperFunction,ViaPad*
%ADD23C,1.016000*%
G04 #@! TD*
G04 #@! TA.AperFunction,Conductor*
%ADD24C,1.016000*%
G04 #@! TD*
G04 #@! TA.AperFunction,Conductor*
%ADD25C,1.270000*%
G04 #@! TD*
G04 #@! TA.AperFunction,Conductor*
%ADD26C,0.762000*%
G04 #@! TD*
G04 #@! TA.AperFunction,Conductor*
%ADD27C,0.609600*%
G04 #@! TD*
G04 #@! TA.AperFunction,Conductor*
%ADD28C,0.508000*%
G04 #@! TD*
G04 #@! TA.AperFunction,Conductor*
%ADD29C,0.406400*%
G04 #@! TD*
G04 #@! TA.AperFunction,Conductor*
%ADD30C,0.304800*%
G04 #@! TD*
G04 #@! TA.AperFunction,Conductor*
%ADD31C,0.254000*%
G04 #@! TD*
G04 #@! TA.AperFunction,Conductor*
%ADD32C,0.100000*%
G04 #@! TD*
G04 APERTURE END LIST*
D10*
G04 #@! TO.P,R22,2*
G04 #@! TO.N,Net-(C12-Pad1)*
X206248000Y-152019000D03*
D11*
G04 #@! TO.P,R22,1*
G04 #@! TO.N,/MainBoard/MCU_PWM*
X203708000Y-152019000D03*
G04 #@! TD*
D10*
G04 #@! TO.P,R26,2*
G04 #@! TO.N,/MainBoard/MCU_RESET*
X197358000Y-135128000D03*
D11*
G04 #@! TO.P,R26,1*
G04 #@! TO.N,+5V*
X199898000Y-135128000D03*
G04 #@! TD*
D10*
G04 #@! TO.P,R24,2*
G04 #@! TO.N,Net-(JP1-Pad1)*
X199390000Y-83947000D03*
D11*
G04 #@! TO.P,R24,1*
G04 #@! TO.N,+5V*
X199390000Y-81407000D03*
G04 #@! TD*
D10*
G04 #@! TO.P,R2,2*
G04 #@! TO.N,/MainBoard/MCU_ADC1*
X206248000Y-125222000D03*
D11*
G04 #@! TO.P,R2,1*
G04 #@! TO.N,+5V*
X203708000Y-125222000D03*
G04 #@! TD*
D10*
G04 #@! TO.P,R4,2*
G04 #@! TO.N,/MainBoard/MCU_ADC1*
X206248000Y-121920000D03*
D11*
G04 #@! TO.P,R4,1*
G04 #@! TO.N,Net-(R4-Pad1)*
X203708000Y-121920000D03*
G04 #@! TD*
D10*
G04 #@! TO.P,R5,2*
G04 #@! TO.N,Net-(R5-Pad2)*
X206248000Y-115316000D03*
D11*
G04 #@! TO.P,R5,1*
G04 #@! TO.N,GNDREF*
X203708000Y-115316000D03*
G04 #@! TD*
D10*
G04 #@! TO.P,R6,2*
G04 #@! TO.N,Net-(R4-Pad1)*
X206248000Y-118618000D03*
D11*
G04 #@! TO.P,R6,1*
G04 #@! TO.N,Net-(R5-Pad2)*
X203708000Y-118618000D03*
G04 #@! TD*
D10*
G04 #@! TO.P,R8,2*
G04 #@! TO.N,/MainBoard/MCU_ADC3*
X197358000Y-125222000D03*
D11*
G04 #@! TO.P,R8,1*
G04 #@! TO.N,+5V*
X199898000Y-125222000D03*
G04 #@! TD*
D10*
G04 #@! TO.P,R10,2*
G04 #@! TO.N,/MainBoard/MCU_ADC3*
X197358000Y-121920000D03*
D11*
G04 #@! TO.P,R10,1*
G04 #@! TO.N,Net-(R10-Pad1)*
X199898000Y-121920000D03*
G04 #@! TD*
D10*
G04 #@! TO.P,R11,2*
G04 #@! TO.N,Net-(R11-Pad2)*
X197358000Y-115316000D03*
D11*
G04 #@! TO.P,R11,1*
G04 #@! TO.N,GNDREF*
X199898000Y-115316000D03*
G04 #@! TD*
D10*
G04 #@! TO.P,R12,2*
G04 #@! TO.N,Net-(R11-Pad2)*
X197358000Y-118618000D03*
D11*
G04 #@! TO.P,R12,1*
G04 #@! TO.N,Net-(R10-Pad1)*
X199898000Y-118618000D03*
G04 #@! TD*
D10*
G04 #@! TO.P,R13,2*
G04 #@! TO.N,+5V*
X213360000Y-143764000D03*
D11*
G04 #@! TO.P,R13,1*
G04 #@! TO.N,Net-(Q1-Pad3)*
X210820000Y-143764000D03*
G04 #@! TD*
D10*
G04 #@! TO.P,R14,2*
G04 #@! TO.N,/MainBoard/MCU_PB0*
X213360000Y-129413000D03*
D11*
G04 #@! TO.P,R14,1*
G04 #@! TO.N,+5V*
X210820000Y-129413000D03*
G04 #@! TD*
D10*
G04 #@! TO.P,R16,2*
G04 #@! TO.N,/MainBoard/CLK_TRG*
X213360000Y-118110000D03*
D11*
G04 #@! TO.P,R16,1*
G04 #@! TO.N,Net-(D5-Pad1)*
X210820000Y-118110000D03*
G04 #@! TD*
D10*
G04 #@! TO.P,R18,2*
G04 #@! TO.N,Net-(Q1-Pad1)*
X213360000Y-147066000D03*
D11*
G04 #@! TO.P,R18,1*
G04 #@! TO.N,GNDREF*
X210820000Y-147066000D03*
G04 #@! TD*
D10*
G04 #@! TO.P,R19,2*
G04 #@! TO.N,Net-(Q3-Pad3)*
X213360000Y-126111000D03*
D11*
G04 #@! TO.P,R19,1*
G04 #@! TO.N,+5V*
X210820000Y-126111000D03*
G04 #@! TD*
D10*
G04 #@! TO.P,R20,2*
G04 #@! TO.N,/MainBoard/MCU_PB0*
X213360000Y-132715000D03*
D11*
G04 #@! TO.P,R20,1*
G04 #@! TO.N,Net-(Q3-Pad2)*
X210820000Y-132715000D03*
G04 #@! TD*
G04 #@! TO.P,R23,1*
G04 #@! TO.N,/MainBoard/LED_POS*
X203454000Y-84963000D03*
D10*
G04 #@! TO.P,R23,2*
G04 #@! TO.N,/MainBoard/OUT*
X205994000Y-84963000D03*
G04 #@! TD*
G04 #@! TO.P,R25,2*
G04 #@! TO.N,/MainBoard/OUT*
X205994000Y-81407000D03*
D11*
G04 #@! TO.P,R25,1*
G04 #@! TO.N,Net-(JP1-Pad1)*
X203454000Y-81407000D03*
G04 #@! TD*
D10*
G04 #@! TO.P,R27,2*
G04 #@! TO.N,Net-(C12-Pad1)*
X206248000Y-155321000D03*
D11*
G04 #@! TO.P,R27,1*
G04 #@! TO.N,Net-(JP2-Pad1)*
X203708000Y-155321000D03*
G04 #@! TD*
G04 #@! TO.P,R28,1*
G04 #@! TO.N,/MainBoard/MCU_PWM*
X197739000Y-155067000D03*
D10*
G04 #@! TO.P,R28,2*
G04 #@! TO.N,GNDREF*
X197739000Y-152527000D03*
G04 #@! TD*
D12*
G04 #@! TO.P,D5,1*
G04 #@! TO.N,Net-(D5-Pad1)*
X213360000Y-114935000D03*
D10*
G04 #@! TO.P,D5,2*
G04 #@! TO.N,GNDREF*
X210820000Y-114935000D03*
G04 #@! TD*
D12*
G04 #@! TO.P,D4,1*
G04 #@! TO.N,/MainBoard/MCU_ADC3*
X197358000Y-131826000D03*
D10*
G04 #@! TO.P,D4,2*
G04 #@! TO.N,GNDREF*
X199898000Y-131826000D03*
G04 #@! TD*
D12*
G04 #@! TO.P,D2,1*
G04 #@! TO.N,/MainBoard/MCU_ADC1*
X206248000Y-131826000D03*
D10*
G04 #@! TO.P,D2,2*
G04 #@! TO.N,GNDREF*
X203708000Y-131826000D03*
G04 #@! TD*
D12*
G04 #@! TO.P,D1,1*
G04 #@! TO.N,+5V*
X203708000Y-128524000D03*
D10*
G04 #@! TO.P,D1,2*
G04 #@! TO.N,/MainBoard/MCU_ADC1*
X206248000Y-128524000D03*
G04 #@! TD*
D12*
G04 #@! TO.P,D3,1*
G04 #@! TO.N,+5V*
X199898000Y-128524000D03*
D10*
G04 #@! TO.P,D3,2*
G04 #@! TO.N,/MainBoard/MCU_ADC3*
X197358000Y-128524000D03*
G04 #@! TD*
D13*
G04 #@! TO.P,JP2,2*
G04 #@! TO.N,/MainBoard/MCU_PWM*
X200660000Y-152273000D03*
D14*
G04 #@! TO.P,JP2,1*
G04 #@! TO.N,Net-(JP2-Pad1)*
X200660000Y-154813000D03*
G04 #@! TD*
D13*
G04 #@! TO.P,J10,7*
G04 #@! TO.N,/MainBoard/P2_AVG*
X197993000Y-104902000D03*
G04 #@! TO.P,J10,6*
G04 #@! TO.N,/MainBoard/MCU_ADC2*
X197993000Y-102362000D03*
G04 #@! TO.P,J10,5*
G04 #@! TO.N,/MainBoard/LED_POS*
X197993000Y-99822000D03*
G04 #@! TO.P,J10,4*
G04 #@! TO.N,/MainBoard/LED_NEG*
X197993000Y-97282000D03*
G04 #@! TO.P,J10,3*
G04 #@! TO.N,Net-(J10-Pad3)*
X197993000Y-94742000D03*
G04 #@! TO.P,J10,2*
G04 #@! TO.N,-5V*
X197993000Y-92202000D03*
D14*
G04 #@! TO.P,J10,1*
G04 #@! TO.N,+5V*
X197993000Y-89662000D03*
G04 #@! TD*
G04 #@! TO.P,J11,1*
G04 #@! TO.N,/MainBoard/OUT*
X213487000Y-89662000D03*
D13*
G04 #@! TO.P,J11,2*
G04 #@! TO.N,GNDREF*
X213487000Y-92202000D03*
G04 #@! TO.P,J11,3*
X213487000Y-94742000D03*
G04 #@! TO.P,J11,4*
X213487000Y-97282000D03*
G04 #@! TO.P,J11,5*
G04 #@! TO.N,/MainBoard/CLK_LED*
X213487000Y-99822000D03*
G04 #@! TO.P,J11,6*
G04 #@! TO.N,/MainBoard/CLK_TRG*
X213487000Y-102362000D03*
G04 #@! TO.P,J11,7*
G04 #@! TO.N,/MainBoard/P1_AVG*
X213487000Y-104902000D03*
G04 #@! TD*
D12*
G04 #@! TO.P,J12,1*
G04 #@! TO.N,/MainBoard/MCU_PWM*
X210439000Y-140970000D03*
D13*
G04 #@! TO.P,J12,2*
G04 #@! TO.N,+5V*
X212979000Y-140970000D03*
G04 #@! TO.P,J12,3*
G04 #@! TO.N,/MainBoard/MCU_ADC1*
X210439000Y-138430000D03*
G04 #@! TO.P,J12,4*
G04 #@! TO.N,/MainBoard/MCU_PB0*
X212979000Y-138430000D03*
G04 #@! TO.P,J12,5*
G04 #@! TO.N,/MainBoard/MCU_RESET*
X210439000Y-135890000D03*
G04 #@! TO.P,J12,6*
G04 #@! TO.N,GNDREF*
X212979000Y-135890000D03*
G04 #@! TD*
D14*
G04 #@! TO.P,JP1,1*
G04 #@! TO.N,Net-(JP1-Pad1)*
X210312000Y-81534000D03*
D13*
G04 #@! TO.P,JP1,2*
G04 #@! TO.N,/MainBoard/OUT*
X210312000Y-84074000D03*
G04 #@! TD*
D11*
G04 #@! TO.P,C12,2*
G04 #@! TO.N,GNDREF*
X201248000Y-149098000D03*
G04 #@! TO.P,C12,1*
G04 #@! TO.N,Net-(C12-Pad1)*
X206248000Y-149098000D03*
G04 #@! TD*
D15*
G04 #@! TO.P,U3,2*
G04 #@! TO.N,GNDREF*
X206248000Y-68326000D03*
G04 #@! TO.P,U3,3*
G04 #@! TO.N,+12V*
X206248000Y-65786000D03*
D16*
G04 #@! TO.P,U3,1*
G04 #@! TO.N,+5V*
X206248000Y-70866000D03*
G04 #@! TD*
D15*
G04 #@! TO.P,U4,2*
G04 #@! TO.N,-12V*
X205486000Y-75565000D03*
G04 #@! TO.P,U4,3*
G04 #@! TO.N,-5V*
X205486000Y-78105000D03*
D16*
G04 #@! TO.P,U4,1*
G04 #@! TO.N,GNDREF*
X205486000Y-73025000D03*
G04 #@! TD*
D11*
G04 #@! TO.P,C4,2*
G04 #@! TO.N,GNDREF*
X198120000Y-75946000D03*
G04 #@! TO.P,C4,1*
G04 #@! TO.N,+5V*
X198120000Y-78446000D03*
G04 #@! TD*
G04 #@! TO.P,C10,2*
G04 #@! TO.N,GNDREF*
X203748000Y-135255000D03*
G04 #@! TO.P,C10,1*
G04 #@! TO.N,+5V*
X206248000Y-135255000D03*
G04 #@! TD*
G04 #@! TO.P,C9,2*
G04 #@! TO.N,-12V*
X213360000Y-108371000D03*
G04 #@! TO.P,C9,1*
G04 #@! TO.N,GNDREF*
X213360000Y-110871000D03*
G04 #@! TD*
G04 #@! TO.P,C8,2*
G04 #@! TO.N,GNDREF*
X198374000Y-110831000D03*
G04 #@! TO.P,C8,1*
G04 #@! TO.N,+12V*
X198374000Y-108331000D03*
G04 #@! TD*
G04 #@! TO.P,C6,2*
G04 #@! TO.N,-5V*
X202057000Y-78420600D03*
G04 #@! TO.P,C6,1*
G04 #@! TO.N,GNDREF*
X202057000Y-75920600D03*
G04 #@! TD*
D17*
G04 #@! TO.P,D11,2*
G04 #@! TO.N,-12V*
X213868000Y-62992000D03*
D18*
G04 #@! TO.P,D11,1*
G04 #@! TO.N,Net-(D11-Pad1)*
X206248000Y-62992000D03*
G04 #@! TD*
G04 #@! TO.P,D10,1*
G04 #@! TO.N,+12V*
X213868000Y-59563000D03*
D17*
G04 #@! TO.P,D10,2*
G04 #@! TO.N,Net-(D10-Pad2)*
X206248000Y-59563000D03*
G04 #@! TD*
D12*
G04 #@! TO.P,C2,1*
G04 #@! TO.N,GNDREF*
X211836000Y-74168000D03*
D11*
G04 #@! TO.P,C2,2*
G04 #@! TO.N,-12V*
X211836000Y-76668000D03*
G04 #@! TD*
D12*
G04 #@! TO.P,C1,1*
G04 #@! TO.N,+12V*
X211836000Y-67056000D03*
D11*
G04 #@! TO.P,C1,2*
G04 #@! TO.N,GNDREF*
X211836000Y-69556000D03*
G04 #@! TD*
D19*
G04 #@! TO.P,U2,14*
G04 #@! TO.N,/MainBoard/OUT*
X209550000Y-96520000D03*
G04 #@! TO.P,U2,7*
G04 #@! TO.N,Net-(R10-Pad1)*
X201930000Y-111760000D03*
G04 #@! TO.P,U2,13*
G04 #@! TO.N,Net-(JP1-Pad1)*
X209550000Y-99060000D03*
G04 #@! TO.P,U2,6*
G04 #@! TO.N,Net-(R11-Pad2)*
X201930000Y-109220000D03*
G04 #@! TO.P,U2,12*
G04 #@! TO.N,Net-(C12-Pad1)*
X209550000Y-101600000D03*
G04 #@! TO.P,U2,5*
G04 #@! TO.N,/MainBoard/P2_AVG*
X201930000Y-106680000D03*
G04 #@! TO.P,U2,11*
G04 #@! TO.N,-12V*
X209550000Y-104140000D03*
G04 #@! TO.P,U2,4*
G04 #@! TO.N,+12V*
X201930000Y-104140000D03*
G04 #@! TO.P,U2,10*
G04 #@! TO.N,/MainBoard/P1_AVG*
X209550000Y-106680000D03*
G04 #@! TO.P,U2,3*
G04 #@! TO.N,GNDREF*
X201930000Y-101600000D03*
G04 #@! TO.P,U2,9*
G04 #@! TO.N,Net-(R5-Pad2)*
X209550000Y-109220000D03*
G04 #@! TO.P,U2,2*
G04 #@! TO.N,/MainBoard/LED_POS*
X201930000Y-99060000D03*
G04 #@! TO.P,U2,8*
G04 #@! TO.N,Net-(R4-Pad1)*
X209550000Y-111760000D03*
D20*
G04 #@! TO.P,U2,1*
G04 #@! TO.N,/MainBoard/LED_NEG*
X201930000Y-96520000D03*
G04 #@! TD*
G04 #@! TO.P,U1,1*
G04 #@! TO.N,/MainBoard/MCU_RESET*
X197866000Y-138430000D03*
D19*
G04 #@! TO.P,U1,5*
G04 #@! TO.N,/MainBoard/MCU_PB0*
X205486000Y-146050000D03*
G04 #@! TO.P,U1,2*
G04 #@! TO.N,/MainBoard/MCU_ADC3*
X197866000Y-140970000D03*
G04 #@! TO.P,U1,6*
G04 #@! TO.N,/MainBoard/MCU_PWM*
X205486000Y-143510000D03*
G04 #@! TO.P,U1,3*
G04 #@! TO.N,/MainBoard/MCU_ADC2*
X197866000Y-143510000D03*
G04 #@! TO.P,U1,7*
G04 #@! TO.N,/MainBoard/MCU_ADC1*
X205486000Y-140970000D03*
G04 #@! TO.P,U1,4*
G04 #@! TO.N,GNDREF*
X197866000Y-146050000D03*
G04 #@! TO.P,U1,8*
G04 #@! TO.N,+5V*
X205486000Y-138430000D03*
G04 #@! TD*
D13*
G04 #@! TO.P,J9,10*
G04 #@! TO.N,Net-(D11-Pad1)*
X198374000Y-69850000D03*
G04 #@! TO.P,J9,9*
X200914000Y-69850000D03*
G04 #@! TO.P,J9,8*
G04 #@! TO.N,GNDREF*
X198374000Y-67310000D03*
G04 #@! TO.P,J9,7*
X200914000Y-67310000D03*
G04 #@! TO.P,J9,6*
X198374000Y-64770000D03*
G04 #@! TO.P,J9,5*
X200914000Y-64770000D03*
G04 #@! TO.P,J9,4*
X198374000Y-62230000D03*
G04 #@! TO.P,J9,3*
X200914000Y-62230000D03*
G04 #@! TO.P,J9,2*
G04 #@! TO.N,Net-(D10-Pad2)*
X198374000Y-59690000D03*
D14*
G04 #@! TO.P,J9,1*
X200914000Y-59690000D03*
G04 #@! TD*
D15*
G04 #@! TO.P,Q1,2*
G04 #@! TO.N,Net-(D5-Pad1)*
X211582000Y-150876000D03*
G04 #@! TO.P,Q1,3*
G04 #@! TO.N,Net-(Q1-Pad3)*
X209042000Y-150876000D03*
D16*
G04 #@! TO.P,Q1,1*
G04 #@! TO.N,Net-(Q1-Pad1)*
X214122000Y-150876000D03*
G04 #@! TD*
D15*
G04 #@! TO.P,Q2,2*
G04 #@! TO.N,Net-(Q1-Pad3)*
X211582000Y-155702000D03*
G04 #@! TO.P,Q2,3*
G04 #@! TO.N,/MainBoard/MCU_PB0*
X209042000Y-155702000D03*
D16*
G04 #@! TO.P,Q2,1*
G04 #@! TO.N,Net-(Q1-Pad1)*
X214122000Y-155702000D03*
G04 #@! TD*
D15*
G04 #@! TO.P,Q3,2*
G04 #@! TO.N,Net-(Q3-Pad2)*
X210947000Y-122453400D03*
G04 #@! TO.P,Q3,3*
G04 #@! TO.N,Net-(Q3-Pad3)*
X213487000Y-122453400D03*
D16*
G04 #@! TO.P,Q3,1*
G04 #@! TO.N,/MainBoard/CLK_LED*
X208407000Y-122453400D03*
G04 #@! TD*
D21*
G04 #@! TO.N,+12V*
X212344000Y-83058000D03*
X210058000Y-65786000D03*
D22*
G04 #@! TO.N,GNDREF*
X204978000Y-130167038D03*
D23*
X213360000Y-112395000D03*
D22*
X211074000Y-116141500D03*
X209550000Y-73025000D03*
X203708000Y-116649500D03*
X203962000Y-147574000D03*
X210820000Y-148717000D03*
D21*
G04 #@! TO.N,+5V*
X203073000Y-94107000D03*
X203708000Y-126873000D03*
X199898000Y-123698000D03*
X203708000Y-123698000D03*
X210820000Y-127762000D03*
X206248000Y-133502400D03*
X201803000Y-132461000D03*
X211709000Y-131064000D03*
X201549000Y-72009000D03*
X200025000Y-78422500D03*
X201803000Y-113665000D03*
G04 #@! TO.N,-12V*
X209550000Y-94107000D03*
X211709000Y-96012000D03*
G04 #@! TO.N,Net-(C12-Pad1)*
X208280000Y-125222000D03*
X207391000Y-117094000D03*
G04 #@! TO.N,/MainBoard/MCU_ADC2*
X201549000Y-136525000D03*
X198628000Y-122936000D03*
G04 #@! TO.N,/MainBoard/MCU_ADC1*
X207772000Y-138430000D03*
G04 #@! TO.N,Net-(JP1-Pad1)*
X208153000Y-89535000D03*
X199390000Y-85598000D03*
X203454000Y-83185000D03*
G04 #@! TO.N,Net-(Q1-Pad1)*
X212344000Y-148590000D03*
X214503600Y-149289100D03*
G04 #@! TO.N,/MainBoard/MCU_PB0*
X207645000Y-141478000D03*
X207772000Y-153162000D03*
G04 #@! TO.N,Net-(R10-Pad1)*
X199898000Y-120269000D03*
G04 #@! TO.N,Net-(D11-Pad1)*
X203200000Y-62992000D03*
G04 #@! TO.N,Net-(R5-Pad2)*
X206756000Y-109220000D03*
G04 #@! TO.N,Net-(R11-Pad2)*
X197358000Y-113919000D03*
G04 #@! TO.N,/MainBoard/LED_POS*
X201803000Y-87884000D03*
G04 #@! TO.N,/MainBoard/CLK_LED*
X211455000Y-106807000D03*
G04 #@! TD*
D24*
G04 #@! TO.N,+12V*
X213614000Y-65786000D02*
X210058000Y-65786000D01*
X214249000Y-66421000D02*
X213614000Y-65786000D01*
X214249000Y-81153000D02*
X214249000Y-66421000D01*
X212344000Y-83058000D02*
X214249000Y-81153000D01*
D25*
G04 #@! TO.N,GNDREF*
X213487000Y-97282000D02*
X213487000Y-94742000D01*
X213487000Y-92202000D02*
X213487000Y-94742000D01*
D26*
X200914000Y-67310000D02*
X200914000Y-64770000D01*
X200914000Y-64770000D02*
X200914000Y-62230000D01*
X200914000Y-62230000D02*
X198374000Y-62230000D01*
X198374000Y-62230000D02*
X198374000Y-64770000D01*
X198374000Y-64770000D02*
X198374000Y-67310000D01*
X198374000Y-64770000D02*
X200914000Y-64770000D01*
X198374000Y-67310000D02*
X200914000Y-67310000D01*
X208038997Y-133565999D02*
X208749999Y-134277001D01*
D27*
X208038997Y-130568997D02*
X207683199Y-130213199D01*
X207683199Y-130213199D02*
X205024161Y-130213199D01*
X205024161Y-130213199D02*
X204978000Y-130167038D01*
X208038997Y-133565999D02*
X208038997Y-130568997D01*
D26*
X208749999Y-134277001D02*
X209296000Y-134277001D01*
D28*
X212979000Y-135890000D02*
X211366001Y-134277001D01*
X211366001Y-134277001D02*
X209296000Y-134277001D01*
D25*
X204851000Y-112903000D02*
X203708000Y-114046000D01*
X204851000Y-107442000D02*
X204851000Y-112903000D01*
X206502000Y-101600000D02*
X206502000Y-105791000D01*
X206502000Y-105791000D02*
X204851000Y-107442000D01*
X208788000Y-92202000D02*
X206502000Y-94488000D01*
X211201000Y-92202000D02*
X208788000Y-92202000D01*
X206502000Y-94488000D02*
X206502000Y-101600000D01*
X207010000Y-112903000D02*
X204851000Y-112903000D01*
X210820000Y-114935000D02*
X209042000Y-114935000D01*
X209042000Y-114935000D02*
X207010000Y-112903000D01*
X206502000Y-101600000D02*
X201930000Y-101600000D01*
X210820162Y-113817436D02*
X210820162Y-115887662D01*
X210820162Y-115887662D02*
X211074000Y-116141500D01*
X213360000Y-112395000D02*
X212242598Y-112395000D01*
X212242598Y-112395000D02*
X210820162Y-113817436D01*
X213487000Y-92202000D02*
X211201000Y-92202000D01*
X208191999Y-78524999D02*
X208191999Y-86271999D01*
X211201000Y-89281000D02*
X211201000Y-92202000D01*
X208241001Y-78524999D02*
X208191999Y-78524999D01*
X208191999Y-86271999D02*
X211201000Y-89281000D01*
X209550000Y-77216000D02*
X208241001Y-78524999D01*
X209550000Y-73025000D02*
X209550000Y-77216000D01*
X203708000Y-114046000D02*
X203708000Y-116649500D01*
D29*
X209296000Y-148717000D02*
X210820000Y-148717000D01*
X208140210Y-147561210D02*
X209296000Y-148717000D01*
X203974790Y-147561210D02*
X208140210Y-147561210D01*
X203962000Y-147574000D02*
X203974790Y-147561210D01*
D26*
G04 #@! TO.N,+5V*
X197993000Y-89662000D02*
X198374000Y-89662000D01*
D30*
X214718801Y-139230199D02*
X212979000Y-140970000D01*
X214718801Y-131660801D02*
X214718801Y-139230199D01*
D24*
X198628000Y-89662000D02*
X203073000Y-94107000D01*
X197993000Y-89662000D02*
X198628000Y-89662000D01*
X199898000Y-123698000D02*
X201803000Y-123698000D01*
X201803000Y-123698000D02*
X203708000Y-123698000D01*
D26*
X208407000Y-127762000D02*
X210820000Y-127762000D01*
X203708000Y-126873000D02*
X207518000Y-126873000D01*
X207518000Y-126873000D02*
X208407000Y-127762000D01*
X206235399Y-133515001D02*
X206248000Y-133502400D01*
X202857001Y-133515001D02*
X206235399Y-133515001D01*
X201803000Y-132461000D02*
X202857001Y-133515001D01*
D30*
X214122000Y-131064000D02*
X211709000Y-131064000D01*
X214718801Y-131660801D02*
X214122000Y-131064000D01*
D24*
X200025000Y-74676000D02*
X200025000Y-78422500D01*
X200025000Y-74676000D02*
X200025000Y-73533000D01*
X200025000Y-73533000D02*
X201549000Y-72009000D01*
X201803000Y-123952000D02*
X201803000Y-132461000D01*
X201803000Y-114808000D02*
X201803000Y-123952000D01*
X201803000Y-114808000D02*
X201803000Y-113665000D01*
D30*
G04 #@! TO.N,-12V*
X209524600Y-104013000D02*
X209550000Y-104013000D01*
D26*
X209550000Y-104140000D02*
X210312000Y-104140000D01*
X210693000Y-94107000D02*
X209550000Y-94107000D01*
X211709000Y-95123000D02*
X210693000Y-94107000D01*
X211709000Y-95123000D02*
X211709000Y-96012000D01*
D29*
G04 #@! TO.N,Net-(C12-Pad1)*
X208280000Y-125222000D02*
X209042000Y-124460000D01*
X214249000Y-124460000D02*
X214808990Y-123900010D01*
X209042000Y-124460000D02*
X214249000Y-124460000D01*
X214808990Y-123900010D02*
X214808990Y-120701990D01*
X214808990Y-120701990D02*
X213741000Y-119634000D01*
X209931000Y-119634000D02*
X207391000Y-117094000D01*
X213741000Y-119634000D02*
X209931000Y-119634000D01*
D30*
G04 #@! TO.N,/MainBoard/MCU_ADC2*
X197866000Y-143510000D02*
X198120000Y-143510000D01*
D29*
X197866000Y-143510000D02*
X198628000Y-143510000D01*
X201549000Y-133985000D02*
X201549000Y-135890000D01*
X201041000Y-133477000D02*
X201549000Y-133985000D01*
X198755000Y-133477000D02*
X201041000Y-133477000D01*
X198628000Y-133350000D02*
X198755000Y-133477000D01*
X201549000Y-135890000D02*
X201549000Y-136525000D01*
D30*
X198628000Y-133350000D02*
X198628000Y-122936000D01*
D29*
G04 #@! TO.N,/MainBoard/MCU_ADC1*
X210439000Y-138430000D02*
X207772000Y-138430000D01*
D27*
G04 #@! TO.N,Net-(JP1-Pad1)*
X203835000Y-88011000D02*
X207391000Y-88011000D01*
X201422000Y-85598000D02*
X203835000Y-88011000D01*
X208153000Y-88773000D02*
X208153000Y-89535000D01*
X207391000Y-88011000D02*
X208153000Y-88773000D01*
X201422000Y-85598000D02*
X199390000Y-85598000D01*
X201422000Y-83947000D02*
X202184000Y-83185000D01*
X202184000Y-83185000D02*
X203454000Y-83185000D01*
X201422000Y-85598000D02*
X201422000Y-83947000D01*
D29*
G04 #@! TO.N,Net-(Q1-Pad1)*
X212915500Y-149161500D02*
X212344000Y-148590000D01*
X214503600Y-149289100D02*
X212915500Y-149161500D01*
D31*
G04 #@! TO.N,/MainBoard/MCU_PB0*
X207645000Y-141386758D02*
X207645000Y-141478000D01*
X209319957Y-139711801D02*
X207645000Y-141386758D01*
X211697199Y-139711801D02*
X209319957Y-139711801D01*
X212979000Y-138430000D02*
X211697199Y-139711801D01*
D29*
X207772000Y-153162000D02*
X207772000Y-151257000D01*
X203200000Y-150622000D02*
X202759201Y-150181201D01*
X202759201Y-150181201D02*
X202759201Y-146871799D01*
X203581000Y-146050000D02*
X205486000Y-146050000D01*
X202759201Y-146871799D02*
X203581000Y-146050000D01*
X207137000Y-150622000D02*
X203200000Y-150622000D01*
X207772000Y-151257000D02*
X207137000Y-150622000D01*
D30*
G04 #@! TO.N,Net-(R10-Pad1)*
X201549000Y-111760000D02*
X201930000Y-111760000D01*
X199136000Y-120269000D02*
X199898000Y-120269000D01*
X198628000Y-119761000D02*
X199136000Y-120269000D01*
X198628000Y-114046000D02*
X198628000Y-119761000D01*
X200914000Y-111760000D02*
X198628000Y-114046000D01*
X201930000Y-111760000D02*
X200914000Y-111760000D01*
D29*
G04 #@! TO.N,/MainBoard/MCU_PWM*
X205486000Y-143510000D02*
X206883000Y-143510000D01*
X206883000Y-143510000D02*
X209423000Y-140970000D01*
X209423000Y-140970000D02*
X210439000Y-140970000D01*
X205486000Y-143510000D02*
X203708000Y-143510000D01*
X203708000Y-143510000D02*
X199009000Y-148209000D01*
X199009000Y-150622000D02*
X200660000Y-152273000D01*
X199009000Y-148209000D02*
X199009000Y-150622000D01*
D24*
G04 #@! TO.N,Net-(D11-Pad1)*
X198374000Y-69850000D02*
X200914000Y-69850000D01*
X203200000Y-68834000D02*
X203200000Y-64643000D01*
X202184000Y-69850000D02*
X203200000Y-68834000D01*
X200914000Y-69850000D02*
X202184000Y-69850000D01*
X203200000Y-64643000D02*
X203200000Y-62992000D01*
D26*
G04 #@! TO.N,/MainBoard/OUT*
X213487000Y-87249000D02*
X213487000Y-89662000D01*
X210312000Y-84074000D02*
X213487000Y-87249000D01*
D27*
G04 #@! TO.N,/MainBoard/P2_AVG*
X199771000Y-106680000D02*
X201930000Y-106680000D01*
X197993000Y-104902000D02*
X199771000Y-106680000D01*
D29*
G04 #@! TO.N,/MainBoard/P1_AVG*
X209550000Y-106680000D02*
X209550000Y-107569000D01*
X209550000Y-107569000D02*
X209804000Y-107823000D01*
X213487000Y-106090722D02*
X213487000Y-104902000D01*
X211754722Y-107823000D02*
X213487000Y-106090722D01*
X209804000Y-107823000D02*
X211754722Y-107823000D01*
G04 #@! TO.N,Net-(R5-Pad2)*
X206756000Y-109220000D02*
X209550000Y-109220000D01*
G04 #@! TO.N,Net-(R11-Pad2)*
X200323600Y-109220000D02*
X200025000Y-109518600D01*
X200025000Y-109518600D02*
X200025000Y-111506000D01*
X201930000Y-109220000D02*
X200323600Y-109220000D01*
X200025000Y-111506000D02*
X198755000Y-112776000D01*
X198501000Y-112776000D02*
X197358000Y-113919000D01*
X198755000Y-112776000D02*
X198501000Y-112776000D01*
G04 #@! TO.N,/MainBoard/MCU_RESET*
X210439000Y-135890000D02*
X209169000Y-135890000D01*
X209169000Y-135890000D02*
X208280000Y-136779000D01*
X208280000Y-136779000D02*
X203835000Y-136779000D01*
X202184000Y-138430000D02*
X197866000Y-138430000D01*
X203835000Y-136779000D02*
X202184000Y-138430000D01*
D27*
G04 #@! TO.N,/MainBoard/LED_POS*
X201930000Y-99060000D02*
X200406000Y-99060000D01*
X200406000Y-99060000D02*
X199644000Y-99822000D01*
X199644000Y-99822000D02*
X197993000Y-99822000D01*
X204597000Y-92964000D02*
X201803000Y-90170000D01*
X204597000Y-98202600D02*
X204597000Y-92964000D01*
X203739600Y-99060000D02*
X204597000Y-98202600D01*
X201930000Y-99060000D02*
X203739600Y-99060000D01*
X201803000Y-90170000D02*
X201803000Y-87884000D01*
G04 #@! TO.N,/MainBoard/LED_NEG*
X201930000Y-96520000D02*
X200152000Y-96520000D01*
X200152000Y-96520000D02*
X199390000Y-97282000D01*
X199390000Y-97282000D02*
X197993000Y-97282000D01*
D29*
G04 #@! TO.N,/MainBoard/CLK_LED*
X212217000Y-99822000D02*
X213487000Y-99822000D01*
X211455000Y-100584000D02*
X212217000Y-99822000D01*
X211455000Y-106807000D02*
X211455000Y-100584000D01*
G04 #@! TD*
G04 #@! TO.N,GNDREF*
X197916800Y-145999200D02*
X197936800Y-145999200D01*
X197936800Y-146100800D01*
X197916800Y-146100800D01*
X197916800Y-147561200D01*
X198226295Y-147561200D01*
X198160140Y-147641810D01*
X198065798Y-147818314D01*
X198049180Y-147873097D01*
X198007702Y-148009830D01*
X197988085Y-148209000D01*
X197993000Y-148258902D01*
X197993001Y-150572089D01*
X197988085Y-150622000D01*
X198007702Y-150821170D01*
X198032555Y-150903097D01*
X198065799Y-151012687D01*
X198092152Y-151061990D01*
X198042187Y-151046525D01*
X198025445Y-151043196D01*
X197789800Y-151194568D01*
X197789800Y-152476200D01*
X197809800Y-152476200D01*
X197809800Y-152577800D01*
X197789800Y-152577800D01*
X197789800Y-152597800D01*
X197688200Y-152597800D01*
X197688200Y-152577800D01*
X197668200Y-152577800D01*
X197668200Y-152476200D01*
X197688200Y-152476200D01*
X197688200Y-151194568D01*
X197452555Y-151043196D01*
X197435813Y-151046525D01*
X197152812Y-151134121D01*
X196975800Y-151230025D01*
X196975800Y-147472700D01*
X197121356Y-147522252D01*
X197415200Y-147561200D01*
X197815200Y-147561200D01*
X197815200Y-146100800D01*
X197795200Y-146100800D01*
X197795200Y-145999200D01*
X197815200Y-145999200D01*
X197815200Y-145979200D01*
X197916800Y-145979200D01*
X197916800Y-145999200D01*
G04 #@! TA.AperFunction,Conductor*
D32*
G36*
X197916800Y-145999200D02*
G01*
X197936800Y-145999200D01*
X197936800Y-146100800D01*
X197916800Y-146100800D01*
X197916800Y-147561200D01*
X198226295Y-147561200D01*
X198160140Y-147641810D01*
X198065798Y-147818314D01*
X198049180Y-147873097D01*
X198007702Y-148009830D01*
X197988085Y-148209000D01*
X197993000Y-148258902D01*
X197993001Y-150572089D01*
X197988085Y-150622000D01*
X198007702Y-150821170D01*
X198032555Y-150903097D01*
X198065799Y-151012687D01*
X198092152Y-151061990D01*
X198042187Y-151046525D01*
X198025445Y-151043196D01*
X197789800Y-151194568D01*
X197789800Y-152476200D01*
X197809800Y-152476200D01*
X197809800Y-152577800D01*
X197789800Y-152577800D01*
X197789800Y-152597800D01*
X197688200Y-152597800D01*
X197688200Y-152577800D01*
X197668200Y-152577800D01*
X197668200Y-152476200D01*
X197688200Y-152476200D01*
X197688200Y-151194568D01*
X197452555Y-151043196D01*
X197435813Y-151046525D01*
X197152812Y-151134121D01*
X196975800Y-151230025D01*
X196975800Y-147472700D01*
X197121356Y-147522252D01*
X197415200Y-147561200D01*
X197815200Y-147561200D01*
X197815200Y-146100800D01*
X197795200Y-146100800D01*
X197795200Y-145999200D01*
X197815200Y-145999200D01*
X197815200Y-145979200D01*
X197916800Y-145979200D01*
X197916800Y-145999200D01*
G37*
G04 #@! TD.AperFunction*
D29*
X201333985Y-149083858D02*
X201319842Y-149098000D01*
X201333985Y-149112143D01*
X201262143Y-149183985D01*
X201248000Y-149169842D01*
X200336575Y-150081267D01*
X200397039Y-150355674D01*
X200658750Y-150497522D01*
X200943105Y-150585587D01*
X201239177Y-150616486D01*
X201535589Y-150589029D01*
X201797593Y-150511210D01*
X201815999Y-150571887D01*
X201910341Y-150748391D01*
X202037305Y-150903097D01*
X202076074Y-150934914D01*
X202325802Y-151184642D01*
X202278755Y-151255053D01*
X202158455Y-151545483D01*
X202133555Y-151485369D01*
X201951581Y-151213027D01*
X201719973Y-150981419D01*
X201447631Y-150799445D01*
X201145021Y-150674100D01*
X200823772Y-150610200D01*
X200496228Y-150610200D01*
X200444358Y-150620518D01*
X200025000Y-150201160D01*
X200025000Y-149956601D01*
X200264733Y-150009425D01*
X201176158Y-149098000D01*
X201162016Y-149083858D01*
X201233858Y-149012016D01*
X201248000Y-149026158D01*
X201262143Y-149012016D01*
X201333985Y-149083858D01*
G04 #@! TA.AperFunction,Conductor*
D32*
G36*
X201333985Y-149083858D02*
G01*
X201319842Y-149098000D01*
X201333985Y-149112143D01*
X201262143Y-149183985D01*
X201248000Y-149169842D01*
X200336575Y-150081267D01*
X200397039Y-150355674D01*
X200658750Y-150497522D01*
X200943105Y-150585587D01*
X201239177Y-150616486D01*
X201535589Y-150589029D01*
X201797593Y-150511210D01*
X201815999Y-150571887D01*
X201910341Y-150748391D01*
X202037305Y-150903097D01*
X202076074Y-150934914D01*
X202325802Y-151184642D01*
X202278755Y-151255053D01*
X202158455Y-151545483D01*
X202133555Y-151485369D01*
X201951581Y-151213027D01*
X201719973Y-150981419D01*
X201447631Y-150799445D01*
X201145021Y-150674100D01*
X200823772Y-150610200D01*
X200496228Y-150610200D01*
X200444358Y-150620518D01*
X200025000Y-150201160D01*
X200025000Y-149956601D01*
X200264733Y-150009425D01*
X201176158Y-149098000D01*
X201162016Y-149083858D01*
X201233858Y-149012016D01*
X201248000Y-149026158D01*
X201262143Y-149012016D01*
X201333985Y-149083858D01*
G37*
G04 #@! TD.AperFunction*
D29*
X209326450Y-142524562D02*
X209479663Y-142571039D01*
X209639000Y-142586732D01*
X209716424Y-142586732D01*
X209567256Y-142735900D01*
X209390755Y-143000053D01*
X209269179Y-143293563D01*
X209207200Y-143605153D01*
X209207200Y-143922847D01*
X209269179Y-144234437D01*
X209390755Y-144527947D01*
X209567256Y-144792100D01*
X209791900Y-145016744D01*
X210056053Y-145193245D01*
X210349563Y-145314821D01*
X210661153Y-145376800D01*
X210978847Y-145376800D01*
X211290437Y-145314821D01*
X211583947Y-145193245D01*
X211848100Y-145016744D01*
X212072744Y-144792100D01*
X212090000Y-144766275D01*
X212107256Y-144792100D01*
X212331900Y-145016744D01*
X212596053Y-145193245D01*
X212889563Y-145314821D01*
X213201153Y-145376800D01*
X213518847Y-145376800D01*
X213830437Y-145314821D01*
X214123947Y-145193245D01*
X214388100Y-145016744D01*
X214504201Y-144900643D01*
X214504201Y-145929357D01*
X214388100Y-145813256D01*
X214123947Y-145636755D01*
X213830437Y-145515179D01*
X213518847Y-145453200D01*
X213201153Y-145453200D01*
X212889563Y-145515179D01*
X212596053Y-145636755D01*
X212331900Y-145813256D01*
X212107256Y-146037900D01*
X212000289Y-146197988D01*
X211803267Y-146154575D01*
X210891842Y-147066000D01*
X210905985Y-147080143D01*
X210834143Y-147151985D01*
X210820000Y-147137842D01*
X209908575Y-148049267D01*
X209969039Y-148323674D01*
X210230750Y-148465522D01*
X210515105Y-148553587D01*
X210811177Y-148584486D01*
X211107589Y-148557029D01*
X211150200Y-148544373D01*
X211150200Y-148707579D01*
X211196077Y-148938219D01*
X211286068Y-149155476D01*
X211389739Y-149310630D01*
X211123231Y-149363642D01*
X210837000Y-149482203D01*
X210579399Y-149654327D01*
X210360327Y-149873399D01*
X210312000Y-149945725D01*
X210263673Y-149873399D01*
X210044601Y-149654327D01*
X209787000Y-149482203D01*
X209500769Y-149363642D01*
X209196907Y-149303200D01*
X208887093Y-149303200D01*
X208583231Y-149363642D01*
X208297000Y-149482203D01*
X208039399Y-149654327D01*
X207823045Y-149870681D01*
X207711534Y-149779167D01*
X207798821Y-149568437D01*
X207860800Y-149256847D01*
X207860800Y-148939153D01*
X207798821Y-148627563D01*
X207677245Y-148334053D01*
X207500744Y-148069900D01*
X207276100Y-147845256D01*
X207011947Y-147668755D01*
X206718437Y-147547179D01*
X206563831Y-147516426D01*
X206786359Y-147397482D01*
X207031939Y-147195939D01*
X207145818Y-147057177D01*
X209301514Y-147057177D01*
X209328971Y-147353589D01*
X209413727Y-147638948D01*
X209552524Y-147902290D01*
X209562326Y-147916961D01*
X209836733Y-147977425D01*
X210748158Y-147066000D01*
X209836733Y-146154575D01*
X209562326Y-146215039D01*
X209420478Y-146476750D01*
X209332413Y-146761105D01*
X209301514Y-147057177D01*
X207145818Y-147057177D01*
X207233482Y-146950359D01*
X207383242Y-146670178D01*
X207475464Y-146366164D01*
X207503379Y-146082733D01*
X209908575Y-146082733D01*
X210820000Y-146994158D01*
X211731425Y-146082733D01*
X211670961Y-145808326D01*
X211409250Y-145666478D01*
X211124895Y-145578413D01*
X210828823Y-145547514D01*
X210532411Y-145574971D01*
X210247052Y-145659727D01*
X209983710Y-145798524D01*
X209969039Y-145808326D01*
X209908575Y-146082733D01*
X207503379Y-146082733D01*
X207506603Y-146050000D01*
X207475464Y-145733836D01*
X207383242Y-145429822D01*
X207233482Y-145149641D01*
X207031939Y-144904061D01*
X206880771Y-144780000D01*
X207031939Y-144655939D01*
X207173340Y-144483642D01*
X207273687Y-144453202D01*
X207450190Y-144358860D01*
X207604896Y-144231896D01*
X207636712Y-144193128D01*
X209312653Y-142517187D01*
X209326450Y-142524562D01*
G04 #@! TA.AperFunction,Conductor*
D32*
G36*
X209326450Y-142524562D02*
G01*
X209479663Y-142571039D01*
X209639000Y-142586732D01*
X209716424Y-142586732D01*
X209567256Y-142735900D01*
X209390755Y-143000053D01*
X209269179Y-143293563D01*
X209207200Y-143605153D01*
X209207200Y-143922847D01*
X209269179Y-144234437D01*
X209390755Y-144527947D01*
X209567256Y-144792100D01*
X209791900Y-145016744D01*
X210056053Y-145193245D01*
X210349563Y-145314821D01*
X210661153Y-145376800D01*
X210978847Y-145376800D01*
X211290437Y-145314821D01*
X211583947Y-145193245D01*
X211848100Y-145016744D01*
X212072744Y-144792100D01*
X212090000Y-144766275D01*
X212107256Y-144792100D01*
X212331900Y-145016744D01*
X212596053Y-145193245D01*
X212889563Y-145314821D01*
X213201153Y-145376800D01*
X213518847Y-145376800D01*
X213830437Y-145314821D01*
X214123947Y-145193245D01*
X214388100Y-145016744D01*
X214504201Y-144900643D01*
X214504201Y-145929357D01*
X214388100Y-145813256D01*
X214123947Y-145636755D01*
X213830437Y-145515179D01*
X213518847Y-145453200D01*
X213201153Y-145453200D01*
X212889563Y-145515179D01*
X212596053Y-145636755D01*
X212331900Y-145813256D01*
X212107256Y-146037900D01*
X212000289Y-146197988D01*
X211803267Y-146154575D01*
X210891842Y-147066000D01*
X210905985Y-147080143D01*
X210834143Y-147151985D01*
X210820000Y-147137842D01*
X209908575Y-148049267D01*
X209969039Y-148323674D01*
X210230750Y-148465522D01*
X210515105Y-148553587D01*
X210811177Y-148584486D01*
X211107589Y-148557029D01*
X211150200Y-148544373D01*
X211150200Y-148707579D01*
X211196077Y-148938219D01*
X211286068Y-149155476D01*
X211389739Y-149310630D01*
X211123231Y-149363642D01*
X210837000Y-149482203D01*
X210579399Y-149654327D01*
X210360327Y-149873399D01*
X210312000Y-149945725D01*
X210263673Y-149873399D01*
X210044601Y-149654327D01*
X209787000Y-149482203D01*
X209500769Y-149363642D01*
X209196907Y-149303200D01*
X208887093Y-149303200D01*
X208583231Y-149363642D01*
X208297000Y-149482203D01*
X208039399Y-149654327D01*
X207823045Y-149870681D01*
X207711534Y-149779167D01*
X207798821Y-149568437D01*
X207860800Y-149256847D01*
X207860800Y-148939153D01*
X207798821Y-148627563D01*
X207677245Y-148334053D01*
X207500744Y-148069900D01*
X207276100Y-147845256D01*
X207011947Y-147668755D01*
X206718437Y-147547179D01*
X206563831Y-147516426D01*
X206786359Y-147397482D01*
X207031939Y-147195939D01*
X207145818Y-147057177D01*
X209301514Y-147057177D01*
X209328971Y-147353589D01*
X209413727Y-147638948D01*
X209552524Y-147902290D01*
X209562326Y-147916961D01*
X209836733Y-147977425D01*
X210748158Y-147066000D01*
X209836733Y-146154575D01*
X209562326Y-146215039D01*
X209420478Y-146476750D01*
X209332413Y-146761105D01*
X209301514Y-147057177D01*
X207145818Y-147057177D01*
X207233482Y-146950359D01*
X207383242Y-146670178D01*
X207475464Y-146366164D01*
X207503379Y-146082733D01*
X209908575Y-146082733D01*
X210820000Y-146994158D01*
X211731425Y-146082733D01*
X211670961Y-145808326D01*
X211409250Y-145666478D01*
X211124895Y-145578413D01*
X210828823Y-145547514D01*
X210532411Y-145574971D01*
X210247052Y-145659727D01*
X209983710Y-145798524D01*
X209969039Y-145808326D01*
X209908575Y-146082733D01*
X207503379Y-146082733D01*
X207506603Y-146050000D01*
X207475464Y-145733836D01*
X207383242Y-145429822D01*
X207233482Y-145149641D01*
X207031939Y-144904061D01*
X206880771Y-144780000D01*
X207031939Y-144655939D01*
X207173340Y-144483642D01*
X207273687Y-144453202D01*
X207450190Y-144358860D01*
X207604896Y-144231896D01*
X207636712Y-144193128D01*
X209312653Y-142517187D01*
X209326450Y-142524562D01*
G37*
G04 #@! TD.AperFunction*
D29*
X203940061Y-147195939D02*
X204185641Y-147397482D01*
X204465822Y-147547242D01*
X204769836Y-147639464D01*
X205006774Y-147662800D01*
X205498430Y-147662800D01*
X205484053Y-147668755D01*
X205219900Y-147845256D01*
X204995256Y-148069900D01*
X204818755Y-148334053D01*
X204697179Y-148627563D01*
X204635200Y-148939153D01*
X204635200Y-149256847D01*
X204697179Y-149568437D01*
X204712738Y-149606000D01*
X203775201Y-149606000D01*
X203775201Y-147292639D01*
X203909338Y-147158503D01*
X203940061Y-147195939D01*
G04 #@! TA.AperFunction,Conductor*
D32*
G36*
X203940061Y-147195939D02*
G01*
X204185641Y-147397482D01*
X204465822Y-147547242D01*
X204769836Y-147639464D01*
X205006774Y-147662800D01*
X205498430Y-147662800D01*
X205484053Y-147668755D01*
X205219900Y-147845256D01*
X204995256Y-148069900D01*
X204818755Y-148334053D01*
X204697179Y-148627563D01*
X204635200Y-148939153D01*
X204635200Y-149256847D01*
X204697179Y-149568437D01*
X204712738Y-149606000D01*
X203775201Y-149606000D01*
X203775201Y-147292639D01*
X203909338Y-147158503D01*
X203940061Y-147195939D01*
G37*
G04 #@! TD.AperFunction*
D29*
X212107256Y-133743100D02*
X212331900Y-133967744D01*
X212596053Y-134144245D01*
X212889563Y-134265821D01*
X213201153Y-134327800D01*
X213518847Y-134327800D01*
X213753601Y-134281105D01*
X213753601Y-134541927D01*
X213566732Y-134443653D01*
X213273271Y-134356783D01*
X213029800Y-134507425D01*
X213029800Y-135839200D01*
X213049800Y-135839200D01*
X213049800Y-135940800D01*
X213029800Y-135940800D01*
X213029800Y-135960800D01*
X212928200Y-135960800D01*
X212928200Y-135940800D01*
X212908200Y-135940800D01*
X212908200Y-135839200D01*
X212928200Y-135839200D01*
X212928200Y-134507425D01*
X212684729Y-134356783D01*
X212391268Y-134443653D01*
X212120393Y-134586105D01*
X211882514Y-134778665D01*
X211779219Y-134902818D01*
X211730581Y-134830027D01*
X211498973Y-134598419D01*
X211226631Y-134416445D01*
X211001665Y-134323261D01*
X211290437Y-134265821D01*
X211583947Y-134144245D01*
X211848100Y-133967744D01*
X212072744Y-133743100D01*
X212090000Y-133717275D01*
X212107256Y-133743100D01*
G04 #@! TA.AperFunction,Conductor*
D32*
G36*
X212107256Y-133743100D02*
G01*
X212331900Y-133967744D01*
X212596053Y-134144245D01*
X212889563Y-134265821D01*
X213201153Y-134327800D01*
X213518847Y-134327800D01*
X213753601Y-134281105D01*
X213753601Y-134541927D01*
X213566732Y-134443653D01*
X213273271Y-134356783D01*
X213029800Y-134507425D01*
X213029800Y-135839200D01*
X213049800Y-135839200D01*
X213049800Y-135940800D01*
X213029800Y-135940800D01*
X213029800Y-135960800D01*
X212928200Y-135960800D01*
X212928200Y-135940800D01*
X212908200Y-135940800D01*
X212908200Y-135839200D01*
X212928200Y-135839200D01*
X212928200Y-134507425D01*
X212684729Y-134356783D01*
X212391268Y-134443653D01*
X212120393Y-134586105D01*
X211882514Y-134778665D01*
X211779219Y-134902818D01*
X211730581Y-134830027D01*
X211498973Y-134598419D01*
X211226631Y-134416445D01*
X211001665Y-134323261D01*
X211290437Y-134265821D01*
X211583947Y-134144245D01*
X211848100Y-133967744D01*
X212072744Y-133743100D01*
X212090000Y-133717275D01*
X212107256Y-133743100D01*
G37*
G04 #@! TD.AperFunction*
D29*
X207947942Y-128870264D02*
X208172974Y-128938526D01*
X208348356Y-128955800D01*
X208348364Y-128955800D01*
X208407000Y-128961575D01*
X208465636Y-128955800D01*
X209266546Y-128955800D01*
X209207200Y-129254153D01*
X209207200Y-129571847D01*
X209269179Y-129883437D01*
X209390755Y-130176947D01*
X209567256Y-130441100D01*
X209791900Y-130665744D01*
X210056053Y-130842245D01*
X210349563Y-130963821D01*
X210515200Y-130996768D01*
X210515200Y-131131232D01*
X210349563Y-131164179D01*
X210056053Y-131285755D01*
X209791900Y-131462256D01*
X209567256Y-131686900D01*
X209390755Y-131951053D01*
X209269179Y-132244563D01*
X209207200Y-132556153D01*
X209207200Y-132873847D01*
X209269179Y-133185437D01*
X209390755Y-133478947D01*
X209567256Y-133743100D01*
X209791900Y-133967744D01*
X210056053Y-134144245D01*
X210262457Y-134229740D01*
X209953979Y-134291100D01*
X209651369Y-134416445D01*
X209379027Y-134598419D01*
X209147419Y-134830027D01*
X209117962Y-134874112D01*
X208969829Y-134888702D01*
X208778312Y-134946798D01*
X208739748Y-134967411D01*
X208601810Y-135041140D01*
X208447104Y-135168104D01*
X208415292Y-135206867D01*
X207859160Y-135763000D01*
X207783262Y-135763000D01*
X207798821Y-135725437D01*
X207860800Y-135413847D01*
X207860800Y-135096153D01*
X207798821Y-134784563D01*
X207677245Y-134491053D01*
X207500744Y-134226900D01*
X207316414Y-134042570D01*
X207328487Y-134013425D01*
X207356264Y-133961457D01*
X207373370Y-133905068D01*
X207395923Y-133850619D01*
X207407420Y-133792818D01*
X207424527Y-133736425D01*
X207430303Y-133677780D01*
X207441800Y-133619979D01*
X207441800Y-133561038D01*
X207447575Y-133502400D01*
X207441800Y-133443762D01*
X207441800Y-133384821D01*
X207433226Y-133341716D01*
X207501752Y-133305088D01*
X207625517Y-133203517D01*
X207727088Y-133079752D01*
X207802562Y-132938550D01*
X207849039Y-132785337D01*
X207864732Y-132626000D01*
X207864732Y-131026000D01*
X207849039Y-130866663D01*
X207802562Y-130713450D01*
X207727088Y-130572248D01*
X207625517Y-130448483D01*
X207501752Y-130346912D01*
X207360550Y-130271438D01*
X207207337Y-130224961D01*
X207048000Y-130209268D01*
X205448000Y-130209268D01*
X205288663Y-130224961D01*
X205135450Y-130271438D01*
X204994248Y-130346912D01*
X204870483Y-130448483D01*
X204768912Y-130572248D01*
X204702606Y-130696298D01*
X204540468Y-130564760D01*
X204278417Y-130426588D01*
X203994445Y-130342194D01*
X203758800Y-130493452D01*
X203758800Y-131775200D01*
X203778800Y-131775200D01*
X203778800Y-131876800D01*
X203758800Y-131876800D01*
X203758800Y-131896800D01*
X203657200Y-131896800D01*
X203657200Y-131876800D01*
X203637200Y-131876800D01*
X203637200Y-131775200D01*
X203657200Y-131775200D01*
X203657200Y-130493452D01*
X203421555Y-130342194D01*
X203137583Y-130426588D01*
X203123800Y-130433855D01*
X203123800Y-130140732D01*
X204508000Y-130140732D01*
X204667337Y-130125039D01*
X204820550Y-130078562D01*
X204961752Y-130003088D01*
X205085517Y-129901517D01*
X205187088Y-129777752D01*
X205198868Y-129755712D01*
X205219900Y-129776744D01*
X205484053Y-129953245D01*
X205777563Y-130074821D01*
X206089153Y-130136800D01*
X206406847Y-130136800D01*
X206718437Y-130074821D01*
X207011947Y-129953245D01*
X207276100Y-129776744D01*
X207500744Y-129552100D01*
X207677245Y-129287947D01*
X207798821Y-128994437D01*
X207835478Y-128810151D01*
X207947942Y-128870264D01*
G04 #@! TA.AperFunction,Conductor*
D32*
G36*
X207947942Y-128870264D02*
G01*
X208172974Y-128938526D01*
X208348356Y-128955800D01*
X208348364Y-128955800D01*
X208407000Y-128961575D01*
X208465636Y-128955800D01*
X209266546Y-128955800D01*
X209207200Y-129254153D01*
X209207200Y-129571847D01*
X209269179Y-129883437D01*
X209390755Y-130176947D01*
X209567256Y-130441100D01*
X209791900Y-130665744D01*
X210056053Y-130842245D01*
X210349563Y-130963821D01*
X210515200Y-130996768D01*
X210515200Y-131131232D01*
X210349563Y-131164179D01*
X210056053Y-131285755D01*
X209791900Y-131462256D01*
X209567256Y-131686900D01*
X209390755Y-131951053D01*
X209269179Y-132244563D01*
X209207200Y-132556153D01*
X209207200Y-132873847D01*
X209269179Y-133185437D01*
X209390755Y-133478947D01*
X209567256Y-133743100D01*
X209791900Y-133967744D01*
X210056053Y-134144245D01*
X210262457Y-134229740D01*
X209953979Y-134291100D01*
X209651369Y-134416445D01*
X209379027Y-134598419D01*
X209147419Y-134830027D01*
X209117962Y-134874112D01*
X208969829Y-134888702D01*
X208778312Y-134946798D01*
X208739748Y-134967411D01*
X208601810Y-135041140D01*
X208447104Y-135168104D01*
X208415292Y-135206867D01*
X207859160Y-135763000D01*
X207783262Y-135763000D01*
X207798821Y-135725437D01*
X207860800Y-135413847D01*
X207860800Y-135096153D01*
X207798821Y-134784563D01*
X207677245Y-134491053D01*
X207500744Y-134226900D01*
X207316414Y-134042570D01*
X207328487Y-134013425D01*
X207356264Y-133961457D01*
X207373370Y-133905068D01*
X207395923Y-133850619D01*
X207407420Y-133792818D01*
X207424527Y-133736425D01*
X207430303Y-133677780D01*
X207441800Y-133619979D01*
X207441800Y-133561038D01*
X207447575Y-133502400D01*
X207441800Y-133443762D01*
X207441800Y-133384821D01*
X207433226Y-133341716D01*
X207501752Y-133305088D01*
X207625517Y-133203517D01*
X207727088Y-133079752D01*
X207802562Y-132938550D01*
X207849039Y-132785337D01*
X207864732Y-132626000D01*
X207864732Y-131026000D01*
X207849039Y-130866663D01*
X207802562Y-130713450D01*
X207727088Y-130572248D01*
X207625517Y-130448483D01*
X207501752Y-130346912D01*
X207360550Y-130271438D01*
X207207337Y-130224961D01*
X207048000Y-130209268D01*
X205448000Y-130209268D01*
X205288663Y-130224961D01*
X205135450Y-130271438D01*
X204994248Y-130346912D01*
X204870483Y-130448483D01*
X204768912Y-130572248D01*
X204702606Y-130696298D01*
X204540468Y-130564760D01*
X204278417Y-130426588D01*
X203994445Y-130342194D01*
X203758800Y-130493452D01*
X203758800Y-131775200D01*
X203778800Y-131775200D01*
X203778800Y-131876800D01*
X203758800Y-131876800D01*
X203758800Y-131896800D01*
X203657200Y-131896800D01*
X203657200Y-131876800D01*
X203637200Y-131876800D01*
X203637200Y-131775200D01*
X203657200Y-131775200D01*
X203657200Y-130493452D01*
X203421555Y-130342194D01*
X203137583Y-130426588D01*
X203123800Y-130433855D01*
X203123800Y-130140732D01*
X204508000Y-130140732D01*
X204667337Y-130125039D01*
X204820550Y-130078562D01*
X204961752Y-130003088D01*
X205085517Y-129901517D01*
X205187088Y-129777752D01*
X205198868Y-129755712D01*
X205219900Y-129776744D01*
X205484053Y-129953245D01*
X205777563Y-130074821D01*
X206089153Y-130136800D01*
X206406847Y-130136800D01*
X206718437Y-130074821D01*
X207011947Y-129953245D01*
X207276100Y-129776744D01*
X207500744Y-129552100D01*
X207677245Y-129287947D01*
X207798821Y-128994437D01*
X207835478Y-128810151D01*
X207947942Y-128870264D01*
G37*
G04 #@! TD.AperFunction*
D29*
X203833985Y-135240858D02*
X203819842Y-135255000D01*
X203833985Y-135269143D01*
X203762143Y-135340985D01*
X203748000Y-135326842D01*
X203733858Y-135340985D01*
X203662016Y-135269143D01*
X203676158Y-135255000D01*
X203662016Y-135240858D01*
X203733858Y-135169016D01*
X203748000Y-135183158D01*
X203762143Y-135169016D01*
X203833985Y-135240858D01*
G04 #@! TA.AperFunction,Conductor*
D32*
G36*
X203833985Y-135240858D02*
G01*
X203819842Y-135255000D01*
X203833985Y-135269143D01*
X203762143Y-135340985D01*
X203748000Y-135326842D01*
X203733858Y-135340985D01*
X203662016Y-135269143D01*
X203676158Y-135255000D01*
X203662016Y-135240858D01*
X203733858Y-135169016D01*
X203748000Y-135183158D01*
X203762143Y-135169016D01*
X203833985Y-135240858D01*
G37*
G04 #@! TD.AperFunction*
D29*
X200482201Y-130433856D02*
X200468417Y-130426588D01*
X200184445Y-130342194D01*
X199948800Y-130493452D01*
X199948800Y-131775200D01*
X199968800Y-131775200D01*
X199968800Y-131876800D01*
X199948800Y-131876800D01*
X199948800Y-131896800D01*
X199847200Y-131896800D01*
X199847200Y-131876800D01*
X199827200Y-131876800D01*
X199827200Y-131775200D01*
X199847200Y-131775200D01*
X199847200Y-130493452D01*
X199611555Y-130342194D01*
X199593200Y-130347649D01*
X199593200Y-130140732D01*
X200482201Y-130140732D01*
X200482201Y-130433856D01*
G04 #@! TA.AperFunction,Conductor*
D32*
G36*
X200482201Y-130433856D02*
G01*
X200468417Y-130426588D01*
X200184445Y-130342194D01*
X199948800Y-130493452D01*
X199948800Y-131775200D01*
X199968800Y-131775200D01*
X199968800Y-131876800D01*
X199948800Y-131876800D01*
X199948800Y-131896800D01*
X199847200Y-131896800D01*
X199847200Y-131876800D01*
X199827200Y-131876800D01*
X199827200Y-131775200D01*
X199847200Y-131775200D01*
X199847200Y-130493452D01*
X199611555Y-130342194D01*
X199593200Y-130347649D01*
X199593200Y-130140732D01*
X200482201Y-130140732D01*
X200482201Y-130433856D01*
G37*
G04 #@! TD.AperFunction*
D29*
X211951268Y-60663000D02*
X211966961Y-60822337D01*
X212013438Y-60975550D01*
X212088912Y-61116752D01*
X212190483Y-61240517D01*
X212314248Y-61342088D01*
X212455450Y-61417562D01*
X212608663Y-61464039D01*
X212698556Y-61472892D01*
X212648661Y-61506231D01*
X212382231Y-61772661D01*
X212172899Y-62085950D01*
X212028708Y-62434057D01*
X211955200Y-62803606D01*
X211955200Y-63180394D01*
X212028708Y-63549943D01*
X212172899Y-63898050D01*
X212382231Y-64211339D01*
X212636092Y-64465200D01*
X209993122Y-64465200D01*
X209799078Y-64484312D01*
X209550106Y-64559836D01*
X209320653Y-64682482D01*
X209119535Y-64847535D01*
X208954482Y-65048653D01*
X208831836Y-65278106D01*
X208756312Y-65527078D01*
X208730810Y-65786000D01*
X208756312Y-66044922D01*
X208831836Y-66293894D01*
X208954482Y-66523347D01*
X209119535Y-66724465D01*
X209320653Y-66889518D01*
X209550106Y-67012164D01*
X209799078Y-67087688D01*
X209993122Y-67106800D01*
X210219268Y-67106800D01*
X210219268Y-67856000D01*
X210234961Y-68015337D01*
X210281438Y-68168550D01*
X210356912Y-68309752D01*
X210458483Y-68433517D01*
X210582248Y-68535088D01*
X210723450Y-68610562D01*
X210842794Y-68646765D01*
X210578326Y-68705039D01*
X210436478Y-68966750D01*
X210348413Y-69251105D01*
X210317514Y-69547177D01*
X210344971Y-69843589D01*
X210429727Y-70128948D01*
X210568524Y-70392290D01*
X210578326Y-70406961D01*
X210852733Y-70467425D01*
X211764158Y-69556000D01*
X211750016Y-69541858D01*
X211821858Y-69470016D01*
X211836000Y-69484158D01*
X211850143Y-69470016D01*
X211921985Y-69541858D01*
X211907842Y-69556000D01*
X212819267Y-70467425D01*
X212928201Y-70443422D01*
X212928201Y-72717764D01*
X212909481Y-72707758D01*
X212775420Y-72667091D01*
X212636000Y-72653359D01*
X212064600Y-72656800D01*
X211886800Y-72834600D01*
X211886800Y-74117200D01*
X211906800Y-74117200D01*
X211906800Y-74218800D01*
X211886800Y-74218800D01*
X211886800Y-74238800D01*
X211785200Y-74238800D01*
X211785200Y-74218800D01*
X210502600Y-74218800D01*
X210324800Y-74396600D01*
X210321359Y-74968000D01*
X210335091Y-75107420D01*
X210375758Y-75241481D01*
X210441798Y-75365033D01*
X210530673Y-75473327D01*
X210638967Y-75562202D01*
X210653295Y-75569861D01*
X210583256Y-75639900D01*
X210406755Y-75904053D01*
X210285179Y-76197563D01*
X210223200Y-76509153D01*
X210223200Y-76826847D01*
X210285179Y-77138437D01*
X210406755Y-77431947D01*
X210583256Y-77696100D01*
X210807900Y-77920744D01*
X211072053Y-78097245D01*
X211365563Y-78218821D01*
X211677153Y-78280800D01*
X211994847Y-78280800D01*
X212306437Y-78218821D01*
X212599947Y-78097245D01*
X212864100Y-77920744D01*
X212928200Y-77856644D01*
X212928200Y-80605907D01*
X211978732Y-81555376D01*
X211978732Y-80684000D01*
X211963039Y-80524663D01*
X211916562Y-80371450D01*
X211841088Y-80230248D01*
X211739517Y-80106483D01*
X211615752Y-80004912D01*
X211474550Y-79929438D01*
X211321337Y-79882961D01*
X211162000Y-79867268D01*
X209462000Y-79867268D01*
X209302663Y-79882961D01*
X209149450Y-79929438D01*
X209008248Y-80004912D01*
X208884483Y-80106483D01*
X208782912Y-80230248D01*
X208707438Y-80371450D01*
X208660961Y-80524663D01*
X208645268Y-80684000D01*
X208645268Y-82384000D01*
X208660961Y-82543337D01*
X208707438Y-82696550D01*
X208782912Y-82837752D01*
X208884483Y-82961517D01*
X208994937Y-83052164D01*
X208838445Y-83286369D01*
X208713100Y-83588979D01*
X208649200Y-83910228D01*
X208649200Y-84237772D01*
X208713100Y-84559021D01*
X208838445Y-84861631D01*
X209020419Y-85133973D01*
X209252027Y-85365581D01*
X209524369Y-85547555D01*
X209826979Y-85672900D01*
X210148228Y-85736800D01*
X210286513Y-85736800D01*
X212293200Y-87743488D01*
X212293200Y-88074141D01*
X212183248Y-88132912D01*
X212059483Y-88234483D01*
X211957912Y-88358248D01*
X211882438Y-88499450D01*
X211835961Y-88652663D01*
X211820268Y-88812000D01*
X211820268Y-90512000D01*
X211835961Y-90671337D01*
X211882438Y-90824550D01*
X211957912Y-90965752D01*
X212059483Y-91089517D01*
X212183248Y-91191088D01*
X212268881Y-91236860D01*
X212194772Y-91325933D01*
X212048690Y-91594868D01*
X211957881Y-91887134D01*
X211953785Y-91907729D01*
X212104533Y-92151200D01*
X213436200Y-92151200D01*
X213436200Y-92131200D01*
X213537800Y-92131200D01*
X213537800Y-92151200D01*
X213557800Y-92151200D01*
X213557800Y-92252800D01*
X213537800Y-92252800D01*
X213537800Y-94691200D01*
X213557800Y-94691200D01*
X213557800Y-94792800D01*
X213537800Y-94792800D01*
X213537800Y-97231200D01*
X213557800Y-97231200D01*
X213557800Y-97332800D01*
X213537800Y-97332800D01*
X213537800Y-97352800D01*
X213436200Y-97352800D01*
X213436200Y-97332800D01*
X212104533Y-97332800D01*
X211953785Y-97576271D01*
X211957881Y-97596866D01*
X212048690Y-97889132D01*
X212194772Y-98158067D01*
X212390514Y-98393335D01*
X212499795Y-98481797D01*
X212427027Y-98530419D01*
X212195419Y-98762027D01*
X212165962Y-98806112D01*
X212017829Y-98820702D01*
X211826313Y-98878798D01*
X211649810Y-98973140D01*
X211568611Y-99039778D01*
X211539464Y-98743836D01*
X211447242Y-98439822D01*
X211297482Y-98159641D01*
X211095939Y-97914061D01*
X210944771Y-97790000D01*
X211095939Y-97665939D01*
X211297482Y-97420359D01*
X211428874Y-97174542D01*
X211474975Y-97188526D01*
X211533615Y-97194302D01*
X211591421Y-97205800D01*
X211650357Y-97205800D01*
X211709000Y-97211576D01*
X211767644Y-97205800D01*
X211826579Y-97205800D01*
X211884385Y-97194302D01*
X211943026Y-97188526D01*
X211999414Y-97171421D01*
X212057219Y-97159923D01*
X212059751Y-97158874D01*
X212104533Y-97231200D01*
X213436200Y-97231200D01*
X213436200Y-94792800D01*
X213416200Y-94792800D01*
X213416200Y-94691200D01*
X213436200Y-94691200D01*
X213436200Y-92252800D01*
X212104533Y-92252800D01*
X211953785Y-92496271D01*
X211957881Y-92516866D01*
X212048690Y-92809132D01*
X212194772Y-93078067D01*
X212390514Y-93313335D01*
X212586521Y-93472000D01*
X212390514Y-93630665D01*
X212194772Y-93865933D01*
X212175570Y-93901283D01*
X211578615Y-93304328D01*
X211541228Y-93258772D01*
X211359449Y-93109589D01*
X211152058Y-92998736D01*
X210927026Y-92930474D01*
X210751644Y-92913200D01*
X210751636Y-92913200D01*
X210693000Y-92907425D01*
X210634364Y-92913200D01*
X209432421Y-92913200D01*
X209374616Y-92924698D01*
X209315974Y-92930474D01*
X209259586Y-92947579D01*
X209201781Y-92959077D01*
X209147333Y-92981630D01*
X209090942Y-92998736D01*
X209038970Y-93026516D01*
X208984524Y-93049068D01*
X208935524Y-93081809D01*
X208883551Y-93109589D01*
X208837998Y-93146973D01*
X208788997Y-93179715D01*
X208747323Y-93221389D01*
X208701772Y-93258772D01*
X208664389Y-93304323D01*
X208622715Y-93345997D01*
X208589973Y-93394998D01*
X208552589Y-93440551D01*
X208524809Y-93492524D01*
X208492068Y-93541524D01*
X208469516Y-93595970D01*
X208441736Y-93647942D01*
X208424630Y-93704333D01*
X208402077Y-93758781D01*
X208390579Y-93816586D01*
X208373474Y-93872974D01*
X208367698Y-93931615D01*
X208356200Y-93989421D01*
X208356200Y-94048356D01*
X208350424Y-94107000D01*
X208356200Y-94165644D01*
X208356200Y-94224579D01*
X208367698Y-94282385D01*
X208373474Y-94341026D01*
X208390579Y-94397414D01*
X208402077Y-94455219D01*
X208424630Y-94509667D01*
X208441736Y-94566058D01*
X208469516Y-94618030D01*
X208492068Y-94672476D01*
X208524809Y-94721476D01*
X208552589Y-94773449D01*
X208589973Y-94819002D01*
X208622715Y-94868003D01*
X208664388Y-94909676D01*
X208701772Y-94955228D01*
X208715445Y-94966450D01*
X208529822Y-95022758D01*
X208249641Y-95172518D01*
X208004061Y-95374061D01*
X207802518Y-95619641D01*
X207652758Y-95899822D01*
X207560536Y-96203836D01*
X207529397Y-96520000D01*
X207560536Y-96836164D01*
X207652758Y-97140178D01*
X207802518Y-97420359D01*
X208004061Y-97665939D01*
X208155229Y-97790000D01*
X208004061Y-97914061D01*
X207802518Y-98159641D01*
X207652758Y-98439822D01*
X207560536Y-98743836D01*
X207529397Y-99060000D01*
X207560536Y-99376164D01*
X207652758Y-99680178D01*
X207802518Y-99960359D01*
X208004061Y-100205939D01*
X208155229Y-100330000D01*
X208004061Y-100454061D01*
X207802518Y-100699641D01*
X207652758Y-100979822D01*
X207560536Y-101283836D01*
X207529397Y-101600000D01*
X207560536Y-101916164D01*
X207652758Y-102220178D01*
X207802518Y-102500359D01*
X208004061Y-102745939D01*
X208155229Y-102870000D01*
X208004061Y-102994061D01*
X207802518Y-103239641D01*
X207652758Y-103519822D01*
X207560536Y-103823836D01*
X207529397Y-104140000D01*
X207560536Y-104456164D01*
X207652758Y-104760178D01*
X207802518Y-105040359D01*
X208004061Y-105285939D01*
X208155229Y-105410000D01*
X208004061Y-105534061D01*
X207802518Y-105779641D01*
X207652758Y-106059822D01*
X207560536Y-106363836D01*
X207529397Y-106680000D01*
X207560536Y-106996164D01*
X207652758Y-107300178D01*
X207802518Y-107580359D01*
X208004061Y-107825939D01*
X208155229Y-107950000D01*
X208004061Y-108074061D01*
X207897422Y-108204000D01*
X207384232Y-108204000D01*
X207321476Y-108162068D01*
X207104219Y-108072077D01*
X206873579Y-108026200D01*
X206638421Y-108026200D01*
X206407781Y-108072077D01*
X206190524Y-108162068D01*
X205994997Y-108292715D01*
X205828715Y-108458997D01*
X205698068Y-108654524D01*
X205608077Y-108871781D01*
X205562200Y-109102421D01*
X205562200Y-109337579D01*
X205608077Y-109568219D01*
X205698068Y-109785476D01*
X205828715Y-109981003D01*
X205994997Y-110147285D01*
X206190524Y-110277932D01*
X206407781Y-110367923D01*
X206638421Y-110413800D01*
X206873579Y-110413800D01*
X207104219Y-110367923D01*
X207321476Y-110277932D01*
X207384232Y-110236000D01*
X207897422Y-110236000D01*
X208004061Y-110365939D01*
X208155229Y-110490000D01*
X208004061Y-110614061D01*
X207802518Y-110859641D01*
X207652758Y-111139822D01*
X207560536Y-111443836D01*
X207529397Y-111760000D01*
X207560536Y-112076164D01*
X207652758Y-112380178D01*
X207802518Y-112660359D01*
X208004061Y-112905939D01*
X208249641Y-113107482D01*
X208529822Y-113257242D01*
X208833836Y-113349464D01*
X209070774Y-113372800D01*
X210029226Y-113372800D01*
X210266164Y-113349464D01*
X210570178Y-113257242D01*
X210850359Y-113107482D01*
X211095939Y-112905939D01*
X211297482Y-112660359D01*
X211447242Y-112380178D01*
X211539464Y-112076164D01*
X211561318Y-111854267D01*
X212448575Y-111854267D01*
X212509039Y-112128674D01*
X212770750Y-112270522D01*
X213055105Y-112358587D01*
X213351177Y-112389486D01*
X213647589Y-112362029D01*
X213932948Y-112277273D01*
X214196290Y-112138476D01*
X214210961Y-112128674D01*
X214271425Y-111854267D01*
X213360000Y-110942842D01*
X212448575Y-111854267D01*
X211561318Y-111854267D01*
X211570603Y-111760000D01*
X211539464Y-111443836D01*
X211447242Y-111139822D01*
X211298838Y-110862177D01*
X211841514Y-110862177D01*
X211868971Y-111158589D01*
X211953727Y-111443948D01*
X212092524Y-111707290D01*
X212102326Y-111721961D01*
X212376733Y-111782425D01*
X213288158Y-110871000D01*
X212376733Y-109959575D01*
X212102326Y-110020039D01*
X211960478Y-110281750D01*
X211872413Y-110566105D01*
X211841514Y-110862177D01*
X211298838Y-110862177D01*
X211297482Y-110859641D01*
X211095939Y-110614061D01*
X210944771Y-110490000D01*
X211095939Y-110365939D01*
X211297482Y-110120359D01*
X211447242Y-109840178D01*
X211539464Y-109536164D01*
X211570603Y-109220000D01*
X211539464Y-108903836D01*
X211519796Y-108839000D01*
X211704820Y-108839000D01*
X211754722Y-108843915D01*
X211804624Y-108839000D01*
X211808616Y-108838607D01*
X211809179Y-108841437D01*
X211930755Y-109134947D01*
X212107256Y-109399100D01*
X212331900Y-109623744D01*
X212484305Y-109725578D01*
X212448575Y-109887733D01*
X213360000Y-110799158D01*
X214271425Y-109887733D01*
X214235695Y-109725578D01*
X214388100Y-109623744D01*
X214504200Y-109507644D01*
X214504200Y-109995036D01*
X214343267Y-109959575D01*
X213431842Y-110871000D01*
X214343267Y-111782425D01*
X214504200Y-111746964D01*
X214504200Y-113397355D01*
X214472550Y-113380438D01*
X214319337Y-113333961D01*
X214160000Y-113318268D01*
X212560000Y-113318268D01*
X212400663Y-113333961D01*
X212247450Y-113380438D01*
X212106248Y-113455912D01*
X211982483Y-113557483D01*
X211880912Y-113681248D01*
X211814606Y-113805298D01*
X211652468Y-113673760D01*
X211390417Y-113535588D01*
X211106445Y-113451194D01*
X210870800Y-113602452D01*
X210870800Y-114884200D01*
X210890800Y-114884200D01*
X210890800Y-114985800D01*
X210870800Y-114985800D01*
X210870800Y-116267548D01*
X211106445Y-116418806D01*
X211390417Y-116334412D01*
X211652468Y-116196240D01*
X211814606Y-116064702D01*
X211880912Y-116188752D01*
X211982483Y-116312517D01*
X212106248Y-116414088D01*
X212247450Y-116489562D01*
X212400663Y-116536039D01*
X212560000Y-116551732D01*
X212927002Y-116551732D01*
X212889563Y-116559179D01*
X212596053Y-116680755D01*
X212331900Y-116857256D01*
X212107256Y-117081900D01*
X212090000Y-117107725D01*
X212072744Y-117081900D01*
X211848100Y-116857256D01*
X211583947Y-116680755D01*
X211290437Y-116559179D01*
X210978847Y-116497200D01*
X210661153Y-116497200D01*
X210349563Y-116559179D01*
X210056053Y-116680755D01*
X209791900Y-116857256D01*
X209567256Y-117081900D01*
X209390755Y-117346053D01*
X209299706Y-117565865D01*
X208553648Y-116819808D01*
X208538923Y-116745781D01*
X208448932Y-116528524D01*
X208318285Y-116332997D01*
X208152003Y-116166715D01*
X207956476Y-116036068D01*
X207739219Y-115946077D01*
X207733192Y-115944878D01*
X207798821Y-115786437D01*
X207860800Y-115474847D01*
X207860800Y-115221445D01*
X209336196Y-115221445D01*
X209339525Y-115238187D01*
X209427121Y-115521188D01*
X209568244Y-115781662D01*
X209757472Y-116009599D01*
X209987532Y-116196240D01*
X210249583Y-116334412D01*
X210533555Y-116418806D01*
X210769200Y-116267548D01*
X210769200Y-114985800D01*
X209487568Y-114985800D01*
X209336196Y-115221445D01*
X207860800Y-115221445D01*
X207860800Y-115157153D01*
X207798821Y-114845563D01*
X207717218Y-114648555D01*
X209336196Y-114648555D01*
X209487568Y-114884200D01*
X210769200Y-114884200D01*
X210769200Y-113602452D01*
X210533555Y-113451194D01*
X210249583Y-113535588D01*
X209987532Y-113673760D01*
X209757472Y-113860401D01*
X209568244Y-114088338D01*
X209427121Y-114348812D01*
X209339525Y-114631813D01*
X209336196Y-114648555D01*
X207717218Y-114648555D01*
X207677245Y-114552053D01*
X207500744Y-114287900D01*
X207276100Y-114063256D01*
X207011947Y-113886755D01*
X206718437Y-113765179D01*
X206406847Y-113703200D01*
X206089153Y-113703200D01*
X205777563Y-113765179D01*
X205484053Y-113886755D01*
X205219900Y-114063256D01*
X204995256Y-114287900D01*
X204888289Y-114447988D01*
X204691267Y-114404575D01*
X203779842Y-115316000D01*
X204691267Y-116227425D01*
X204888289Y-116184012D01*
X204995256Y-116344100D01*
X205219900Y-116568744D01*
X205484053Y-116745245D01*
X205777563Y-116866821D01*
X206089153Y-116928800D01*
X206206672Y-116928800D01*
X206197200Y-116976421D01*
X206197200Y-117005200D01*
X206089153Y-117005200D01*
X205777563Y-117067179D01*
X205484053Y-117188755D01*
X205219900Y-117365256D01*
X204995256Y-117589900D01*
X204978000Y-117615725D01*
X204960744Y-117589900D01*
X204736100Y-117365256D01*
X204471947Y-117188755D01*
X204178437Y-117067179D01*
X203866847Y-117005200D01*
X203549153Y-117005200D01*
X203237563Y-117067179D01*
X203123800Y-117114301D01*
X203123800Y-116717086D01*
X203403105Y-116803587D01*
X203699177Y-116834486D01*
X203995589Y-116807029D01*
X204280948Y-116722273D01*
X204544290Y-116583476D01*
X204558961Y-116573674D01*
X204619425Y-116299267D01*
X203708000Y-115387842D01*
X203693858Y-115401985D01*
X203622016Y-115330143D01*
X203636158Y-115316000D01*
X203622016Y-115301858D01*
X203693858Y-115230016D01*
X203708000Y-115244158D01*
X204619425Y-114332733D01*
X204558961Y-114058326D01*
X204297250Y-113916478D01*
X204012895Y-113828413D01*
X203716823Y-113797514D01*
X203420411Y-113824971D01*
X203135052Y-113909727D01*
X203123800Y-113915657D01*
X203123800Y-113600122D01*
X203104688Y-113406078D01*
X203044282Y-113206943D01*
X203230359Y-113107482D01*
X203475939Y-112905939D01*
X203677482Y-112660359D01*
X203827242Y-112380178D01*
X203919464Y-112076164D01*
X203950603Y-111760000D01*
X203919464Y-111443836D01*
X203827242Y-111139822D01*
X203677482Y-110859641D01*
X203475939Y-110614061D01*
X203324771Y-110490000D01*
X203475939Y-110365939D01*
X203677482Y-110120359D01*
X203827242Y-109840178D01*
X203919464Y-109536164D01*
X203950603Y-109220000D01*
X203919464Y-108903836D01*
X203827242Y-108599822D01*
X203677482Y-108319641D01*
X203475939Y-108074061D01*
X203324771Y-107950000D01*
X203475939Y-107825939D01*
X203677482Y-107580359D01*
X203827242Y-107300178D01*
X203919464Y-106996164D01*
X203950603Y-106680000D01*
X203919464Y-106363836D01*
X203827242Y-106059822D01*
X203677482Y-105779641D01*
X203475939Y-105534061D01*
X203324771Y-105410000D01*
X203475939Y-105285939D01*
X203677482Y-105040359D01*
X203827242Y-104760178D01*
X203919464Y-104456164D01*
X203950603Y-104140000D01*
X203919464Y-103823836D01*
X203827242Y-103519822D01*
X203677482Y-103239641D01*
X203475939Y-102994061D01*
X203241826Y-102801929D01*
X203434500Y-102632659D01*
X203614739Y-102397339D01*
X203745606Y-102131378D01*
X203813804Y-101886445D01*
X203662432Y-101650800D01*
X201980800Y-101650800D01*
X201980800Y-101670800D01*
X201879200Y-101670800D01*
X201879200Y-101650800D01*
X200197568Y-101650800D01*
X200046196Y-101886445D01*
X200114394Y-102131378D01*
X200245261Y-102397339D01*
X200425500Y-102632659D01*
X200618174Y-102801929D01*
X200384061Y-102994061D01*
X200182518Y-103239641D01*
X200032758Y-103519822D01*
X199940536Y-103823836D01*
X199909397Y-104140000D01*
X199940536Y-104456164D01*
X200032758Y-104760178D01*
X200182518Y-105040359D01*
X200384061Y-105285939D01*
X200535229Y-105410000D01*
X200384061Y-105534061D01*
X200360804Y-105562400D01*
X200233925Y-105562400D01*
X199655800Y-104984276D01*
X199655800Y-104738228D01*
X199591900Y-104416979D01*
X199466555Y-104114369D01*
X199284581Y-103842027D01*
X199074554Y-103632000D01*
X199284581Y-103421973D01*
X199466555Y-103149631D01*
X199591900Y-102847021D01*
X199655800Y-102525772D01*
X199655800Y-102198228D01*
X199591900Y-101876979D01*
X199466555Y-101574369D01*
X199284581Y-101302027D01*
X199074554Y-101092000D01*
X199226954Y-100939600D01*
X199589104Y-100939600D01*
X199644000Y-100945007D01*
X199698896Y-100939600D01*
X199698899Y-100939600D01*
X199863088Y-100923429D01*
X200073756Y-100859523D01*
X200267909Y-100755746D01*
X200303679Y-100726390D01*
X200245261Y-100802661D01*
X200114394Y-101068622D01*
X200046196Y-101313555D01*
X200197568Y-101549200D01*
X201879200Y-101549200D01*
X201879200Y-101529200D01*
X201980800Y-101529200D01*
X201980800Y-101549200D01*
X203662432Y-101549200D01*
X203813804Y-101313555D01*
X203745606Y-101068622D01*
X203614739Y-100802661D01*
X203434500Y-100567341D01*
X203241826Y-100398071D01*
X203475939Y-100205939D01*
X203499196Y-100177600D01*
X203684704Y-100177600D01*
X203739600Y-100183007D01*
X203794496Y-100177600D01*
X203794499Y-100177600D01*
X203958688Y-100161429D01*
X204169356Y-100097523D01*
X204363509Y-99993746D01*
X204533686Y-99854086D01*
X204568686Y-99811438D01*
X205348442Y-99031683D01*
X205391086Y-98996686D01*
X205433668Y-98944800D01*
X205530746Y-98826510D01*
X205634523Y-98632356D01*
X205652352Y-98573581D01*
X205698429Y-98421688D01*
X205714600Y-98257499D01*
X205714600Y-98257496D01*
X205720007Y-98202600D01*
X205714600Y-98147704D01*
X205714600Y-93090800D01*
X205977640Y-93090800D01*
X206443788Y-92998078D01*
X206882890Y-92816196D01*
X207278071Y-92552145D01*
X207614145Y-92216071D01*
X207878196Y-91820890D01*
X208060078Y-91381788D01*
X208152800Y-90915640D01*
X208152800Y-90728800D01*
X208270579Y-90728800D01*
X208501219Y-90682923D01*
X208718476Y-90592932D01*
X208914003Y-90462285D01*
X209080285Y-90296003D01*
X209210932Y-90100476D01*
X209300923Y-89883219D01*
X209346800Y-89652579D01*
X209346800Y-89417421D01*
X209300923Y-89186781D01*
X209270600Y-89113575D01*
X209270600Y-88827896D01*
X209276007Y-88773000D01*
X209267062Y-88682178D01*
X209254429Y-88553912D01*
X209190523Y-88343244D01*
X209130040Y-88230088D01*
X209086746Y-88149090D01*
X208982082Y-88021557D01*
X208947086Y-87978914D01*
X208904442Y-87943917D01*
X208220086Y-87259562D01*
X208185086Y-87216914D01*
X208014909Y-87077254D01*
X207820756Y-86973477D01*
X207610088Y-86909571D01*
X207445899Y-86893400D01*
X207445896Y-86893400D01*
X207391000Y-86887993D01*
X207336104Y-86893400D01*
X204297925Y-86893400D01*
X203919356Y-86514832D01*
X203924437Y-86513821D01*
X204217947Y-86392245D01*
X204482100Y-86215744D01*
X204706744Y-85991100D01*
X204724000Y-85965275D01*
X204741256Y-85991100D01*
X204965900Y-86215744D01*
X205230053Y-86392245D01*
X205523563Y-86513821D01*
X205835153Y-86575800D01*
X206152847Y-86575800D01*
X206464437Y-86513821D01*
X206757947Y-86392245D01*
X207022100Y-86215744D01*
X207246744Y-85991100D01*
X207423245Y-85726947D01*
X207544821Y-85433437D01*
X207606800Y-85121847D01*
X207606800Y-84804153D01*
X207544821Y-84492563D01*
X207423245Y-84199053D01*
X207246744Y-83934900D01*
X207022100Y-83710256D01*
X206757947Y-83533755D01*
X206464437Y-83412179D01*
X206152847Y-83350200D01*
X205835153Y-83350200D01*
X205523563Y-83412179D01*
X205230053Y-83533755D01*
X204965900Y-83710256D01*
X204741256Y-83934900D01*
X204724000Y-83960725D01*
X204706744Y-83934900D01*
X204514975Y-83743131D01*
X204601923Y-83533219D01*
X204647800Y-83302579D01*
X204647800Y-83067421D01*
X204601923Y-82836781D01*
X204514975Y-82626869D01*
X204706744Y-82435100D01*
X204724000Y-82409275D01*
X204741256Y-82435100D01*
X204965900Y-82659744D01*
X205230053Y-82836245D01*
X205523563Y-82957821D01*
X205835153Y-83019800D01*
X206152847Y-83019800D01*
X206464437Y-82957821D01*
X206757947Y-82836245D01*
X207022100Y-82659744D01*
X207246744Y-82435100D01*
X207423245Y-82170947D01*
X207544821Y-81877437D01*
X207606800Y-81565847D01*
X207606800Y-81248153D01*
X207544821Y-80936563D01*
X207423245Y-80643053D01*
X207246744Y-80378900D01*
X207022100Y-80154256D01*
X206757947Y-79977755D01*
X206464437Y-79856179D01*
X206152847Y-79794200D01*
X205835153Y-79794200D01*
X205523563Y-79856179D01*
X205230053Y-79977755D01*
X204965900Y-80154256D01*
X204741256Y-80378900D01*
X204724000Y-80404725D01*
X204706744Y-80378900D01*
X204482100Y-80154256D01*
X204217947Y-79977755D01*
X203924437Y-79856179D01*
X203612847Y-79794200D01*
X203295153Y-79794200D01*
X202983563Y-79856179D01*
X202690053Y-79977755D01*
X202425900Y-80154256D01*
X202201256Y-80378900D01*
X202024755Y-80643053D01*
X201903179Y-80936563D01*
X201841200Y-81248153D01*
X201841200Y-81565847D01*
X201903179Y-81877437D01*
X201987636Y-82081333D01*
X201964912Y-82083571D01*
X201754244Y-82147477D01*
X201560090Y-82251254D01*
X201438717Y-82350863D01*
X201389914Y-82390914D01*
X201354917Y-82433558D01*
X200733600Y-83054876D01*
X200642744Y-82918900D01*
X200418100Y-82694256D01*
X200392275Y-82677000D01*
X200418100Y-82659744D01*
X200642744Y-82435100D01*
X200819245Y-82170947D01*
X200940821Y-81877437D01*
X201002800Y-81565847D01*
X201002800Y-81248153D01*
X200940821Y-80936563D01*
X200819245Y-80643053D01*
X200642744Y-80378900D01*
X200418100Y-80154256D01*
X200153947Y-79977755D01*
X199860437Y-79856179D01*
X199548847Y-79794200D01*
X199231153Y-79794200D01*
X198919563Y-79856179D01*
X198900931Y-79863897D01*
X199148100Y-79698744D01*
X199309271Y-79537573D01*
X199517107Y-79648664D01*
X199766079Y-79724188D01*
X200025000Y-79749690D01*
X200283922Y-79724188D01*
X200532894Y-79648664D01*
X200762347Y-79526018D01*
X200827832Y-79472276D01*
X201028900Y-79673344D01*
X201293053Y-79849845D01*
X201586563Y-79971421D01*
X201898153Y-80033400D01*
X202215847Y-80033400D01*
X202527437Y-79971421D01*
X202820947Y-79849845D01*
X203085100Y-79673344D01*
X203309744Y-79448700D01*
X203486245Y-79184547D01*
X203607821Y-78891037D01*
X203669800Y-78579447D01*
X203669800Y-78261753D01*
X203607821Y-77950163D01*
X203486245Y-77656653D01*
X203309744Y-77392500D01*
X203085100Y-77167856D01*
X202932695Y-77066022D01*
X202968425Y-76903867D01*
X202057000Y-75992442D01*
X202042858Y-76006585D01*
X201971016Y-75934743D01*
X201985158Y-75920600D01*
X202128842Y-75920600D01*
X203040267Y-76832025D01*
X203314674Y-76771561D01*
X203456522Y-76509850D01*
X203544587Y-76225495D01*
X203575486Y-75929423D01*
X203548029Y-75633011D01*
X203481819Y-75410093D01*
X203913200Y-75410093D01*
X203913200Y-75719907D01*
X203973642Y-76023769D01*
X204092203Y-76310000D01*
X204264327Y-76567601D01*
X204483399Y-76786673D01*
X204555725Y-76835000D01*
X204483399Y-76883327D01*
X204264327Y-77102399D01*
X204092203Y-77360000D01*
X203973642Y-77646231D01*
X203913200Y-77950093D01*
X203913200Y-78259907D01*
X203973642Y-78563769D01*
X204092203Y-78850000D01*
X204264327Y-79107601D01*
X204483399Y-79326673D01*
X204741000Y-79498797D01*
X205027231Y-79617358D01*
X205331093Y-79677800D01*
X205640907Y-79677800D01*
X205944769Y-79617358D01*
X206231000Y-79498797D01*
X206488601Y-79326673D01*
X206707673Y-79107601D01*
X206879797Y-78850000D01*
X206998358Y-78563769D01*
X207058800Y-78259907D01*
X207058800Y-77950093D01*
X206998358Y-77646231D01*
X206879797Y-77360000D01*
X206707673Y-77102399D01*
X206488601Y-76883327D01*
X206416275Y-76835000D01*
X206488601Y-76786673D01*
X206707673Y-76567601D01*
X206879797Y-76310000D01*
X206998358Y-76023769D01*
X207058800Y-75719907D01*
X207058800Y-75410093D01*
X206998358Y-75106231D01*
X206879797Y-74820000D01*
X206707673Y-74562399D01*
X206565773Y-74420499D01*
X206643033Y-74379202D01*
X206751327Y-74290327D01*
X206840202Y-74182033D01*
X206906242Y-74058481D01*
X206946909Y-73924420D01*
X206960641Y-73785000D01*
X206957941Y-73368000D01*
X210321359Y-73368000D01*
X210324800Y-73939400D01*
X210502600Y-74117200D01*
X211785200Y-74117200D01*
X211785200Y-72834600D01*
X211607400Y-72656800D01*
X211036000Y-72653359D01*
X210896580Y-72667091D01*
X210762519Y-72707758D01*
X210638967Y-72773798D01*
X210530673Y-72862673D01*
X210441798Y-72970967D01*
X210375758Y-73094519D01*
X210335091Y-73228580D01*
X210321359Y-73368000D01*
X206957941Y-73368000D01*
X206957200Y-73253600D01*
X206779400Y-73075800D01*
X205536800Y-73075800D01*
X205536800Y-73095800D01*
X205435200Y-73095800D01*
X205435200Y-73075800D01*
X204192600Y-73075800D01*
X204014800Y-73253600D01*
X204011359Y-73785000D01*
X204025091Y-73924420D01*
X204065758Y-74058481D01*
X204131798Y-74182033D01*
X204220673Y-74290327D01*
X204328967Y-74379202D01*
X204406227Y-74420499D01*
X204264327Y-74562399D01*
X204092203Y-74820000D01*
X203973642Y-75106231D01*
X203913200Y-75410093D01*
X203481819Y-75410093D01*
X203463273Y-75347652D01*
X203324476Y-75084310D01*
X203314674Y-75069639D01*
X203040267Y-75009175D01*
X202128842Y-75920600D01*
X201985158Y-75920600D01*
X201971016Y-75906458D01*
X202042858Y-75834616D01*
X202057000Y-75848758D01*
X202968425Y-74937333D01*
X202907961Y-74662926D01*
X202646250Y-74521078D01*
X202361895Y-74433013D01*
X202065823Y-74402114D01*
X201769411Y-74429571D01*
X201484052Y-74514327D01*
X201345800Y-74587194D01*
X201345800Y-74080092D01*
X202528821Y-72897072D01*
X202652517Y-72746348D01*
X202775163Y-72516894D01*
X202850687Y-72267923D01*
X202850974Y-72265000D01*
X204011359Y-72265000D01*
X204014800Y-72796400D01*
X204192600Y-72974200D01*
X205435200Y-72974200D01*
X205435200Y-72954200D01*
X205536800Y-72954200D01*
X205536800Y-72974200D01*
X206779400Y-72974200D01*
X206957200Y-72796400D01*
X206959490Y-72442732D01*
X207008000Y-72442732D01*
X207167337Y-72427039D01*
X207320550Y-72380562D01*
X207461752Y-72305088D01*
X207585517Y-72203517D01*
X207687088Y-72079752D01*
X207762562Y-71938550D01*
X207809039Y-71785337D01*
X207824732Y-71626000D01*
X207824732Y-70539267D01*
X210924575Y-70539267D01*
X210985039Y-70813674D01*
X211246750Y-70955522D01*
X211531105Y-71043587D01*
X211827177Y-71074486D01*
X212123589Y-71047029D01*
X212408948Y-70962273D01*
X212672290Y-70823476D01*
X212686961Y-70813674D01*
X212747425Y-70539267D01*
X211836000Y-69627842D01*
X210924575Y-70539267D01*
X207824732Y-70539267D01*
X207824732Y-70106000D01*
X207809039Y-69946663D01*
X207762562Y-69793450D01*
X207687088Y-69652248D01*
X207585517Y-69528483D01*
X207461752Y-69426912D01*
X207320550Y-69351438D01*
X207313859Y-69349408D01*
X207328556Y-69334711D01*
X207202827Y-69208982D01*
X207473138Y-69153323D01*
X207611000Y-68898414D01*
X207696483Y-68621507D01*
X207726301Y-68333244D01*
X207699309Y-68044702D01*
X207616544Y-67766971D01*
X207481187Y-67510723D01*
X207473138Y-67498677D01*
X207202825Y-67443017D01*
X206319842Y-68326000D01*
X206333985Y-68340143D01*
X206262143Y-68411985D01*
X206248000Y-68397842D01*
X206233858Y-68411985D01*
X206162016Y-68340143D01*
X206176158Y-68326000D01*
X205293175Y-67443017D01*
X205022862Y-67498677D01*
X204885000Y-67753586D01*
X204799517Y-68030493D01*
X204769699Y-68318756D01*
X204796691Y-68607298D01*
X204879456Y-68885029D01*
X205014813Y-69141277D01*
X205022862Y-69153323D01*
X205293173Y-69208982D01*
X205167444Y-69334711D01*
X205182141Y-69349408D01*
X205175450Y-69351438D01*
X205034248Y-69426912D01*
X204910483Y-69528483D01*
X204808912Y-69652248D01*
X204733438Y-69793450D01*
X204686961Y-69946663D01*
X204671268Y-70106000D01*
X204671268Y-71555750D01*
X204586580Y-71564091D01*
X204452519Y-71604758D01*
X204328967Y-71670798D01*
X204220673Y-71759673D01*
X204131798Y-71867967D01*
X204065758Y-71991519D01*
X204025091Y-72125580D01*
X204011359Y-72265000D01*
X202850974Y-72265000D01*
X202876189Y-72009001D01*
X202850687Y-71750079D01*
X202775163Y-71501107D01*
X202652517Y-71271654D01*
X202531910Y-71124694D01*
X202691894Y-71076164D01*
X202921347Y-70953518D01*
X203122465Y-70788465D01*
X203163827Y-70738065D01*
X204088070Y-69813822D01*
X204138465Y-69772465D01*
X204303518Y-69571347D01*
X204426164Y-69341894D01*
X204501688Y-69092922D01*
X204520800Y-68898878D01*
X204520800Y-68898870D01*
X204527189Y-68834000D01*
X204520800Y-68769130D01*
X204520800Y-64608978D01*
X204570483Y-64669517D01*
X204694248Y-64771088D01*
X204835450Y-64846562D01*
X204959067Y-64884061D01*
X204854203Y-65041000D01*
X204735642Y-65327231D01*
X204675200Y-65631093D01*
X204675200Y-65940907D01*
X204735642Y-66244769D01*
X204854203Y-66531000D01*
X205026327Y-66788601D01*
X205245399Y-67007673D01*
X205416346Y-67121896D01*
X205365017Y-67371175D01*
X206248000Y-68254158D01*
X207130983Y-67371175D01*
X207079654Y-67121896D01*
X207250601Y-67007673D01*
X207469673Y-66788601D01*
X207641797Y-66531000D01*
X207760358Y-66244769D01*
X207820800Y-65940907D01*
X207820800Y-65631093D01*
X207760358Y-65327231D01*
X207641797Y-65041000D01*
X207536933Y-64884061D01*
X207660550Y-64846562D01*
X207801752Y-64771088D01*
X207925517Y-64669517D01*
X208027088Y-64545752D01*
X208102562Y-64404550D01*
X208149039Y-64251337D01*
X208164732Y-64092000D01*
X208164732Y-61892000D01*
X208149039Y-61732663D01*
X208102562Y-61579450D01*
X208027088Y-61438248D01*
X207925517Y-61314483D01*
X207801752Y-61212912D01*
X207660550Y-61137438D01*
X207507337Y-61090961D01*
X207417444Y-61082108D01*
X207467339Y-61048769D01*
X207733769Y-60782339D01*
X207943101Y-60469050D01*
X208087292Y-60120943D01*
X208160800Y-59751394D01*
X208160800Y-59374606D01*
X208087292Y-59005057D01*
X208002272Y-58799800D01*
X211951268Y-58799800D01*
X211951268Y-60663000D01*
G04 #@! TA.AperFunction,Conductor*
D32*
G36*
X211951268Y-60663000D02*
G01*
X211966961Y-60822337D01*
X212013438Y-60975550D01*
X212088912Y-61116752D01*
X212190483Y-61240517D01*
X212314248Y-61342088D01*
X212455450Y-61417562D01*
X212608663Y-61464039D01*
X212698556Y-61472892D01*
X212648661Y-61506231D01*
X212382231Y-61772661D01*
X212172899Y-62085950D01*
X212028708Y-62434057D01*
X211955200Y-62803606D01*
X211955200Y-63180394D01*
X212028708Y-63549943D01*
X212172899Y-63898050D01*
X212382231Y-64211339D01*
X212636092Y-64465200D01*
X209993122Y-64465200D01*
X209799078Y-64484312D01*
X209550106Y-64559836D01*
X209320653Y-64682482D01*
X209119535Y-64847535D01*
X208954482Y-65048653D01*
X208831836Y-65278106D01*
X208756312Y-65527078D01*
X208730810Y-65786000D01*
X208756312Y-66044922D01*
X208831836Y-66293894D01*
X208954482Y-66523347D01*
X209119535Y-66724465D01*
X209320653Y-66889518D01*
X209550106Y-67012164D01*
X209799078Y-67087688D01*
X209993122Y-67106800D01*
X210219268Y-67106800D01*
X210219268Y-67856000D01*
X210234961Y-68015337D01*
X210281438Y-68168550D01*
X210356912Y-68309752D01*
X210458483Y-68433517D01*
X210582248Y-68535088D01*
X210723450Y-68610562D01*
X210842794Y-68646765D01*
X210578326Y-68705039D01*
X210436478Y-68966750D01*
X210348413Y-69251105D01*
X210317514Y-69547177D01*
X210344971Y-69843589D01*
X210429727Y-70128948D01*
X210568524Y-70392290D01*
X210578326Y-70406961D01*
X210852733Y-70467425D01*
X211764158Y-69556000D01*
X211750016Y-69541858D01*
X211821858Y-69470016D01*
X211836000Y-69484158D01*
X211850143Y-69470016D01*
X211921985Y-69541858D01*
X211907842Y-69556000D01*
X212819267Y-70467425D01*
X212928201Y-70443422D01*
X212928201Y-72717764D01*
X212909481Y-72707758D01*
X212775420Y-72667091D01*
X212636000Y-72653359D01*
X212064600Y-72656800D01*
X211886800Y-72834600D01*
X211886800Y-74117200D01*
X211906800Y-74117200D01*
X211906800Y-74218800D01*
X211886800Y-74218800D01*
X211886800Y-74238800D01*
X211785200Y-74238800D01*
X211785200Y-74218800D01*
X210502600Y-74218800D01*
X210324800Y-74396600D01*
X210321359Y-74968000D01*
X210335091Y-75107420D01*
X210375758Y-75241481D01*
X210441798Y-75365033D01*
X210530673Y-75473327D01*
X210638967Y-75562202D01*
X210653295Y-75569861D01*
X210583256Y-75639900D01*
X210406755Y-75904053D01*
X210285179Y-76197563D01*
X210223200Y-76509153D01*
X210223200Y-76826847D01*
X210285179Y-77138437D01*
X210406755Y-77431947D01*
X210583256Y-77696100D01*
X210807900Y-77920744D01*
X211072053Y-78097245D01*
X211365563Y-78218821D01*
X211677153Y-78280800D01*
X211994847Y-78280800D01*
X212306437Y-78218821D01*
X212599947Y-78097245D01*
X212864100Y-77920744D01*
X212928200Y-77856644D01*
X212928200Y-80605907D01*
X211978732Y-81555376D01*
X211978732Y-80684000D01*
X211963039Y-80524663D01*
X211916562Y-80371450D01*
X211841088Y-80230248D01*
X211739517Y-80106483D01*
X211615752Y-80004912D01*
X211474550Y-79929438D01*
X211321337Y-79882961D01*
X211162000Y-79867268D01*
X209462000Y-79867268D01*
X209302663Y-79882961D01*
X209149450Y-79929438D01*
X209008248Y-80004912D01*
X208884483Y-80106483D01*
X208782912Y-80230248D01*
X208707438Y-80371450D01*
X208660961Y-80524663D01*
X208645268Y-80684000D01*
X208645268Y-82384000D01*
X208660961Y-82543337D01*
X208707438Y-82696550D01*
X208782912Y-82837752D01*
X208884483Y-82961517D01*
X208994937Y-83052164D01*
X208838445Y-83286369D01*
X208713100Y-83588979D01*
X208649200Y-83910228D01*
X208649200Y-84237772D01*
X208713100Y-84559021D01*
X208838445Y-84861631D01*
X209020419Y-85133973D01*
X209252027Y-85365581D01*
X209524369Y-85547555D01*
X209826979Y-85672900D01*
X210148228Y-85736800D01*
X210286513Y-85736800D01*
X212293200Y-87743488D01*
X212293200Y-88074141D01*
X212183248Y-88132912D01*
X212059483Y-88234483D01*
X211957912Y-88358248D01*
X211882438Y-88499450D01*
X211835961Y-88652663D01*
X211820268Y-88812000D01*
X211820268Y-90512000D01*
X211835961Y-90671337D01*
X211882438Y-90824550D01*
X211957912Y-90965752D01*
X212059483Y-91089517D01*
X212183248Y-91191088D01*
X212268881Y-91236860D01*
X212194772Y-91325933D01*
X212048690Y-91594868D01*
X211957881Y-91887134D01*
X211953785Y-91907729D01*
X212104533Y-92151200D01*
X213436200Y-92151200D01*
X213436200Y-92131200D01*
X213537800Y-92131200D01*
X213537800Y-92151200D01*
X213557800Y-92151200D01*
X213557800Y-92252800D01*
X213537800Y-92252800D01*
X213537800Y-94691200D01*
X213557800Y-94691200D01*
X213557800Y-94792800D01*
X213537800Y-94792800D01*
X213537800Y-97231200D01*
X213557800Y-97231200D01*
X213557800Y-97332800D01*
X213537800Y-97332800D01*
X213537800Y-97352800D01*
X213436200Y-97352800D01*
X213436200Y-97332800D01*
X212104533Y-97332800D01*
X211953785Y-97576271D01*
X211957881Y-97596866D01*
X212048690Y-97889132D01*
X212194772Y-98158067D01*
X212390514Y-98393335D01*
X212499795Y-98481797D01*
X212427027Y-98530419D01*
X212195419Y-98762027D01*
X212165962Y-98806112D01*
X212017829Y-98820702D01*
X211826313Y-98878798D01*
X211649810Y-98973140D01*
X211568611Y-99039778D01*
X211539464Y-98743836D01*
X211447242Y-98439822D01*
X211297482Y-98159641D01*
X211095939Y-97914061D01*
X210944771Y-97790000D01*
X211095939Y-97665939D01*
X211297482Y-97420359D01*
X211428874Y-97174542D01*
X211474975Y-97188526D01*
X211533615Y-97194302D01*
X211591421Y-97205800D01*
X211650357Y-97205800D01*
X211709000Y-97211576D01*
X211767644Y-97205800D01*
X211826579Y-97205800D01*
X211884385Y-97194302D01*
X211943026Y-97188526D01*
X211999414Y-97171421D01*
X212057219Y-97159923D01*
X212059751Y-97158874D01*
X212104533Y-97231200D01*
X213436200Y-97231200D01*
X213436200Y-94792800D01*
X213416200Y-94792800D01*
X213416200Y-94691200D01*
X213436200Y-94691200D01*
X213436200Y-92252800D01*
X212104533Y-92252800D01*
X211953785Y-92496271D01*
X211957881Y-92516866D01*
X212048690Y-92809132D01*
X212194772Y-93078067D01*
X212390514Y-93313335D01*
X212586521Y-93472000D01*
X212390514Y-93630665D01*
X212194772Y-93865933D01*
X212175570Y-93901283D01*
X211578615Y-93304328D01*
X211541228Y-93258772D01*
X211359449Y-93109589D01*
X211152058Y-92998736D01*
X210927026Y-92930474D01*
X210751644Y-92913200D01*
X210751636Y-92913200D01*
X210693000Y-92907425D01*
X210634364Y-92913200D01*
X209432421Y-92913200D01*
X209374616Y-92924698D01*
X209315974Y-92930474D01*
X209259586Y-92947579D01*
X209201781Y-92959077D01*
X209147333Y-92981630D01*
X209090942Y-92998736D01*
X209038970Y-93026516D01*
X208984524Y-93049068D01*
X208935524Y-93081809D01*
X208883551Y-93109589D01*
X208837998Y-93146973D01*
X208788997Y-93179715D01*
X208747323Y-93221389D01*
X208701772Y-93258772D01*
X208664389Y-93304323D01*
X208622715Y-93345997D01*
X208589973Y-93394998D01*
X208552589Y-93440551D01*
X208524809Y-93492524D01*
X208492068Y-93541524D01*
X208469516Y-93595970D01*
X208441736Y-93647942D01*
X208424630Y-93704333D01*
X208402077Y-93758781D01*
X208390579Y-93816586D01*
X208373474Y-93872974D01*
X208367698Y-93931615D01*
X208356200Y-93989421D01*
X208356200Y-94048356D01*
X208350424Y-94107000D01*
X208356200Y-94165644D01*
X208356200Y-94224579D01*
X208367698Y-94282385D01*
X208373474Y-94341026D01*
X208390579Y-94397414D01*
X208402077Y-94455219D01*
X208424630Y-94509667D01*
X208441736Y-94566058D01*
X208469516Y-94618030D01*
X208492068Y-94672476D01*
X208524809Y-94721476D01*
X208552589Y-94773449D01*
X208589973Y-94819002D01*
X208622715Y-94868003D01*
X208664388Y-94909676D01*
X208701772Y-94955228D01*
X208715445Y-94966450D01*
X208529822Y-95022758D01*
X208249641Y-95172518D01*
X208004061Y-95374061D01*
X207802518Y-95619641D01*
X207652758Y-95899822D01*
X207560536Y-96203836D01*
X207529397Y-96520000D01*
X207560536Y-96836164D01*
X207652758Y-97140178D01*
X207802518Y-97420359D01*
X208004061Y-97665939D01*
X208155229Y-97790000D01*
X208004061Y-97914061D01*
X207802518Y-98159641D01*
X207652758Y-98439822D01*
X207560536Y-98743836D01*
X207529397Y-99060000D01*
X207560536Y-99376164D01*
X207652758Y-99680178D01*
X207802518Y-99960359D01*
X208004061Y-100205939D01*
X208155229Y-100330000D01*
X208004061Y-100454061D01*
X207802518Y-100699641D01*
X207652758Y-100979822D01*
X207560536Y-101283836D01*
X207529397Y-101600000D01*
X207560536Y-101916164D01*
X207652758Y-102220178D01*
X207802518Y-102500359D01*
X208004061Y-102745939D01*
X208155229Y-102870000D01*
X208004061Y-102994061D01*
X207802518Y-103239641D01*
X207652758Y-103519822D01*
X207560536Y-103823836D01*
X207529397Y-104140000D01*
X207560536Y-104456164D01*
X207652758Y-104760178D01*
X207802518Y-105040359D01*
X208004061Y-105285939D01*
X208155229Y-105410000D01*
X208004061Y-105534061D01*
X207802518Y-105779641D01*
X207652758Y-106059822D01*
X207560536Y-106363836D01*
X207529397Y-106680000D01*
X207560536Y-106996164D01*
X207652758Y-107300178D01*
X207802518Y-107580359D01*
X208004061Y-107825939D01*
X208155229Y-107950000D01*
X208004061Y-108074061D01*
X207897422Y-108204000D01*
X207384232Y-108204000D01*
X207321476Y-108162068D01*
X207104219Y-108072077D01*
X206873579Y-108026200D01*
X206638421Y-108026200D01*
X206407781Y-108072077D01*
X206190524Y-108162068D01*
X205994997Y-108292715D01*
X205828715Y-108458997D01*
X205698068Y-108654524D01*
X205608077Y-108871781D01*
X205562200Y-109102421D01*
X205562200Y-109337579D01*
X205608077Y-109568219D01*
X205698068Y-109785476D01*
X205828715Y-109981003D01*
X205994997Y-110147285D01*
X206190524Y-110277932D01*
X206407781Y-110367923D01*
X206638421Y-110413800D01*
X206873579Y-110413800D01*
X207104219Y-110367923D01*
X207321476Y-110277932D01*
X207384232Y-110236000D01*
X207897422Y-110236000D01*
X208004061Y-110365939D01*
X208155229Y-110490000D01*
X208004061Y-110614061D01*
X207802518Y-110859641D01*
X207652758Y-111139822D01*
X207560536Y-111443836D01*
X207529397Y-111760000D01*
X207560536Y-112076164D01*
X207652758Y-112380178D01*
X207802518Y-112660359D01*
X208004061Y-112905939D01*
X208249641Y-113107482D01*
X208529822Y-113257242D01*
X208833836Y-113349464D01*
X209070774Y-113372800D01*
X210029226Y-113372800D01*
X210266164Y-113349464D01*
X210570178Y-113257242D01*
X210850359Y-113107482D01*
X211095939Y-112905939D01*
X211297482Y-112660359D01*
X211447242Y-112380178D01*
X211539464Y-112076164D01*
X211561318Y-111854267D01*
X212448575Y-111854267D01*
X212509039Y-112128674D01*
X212770750Y-112270522D01*
X213055105Y-112358587D01*
X213351177Y-112389486D01*
X213647589Y-112362029D01*
X213932948Y-112277273D01*
X214196290Y-112138476D01*
X214210961Y-112128674D01*
X214271425Y-111854267D01*
X213360000Y-110942842D01*
X212448575Y-111854267D01*
X211561318Y-111854267D01*
X211570603Y-111760000D01*
X211539464Y-111443836D01*
X211447242Y-111139822D01*
X211298838Y-110862177D01*
X211841514Y-110862177D01*
X211868971Y-111158589D01*
X211953727Y-111443948D01*
X212092524Y-111707290D01*
X212102326Y-111721961D01*
X212376733Y-111782425D01*
X213288158Y-110871000D01*
X212376733Y-109959575D01*
X212102326Y-110020039D01*
X211960478Y-110281750D01*
X211872413Y-110566105D01*
X211841514Y-110862177D01*
X211298838Y-110862177D01*
X211297482Y-110859641D01*
X211095939Y-110614061D01*
X210944771Y-110490000D01*
X211095939Y-110365939D01*
X211297482Y-110120359D01*
X211447242Y-109840178D01*
X211539464Y-109536164D01*
X211570603Y-109220000D01*
X211539464Y-108903836D01*
X211519796Y-108839000D01*
X211704820Y-108839000D01*
X211754722Y-108843915D01*
X211804624Y-108839000D01*
X211808616Y-108838607D01*
X211809179Y-108841437D01*
X211930755Y-109134947D01*
X212107256Y-109399100D01*
X212331900Y-109623744D01*
X212484305Y-109725578D01*
X212448575Y-109887733D01*
X213360000Y-110799158D01*
X214271425Y-109887733D01*
X214235695Y-109725578D01*
X214388100Y-109623744D01*
X214504200Y-109507644D01*
X214504200Y-109995036D01*
X214343267Y-109959575D01*
X213431842Y-110871000D01*
X214343267Y-111782425D01*
X214504200Y-111746964D01*
X214504200Y-113397355D01*
X214472550Y-113380438D01*
X214319337Y-113333961D01*
X214160000Y-113318268D01*
X212560000Y-113318268D01*
X212400663Y-113333961D01*
X212247450Y-113380438D01*
X212106248Y-113455912D01*
X211982483Y-113557483D01*
X211880912Y-113681248D01*
X211814606Y-113805298D01*
X211652468Y-113673760D01*
X211390417Y-113535588D01*
X211106445Y-113451194D01*
X210870800Y-113602452D01*
X210870800Y-114884200D01*
X210890800Y-114884200D01*
X210890800Y-114985800D01*
X210870800Y-114985800D01*
X210870800Y-116267548D01*
X211106445Y-116418806D01*
X211390417Y-116334412D01*
X211652468Y-116196240D01*
X211814606Y-116064702D01*
X211880912Y-116188752D01*
X211982483Y-116312517D01*
X212106248Y-116414088D01*
X212247450Y-116489562D01*
X212400663Y-116536039D01*
X212560000Y-116551732D01*
X212927002Y-116551732D01*
X212889563Y-116559179D01*
X212596053Y-116680755D01*
X212331900Y-116857256D01*
X212107256Y-117081900D01*
X212090000Y-117107725D01*
X212072744Y-117081900D01*
X211848100Y-116857256D01*
X211583947Y-116680755D01*
X211290437Y-116559179D01*
X210978847Y-116497200D01*
X210661153Y-116497200D01*
X210349563Y-116559179D01*
X210056053Y-116680755D01*
X209791900Y-116857256D01*
X209567256Y-117081900D01*
X209390755Y-117346053D01*
X209299706Y-117565865D01*
X208553648Y-116819808D01*
X208538923Y-116745781D01*
X208448932Y-116528524D01*
X208318285Y-116332997D01*
X208152003Y-116166715D01*
X207956476Y-116036068D01*
X207739219Y-115946077D01*
X207733192Y-115944878D01*
X207798821Y-115786437D01*
X207860800Y-115474847D01*
X207860800Y-115221445D01*
X209336196Y-115221445D01*
X209339525Y-115238187D01*
X209427121Y-115521188D01*
X209568244Y-115781662D01*
X209757472Y-116009599D01*
X209987532Y-116196240D01*
X210249583Y-116334412D01*
X210533555Y-116418806D01*
X210769200Y-116267548D01*
X210769200Y-114985800D01*
X209487568Y-114985800D01*
X209336196Y-115221445D01*
X207860800Y-115221445D01*
X207860800Y-115157153D01*
X207798821Y-114845563D01*
X207717218Y-114648555D01*
X209336196Y-114648555D01*
X209487568Y-114884200D01*
X210769200Y-114884200D01*
X210769200Y-113602452D01*
X210533555Y-113451194D01*
X210249583Y-113535588D01*
X209987532Y-113673760D01*
X209757472Y-113860401D01*
X209568244Y-114088338D01*
X209427121Y-114348812D01*
X209339525Y-114631813D01*
X209336196Y-114648555D01*
X207717218Y-114648555D01*
X207677245Y-114552053D01*
X207500744Y-114287900D01*
X207276100Y-114063256D01*
X207011947Y-113886755D01*
X206718437Y-113765179D01*
X206406847Y-113703200D01*
X206089153Y-113703200D01*
X205777563Y-113765179D01*
X205484053Y-113886755D01*
X205219900Y-114063256D01*
X204995256Y-114287900D01*
X204888289Y-114447988D01*
X204691267Y-114404575D01*
X203779842Y-115316000D01*
X204691267Y-116227425D01*
X204888289Y-116184012D01*
X204995256Y-116344100D01*
X205219900Y-116568744D01*
X205484053Y-116745245D01*
X205777563Y-116866821D01*
X206089153Y-116928800D01*
X206206672Y-116928800D01*
X206197200Y-116976421D01*
X206197200Y-117005200D01*
X206089153Y-117005200D01*
X205777563Y-117067179D01*
X205484053Y-117188755D01*
X205219900Y-117365256D01*
X204995256Y-117589900D01*
X204978000Y-117615725D01*
X204960744Y-117589900D01*
X204736100Y-117365256D01*
X204471947Y-117188755D01*
X204178437Y-117067179D01*
X203866847Y-117005200D01*
X203549153Y-117005200D01*
X203237563Y-117067179D01*
X203123800Y-117114301D01*
X203123800Y-116717086D01*
X203403105Y-116803587D01*
X203699177Y-116834486D01*
X203995589Y-116807029D01*
X204280948Y-116722273D01*
X204544290Y-116583476D01*
X204558961Y-116573674D01*
X204619425Y-116299267D01*
X203708000Y-115387842D01*
X203693858Y-115401985D01*
X203622016Y-115330143D01*
X203636158Y-115316000D01*
X203622016Y-115301858D01*
X203693858Y-115230016D01*
X203708000Y-115244158D01*
X204619425Y-114332733D01*
X204558961Y-114058326D01*
X204297250Y-113916478D01*
X204012895Y-113828413D01*
X203716823Y-113797514D01*
X203420411Y-113824971D01*
X203135052Y-113909727D01*
X203123800Y-113915657D01*
X203123800Y-113600122D01*
X203104688Y-113406078D01*
X203044282Y-113206943D01*
X203230359Y-113107482D01*
X203475939Y-112905939D01*
X203677482Y-112660359D01*
X203827242Y-112380178D01*
X203919464Y-112076164D01*
X203950603Y-111760000D01*
X203919464Y-111443836D01*
X203827242Y-111139822D01*
X203677482Y-110859641D01*
X203475939Y-110614061D01*
X203324771Y-110490000D01*
X203475939Y-110365939D01*
X203677482Y-110120359D01*
X203827242Y-109840178D01*
X203919464Y-109536164D01*
X203950603Y-109220000D01*
X203919464Y-108903836D01*
X203827242Y-108599822D01*
X203677482Y-108319641D01*
X203475939Y-108074061D01*
X203324771Y-107950000D01*
X203475939Y-107825939D01*
X203677482Y-107580359D01*
X203827242Y-107300178D01*
X203919464Y-106996164D01*
X203950603Y-106680000D01*
X203919464Y-106363836D01*
X203827242Y-106059822D01*
X203677482Y-105779641D01*
X203475939Y-105534061D01*
X203324771Y-105410000D01*
X203475939Y-105285939D01*
X203677482Y-105040359D01*
X203827242Y-104760178D01*
X203919464Y-104456164D01*
X203950603Y-104140000D01*
X203919464Y-103823836D01*
X203827242Y-103519822D01*
X203677482Y-103239641D01*
X203475939Y-102994061D01*
X203241826Y-102801929D01*
X203434500Y-102632659D01*
X203614739Y-102397339D01*
X203745606Y-102131378D01*
X203813804Y-101886445D01*
X203662432Y-101650800D01*
X201980800Y-101650800D01*
X201980800Y-101670800D01*
X201879200Y-101670800D01*
X201879200Y-101650800D01*
X200197568Y-101650800D01*
X200046196Y-101886445D01*
X200114394Y-102131378D01*
X200245261Y-102397339D01*
X200425500Y-102632659D01*
X200618174Y-102801929D01*
X200384061Y-102994061D01*
X200182518Y-103239641D01*
X200032758Y-103519822D01*
X199940536Y-103823836D01*
X199909397Y-104140000D01*
X199940536Y-104456164D01*
X200032758Y-104760178D01*
X200182518Y-105040359D01*
X200384061Y-105285939D01*
X200535229Y-105410000D01*
X200384061Y-105534061D01*
X200360804Y-105562400D01*
X200233925Y-105562400D01*
X199655800Y-104984276D01*
X199655800Y-104738228D01*
X199591900Y-104416979D01*
X199466555Y-104114369D01*
X199284581Y-103842027D01*
X199074554Y-103632000D01*
X199284581Y-103421973D01*
X199466555Y-103149631D01*
X199591900Y-102847021D01*
X199655800Y-102525772D01*
X199655800Y-102198228D01*
X199591900Y-101876979D01*
X199466555Y-101574369D01*
X199284581Y-101302027D01*
X199074554Y-101092000D01*
X199226954Y-100939600D01*
X199589104Y-100939600D01*
X199644000Y-100945007D01*
X199698896Y-100939600D01*
X199698899Y-100939600D01*
X199863088Y-100923429D01*
X200073756Y-100859523D01*
X200267909Y-100755746D01*
X200303679Y-100726390D01*
X200245261Y-100802661D01*
X200114394Y-101068622D01*
X200046196Y-101313555D01*
X200197568Y-101549200D01*
X201879200Y-101549200D01*
X201879200Y-101529200D01*
X201980800Y-101529200D01*
X201980800Y-101549200D01*
X203662432Y-101549200D01*
X203813804Y-101313555D01*
X203745606Y-101068622D01*
X203614739Y-100802661D01*
X203434500Y-100567341D01*
X203241826Y-100398071D01*
X203475939Y-100205939D01*
X203499196Y-100177600D01*
X203684704Y-100177600D01*
X203739600Y-100183007D01*
X203794496Y-100177600D01*
X203794499Y-100177600D01*
X203958688Y-100161429D01*
X204169356Y-100097523D01*
X204363509Y-99993746D01*
X204533686Y-99854086D01*
X204568686Y-99811438D01*
X205348442Y-99031683D01*
X205391086Y-98996686D01*
X205433668Y-98944800D01*
X205530746Y-98826510D01*
X205634523Y-98632356D01*
X205652352Y-98573581D01*
X205698429Y-98421688D01*
X205714600Y-98257499D01*
X205714600Y-98257496D01*
X205720007Y-98202600D01*
X205714600Y-98147704D01*
X205714600Y-93090800D01*
X205977640Y-93090800D01*
X206443788Y-92998078D01*
X206882890Y-92816196D01*
X207278071Y-92552145D01*
X207614145Y-92216071D01*
X207878196Y-91820890D01*
X208060078Y-91381788D01*
X208152800Y-90915640D01*
X208152800Y-90728800D01*
X208270579Y-90728800D01*
X208501219Y-90682923D01*
X208718476Y-90592932D01*
X208914003Y-90462285D01*
X209080285Y-90296003D01*
X209210932Y-90100476D01*
X209300923Y-89883219D01*
X209346800Y-89652579D01*
X209346800Y-89417421D01*
X209300923Y-89186781D01*
X209270600Y-89113575D01*
X209270600Y-88827896D01*
X209276007Y-88773000D01*
X209267062Y-88682178D01*
X209254429Y-88553912D01*
X209190523Y-88343244D01*
X209130040Y-88230088D01*
X209086746Y-88149090D01*
X208982082Y-88021557D01*
X208947086Y-87978914D01*
X208904442Y-87943917D01*
X208220086Y-87259562D01*
X208185086Y-87216914D01*
X208014909Y-87077254D01*
X207820756Y-86973477D01*
X207610088Y-86909571D01*
X207445899Y-86893400D01*
X207445896Y-86893400D01*
X207391000Y-86887993D01*
X207336104Y-86893400D01*
X204297925Y-86893400D01*
X203919356Y-86514832D01*
X203924437Y-86513821D01*
X204217947Y-86392245D01*
X204482100Y-86215744D01*
X204706744Y-85991100D01*
X204724000Y-85965275D01*
X204741256Y-85991100D01*
X204965900Y-86215744D01*
X205230053Y-86392245D01*
X205523563Y-86513821D01*
X205835153Y-86575800D01*
X206152847Y-86575800D01*
X206464437Y-86513821D01*
X206757947Y-86392245D01*
X207022100Y-86215744D01*
X207246744Y-85991100D01*
X207423245Y-85726947D01*
X207544821Y-85433437D01*
X207606800Y-85121847D01*
X207606800Y-84804153D01*
X207544821Y-84492563D01*
X207423245Y-84199053D01*
X207246744Y-83934900D01*
X207022100Y-83710256D01*
X206757947Y-83533755D01*
X206464437Y-83412179D01*
X206152847Y-83350200D01*
X205835153Y-83350200D01*
X205523563Y-83412179D01*
X205230053Y-83533755D01*
X204965900Y-83710256D01*
X204741256Y-83934900D01*
X204724000Y-83960725D01*
X204706744Y-83934900D01*
X204514975Y-83743131D01*
X204601923Y-83533219D01*
X204647800Y-83302579D01*
X204647800Y-83067421D01*
X204601923Y-82836781D01*
X204514975Y-82626869D01*
X204706744Y-82435100D01*
X204724000Y-82409275D01*
X204741256Y-82435100D01*
X204965900Y-82659744D01*
X205230053Y-82836245D01*
X205523563Y-82957821D01*
X205835153Y-83019800D01*
X206152847Y-83019800D01*
X206464437Y-82957821D01*
X206757947Y-82836245D01*
X207022100Y-82659744D01*
X207246744Y-82435100D01*
X207423245Y-82170947D01*
X207544821Y-81877437D01*
X207606800Y-81565847D01*
X207606800Y-81248153D01*
X207544821Y-80936563D01*
X207423245Y-80643053D01*
X207246744Y-80378900D01*
X207022100Y-80154256D01*
X206757947Y-79977755D01*
X206464437Y-79856179D01*
X206152847Y-79794200D01*
X205835153Y-79794200D01*
X205523563Y-79856179D01*
X205230053Y-79977755D01*
X204965900Y-80154256D01*
X204741256Y-80378900D01*
X204724000Y-80404725D01*
X204706744Y-80378900D01*
X204482100Y-80154256D01*
X204217947Y-79977755D01*
X203924437Y-79856179D01*
X203612847Y-79794200D01*
X203295153Y-79794200D01*
X202983563Y-79856179D01*
X202690053Y-79977755D01*
X202425900Y-80154256D01*
X202201256Y-80378900D01*
X202024755Y-80643053D01*
X201903179Y-80936563D01*
X201841200Y-81248153D01*
X201841200Y-81565847D01*
X201903179Y-81877437D01*
X201987636Y-82081333D01*
X201964912Y-82083571D01*
X201754244Y-82147477D01*
X201560090Y-82251254D01*
X201438717Y-82350863D01*
X201389914Y-82390914D01*
X201354917Y-82433558D01*
X200733600Y-83054876D01*
X200642744Y-82918900D01*
X200418100Y-82694256D01*
X200392275Y-82677000D01*
X200418100Y-82659744D01*
X200642744Y-82435100D01*
X200819245Y-82170947D01*
X200940821Y-81877437D01*
X201002800Y-81565847D01*
X201002800Y-81248153D01*
X200940821Y-80936563D01*
X200819245Y-80643053D01*
X200642744Y-80378900D01*
X200418100Y-80154256D01*
X200153947Y-79977755D01*
X199860437Y-79856179D01*
X199548847Y-79794200D01*
X199231153Y-79794200D01*
X198919563Y-79856179D01*
X198900931Y-79863897D01*
X199148100Y-79698744D01*
X199309271Y-79537573D01*
X199517107Y-79648664D01*
X199766079Y-79724188D01*
X200025000Y-79749690D01*
X200283922Y-79724188D01*
X200532894Y-79648664D01*
X200762347Y-79526018D01*
X200827832Y-79472276D01*
X201028900Y-79673344D01*
X201293053Y-79849845D01*
X201586563Y-79971421D01*
X201898153Y-80033400D01*
X202215847Y-80033400D01*
X202527437Y-79971421D01*
X202820947Y-79849845D01*
X203085100Y-79673344D01*
X203309744Y-79448700D01*
X203486245Y-79184547D01*
X203607821Y-78891037D01*
X203669800Y-78579447D01*
X203669800Y-78261753D01*
X203607821Y-77950163D01*
X203486245Y-77656653D01*
X203309744Y-77392500D01*
X203085100Y-77167856D01*
X202932695Y-77066022D01*
X202968425Y-76903867D01*
X202057000Y-75992442D01*
X202042858Y-76006585D01*
X201971016Y-75934743D01*
X201985158Y-75920600D01*
X202128842Y-75920600D01*
X203040267Y-76832025D01*
X203314674Y-76771561D01*
X203456522Y-76509850D01*
X203544587Y-76225495D01*
X203575486Y-75929423D01*
X203548029Y-75633011D01*
X203481819Y-75410093D01*
X203913200Y-75410093D01*
X203913200Y-75719907D01*
X203973642Y-76023769D01*
X204092203Y-76310000D01*
X204264327Y-76567601D01*
X204483399Y-76786673D01*
X204555725Y-76835000D01*
X204483399Y-76883327D01*
X204264327Y-77102399D01*
X204092203Y-77360000D01*
X203973642Y-77646231D01*
X203913200Y-77950093D01*
X203913200Y-78259907D01*
X203973642Y-78563769D01*
X204092203Y-78850000D01*
X204264327Y-79107601D01*
X204483399Y-79326673D01*
X204741000Y-79498797D01*
X205027231Y-79617358D01*
X205331093Y-79677800D01*
X205640907Y-79677800D01*
X205944769Y-79617358D01*
X206231000Y-79498797D01*
X206488601Y-79326673D01*
X206707673Y-79107601D01*
X206879797Y-78850000D01*
X206998358Y-78563769D01*
X207058800Y-78259907D01*
X207058800Y-77950093D01*
X206998358Y-77646231D01*
X206879797Y-77360000D01*
X206707673Y-77102399D01*
X206488601Y-76883327D01*
X206416275Y-76835000D01*
X206488601Y-76786673D01*
X206707673Y-76567601D01*
X206879797Y-76310000D01*
X206998358Y-76023769D01*
X207058800Y-75719907D01*
X207058800Y-75410093D01*
X206998358Y-75106231D01*
X206879797Y-74820000D01*
X206707673Y-74562399D01*
X206565773Y-74420499D01*
X206643033Y-74379202D01*
X206751327Y-74290327D01*
X206840202Y-74182033D01*
X206906242Y-74058481D01*
X206946909Y-73924420D01*
X206960641Y-73785000D01*
X206957941Y-73368000D01*
X210321359Y-73368000D01*
X210324800Y-73939400D01*
X210502600Y-74117200D01*
X211785200Y-74117200D01*
X211785200Y-72834600D01*
X211607400Y-72656800D01*
X211036000Y-72653359D01*
X210896580Y-72667091D01*
X210762519Y-72707758D01*
X210638967Y-72773798D01*
X210530673Y-72862673D01*
X210441798Y-72970967D01*
X210375758Y-73094519D01*
X210335091Y-73228580D01*
X210321359Y-73368000D01*
X206957941Y-73368000D01*
X206957200Y-73253600D01*
X206779400Y-73075800D01*
X205536800Y-73075800D01*
X205536800Y-73095800D01*
X205435200Y-73095800D01*
X205435200Y-73075800D01*
X204192600Y-73075800D01*
X204014800Y-73253600D01*
X204011359Y-73785000D01*
X204025091Y-73924420D01*
X204065758Y-74058481D01*
X204131798Y-74182033D01*
X204220673Y-74290327D01*
X204328967Y-74379202D01*
X204406227Y-74420499D01*
X204264327Y-74562399D01*
X204092203Y-74820000D01*
X203973642Y-75106231D01*
X203913200Y-75410093D01*
X203481819Y-75410093D01*
X203463273Y-75347652D01*
X203324476Y-75084310D01*
X203314674Y-75069639D01*
X203040267Y-75009175D01*
X202128842Y-75920600D01*
X201985158Y-75920600D01*
X201971016Y-75906458D01*
X202042858Y-75834616D01*
X202057000Y-75848758D01*
X202968425Y-74937333D01*
X202907961Y-74662926D01*
X202646250Y-74521078D01*
X202361895Y-74433013D01*
X202065823Y-74402114D01*
X201769411Y-74429571D01*
X201484052Y-74514327D01*
X201345800Y-74587194D01*
X201345800Y-74080092D01*
X202528821Y-72897072D01*
X202652517Y-72746348D01*
X202775163Y-72516894D01*
X202850687Y-72267923D01*
X202850974Y-72265000D01*
X204011359Y-72265000D01*
X204014800Y-72796400D01*
X204192600Y-72974200D01*
X205435200Y-72974200D01*
X205435200Y-72954200D01*
X205536800Y-72954200D01*
X205536800Y-72974200D01*
X206779400Y-72974200D01*
X206957200Y-72796400D01*
X206959490Y-72442732D01*
X207008000Y-72442732D01*
X207167337Y-72427039D01*
X207320550Y-72380562D01*
X207461752Y-72305088D01*
X207585517Y-72203517D01*
X207687088Y-72079752D01*
X207762562Y-71938550D01*
X207809039Y-71785337D01*
X207824732Y-71626000D01*
X207824732Y-70539267D01*
X210924575Y-70539267D01*
X210985039Y-70813674D01*
X211246750Y-70955522D01*
X211531105Y-71043587D01*
X211827177Y-71074486D01*
X212123589Y-71047029D01*
X212408948Y-70962273D01*
X212672290Y-70823476D01*
X212686961Y-70813674D01*
X212747425Y-70539267D01*
X211836000Y-69627842D01*
X210924575Y-70539267D01*
X207824732Y-70539267D01*
X207824732Y-70106000D01*
X207809039Y-69946663D01*
X207762562Y-69793450D01*
X207687088Y-69652248D01*
X207585517Y-69528483D01*
X207461752Y-69426912D01*
X207320550Y-69351438D01*
X207313859Y-69349408D01*
X207328556Y-69334711D01*
X207202827Y-69208982D01*
X207473138Y-69153323D01*
X207611000Y-68898414D01*
X207696483Y-68621507D01*
X207726301Y-68333244D01*
X207699309Y-68044702D01*
X207616544Y-67766971D01*
X207481187Y-67510723D01*
X207473138Y-67498677D01*
X207202825Y-67443017D01*
X206319842Y-68326000D01*
X206333985Y-68340143D01*
X206262143Y-68411985D01*
X206248000Y-68397842D01*
X206233858Y-68411985D01*
X206162016Y-68340143D01*
X206176158Y-68326000D01*
X205293175Y-67443017D01*
X205022862Y-67498677D01*
X204885000Y-67753586D01*
X204799517Y-68030493D01*
X204769699Y-68318756D01*
X204796691Y-68607298D01*
X204879456Y-68885029D01*
X205014813Y-69141277D01*
X205022862Y-69153323D01*
X205293173Y-69208982D01*
X205167444Y-69334711D01*
X205182141Y-69349408D01*
X205175450Y-69351438D01*
X205034248Y-69426912D01*
X204910483Y-69528483D01*
X204808912Y-69652248D01*
X204733438Y-69793450D01*
X204686961Y-69946663D01*
X204671268Y-70106000D01*
X204671268Y-71555750D01*
X204586580Y-71564091D01*
X204452519Y-71604758D01*
X204328967Y-71670798D01*
X204220673Y-71759673D01*
X204131798Y-71867967D01*
X204065758Y-71991519D01*
X204025091Y-72125580D01*
X204011359Y-72265000D01*
X202850974Y-72265000D01*
X202876189Y-72009001D01*
X202850687Y-71750079D01*
X202775163Y-71501107D01*
X202652517Y-71271654D01*
X202531910Y-71124694D01*
X202691894Y-71076164D01*
X202921347Y-70953518D01*
X203122465Y-70788465D01*
X203163827Y-70738065D01*
X204088070Y-69813822D01*
X204138465Y-69772465D01*
X204303518Y-69571347D01*
X204426164Y-69341894D01*
X204501688Y-69092922D01*
X204520800Y-68898878D01*
X204520800Y-68898870D01*
X204527189Y-68834000D01*
X204520800Y-68769130D01*
X204520800Y-64608978D01*
X204570483Y-64669517D01*
X204694248Y-64771088D01*
X204835450Y-64846562D01*
X204959067Y-64884061D01*
X204854203Y-65041000D01*
X204735642Y-65327231D01*
X204675200Y-65631093D01*
X204675200Y-65940907D01*
X204735642Y-66244769D01*
X204854203Y-66531000D01*
X205026327Y-66788601D01*
X205245399Y-67007673D01*
X205416346Y-67121896D01*
X205365017Y-67371175D01*
X206248000Y-68254158D01*
X207130983Y-67371175D01*
X207079654Y-67121896D01*
X207250601Y-67007673D01*
X207469673Y-66788601D01*
X207641797Y-66531000D01*
X207760358Y-66244769D01*
X207820800Y-65940907D01*
X207820800Y-65631093D01*
X207760358Y-65327231D01*
X207641797Y-65041000D01*
X207536933Y-64884061D01*
X207660550Y-64846562D01*
X207801752Y-64771088D01*
X207925517Y-64669517D01*
X208027088Y-64545752D01*
X208102562Y-64404550D01*
X208149039Y-64251337D01*
X208164732Y-64092000D01*
X208164732Y-61892000D01*
X208149039Y-61732663D01*
X208102562Y-61579450D01*
X208027088Y-61438248D01*
X207925517Y-61314483D01*
X207801752Y-61212912D01*
X207660550Y-61137438D01*
X207507337Y-61090961D01*
X207417444Y-61082108D01*
X207467339Y-61048769D01*
X207733769Y-60782339D01*
X207943101Y-60469050D01*
X208087292Y-60120943D01*
X208160800Y-59751394D01*
X208160800Y-59374606D01*
X208087292Y-59005057D01*
X208002272Y-58799800D01*
X211951268Y-58799800D01*
X211951268Y-60663000D01*
G37*
G04 #@! TD.AperFunction*
D29*
X199983985Y-115301858D02*
X199969842Y-115316000D01*
X199983985Y-115330143D01*
X199912143Y-115401985D01*
X199898000Y-115387842D01*
X199883858Y-115401985D01*
X199812016Y-115330143D01*
X199826158Y-115316000D01*
X199812016Y-115301858D01*
X199883858Y-115230016D01*
X199898000Y-115244158D01*
X199912143Y-115230016D01*
X199983985Y-115301858D01*
G04 #@! TA.AperFunction,Conductor*
D32*
G36*
X199983985Y-115301858D02*
G01*
X199969842Y-115316000D01*
X199983985Y-115330143D01*
X199912143Y-115401985D01*
X199898000Y-115387842D01*
X199883858Y-115401985D01*
X199812016Y-115330143D01*
X199826158Y-115316000D01*
X199812016Y-115301858D01*
X199883858Y-115230016D01*
X199898000Y-115244158D01*
X199912143Y-115230016D01*
X199983985Y-115301858D01*
G37*
G04 #@! TD.AperFunction*
D29*
X197121256Y-109359100D02*
X197345900Y-109583744D01*
X197498305Y-109685578D01*
X197462575Y-109847733D01*
X198374000Y-110759158D01*
X198388143Y-110745016D01*
X198459985Y-110816858D01*
X198445842Y-110831000D01*
X198459985Y-110845143D01*
X198388143Y-110916985D01*
X198374000Y-110902842D01*
X197462575Y-111814267D01*
X197523039Y-112088674D01*
X197671188Y-112168971D01*
X197083807Y-112756352D01*
X197009781Y-112771077D01*
X196975800Y-112785152D01*
X196975800Y-111419265D01*
X197106524Y-111667290D01*
X197116326Y-111681961D01*
X197390733Y-111742425D01*
X198302158Y-110831000D01*
X197390733Y-109919575D01*
X197116326Y-109980039D01*
X196975800Y-110239311D01*
X196975800Y-109141409D01*
X197121256Y-109359100D01*
G04 #@! TA.AperFunction,Conductor*
D32*
G36*
X197121256Y-109359100D02*
G01*
X197345900Y-109583744D01*
X197498305Y-109685578D01*
X197462575Y-109847733D01*
X198374000Y-110759158D01*
X198388143Y-110745016D01*
X198459985Y-110816858D01*
X198445842Y-110831000D01*
X198459985Y-110845143D01*
X198388143Y-110916985D01*
X198374000Y-110902842D01*
X197462575Y-111814267D01*
X197523039Y-112088674D01*
X197671188Y-112168971D01*
X197083807Y-112756352D01*
X197009781Y-112771077D01*
X196975800Y-112785152D01*
X196975800Y-111419265D01*
X197106524Y-111667290D01*
X197116326Y-111681961D01*
X197390733Y-111742425D01*
X198302158Y-110831000D01*
X197390733Y-109919575D01*
X197116326Y-109980039D01*
X196975800Y-110239311D01*
X196975800Y-109141409D01*
X197121256Y-109359100D01*
G37*
G04 #@! TD.AperFunction*
D29*
X197082419Y-70909973D02*
X197314027Y-71141581D01*
X197586369Y-71323555D01*
X197888979Y-71448900D01*
X198210228Y-71512800D01*
X198537772Y-71512800D01*
X198859021Y-71448900D01*
X199161631Y-71323555D01*
X199390244Y-71170800D01*
X199897756Y-71170800D01*
X200126369Y-71323555D01*
X200296204Y-71393903D01*
X199136931Y-72553177D01*
X199086536Y-72594535D01*
X198921482Y-72795653D01*
X198798836Y-73025106D01*
X198723312Y-73274078D01*
X198704200Y-73468122D01*
X198704200Y-73468130D01*
X198697811Y-73533000D01*
X198704200Y-73597870D01*
X198704200Y-74544914D01*
X198424895Y-74458413D01*
X198128823Y-74427514D01*
X197832411Y-74454971D01*
X197547052Y-74539727D01*
X197283710Y-74678524D01*
X197269039Y-74688326D01*
X197208575Y-74962733D01*
X198120000Y-75874158D01*
X198134143Y-75860016D01*
X198205985Y-75931858D01*
X198191842Y-75946000D01*
X198205985Y-75960143D01*
X198134143Y-76031985D01*
X198120000Y-76017842D01*
X197208575Y-76929267D01*
X197244305Y-77091422D01*
X197091900Y-77193256D01*
X196975800Y-77309356D01*
X196975800Y-76821964D01*
X197136733Y-76857425D01*
X198048158Y-75946000D01*
X197136733Y-75034575D01*
X196975800Y-75070036D01*
X196975800Y-70750407D01*
X197082419Y-70909973D01*
G04 #@! TA.AperFunction,Conductor*
D32*
G36*
X197082419Y-70909973D02*
G01*
X197314027Y-71141581D01*
X197586369Y-71323555D01*
X197888979Y-71448900D01*
X198210228Y-71512800D01*
X198537772Y-71512800D01*
X198859021Y-71448900D01*
X199161631Y-71323555D01*
X199390244Y-71170800D01*
X199897756Y-71170800D01*
X200126369Y-71323555D01*
X200296204Y-71393903D01*
X199136931Y-72553177D01*
X199086536Y-72594535D01*
X198921482Y-72795653D01*
X198798836Y-73025106D01*
X198723312Y-73274078D01*
X198704200Y-73468122D01*
X198704200Y-73468130D01*
X198697811Y-73533000D01*
X198704200Y-73597870D01*
X198704200Y-74544914D01*
X198424895Y-74458413D01*
X198128823Y-74427514D01*
X197832411Y-74454971D01*
X197547052Y-74539727D01*
X197283710Y-74678524D01*
X197269039Y-74688326D01*
X197208575Y-74962733D01*
X198120000Y-75874158D01*
X198134143Y-75860016D01*
X198205985Y-75931858D01*
X198191842Y-75946000D01*
X198205985Y-75960143D01*
X198134143Y-76031985D01*
X198120000Y-76017842D01*
X197208575Y-76929267D01*
X197244305Y-77091422D01*
X197091900Y-77193256D01*
X196975800Y-77309356D01*
X196975800Y-76821964D01*
X197136733Y-76857425D01*
X198048158Y-75946000D01*
X197136733Y-75034575D01*
X196975800Y-75070036D01*
X196975800Y-70750407D01*
X197082419Y-70909973D01*
G37*
G04 #@! TD.AperFunction*
D29*
X198424800Y-62179200D02*
X200863200Y-62179200D01*
X200863200Y-62159200D01*
X200964800Y-62159200D01*
X200964800Y-62179200D01*
X200984800Y-62179200D01*
X200984800Y-62280800D01*
X200964800Y-62280800D01*
X200964800Y-64719200D01*
X200984800Y-64719200D01*
X200984800Y-64820800D01*
X200964800Y-64820800D01*
X200964800Y-67259200D01*
X200984800Y-67259200D01*
X200984800Y-67360800D01*
X200964800Y-67360800D01*
X200964800Y-67380800D01*
X200863200Y-67380800D01*
X200863200Y-67360800D01*
X198424800Y-67360800D01*
X198424800Y-67380800D01*
X198323200Y-67380800D01*
X198323200Y-67360800D01*
X198303200Y-67360800D01*
X198303200Y-67259200D01*
X198323200Y-67259200D01*
X198323200Y-64820800D01*
X198424800Y-64820800D01*
X198424800Y-67259200D01*
X200863200Y-67259200D01*
X200863200Y-64820800D01*
X198424800Y-64820800D01*
X198323200Y-64820800D01*
X198303200Y-64820800D01*
X198303200Y-64719200D01*
X198323200Y-64719200D01*
X198323200Y-62280800D01*
X198424800Y-62280800D01*
X198424800Y-64719200D01*
X200863200Y-64719200D01*
X200863200Y-62280800D01*
X198424800Y-62280800D01*
X198323200Y-62280800D01*
X198303200Y-62280800D01*
X198303200Y-62179200D01*
X198323200Y-62179200D01*
X198323200Y-62159200D01*
X198424800Y-62159200D01*
X198424800Y-62179200D01*
G04 #@! TA.AperFunction,Conductor*
D32*
G36*
X198424800Y-62179200D02*
G01*
X200863200Y-62179200D01*
X200863200Y-62159200D01*
X200964800Y-62159200D01*
X200964800Y-62179200D01*
X200984800Y-62179200D01*
X200984800Y-62280800D01*
X200964800Y-62280800D01*
X200964800Y-64719200D01*
X200984800Y-64719200D01*
X200984800Y-64820800D01*
X200964800Y-64820800D01*
X200964800Y-67259200D01*
X200984800Y-67259200D01*
X200984800Y-67360800D01*
X200964800Y-67360800D01*
X200964800Y-67380800D01*
X200863200Y-67380800D01*
X200863200Y-67360800D01*
X198424800Y-67360800D01*
X198424800Y-67380800D01*
X198323200Y-67380800D01*
X198323200Y-67360800D01*
X198303200Y-67360800D01*
X198303200Y-67259200D01*
X198323200Y-67259200D01*
X198323200Y-64820800D01*
X198424800Y-64820800D01*
X198424800Y-67259200D01*
X200863200Y-67259200D01*
X200863200Y-64820800D01*
X198424800Y-64820800D01*
X198323200Y-64820800D01*
X198303200Y-64820800D01*
X198303200Y-64719200D01*
X198323200Y-64719200D01*
X198323200Y-62280800D01*
X198424800Y-62280800D01*
X198424800Y-64719200D01*
X200863200Y-64719200D01*
X200863200Y-62280800D01*
X198424800Y-62280800D01*
X198323200Y-62280800D01*
X198303200Y-62280800D01*
X198303200Y-62179200D01*
X198323200Y-62179200D01*
X198323200Y-62159200D01*
X198424800Y-62159200D01*
X198424800Y-62179200D01*
G37*
G04 #@! TD.AperFunction*
G04 #@! TD*
M02*
