G04 #@! TF.GenerationSoftware,KiCad,Pcbnew,(5.1.9-0-10_14)*
G04 #@! TF.CreationDate,2021-02-07T03:37:40-06:00*
G04 #@! TF.ProjectId,JNTUB_board2,4a4e5455-425f-4626-9f61-7264322e6b69,rev?*
G04 #@! TF.SameCoordinates,Original*
G04 #@! TF.FileFunction,Copper,L1,Top*
G04 #@! TF.FilePolarity,Positive*
%FSLAX46Y46*%
G04 Gerber Fmt 4.6, Leading zero omitted, Abs format (unit mm)*
G04 Created by KiCad (PCBNEW (5.1.9-0-10_14)) date 2021-02-07 03:37:40*
%MOMM*%
%LPD*%
G01*
G04 APERTURE LIST*
G04 #@! TA.AperFunction,ComponentPad*
%ADD10O,1.600000X1.600000*%
G04 #@! TD*
G04 #@! TA.AperFunction,ComponentPad*
%ADD11C,1.600000*%
G04 #@! TD*
G04 #@! TA.AperFunction,ComponentPad*
%ADD12R,1.600000X1.600000*%
G04 #@! TD*
G04 #@! TA.AperFunction,ComponentPad*
%ADD13O,1.700000X1.700000*%
G04 #@! TD*
G04 #@! TA.AperFunction,ComponentPad*
%ADD14R,1.700000X1.700000*%
G04 #@! TD*
G04 #@! TA.AperFunction,ComponentPad*
%ADD15C,1.520000*%
G04 #@! TD*
G04 #@! TA.AperFunction,ComponentPad*
%ADD16R,1.520000X1.520000*%
G04 #@! TD*
G04 #@! TA.AperFunction,ComponentPad*
%ADD17O,2.200000X2.200000*%
G04 #@! TD*
G04 #@! TA.AperFunction,ComponentPad*
%ADD18R,2.200000X2.200000*%
G04 #@! TD*
G04 #@! TA.AperFunction,ComponentPad*
%ADD19O,2.400000X1.600000*%
G04 #@! TD*
G04 #@! TA.AperFunction,ComponentPad*
%ADD20R,2.400000X1.600000*%
G04 #@! TD*
G04 #@! TA.AperFunction,ViaPad*
%ADD21C,0.762000*%
G04 #@! TD*
G04 #@! TA.AperFunction,ViaPad*
%ADD22C,0.914400*%
G04 #@! TD*
G04 #@! TA.AperFunction,ViaPad*
%ADD23C,1.016000*%
G04 #@! TD*
G04 #@! TA.AperFunction,Conductor*
%ADD24C,1.016000*%
G04 #@! TD*
G04 #@! TA.AperFunction,Conductor*
%ADD25C,0.762000*%
G04 #@! TD*
G04 #@! TA.AperFunction,Conductor*
%ADD26C,0.609600*%
G04 #@! TD*
G04 #@! TA.AperFunction,Conductor*
%ADD27C,1.270000*%
G04 #@! TD*
G04 #@! TA.AperFunction,Conductor*
%ADD28C,0.406400*%
G04 #@! TD*
G04 #@! TA.AperFunction,Conductor*
%ADD29C,0.304800*%
G04 #@! TD*
G04 #@! TA.AperFunction,Conductor*
%ADD30C,0.254000*%
G04 #@! TD*
G04 #@! TA.AperFunction,Conductor*
%ADD31C,0.508000*%
G04 #@! TD*
G04 APERTURE END LIST*
D10*
G04 #@! TO.P,R22,2*
G04 #@! TO.N,Net-(C12-Pad1)*
X206248000Y-152019000D03*
D11*
G04 #@! TO.P,R22,1*
G04 #@! TO.N,/MainBoard/MCU_PWM*
X203708000Y-152019000D03*
G04 #@! TD*
D10*
G04 #@! TO.P,R26,2*
G04 #@! TO.N,/MainBoard/MCU_RESET*
X197358000Y-135128000D03*
D11*
G04 #@! TO.P,R26,1*
G04 #@! TO.N,+5V*
X199898000Y-135128000D03*
G04 #@! TD*
D10*
G04 #@! TO.P,R24,2*
G04 #@! TO.N,Net-(JP1-Pad1)*
X199390000Y-83947000D03*
D11*
G04 #@! TO.P,R24,1*
G04 #@! TO.N,+5V*
X199390000Y-81407000D03*
G04 #@! TD*
D10*
G04 #@! TO.P,R2,2*
G04 #@! TO.N,/MainBoard/MCU_ADC1*
X206248000Y-125222000D03*
D11*
G04 #@! TO.P,R2,1*
G04 #@! TO.N,+5V*
X203708000Y-125222000D03*
G04 #@! TD*
D10*
G04 #@! TO.P,R4,2*
G04 #@! TO.N,/MainBoard/MCU_ADC1*
X206248000Y-121920000D03*
D11*
G04 #@! TO.P,R4,1*
G04 #@! TO.N,Net-(R4-Pad1)*
X203708000Y-121920000D03*
G04 #@! TD*
D10*
G04 #@! TO.P,R5,2*
G04 #@! TO.N,Net-(R5-Pad2)*
X206248000Y-115316000D03*
D11*
G04 #@! TO.P,R5,1*
G04 #@! TO.N,GNDREF*
X203708000Y-115316000D03*
G04 #@! TD*
D10*
G04 #@! TO.P,R6,2*
G04 #@! TO.N,Net-(R4-Pad1)*
X206248000Y-118618000D03*
D11*
G04 #@! TO.P,R6,1*
G04 #@! TO.N,Net-(R5-Pad2)*
X203708000Y-118618000D03*
G04 #@! TD*
D10*
G04 #@! TO.P,R8,2*
G04 #@! TO.N,/MainBoard/MCU_ADC3*
X197358000Y-125222000D03*
D11*
G04 #@! TO.P,R8,1*
G04 #@! TO.N,+5V*
X199898000Y-125222000D03*
G04 #@! TD*
D10*
G04 #@! TO.P,R10,2*
G04 #@! TO.N,/MainBoard/MCU_ADC3*
X197358000Y-121920000D03*
D11*
G04 #@! TO.P,R10,1*
G04 #@! TO.N,Net-(R10-Pad1)*
X199898000Y-121920000D03*
G04 #@! TD*
D10*
G04 #@! TO.P,R11,2*
G04 #@! TO.N,Net-(R11-Pad2)*
X197358000Y-115316000D03*
D11*
G04 #@! TO.P,R11,1*
G04 #@! TO.N,GNDREF*
X199898000Y-115316000D03*
G04 #@! TD*
D10*
G04 #@! TO.P,R12,2*
G04 #@! TO.N,Net-(R11-Pad2)*
X197358000Y-118618000D03*
D11*
G04 #@! TO.P,R12,1*
G04 #@! TO.N,Net-(R10-Pad1)*
X199898000Y-118618000D03*
G04 #@! TD*
D10*
G04 #@! TO.P,R13,2*
G04 #@! TO.N,+5V*
X213360000Y-143764000D03*
D11*
G04 #@! TO.P,R13,1*
G04 #@! TO.N,Net-(Q1-Pad3)*
X210820000Y-143764000D03*
G04 #@! TD*
D10*
G04 #@! TO.P,R14,2*
G04 #@! TO.N,/MainBoard/MCU_PB0*
X213360000Y-129413000D03*
D11*
G04 #@! TO.P,R14,1*
G04 #@! TO.N,+5V*
X210820000Y-129413000D03*
G04 #@! TD*
D10*
G04 #@! TO.P,R16,2*
G04 #@! TO.N,/MainBoard/CLK_TRG*
X213360000Y-118110000D03*
D11*
G04 #@! TO.P,R16,1*
G04 #@! TO.N,Net-(D5-Pad1)*
X210820000Y-118110000D03*
G04 #@! TD*
D10*
G04 #@! TO.P,R18,2*
G04 #@! TO.N,Net-(Q1-Pad1)*
X213360000Y-147066000D03*
D11*
G04 #@! TO.P,R18,1*
G04 #@! TO.N,GNDREF*
X210820000Y-147066000D03*
G04 #@! TD*
D10*
G04 #@! TO.P,R19,2*
G04 #@! TO.N,Net-(Q3-Pad3)*
X213360000Y-126111000D03*
D11*
G04 #@! TO.P,R19,1*
G04 #@! TO.N,+5V*
X210820000Y-126111000D03*
G04 #@! TD*
D10*
G04 #@! TO.P,R20,2*
G04 #@! TO.N,/MainBoard/MCU_PB0*
X213360000Y-132715000D03*
D11*
G04 #@! TO.P,R20,1*
G04 #@! TO.N,Net-(Q3-Pad2)*
X210820000Y-132715000D03*
G04 #@! TD*
G04 #@! TO.P,R23,1*
G04 #@! TO.N,/MainBoard/LED_POS*
X203454000Y-84963000D03*
D10*
G04 #@! TO.P,R23,2*
G04 #@! TO.N,/MainBoard/OUT*
X205994000Y-84963000D03*
G04 #@! TD*
G04 #@! TO.P,R25,2*
G04 #@! TO.N,/MainBoard/OUT*
X205994000Y-81407000D03*
D11*
G04 #@! TO.P,R25,1*
G04 #@! TO.N,Net-(JP1-Pad1)*
X203454000Y-81407000D03*
G04 #@! TD*
D10*
G04 #@! TO.P,R27,2*
G04 #@! TO.N,Net-(C12-Pad1)*
X206248000Y-155321000D03*
D11*
G04 #@! TO.P,R27,1*
G04 #@! TO.N,Net-(JP2-Pad1)*
X203708000Y-155321000D03*
G04 #@! TD*
G04 #@! TO.P,R28,1*
G04 #@! TO.N,/MainBoard/MCU_PWM*
X197739000Y-155067000D03*
D10*
G04 #@! TO.P,R28,2*
G04 #@! TO.N,GNDREF*
X197739000Y-152527000D03*
G04 #@! TD*
D12*
G04 #@! TO.P,D5,1*
G04 #@! TO.N,Net-(D5-Pad1)*
X213360000Y-114935000D03*
D10*
G04 #@! TO.P,D5,2*
G04 #@! TO.N,GNDREF*
X210820000Y-114935000D03*
G04 #@! TD*
D12*
G04 #@! TO.P,D4,1*
G04 #@! TO.N,/MainBoard/MCU_ADC3*
X197358000Y-131826000D03*
D10*
G04 #@! TO.P,D4,2*
G04 #@! TO.N,GNDREF*
X199898000Y-131826000D03*
G04 #@! TD*
D12*
G04 #@! TO.P,D2,1*
G04 #@! TO.N,/MainBoard/MCU_ADC1*
X206248000Y-131826000D03*
D10*
G04 #@! TO.P,D2,2*
G04 #@! TO.N,GNDREF*
X203708000Y-131826000D03*
G04 #@! TD*
D12*
G04 #@! TO.P,D1,1*
G04 #@! TO.N,+5V*
X203708000Y-128524000D03*
D10*
G04 #@! TO.P,D1,2*
G04 #@! TO.N,/MainBoard/MCU_ADC1*
X206248000Y-128524000D03*
G04 #@! TD*
D12*
G04 #@! TO.P,D3,1*
G04 #@! TO.N,+5V*
X199898000Y-128524000D03*
D10*
G04 #@! TO.P,D3,2*
G04 #@! TO.N,/MainBoard/MCU_ADC3*
X197358000Y-128524000D03*
G04 #@! TD*
D13*
G04 #@! TO.P,JP2,2*
G04 #@! TO.N,/MainBoard/MCU_PWM*
X200660000Y-152273000D03*
D14*
G04 #@! TO.P,JP2,1*
G04 #@! TO.N,Net-(JP2-Pad1)*
X200660000Y-154813000D03*
G04 #@! TD*
D13*
G04 #@! TO.P,J10,7*
G04 #@! TO.N,/MainBoard/P2_AVG*
X197993000Y-104902000D03*
G04 #@! TO.P,J10,6*
G04 #@! TO.N,/MainBoard/MCU_ADC2*
X197993000Y-102362000D03*
G04 #@! TO.P,J10,5*
G04 #@! TO.N,/MainBoard/LED_POS*
X197993000Y-99822000D03*
G04 #@! TO.P,J10,4*
G04 #@! TO.N,/MainBoard/LED_NEG*
X197993000Y-97282000D03*
G04 #@! TO.P,J10,3*
G04 #@! TO.N,Net-(J10-Pad3)*
X197993000Y-94742000D03*
G04 #@! TO.P,J10,2*
G04 #@! TO.N,-5V*
X197993000Y-92202000D03*
D14*
G04 #@! TO.P,J10,1*
G04 #@! TO.N,+5V*
X197993000Y-89662000D03*
G04 #@! TD*
G04 #@! TO.P,J11,1*
G04 #@! TO.N,/MainBoard/OUT*
X213487000Y-89662000D03*
D13*
G04 #@! TO.P,J11,2*
G04 #@! TO.N,GNDREF*
X213487000Y-92202000D03*
G04 #@! TO.P,J11,3*
X213487000Y-94742000D03*
G04 #@! TO.P,J11,4*
X213487000Y-97282000D03*
G04 #@! TO.P,J11,5*
G04 #@! TO.N,/MainBoard/CLK_LED*
X213487000Y-99822000D03*
G04 #@! TO.P,J11,6*
G04 #@! TO.N,/MainBoard/CLK_TRG*
X213487000Y-102362000D03*
G04 #@! TO.P,J11,7*
G04 #@! TO.N,/MainBoard/P1_AVG*
X213487000Y-104902000D03*
G04 #@! TD*
D12*
G04 #@! TO.P,J12,1*
G04 #@! TO.N,/MainBoard/MCU_PWM*
X210439000Y-140970000D03*
D13*
G04 #@! TO.P,J12,2*
G04 #@! TO.N,+5V*
X212979000Y-140970000D03*
G04 #@! TO.P,J12,3*
G04 #@! TO.N,/MainBoard/MCU_ADC1*
X210439000Y-138430000D03*
G04 #@! TO.P,J12,4*
G04 #@! TO.N,/MainBoard/MCU_PB0*
X212979000Y-138430000D03*
G04 #@! TO.P,J12,5*
G04 #@! TO.N,/MainBoard/MCU_RESET*
X210439000Y-135890000D03*
G04 #@! TO.P,J12,6*
G04 #@! TO.N,GNDREF*
X212979000Y-135890000D03*
G04 #@! TD*
D14*
G04 #@! TO.P,JP1,1*
G04 #@! TO.N,Net-(JP1-Pad1)*
X210312000Y-81534000D03*
D13*
G04 #@! TO.P,JP1,2*
G04 #@! TO.N,/MainBoard/OUT*
X210312000Y-84074000D03*
G04 #@! TD*
D11*
G04 #@! TO.P,C12,2*
G04 #@! TO.N,GNDREF*
X201248000Y-149098000D03*
G04 #@! TO.P,C12,1*
G04 #@! TO.N,Net-(C12-Pad1)*
X206248000Y-149098000D03*
G04 #@! TD*
D15*
G04 #@! TO.P,U3,2*
G04 #@! TO.N,GNDREF*
X206248000Y-68326000D03*
G04 #@! TO.P,U3,3*
G04 #@! TO.N,+12V*
X206248000Y-65786000D03*
D16*
G04 #@! TO.P,U3,1*
G04 #@! TO.N,+5V*
X206248000Y-70866000D03*
G04 #@! TD*
D15*
G04 #@! TO.P,U4,2*
G04 #@! TO.N,-12V*
X205486000Y-75565000D03*
G04 #@! TO.P,U4,3*
G04 #@! TO.N,-5V*
X205486000Y-78105000D03*
D16*
G04 #@! TO.P,U4,1*
G04 #@! TO.N,GNDREF*
X205486000Y-73025000D03*
G04 #@! TD*
D11*
G04 #@! TO.P,C4,2*
G04 #@! TO.N,GNDREF*
X198120000Y-75946000D03*
G04 #@! TO.P,C4,1*
G04 #@! TO.N,+5V*
X198120000Y-78446000D03*
G04 #@! TD*
G04 #@! TO.P,C10,2*
G04 #@! TO.N,GNDREF*
X203748000Y-135255000D03*
G04 #@! TO.P,C10,1*
G04 #@! TO.N,+5V*
X206248000Y-135255000D03*
G04 #@! TD*
G04 #@! TO.P,C9,2*
G04 #@! TO.N,-12V*
X213360000Y-108371000D03*
G04 #@! TO.P,C9,1*
G04 #@! TO.N,GNDREF*
X213360000Y-110871000D03*
G04 #@! TD*
G04 #@! TO.P,C8,2*
G04 #@! TO.N,GNDREF*
X198374000Y-110831000D03*
G04 #@! TO.P,C8,1*
G04 #@! TO.N,+12V*
X198374000Y-108331000D03*
G04 #@! TD*
G04 #@! TO.P,C6,2*
G04 #@! TO.N,-5V*
X202057000Y-78420600D03*
G04 #@! TO.P,C6,1*
G04 #@! TO.N,GNDREF*
X202057000Y-75920600D03*
G04 #@! TD*
D17*
G04 #@! TO.P,D11,2*
G04 #@! TO.N,-12V*
X213868000Y-62992000D03*
D18*
G04 #@! TO.P,D11,1*
G04 #@! TO.N,Net-(D11-Pad1)*
X206248000Y-62992000D03*
G04 #@! TD*
G04 #@! TO.P,D10,1*
G04 #@! TO.N,+12V*
X213868000Y-59563000D03*
D17*
G04 #@! TO.P,D10,2*
G04 #@! TO.N,Net-(D10-Pad2)*
X206248000Y-59563000D03*
G04 #@! TD*
D12*
G04 #@! TO.P,C2,1*
G04 #@! TO.N,GNDREF*
X211836000Y-74168000D03*
D11*
G04 #@! TO.P,C2,2*
G04 #@! TO.N,-12V*
X211836000Y-76668000D03*
G04 #@! TD*
D12*
G04 #@! TO.P,C1,1*
G04 #@! TO.N,+12V*
X211836000Y-67056000D03*
D11*
G04 #@! TO.P,C1,2*
G04 #@! TO.N,GNDREF*
X211836000Y-69556000D03*
G04 #@! TD*
D19*
G04 #@! TO.P,U2,14*
G04 #@! TO.N,/MainBoard/OUT*
X209550000Y-96520000D03*
G04 #@! TO.P,U2,7*
G04 #@! TO.N,Net-(R10-Pad1)*
X201930000Y-111760000D03*
G04 #@! TO.P,U2,13*
G04 #@! TO.N,Net-(JP1-Pad1)*
X209550000Y-99060000D03*
G04 #@! TO.P,U2,6*
G04 #@! TO.N,Net-(R11-Pad2)*
X201930000Y-109220000D03*
G04 #@! TO.P,U2,12*
G04 #@! TO.N,Net-(C12-Pad1)*
X209550000Y-101600000D03*
G04 #@! TO.P,U2,5*
G04 #@! TO.N,/MainBoard/P2_AVG*
X201930000Y-106680000D03*
G04 #@! TO.P,U2,11*
G04 #@! TO.N,-12V*
X209550000Y-104140000D03*
G04 #@! TO.P,U2,4*
G04 #@! TO.N,+12V*
X201930000Y-104140000D03*
G04 #@! TO.P,U2,10*
G04 #@! TO.N,/MainBoard/P1_AVG*
X209550000Y-106680000D03*
G04 #@! TO.P,U2,3*
G04 #@! TO.N,GNDREF*
X201930000Y-101600000D03*
G04 #@! TO.P,U2,9*
G04 #@! TO.N,Net-(R5-Pad2)*
X209550000Y-109220000D03*
G04 #@! TO.P,U2,2*
G04 #@! TO.N,/MainBoard/LED_POS*
X201930000Y-99060000D03*
G04 #@! TO.P,U2,8*
G04 #@! TO.N,Net-(R4-Pad1)*
X209550000Y-111760000D03*
D20*
G04 #@! TO.P,U2,1*
G04 #@! TO.N,/MainBoard/LED_NEG*
X201930000Y-96520000D03*
G04 #@! TD*
G04 #@! TO.P,U1,1*
G04 #@! TO.N,/MainBoard/MCU_RESET*
X197866000Y-138430000D03*
D19*
G04 #@! TO.P,U1,5*
G04 #@! TO.N,/MainBoard/MCU_PB0*
X205486000Y-146050000D03*
G04 #@! TO.P,U1,2*
G04 #@! TO.N,/MainBoard/MCU_ADC3*
X197866000Y-140970000D03*
G04 #@! TO.P,U1,6*
G04 #@! TO.N,/MainBoard/MCU_PWM*
X205486000Y-143510000D03*
G04 #@! TO.P,U1,3*
G04 #@! TO.N,/MainBoard/MCU_ADC2*
X197866000Y-143510000D03*
G04 #@! TO.P,U1,7*
G04 #@! TO.N,/MainBoard/MCU_ADC1*
X205486000Y-140970000D03*
G04 #@! TO.P,U1,4*
G04 #@! TO.N,GNDREF*
X197866000Y-146050000D03*
G04 #@! TO.P,U1,8*
G04 #@! TO.N,+5V*
X205486000Y-138430000D03*
G04 #@! TD*
D13*
G04 #@! TO.P,J9,10*
G04 #@! TO.N,Net-(D11-Pad1)*
X198374000Y-69850000D03*
G04 #@! TO.P,J9,9*
X200914000Y-69850000D03*
G04 #@! TO.P,J9,8*
G04 #@! TO.N,GNDREF*
X198374000Y-67310000D03*
G04 #@! TO.P,J9,7*
X200914000Y-67310000D03*
G04 #@! TO.P,J9,6*
X198374000Y-64770000D03*
G04 #@! TO.P,J9,5*
X200914000Y-64770000D03*
G04 #@! TO.P,J9,4*
X198374000Y-62230000D03*
G04 #@! TO.P,J9,3*
X200914000Y-62230000D03*
G04 #@! TO.P,J9,2*
G04 #@! TO.N,Net-(D10-Pad2)*
X198374000Y-59690000D03*
D14*
G04 #@! TO.P,J9,1*
X200914000Y-59690000D03*
G04 #@! TD*
D15*
G04 #@! TO.P,Q1,2*
G04 #@! TO.N,Net-(D5-Pad1)*
X211582000Y-150876000D03*
G04 #@! TO.P,Q1,3*
G04 #@! TO.N,Net-(Q1-Pad3)*
X209042000Y-150876000D03*
D16*
G04 #@! TO.P,Q1,1*
G04 #@! TO.N,Net-(Q1-Pad1)*
X214122000Y-150876000D03*
G04 #@! TD*
D15*
G04 #@! TO.P,Q2,2*
G04 #@! TO.N,Net-(Q1-Pad3)*
X211582000Y-155702000D03*
G04 #@! TO.P,Q2,3*
G04 #@! TO.N,/MainBoard/MCU_PB0*
X209042000Y-155702000D03*
D16*
G04 #@! TO.P,Q2,1*
G04 #@! TO.N,Net-(Q1-Pad1)*
X214122000Y-155702000D03*
G04 #@! TD*
D15*
G04 #@! TO.P,Q3,2*
G04 #@! TO.N,Net-(Q3-Pad2)*
X210947000Y-122453400D03*
G04 #@! TO.P,Q3,3*
G04 #@! TO.N,Net-(Q3-Pad3)*
X213487000Y-122453400D03*
D16*
G04 #@! TO.P,Q3,1*
G04 #@! TO.N,/MainBoard/CLK_LED*
X208407000Y-122453400D03*
G04 #@! TD*
D21*
G04 #@! TO.N,+12V*
X212344000Y-83058000D03*
X210058000Y-65786000D03*
D22*
G04 #@! TO.N,GNDREF*
X204978000Y-130167038D03*
D23*
X213360000Y-112395000D03*
D22*
X211074000Y-116141500D03*
X209550000Y-73025000D03*
X203708000Y-116649500D03*
X203962000Y-147574000D03*
X210820000Y-148717000D03*
D21*
G04 #@! TO.N,+5V*
X203073000Y-94107000D03*
X203708000Y-126873000D03*
X199898000Y-123698000D03*
X203708000Y-123698000D03*
X210820000Y-127762000D03*
X206248000Y-133502400D03*
X201803000Y-132461000D03*
X211709000Y-131064000D03*
X201549000Y-72009000D03*
X200025000Y-78422500D03*
X201803000Y-113665000D03*
G04 #@! TO.N,-12V*
X209550000Y-94107000D03*
X211709000Y-96012000D03*
G04 #@! TO.N,Net-(C12-Pad1)*
X208280000Y-125222000D03*
X207391000Y-117094000D03*
G04 #@! TO.N,/MainBoard/MCU_ADC2*
X201549000Y-136525000D03*
X198628000Y-122936000D03*
G04 #@! TO.N,/MainBoard/MCU_ADC1*
X207772000Y-138430000D03*
G04 #@! TO.N,Net-(JP1-Pad1)*
X208153000Y-89535000D03*
X199390000Y-85598000D03*
X203454000Y-83185000D03*
G04 #@! TO.N,Net-(Q1-Pad1)*
X212344000Y-148590000D03*
X214503600Y-149289100D03*
G04 #@! TO.N,/MainBoard/MCU_PB0*
X207645000Y-141478000D03*
X207772000Y-153162000D03*
G04 #@! TO.N,Net-(R10-Pad1)*
X199898000Y-120269000D03*
G04 #@! TO.N,Net-(D11-Pad1)*
X203200000Y-62992000D03*
G04 #@! TO.N,Net-(R5-Pad2)*
X206756000Y-109220000D03*
G04 #@! TO.N,Net-(R11-Pad2)*
X197358000Y-113919000D03*
G04 #@! TO.N,/MainBoard/LED_POS*
X201803000Y-87884000D03*
G04 #@! TO.N,/MainBoard/CLK_LED*
X211455000Y-106807000D03*
G04 #@! TD*
D24*
G04 #@! TO.N,+12V*
X213868000Y-59563000D02*
X213868000Y-59690000D01*
D25*
X201930000Y-104140000D02*
X199771000Y-104140000D01*
X199771000Y-104140000D02*
X199771000Y-102108000D01*
X199771000Y-102108000D02*
X199771000Y-94361000D01*
D24*
X199771000Y-93980000D02*
X199771000Y-94361000D01*
X200152000Y-93599000D02*
X199771000Y-93980000D01*
X201422000Y-93599000D02*
X200152000Y-93599000D01*
X202565000Y-92456000D02*
X201422000Y-93599000D01*
X202565000Y-89662000D02*
X202565000Y-92456000D01*
X204470000Y-87757000D02*
X202565000Y-89662000D01*
X212344000Y-85217000D02*
X209804000Y-87757000D01*
X209804000Y-87757000D02*
X204470000Y-87757000D01*
X210058000Y-59563000D02*
X210058000Y-65786000D01*
X212344000Y-83058000D02*
X212344000Y-85217000D01*
X213868000Y-59563000D02*
X210058000Y-59563000D01*
D25*
X199771000Y-104140000D02*
X199771000Y-105791000D01*
X198374000Y-107188000D02*
X198374000Y-108331000D01*
X199771000Y-105791000D02*
X198374000Y-107188000D01*
D24*
X211836000Y-65913000D02*
X211836000Y-67056000D01*
X206248000Y-65786000D02*
X210439000Y-65786000D01*
X210439000Y-65786000D02*
X211709000Y-65786000D01*
X211709000Y-65786000D02*
X211836000Y-65913000D01*
G04 #@! TO.N,GNDREF*
X211582000Y-69596000D02*
X211836000Y-69596000D01*
D26*
X204978000Y-130167038D02*
X204843920Y-130167038D01*
X204454958Y-130556000D02*
X203708000Y-130556000D01*
X204843920Y-130167038D02*
X204454958Y-130556000D01*
D24*
X206248000Y-68326000D02*
X203962000Y-68326000D01*
X203962000Y-68326000D02*
X202946000Y-67310000D01*
X202946000Y-67310000D02*
X200914000Y-67310000D01*
D27*
X210820000Y-114935000D02*
X210820000Y-115887500D01*
X210820000Y-115887500D02*
X211074000Y-116141500D01*
X213360000Y-110871000D02*
X213360000Y-112395000D01*
X199923410Y-131800590D02*
X199923410Y-131826000D01*
X199898000Y-131826000D02*
X199898000Y-131318000D01*
X200660000Y-130556000D02*
X201803000Y-130556000D01*
X199898000Y-131318000D02*
X200660000Y-130556000D01*
X201803000Y-130556000D02*
X202946000Y-130556000D01*
X198374000Y-110831000D02*
X198374000Y-111833014D01*
X199923410Y-113893590D02*
X199923410Y-115341410D01*
X199936209Y-113395223D02*
X199936209Y-113880791D01*
X198374000Y-111833014D02*
X199936209Y-113395223D01*
X199936209Y-113880791D02*
X199923410Y-113893590D01*
D24*
X211836000Y-71755000D02*
X211836000Y-74168000D01*
X211836000Y-69556000D02*
X211836000Y-71755000D01*
X198120000Y-75986000D02*
X198120000Y-74041000D01*
X198120000Y-74041000D02*
X202057000Y-74041000D01*
D27*
X203708000Y-131826000D02*
X203708000Y-130556000D01*
X203708000Y-130556000D02*
X202946000Y-130556000D01*
X203708000Y-131826000D02*
X203708000Y-135215000D01*
D24*
X202057000Y-74041000D02*
X203073000Y-73025000D01*
X203073000Y-73025000D02*
X205486000Y-73025000D01*
X202057000Y-74041000D02*
X202057000Y-75920600D01*
X211836000Y-71755000D02*
X209550000Y-71755000D01*
X209042000Y-68326000D02*
X209550000Y-68834000D01*
X206248000Y-68326000D02*
X209042000Y-68326000D01*
X209550000Y-68834000D02*
X209550000Y-71755000D01*
X205486000Y-73025000D02*
X209550000Y-73025000D01*
X209550000Y-71755000D02*
X209550000Y-73025000D01*
D27*
X203708000Y-116649500D02*
X201803000Y-116649500D01*
D24*
X201803000Y-116649500D02*
X201803000Y-130556000D01*
D27*
X203708000Y-116649500D02*
X203708000Y-115316000D01*
X201803000Y-116649500D02*
X200723500Y-116649500D01*
X199923410Y-115849410D02*
X199923410Y-115316000D01*
X200723500Y-116649500D02*
X199923410Y-115849410D01*
X202565000Y-142748000D02*
X201248000Y-144065000D01*
X203748000Y-136866000D02*
X202565000Y-138049000D01*
X202565000Y-138049000D02*
X202565000Y-142748000D01*
X203748000Y-135255000D02*
X203748000Y-136866000D01*
X201201000Y-146050000D02*
X201248000Y-146003000D01*
X197866000Y-146050000D02*
X201201000Y-146050000D01*
X201248000Y-144065000D02*
X201248000Y-146003000D01*
X197739000Y-146177000D02*
X197866000Y-146050000D01*
X197739000Y-152527000D02*
X197739000Y-146177000D01*
X201248000Y-146003000D02*
X201248000Y-147621000D01*
X201248000Y-147621000D02*
X201248000Y-149098000D01*
D25*
X201248000Y-147621000D02*
X203909169Y-147621000D01*
D27*
X203708000Y-135215000D02*
X203748000Y-135255000D01*
D24*
X210820000Y-147066000D02*
X210820000Y-148717000D01*
G04 #@! TO.N,+5V*
X198120000Y-89535000D02*
X197993000Y-89662000D01*
D25*
X203454000Y-125222000D02*
X203708000Y-125222000D01*
X199898000Y-125222000D02*
X199898000Y-128524000D01*
D26*
X212979000Y-140970000D02*
X212979000Y-142113000D01*
X212979000Y-142113000D02*
X213360000Y-142494000D01*
X213360000Y-142494000D02*
X213360000Y-143764000D01*
D25*
X203708000Y-126873000D02*
X203708000Y-128524000D01*
X203708000Y-125222000D02*
X203708000Y-126873000D01*
X206248000Y-136398000D02*
X205486000Y-137160000D01*
X206248000Y-135255000D02*
X206248000Y-136398000D01*
X205486000Y-137160000D02*
X205486000Y-138430000D01*
X199898000Y-135128000D02*
X199923401Y-135102599D01*
X199898000Y-133858000D02*
X199898000Y-135128000D01*
X200240999Y-133515001D02*
X199898000Y-133858000D01*
X199898000Y-125222000D02*
X199898000Y-123698000D01*
X203708000Y-125222000D02*
X203708000Y-123698000D01*
X210820000Y-127762000D02*
X210820000Y-129286000D01*
X210820000Y-126111000D02*
X210820000Y-127762000D01*
D24*
X197993000Y-86741000D02*
X197358000Y-86106000D01*
X197993000Y-89662000D02*
X197993000Y-86741000D01*
D25*
X206248000Y-133502400D02*
X206248000Y-135255000D01*
X200748999Y-133515001D02*
X201803000Y-132461000D01*
X200240999Y-133515001D02*
X200748999Y-133515001D01*
D26*
X210820000Y-130175000D02*
X211709000Y-131064000D01*
X210820000Y-129413000D02*
X210820000Y-130175000D01*
D24*
X200025000Y-78422500D02*
X198143500Y-78422500D01*
X198143500Y-78422500D02*
X198120000Y-78446000D01*
X201549000Y-72009000D02*
X202692000Y-70866000D01*
X202692000Y-70866000D02*
X206248000Y-70866000D01*
X204343000Y-94107000D02*
X203073000Y-94107000D01*
X205232000Y-94996000D02*
X204343000Y-94107000D01*
X205232000Y-111282541D02*
X205232000Y-94996000D01*
X202849541Y-113665000D02*
X205232000Y-111282541D01*
X201803000Y-113665000D02*
X202849541Y-113665000D01*
X198120000Y-78446000D02*
X198120000Y-81407000D01*
X198120000Y-81407000D02*
X199390000Y-81407000D01*
X197358000Y-82169000D02*
X198120000Y-81407000D01*
X197358000Y-86106000D02*
X197358000Y-82169000D01*
G04 #@! TO.N,-12V*
X213868000Y-65151000D02*
X213868000Y-62992000D01*
X214249000Y-76581000D02*
X214249000Y-65532000D01*
X214249000Y-65532000D02*
X213868000Y-65151000D01*
X209550000Y-90424000D02*
X214249000Y-85725000D01*
X209550000Y-94107000D02*
X209550000Y-90424000D01*
X214162000Y-76668000D02*
X214249000Y-76581000D01*
X211836000Y-76668000D02*
X214162000Y-76668000D01*
X214249000Y-85725000D02*
X214249000Y-76581000D01*
D25*
X211709000Y-96012000D02*
X211709000Y-104140000D01*
X209550000Y-104140000D02*
X211709000Y-104140000D01*
D26*
X213360000Y-107061000D02*
X211709000Y-105410000D01*
X213360000Y-108371000D02*
X213360000Y-107061000D01*
D25*
X211709000Y-104140000D02*
X211709000Y-105410000D01*
D24*
X208915000Y-75565000D02*
X210018000Y-76668000D01*
X210018000Y-76668000D02*
X211836000Y-76668000D01*
X205486000Y-75565000D02*
X208915000Y-75565000D01*
G04 #@! TO.N,-5V*
X202057000Y-78420600D02*
X203011400Y-78420600D01*
X203327000Y-78105000D02*
X205486000Y-78105000D01*
X203011400Y-78420600D02*
X203327000Y-78105000D01*
X201422000Y-85598000D02*
X200152000Y-86868000D01*
X199195081Y-92202000D02*
X197993000Y-92202000D01*
X202057000Y-79883000D02*
X201422000Y-80518000D01*
X200152000Y-86868000D02*
X200152000Y-91245081D01*
X201422000Y-80518000D02*
X201422000Y-85598000D01*
X200152000Y-91245081D02*
X199195081Y-92202000D01*
X202057000Y-78420600D02*
X202057000Y-79883000D01*
D28*
G04 #@! TO.N,Net-(C12-Pad1)*
X208026000Y-101600000D02*
X209550000Y-101600000D01*
X207645000Y-101981000D02*
X208026000Y-101600000D01*
X207645000Y-116840000D02*
X207645000Y-101981000D01*
X207391000Y-117094000D02*
X207645000Y-116840000D01*
D26*
X206248000Y-155321000D02*
X206248000Y-152019000D01*
X206248000Y-150495000D02*
X206248000Y-149098000D01*
X206248000Y-152019000D02*
X206248000Y-150495000D01*
X208280000Y-130937000D02*
X208280000Y-125222000D01*
X208495989Y-146850011D02*
X208495989Y-145453011D01*
X208495989Y-145453011D02*
X208762601Y-145186399D01*
X208762601Y-131419601D02*
X208280000Y-130937000D01*
X208762601Y-145186399D02*
X208762601Y-131419601D01*
X206248000Y-149098000D02*
X208495989Y-146850011D01*
D28*
G04 #@! TO.N,/MainBoard/MCU_ADC2*
X201549000Y-136525000D02*
X200914000Y-137160000D01*
X200914000Y-137160000D02*
X200914000Y-142240000D01*
X199644000Y-143510000D02*
X197866000Y-143510000D01*
X200914000Y-142240000D02*
X199644000Y-143510000D01*
D29*
X196685799Y-103669201D02*
X197993000Y-102362000D01*
X196685799Y-111976799D02*
X196685799Y-103669201D01*
X198628000Y-113919000D02*
X196685799Y-111976799D01*
X198628000Y-122936000D02*
X198628000Y-113919000D01*
D26*
G04 #@! TO.N,/MainBoard/MCU_ADC1*
X206248000Y-121920000D02*
X206248000Y-125222000D01*
X206248000Y-125222000D02*
X206248000Y-128524000D01*
X206248000Y-128524000D02*
X206248000Y-131826000D01*
D28*
X207772000Y-140048042D02*
X207772000Y-138430000D01*
X207772000Y-138430000D02*
X207772000Y-132334000D01*
X206883000Y-140970000D02*
X206883000Y-140937042D01*
X205486000Y-140970000D02*
X206883000Y-140970000D01*
X206883000Y-140937042D02*
X207772000Y-140048042D01*
X207264000Y-131826000D02*
X206248000Y-131826000D01*
X207772000Y-132334000D02*
X207264000Y-131826000D01*
D30*
G04 #@! TO.N,Net-(D5-Pad1)*
X214885190Y-133351190D02*
X214884000Y-142875000D01*
X214859790Y-133325790D02*
X214885190Y-133351190D01*
X214859790Y-133096000D02*
X214859790Y-133325790D01*
D29*
X211455000Y-120015000D02*
X210820000Y-119380000D01*
X213868000Y-120015000D02*
X211455000Y-120015000D01*
X210820000Y-119380000D02*
X210820000Y-118110000D01*
X214859790Y-121006790D02*
X213868000Y-120015000D01*
X214859790Y-133096000D02*
X214859790Y-121006790D01*
X210820000Y-118110000D02*
X211709000Y-118110000D01*
X211709000Y-118110000D02*
X212102799Y-117716201D01*
X213360000Y-115849598D02*
X213360000Y-114935000D01*
X212102799Y-117106799D02*
X213360000Y-115849598D01*
X212102799Y-117716201D02*
X212102799Y-117106799D01*
X211582000Y-149923500D02*
X211582000Y-150876000D01*
X211899500Y-149606000D02*
X211582000Y-149923500D01*
X212896960Y-149606000D02*
X211899500Y-149606000D01*
X214859790Y-147643170D02*
X212896960Y-149606000D01*
X214859790Y-142875000D02*
X214859790Y-147643170D01*
D25*
G04 #@! TO.N,Net-(JP1-Pad1)*
X209042000Y-79756000D02*
X210312000Y-81026000D01*
X205105000Y-79756000D02*
X209042000Y-79756000D01*
X203454000Y-81407000D02*
X205105000Y-79756000D01*
D26*
X208153000Y-89535000D02*
X208153000Y-93091000D01*
X208153000Y-93091000D02*
X207010000Y-94234000D01*
X207010000Y-94234000D02*
X207010000Y-98679000D01*
X207391000Y-99060000D02*
X209550000Y-99060000D01*
X207010000Y-98679000D02*
X207391000Y-99060000D01*
X199390000Y-85598000D02*
X199390000Y-83947000D01*
D25*
X203454000Y-81407000D02*
X203454000Y-83185000D01*
D28*
G04 #@! TO.N,Net-(Q1-Pad3)*
X209042000Y-152019000D02*
X209042000Y-150876000D01*
X211582000Y-153416000D02*
X211074000Y-152908000D01*
X209931000Y-152908000D02*
X209042000Y-152019000D01*
X211074000Y-152908000D02*
X209931000Y-152908000D01*
X211582000Y-155702000D02*
X211582000Y-153416000D01*
X210820000Y-144843500D02*
X210820000Y-143764000D01*
X209308799Y-146354701D02*
X210820000Y-144843500D01*
X209042000Y-149479000D02*
X209308799Y-149212201D01*
X209308799Y-149212201D02*
X209308799Y-146354701D01*
X209042000Y-150876000D02*
X209042000Y-149479000D01*
G04 #@! TO.N,Net-(Q1-Pad1)*
X214122000Y-150876000D02*
X214122000Y-155702000D01*
X212344000Y-148590000D02*
X212979000Y-148590000D01*
X213360000Y-148209000D02*
X213360000Y-147066000D01*
X212979000Y-148590000D02*
X213360000Y-148209000D01*
X214122000Y-149670700D02*
X214122000Y-150876000D01*
X214503600Y-149289100D02*
X214122000Y-149670700D01*
G04 #@! TO.N,/MainBoard/MCU_PB0*
X213360000Y-129413000D02*
X213360000Y-132715000D01*
X209042000Y-155702000D02*
X209042000Y-154432000D01*
X209042000Y-154432000D02*
X207773999Y-153163999D01*
D30*
X213360000Y-133858000D02*
X213360000Y-132715000D01*
X214325914Y-134823914D02*
X213360000Y-133858000D01*
X214325914Y-137083086D02*
X214325914Y-134823914D01*
X212979000Y-138430000D02*
X214325914Y-137083086D01*
D28*
X207645000Y-146050000D02*
X205486000Y-146050000D01*
X207645000Y-146050000D02*
X207645000Y-141478000D01*
X207773999Y-153163999D02*
X207772000Y-153162000D01*
G04 #@! TO.N,Net-(Q3-Pad2)*
X210947000Y-123571000D02*
X210947000Y-122453400D01*
X209410399Y-130289399D02*
X209410399Y-125107601D01*
X210820000Y-131699000D02*
X209410399Y-130289399D01*
X210820000Y-132715000D02*
X210820000Y-131699000D01*
X210947000Y-123571000D02*
X209410399Y-125107601D01*
G04 #@! TO.N,Net-(Q3-Pad3)*
X213487000Y-122428000D02*
X213487000Y-126111000D01*
G04 #@! TO.N,Net-(R4-Pad1)*
X207899000Y-118618000D02*
X206248000Y-118618000D01*
X208407000Y-113919000D02*
X208407000Y-118110000D01*
X209550000Y-112776000D02*
X208407000Y-113919000D01*
X208407000Y-118110000D02*
X207899000Y-118618000D01*
X209550000Y-111760000D02*
X209550000Y-112776000D01*
D26*
X206248000Y-118618000D02*
X206248000Y-120015000D01*
X204089000Y-120269000D02*
X203708000Y-120650000D01*
X203708000Y-120650000D02*
X203708000Y-121920000D01*
X205994000Y-120269000D02*
X204089000Y-120269000D01*
X206248000Y-120015000D02*
X205994000Y-120269000D01*
G04 #@! TO.N,Net-(R10-Pad1)*
X199898000Y-118618000D02*
X199898000Y-121920000D01*
D28*
G04 #@! TO.N,/MainBoard/MCU_PWM*
X205486000Y-143510000D02*
X206375000Y-143510000D01*
D31*
X202057000Y-152273000D02*
X202311000Y-152019000D01*
X202311000Y-152019000D02*
X203708000Y-152019000D01*
X200660000Y-152273000D02*
X202057000Y-152273000D01*
X200660000Y-152273000D02*
X199136000Y-153797000D01*
X199136000Y-153797000D02*
X199136000Y-154813000D01*
X198882000Y-155067000D02*
X197739000Y-155067000D01*
X199136000Y-154813000D02*
X198882000Y-155067000D01*
D24*
G04 #@! TO.N,Net-(D10-Pad2)*
X198374000Y-59690000D02*
X200914000Y-59690000D01*
X200914000Y-59690000D02*
X203454000Y-59690000D01*
X203581000Y-59563000D02*
X206248000Y-59563000D01*
X203454000Y-59690000D02*
X203581000Y-59563000D01*
G04 #@! TO.N,Net-(D11-Pad1)*
X203200000Y-62992000D02*
X206248000Y-62992000D01*
D26*
G04 #@! TO.N,/MainBoard/MCU_ADC3*
X197358000Y-122428000D02*
X197358000Y-125730000D01*
X197358000Y-125730000D02*
X197358000Y-129032000D01*
X197358000Y-129032000D02*
X197358000Y-132334000D01*
D29*
X197358000Y-132969000D02*
X197358000Y-131826000D01*
X198640799Y-134251799D02*
X197358000Y-132969000D01*
X198640799Y-135974796D02*
X198640799Y-134251799D01*
D28*
X200025000Y-140335000D02*
X200025000Y-137668000D01*
X198628000Y-136271000D02*
X198628000Y-135987595D01*
X200025000Y-137668000D02*
X198628000Y-136271000D01*
X199390000Y-140970000D02*
X200025000Y-140335000D01*
X198628000Y-135987595D02*
X198640799Y-135974796D01*
X197866000Y-140970000D02*
X199390000Y-140970000D01*
D26*
G04 #@! TO.N,/MainBoard/OUT*
X211824199Y-94245801D02*
X209550000Y-96520000D01*
X211824199Y-91324801D02*
X211824199Y-94245801D01*
X213487000Y-89662000D02*
X211824199Y-91324801D01*
D25*
X210312000Y-84074000D02*
X208915000Y-84074000D01*
X208915000Y-84074000D02*
X208026000Y-83185000D01*
X208026000Y-83185000D02*
X205994000Y-83185000D01*
X205994000Y-83185000D02*
X205994000Y-84963000D01*
X205994000Y-81407000D02*
X205994000Y-83185000D01*
D30*
G04 #@! TO.N,/MainBoard/CLK_TRG*
X214884000Y-117729000D02*
X214503000Y-118110000D01*
X214884000Y-103759000D02*
X214884000Y-117729000D01*
X214503000Y-118110000D02*
X213360000Y-118110000D01*
X213487000Y-102362000D02*
X214884000Y-103759000D01*
D26*
G04 #@! TO.N,Net-(JP2-Pad1)*
X200660000Y-154813000D02*
X201930000Y-154813000D01*
X202438000Y-155321000D02*
X203708000Y-155321000D01*
X201930000Y-154813000D02*
X202438000Y-155321000D01*
D28*
G04 #@! TO.N,Net-(R5-Pad2)*
X206248000Y-115316000D02*
X206248000Y-114173000D01*
X206756000Y-113665000D02*
X206756000Y-109220000D01*
X206248000Y-114173000D02*
X206756000Y-113665000D01*
X206248000Y-116205000D02*
X206248000Y-115316000D01*
X204851000Y-117602000D02*
X206248000Y-116205000D01*
X204851000Y-118491000D02*
X204851000Y-117602000D01*
X204724000Y-118618000D02*
X204851000Y-118491000D01*
X203708000Y-118618000D02*
X204724000Y-118618000D01*
D26*
G04 #@! TO.N,Net-(R11-Pad2)*
X197358000Y-115316000D02*
X197358000Y-118618000D01*
D28*
X197358000Y-113919000D02*
X197358000Y-115316000D01*
D29*
G04 #@! TO.N,/MainBoard/MCU_RESET*
X210947000Y-135890000D02*
X210947000Y-135636000D01*
D28*
X197358000Y-135128000D02*
X197358000Y-137922000D01*
X197358000Y-137922000D02*
X197866000Y-138430000D01*
D26*
G04 #@! TO.N,/MainBoard/LED_POS*
X203454000Y-86233000D02*
X203454000Y-84963000D01*
X201803000Y-87884000D02*
X203454000Y-86233000D01*
D28*
G04 #@! TO.N,/MainBoard/CLK_LED*
X208407000Y-121031000D02*
X208407000Y-122428000D01*
X209169000Y-120269000D02*
X208407000Y-121031000D01*
X209169000Y-114349422D02*
X209169000Y-120269000D01*
X210488422Y-113030000D02*
X209169000Y-114349422D01*
X211074000Y-113030000D02*
X210488422Y-113030000D01*
X211455000Y-112649000D02*
X211074000Y-113030000D01*
X211455000Y-106807000D02*
X211455000Y-112649000D01*
G04 #@! TD*
M02*
