%TF.GenerationSoftware,KiCad,Pcbnew,(5.1.9-0-10_14)*%
%TF.CreationDate,2020-12-31T21:37:28-06:00*%
%TF.ProjectId,JNTUB_board2,4a4e5455-425f-4626-9f61-7264322e6b69,rev?*%
%TF.SameCoordinates,Original*%
%TF.FileFunction,Legend,Top*%
%TF.FilePolarity,Positive*%
%FSLAX46Y46*%
G04 Gerber Fmt 4.6, Leading zero omitted, Abs format (unit mm)*
G04 Created by KiCad (PCBNEW (5.1.9-0-10_14)) date 2020-12-31 21:37:28*
%MOMM*%
%LPD*%
G01*
G04 APERTURE LIST*
%ADD10C,0.120000*%
%ADD11C,0.150000*%
G04 APERTURE END LIST*
D10*
%TO.C,C12*%
X199506000Y-147340000D02*
X199506000Y-147326000D01*
X199506000Y-149346000D02*
X199506000Y-149332000D01*
X203926000Y-147340000D02*
X203926000Y-147326000D01*
X203926000Y-149346000D02*
X203926000Y-149332000D01*
X203926000Y-147326000D02*
X199506000Y-147326000D01*
X203926000Y-149346000D02*
X199506000Y-149346000D01*
%TO.C,U3*%
X208098000Y-70126000D02*
X208098000Y-66526000D01*
X207370795Y-70650184D02*
G75*
G03*
X208098000Y-70126000I-1122795J2324184D01*
G01*
X205149193Y-70682400D02*
G75*
G02*
X203648000Y-68326000I1098807J2356400D01*
G01*
X205149193Y-65969600D02*
G75*
G03*
X203648000Y-68326000I1098807J-2356400D01*
G01*
X207370795Y-66001816D02*
G75*
G02*
X208098000Y-66526000I-1122795J-2324184D01*
G01*
%TO.C,U4*%
X208098000Y-77238000D02*
X208098000Y-73638000D01*
X207370795Y-77762184D02*
G75*
G03*
X208098000Y-77238000I-1122795J2324184D01*
G01*
X205149193Y-77794400D02*
G75*
G02*
X203648000Y-75438000I1098807J2356400D01*
G01*
X205149193Y-73081600D02*
G75*
G03*
X203648000Y-75438000I1098807J-2356400D01*
G01*
X207370795Y-73113816D02*
G75*
G02*
X208098000Y-73638000I-1122795J-2324184D01*
G01*
%TO.C,D5*%
X212753000Y-153587000D02*
X212753000Y-151467000D01*
X212753000Y-151467000D02*
X208887000Y-151467000D01*
X208887000Y-151467000D02*
X208887000Y-153587000D01*
X208887000Y-153587000D02*
X212753000Y-153587000D01*
X213106000Y-152527000D02*
X212725000Y-152527000D01*
X208534000Y-152527000D02*
X208851500Y-152527000D01*
X212220000Y-153587000D02*
X212220000Y-151467000D01*
%TO.C,D4*%
X208887000Y-127718000D02*
X208887000Y-129838000D01*
X208887000Y-129838000D02*
X212753000Y-129838000D01*
X212753000Y-129838000D02*
X212753000Y-127718000D01*
X212753000Y-127718000D02*
X208887000Y-127718000D01*
X208534000Y-128778000D02*
X208915000Y-128778000D01*
X213106000Y-128778000D02*
X212788500Y-128778000D01*
X209420000Y-127718000D02*
X209420000Y-129838000D01*
%TO.C,D3*%
X212220000Y-126790000D02*
X212220000Y-124670000D01*
X208534000Y-125730000D02*
X208851500Y-125730000D01*
X213106000Y-125730000D02*
X212725000Y-125730000D01*
X208887000Y-126790000D02*
X212753000Y-126790000D01*
X208887000Y-124670000D02*
X208887000Y-126790000D01*
X212753000Y-124670000D02*
X208887000Y-124670000D01*
X212753000Y-126790000D02*
X212753000Y-124670000D01*
%TO.C,D2*%
X202567600Y-129838000D02*
X202567600Y-127718000D01*
X202567600Y-127718000D02*
X198701600Y-127718000D01*
X198701600Y-127718000D02*
X198701600Y-129838000D01*
X198701600Y-129838000D02*
X202567600Y-129838000D01*
X202920600Y-128778000D02*
X202539600Y-128778000D01*
X198348600Y-128778000D02*
X198666100Y-128778000D01*
X202034600Y-129838000D02*
X202034600Y-127718000D01*
%TO.C,D1*%
X198727000Y-124670000D02*
X198727000Y-126790000D01*
X198727000Y-126790000D02*
X202593000Y-126790000D01*
X202593000Y-126790000D02*
X202593000Y-124670000D01*
X202593000Y-124670000D02*
X198727000Y-124670000D01*
X198374000Y-125730000D02*
X198755000Y-125730000D01*
X202946000Y-125730000D02*
X202628500Y-125730000D01*
X199260000Y-124670000D02*
X199260000Y-126790000D01*
%TO.C,C4*%
X199116000Y-75168000D02*
X199180000Y-75168000D01*
X197060000Y-75168000D02*
X197124000Y-75168000D01*
X199116000Y-78288000D02*
X199180000Y-78288000D01*
X197060000Y-78288000D02*
X197124000Y-78288000D01*
X199180000Y-78288000D02*
X199180000Y-75168000D01*
X197060000Y-78288000D02*
X197060000Y-75168000D01*
%TO.C,C10*%
X196961000Y-130830000D02*
X196961000Y-130766000D01*
X196961000Y-132886000D02*
X196961000Y-132822000D01*
X200081000Y-130830000D02*
X200081000Y-130766000D01*
X200081000Y-132886000D02*
X200081000Y-132822000D01*
X200081000Y-130766000D02*
X196961000Y-130766000D01*
X200081000Y-132886000D02*
X196961000Y-132886000D01*
%TO.C,C9*%
X209214400Y-96586800D02*
X209150400Y-96586800D01*
X211270400Y-96586800D02*
X211206400Y-96586800D01*
X209214400Y-93466800D02*
X209150400Y-93466800D01*
X211270400Y-93466800D02*
X211206400Y-93466800D01*
X209150400Y-93466800D02*
X209150400Y-96586800D01*
X211270400Y-93466800D02*
X211270400Y-96586800D01*
%TO.C,C8*%
X201152000Y-94914400D02*
X201152000Y-94850400D01*
X201152000Y-96970400D02*
X201152000Y-96906400D01*
X204272000Y-94914400D02*
X204272000Y-94850400D01*
X204272000Y-96970400D02*
X204272000Y-96906400D01*
X204272000Y-94850400D02*
X201152000Y-94850400D01*
X204272000Y-96970400D02*
X201152000Y-96970400D01*
%TO.C,C6*%
X201061000Y-78222600D02*
X200997000Y-78222600D01*
X203117000Y-78222600D02*
X203053000Y-78222600D01*
X201061000Y-75102600D02*
X200997000Y-75102600D01*
X203117000Y-75102600D02*
X203053000Y-75102600D01*
X200997000Y-75102600D02*
X200997000Y-78222600D01*
X203117000Y-75102600D02*
X203117000Y-78222600D01*
%TO.C,R25*%
X206166000Y-84489500D02*
X209886000Y-84489500D01*
X206166000Y-82769500D02*
X209886000Y-82769500D01*
%TO.C,R24*%
X198927000Y-81886000D02*
X202647000Y-81886000D01*
X198927000Y-80166000D02*
X202647000Y-80166000D01*
%TO.C,R23*%
X202282000Y-83865000D02*
X202282000Y-87585000D01*
X200562000Y-83865000D02*
X200562000Y-87585000D01*
%TO.C,R22*%
X199816000Y-146529000D02*
X203536000Y-146529000D01*
X199816000Y-144809000D02*
X203536000Y-144809000D01*
%TO.C,R21*%
X209886000Y-86839000D02*
X206166000Y-86839000D01*
X209886000Y-85119000D02*
X206166000Y-85119000D01*
%TO.C,R20*%
X212807000Y-156054000D02*
X209087000Y-156054000D01*
X212807000Y-154334000D02*
X209087000Y-154334000D01*
%TO.C,R19*%
X199816000Y-150143000D02*
X203536000Y-150143000D01*
X199816000Y-151863000D02*
X203536000Y-151863000D01*
%TO.C,R18*%
X209925200Y-136173000D02*
X213645200Y-136173000D01*
X209925200Y-137893000D02*
X213645200Y-137893000D01*
%TO.C,R17*%
X209925200Y-131093000D02*
X213645200Y-131093000D01*
X209925200Y-132813000D02*
X213645200Y-132813000D01*
%TO.C,R16*%
X209925200Y-133506000D02*
X213645200Y-133506000D01*
X209925200Y-135226000D02*
X213645200Y-135226000D01*
%TO.C,R14*%
X212807000Y-150720000D02*
X209087000Y-150720000D01*
X212807000Y-149000000D02*
X209087000Y-149000000D01*
%TO.C,R13*%
X212857800Y-148103800D02*
X209137800Y-148103800D01*
X212857800Y-146383800D02*
X209137800Y-146383800D01*
%TO.C,R12*%
X212246000Y-114636000D02*
X212246000Y-110916000D01*
X213966000Y-114636000D02*
X213966000Y-110916000D01*
%TO.C,R11*%
X208325000Y-116615000D02*
X212045000Y-116615000D01*
X208325000Y-118335000D02*
X212045000Y-118335000D01*
%TO.C,R10*%
X212121200Y-121002000D02*
X208401200Y-121002000D01*
X212121200Y-119282000D02*
X208401200Y-119282000D01*
%TO.C,R8*%
X212172000Y-123669000D02*
X208452000Y-123669000D01*
X212172000Y-121949000D02*
X208452000Y-121949000D01*
%TO.C,R6*%
X197133000Y-114636000D02*
X197133000Y-110916000D01*
X198853000Y-114636000D02*
X198853000Y-110916000D01*
%TO.C,R5*%
X203155000Y-118335000D02*
X199435000Y-118335000D01*
X203155000Y-116615000D02*
X199435000Y-116615000D01*
%TO.C,R4*%
X199435000Y-119282000D02*
X203155000Y-119282000D01*
X199435000Y-121002000D02*
X203155000Y-121002000D01*
%TO.C,R2*%
X199435000Y-121949000D02*
X203155000Y-121949000D01*
X199435000Y-123669000D02*
X203155000Y-123669000D01*
%TO.C,D11*%
X207398000Y-61712000D02*
X207398000Y-61582000D01*
X207398000Y-61582000D02*
X212718000Y-61582000D01*
X212718000Y-61582000D02*
X212718000Y-61712000D01*
X207398000Y-64272000D02*
X207398000Y-64402000D01*
X207398000Y-64402000D02*
X212718000Y-64402000D01*
X212718000Y-64402000D02*
X212718000Y-64272000D01*
X208238000Y-61582000D02*
X208238000Y-64402000D01*
%TO.C,D10*%
X211878000Y-60973000D02*
X211878000Y-58153000D01*
X207398000Y-58153000D02*
X207398000Y-58283000D01*
X212718000Y-58153000D02*
X207398000Y-58153000D01*
X212718000Y-58283000D02*
X212718000Y-58153000D01*
X207398000Y-60973000D02*
X207398000Y-60843000D01*
X212718000Y-60973000D02*
X207398000Y-60973000D01*
X212718000Y-60843000D02*
X212718000Y-60973000D01*
%TO.C,C2*%
X212486000Y-72568000D02*
X211186000Y-72568000D01*
X211836000Y-71968000D02*
X211836000Y-73168000D01*
X212304000Y-78619000D02*
X211368000Y-78619000D01*
X212512000Y-78579000D02*
X211160000Y-78579000D01*
X212670000Y-78539000D02*
X211002000Y-78539000D01*
X212802000Y-78499000D02*
X210870000Y-78499000D01*
X212917000Y-78459000D02*
X210755000Y-78459000D01*
X213020000Y-78419000D02*
X210652000Y-78419000D01*
X213114000Y-78379000D02*
X210558000Y-78379000D01*
X213200000Y-78339000D02*
X210472000Y-78339000D01*
X213281000Y-78299000D02*
X210391000Y-78299000D01*
X213356000Y-78259000D02*
X210316000Y-78259000D01*
X213427000Y-78219000D02*
X210245000Y-78219000D01*
X213494000Y-78179000D02*
X210178000Y-78179000D01*
X213557000Y-78139000D02*
X210115000Y-78139000D01*
X213617000Y-78099000D02*
X210055000Y-78099000D01*
X213675000Y-78059000D02*
X209997000Y-78059000D01*
X213730000Y-78019000D02*
X209942000Y-78019000D01*
X213782000Y-77979000D02*
X209890000Y-77979000D01*
X213833000Y-77939000D02*
X209839000Y-77939000D01*
X213881000Y-77899000D02*
X209791000Y-77899000D01*
X213928000Y-77859000D02*
X209744000Y-77859000D01*
X213973000Y-77819000D02*
X209699000Y-77819000D01*
X214016000Y-77779000D02*
X209656000Y-77779000D01*
X214058000Y-77739000D02*
X209614000Y-77739000D01*
X214098000Y-77699000D02*
X209574000Y-77699000D01*
X214137000Y-77659000D02*
X209535000Y-77659000D01*
X210856000Y-77619000D02*
X209497000Y-77619000D01*
X214175000Y-77619000D02*
X212816000Y-77619000D01*
X210856000Y-77579000D02*
X209461000Y-77579000D01*
X214211000Y-77579000D02*
X212816000Y-77579000D01*
X210856000Y-77539000D02*
X209425000Y-77539000D01*
X214247000Y-77539000D02*
X212816000Y-77539000D01*
X210856000Y-77499000D02*
X209391000Y-77499000D01*
X214281000Y-77499000D02*
X212816000Y-77499000D01*
X210856000Y-77459000D02*
X209358000Y-77459000D01*
X214314000Y-77459000D02*
X212816000Y-77459000D01*
X210856000Y-77419000D02*
X209326000Y-77419000D01*
X214346000Y-77419000D02*
X212816000Y-77419000D01*
X210856000Y-77379000D02*
X209296000Y-77379000D01*
X214376000Y-77379000D02*
X212816000Y-77379000D01*
X210856000Y-77339000D02*
X209266000Y-77339000D01*
X214406000Y-77339000D02*
X212816000Y-77339000D01*
X210856000Y-77299000D02*
X209237000Y-77299000D01*
X214435000Y-77299000D02*
X212816000Y-77299000D01*
X210856000Y-77259000D02*
X209209000Y-77259000D01*
X214463000Y-77259000D02*
X212816000Y-77259000D01*
X210856000Y-77219000D02*
X209182000Y-77219000D01*
X214490000Y-77219000D02*
X212816000Y-77219000D01*
X210856000Y-77179000D02*
X209155000Y-77179000D01*
X214517000Y-77179000D02*
X212816000Y-77179000D01*
X210856000Y-77139000D02*
X209130000Y-77139000D01*
X214542000Y-77139000D02*
X212816000Y-77139000D01*
X210856000Y-77099000D02*
X209105000Y-77099000D01*
X214567000Y-77099000D02*
X212816000Y-77099000D01*
X210856000Y-77059000D02*
X209081000Y-77059000D01*
X214591000Y-77059000D02*
X212816000Y-77059000D01*
X210856000Y-77019000D02*
X209058000Y-77019000D01*
X214614000Y-77019000D02*
X212816000Y-77019000D01*
X210856000Y-76979000D02*
X209036000Y-76979000D01*
X214636000Y-76979000D02*
X212816000Y-76979000D01*
X210856000Y-76939000D02*
X209014000Y-76939000D01*
X214658000Y-76939000D02*
X212816000Y-76939000D01*
X210856000Y-76899000D02*
X208993000Y-76899000D01*
X214679000Y-76899000D02*
X212816000Y-76899000D01*
X210856000Y-76859000D02*
X208973000Y-76859000D01*
X214699000Y-76859000D02*
X212816000Y-76859000D01*
X210856000Y-76819000D02*
X208954000Y-76819000D01*
X214718000Y-76819000D02*
X212816000Y-76819000D01*
X210856000Y-76779000D02*
X208935000Y-76779000D01*
X214737000Y-76779000D02*
X212816000Y-76779000D01*
X210856000Y-76739000D02*
X208917000Y-76739000D01*
X214755000Y-76739000D02*
X212816000Y-76739000D01*
X210856000Y-76699000D02*
X208899000Y-76699000D01*
X214773000Y-76699000D02*
X212816000Y-76699000D01*
X210856000Y-76659000D02*
X208882000Y-76659000D01*
X214790000Y-76659000D02*
X212816000Y-76659000D01*
X210856000Y-76619000D02*
X208866000Y-76619000D01*
X214806000Y-76619000D02*
X212816000Y-76619000D01*
X210856000Y-76579000D02*
X208850000Y-76579000D01*
X214822000Y-76579000D02*
X212816000Y-76579000D01*
X210856000Y-76539000D02*
X208835000Y-76539000D01*
X214837000Y-76539000D02*
X212816000Y-76539000D01*
X210856000Y-76499000D02*
X208821000Y-76499000D01*
X214851000Y-76499000D02*
X212816000Y-76499000D01*
X210856000Y-76459000D02*
X208807000Y-76459000D01*
X214865000Y-76459000D02*
X212816000Y-76459000D01*
X210856000Y-76419000D02*
X208794000Y-76419000D01*
X214878000Y-76419000D02*
X212816000Y-76419000D01*
X210856000Y-76379000D02*
X208781000Y-76379000D01*
X214891000Y-76379000D02*
X212816000Y-76379000D01*
X210856000Y-76339000D02*
X208769000Y-76339000D01*
X214903000Y-76339000D02*
X212816000Y-76339000D01*
X210856000Y-76299000D02*
X208757000Y-76299000D01*
X214915000Y-76299000D02*
X212816000Y-76299000D01*
X210856000Y-76259000D02*
X208746000Y-76259000D01*
X214926000Y-76259000D02*
X212816000Y-76259000D01*
X210856000Y-76219000D02*
X208736000Y-76219000D01*
X214936000Y-76219000D02*
X212816000Y-76219000D01*
X210856000Y-76179000D02*
X208726000Y-76179000D01*
X214946000Y-76179000D02*
X212816000Y-76179000D01*
X210856000Y-76139000D02*
X208717000Y-76139000D01*
X214955000Y-76139000D02*
X212816000Y-76139000D01*
X210856000Y-76098000D02*
X208708000Y-76098000D01*
X214964000Y-76098000D02*
X212816000Y-76098000D01*
X210856000Y-76058000D02*
X208699000Y-76058000D01*
X214973000Y-76058000D02*
X212816000Y-76058000D01*
X210856000Y-76018000D02*
X208692000Y-76018000D01*
X214980000Y-76018000D02*
X212816000Y-76018000D01*
X210856000Y-75978000D02*
X208684000Y-75978000D01*
X214988000Y-75978000D02*
X212816000Y-75978000D01*
X210856000Y-75938000D02*
X208678000Y-75938000D01*
X214994000Y-75938000D02*
X212816000Y-75938000D01*
X210856000Y-75898000D02*
X208671000Y-75898000D01*
X215001000Y-75898000D02*
X212816000Y-75898000D01*
X210856000Y-75858000D02*
X208666000Y-75858000D01*
X215006000Y-75858000D02*
X212816000Y-75858000D01*
X210856000Y-75818000D02*
X208660000Y-75818000D01*
X215012000Y-75818000D02*
X212816000Y-75818000D01*
X210856000Y-75778000D02*
X208656000Y-75778000D01*
X215016000Y-75778000D02*
X212816000Y-75778000D01*
X210856000Y-75738000D02*
X208651000Y-75738000D01*
X215021000Y-75738000D02*
X212816000Y-75738000D01*
X210856000Y-75698000D02*
X208648000Y-75698000D01*
X215024000Y-75698000D02*
X212816000Y-75698000D01*
X215028000Y-75658000D02*
X208644000Y-75658000D01*
X215030000Y-75618000D02*
X208642000Y-75618000D01*
X215033000Y-75578000D02*
X208639000Y-75578000D01*
X215034000Y-75538000D02*
X208638000Y-75538000D01*
X215036000Y-75498000D02*
X208636000Y-75498000D01*
X215036000Y-75458000D02*
X208636000Y-75458000D01*
X215036000Y-75418000D02*
X208636000Y-75418000D01*
X213015136Y-78435820D02*
G75*
G03*
X213016000Y-72400518I-1179136J3017820D01*
G01*
X210656864Y-78435820D02*
G75*
G02*
X210656000Y-72400518I1179136J3017820D01*
G01*
X210656864Y-78435820D02*
G75*
G03*
X213016000Y-78435482I1179136J3017820D01*
G01*
%TO.C,C1*%
X211186000Y-71196000D02*
X212486000Y-71196000D01*
X211836000Y-71796000D02*
X211836000Y-70596000D01*
X211368000Y-65145000D02*
X212304000Y-65145000D01*
X211160000Y-65185000D02*
X212512000Y-65185000D01*
X211002000Y-65225000D02*
X212670000Y-65225000D01*
X210870000Y-65265000D02*
X212802000Y-65265000D01*
X210755000Y-65305000D02*
X212917000Y-65305000D01*
X210652000Y-65345000D02*
X213020000Y-65345000D01*
X210558000Y-65385000D02*
X213114000Y-65385000D01*
X210472000Y-65425000D02*
X213200000Y-65425000D01*
X210391000Y-65465000D02*
X213281000Y-65465000D01*
X210316000Y-65505000D02*
X213356000Y-65505000D01*
X210245000Y-65545000D02*
X213427000Y-65545000D01*
X210178000Y-65585000D02*
X213494000Y-65585000D01*
X210115000Y-65625000D02*
X213557000Y-65625000D01*
X210055000Y-65665000D02*
X213617000Y-65665000D01*
X209997000Y-65705000D02*
X213675000Y-65705000D01*
X209942000Y-65745000D02*
X213730000Y-65745000D01*
X209890000Y-65785000D02*
X213782000Y-65785000D01*
X209839000Y-65825000D02*
X213833000Y-65825000D01*
X209791000Y-65865000D02*
X213881000Y-65865000D01*
X209744000Y-65905000D02*
X213928000Y-65905000D01*
X209699000Y-65945000D02*
X213973000Y-65945000D01*
X209656000Y-65985000D02*
X214016000Y-65985000D01*
X209614000Y-66025000D02*
X214058000Y-66025000D01*
X209574000Y-66065000D02*
X214098000Y-66065000D01*
X209535000Y-66105000D02*
X214137000Y-66105000D01*
X212816000Y-66145000D02*
X214175000Y-66145000D01*
X209497000Y-66145000D02*
X210856000Y-66145000D01*
X212816000Y-66185000D02*
X214211000Y-66185000D01*
X209461000Y-66185000D02*
X210856000Y-66185000D01*
X212816000Y-66225000D02*
X214247000Y-66225000D01*
X209425000Y-66225000D02*
X210856000Y-66225000D01*
X212816000Y-66265000D02*
X214281000Y-66265000D01*
X209391000Y-66265000D02*
X210856000Y-66265000D01*
X212816000Y-66305000D02*
X214314000Y-66305000D01*
X209358000Y-66305000D02*
X210856000Y-66305000D01*
X212816000Y-66345000D02*
X214346000Y-66345000D01*
X209326000Y-66345000D02*
X210856000Y-66345000D01*
X212816000Y-66385000D02*
X214376000Y-66385000D01*
X209296000Y-66385000D02*
X210856000Y-66385000D01*
X212816000Y-66425000D02*
X214406000Y-66425000D01*
X209266000Y-66425000D02*
X210856000Y-66425000D01*
X212816000Y-66465000D02*
X214435000Y-66465000D01*
X209237000Y-66465000D02*
X210856000Y-66465000D01*
X212816000Y-66505000D02*
X214463000Y-66505000D01*
X209209000Y-66505000D02*
X210856000Y-66505000D01*
X212816000Y-66545000D02*
X214490000Y-66545000D01*
X209182000Y-66545000D02*
X210856000Y-66545000D01*
X212816000Y-66585000D02*
X214517000Y-66585000D01*
X209155000Y-66585000D02*
X210856000Y-66585000D01*
X212816000Y-66625000D02*
X214542000Y-66625000D01*
X209130000Y-66625000D02*
X210856000Y-66625000D01*
X212816000Y-66665000D02*
X214567000Y-66665000D01*
X209105000Y-66665000D02*
X210856000Y-66665000D01*
X212816000Y-66705000D02*
X214591000Y-66705000D01*
X209081000Y-66705000D02*
X210856000Y-66705000D01*
X212816000Y-66745000D02*
X214614000Y-66745000D01*
X209058000Y-66745000D02*
X210856000Y-66745000D01*
X212816000Y-66785000D02*
X214636000Y-66785000D01*
X209036000Y-66785000D02*
X210856000Y-66785000D01*
X212816000Y-66825000D02*
X214658000Y-66825000D01*
X209014000Y-66825000D02*
X210856000Y-66825000D01*
X212816000Y-66865000D02*
X214679000Y-66865000D01*
X208993000Y-66865000D02*
X210856000Y-66865000D01*
X212816000Y-66905000D02*
X214699000Y-66905000D01*
X208973000Y-66905000D02*
X210856000Y-66905000D01*
X212816000Y-66945000D02*
X214718000Y-66945000D01*
X208954000Y-66945000D02*
X210856000Y-66945000D01*
X212816000Y-66985000D02*
X214737000Y-66985000D01*
X208935000Y-66985000D02*
X210856000Y-66985000D01*
X212816000Y-67025000D02*
X214755000Y-67025000D01*
X208917000Y-67025000D02*
X210856000Y-67025000D01*
X212816000Y-67065000D02*
X214773000Y-67065000D01*
X208899000Y-67065000D02*
X210856000Y-67065000D01*
X212816000Y-67105000D02*
X214790000Y-67105000D01*
X208882000Y-67105000D02*
X210856000Y-67105000D01*
X212816000Y-67145000D02*
X214806000Y-67145000D01*
X208866000Y-67145000D02*
X210856000Y-67145000D01*
X212816000Y-67185000D02*
X214822000Y-67185000D01*
X208850000Y-67185000D02*
X210856000Y-67185000D01*
X212816000Y-67225000D02*
X214837000Y-67225000D01*
X208835000Y-67225000D02*
X210856000Y-67225000D01*
X212816000Y-67265000D02*
X214851000Y-67265000D01*
X208821000Y-67265000D02*
X210856000Y-67265000D01*
X212816000Y-67305000D02*
X214865000Y-67305000D01*
X208807000Y-67305000D02*
X210856000Y-67305000D01*
X212816000Y-67345000D02*
X214878000Y-67345000D01*
X208794000Y-67345000D02*
X210856000Y-67345000D01*
X212816000Y-67385000D02*
X214891000Y-67385000D01*
X208781000Y-67385000D02*
X210856000Y-67385000D01*
X212816000Y-67425000D02*
X214903000Y-67425000D01*
X208769000Y-67425000D02*
X210856000Y-67425000D01*
X212816000Y-67465000D02*
X214915000Y-67465000D01*
X208757000Y-67465000D02*
X210856000Y-67465000D01*
X212816000Y-67505000D02*
X214926000Y-67505000D01*
X208746000Y-67505000D02*
X210856000Y-67505000D01*
X212816000Y-67545000D02*
X214936000Y-67545000D01*
X208736000Y-67545000D02*
X210856000Y-67545000D01*
X212816000Y-67585000D02*
X214946000Y-67585000D01*
X208726000Y-67585000D02*
X210856000Y-67585000D01*
X212816000Y-67625000D02*
X214955000Y-67625000D01*
X208717000Y-67625000D02*
X210856000Y-67625000D01*
X212816000Y-67666000D02*
X214964000Y-67666000D01*
X208708000Y-67666000D02*
X210856000Y-67666000D01*
X212816000Y-67706000D02*
X214973000Y-67706000D01*
X208699000Y-67706000D02*
X210856000Y-67706000D01*
X212816000Y-67746000D02*
X214980000Y-67746000D01*
X208692000Y-67746000D02*
X210856000Y-67746000D01*
X212816000Y-67786000D02*
X214988000Y-67786000D01*
X208684000Y-67786000D02*
X210856000Y-67786000D01*
X212816000Y-67826000D02*
X214994000Y-67826000D01*
X208678000Y-67826000D02*
X210856000Y-67826000D01*
X212816000Y-67866000D02*
X215001000Y-67866000D01*
X208671000Y-67866000D02*
X210856000Y-67866000D01*
X212816000Y-67906000D02*
X215006000Y-67906000D01*
X208666000Y-67906000D02*
X210856000Y-67906000D01*
X212816000Y-67946000D02*
X215012000Y-67946000D01*
X208660000Y-67946000D02*
X210856000Y-67946000D01*
X212816000Y-67986000D02*
X215016000Y-67986000D01*
X208656000Y-67986000D02*
X210856000Y-67986000D01*
X212816000Y-68026000D02*
X215021000Y-68026000D01*
X208651000Y-68026000D02*
X210856000Y-68026000D01*
X212816000Y-68066000D02*
X215024000Y-68066000D01*
X208648000Y-68066000D02*
X210856000Y-68066000D01*
X208644000Y-68106000D02*
X215028000Y-68106000D01*
X208642000Y-68146000D02*
X215030000Y-68146000D01*
X208639000Y-68186000D02*
X215033000Y-68186000D01*
X208638000Y-68226000D02*
X215034000Y-68226000D01*
X208636000Y-68266000D02*
X215036000Y-68266000D01*
X208636000Y-68306000D02*
X215036000Y-68306000D01*
X208636000Y-68346000D02*
X215036000Y-68346000D01*
X210656864Y-65328180D02*
G75*
G03*
X210656000Y-71363482I1179136J-3017820D01*
G01*
X213015136Y-65328180D02*
G75*
G02*
X213016000Y-71363482I-1179136J-3017820D01*
G01*
X213015136Y-65328180D02*
G75*
G03*
X210656000Y-65328518I-1179136J-3017820D01*
G01*
%TO.C,U2*%
X204740000Y-97603000D02*
X203490000Y-97603000D01*
X203490000Y-97603000D02*
X203490000Y-115503000D01*
X203490000Y-115503000D02*
X207990000Y-115503000D01*
X207990000Y-115503000D02*
X207990000Y-97603000D01*
X207990000Y-97603000D02*
X206740000Y-97603000D01*
X200490000Y-97543000D02*
X200490000Y-115563000D01*
X200490000Y-115563000D02*
X210990000Y-115563000D01*
X210990000Y-115563000D02*
X210990000Y-97543000D01*
X210990000Y-97543000D02*
X200490000Y-97543000D01*
X206740000Y-97603000D02*
G75*
G02*
X204740000Y-97603000I-1000000J0D01*
G01*
%TO.C,U1*%
X206799000Y-133738000D02*
X196299000Y-133738000D01*
X206799000Y-144138000D02*
X206799000Y-133738000D01*
X196299000Y-144138000D02*
X206799000Y-144138000D01*
X196299000Y-133738000D02*
X196299000Y-144138000D01*
X203799000Y-133798000D02*
X202549000Y-133798000D01*
X203799000Y-144078000D02*
X203799000Y-133798000D01*
X199299000Y-144078000D02*
X203799000Y-144078000D01*
X199299000Y-133798000D02*
X199299000Y-144078000D01*
X200549000Y-133798000D02*
X199299000Y-133798000D01*
X202549000Y-133798000D02*
G75*
G02*
X200549000Y-133798000I-1000000J0D01*
G01*
%TO.C,Q1*%
X212272000Y-140313000D02*
X212272000Y-143913000D01*
X212999205Y-139788816D02*
G75*
G03*
X212272000Y-140313000I1122795J-2324184D01*
G01*
X215220807Y-139756600D02*
G75*
G02*
X216722000Y-142113000I-1098807J-2356400D01*
G01*
X215220807Y-144469400D02*
G75*
G03*
X216722000Y-142113000I-1098807J2356400D01*
G01*
X212999205Y-144437184D02*
G75*
G02*
X212272000Y-143913000I1122795J2324184D01*
G01*
%TO.C,Q2*%
X207509500Y-140313000D02*
X207509500Y-143913000D01*
X208236705Y-139788816D02*
G75*
G03*
X207509500Y-140313000I1122795J-2324184D01*
G01*
X210458307Y-139756600D02*
G75*
G02*
X211959500Y-142113000I-1098807J-2356400D01*
G01*
X210458307Y-144469400D02*
G75*
G03*
X211959500Y-142113000I-1098807J2356400D01*
G01*
X208236705Y-144437184D02*
G75*
G02*
X207509500Y-143913000I1122795J2324184D01*
G01*
%TO.C,Q3*%
X203476000Y-152328000D02*
X199876000Y-152328000D01*
X204000184Y-153055205D02*
G75*
G03*
X203476000Y-152328000I-2324184J-1122795D01*
G01*
X204032400Y-155276807D02*
G75*
G02*
X201676000Y-156778000I-2356400J1098807D01*
G01*
X199319600Y-155276807D02*
G75*
G03*
X201676000Y-156778000I2356400J1098807D01*
G01*
X199351816Y-153055205D02*
G75*
G02*
X199876000Y-152328000I2324184J-1122795D01*
G01*
%TO.C,J10*%
X196663000Y-85792000D02*
X197993000Y-85792000D01*
X196663000Y-87122000D02*
X196663000Y-85792000D01*
X196663000Y-88392000D02*
X199323000Y-88392000D01*
X199323000Y-88392000D02*
X199323000Y-108772000D01*
X196663000Y-88392000D02*
X196663000Y-108772000D01*
X196663000Y-108772000D02*
X199323000Y-108772000D01*
%TO.C,J11*%
X212157000Y-85792000D02*
X213487000Y-85792000D01*
X212157000Y-87122000D02*
X212157000Y-85792000D01*
X212157000Y-88392000D02*
X214817000Y-88392000D01*
X214817000Y-88392000D02*
X214817000Y-108772000D01*
X212157000Y-88392000D02*
X212157000Y-108772000D01*
X212157000Y-108772000D02*
X214817000Y-108772000D01*
%TO.C,C12*%
D11*
X197770714Y-148850285D02*
X197808809Y-148888380D01*
X197846904Y-149002666D01*
X197846904Y-149078857D01*
X197808809Y-149193142D01*
X197732619Y-149269333D01*
X197656428Y-149307428D01*
X197504047Y-149345523D01*
X197389761Y-149345523D01*
X197237380Y-149307428D01*
X197161190Y-149269333D01*
X197085000Y-149193142D01*
X197046904Y-149078857D01*
X197046904Y-149002666D01*
X197085000Y-148888380D01*
X197123095Y-148850285D01*
X197846904Y-148088380D02*
X197846904Y-148545523D01*
X197846904Y-148316952D02*
X197046904Y-148316952D01*
X197161190Y-148393142D01*
X197237380Y-148469333D01*
X197275476Y-148545523D01*
X197123095Y-147783619D02*
X197085000Y-147745523D01*
X197046904Y-147669333D01*
X197046904Y-147478857D01*
X197085000Y-147402666D01*
X197123095Y-147364571D01*
X197199285Y-147326476D01*
X197275476Y-147326476D01*
X197389761Y-147364571D01*
X197846904Y-147821714D01*
X197846904Y-147326476D01*
X200801714Y-148443914D02*
X200763619Y-148482009D01*
X200649333Y-148520104D01*
X200573142Y-148520104D01*
X200458857Y-148482009D01*
X200382666Y-148405819D01*
X200344571Y-148329628D01*
X200306476Y-148177247D01*
X200306476Y-148062961D01*
X200344571Y-147910580D01*
X200382666Y-147834390D01*
X200458857Y-147758200D01*
X200573142Y-147720104D01*
X200649333Y-147720104D01*
X200763619Y-147758200D01*
X200801714Y-147796295D01*
X200954095Y-148596295D02*
X201563619Y-148596295D01*
X201639809Y-147986771D02*
X201944571Y-147986771D01*
X201754095Y-148520104D02*
X201754095Y-147834390D01*
X201792190Y-147758200D01*
X201868380Y-147720104D01*
X201944571Y-147720104D01*
X202211238Y-148520104D02*
X202211238Y-147986771D01*
X202211238Y-147720104D02*
X202173142Y-147758200D01*
X202211238Y-147796295D01*
X202249333Y-147758200D01*
X202211238Y-147720104D01*
X202211238Y-147796295D01*
X202706476Y-148520104D02*
X202630285Y-148482009D01*
X202592190Y-148405819D01*
X202592190Y-147720104D01*
X202896952Y-147986771D02*
X203201714Y-147986771D01*
X203011238Y-147720104D02*
X203011238Y-148405819D01*
X203049333Y-148482009D01*
X203125523Y-148520104D01*
X203201714Y-148520104D01*
%TO.C,U3*%
X203606476Y-64839904D02*
X203606476Y-65487523D01*
X203644571Y-65563714D01*
X203682666Y-65601809D01*
X203758857Y-65639904D01*
X203911238Y-65639904D01*
X203987428Y-65601809D01*
X204025523Y-65563714D01*
X204063619Y-65487523D01*
X204063619Y-64839904D01*
X204368380Y-64839904D02*
X204863619Y-64839904D01*
X204596952Y-65144666D01*
X204711238Y-65144666D01*
X204787428Y-65182761D01*
X204825523Y-65220857D01*
X204863619Y-65297047D01*
X204863619Y-65487523D01*
X204825523Y-65563714D01*
X204787428Y-65601809D01*
X204711238Y-65639904D01*
X204482666Y-65639904D01*
X204406476Y-65601809D01*
X204368380Y-65563714D01*
X204176380Y-70492666D02*
X204176380Y-69826000D01*
X205176380Y-70254571D01*
X204604952Y-69302190D02*
X204557333Y-69397428D01*
X204509714Y-69445047D01*
X204414476Y-69492666D01*
X204366857Y-69492666D01*
X204271619Y-69445047D01*
X204224000Y-69397428D01*
X204176380Y-69302190D01*
X204176380Y-69111714D01*
X204224000Y-69016476D01*
X204271619Y-68968857D01*
X204366857Y-68921238D01*
X204414476Y-68921238D01*
X204509714Y-68968857D01*
X204557333Y-69016476D01*
X204604952Y-69111714D01*
X204604952Y-69302190D01*
X204652571Y-69397428D01*
X204700190Y-69445047D01*
X204795428Y-69492666D01*
X204985904Y-69492666D01*
X205081142Y-69445047D01*
X205128761Y-69397428D01*
X205176380Y-69302190D01*
X205176380Y-69111714D01*
X205128761Y-69016476D01*
X205081142Y-68968857D01*
X204985904Y-68921238D01*
X204795428Y-68921238D01*
X204700190Y-68968857D01*
X204652571Y-69016476D01*
X204604952Y-69111714D01*
X205176380Y-68016476D02*
X205176380Y-68492666D01*
X204176380Y-68492666D01*
X204176380Y-67492666D02*
X204176380Y-67397428D01*
X204224000Y-67302190D01*
X204271619Y-67254571D01*
X204366857Y-67206952D01*
X204557333Y-67159333D01*
X204795428Y-67159333D01*
X204985904Y-67206952D01*
X205081142Y-67254571D01*
X205128761Y-67302190D01*
X205176380Y-67397428D01*
X205176380Y-67492666D01*
X205128761Y-67587904D01*
X205081142Y-67635523D01*
X204985904Y-67683142D01*
X204795428Y-67730761D01*
X204557333Y-67730761D01*
X204366857Y-67683142D01*
X204271619Y-67635523D01*
X204224000Y-67587904D01*
X204176380Y-67492666D01*
X204176380Y-66254571D02*
X204176380Y-66730761D01*
X204652571Y-66778380D01*
X204604952Y-66730761D01*
X204557333Y-66635523D01*
X204557333Y-66397428D01*
X204604952Y-66302190D01*
X204652571Y-66254571D01*
X204747809Y-66206952D01*
X204985904Y-66206952D01*
X205081142Y-66254571D01*
X205128761Y-66302190D01*
X205176380Y-66397428D01*
X205176380Y-66635523D01*
X205128761Y-66730761D01*
X205081142Y-66778380D01*
%TO.C,U4*%
X203606476Y-71951904D02*
X203606476Y-72599523D01*
X203644571Y-72675714D01*
X203682666Y-72713809D01*
X203758857Y-72751904D01*
X203911238Y-72751904D01*
X203987428Y-72713809D01*
X204025523Y-72675714D01*
X204063619Y-72599523D01*
X204063619Y-71951904D01*
X204787428Y-72218571D02*
X204787428Y-72751904D01*
X204596952Y-71913809D02*
X204406476Y-72485238D01*
X204901714Y-72485238D01*
X204176380Y-77858666D02*
X204176380Y-77192000D01*
X205176380Y-77620571D01*
X205176380Y-76763428D02*
X205176380Y-76572952D01*
X205128761Y-76477714D01*
X205081142Y-76430095D01*
X204938285Y-76334857D01*
X204747809Y-76287238D01*
X204366857Y-76287238D01*
X204271619Y-76334857D01*
X204224000Y-76382476D01*
X204176380Y-76477714D01*
X204176380Y-76668190D01*
X204224000Y-76763428D01*
X204271619Y-76811047D01*
X204366857Y-76858666D01*
X204604952Y-76858666D01*
X204700190Y-76811047D01*
X204747809Y-76763428D01*
X204795428Y-76668190D01*
X204795428Y-76477714D01*
X204747809Y-76382476D01*
X204700190Y-76334857D01*
X204604952Y-76287238D01*
X205176380Y-75382476D02*
X205176380Y-75858666D01*
X204176380Y-75858666D01*
X204176380Y-74858666D02*
X204176380Y-74763428D01*
X204224000Y-74668190D01*
X204271619Y-74620571D01*
X204366857Y-74572952D01*
X204557333Y-74525333D01*
X204795428Y-74525333D01*
X204985904Y-74572952D01*
X205081142Y-74620571D01*
X205128761Y-74668190D01*
X205176380Y-74763428D01*
X205176380Y-74858666D01*
X205128761Y-74953904D01*
X205081142Y-75001523D01*
X204985904Y-75049142D01*
X204795428Y-75096761D01*
X204557333Y-75096761D01*
X204366857Y-75049142D01*
X204271619Y-75001523D01*
X204224000Y-74953904D01*
X204176380Y-74858666D01*
X204176380Y-73620571D02*
X204176380Y-74096761D01*
X204652571Y-74144380D01*
X204604952Y-74096761D01*
X204557333Y-74001523D01*
X204557333Y-73763428D01*
X204604952Y-73668190D01*
X204652571Y-73620571D01*
X204747809Y-73572952D01*
X204985904Y-73572952D01*
X205081142Y-73620571D01*
X205128761Y-73668190D01*
X205176380Y-73763428D01*
X205176380Y-74001523D01*
X205128761Y-74096761D01*
X205081142Y-74144380D01*
%TO.C,D5*%
X206228904Y-153117476D02*
X205428904Y-153117476D01*
X205428904Y-152927000D01*
X205467000Y-152812714D01*
X205543190Y-152736523D01*
X205619380Y-152698428D01*
X205771761Y-152660333D01*
X205886047Y-152660333D01*
X206038428Y-152698428D01*
X206114619Y-152736523D01*
X206190809Y-152812714D01*
X206228904Y-152927000D01*
X206228904Y-153117476D01*
X205428904Y-151936523D02*
X205428904Y-152317476D01*
X205809857Y-152355571D01*
X205771761Y-152317476D01*
X205733666Y-152241285D01*
X205733666Y-152050809D01*
X205771761Y-151974619D01*
X205809857Y-151936523D01*
X205886047Y-151898428D01*
X206076523Y-151898428D01*
X206152714Y-151936523D01*
X206190809Y-151974619D01*
X206228904Y-152050809D01*
X206228904Y-152241285D01*
X206190809Y-152317476D01*
X206152714Y-152355571D01*
%TO.C,D4*%
X205530523Y-132314904D02*
X205530523Y-131514904D01*
X205721000Y-131514904D01*
X205835285Y-131553000D01*
X205911476Y-131629190D01*
X205949571Y-131705380D01*
X205987666Y-131857761D01*
X205987666Y-131972047D01*
X205949571Y-132124428D01*
X205911476Y-132200619D01*
X205835285Y-132276809D01*
X205721000Y-132314904D01*
X205530523Y-132314904D01*
X206673380Y-131781571D02*
X206673380Y-132314904D01*
X206482904Y-131476809D02*
X206292428Y-132048238D01*
X206787666Y-132048238D01*
%TO.C,D3*%
X205530523Y-131171904D02*
X205530523Y-130371904D01*
X205721000Y-130371904D01*
X205835285Y-130410000D01*
X205911476Y-130486190D01*
X205949571Y-130562380D01*
X205987666Y-130714761D01*
X205987666Y-130829047D01*
X205949571Y-130981428D01*
X205911476Y-131057619D01*
X205835285Y-131133809D01*
X205721000Y-131171904D01*
X205530523Y-131171904D01*
X206254333Y-130371904D02*
X206749571Y-130371904D01*
X206482904Y-130676666D01*
X206597190Y-130676666D01*
X206673380Y-130714761D01*
X206711476Y-130752857D01*
X206749571Y-130829047D01*
X206749571Y-131019523D01*
X206711476Y-131095714D01*
X206673380Y-131133809D01*
X206597190Y-131171904D01*
X206368619Y-131171904D01*
X206292428Y-131133809D01*
X206254333Y-131095714D01*
%TO.C,D2*%
X203625523Y-132314904D02*
X203625523Y-131514904D01*
X203816000Y-131514904D01*
X203930285Y-131553000D01*
X204006476Y-131629190D01*
X204044571Y-131705380D01*
X204082666Y-131857761D01*
X204082666Y-131972047D01*
X204044571Y-132124428D01*
X204006476Y-132200619D01*
X203930285Y-132276809D01*
X203816000Y-132314904D01*
X203625523Y-132314904D01*
X204387428Y-131591095D02*
X204425523Y-131553000D01*
X204501714Y-131514904D01*
X204692190Y-131514904D01*
X204768380Y-131553000D01*
X204806476Y-131591095D01*
X204844571Y-131667285D01*
X204844571Y-131743476D01*
X204806476Y-131857761D01*
X204349333Y-132314904D01*
X204844571Y-132314904D01*
%TO.C,D1*%
X203625523Y-131171904D02*
X203625523Y-130371904D01*
X203816000Y-130371904D01*
X203930285Y-130410000D01*
X204006476Y-130486190D01*
X204044571Y-130562380D01*
X204082666Y-130714761D01*
X204082666Y-130829047D01*
X204044571Y-130981428D01*
X204006476Y-131057619D01*
X203930285Y-131133809D01*
X203816000Y-131171904D01*
X203625523Y-131171904D01*
X204844571Y-131171904D02*
X204387428Y-131171904D01*
X204616000Y-131171904D02*
X204616000Y-130371904D01*
X204539809Y-130486190D01*
X204463619Y-130562380D01*
X204387428Y-130600476D01*
%TO.C,C4*%
X197986666Y-74212414D02*
X197948571Y-74250509D01*
X197834285Y-74288604D01*
X197758095Y-74288604D01*
X197643809Y-74250509D01*
X197567619Y-74174319D01*
X197529523Y-74098128D01*
X197491428Y-73945747D01*
X197491428Y-73831461D01*
X197529523Y-73679080D01*
X197567619Y-73602890D01*
X197643809Y-73526700D01*
X197758095Y-73488604D01*
X197834285Y-73488604D01*
X197948571Y-73526700D01*
X197986666Y-73564795D01*
X198672380Y-73755271D02*
X198672380Y-74288604D01*
X198481904Y-73450509D02*
X198291428Y-74021938D01*
X198786666Y-74021938D01*
%TO.C,C10*%
X201606214Y-132175214D02*
X201568119Y-132213309D01*
X201453833Y-132251404D01*
X201377642Y-132251404D01*
X201263357Y-132213309D01*
X201187166Y-132137119D01*
X201149071Y-132060928D01*
X201110976Y-131908547D01*
X201110976Y-131794261D01*
X201149071Y-131641880D01*
X201187166Y-131565690D01*
X201263357Y-131489500D01*
X201377642Y-131451404D01*
X201453833Y-131451404D01*
X201568119Y-131489500D01*
X201606214Y-131527595D01*
X202368119Y-132251404D02*
X201910976Y-132251404D01*
X202139547Y-132251404D02*
X202139547Y-131451404D01*
X202063357Y-131565690D01*
X201987166Y-131641880D01*
X201910976Y-131679976D01*
X202863357Y-131451404D02*
X202939547Y-131451404D01*
X203015738Y-131489500D01*
X203053833Y-131527595D01*
X203091928Y-131603785D01*
X203130023Y-131756166D01*
X203130023Y-131946642D01*
X203091928Y-132099023D01*
X203053833Y-132175214D01*
X203015738Y-132213309D01*
X202939547Y-132251404D01*
X202863357Y-132251404D01*
X202787166Y-132213309D01*
X202749071Y-132175214D01*
X202710976Y-132099023D01*
X202672880Y-131946642D01*
X202672880Y-131756166D01*
X202710976Y-131603785D01*
X202749071Y-131527595D01*
X202787166Y-131489500D01*
X202863357Y-131451404D01*
%TO.C,C9*%
X210051666Y-92487714D02*
X210013571Y-92525809D01*
X209899285Y-92563904D01*
X209823095Y-92563904D01*
X209708809Y-92525809D01*
X209632619Y-92449619D01*
X209594523Y-92373428D01*
X209556428Y-92221047D01*
X209556428Y-92106761D01*
X209594523Y-91954380D01*
X209632619Y-91878190D01*
X209708809Y-91802000D01*
X209823095Y-91763904D01*
X209899285Y-91763904D01*
X210013571Y-91802000D01*
X210051666Y-91840095D01*
X210432619Y-92563904D02*
X210585000Y-92563904D01*
X210661190Y-92525809D01*
X210699285Y-92487714D01*
X210775476Y-92373428D01*
X210813571Y-92221047D01*
X210813571Y-91916285D01*
X210775476Y-91840095D01*
X210737380Y-91802000D01*
X210661190Y-91763904D01*
X210508809Y-91763904D01*
X210432619Y-91802000D01*
X210394523Y-91840095D01*
X210356428Y-91916285D01*
X210356428Y-92106761D01*
X210394523Y-92182952D01*
X210432619Y-92221047D01*
X210508809Y-92259142D01*
X210661190Y-92259142D01*
X210737380Y-92221047D01*
X210775476Y-92182952D01*
X210813571Y-92106761D01*
%TO.C,C8*%
X205733666Y-96170714D02*
X205695571Y-96208809D01*
X205581285Y-96246904D01*
X205505095Y-96246904D01*
X205390809Y-96208809D01*
X205314619Y-96132619D01*
X205276523Y-96056428D01*
X205238428Y-95904047D01*
X205238428Y-95789761D01*
X205276523Y-95637380D01*
X205314619Y-95561190D01*
X205390809Y-95485000D01*
X205505095Y-95446904D01*
X205581285Y-95446904D01*
X205695571Y-95485000D01*
X205733666Y-95523095D01*
X206190809Y-95789761D02*
X206114619Y-95751666D01*
X206076523Y-95713571D01*
X206038428Y-95637380D01*
X206038428Y-95599285D01*
X206076523Y-95523095D01*
X206114619Y-95485000D01*
X206190809Y-95446904D01*
X206343190Y-95446904D01*
X206419380Y-95485000D01*
X206457476Y-95523095D01*
X206495571Y-95599285D01*
X206495571Y-95637380D01*
X206457476Y-95713571D01*
X206419380Y-95751666D01*
X206343190Y-95789761D01*
X206190809Y-95789761D01*
X206114619Y-95827857D01*
X206076523Y-95865952D01*
X206038428Y-95942142D01*
X206038428Y-96094523D01*
X206076523Y-96170714D01*
X206114619Y-96208809D01*
X206190809Y-96246904D01*
X206343190Y-96246904D01*
X206419380Y-96208809D01*
X206457476Y-96170714D01*
X206495571Y-96094523D01*
X206495571Y-95942142D01*
X206457476Y-95865952D01*
X206419380Y-95827857D01*
X206343190Y-95789761D01*
%TO.C,C6*%
X201923666Y-74199714D02*
X201885571Y-74237809D01*
X201771285Y-74275904D01*
X201695095Y-74275904D01*
X201580809Y-74237809D01*
X201504619Y-74161619D01*
X201466523Y-74085428D01*
X201428428Y-73933047D01*
X201428428Y-73818761D01*
X201466523Y-73666380D01*
X201504619Y-73590190D01*
X201580809Y-73514000D01*
X201695095Y-73475904D01*
X201771285Y-73475904D01*
X201885571Y-73514000D01*
X201923666Y-73552095D01*
X202609380Y-73475904D02*
X202457000Y-73475904D01*
X202380809Y-73514000D01*
X202342714Y-73552095D01*
X202266523Y-73666380D01*
X202228428Y-73818761D01*
X202228428Y-74123523D01*
X202266523Y-74199714D01*
X202304619Y-74237809D01*
X202380809Y-74275904D01*
X202533190Y-74275904D01*
X202609380Y-74237809D01*
X202647476Y-74199714D01*
X202685571Y-74123523D01*
X202685571Y-73933047D01*
X202647476Y-73856857D01*
X202609380Y-73818761D01*
X202533190Y-73780666D01*
X202380809Y-73780666D01*
X202304619Y-73818761D01*
X202266523Y-73856857D01*
X202228428Y-73933047D01*
%TO.C,R25*%
X203066714Y-83991404D02*
X202800047Y-83610452D01*
X202609571Y-83991404D02*
X202609571Y-83191404D01*
X202914333Y-83191404D01*
X202990523Y-83229500D01*
X203028619Y-83267595D01*
X203066714Y-83343785D01*
X203066714Y-83458071D01*
X203028619Y-83534261D01*
X202990523Y-83572357D01*
X202914333Y-83610452D01*
X202609571Y-83610452D01*
X203371476Y-83267595D02*
X203409571Y-83229500D01*
X203485761Y-83191404D01*
X203676238Y-83191404D01*
X203752428Y-83229500D01*
X203790523Y-83267595D01*
X203828619Y-83343785D01*
X203828619Y-83419976D01*
X203790523Y-83534261D01*
X203333380Y-83991404D01*
X203828619Y-83991404D01*
X204552428Y-83191404D02*
X204171476Y-83191404D01*
X204133380Y-83572357D01*
X204171476Y-83534261D01*
X204247666Y-83496166D01*
X204438142Y-83496166D01*
X204514333Y-83534261D01*
X204552428Y-83572357D01*
X204590523Y-83648547D01*
X204590523Y-83839023D01*
X204552428Y-83915214D01*
X204514333Y-83953309D01*
X204438142Y-83991404D01*
X204247666Y-83991404D01*
X204171476Y-83953309D01*
X204133380Y-83915214D01*
X207549809Y-83991404D02*
X207092666Y-83991404D01*
X207321238Y-83991404D02*
X207321238Y-83191404D01*
X207245047Y-83305690D01*
X207168857Y-83381880D01*
X207092666Y-83419976D01*
X208045047Y-83191404D02*
X208121238Y-83191404D01*
X208197428Y-83229500D01*
X208235523Y-83267595D01*
X208273619Y-83343785D01*
X208311714Y-83496166D01*
X208311714Y-83686642D01*
X208273619Y-83839023D01*
X208235523Y-83915214D01*
X208197428Y-83953309D01*
X208121238Y-83991404D01*
X208045047Y-83991404D01*
X207968857Y-83953309D01*
X207930761Y-83915214D01*
X207892666Y-83839023D01*
X207854571Y-83686642D01*
X207854571Y-83496166D01*
X207892666Y-83343785D01*
X207930761Y-83267595D01*
X207968857Y-83229500D01*
X208045047Y-83191404D01*
X208654571Y-83991404D02*
X208654571Y-83191404D01*
X208730761Y-83686642D02*
X208959333Y-83991404D01*
X208959333Y-83458071D02*
X208654571Y-83762833D01*
%TO.C,R24*%
X204971714Y-81387904D02*
X204705047Y-81006952D01*
X204514571Y-81387904D02*
X204514571Y-80587904D01*
X204819333Y-80587904D01*
X204895523Y-80626000D01*
X204933619Y-80664095D01*
X204971714Y-80740285D01*
X204971714Y-80854571D01*
X204933619Y-80930761D01*
X204895523Y-80968857D01*
X204819333Y-81006952D01*
X204514571Y-81006952D01*
X205276476Y-80664095D02*
X205314571Y-80626000D01*
X205390761Y-80587904D01*
X205581238Y-80587904D01*
X205657428Y-80626000D01*
X205695523Y-80664095D01*
X205733619Y-80740285D01*
X205733619Y-80816476D01*
X205695523Y-80930761D01*
X205238380Y-81387904D01*
X205733619Y-81387904D01*
X206419333Y-80854571D02*
X206419333Y-81387904D01*
X206228857Y-80549809D02*
X206038380Y-81121238D01*
X206533619Y-81121238D01*
X200310809Y-81387904D02*
X199853666Y-81387904D01*
X200082238Y-81387904D02*
X200082238Y-80587904D01*
X200006047Y-80702190D01*
X199929857Y-80778380D01*
X199853666Y-80816476D01*
X200806047Y-80587904D02*
X200882238Y-80587904D01*
X200958428Y-80626000D01*
X200996523Y-80664095D01*
X201034619Y-80740285D01*
X201072714Y-80892666D01*
X201072714Y-81083142D01*
X201034619Y-81235523D01*
X200996523Y-81311714D01*
X200958428Y-81349809D01*
X200882238Y-81387904D01*
X200806047Y-81387904D01*
X200729857Y-81349809D01*
X200691761Y-81311714D01*
X200653666Y-81235523D01*
X200615571Y-81083142D01*
X200615571Y-80892666D01*
X200653666Y-80740285D01*
X200691761Y-80664095D01*
X200729857Y-80626000D01*
X200806047Y-80587904D01*
X201415571Y-81387904D02*
X201415571Y-80587904D01*
X201491761Y-81083142D02*
X201720333Y-81387904D01*
X201720333Y-80854571D02*
X201415571Y-81159333D01*
%TO.C,R23*%
X200907714Y-90150904D02*
X200641047Y-89769952D01*
X200450571Y-90150904D02*
X200450571Y-89350904D01*
X200755333Y-89350904D01*
X200831523Y-89389000D01*
X200869619Y-89427095D01*
X200907714Y-89503285D01*
X200907714Y-89617571D01*
X200869619Y-89693761D01*
X200831523Y-89731857D01*
X200755333Y-89769952D01*
X200450571Y-89769952D01*
X201212476Y-89427095D02*
X201250571Y-89389000D01*
X201326761Y-89350904D01*
X201517238Y-89350904D01*
X201593428Y-89389000D01*
X201631523Y-89427095D01*
X201669619Y-89503285D01*
X201669619Y-89579476D01*
X201631523Y-89693761D01*
X201174380Y-90150904D01*
X201669619Y-90150904D01*
X201936285Y-89350904D02*
X202431523Y-89350904D01*
X202164857Y-89655666D01*
X202279142Y-89655666D01*
X202355333Y-89693761D01*
X202393428Y-89731857D01*
X202431523Y-89808047D01*
X202431523Y-89998523D01*
X202393428Y-90074714D01*
X202355333Y-90112809D01*
X202279142Y-90150904D01*
X202050571Y-90150904D01*
X201974380Y-90112809D01*
X201936285Y-90074714D01*
X201783904Y-86696428D02*
X201402952Y-86963095D01*
X201783904Y-87153571D02*
X200983904Y-87153571D01*
X200983904Y-86848809D01*
X201022000Y-86772619D01*
X201060095Y-86734523D01*
X201136285Y-86696428D01*
X201250571Y-86696428D01*
X201326761Y-86734523D01*
X201364857Y-86772619D01*
X201402952Y-86848809D01*
X201402952Y-87153571D01*
X201860095Y-86544047D02*
X201860095Y-85934523D01*
X201783904Y-85629761D02*
X201745809Y-85705952D01*
X201669619Y-85744047D01*
X200983904Y-85744047D01*
X201745809Y-85020238D02*
X201783904Y-85096428D01*
X201783904Y-85248809D01*
X201745809Y-85325000D01*
X201669619Y-85363095D01*
X201364857Y-85363095D01*
X201288666Y-85325000D01*
X201250571Y-85248809D01*
X201250571Y-85096428D01*
X201288666Y-85020238D01*
X201364857Y-84982142D01*
X201441047Y-84982142D01*
X201517238Y-85363095D01*
X201783904Y-84296428D02*
X200983904Y-84296428D01*
X201745809Y-84296428D02*
X201783904Y-84372619D01*
X201783904Y-84525000D01*
X201745809Y-84601190D01*
X201707714Y-84639285D01*
X201631523Y-84677380D01*
X201402952Y-84677380D01*
X201326761Y-84639285D01*
X201288666Y-84601190D01*
X201250571Y-84525000D01*
X201250571Y-84372619D01*
X201288666Y-84296428D01*
%TO.C,R22*%
X197846904Y-146310285D02*
X197465952Y-146576952D01*
X197846904Y-146767428D02*
X197046904Y-146767428D01*
X197046904Y-146462666D01*
X197085000Y-146386476D01*
X197123095Y-146348380D01*
X197199285Y-146310285D01*
X197313571Y-146310285D01*
X197389761Y-146348380D01*
X197427857Y-146386476D01*
X197465952Y-146462666D01*
X197465952Y-146767428D01*
X197123095Y-146005523D02*
X197085000Y-145967428D01*
X197046904Y-145891238D01*
X197046904Y-145700761D01*
X197085000Y-145624571D01*
X197123095Y-145586476D01*
X197199285Y-145548380D01*
X197275476Y-145548380D01*
X197389761Y-145586476D01*
X197846904Y-146043619D01*
X197846904Y-145548380D01*
X197123095Y-145243619D02*
X197085000Y-145205523D01*
X197046904Y-145129333D01*
X197046904Y-144938857D01*
X197085000Y-144862666D01*
X197123095Y-144824571D01*
X197199285Y-144786476D01*
X197275476Y-144786476D01*
X197389761Y-144824571D01*
X197846904Y-145281714D01*
X197846904Y-144786476D01*
X200761714Y-146030904D02*
X200495047Y-145649952D01*
X200304571Y-146030904D02*
X200304571Y-145230904D01*
X200609333Y-145230904D01*
X200685523Y-145269000D01*
X200723619Y-145307095D01*
X200761714Y-145383285D01*
X200761714Y-145497571D01*
X200723619Y-145573761D01*
X200685523Y-145611857D01*
X200609333Y-145649952D01*
X200304571Y-145649952D01*
X200914095Y-146107095D02*
X201523619Y-146107095D01*
X201599809Y-145497571D02*
X201904571Y-145497571D01*
X201714095Y-146030904D02*
X201714095Y-145345190D01*
X201752190Y-145269000D01*
X201828380Y-145230904D01*
X201904571Y-145230904D01*
X202171238Y-146030904D02*
X202171238Y-145497571D01*
X202171238Y-145230904D02*
X202133142Y-145269000D01*
X202171238Y-145307095D01*
X202209333Y-145269000D01*
X202171238Y-145230904D01*
X202171238Y-145307095D01*
X202666476Y-146030904D02*
X202590285Y-145992809D01*
X202552190Y-145916619D01*
X202552190Y-145230904D01*
X202856952Y-145497571D02*
X203161714Y-145497571D01*
X202971238Y-145230904D02*
X202971238Y-145916619D01*
X203009333Y-145992809D01*
X203085523Y-146030904D01*
X203161714Y-146030904D01*
%TO.C,R21*%
X203066714Y-86340904D02*
X202800047Y-85959952D01*
X202609571Y-86340904D02*
X202609571Y-85540904D01*
X202914333Y-85540904D01*
X202990523Y-85579000D01*
X203028619Y-85617095D01*
X203066714Y-85693285D01*
X203066714Y-85807571D01*
X203028619Y-85883761D01*
X202990523Y-85921857D01*
X202914333Y-85959952D01*
X202609571Y-85959952D01*
X203371476Y-85617095D02*
X203409571Y-85579000D01*
X203485761Y-85540904D01*
X203676238Y-85540904D01*
X203752428Y-85579000D01*
X203790523Y-85617095D01*
X203828619Y-85693285D01*
X203828619Y-85769476D01*
X203790523Y-85883761D01*
X203333380Y-86340904D01*
X203828619Y-86340904D01*
X204590523Y-86340904D02*
X204133380Y-86340904D01*
X204361952Y-86340904D02*
X204361952Y-85540904D01*
X204285761Y-85655190D01*
X204209571Y-85731380D01*
X204133380Y-85769476D01*
X207016476Y-86340904D02*
X206749809Y-85959952D01*
X206559333Y-86340904D02*
X206559333Y-85540904D01*
X206864095Y-85540904D01*
X206940285Y-85579000D01*
X206978380Y-85617095D01*
X207016476Y-85693285D01*
X207016476Y-85807571D01*
X206978380Y-85883761D01*
X206940285Y-85921857D01*
X206864095Y-85959952D01*
X206559333Y-85959952D01*
X207168857Y-86417095D02*
X207778380Y-86417095D01*
X208083142Y-86340904D02*
X208006952Y-86302809D01*
X207968857Y-86264714D01*
X207930761Y-86188523D01*
X207930761Y-85959952D01*
X207968857Y-85883761D01*
X208006952Y-85845666D01*
X208083142Y-85807571D01*
X208197428Y-85807571D01*
X208273619Y-85845666D01*
X208311714Y-85883761D01*
X208349809Y-85959952D01*
X208349809Y-86188523D01*
X208311714Y-86264714D01*
X208273619Y-86302809D01*
X208197428Y-86340904D01*
X208083142Y-86340904D01*
X209035523Y-85807571D02*
X209035523Y-86340904D01*
X208692666Y-85807571D02*
X208692666Y-86226619D01*
X208730761Y-86302809D01*
X208806952Y-86340904D01*
X208921238Y-86340904D01*
X208997428Y-86302809D01*
X209035523Y-86264714D01*
X209302190Y-85807571D02*
X209606952Y-85807571D01*
X209416476Y-85540904D02*
X209416476Y-86226619D01*
X209454571Y-86302809D01*
X209530761Y-86340904D01*
X209606952Y-86340904D01*
%TO.C,R20*%
X207244904Y-155708285D02*
X206863952Y-155974952D01*
X207244904Y-156165428D02*
X206444904Y-156165428D01*
X206444904Y-155860666D01*
X206483000Y-155784476D01*
X206521095Y-155746380D01*
X206597285Y-155708285D01*
X206711571Y-155708285D01*
X206787761Y-155746380D01*
X206825857Y-155784476D01*
X206863952Y-155860666D01*
X206863952Y-156165428D01*
X206521095Y-155403523D02*
X206483000Y-155365428D01*
X206444904Y-155289238D01*
X206444904Y-155098761D01*
X206483000Y-155022571D01*
X206521095Y-154984476D01*
X206597285Y-154946380D01*
X206673476Y-154946380D01*
X206787761Y-154984476D01*
X207244904Y-155441619D01*
X207244904Y-154946380D01*
X206444904Y-154451142D02*
X206444904Y-154374952D01*
X206483000Y-154298761D01*
X206521095Y-154260666D01*
X206597285Y-154222571D01*
X206749666Y-154184476D01*
X206940142Y-154184476D01*
X207092523Y-154222571D01*
X207168714Y-154260666D01*
X207206809Y-154298761D01*
X207244904Y-154374952D01*
X207244904Y-154451142D01*
X207206809Y-154527333D01*
X207168714Y-154565428D01*
X207092523Y-154603523D01*
X206940142Y-154641619D01*
X206749666Y-154641619D01*
X206597285Y-154603523D01*
X206521095Y-154565428D01*
X206483000Y-154527333D01*
X206444904Y-154451142D01*
X210089857Y-155555904D02*
X209632714Y-155555904D01*
X209861285Y-155555904D02*
X209861285Y-154755904D01*
X209785095Y-154870190D01*
X209708904Y-154946380D01*
X209632714Y-154984476D01*
X210585095Y-154755904D02*
X210661285Y-154755904D01*
X210737476Y-154794000D01*
X210775571Y-154832095D01*
X210813666Y-154908285D01*
X210851761Y-155060666D01*
X210851761Y-155251142D01*
X210813666Y-155403523D01*
X210775571Y-155479714D01*
X210737476Y-155517809D01*
X210661285Y-155555904D01*
X210585095Y-155555904D01*
X210508904Y-155517809D01*
X210470809Y-155479714D01*
X210432714Y-155403523D01*
X210394619Y-155251142D01*
X210394619Y-155060666D01*
X210432714Y-154908285D01*
X210470809Y-154832095D01*
X210508904Y-154794000D01*
X210585095Y-154755904D01*
X211347000Y-154755904D02*
X211423190Y-154755904D01*
X211499380Y-154794000D01*
X211537476Y-154832095D01*
X211575571Y-154908285D01*
X211613666Y-155060666D01*
X211613666Y-155251142D01*
X211575571Y-155403523D01*
X211537476Y-155479714D01*
X211499380Y-155517809D01*
X211423190Y-155555904D01*
X211347000Y-155555904D01*
X211270809Y-155517809D01*
X211232714Y-155479714D01*
X211194619Y-155403523D01*
X211156523Y-155251142D01*
X211156523Y-155060666D01*
X211194619Y-154908285D01*
X211232714Y-154832095D01*
X211270809Y-154794000D01*
X211347000Y-154755904D01*
X211956523Y-155555904D02*
X211956523Y-154755904D01*
X212032714Y-155251142D02*
X212261285Y-155555904D01*
X212261285Y-155022571D02*
X211956523Y-155327333D01*
%TO.C,R19*%
X197846904Y-151517285D02*
X197465952Y-151783952D01*
X197846904Y-151974428D02*
X197046904Y-151974428D01*
X197046904Y-151669666D01*
X197085000Y-151593476D01*
X197123095Y-151555380D01*
X197199285Y-151517285D01*
X197313571Y-151517285D01*
X197389761Y-151555380D01*
X197427857Y-151593476D01*
X197465952Y-151669666D01*
X197465952Y-151974428D01*
X197846904Y-150755380D02*
X197846904Y-151212523D01*
X197846904Y-150983952D02*
X197046904Y-150983952D01*
X197161190Y-151060142D01*
X197237380Y-151136333D01*
X197275476Y-151212523D01*
X197846904Y-150374428D02*
X197846904Y-150222047D01*
X197808809Y-150145857D01*
X197770714Y-150107761D01*
X197656428Y-150031571D01*
X197504047Y-149993476D01*
X197199285Y-149993476D01*
X197123095Y-150031571D01*
X197085000Y-150069666D01*
X197046904Y-150145857D01*
X197046904Y-150298238D01*
X197085000Y-150374428D01*
X197123095Y-150412523D01*
X197199285Y-150450619D01*
X197389761Y-150450619D01*
X197465952Y-150412523D01*
X197504047Y-150374428D01*
X197542142Y-150298238D01*
X197542142Y-150145857D01*
X197504047Y-150069666D01*
X197465952Y-150031571D01*
X197389761Y-149993476D01*
X200704571Y-151364904D02*
X200437904Y-150983952D01*
X200247428Y-151364904D02*
X200247428Y-150564904D01*
X200552190Y-150564904D01*
X200628380Y-150603000D01*
X200666476Y-150641095D01*
X200704571Y-150717285D01*
X200704571Y-150831571D01*
X200666476Y-150907761D01*
X200628380Y-150945857D01*
X200552190Y-150983952D01*
X200247428Y-150983952D01*
X200856952Y-151441095D02*
X201466476Y-151441095D01*
X201771238Y-151364904D02*
X201695047Y-151326809D01*
X201656952Y-151250619D01*
X201656952Y-150564904D01*
X202380761Y-151326809D02*
X202304571Y-151364904D01*
X202152190Y-151364904D01*
X202076000Y-151326809D01*
X202037904Y-151250619D01*
X202037904Y-150945857D01*
X202076000Y-150869666D01*
X202152190Y-150831571D01*
X202304571Y-150831571D01*
X202380761Y-150869666D01*
X202418857Y-150945857D01*
X202418857Y-151022047D01*
X202037904Y-151098238D01*
X203104571Y-151364904D02*
X203104571Y-150564904D01*
X203104571Y-151326809D02*
X203028380Y-151364904D01*
X202876000Y-151364904D01*
X202799809Y-151326809D01*
X202761714Y-151288714D01*
X202723619Y-151212523D01*
X202723619Y-150983952D01*
X202761714Y-150907761D01*
X202799809Y-150869666D01*
X202876000Y-150831571D01*
X203028380Y-150831571D01*
X203104571Y-150869666D01*
%TO.C,R18*%
X208133904Y-137547285D02*
X207752952Y-137813952D01*
X208133904Y-138004428D02*
X207333904Y-138004428D01*
X207333904Y-137699666D01*
X207372000Y-137623476D01*
X207410095Y-137585380D01*
X207486285Y-137547285D01*
X207600571Y-137547285D01*
X207676761Y-137585380D01*
X207714857Y-137623476D01*
X207752952Y-137699666D01*
X207752952Y-138004428D01*
X208133904Y-136785380D02*
X208133904Y-137242523D01*
X208133904Y-137013952D02*
X207333904Y-137013952D01*
X207448190Y-137090142D01*
X207524380Y-137166333D01*
X207562476Y-137242523D01*
X207676761Y-136328238D02*
X207638666Y-136404428D01*
X207600571Y-136442523D01*
X207524380Y-136480619D01*
X207486285Y-136480619D01*
X207410095Y-136442523D01*
X207372000Y-136404428D01*
X207333904Y-136328238D01*
X207333904Y-136175857D01*
X207372000Y-136099666D01*
X207410095Y-136061571D01*
X207486285Y-136023476D01*
X207524380Y-136023476D01*
X207600571Y-136061571D01*
X207638666Y-136099666D01*
X207676761Y-136175857D01*
X207676761Y-136328238D01*
X207714857Y-136404428D01*
X207752952Y-136442523D01*
X207829142Y-136480619D01*
X207981523Y-136480619D01*
X208057714Y-136442523D01*
X208095809Y-136404428D01*
X208133904Y-136328238D01*
X208133904Y-136175857D01*
X208095809Y-136099666D01*
X208057714Y-136061571D01*
X207981523Y-136023476D01*
X207829142Y-136023476D01*
X207752952Y-136061571D01*
X207714857Y-136099666D01*
X207676761Y-136175857D01*
X210661390Y-136671095D02*
X210699485Y-136633000D01*
X210775676Y-136594904D01*
X210966152Y-136594904D01*
X211042342Y-136633000D01*
X211080438Y-136671095D01*
X211118533Y-136747285D01*
X211118533Y-136823476D01*
X211080438Y-136937761D01*
X210623295Y-137394904D01*
X211118533Y-137394904D01*
X211461390Y-137318714D02*
X211499485Y-137356809D01*
X211461390Y-137394904D01*
X211423295Y-137356809D01*
X211461390Y-137318714D01*
X211461390Y-137394904D01*
X211804247Y-136671095D02*
X211842342Y-136633000D01*
X211918533Y-136594904D01*
X212109009Y-136594904D01*
X212185200Y-136633000D01*
X212223295Y-136671095D01*
X212261390Y-136747285D01*
X212261390Y-136823476D01*
X212223295Y-136937761D01*
X211766152Y-137394904D01*
X212261390Y-137394904D01*
X212604247Y-137394904D02*
X212604247Y-136594904D01*
X212680438Y-137090142D02*
X212909009Y-137394904D01*
X212909009Y-136861571D02*
X212604247Y-137166333D01*
%TO.C,R17*%
X208133904Y-132467285D02*
X207752952Y-132733952D01*
X208133904Y-132924428D02*
X207333904Y-132924428D01*
X207333904Y-132619666D01*
X207372000Y-132543476D01*
X207410095Y-132505380D01*
X207486285Y-132467285D01*
X207600571Y-132467285D01*
X207676761Y-132505380D01*
X207714857Y-132543476D01*
X207752952Y-132619666D01*
X207752952Y-132924428D01*
X208133904Y-131705380D02*
X208133904Y-132162523D01*
X208133904Y-131933952D02*
X207333904Y-131933952D01*
X207448190Y-132010142D01*
X207524380Y-132086333D01*
X207562476Y-132162523D01*
X207333904Y-131438714D02*
X207333904Y-130905380D01*
X208133904Y-131248238D01*
X210432819Y-131514904D02*
X210928057Y-131514904D01*
X210661390Y-131819666D01*
X210775676Y-131819666D01*
X210851866Y-131857761D01*
X210889961Y-131895857D01*
X210928057Y-131972047D01*
X210928057Y-132162523D01*
X210889961Y-132238714D01*
X210851866Y-132276809D01*
X210775676Y-132314904D01*
X210547104Y-132314904D01*
X210470914Y-132276809D01*
X210432819Y-132238714D01*
X211194723Y-131514904D02*
X211689961Y-131514904D01*
X211423295Y-131819666D01*
X211537580Y-131819666D01*
X211613771Y-131857761D01*
X211651866Y-131895857D01*
X211689961Y-131972047D01*
X211689961Y-132162523D01*
X211651866Y-132238714D01*
X211613771Y-132276809D01*
X211537580Y-132314904D01*
X211309009Y-132314904D01*
X211232819Y-132276809D01*
X211194723Y-132238714D01*
X212185200Y-131514904D02*
X212261390Y-131514904D01*
X212337580Y-131553000D01*
X212375676Y-131591095D01*
X212413771Y-131667285D01*
X212451866Y-131819666D01*
X212451866Y-132010142D01*
X212413771Y-132162523D01*
X212375676Y-132238714D01*
X212337580Y-132276809D01*
X212261390Y-132314904D01*
X212185200Y-132314904D01*
X212109009Y-132276809D01*
X212070914Y-132238714D01*
X212032819Y-132162523D01*
X211994723Y-132010142D01*
X211994723Y-131819666D01*
X212032819Y-131667285D01*
X212070914Y-131591095D01*
X212109009Y-131553000D01*
X212185200Y-131514904D01*
X212794723Y-132314904D02*
X212794723Y-131514904D01*
X212870914Y-132010142D02*
X213099485Y-132314904D01*
X213099485Y-131781571D02*
X212794723Y-132086333D01*
%TO.C,R16*%
X208133904Y-134880285D02*
X207752952Y-135146952D01*
X208133904Y-135337428D02*
X207333904Y-135337428D01*
X207333904Y-135032666D01*
X207372000Y-134956476D01*
X207410095Y-134918380D01*
X207486285Y-134880285D01*
X207600571Y-134880285D01*
X207676761Y-134918380D01*
X207714857Y-134956476D01*
X207752952Y-135032666D01*
X207752952Y-135337428D01*
X208133904Y-134118380D02*
X208133904Y-134575523D01*
X208133904Y-134346952D02*
X207333904Y-134346952D01*
X207448190Y-134423142D01*
X207524380Y-134499333D01*
X207562476Y-134575523D01*
X207333904Y-133432666D02*
X207333904Y-133585047D01*
X207372000Y-133661238D01*
X207410095Y-133699333D01*
X207524380Y-133775523D01*
X207676761Y-133813619D01*
X207981523Y-133813619D01*
X208057714Y-133775523D01*
X208095809Y-133737428D01*
X208133904Y-133661238D01*
X208133904Y-133508857D01*
X208095809Y-133432666D01*
X208057714Y-133394571D01*
X207981523Y-133356476D01*
X207791047Y-133356476D01*
X207714857Y-133394571D01*
X207676761Y-133432666D01*
X207638666Y-133508857D01*
X207638666Y-133661238D01*
X207676761Y-133737428D01*
X207714857Y-133775523D01*
X207791047Y-133813619D01*
X210432819Y-133927904D02*
X210928057Y-133927904D01*
X210661390Y-134232666D01*
X210775676Y-134232666D01*
X210851866Y-134270761D01*
X210889961Y-134308857D01*
X210928057Y-134385047D01*
X210928057Y-134575523D01*
X210889961Y-134651714D01*
X210851866Y-134689809D01*
X210775676Y-134727904D01*
X210547104Y-134727904D01*
X210470914Y-134689809D01*
X210432819Y-134651714D01*
X211194723Y-133927904D02*
X211689961Y-133927904D01*
X211423295Y-134232666D01*
X211537580Y-134232666D01*
X211613771Y-134270761D01*
X211651866Y-134308857D01*
X211689961Y-134385047D01*
X211689961Y-134575523D01*
X211651866Y-134651714D01*
X211613771Y-134689809D01*
X211537580Y-134727904D01*
X211309009Y-134727904D01*
X211232819Y-134689809D01*
X211194723Y-134651714D01*
X212185200Y-133927904D02*
X212261390Y-133927904D01*
X212337580Y-133966000D01*
X212375676Y-134004095D01*
X212413771Y-134080285D01*
X212451866Y-134232666D01*
X212451866Y-134423142D01*
X212413771Y-134575523D01*
X212375676Y-134651714D01*
X212337580Y-134689809D01*
X212261390Y-134727904D01*
X212185200Y-134727904D01*
X212109009Y-134689809D01*
X212070914Y-134651714D01*
X212032819Y-134575523D01*
X211994723Y-134423142D01*
X211994723Y-134232666D01*
X212032819Y-134080285D01*
X212070914Y-134004095D01*
X212109009Y-133966000D01*
X212185200Y-133927904D01*
X212794723Y-134727904D02*
X212794723Y-133927904D01*
X212870914Y-134423142D02*
X213099485Y-134727904D01*
X213099485Y-134194571D02*
X212794723Y-134499333D01*
%TO.C,R14*%
X206114714Y-148951904D02*
X205848047Y-148570952D01*
X205657571Y-148951904D02*
X205657571Y-148151904D01*
X205962333Y-148151904D01*
X206038523Y-148190000D01*
X206076619Y-148228095D01*
X206114714Y-148304285D01*
X206114714Y-148418571D01*
X206076619Y-148494761D01*
X206038523Y-148532857D01*
X205962333Y-148570952D01*
X205657571Y-148570952D01*
X206876619Y-148951904D02*
X206419476Y-148951904D01*
X206648047Y-148951904D02*
X206648047Y-148151904D01*
X206571857Y-148266190D01*
X206495666Y-148342380D01*
X206419476Y-148380476D01*
X207562333Y-148418571D02*
X207562333Y-148951904D01*
X207371857Y-148113809D02*
X207181380Y-148685238D01*
X207676619Y-148685238D01*
X210013666Y-149498095D02*
X210051761Y-149460000D01*
X210127952Y-149421904D01*
X210318428Y-149421904D01*
X210394619Y-149460000D01*
X210432714Y-149498095D01*
X210470809Y-149574285D01*
X210470809Y-149650476D01*
X210432714Y-149764761D01*
X209975571Y-150221904D01*
X210470809Y-150221904D01*
X210775571Y-149498095D02*
X210813666Y-149460000D01*
X210889857Y-149421904D01*
X211080333Y-149421904D01*
X211156523Y-149460000D01*
X211194619Y-149498095D01*
X211232714Y-149574285D01*
X211232714Y-149650476D01*
X211194619Y-149764761D01*
X210737476Y-150221904D01*
X211232714Y-150221904D01*
X211575571Y-150221904D02*
X211575571Y-149421904D01*
X211651761Y-149917142D02*
X211880333Y-150221904D01*
X211880333Y-149688571D02*
X211575571Y-149993333D01*
%TO.C,R13*%
X206114714Y-146284904D02*
X205848047Y-145903952D01*
X205657571Y-146284904D02*
X205657571Y-145484904D01*
X205962333Y-145484904D01*
X206038523Y-145523000D01*
X206076619Y-145561095D01*
X206114714Y-145637285D01*
X206114714Y-145751571D01*
X206076619Y-145827761D01*
X206038523Y-145865857D01*
X205962333Y-145903952D01*
X205657571Y-145903952D01*
X206876619Y-146284904D02*
X206419476Y-146284904D01*
X206648047Y-146284904D02*
X206648047Y-145484904D01*
X206571857Y-145599190D01*
X206495666Y-145675380D01*
X206419476Y-145713476D01*
X207143285Y-145484904D02*
X207638523Y-145484904D01*
X207371857Y-145789666D01*
X207486142Y-145789666D01*
X207562333Y-145827761D01*
X207600428Y-145865857D01*
X207638523Y-145942047D01*
X207638523Y-146132523D01*
X207600428Y-146208714D01*
X207562333Y-146246809D01*
X207486142Y-146284904D01*
X207257571Y-146284904D01*
X207181380Y-146246809D01*
X207143285Y-146208714D01*
X210445419Y-147072371D02*
X210445419Y-147605704D01*
X210254942Y-146767609D02*
X210064466Y-147339038D01*
X210559704Y-147339038D01*
X210788276Y-146805704D02*
X211321609Y-146805704D01*
X210978752Y-147605704D01*
X211626371Y-147605704D02*
X211626371Y-146805704D01*
X211702561Y-147300942D02*
X211931133Y-147605704D01*
X211931133Y-147072371D02*
X211626371Y-147377133D01*
%TO.C,R12*%
X215118904Y-113290285D02*
X214737952Y-113556952D01*
X215118904Y-113747428D02*
X214318904Y-113747428D01*
X214318904Y-113442666D01*
X214357000Y-113366476D01*
X214395095Y-113328380D01*
X214471285Y-113290285D01*
X214585571Y-113290285D01*
X214661761Y-113328380D01*
X214699857Y-113366476D01*
X214737952Y-113442666D01*
X214737952Y-113747428D01*
X215118904Y-112528380D02*
X215118904Y-112985523D01*
X215118904Y-112756952D02*
X214318904Y-112756952D01*
X214433190Y-112833142D01*
X214509380Y-112909333D01*
X214547476Y-112985523D01*
X214395095Y-112223619D02*
X214357000Y-112185523D01*
X214318904Y-112109333D01*
X214318904Y-111918857D01*
X214357000Y-111842666D01*
X214395095Y-111804571D01*
X214471285Y-111766476D01*
X214547476Y-111766476D01*
X214661761Y-111804571D01*
X215118904Y-112261714D01*
X215118904Y-111766476D01*
X213467904Y-113252190D02*
X213467904Y-113709333D01*
X213467904Y-113480761D02*
X212667904Y-113480761D01*
X212782190Y-113556952D01*
X212858380Y-113633142D01*
X212896476Y-113709333D01*
X212667904Y-112756952D02*
X212667904Y-112680761D01*
X212706000Y-112604571D01*
X212744095Y-112566476D01*
X212820285Y-112528380D01*
X212972666Y-112490285D01*
X213163142Y-112490285D01*
X213315523Y-112528380D01*
X213391714Y-112566476D01*
X213429809Y-112604571D01*
X213467904Y-112680761D01*
X213467904Y-112756952D01*
X213429809Y-112833142D01*
X213391714Y-112871238D01*
X213315523Y-112909333D01*
X213163142Y-112947428D01*
X212972666Y-112947428D01*
X212820285Y-112909333D01*
X212744095Y-112871238D01*
X212706000Y-112833142D01*
X212667904Y-112756952D01*
X213467904Y-112147428D02*
X212667904Y-112147428D01*
X213163142Y-112071238D02*
X213467904Y-111842666D01*
X212934571Y-111842666D02*
X213239333Y-112147428D01*
%TO.C,R11*%
X214864904Y-117989285D02*
X214483952Y-118255952D01*
X214864904Y-118446428D02*
X214064904Y-118446428D01*
X214064904Y-118141666D01*
X214103000Y-118065476D01*
X214141095Y-118027380D01*
X214217285Y-117989285D01*
X214331571Y-117989285D01*
X214407761Y-118027380D01*
X214445857Y-118065476D01*
X214483952Y-118141666D01*
X214483952Y-118446428D01*
X214864904Y-117227380D02*
X214864904Y-117684523D01*
X214864904Y-117455952D02*
X214064904Y-117455952D01*
X214179190Y-117532142D01*
X214255380Y-117608333D01*
X214293476Y-117684523D01*
X214864904Y-116465476D02*
X214864904Y-116922619D01*
X214864904Y-116694047D02*
X214064904Y-116694047D01*
X214179190Y-116770238D01*
X214255380Y-116846428D01*
X214293476Y-116922619D01*
X209708809Y-117836904D02*
X209251666Y-117836904D01*
X209480238Y-117836904D02*
X209480238Y-117036904D01*
X209404047Y-117151190D01*
X209327857Y-117227380D01*
X209251666Y-117265476D01*
X210204047Y-117036904D02*
X210280238Y-117036904D01*
X210356428Y-117075000D01*
X210394523Y-117113095D01*
X210432619Y-117189285D01*
X210470714Y-117341666D01*
X210470714Y-117532142D01*
X210432619Y-117684523D01*
X210394523Y-117760714D01*
X210356428Y-117798809D01*
X210280238Y-117836904D01*
X210204047Y-117836904D01*
X210127857Y-117798809D01*
X210089761Y-117760714D01*
X210051666Y-117684523D01*
X210013571Y-117532142D01*
X210013571Y-117341666D01*
X210051666Y-117189285D01*
X210089761Y-117113095D01*
X210127857Y-117075000D01*
X210204047Y-117036904D01*
X210813571Y-117836904D02*
X210813571Y-117036904D01*
X210889761Y-117532142D02*
X211118333Y-117836904D01*
X211118333Y-117303571D02*
X210813571Y-117608333D01*
%TO.C,R10*%
X214864904Y-120656285D02*
X214483952Y-120922952D01*
X214864904Y-121113428D02*
X214064904Y-121113428D01*
X214064904Y-120808666D01*
X214103000Y-120732476D01*
X214141095Y-120694380D01*
X214217285Y-120656285D01*
X214331571Y-120656285D01*
X214407761Y-120694380D01*
X214445857Y-120732476D01*
X214483952Y-120808666D01*
X214483952Y-121113428D01*
X214864904Y-119894380D02*
X214864904Y-120351523D01*
X214864904Y-120122952D02*
X214064904Y-120122952D01*
X214179190Y-120199142D01*
X214255380Y-120275333D01*
X214293476Y-120351523D01*
X214064904Y-119399142D02*
X214064904Y-119322952D01*
X214103000Y-119246761D01*
X214141095Y-119208666D01*
X214217285Y-119170571D01*
X214369666Y-119132476D01*
X214560142Y-119132476D01*
X214712523Y-119170571D01*
X214788714Y-119208666D01*
X214826809Y-119246761D01*
X214864904Y-119322952D01*
X214864904Y-119399142D01*
X214826809Y-119475333D01*
X214788714Y-119513428D01*
X214712523Y-119551523D01*
X214560142Y-119589619D01*
X214369666Y-119589619D01*
X214217285Y-119551523D01*
X214141095Y-119513428D01*
X214103000Y-119475333D01*
X214064904Y-119399142D01*
X209785009Y-120503904D02*
X209327866Y-120503904D01*
X209556438Y-120503904D02*
X209556438Y-119703904D01*
X209480247Y-119818190D01*
X209404057Y-119894380D01*
X209327866Y-119932476D01*
X210280247Y-119703904D02*
X210356438Y-119703904D01*
X210432628Y-119742000D01*
X210470723Y-119780095D01*
X210508819Y-119856285D01*
X210546914Y-120008666D01*
X210546914Y-120199142D01*
X210508819Y-120351523D01*
X210470723Y-120427714D01*
X210432628Y-120465809D01*
X210356438Y-120503904D01*
X210280247Y-120503904D01*
X210204057Y-120465809D01*
X210165961Y-120427714D01*
X210127866Y-120351523D01*
X210089771Y-120199142D01*
X210089771Y-120008666D01*
X210127866Y-119856285D01*
X210165961Y-119780095D01*
X210204057Y-119742000D01*
X210280247Y-119703904D01*
X210889771Y-120503904D02*
X210889771Y-119703904D01*
X210965961Y-120199142D02*
X211194533Y-120503904D01*
X211194533Y-119970571D02*
X210889771Y-120275333D01*
%TO.C,R8*%
X214864904Y-122815333D02*
X214483952Y-123082000D01*
X214864904Y-123272476D02*
X214064904Y-123272476D01*
X214064904Y-122967714D01*
X214103000Y-122891523D01*
X214141095Y-122853428D01*
X214217285Y-122815333D01*
X214331571Y-122815333D01*
X214407761Y-122853428D01*
X214445857Y-122891523D01*
X214483952Y-122967714D01*
X214483952Y-123272476D01*
X214407761Y-122358190D02*
X214369666Y-122434380D01*
X214331571Y-122472476D01*
X214255380Y-122510571D01*
X214217285Y-122510571D01*
X214141095Y-122472476D01*
X214103000Y-122434380D01*
X214064904Y-122358190D01*
X214064904Y-122205809D01*
X214103000Y-122129619D01*
X214141095Y-122091523D01*
X214217285Y-122053428D01*
X214255380Y-122053428D01*
X214331571Y-122091523D01*
X214369666Y-122129619D01*
X214407761Y-122205809D01*
X214407761Y-122358190D01*
X214445857Y-122434380D01*
X214483952Y-122472476D01*
X214560142Y-122510571D01*
X214712523Y-122510571D01*
X214788714Y-122472476D01*
X214826809Y-122434380D01*
X214864904Y-122358190D01*
X214864904Y-122205809D01*
X214826809Y-122129619D01*
X214788714Y-122091523D01*
X214712523Y-122053428D01*
X214560142Y-122053428D01*
X214483952Y-122091523D01*
X214445857Y-122129619D01*
X214407761Y-122205809D01*
X209835809Y-123170904D02*
X209378666Y-123170904D01*
X209607238Y-123170904D02*
X209607238Y-122370904D01*
X209531047Y-122485190D01*
X209454857Y-122561380D01*
X209378666Y-122599476D01*
X210331047Y-122370904D02*
X210407238Y-122370904D01*
X210483428Y-122409000D01*
X210521523Y-122447095D01*
X210559619Y-122523285D01*
X210597714Y-122675666D01*
X210597714Y-122866142D01*
X210559619Y-123018523D01*
X210521523Y-123094714D01*
X210483428Y-123132809D01*
X210407238Y-123170904D01*
X210331047Y-123170904D01*
X210254857Y-123132809D01*
X210216761Y-123094714D01*
X210178666Y-123018523D01*
X210140571Y-122866142D01*
X210140571Y-122675666D01*
X210178666Y-122523285D01*
X210216761Y-122447095D01*
X210254857Y-122409000D01*
X210331047Y-122370904D01*
X210940571Y-123170904D02*
X210940571Y-122370904D01*
X211016761Y-122866142D02*
X211245333Y-123170904D01*
X211245333Y-122637571D02*
X210940571Y-122942333D01*
%TO.C,R6*%
X200005904Y-112782333D02*
X199624952Y-113049000D01*
X200005904Y-113239476D02*
X199205904Y-113239476D01*
X199205904Y-112934714D01*
X199244000Y-112858523D01*
X199282095Y-112820428D01*
X199358285Y-112782333D01*
X199472571Y-112782333D01*
X199548761Y-112820428D01*
X199586857Y-112858523D01*
X199624952Y-112934714D01*
X199624952Y-113239476D01*
X199205904Y-112096619D02*
X199205904Y-112249000D01*
X199244000Y-112325190D01*
X199282095Y-112363285D01*
X199396380Y-112439476D01*
X199548761Y-112477571D01*
X199853523Y-112477571D01*
X199929714Y-112439476D01*
X199967809Y-112401380D01*
X200005904Y-112325190D01*
X200005904Y-112172809D01*
X199967809Y-112096619D01*
X199929714Y-112058523D01*
X199853523Y-112020428D01*
X199663047Y-112020428D01*
X199586857Y-112058523D01*
X199548761Y-112096619D01*
X199510666Y-112172809D01*
X199510666Y-112325190D01*
X199548761Y-112401380D01*
X199586857Y-112439476D01*
X199663047Y-112477571D01*
X198354904Y-113252190D02*
X198354904Y-113709333D01*
X198354904Y-113480761D02*
X197554904Y-113480761D01*
X197669190Y-113556952D01*
X197745380Y-113633142D01*
X197783476Y-113709333D01*
X197554904Y-112756952D02*
X197554904Y-112680761D01*
X197593000Y-112604571D01*
X197631095Y-112566476D01*
X197707285Y-112528380D01*
X197859666Y-112490285D01*
X198050142Y-112490285D01*
X198202523Y-112528380D01*
X198278714Y-112566476D01*
X198316809Y-112604571D01*
X198354904Y-112680761D01*
X198354904Y-112756952D01*
X198316809Y-112833142D01*
X198278714Y-112871238D01*
X198202523Y-112909333D01*
X198050142Y-112947428D01*
X197859666Y-112947428D01*
X197707285Y-112909333D01*
X197631095Y-112871238D01*
X197593000Y-112833142D01*
X197554904Y-112756952D01*
X198354904Y-112147428D02*
X197554904Y-112147428D01*
X198050142Y-112071238D02*
X198354904Y-111842666D01*
X197821571Y-111842666D02*
X198126333Y-112147428D01*
%TO.C,R5*%
X197592904Y-117608333D02*
X197211952Y-117875000D01*
X197592904Y-118065476D02*
X196792904Y-118065476D01*
X196792904Y-117760714D01*
X196831000Y-117684523D01*
X196869095Y-117646428D01*
X196945285Y-117608333D01*
X197059571Y-117608333D01*
X197135761Y-117646428D01*
X197173857Y-117684523D01*
X197211952Y-117760714D01*
X197211952Y-118065476D01*
X196792904Y-116884523D02*
X196792904Y-117265476D01*
X197173857Y-117303571D01*
X197135761Y-117265476D01*
X197097666Y-117189285D01*
X197097666Y-116998809D01*
X197135761Y-116922619D01*
X197173857Y-116884523D01*
X197250047Y-116846428D01*
X197440523Y-116846428D01*
X197516714Y-116884523D01*
X197554809Y-116922619D01*
X197592904Y-116998809D01*
X197592904Y-117189285D01*
X197554809Y-117265476D01*
X197516714Y-117303571D01*
X200818809Y-117836904D02*
X200361666Y-117836904D01*
X200590238Y-117836904D02*
X200590238Y-117036904D01*
X200514047Y-117151190D01*
X200437857Y-117227380D01*
X200361666Y-117265476D01*
X201314047Y-117036904D02*
X201390238Y-117036904D01*
X201466428Y-117075000D01*
X201504523Y-117113095D01*
X201542619Y-117189285D01*
X201580714Y-117341666D01*
X201580714Y-117532142D01*
X201542619Y-117684523D01*
X201504523Y-117760714D01*
X201466428Y-117798809D01*
X201390238Y-117836904D01*
X201314047Y-117836904D01*
X201237857Y-117798809D01*
X201199761Y-117760714D01*
X201161666Y-117684523D01*
X201123571Y-117532142D01*
X201123571Y-117341666D01*
X201161666Y-117189285D01*
X201199761Y-117113095D01*
X201237857Y-117075000D01*
X201314047Y-117036904D01*
X201923571Y-117836904D02*
X201923571Y-117036904D01*
X201999761Y-117532142D02*
X202228333Y-117836904D01*
X202228333Y-117303571D02*
X201923571Y-117608333D01*
%TO.C,R4*%
X197592904Y-120275333D02*
X197211952Y-120542000D01*
X197592904Y-120732476D02*
X196792904Y-120732476D01*
X196792904Y-120427714D01*
X196831000Y-120351523D01*
X196869095Y-120313428D01*
X196945285Y-120275333D01*
X197059571Y-120275333D01*
X197135761Y-120313428D01*
X197173857Y-120351523D01*
X197211952Y-120427714D01*
X197211952Y-120732476D01*
X197059571Y-119589619D02*
X197592904Y-119589619D01*
X196754809Y-119780095D02*
X197326238Y-119970571D01*
X197326238Y-119475333D01*
X200818809Y-120503904D02*
X200361666Y-120503904D01*
X200590238Y-120503904D02*
X200590238Y-119703904D01*
X200514047Y-119818190D01*
X200437857Y-119894380D01*
X200361666Y-119932476D01*
X201314047Y-119703904D02*
X201390238Y-119703904D01*
X201466428Y-119742000D01*
X201504523Y-119780095D01*
X201542619Y-119856285D01*
X201580714Y-120008666D01*
X201580714Y-120199142D01*
X201542619Y-120351523D01*
X201504523Y-120427714D01*
X201466428Y-120465809D01*
X201390238Y-120503904D01*
X201314047Y-120503904D01*
X201237857Y-120465809D01*
X201199761Y-120427714D01*
X201161666Y-120351523D01*
X201123571Y-120199142D01*
X201123571Y-120008666D01*
X201161666Y-119856285D01*
X201199761Y-119780095D01*
X201237857Y-119742000D01*
X201314047Y-119703904D01*
X201923571Y-120503904D02*
X201923571Y-119703904D01*
X201999761Y-120199142D02*
X202228333Y-120503904D01*
X202228333Y-119970571D02*
X201923571Y-120275333D01*
%TO.C,R2*%
X197592904Y-122942333D02*
X197211952Y-123209000D01*
X197592904Y-123399476D02*
X196792904Y-123399476D01*
X196792904Y-123094714D01*
X196831000Y-123018523D01*
X196869095Y-122980428D01*
X196945285Y-122942333D01*
X197059571Y-122942333D01*
X197135761Y-122980428D01*
X197173857Y-123018523D01*
X197211952Y-123094714D01*
X197211952Y-123399476D01*
X196869095Y-122637571D02*
X196831000Y-122599476D01*
X196792904Y-122523285D01*
X196792904Y-122332809D01*
X196831000Y-122256619D01*
X196869095Y-122218523D01*
X196945285Y-122180428D01*
X197021476Y-122180428D01*
X197135761Y-122218523D01*
X197592904Y-122675666D01*
X197592904Y-122180428D01*
X200818809Y-123170904D02*
X200361666Y-123170904D01*
X200590238Y-123170904D02*
X200590238Y-122370904D01*
X200514047Y-122485190D01*
X200437857Y-122561380D01*
X200361666Y-122599476D01*
X201314047Y-122370904D02*
X201390238Y-122370904D01*
X201466428Y-122409000D01*
X201504523Y-122447095D01*
X201542619Y-122523285D01*
X201580714Y-122675666D01*
X201580714Y-122866142D01*
X201542619Y-123018523D01*
X201504523Y-123094714D01*
X201466428Y-123132809D01*
X201390238Y-123170904D01*
X201314047Y-123170904D01*
X201237857Y-123132809D01*
X201199761Y-123094714D01*
X201161666Y-123018523D01*
X201123571Y-122866142D01*
X201123571Y-122675666D01*
X201161666Y-122523285D01*
X201199761Y-122447095D01*
X201237857Y-122409000D01*
X201314047Y-122370904D01*
X201923571Y-123170904D02*
X201923571Y-122370904D01*
X201999761Y-122866142D02*
X202228333Y-123170904D01*
X202228333Y-122637571D02*
X201923571Y-122942333D01*
%TO.C,D11*%
X204323904Y-63963428D02*
X203523904Y-63963428D01*
X203523904Y-63772952D01*
X203562000Y-63658666D01*
X203638190Y-63582476D01*
X203714380Y-63544380D01*
X203866761Y-63506285D01*
X203981047Y-63506285D01*
X204133428Y-63544380D01*
X204209619Y-63582476D01*
X204285809Y-63658666D01*
X204323904Y-63772952D01*
X204323904Y-63963428D01*
X204323904Y-62744380D02*
X204323904Y-63201523D01*
X204323904Y-62972952D02*
X203523904Y-62972952D01*
X203638190Y-63049142D01*
X203714380Y-63125333D01*
X203752476Y-63201523D01*
X204323904Y-61982476D02*
X204323904Y-62439619D01*
X204323904Y-62211047D02*
X203523904Y-62211047D01*
X203638190Y-62287238D01*
X203714380Y-62363428D01*
X203752476Y-62439619D01*
X208216714Y-63480904D02*
X207759571Y-63480904D01*
X207988142Y-63480904D02*
X207988142Y-62680904D01*
X207911952Y-62795190D01*
X207835761Y-62871380D01*
X207759571Y-62909476D01*
X208559571Y-63480904D02*
X208559571Y-62680904D01*
X209016714Y-63480904D01*
X209016714Y-62680904D01*
X209778619Y-62680904D02*
X209397666Y-62680904D01*
X209359571Y-63061857D01*
X209397666Y-63023761D01*
X209473857Y-62985666D01*
X209664333Y-62985666D01*
X209740523Y-63023761D01*
X209778619Y-63061857D01*
X209816714Y-63138047D01*
X209816714Y-63328523D01*
X209778619Y-63404714D01*
X209740523Y-63442809D01*
X209664333Y-63480904D01*
X209473857Y-63480904D01*
X209397666Y-63442809D01*
X209359571Y-63404714D01*
X210273857Y-63023761D02*
X210197666Y-62985666D01*
X210159571Y-62947571D01*
X210121476Y-62871380D01*
X210121476Y-62833285D01*
X210159571Y-62757095D01*
X210197666Y-62719000D01*
X210273857Y-62680904D01*
X210426238Y-62680904D01*
X210502428Y-62719000D01*
X210540523Y-62757095D01*
X210578619Y-62833285D01*
X210578619Y-62871380D01*
X210540523Y-62947571D01*
X210502428Y-62985666D01*
X210426238Y-63023761D01*
X210273857Y-63023761D01*
X210197666Y-63061857D01*
X210159571Y-63099952D01*
X210121476Y-63176142D01*
X210121476Y-63328523D01*
X210159571Y-63404714D01*
X210197666Y-63442809D01*
X210273857Y-63480904D01*
X210426238Y-63480904D01*
X210502428Y-63442809D01*
X210540523Y-63404714D01*
X210578619Y-63328523D01*
X210578619Y-63176142D01*
X210540523Y-63099952D01*
X210502428Y-63061857D01*
X210426238Y-63023761D01*
X211340523Y-63480904D02*
X210883380Y-63480904D01*
X211111952Y-63480904D02*
X211111952Y-62680904D01*
X211035761Y-62795190D01*
X210959571Y-62871380D01*
X210883380Y-62909476D01*
X211797666Y-63023761D02*
X211721476Y-62985666D01*
X211683380Y-62947571D01*
X211645285Y-62871380D01*
X211645285Y-62833285D01*
X211683380Y-62757095D01*
X211721476Y-62719000D01*
X211797666Y-62680904D01*
X211950047Y-62680904D01*
X212026238Y-62719000D01*
X212064333Y-62757095D01*
X212102428Y-62833285D01*
X212102428Y-62871380D01*
X212064333Y-62947571D01*
X212026238Y-62985666D01*
X211950047Y-63023761D01*
X211797666Y-63023761D01*
X211721476Y-63061857D01*
X211683380Y-63099952D01*
X211645285Y-63176142D01*
X211645285Y-63328523D01*
X211683380Y-63404714D01*
X211721476Y-63442809D01*
X211797666Y-63480904D01*
X211950047Y-63480904D01*
X212026238Y-63442809D01*
X212064333Y-63404714D01*
X212102428Y-63328523D01*
X212102428Y-63176142D01*
X212064333Y-63099952D01*
X212026238Y-63061857D01*
X211950047Y-63023761D01*
%TO.C,D10*%
X204323904Y-60661428D02*
X203523904Y-60661428D01*
X203523904Y-60470952D01*
X203562000Y-60356666D01*
X203638190Y-60280476D01*
X203714380Y-60242380D01*
X203866761Y-60204285D01*
X203981047Y-60204285D01*
X204133428Y-60242380D01*
X204209619Y-60280476D01*
X204285809Y-60356666D01*
X204323904Y-60470952D01*
X204323904Y-60661428D01*
X204323904Y-59442380D02*
X204323904Y-59899523D01*
X204323904Y-59670952D02*
X203523904Y-59670952D01*
X203638190Y-59747142D01*
X203714380Y-59823333D01*
X203752476Y-59899523D01*
X203523904Y-58947142D02*
X203523904Y-58870952D01*
X203562000Y-58794761D01*
X203600095Y-58756666D01*
X203676285Y-58718571D01*
X203828666Y-58680476D01*
X204019142Y-58680476D01*
X204171523Y-58718571D01*
X204247714Y-58756666D01*
X204285809Y-58794761D01*
X204323904Y-58870952D01*
X204323904Y-58947142D01*
X204285809Y-59023333D01*
X204247714Y-59061428D01*
X204171523Y-59099523D01*
X204019142Y-59137619D01*
X203828666Y-59137619D01*
X203676285Y-59099523D01*
X203600095Y-59061428D01*
X203562000Y-59023333D01*
X203523904Y-58947142D01*
X208343714Y-59924904D02*
X207886571Y-59924904D01*
X208115142Y-59924904D02*
X208115142Y-59124904D01*
X208038952Y-59239190D01*
X207962761Y-59315380D01*
X207886571Y-59353476D01*
X208686571Y-59924904D02*
X208686571Y-59124904D01*
X209143714Y-59924904D01*
X209143714Y-59124904D01*
X209905619Y-59124904D02*
X209524666Y-59124904D01*
X209486571Y-59505857D01*
X209524666Y-59467761D01*
X209600857Y-59429666D01*
X209791333Y-59429666D01*
X209867523Y-59467761D01*
X209905619Y-59505857D01*
X209943714Y-59582047D01*
X209943714Y-59772523D01*
X209905619Y-59848714D01*
X209867523Y-59886809D01*
X209791333Y-59924904D01*
X209600857Y-59924904D01*
X209524666Y-59886809D01*
X209486571Y-59848714D01*
X210400857Y-59467761D02*
X210324666Y-59429666D01*
X210286571Y-59391571D01*
X210248476Y-59315380D01*
X210248476Y-59277285D01*
X210286571Y-59201095D01*
X210324666Y-59163000D01*
X210400857Y-59124904D01*
X210553238Y-59124904D01*
X210629428Y-59163000D01*
X210667523Y-59201095D01*
X210705619Y-59277285D01*
X210705619Y-59315380D01*
X210667523Y-59391571D01*
X210629428Y-59429666D01*
X210553238Y-59467761D01*
X210400857Y-59467761D01*
X210324666Y-59505857D01*
X210286571Y-59543952D01*
X210248476Y-59620142D01*
X210248476Y-59772523D01*
X210286571Y-59848714D01*
X210324666Y-59886809D01*
X210400857Y-59924904D01*
X210553238Y-59924904D01*
X210629428Y-59886809D01*
X210667523Y-59848714D01*
X210705619Y-59772523D01*
X210705619Y-59620142D01*
X210667523Y-59543952D01*
X210629428Y-59505857D01*
X210553238Y-59467761D01*
X211467523Y-59924904D02*
X211010380Y-59924904D01*
X211238952Y-59924904D02*
X211238952Y-59124904D01*
X211162761Y-59239190D01*
X211086571Y-59315380D01*
X211010380Y-59353476D01*
X211924666Y-59467761D02*
X211848476Y-59429666D01*
X211810380Y-59391571D01*
X211772285Y-59315380D01*
X211772285Y-59277285D01*
X211810380Y-59201095D01*
X211848476Y-59163000D01*
X211924666Y-59124904D01*
X212077047Y-59124904D01*
X212153238Y-59163000D01*
X212191333Y-59201095D01*
X212229428Y-59277285D01*
X212229428Y-59315380D01*
X212191333Y-59391571D01*
X212153238Y-59429666D01*
X212077047Y-59467761D01*
X211924666Y-59467761D01*
X211848476Y-59505857D01*
X211810380Y-59543952D01*
X211772285Y-59620142D01*
X211772285Y-59772523D01*
X211810380Y-59848714D01*
X211848476Y-59886809D01*
X211924666Y-59924904D01*
X212077047Y-59924904D01*
X212153238Y-59886809D01*
X212191333Y-59848714D01*
X212229428Y-59772523D01*
X212229428Y-59620142D01*
X212191333Y-59543952D01*
X212153238Y-59505857D01*
X212077047Y-59467761D01*
%TO.C,C2*%
X208908666Y-78771714D02*
X208870571Y-78809809D01*
X208756285Y-78847904D01*
X208680095Y-78847904D01*
X208565809Y-78809809D01*
X208489619Y-78733619D01*
X208451523Y-78657428D01*
X208413428Y-78505047D01*
X208413428Y-78390761D01*
X208451523Y-78238380D01*
X208489619Y-78162190D01*
X208565809Y-78086000D01*
X208680095Y-78047904D01*
X208756285Y-78047904D01*
X208870571Y-78086000D01*
X208908666Y-78124095D01*
X209213428Y-78124095D02*
X209251523Y-78086000D01*
X209327714Y-78047904D01*
X209518190Y-78047904D01*
X209594380Y-78086000D01*
X209632476Y-78124095D01*
X209670571Y-78200285D01*
X209670571Y-78276476D01*
X209632476Y-78390761D01*
X209175333Y-78847904D01*
X209670571Y-78847904D01*
X213353714Y-75037904D02*
X212896571Y-75037904D01*
X213125142Y-75037904D02*
X213125142Y-74237904D01*
X213048952Y-74352190D01*
X212972761Y-74428380D01*
X212896571Y-74466476D01*
X214077523Y-74237904D02*
X213696571Y-74237904D01*
X213658476Y-74618857D01*
X213696571Y-74580761D01*
X213772761Y-74542666D01*
X213963238Y-74542666D01*
X214039428Y-74580761D01*
X214077523Y-74618857D01*
X214115619Y-74695047D01*
X214115619Y-74885523D01*
X214077523Y-74961714D01*
X214039428Y-74999809D01*
X213963238Y-75037904D01*
X213772761Y-75037904D01*
X213696571Y-74999809D01*
X213658476Y-74961714D01*
X214801333Y-74504571D02*
X214801333Y-75037904D01*
X214458476Y-74504571D02*
X214458476Y-74923619D01*
X214496571Y-74999809D01*
X214572761Y-75037904D01*
X214687047Y-75037904D01*
X214763238Y-74999809D01*
X214801333Y-74961714D01*
%TO.C,C1*%
X208908666Y-71659714D02*
X208870571Y-71697809D01*
X208756285Y-71735904D01*
X208680095Y-71735904D01*
X208565809Y-71697809D01*
X208489619Y-71621619D01*
X208451523Y-71545428D01*
X208413428Y-71393047D01*
X208413428Y-71278761D01*
X208451523Y-71126380D01*
X208489619Y-71050190D01*
X208565809Y-70974000D01*
X208680095Y-70935904D01*
X208756285Y-70935904D01*
X208870571Y-70974000D01*
X208908666Y-71012095D01*
X209670571Y-71735904D02*
X209213428Y-71735904D01*
X209442000Y-71735904D02*
X209442000Y-70935904D01*
X209365809Y-71050190D01*
X209289619Y-71126380D01*
X209213428Y-71164476D01*
X213353714Y-69449904D02*
X212896571Y-69449904D01*
X213125142Y-69449904D02*
X213125142Y-68649904D01*
X213048952Y-68764190D01*
X212972761Y-68840380D01*
X212896571Y-68878476D01*
X214077523Y-68649904D02*
X213696571Y-68649904D01*
X213658476Y-69030857D01*
X213696571Y-68992761D01*
X213772761Y-68954666D01*
X213963238Y-68954666D01*
X214039428Y-68992761D01*
X214077523Y-69030857D01*
X214115619Y-69107047D01*
X214115619Y-69297523D01*
X214077523Y-69373714D01*
X214039428Y-69411809D01*
X213963238Y-69449904D01*
X213772761Y-69449904D01*
X213696571Y-69411809D01*
X213658476Y-69373714D01*
X214801333Y-68916571D02*
X214801333Y-69449904D01*
X214458476Y-68916571D02*
X214458476Y-69335619D01*
X214496571Y-69411809D01*
X214572761Y-69449904D01*
X214687047Y-69449904D01*
X214763238Y-69411809D01*
X214801333Y-69373714D01*
%TO.C,U2*%
X205130476Y-103828904D02*
X205130476Y-104476523D01*
X205168571Y-104552714D01*
X205206666Y-104590809D01*
X205282857Y-104628904D01*
X205435238Y-104628904D01*
X205511428Y-104590809D01*
X205549523Y-104552714D01*
X205587619Y-104476523D01*
X205587619Y-103828904D01*
X205930476Y-103905095D02*
X205968571Y-103867000D01*
X206044761Y-103828904D01*
X206235238Y-103828904D01*
X206311428Y-103867000D01*
X206349523Y-103905095D01*
X206387619Y-103981285D01*
X206387619Y-104057476D01*
X206349523Y-104171761D01*
X205892380Y-104628904D01*
X206387619Y-104628904D01*
X204044761Y-105225904D02*
X204501904Y-105225904D01*
X204273333Y-106025904D02*
X204273333Y-105225904D01*
X205149523Y-106025904D02*
X204768571Y-106025904D01*
X204768571Y-105225904D01*
X205568571Y-105225904D02*
X205644761Y-105225904D01*
X205720952Y-105264000D01*
X205759047Y-105302095D01*
X205797142Y-105378285D01*
X205835238Y-105530666D01*
X205835238Y-105721142D01*
X205797142Y-105873523D01*
X205759047Y-105949714D01*
X205720952Y-105987809D01*
X205644761Y-106025904D01*
X205568571Y-106025904D01*
X205492380Y-105987809D01*
X205454285Y-105949714D01*
X205416190Y-105873523D01*
X205378095Y-105721142D01*
X205378095Y-105530666D01*
X205416190Y-105378285D01*
X205454285Y-105302095D01*
X205492380Y-105264000D01*
X205568571Y-105225904D01*
X206101904Y-105225904D02*
X206635238Y-105225904D01*
X206292380Y-106025904D01*
X207282857Y-105492571D02*
X207282857Y-106025904D01*
X207092380Y-105187809D02*
X206901904Y-105759238D01*
X207397142Y-105759238D01*
%TO.C,U1*%
X200939476Y-137229904D02*
X200939476Y-137877523D01*
X200977571Y-137953714D01*
X201015666Y-137991809D01*
X201091857Y-138029904D01*
X201244238Y-138029904D01*
X201320428Y-137991809D01*
X201358523Y-137953714D01*
X201396619Y-137877523D01*
X201396619Y-137229904D01*
X202196619Y-138029904D02*
X201739476Y-138029904D01*
X201968047Y-138029904D02*
X201968047Y-137229904D01*
X201891857Y-137344190D01*
X201815666Y-137420380D01*
X201739476Y-137458476D01*
X199333142Y-139071333D02*
X199714095Y-139071333D01*
X199256952Y-139299904D02*
X199523619Y-138499904D01*
X199790285Y-139299904D01*
X199942666Y-138499904D02*
X200399809Y-138499904D01*
X200171238Y-139299904D02*
X200171238Y-138499904D01*
X200552190Y-138766571D02*
X200856952Y-138766571D01*
X200666476Y-138499904D02*
X200666476Y-139185619D01*
X200704571Y-139261809D01*
X200780761Y-139299904D01*
X200856952Y-139299904D01*
X201123619Y-139299904D02*
X201123619Y-138766571D01*
X201123619Y-138499904D02*
X201085523Y-138538000D01*
X201123619Y-138576095D01*
X201161714Y-138538000D01*
X201123619Y-138499904D01*
X201123619Y-138576095D01*
X201504571Y-138766571D02*
X201504571Y-139299904D01*
X201504571Y-138842761D02*
X201542666Y-138804666D01*
X201618857Y-138766571D01*
X201733142Y-138766571D01*
X201809333Y-138804666D01*
X201847428Y-138880857D01*
X201847428Y-139299904D01*
X202152190Y-138766571D02*
X202342666Y-139299904D01*
X202533142Y-138766571D02*
X202342666Y-139299904D01*
X202266476Y-139490380D01*
X202228380Y-139528476D01*
X202152190Y-139566571D01*
X202952190Y-138842761D02*
X202876000Y-138804666D01*
X202837904Y-138766571D01*
X202799809Y-138690380D01*
X202799809Y-138652285D01*
X202837904Y-138576095D01*
X202876000Y-138538000D01*
X202952190Y-138499904D01*
X203104571Y-138499904D01*
X203180761Y-138538000D01*
X203218857Y-138576095D01*
X203256952Y-138652285D01*
X203256952Y-138690380D01*
X203218857Y-138766571D01*
X203180761Y-138804666D01*
X203104571Y-138842761D01*
X202952190Y-138842761D01*
X202876000Y-138880857D01*
X202837904Y-138918952D01*
X202799809Y-138995142D01*
X202799809Y-139147523D01*
X202837904Y-139223714D01*
X202876000Y-139261809D01*
X202952190Y-139299904D01*
X203104571Y-139299904D01*
X203180761Y-139261809D01*
X203218857Y-139223714D01*
X203256952Y-139147523D01*
X203256952Y-138995142D01*
X203218857Y-138918952D01*
X203180761Y-138880857D01*
X203104571Y-138842761D01*
X203980761Y-138499904D02*
X203599809Y-138499904D01*
X203561714Y-138880857D01*
X203599809Y-138842761D01*
X203676000Y-138804666D01*
X203866476Y-138804666D01*
X203942666Y-138842761D01*
X203980761Y-138880857D01*
X204018857Y-138957047D01*
X204018857Y-139147523D01*
X203980761Y-139223714D01*
X203942666Y-139261809D01*
X203866476Y-139299904D01*
X203676000Y-139299904D01*
X203599809Y-139261809D01*
X203561714Y-139223714D01*
%TO.C,Q1*%
X212655095Y-139268190D02*
X212617000Y-139344380D01*
X212540809Y-139420571D01*
X212426523Y-139534857D01*
X212388428Y-139611047D01*
X212388428Y-139687238D01*
X212578904Y-139649142D02*
X212540809Y-139725333D01*
X212464619Y-139801523D01*
X212312238Y-139839619D01*
X212045571Y-139839619D01*
X211893190Y-139801523D01*
X211817000Y-139725333D01*
X211778904Y-139649142D01*
X211778904Y-139496761D01*
X211817000Y-139420571D01*
X211893190Y-139344380D01*
X212045571Y-139306285D01*
X212312238Y-139306285D01*
X212464619Y-139344380D01*
X212540809Y-139420571D01*
X212578904Y-139496761D01*
X212578904Y-139649142D01*
X212578904Y-138544380D02*
X212578904Y-139001523D01*
X212578904Y-138772952D02*
X211778904Y-138772952D01*
X211893190Y-138849142D01*
X211969380Y-138925333D01*
X212007476Y-139001523D01*
%TO.C,Q2*%
X208210095Y-139141190D02*
X208172000Y-139217380D01*
X208095809Y-139293571D01*
X207981523Y-139407857D01*
X207943428Y-139484047D01*
X207943428Y-139560238D01*
X208133904Y-139522142D02*
X208095809Y-139598333D01*
X208019619Y-139674523D01*
X207867238Y-139712619D01*
X207600571Y-139712619D01*
X207448190Y-139674523D01*
X207372000Y-139598333D01*
X207333904Y-139522142D01*
X207333904Y-139369761D01*
X207372000Y-139293571D01*
X207448190Y-139217380D01*
X207600571Y-139179285D01*
X207867238Y-139179285D01*
X208019619Y-139217380D01*
X208095809Y-139293571D01*
X208133904Y-139369761D01*
X208133904Y-139522142D01*
X207410095Y-138874523D02*
X207372000Y-138836428D01*
X207333904Y-138760238D01*
X207333904Y-138569761D01*
X207372000Y-138493571D01*
X207410095Y-138455476D01*
X207486285Y-138417380D01*
X207562476Y-138417380D01*
X207676761Y-138455476D01*
X208133904Y-138912619D01*
X208133904Y-138417380D01*
%TO.C,Q3*%
X197923095Y-154127190D02*
X197885000Y-154203380D01*
X197808809Y-154279571D01*
X197694523Y-154393857D01*
X197656428Y-154470047D01*
X197656428Y-154546238D01*
X197846904Y-154508142D02*
X197808809Y-154584333D01*
X197732619Y-154660523D01*
X197580238Y-154698619D01*
X197313571Y-154698619D01*
X197161190Y-154660523D01*
X197085000Y-154584333D01*
X197046904Y-154508142D01*
X197046904Y-154355761D01*
X197085000Y-154279571D01*
X197161190Y-154203380D01*
X197313571Y-154165285D01*
X197580238Y-154165285D01*
X197732619Y-154203380D01*
X197808809Y-154279571D01*
X197846904Y-154355761D01*
X197846904Y-154508142D01*
X197046904Y-153898619D02*
X197046904Y-153403380D01*
X197351666Y-153670047D01*
X197351666Y-153555761D01*
X197389761Y-153479571D01*
X197427857Y-153441476D01*
X197504047Y-153403380D01*
X197694523Y-153403380D01*
X197770714Y-153441476D01*
X197808809Y-153479571D01*
X197846904Y-153555761D01*
X197846904Y-153784333D01*
X197808809Y-153860523D01*
X197770714Y-153898619D01*
%TD*%
M02*
