M48
; DRILL file {KiCad (5.1.9-0-10_14)} date Sunday, January 17, 2021 at 07:41:18 PM
; FORMAT={-:-/ absolute / inch / decimal}
; #@! TF.CreationDate,2021-01-17T19:41:18-06:00
; #@! TF.GenerationSoftware,Kicad,Pcbnew,(5.1.9-0-10_14)
FMAT,2
INCH
T1C0.0160
T2C0.0315
T3C0.0394
T4C0.0433
T5C0.1260
%
G90
G05
T1
X7.765Y-4.465
X7.82Y-4.735
X7.825Y-5.255
X7.89Y-3.685
X7.91Y-5.42
X7.945Y-3.46
X7.995Y-3.705
X8.02Y-4.995
X8.14Y-4.3
X8.165Y-4.61
X8.175Y-5.8
X8.18Y-5.345
X8.18Y-5.425
X8.1828Y-5.5628
X8.195Y-3.525
X8.2Y-4.93
X8.2251Y-5.3365
X8.25Y-3.705
X8.325Y-4.35
X8.3274Y-4.2076
T2
X7.77Y-4.54
X7.77Y-4.67
X7.77Y-4.8
X7.77Y-4.93
X7.77Y-5.06
X7.77Y-5.19
X7.77Y-5.32
X7.77Y-5.985
X7.77Y-6.115
X7.7881Y-5.87
X7.79Y-5.45
X7.79Y-5.55
X7.79Y-5.65
X7.79Y-5.75
X7.8Y-2.9916
X7.8Y-3.09
X7.81Y-4.265
X7.81Y-4.3634
X7.85Y-3.235
X7.85Y-3.335
X7.87Y-4.54
X7.87Y-4.67
X7.87Y-4.8
X7.87Y-4.93
X7.87Y-5.06
X7.87Y-5.19
X7.87Y-5.32
X7.87Y-5.985
X7.87Y-6.115
X7.95Y-3.8
X7.95Y-3.9
X7.95Y-4.0
X7.95Y-4.1
X7.95Y-4.2
X7.95Y-4.3
X7.95Y-4.4
X7.955Y-2.989
X7.955Y-3.0874
X7.985Y-5.87
X8.01Y-3.205
X8.01Y-3.345
X8.02Y-4.54
X8.02Y-4.67
X8.02Y-4.8
X8.02Y-4.93
X8.02Y-5.06
X8.02Y-5.19
X8.0216Y-5.325
X8.09Y-5.45
X8.09Y-5.55
X8.09Y-5.65
X8.09Y-5.75
X8.11Y-3.205
X8.11Y-3.345
X8.12Y-2.59
X8.12Y-2.69
X8.12Y-2.79
X8.12Y-2.87
X8.12Y-2.97
X8.12Y-3.07
X8.12Y-4.54
X8.12Y-4.67
X8.12Y-4.8
X8.12Y-4.93
X8.12Y-5.06
X8.12Y-5.19
X8.12Y-5.325
X8.12Y-6.005
X8.12Y-6.105
X8.205Y-4.821
X8.23Y-5.94
X8.23Y-6.13
X8.25Y-3.8
X8.25Y-3.9
X8.25Y-4.0
X8.25Y-4.1
X8.25Y-4.2
X8.25Y-4.3
X8.25Y-4.4
X8.3Y-4.525
X8.3Y-4.65
X8.3Y-4.965
X8.3Y-5.095
X8.3Y-5.225
X8.3Y-5.66
X8.3Y-5.79
X8.305Y-4.821
X8.33Y-5.94
X8.33Y-6.13
X8.34Y-2.6416
X8.34Y-2.74
X8.34Y-2.92
X8.34Y-3.0184
X8.4Y-4.2666
X8.4Y-4.365
X8.4Y-4.525
X8.4Y-4.65
X8.4Y-4.965
X8.4Y-5.095
X8.4Y-5.225
X8.4Y-5.66
X8.4Y-5.79
X8.405Y-4.821
X8.43Y-5.94
X8.43Y-6.13
T3
X7.795Y-3.53
X7.795Y-3.63
X7.795Y-3.73
X7.795Y-3.83
X7.795Y-3.93
X7.795Y-4.03
X7.795Y-4.13
X7.81Y-2.35
X7.81Y-2.45
X7.81Y-2.55
X7.81Y-2.65
X7.81Y-2.75
X7.91Y-2.35
X7.91Y-2.45
X7.91Y-2.55
X7.91Y-2.65
X7.91Y-2.75
X7.995Y-5.995
X7.995Y-6.095
X8.28Y-3.21
X8.28Y-3.31
X8.285Y-5.35
X8.285Y-5.45
X8.285Y-5.55
X8.385Y-5.35
X8.385Y-5.45
X8.385Y-5.55
X8.405Y-3.53
X8.405Y-3.63
X8.405Y-3.73
X8.405Y-3.83
X8.405Y-3.93
X8.405Y-4.03
X8.405Y-4.13
T4
X8.12Y-2.345
X8.12Y-2.48
X8.42Y-2.345
X8.42Y-2.48
T5
X8.1Y-3.57
T0
M30
