M48
; DRILL file {KiCad (5.1.9-0-10_14)} date Thursday, December 31, 2020 at 09:38:45 PM
; FORMAT={-:-/ absolute / inch / decimal}
; #@! TF.CreationDate,2020-12-31T21:38:45-06:00
; #@! TF.GenerationSoftware,Kicad,Pcbnew,(5.1.9-0-10_14)
FMAT,2
INCH
T1C0.0160
T2C0.0276
T3C0.0315
T4C0.0394
T5C0.0433
T6C0.1260
%
G90
G05
T1
X7.8625Y-4.545
X7.863Y-4.153
X7.875Y-3.58
X7.93Y-5.143
X7.93Y-5.238
X7.9426Y-3.7
X7.9519Y-5.6449
X8.0366Y-3.706
X8.077Y-4.016
X8.1Y-4.243
X8.1364Y-5.7928
X8.202Y-3.454
X8.2539Y-3.1739
X8.2971Y-5.555
X8.305Y-5.6475
X8.3145Y-4.9161
X8.3215Y-5.9001
X8.33Y-4.54
X8.34Y-5.4325
T2
X7.795Y-4.34
X7.795Y-4.54
X7.805Y-3.19
X7.825Y-4.625
X7.825Y-4.73
X7.825Y-4.835
X7.84Y-5.735
X7.84Y-5.945
X7.93Y-3.275
X7.93Y-3.475
X8.005Y-3.19
X8.025Y-4.625
X8.025Y-4.73
X8.025Y-4.835
X8.04Y-5.735
X8.04Y-5.945
X8.09Y-3.2925
X8.09Y-3.385
X8.175Y-4.625
X8.178Y-4.73
X8.18Y-4.835
X8.205Y-5.9
X8.205Y-6.11
X8.207Y-5.797
X8.238Y-5.195
X8.238Y-5.29
X8.238Y-5.395
X8.29Y-3.2925
X8.29Y-3.385
X8.375Y-4.625
X8.378Y-4.73
X8.38Y-4.835
X8.39Y-4.34
X8.39Y-4.54
X8.405Y-5.9
X8.405Y-6.11
X8.407Y-5.797
X8.438Y-5.195
X8.438Y-5.29
X8.438Y-5.395
T3
X7.764Y-5.07
X7.765Y-4.95
X7.7666Y-5.19
X7.785Y-5.32
X7.785Y-5.42
X7.785Y-5.52
X7.785Y-5.62
X7.8Y-2.9716
X7.8Y-3.07
X7.84Y-6.07
X7.8431Y-5.84
X7.865Y-5.19
X7.9316Y-3.776
X7.94Y-6.07
X7.95Y-3.895
X7.95Y-3.995
X7.95Y-4.095
X7.95Y-4.195
X7.95Y-4.295
X7.95Y-4.395
X7.95Y-4.495
X7.955Y-2.969
X7.955Y-3.0674
X8.03Y-3.776
X8.034Y-5.07
X8.035Y-4.95
X8.04Y-5.84
X8.04Y-6.07
X8.085Y-5.32
X8.085Y-5.42
X8.085Y-5.52
X8.085Y-5.62
X8.12Y-2.59
X8.12Y-2.69
X8.12Y-2.79
X8.12Y-2.87
X8.12Y-2.97
X8.12Y-3.07
X8.165Y-4.95
X8.165Y-5.07
X8.165Y-6.005
X8.2425Y-5.495
X8.2425Y-5.595
X8.2425Y-5.695
X8.25Y-3.895
X8.25Y-3.995
X8.25Y-4.095
X8.25Y-4.195
X8.25Y-4.295
X8.25Y-4.395
X8.25Y-4.495
X8.276Y-3.692
X8.276Y-3.7904
X8.34Y-2.6416
X8.34Y-2.74
X8.34Y-2.92
X8.34Y-3.0184
X8.43Y-5.495
X8.43Y-5.595
X8.43Y-5.695
X8.435Y-4.95
X8.435Y-5.07
X8.435Y-6.005
T4
X7.795Y-3.43
X7.795Y-3.53
X7.795Y-3.63
X7.795Y-3.73
X7.795Y-3.83
X7.795Y-3.93
X7.795Y-4.03
X7.795Y-4.13
X7.795Y-4.23
X7.81Y-2.35
X7.81Y-2.45
X7.81Y-2.55
X7.81Y-2.65
X7.81Y-2.75
X7.91Y-2.35
X7.91Y-2.45
X7.91Y-2.55
X7.91Y-2.65
X7.91Y-2.75
X8.405Y-3.185
X8.405Y-3.285
X8.405Y-3.43
X8.405Y-3.53
X8.405Y-3.63
X8.405Y-3.73
X8.405Y-3.83
X8.405Y-3.93
X8.405Y-4.03
X8.405Y-4.13
X8.405Y-4.23
T5
X8.12Y-2.345
X8.12Y-2.48
X8.42Y-2.345
X8.42Y-2.48
T6
X8.1Y-3.57
T0
M30
