%TF.GenerationSoftware,KiCad,Pcbnew,(5.1.9-0-10_14)*%
%TF.CreationDate,2021-01-17T19:41:15-06:00*%
%TF.ProjectId,JNTUB_board2,4a4e5455-425f-4626-9f61-7264322e6b69,rev?*%
%TF.SameCoordinates,Original*%
%TF.FileFunction,Copper,L2,Bot*%
%TF.FilePolarity,Positive*%
%FSLAX46Y46*%
G04 Gerber Fmt 4.6, Leading zero omitted, Abs format (unit mm)*
G04 Created by KiCad (PCBNEW (5.1.9-0-10_14)) date 2021-01-17 19:41:15*
%MOMM*%
%LPD*%
G01*
G04 APERTURE LIST*
%TA.AperFunction,ComponentPad*%
%ADD10O,1.700000X1.700000*%
%TD*%
%TA.AperFunction,ComponentPad*%
%ADD11R,1.700000X1.700000*%
%TD*%
%TA.AperFunction,ComponentPad*%
%ADD12R,1.600000X1.600000*%
%TD*%
%TA.AperFunction,ComponentPad*%
%ADD13O,1.600000X1.600000*%
%TD*%
%TA.AperFunction,ComponentPad*%
%ADD14C,1.600000*%
%TD*%
%TA.AperFunction,ComponentPad*%
%ADD15C,1.520000*%
%TD*%
%TA.AperFunction,ComponentPad*%
%ADD16R,1.520000X1.520000*%
%TD*%
%TA.AperFunction,ComponentPad*%
%ADD17O,2.200000X2.200000*%
%TD*%
%TA.AperFunction,ComponentPad*%
%ADD18R,2.200000X2.200000*%
%TD*%
%TA.AperFunction,ComponentPad*%
%ADD19O,2.400000X1.600000*%
%TD*%
%TA.AperFunction,ComponentPad*%
%ADD20R,2.400000X1.600000*%
%TD*%
%TA.AperFunction,ViaPad*%
%ADD21C,0.762000*%
%TD*%
%TA.AperFunction,Conductor*%
%ADD22C,1.016000*%
%TD*%
%TA.AperFunction,Conductor*%
%ADD23C,0.762000*%
%TD*%
%TA.AperFunction,Conductor*%
%ADD24C,0.406400*%
%TD*%
%TA.AperFunction,Conductor*%
%ADD25C,0.609600*%
%TD*%
%TA.AperFunction,Conductor*%
%ADD26C,0.304800*%
%TD*%
%TA.AperFunction,Conductor*%
%ADD27C,0.254000*%
%TD*%
%TA.AperFunction,Conductor*%
%ADD28C,0.250000*%
%TD*%
G04 APERTURE END LIST*
D10*
%TO.P,JP2,2*%
%TO.N,/MainBoard/MCU_PWM*%
X203073000Y-152273000D03*
D11*
%TO.P,JP2,1*%
%TO.N,Net-(JP2-Pad1)*%
X203073000Y-154813000D03*
%TD*%
D10*
%TO.P,J10,7*%
%TO.N,/MainBoard/P2_AVG*%
X197993000Y-104902000D03*
%TO.P,J10,6*%
%TO.N,/MainBoard/MCU_ADC3*%
X197993000Y-102362000D03*
%TO.P,J10,5*%
%TO.N,/MainBoard/LED_POS*%
X197993000Y-99822000D03*
%TO.P,J10,4*%
%TO.N,/MainBoard/LED_NEG*%
X197993000Y-97282000D03*
%TO.P,J10,3*%
%TO.N,Net-(J10-Pad3)*%
X197993000Y-94742000D03*
%TO.P,J10,2*%
%TO.N,-5V*%
X197993000Y-92202000D03*
D11*
%TO.P,J10,1*%
%TO.N,+5V*%
X197993000Y-89662000D03*
%TD*%
%TO.P,J11,1*%
%TO.N,/MainBoard/OUT*%
X213487000Y-89662000D03*
D10*
%TO.P,J11,2*%
%TO.N,GNDREF*%
X213487000Y-92202000D03*
%TO.P,J11,3*%
X213487000Y-94742000D03*
%TO.P,J11,4*%
X213487000Y-97282000D03*
%TO.P,J11,5*%
%TO.N,/MainBoard/CLK_LED*%
X213487000Y-99822000D03*
%TO.P,J11,6*%
%TO.N,/MainBoard/CLK_TRG*%
X213487000Y-102362000D03*
%TO.P,J11,7*%
%TO.N,/MainBoard/P1_AVG*%
X213487000Y-104902000D03*
%TD*%
D12*
%TO.P,D1,1*%
%TO.N,+5V*%
X203708000Y-128524000D03*
D13*
%TO.P,D1,2*%
%TO.N,/MainBoard/MCU_ADC1*%
X206248000Y-128524000D03*
%TD*%
D12*
%TO.P,D3,1*%
%TO.N,+5V*%
X199898000Y-128524000D03*
D13*
%TO.P,D3,2*%
%TO.N,/MainBoard/MCU_ADC2*%
X197358000Y-128524000D03*
%TD*%
D12*
%TO.P,D5,1*%
%TO.N,Net-(D5-Pad1)*%
X213360000Y-114935000D03*
D13*
%TO.P,D5,2*%
%TO.N,GNDREF*%
X210820000Y-114935000D03*
%TD*%
D12*
%TO.P,D4,1*%
%TO.N,/MainBoard/MCU_ADC2*%
X197358000Y-131826000D03*
D13*
%TO.P,D4,2*%
%TO.N,GNDREF*%
X199898000Y-131826000D03*
%TD*%
D12*
%TO.P,D2,1*%
%TO.N,/MainBoard/MCU_ADC1*%
X206248000Y-131826000D03*
D13*
%TO.P,D2,2*%
%TO.N,GNDREF*%
X203708000Y-131826000D03*
%TD*%
%TO.P,R24,2*%
%TO.N,Net-(JP1-Pad1)*%
X199390000Y-84709000D03*
D14*
%TO.P,R24,1*%
%TO.N,+5V*%
X199390000Y-82169000D03*
%TD*%
D13*
%TO.P,R2,2*%
%TO.N,/MainBoard/MCU_ADC1*%
X206248000Y-125222000D03*
D14*
%TO.P,R2,1*%
%TO.N,+5V*%
X203708000Y-125222000D03*
%TD*%
D13*
%TO.P,R4,2*%
%TO.N,/MainBoard/MCU_ADC1*%
X206248000Y-121920000D03*
D14*
%TO.P,R4,1*%
%TO.N,Net-(R4-Pad1)*%
X203708000Y-121920000D03*
%TD*%
D13*
%TO.P,R5,2*%
%TO.N,Net-(R5-Pad2)*%
X206248000Y-115316000D03*
D14*
%TO.P,R5,1*%
%TO.N,GNDREF*%
X203708000Y-115316000D03*
%TD*%
D13*
%TO.P,R6,2*%
%TO.N,Net-(R4-Pad1)*%
X206248000Y-118618000D03*
D14*
%TO.P,R6,1*%
%TO.N,Net-(R5-Pad2)*%
X203708000Y-118618000D03*
%TD*%
D13*
%TO.P,R8,2*%
%TO.N,/MainBoard/MCU_ADC2*%
X197358000Y-125222000D03*
D14*
%TO.P,R8,1*%
%TO.N,+5V*%
X199898000Y-125222000D03*
%TD*%
D13*
%TO.P,R10,2*%
%TO.N,/MainBoard/MCU_ADC2*%
X197358000Y-121920000D03*
D14*
%TO.P,R10,1*%
%TO.N,Net-(R10-Pad1)*%
X199898000Y-121920000D03*
%TD*%
D13*
%TO.P,R11,2*%
%TO.N,Net-(R11-Pad2)*%
X197358000Y-115316000D03*
D14*
%TO.P,R11,1*%
%TO.N,GNDREF*%
X199898000Y-115316000D03*
%TD*%
D13*
%TO.P,R12,2*%
%TO.N,Net-(R11-Pad2)*%
X197358000Y-118618000D03*
D14*
%TO.P,R12,1*%
%TO.N,Net-(R10-Pad1)*%
X199898000Y-118618000D03*
%TD*%
D13*
%TO.P,R13,2*%
%TO.N,+5V*%
X213360000Y-143764000D03*
D14*
%TO.P,R13,1*%
%TO.N,Net-(Q1-Pad3)*%
X210820000Y-143764000D03*
%TD*%
D13*
%TO.P,R14,2*%
%TO.N,/MainBoard/MCU_PB0*%
X213360000Y-129413000D03*
D14*
%TO.P,R14,1*%
%TO.N,+5V*%
X210820000Y-129413000D03*
%TD*%
D13*
%TO.P,R16,2*%
%TO.N,/MainBoard/CLK_TRG*%
X213360000Y-118110000D03*
D14*
%TO.P,R16,1*%
%TO.N,Net-(D5-Pad1)*%
X210820000Y-118110000D03*
%TD*%
D13*
%TO.P,R18,2*%
%TO.N,Net-(Q1-Pad1)*%
X213360000Y-147066000D03*
D14*
%TO.P,R18,1*%
%TO.N,GNDREF*%
X210820000Y-147066000D03*
%TD*%
D13*
%TO.P,R19,2*%
%TO.N,Net-(Q3-Pad3)*%
X213360000Y-126111000D03*
D14*
%TO.P,R19,1*%
%TO.N,+5V*%
X210820000Y-126111000D03*
%TD*%
D13*
%TO.P,R20,2*%
%TO.N,/MainBoard/MCU_PB0*%
X213360000Y-132715000D03*
D14*
%TO.P,R20,1*%
%TO.N,Net-(Q3-Pad2)*%
X210820000Y-132715000D03*
%TD*%
D13*
%TO.P,R22,2*%
%TO.N,Net-(C12-Pad1)*%
X197358000Y-152019000D03*
D14*
%TO.P,R22,1*%
%TO.N,/MainBoard/MCU_PWM*%
X199898000Y-152019000D03*
%TD*%
D13*
%TO.P,R23,2*%
%TO.N,/MainBoard/OUT*%
X205994000Y-84963000D03*
D14*
%TO.P,R23,1*%
%TO.N,/MainBoard/LED_POS*%
X203454000Y-84963000D03*
%TD*%
D13*
%TO.P,R25,2*%
%TO.N,/MainBoard/OUT*%
X205994000Y-81407000D03*
D14*
%TO.P,R25,1*%
%TO.N,Net-(JP1-Pad1)*%
X203454000Y-81407000D03*
%TD*%
D13*
%TO.P,R26,2*%
%TO.N,/MainBoard/MCU_RESET*%
X197358000Y-135128000D03*
D14*
%TO.P,R26,1*%
%TO.N,+5V*%
X199898000Y-135128000D03*
%TD*%
D13*
%TO.P,R27,2*%
%TO.N,Net-(C12-Pad1)*%
X197358000Y-155321000D03*
D14*
%TO.P,R27,1*%
%TO.N,Net-(JP2-Pad1)*%
X199898000Y-155321000D03*
%TD*%
D13*
%TO.P,R28,2*%
%TO.N,GNDREF*%
X206248000Y-152527000D03*
D14*
%TO.P,R28,1*%
%TO.N,/MainBoard/MCU_PWM*%
X206248000Y-155067000D03*
%TD*%
D12*
%TO.P,J12,1*%
%TO.N,/MainBoard/MCU_PWM*%
X210439000Y-140970000D03*
D10*
%TO.P,J12,2*%
%TO.N,+5V*%
X212979000Y-140970000D03*
%TO.P,J12,3*%
%TO.N,/MainBoard/MCU_ADC1*%
X210439000Y-138430000D03*
%TO.P,J12,4*%
%TO.N,/MainBoard/MCU_PB0*%
X212979000Y-138430000D03*
%TO.P,J12,5*%
%TO.N,/MainBoard/MCU_RESET*%
X210439000Y-135890000D03*
%TO.P,J12,6*%
%TO.N,GNDREF*%
X212979000Y-135890000D03*
%TD*%
D11*
%TO.P,JP1,1*%
%TO.N,Net-(JP1-Pad1)*%
X210312000Y-81534000D03*
D10*
%TO.P,JP1,2*%
%TO.N,/MainBoard/OUT*%
X210312000Y-84074000D03*
%TD*%
D14*
%TO.P,C12,1*%
%TO.N,Net-(C12-Pad1)*%
X202819000Y-149098000D03*
%TO.P,C12,2*%
%TO.N,GNDREF*%
X197819000Y-149098000D03*
%TD*%
D15*
%TO.P,U3,2*%
%TO.N,GNDREF*%
X206248000Y-68326000D03*
%TO.P,U3,3*%
%TO.N,+12V*%
X206248000Y-65786000D03*
D16*
%TO.P,U3,1*%
%TO.N,+5V*%
X206248000Y-70866000D03*
%TD*%
D15*
%TO.P,U4,2*%
%TO.N,-12V*%
X206248000Y-75438000D03*
%TO.P,U4,3*%
%TO.N,-5V*%
X206248000Y-72898000D03*
D16*
%TO.P,U4,1*%
%TO.N,GNDREF*%
X206248000Y-77978000D03*
%TD*%
D14*
%TO.P,C4,2*%
%TO.N,GNDREF*%
X198120000Y-75986000D03*
%TO.P,C4,1*%
%TO.N,+5V*%
X198120000Y-78486000D03*
%TD*%
%TO.P,C10,2*%
%TO.N,GNDREF*%
X203748000Y-135255000D03*
%TO.P,C10,1*%
%TO.N,+5V*%
X206248000Y-135255000D03*
%TD*%
%TO.P,C9,2*%
%TO.N,-12V*%
X213360000Y-108371000D03*
%TO.P,C9,1*%
%TO.N,GNDREF*%
X213360000Y-110871000D03*
%TD*%
%TO.P,C8,2*%
%TO.N,GNDREF*%
X198374000Y-110831000D03*
%TO.P,C8,1*%
%TO.N,+12V*%
X198374000Y-108331000D03*
%TD*%
%TO.P,C6,2*%
%TO.N,-5V*%
X202057000Y-78420600D03*
%TO.P,C6,1*%
%TO.N,GNDREF*%
X202057000Y-75920600D03*
%TD*%
D17*
%TO.P,D11,2*%
%TO.N,-12V*%
X213868000Y-62992000D03*
D18*
%TO.P,D11,1*%
%TO.N,Net-(D11-Pad1)*%
X206248000Y-62992000D03*
%TD*%
%TO.P,D10,1*%
%TO.N,+12V*%
X213868000Y-59563000D03*
D17*
%TO.P,D10,2*%
%TO.N,Net-(D10-Pad2)*%
X206248000Y-59563000D03*
%TD*%
D12*
%TO.P,C2,1*%
%TO.N,GNDREF*%
X211836000Y-74168000D03*
D14*
%TO.P,C2,2*%
%TO.N,-12V*%
X211836000Y-76668000D03*
%TD*%
D12*
%TO.P,C1,1*%
%TO.N,+12V*%
X211836000Y-69596000D03*
D14*
%TO.P,C1,2*%
%TO.N,GNDREF*%
X211836000Y-67096000D03*
%TD*%
D19*
%TO.P,U2,14*%
%TO.N,/MainBoard/OUT*%
X209550000Y-96520000D03*
%TO.P,U2,7*%
%TO.N,Net-(R10-Pad1)*%
X201930000Y-111760000D03*
%TO.P,U2,13*%
%TO.N,Net-(JP1-Pad1)*%
X209550000Y-99060000D03*
%TO.P,U2,6*%
%TO.N,Net-(R11-Pad2)*%
X201930000Y-109220000D03*
%TO.P,U2,12*%
%TO.N,Net-(C12-Pad1)*%
X209550000Y-101600000D03*
%TO.P,U2,5*%
%TO.N,/MainBoard/P2_AVG*%
X201930000Y-106680000D03*
%TO.P,U2,11*%
%TO.N,-12V*%
X209550000Y-104140000D03*
%TO.P,U2,4*%
%TO.N,+12V*%
X201930000Y-104140000D03*
%TO.P,U2,10*%
%TO.N,/MainBoard/P1_AVG*%
X209550000Y-106680000D03*
%TO.P,U2,3*%
%TO.N,GNDREF*%
X201930000Y-101600000D03*
%TO.P,U2,9*%
%TO.N,Net-(R5-Pad2)*%
X209550000Y-109220000D03*
%TO.P,U2,2*%
%TO.N,/MainBoard/LED_POS*%
X201930000Y-99060000D03*
%TO.P,U2,8*%
%TO.N,Net-(R4-Pad1)*%
X209550000Y-111760000D03*
D20*
%TO.P,U2,1*%
%TO.N,/MainBoard/LED_NEG*%
X201930000Y-96520000D03*
%TD*%
%TO.P,U1,1*%
%TO.N,/MainBoard/MCU_RESET*%
X197866000Y-138430000D03*
D19*
%TO.P,U1,5*%
%TO.N,/MainBoard/MCU_PB0*%
X205486000Y-146050000D03*
%TO.P,U1,2*%
%TO.N,/MainBoard/MCU_ADC3*%
X197866000Y-140970000D03*
%TO.P,U1,6*%
%TO.N,/MainBoard/MCU_PWM*%
X205486000Y-143510000D03*
%TO.P,U1,3*%
%TO.N,/MainBoard/MCU_ADC2*%
X197866000Y-143510000D03*
%TO.P,U1,7*%
%TO.N,/MainBoard/MCU_ADC1*%
X205486000Y-140970000D03*
%TO.P,U1,4*%
%TO.N,GNDREF*%
X197866000Y-146050000D03*
%TO.P,U1,8*%
%TO.N,+5V*%
X205486000Y-138430000D03*
%TD*%
D10*
%TO.P,J9,10*%
%TO.N,Net-(D11-Pad1)*%
X198374000Y-69850000D03*
%TO.P,J9,9*%
X200914000Y-69850000D03*
%TO.P,J9,8*%
%TO.N,GNDREF*%
X198374000Y-67310000D03*
%TO.P,J9,7*%
X200914000Y-67310000D03*
%TO.P,J9,6*%
X198374000Y-64770000D03*
%TO.P,J9,5*%
X200914000Y-64770000D03*
%TO.P,J9,4*%
X198374000Y-62230000D03*
%TO.P,J9,3*%
X200914000Y-62230000D03*
%TO.P,J9,2*%
%TO.N,Net-(D10-Pad2)*%
X198374000Y-59690000D03*
D11*
%TO.P,J9,1*%
X200914000Y-59690000D03*
%TD*%
D15*
%TO.P,Q1,2*%
%TO.N,Net-(D5-Pad1)*%
X211582000Y-150876000D03*
%TO.P,Q1,3*%
%TO.N,Net-(Q1-Pad3)*%
X209042000Y-150876000D03*
D16*
%TO.P,Q1,1*%
%TO.N,Net-(Q1-Pad1)*%
X214122000Y-150876000D03*
%TD*%
D15*
%TO.P,Q2,2*%
%TO.N,Net-(Q1-Pad3)*%
X211582000Y-155702000D03*
%TO.P,Q2,3*%
%TO.N,/MainBoard/MCU_PB0*%
X209042000Y-155702000D03*
D16*
%TO.P,Q2,1*%
%TO.N,Net-(Q1-Pad1)*%
X214122000Y-155702000D03*
%TD*%
D15*
%TO.P,Q3,2*%
%TO.N,Net-(Q3-Pad2)*%
X210947000Y-122453400D03*
%TO.P,Q3,3*%
%TO.N,Net-(Q3-Pad3)*%
X213487000Y-122453400D03*
D16*
%TO.P,Q3,1*%
%TO.N,/MainBoard/CLK_LED*%
X208407000Y-122453400D03*
%TD*%
D21*
%TO.N,+12V*%
X200406000Y-93599000D03*
%TO.N,+5V*%
X203073000Y-94107000D03*
X203708000Y-126873000D03*
%TO.N,-12V*%
X209550000Y-94107000D03*
%TO.N,Net-(C12-Pad1)*%
X207645000Y-147320000D03*
X208918584Y-135547001D03*
X208280000Y-125222000D03*
X207391000Y-117094000D03*
%TO.N,/MainBoard/MCU_ADC2*%
X200914000Y-137668000D03*
%TO.N,/MainBoard/MCU_ADC1*%
X207772000Y-137795000D03*
X207772000Y-135763000D03*
%TO.N,Net-(JP1-Pad1)*%
X208153000Y-89535000D03*
%TO.N,/MainBoard/MCU_PB0*%
X207841882Y-141293882D03*
%TO.N,/MainBoard/MCU_ADC3*%
X198628000Y-120269000D03*
X197231000Y-113411000D03*
X198755000Y-133477000D03*
%TO.N,Net-(R5-Pad2)*%
X206756000Y-109220000D03*
%TO.N,/MainBoard/LED_POS*%
X201803000Y-87884000D03*
%TO.N,/MainBoard/CLK_LED*%
X211516540Y-106872460D03*
X211455000Y-110490000D03*
%TD*%
D22*
%TO.N,+12V*%
X213868000Y-59563000D02*
X213868000Y-59690000D01*
X211582000Y-69596000D02*
X211836000Y-69596000D01*
X209042000Y-62230000D02*
X211709000Y-59563000D01*
X211709000Y-59563000D02*
X213868000Y-59563000D01*
X209042000Y-65786000D02*
X206248000Y-65786000D01*
X209042000Y-65786000D02*
X209042000Y-62230000D01*
X209042000Y-69596000D02*
X211836000Y-69596000D01*
X209042000Y-65786000D02*
X209042000Y-69596000D01*
X201422000Y-93599000D02*
X200406000Y-93599000D01*
X204470000Y-87757000D02*
X202565000Y-89662000D01*
X209804000Y-87757000D02*
X204470000Y-87757000D01*
X212344000Y-85217000D02*
X209804000Y-87757000D01*
X202565000Y-92456000D02*
X201422000Y-93599000D01*
X212344000Y-79375000D02*
X212344000Y-85217000D01*
X210058000Y-78486000D02*
X211455000Y-78486000D01*
X209042000Y-77470000D02*
X210058000Y-78486000D01*
X211455000Y-78486000D02*
X212344000Y-79375000D01*
X202565000Y-89662000D02*
X202565000Y-92456000D01*
X209042000Y-69596000D02*
X209042000Y-77470000D01*
%TO.N,+5V*%
X206248000Y-70866000D02*
X204216000Y-70866000D01*
X204216000Y-70866000D02*
X200113999Y-74968001D01*
X198120000Y-89535000D02*
X197993000Y-89662000D01*
X200113999Y-74968001D02*
X200113999Y-77508001D01*
X199136000Y-78486000D02*
X198120000Y-78486000D01*
X200113999Y-77508001D02*
X199136000Y-78486000D01*
X197993000Y-89662000D02*
X197993000Y-86741000D01*
X197993000Y-86741000D02*
X197358000Y-86106000D01*
X197358000Y-86106000D02*
X197358000Y-84074000D01*
X197358000Y-79248000D02*
X198120000Y-78486000D01*
D23*
X203454000Y-125222000D02*
X203708000Y-125222000D01*
X199898000Y-125222000D02*
X199898000Y-128524000D01*
D24*
X213487000Y-143637000D02*
X213614000Y-143764000D01*
X211074000Y-129286000D02*
X210947000Y-129413000D01*
D23*
X210820000Y-126111000D02*
X210820000Y-129286000D01*
X206248000Y-133731000D02*
X206248000Y-135255000D01*
X199923401Y-133642099D02*
X200025000Y-133540500D01*
X206057500Y-133540500D02*
X206248000Y-133731000D01*
X200025000Y-133540500D02*
X206057500Y-133540500D01*
X199923401Y-135102599D02*
X199923401Y-133642099D01*
X199898000Y-135128000D02*
X199923401Y-135102599D01*
X203708000Y-126873000D02*
X203708000Y-128524000D01*
X203708000Y-125222000D02*
X203708000Y-126873000D01*
D22*
X199898000Y-125222000D02*
X201803000Y-125222000D01*
X201803000Y-133477000D02*
X201803000Y-125222000D01*
X201803000Y-125222000D02*
X203708000Y-125222000D01*
X197358000Y-82169000D02*
X199390000Y-82169000D01*
X197358000Y-84074000D02*
X197358000Y-82169000D01*
X197358000Y-82169000D02*
X197358000Y-79248000D01*
X204343000Y-94107000D02*
X203073000Y-94107000D01*
X203111001Y-113499999D02*
X205232000Y-111379000D01*
X205232000Y-94996000D02*
X204343000Y-94107000D01*
X201803000Y-125222000D02*
X201803000Y-113919000D01*
X205232000Y-111379000D02*
X205232000Y-94996000D01*
X202222001Y-113499999D02*
X203111001Y-113499999D01*
X201803000Y-113919000D02*
X202222001Y-113499999D01*
%TO.N,-12V*%
X213868000Y-65151000D02*
X213868000Y-62992000D01*
X214249000Y-65532000D02*
X213868000Y-65151000D01*
X209550000Y-90424000D02*
X214249000Y-85725000D01*
X209550000Y-94107000D02*
X209550000Y-90424000D01*
X214162000Y-76668000D02*
X214249000Y-76581000D01*
X211836000Y-76668000D02*
X214162000Y-76668000D01*
X214249000Y-76581000D02*
X214249000Y-65532000D01*
X214249000Y-85725000D02*
X214249000Y-76581000D01*
%TO.N,-5V*%
X203519400Y-78420600D02*
X202057000Y-78420600D01*
X204216000Y-73406000D02*
X204216000Y-77724000D01*
X204724000Y-72898000D02*
X204216000Y-73406000D01*
X206248000Y-72898000D02*
X204724000Y-72898000D01*
X204216000Y-77724000D02*
X203519400Y-78420600D01*
X200152000Y-91245081D02*
X199195081Y-92202000D01*
X201422000Y-85598000D02*
X200152000Y-86868000D01*
X200152000Y-86868000D02*
X200152000Y-91245081D01*
X201422000Y-79055600D02*
X201422000Y-85598000D01*
X199195081Y-92202000D02*
X197993000Y-92202000D01*
X202057000Y-78420600D02*
X201422000Y-79055600D01*
D25*
%TO.N,Net-(C12-Pad1)*%
X197358000Y-152019000D02*
X197358000Y-155321000D01*
D24*
X208918584Y-132083584D02*
X208915000Y-132080000D01*
X208918584Y-135547001D02*
X208918584Y-132083584D01*
X208918584Y-132083584D02*
X208280000Y-131445000D01*
X208280000Y-131445000D02*
X208280000Y-125222000D01*
X208026000Y-101600000D02*
X209550000Y-101600000D01*
X207645000Y-101981000D02*
X208026000Y-101600000D01*
X207645000Y-116840000D02*
X207645000Y-101981000D01*
X207391000Y-117094000D02*
X207645000Y-116840000D01*
D25*
X205867000Y-149098000D02*
X207645000Y-147320000D01*
X202819000Y-149098000D02*
X205867000Y-149098000D01*
%TO.N,/MainBoard/MCU_ADC2*%
X197358000Y-122428000D02*
X197358000Y-125730000D01*
X197358000Y-125730000D02*
X197358000Y-129032000D01*
X197358000Y-129032000D02*
X197358000Y-132334000D01*
D26*
X197358000Y-133267342D02*
X197358000Y-131826000D01*
X198640799Y-134550141D02*
X197358000Y-133267342D01*
X198640799Y-135974796D02*
X198640799Y-134550141D01*
D24*
X200334003Y-137668000D02*
X198640799Y-135974796D01*
X200914000Y-137668000D02*
X200334003Y-137668000D01*
D25*
%TO.N,/MainBoard/MCU_ADC1*%
X206248000Y-121920000D02*
X206248000Y-125222000D01*
X206248000Y-125222000D02*
X206248000Y-128524000D01*
X206248000Y-128524000D02*
X206248000Y-131826000D01*
D24*
X205486000Y-140970000D02*
X206883000Y-140970000D01*
X206883000Y-140937042D02*
X207772000Y-140048042D01*
X206883000Y-140970000D02*
X206883000Y-140937042D01*
X207772000Y-138430000D02*
X207772000Y-137795000D01*
X210439000Y-138430000D02*
X207772000Y-138430000D01*
X207772000Y-140048042D02*
X207772000Y-138430000D01*
X207264000Y-131826000D02*
X206248000Y-131826000D01*
X207772000Y-132334000D02*
X207264000Y-131826000D01*
X207772000Y-135763000D02*
X207772000Y-132334000D01*
%TO.N,Net-(D5-Pad1)*%
X212051999Y-116878001D02*
X210820000Y-118110000D01*
X213360000Y-114935000D02*
X212051999Y-116243001D01*
X212051999Y-116243001D02*
X212051999Y-116878001D01*
X211627066Y-150876000D02*
X211582000Y-150876000D01*
D26*
X210820000Y-118110000D02*
X212725000Y-120015000D01*
X212725000Y-120015000D02*
X213868000Y-120015000D01*
X213868000Y-120015000D02*
X214859790Y-121006790D01*
X214859790Y-121006790D02*
X214859790Y-133096000D01*
D27*
X214885190Y-133351190D02*
X214884000Y-142875000D01*
X214859790Y-133325790D02*
X214885190Y-133351190D01*
X214859790Y-133096000D02*
X214859790Y-133325790D01*
D26*
X211582000Y-150876000D02*
X214859790Y-147598210D01*
X214859790Y-147598210D02*
X214859790Y-142875000D01*
D23*
%TO.N,Net-(JP1-Pad1)*%
X209042000Y-79756000D02*
X210312000Y-81026000D01*
X205105000Y-79756000D02*
X209042000Y-79756000D01*
X203454000Y-81407000D02*
X205105000Y-79756000D01*
D25*
X208153000Y-89535000D02*
X208153000Y-93091000D01*
X208153000Y-93091000D02*
X207010000Y-94234000D01*
X207010000Y-94234000D02*
X207010000Y-98679000D01*
X207391000Y-99060000D02*
X209550000Y-99060000D01*
X207010000Y-98679000D02*
X207391000Y-99060000D01*
D26*
%TO.N,Net-(Q1-Pad3)*%
X208534000Y-149352000D02*
X209042000Y-149860000D01*
X209042000Y-149860000D02*
X209042000Y-150876000D01*
X208534000Y-146050000D02*
X208534000Y-149352000D01*
X210820000Y-143764000D02*
X208534000Y-146050000D01*
D24*
%TO.N,Net-(Q1-Pad1)*%
X214122000Y-150876000D02*
X214122000Y-155702000D01*
%TO.N,/MainBoard/MCU_PB0*%
X213360000Y-129413000D02*
X213360000Y-132715000D01*
D26*
X207841882Y-141281118D02*
X207841882Y-141293882D01*
D27*
X213360000Y-132715000D02*
X214326338Y-133681339D01*
X214325914Y-137083086D02*
X212979000Y-138430000D01*
X214326338Y-133681339D02*
X214325914Y-137083086D01*
D26*
X210259201Y-150039799D02*
X210259201Y-154484799D01*
X210309606Y-145415000D02*
X209359599Y-146365007D01*
X211582000Y-145415000D02*
X210309606Y-145415000D01*
X212090000Y-142875000D02*
X212090000Y-144907000D01*
X210259201Y-154484799D02*
X209042000Y-155702000D01*
X209359599Y-149140197D02*
X210259201Y-150039799D01*
X211582000Y-142367000D02*
X212090000Y-142875000D01*
X209359599Y-146365007D02*
X209359599Y-149140197D01*
X209677000Y-142367000D02*
X211582000Y-142367000D01*
X209042000Y-143002000D02*
X209677000Y-142367000D01*
X212090000Y-144907000D02*
X211582000Y-145415000D01*
X205486000Y-146050000D02*
X207391000Y-146050000D01*
X209042000Y-144399000D02*
X209042000Y-143002000D01*
X207391000Y-146050000D02*
X209042000Y-144399000D01*
D27*
X209411199Y-139711801D02*
X207841882Y-141293882D01*
X211697199Y-139711801D02*
X209411199Y-139711801D01*
X212979000Y-138430000D02*
X211697199Y-139711801D01*
D24*
%TO.N,Net-(Q3-Pad2)*%
X210820000Y-131699000D02*
X210820000Y-132715000D01*
X209410399Y-130289399D02*
X210820000Y-131699000D01*
X209410399Y-123964601D02*
X209410399Y-130289399D01*
X210947000Y-122428000D02*
X209410399Y-123964601D01*
%TO.N,Net-(Q3-Pad3)*%
X213487000Y-122428000D02*
X213487000Y-126111000D01*
D25*
%TO.N,Net-(R4-Pad1)*%
X206248000Y-118618000D02*
X204978000Y-119888000D01*
X204978000Y-119888000D02*
X204978000Y-120650000D01*
X204978000Y-120650000D02*
X203708000Y-121920000D01*
D24*
X207899000Y-118618000D02*
X206248000Y-118618000D01*
X208407000Y-113919000D02*
X208407000Y-118110000D01*
X209550000Y-112776000D02*
X208407000Y-113919000D01*
X208407000Y-118110000D02*
X207899000Y-118618000D01*
X209550000Y-111760000D02*
X209550000Y-112776000D01*
D25*
%TO.N,Net-(R10-Pad1)*%
X199898000Y-118618000D02*
X199898000Y-121920000D01*
D26*
X198628000Y-117348000D02*
X199898000Y-118618000D01*
D24*
X201930000Y-111760000D02*
X201530000Y-111760000D01*
D26*
X198628000Y-114681000D02*
X198628000Y-117348000D01*
X201549000Y-111760000D02*
X198628000Y-114681000D01*
X201930000Y-111760000D02*
X201549000Y-111760000D01*
D25*
%TO.N,/MainBoard/MCU_PWM*%
X199898000Y-152019000D02*
X201295000Y-152019000D01*
X201295000Y-152019000D02*
X201549000Y-152273000D01*
X201549000Y-152273000D02*
X203073000Y-152273000D01*
X199898000Y-149098000D02*
X199898000Y-152019000D01*
X205486000Y-143510000D02*
X199898000Y-149098000D01*
D24*
X205486000Y-143510000D02*
X206375000Y-143510000D01*
X205486000Y-143510000D02*
X206883000Y-143510000D01*
X209423000Y-140970000D02*
X210439000Y-140970000D01*
X206883000Y-143510000D02*
X209423000Y-140970000D01*
D22*
%TO.N,Net-(D10-Pad2)*%
X198374000Y-59690000D02*
X200914000Y-59690000D01*
D28*
X206121000Y-59690000D02*
X206248000Y-59563000D01*
D22*
X200914000Y-59690000D02*
X206121000Y-59690000D01*
%TO.N,Net-(D11-Pad1)*%
X198374000Y-69850000D02*
X200914000Y-69850000D01*
X200914000Y-69850000D02*
X202184000Y-69850000D01*
X203200000Y-63754000D02*
X203962000Y-62992000D01*
X203962000Y-62992000D02*
X206248000Y-62992000D01*
X203200000Y-68834000D02*
X203200000Y-63754000D01*
X202184000Y-69850000D02*
X203200000Y-68834000D01*
D26*
%TO.N,/MainBoard/MCU_ADC3*%
X196685799Y-103669201D02*
X197993000Y-102362000D01*
X196685799Y-112865799D02*
X196685799Y-103669201D01*
X197231000Y-113411000D02*
X196685799Y-112865799D01*
X198628000Y-133350000D02*
X198755000Y-133477000D01*
X198628000Y-120269000D02*
X198628000Y-133350000D01*
D25*
%TO.N,/MainBoard/OUT*%
X211824199Y-94245801D02*
X209550000Y-96520000D01*
X211824199Y-91324801D02*
X211824199Y-94245801D01*
X213487000Y-89662000D02*
X211824199Y-91324801D01*
D23*
X210312000Y-84074000D02*
X208915000Y-84074000D01*
X208915000Y-84074000D02*
X208026000Y-83185000D01*
X208026000Y-83185000D02*
X205994000Y-83185000D01*
X205994000Y-83185000D02*
X205994000Y-84963000D01*
X205994000Y-81407000D02*
X205994000Y-83185000D01*
D27*
%TO.N,/MainBoard/CLK_TRG*%
X214884000Y-103759000D02*
X213487000Y-102362000D01*
X214884000Y-116713000D02*
X214884000Y-103759000D01*
X213487000Y-118110000D02*
X214884000Y-116713000D01*
D25*
%TO.N,/MainBoard/P2_AVG*%
X199771000Y-106680000D02*
X201930000Y-106680000D01*
X197993000Y-104902000D02*
X199771000Y-106680000D01*
%TO.N,/MainBoard/P1_AVG*%
X209409143Y-106553000D02*
X209550000Y-106553000D01*
D24*
X213487000Y-106181158D02*
X213487000Y-104902000D01*
X211906697Y-107761461D02*
X213487000Y-106181158D01*
X210631461Y-107761461D02*
X211906697Y-107761461D01*
X209550000Y-106680000D02*
X210631461Y-107761461D01*
D25*
%TO.N,Net-(JP2-Pad1)*%
X201549000Y-154813000D02*
X203073000Y-154813000D01*
X201041000Y-155321000D02*
X201549000Y-154813000D01*
X199898000Y-155321000D02*
X201041000Y-155321000D01*
%TO.N,Net-(R5-Pad2)*%
X206248000Y-115316000D02*
X204978000Y-116586000D01*
X204978000Y-116586000D02*
X204978000Y-117348000D01*
X204978000Y-117348000D02*
X203708000Y-118618000D01*
D24*
X206248000Y-115316000D02*
X206248000Y-114173000D01*
X206756000Y-113665000D02*
X206756000Y-109220000D01*
X206248000Y-114173000D02*
X206756000Y-113665000D01*
%TO.N,Net-(R11-Pad2)*%
X201930000Y-109220000D02*
X199898000Y-111252000D01*
D25*
X197358000Y-115316000D02*
X197358000Y-118618000D01*
D24*
X197358000Y-114692630D02*
X197358000Y-115824000D01*
X199898000Y-111252000D02*
X199898000Y-112152630D01*
X199898000Y-112152630D02*
X199886370Y-112152630D01*
X197358000Y-114681000D02*
X197358000Y-115316000D01*
X199886370Y-112152630D02*
X197358000Y-114681000D01*
%TO.N,/MainBoard/MCU_RESET*%
X197358000Y-137922000D02*
X197866000Y-138430000D01*
X197358000Y-135128000D02*
X197358000Y-137922000D01*
D26*
X210947000Y-135890000D02*
X210947000Y-135636000D01*
D24*
X209562799Y-136766201D02*
X204101799Y-136766201D01*
X210439000Y-135890000D02*
X209562799Y-136766201D01*
X198268198Y-138832198D02*
X197866000Y-138430000D01*
X202035802Y-138832198D02*
X198268198Y-138832198D01*
X204101799Y-136766201D02*
X202035802Y-138832198D01*
D25*
%TO.N,/MainBoard/LED_POS*%
X203454000Y-86233000D02*
X203454000Y-84963000D01*
X201803000Y-87884000D02*
X203454000Y-86233000D01*
X201930000Y-99060000D02*
X200406000Y-99060000D01*
X199644000Y-99822000D02*
X197993000Y-99822000D01*
X200406000Y-99060000D02*
X199644000Y-99822000D01*
%TO.N,/MainBoard/LED_NEG*%
X200787000Y-96520000D02*
X201930000Y-96520000D01*
X201930000Y-96520000D02*
X200152000Y-96520000D01*
X199390000Y-97282000D02*
X197993000Y-97282000D01*
X200152000Y-96520000D02*
X199390000Y-97282000D01*
D24*
%TO.N,/MainBoard/CLK_LED*%
X211516540Y-101792460D02*
X213487000Y-99822000D01*
X211516540Y-106872460D02*
X211516540Y-101792460D01*
X211455000Y-112104805D02*
X211455000Y-110490000D01*
X211074000Y-113030000D02*
X211455000Y-112649000D01*
X209169000Y-120269000D02*
X209169000Y-114349422D01*
X210488422Y-113030000D02*
X211074000Y-113030000D01*
X208407000Y-122428000D02*
X208407000Y-121031000D01*
X209169000Y-114349422D02*
X210488422Y-113030000D01*
X211455000Y-112649000D02*
X211455000Y-112104805D01*
X208407000Y-121031000D02*
X209169000Y-120269000D01*
%TD*%
M02*
