%TF.GenerationSoftware,KiCad,Pcbnew,(5.1.9-0-10_14)*%
%TF.CreationDate,2021-01-17T19:41:15-06:00*%
%TF.ProjectId,JNTUB_board2,4a4e5455-425f-4626-9f61-7264322e6b69,rev?*%
%TF.SameCoordinates,Original*%
%TF.FileFunction,Copper,L1,Top*%
%TF.FilePolarity,Positive*%
%FSLAX46Y46*%
G04 Gerber Fmt 4.6, Leading zero omitted, Abs format (unit mm)*
G04 Created by KiCad (PCBNEW (5.1.9-0-10_14)) date 2021-01-17 19:41:15*
%MOMM*%
%LPD*%
G01*
G04 APERTURE LIST*
%TA.AperFunction,ComponentPad*%
%ADD10O,1.700000X1.700000*%
%TD*%
%TA.AperFunction,ComponentPad*%
%ADD11R,1.700000X1.700000*%
%TD*%
%TA.AperFunction,ComponentPad*%
%ADD12R,1.600000X1.600000*%
%TD*%
%TA.AperFunction,ComponentPad*%
%ADD13O,1.600000X1.600000*%
%TD*%
%TA.AperFunction,ComponentPad*%
%ADD14C,1.600000*%
%TD*%
%TA.AperFunction,ComponentPad*%
%ADD15C,1.520000*%
%TD*%
%TA.AperFunction,ComponentPad*%
%ADD16R,1.520000X1.520000*%
%TD*%
%TA.AperFunction,ComponentPad*%
%ADD17O,2.200000X2.200000*%
%TD*%
%TA.AperFunction,ComponentPad*%
%ADD18R,2.200000X2.200000*%
%TD*%
%TA.AperFunction,ComponentPad*%
%ADD19O,2.400000X1.600000*%
%TD*%
%TA.AperFunction,ComponentPad*%
%ADD20R,2.400000X1.600000*%
%TD*%
%TA.AperFunction,ViaPad*%
%ADD21C,0.762000*%
%TD*%
%TA.AperFunction,Conductor*%
%ADD22C,0.762000*%
%TD*%
%TA.AperFunction,Conductor*%
%ADD23C,1.524000*%
%TD*%
%TA.AperFunction,Conductor*%
%ADD24C,1.270000*%
%TD*%
%TA.AperFunction,Conductor*%
%ADD25C,0.508000*%
%TD*%
%TA.AperFunction,Conductor*%
%ADD26C,1.016000*%
%TD*%
%TA.AperFunction,Conductor*%
%ADD27C,0.406400*%
%TD*%
%TA.AperFunction,Conductor*%
%ADD28C,0.609600*%
%TD*%
%TA.AperFunction,Conductor*%
%ADD29C,0.304800*%
%TD*%
G04 APERTURE END LIST*
D10*
%TO.P,JP2,2*%
%TO.N,/MainBoard/MCU_PWM*%
X203073000Y-152273000D03*
D11*
%TO.P,JP2,1*%
%TO.N,Net-(JP2-Pad1)*%
X203073000Y-154813000D03*
%TD*%
D10*
%TO.P,J10,7*%
%TO.N,/MainBoard/P2_AVG*%
X197993000Y-104902000D03*
%TO.P,J10,6*%
%TO.N,/MainBoard/MCU_ADC3*%
X197993000Y-102362000D03*
%TO.P,J10,5*%
%TO.N,/MainBoard/LED_POS*%
X197993000Y-99822000D03*
%TO.P,J10,4*%
%TO.N,/MainBoard/LED_NEG*%
X197993000Y-97282000D03*
%TO.P,J10,3*%
%TO.N,Net-(J10-Pad3)*%
X197993000Y-94742000D03*
%TO.P,J10,2*%
%TO.N,-5V*%
X197993000Y-92202000D03*
D11*
%TO.P,J10,1*%
%TO.N,+5V*%
X197993000Y-89662000D03*
%TD*%
%TO.P,J11,1*%
%TO.N,/MainBoard/OUT*%
X213487000Y-89662000D03*
D10*
%TO.P,J11,2*%
%TO.N,GNDREF*%
X213487000Y-92202000D03*
%TO.P,J11,3*%
X213487000Y-94742000D03*
%TO.P,J11,4*%
X213487000Y-97282000D03*
%TO.P,J11,5*%
%TO.N,/MainBoard/CLK_LED*%
X213487000Y-99822000D03*
%TO.P,J11,6*%
%TO.N,/MainBoard/CLK_TRG*%
X213487000Y-102362000D03*
%TO.P,J11,7*%
%TO.N,/MainBoard/P1_AVG*%
X213487000Y-104902000D03*
%TD*%
D12*
%TO.P,D1,1*%
%TO.N,+5V*%
X203708000Y-128524000D03*
D13*
%TO.P,D1,2*%
%TO.N,/MainBoard/MCU_ADC1*%
X206248000Y-128524000D03*
%TD*%
D12*
%TO.P,D3,1*%
%TO.N,+5V*%
X199898000Y-128524000D03*
D13*
%TO.P,D3,2*%
%TO.N,/MainBoard/MCU_ADC2*%
X197358000Y-128524000D03*
%TD*%
D12*
%TO.P,D5,1*%
%TO.N,Net-(D5-Pad1)*%
X213360000Y-114935000D03*
D13*
%TO.P,D5,2*%
%TO.N,GNDREF*%
X210820000Y-114935000D03*
%TD*%
D12*
%TO.P,D4,1*%
%TO.N,/MainBoard/MCU_ADC2*%
X197358000Y-131826000D03*
D13*
%TO.P,D4,2*%
%TO.N,GNDREF*%
X199898000Y-131826000D03*
%TD*%
D12*
%TO.P,D2,1*%
%TO.N,/MainBoard/MCU_ADC1*%
X206248000Y-131826000D03*
D13*
%TO.P,D2,2*%
%TO.N,GNDREF*%
X203708000Y-131826000D03*
%TD*%
%TO.P,R24,2*%
%TO.N,Net-(JP1-Pad1)*%
X199390000Y-84709000D03*
D14*
%TO.P,R24,1*%
%TO.N,+5V*%
X199390000Y-82169000D03*
%TD*%
D13*
%TO.P,R2,2*%
%TO.N,/MainBoard/MCU_ADC1*%
X206248000Y-125222000D03*
D14*
%TO.P,R2,1*%
%TO.N,+5V*%
X203708000Y-125222000D03*
%TD*%
D13*
%TO.P,R4,2*%
%TO.N,/MainBoard/MCU_ADC1*%
X206248000Y-121920000D03*
D14*
%TO.P,R4,1*%
%TO.N,Net-(R4-Pad1)*%
X203708000Y-121920000D03*
%TD*%
D13*
%TO.P,R5,2*%
%TO.N,Net-(R5-Pad2)*%
X206248000Y-115316000D03*
D14*
%TO.P,R5,1*%
%TO.N,GNDREF*%
X203708000Y-115316000D03*
%TD*%
D13*
%TO.P,R6,2*%
%TO.N,Net-(R4-Pad1)*%
X206248000Y-118618000D03*
D14*
%TO.P,R6,1*%
%TO.N,Net-(R5-Pad2)*%
X203708000Y-118618000D03*
%TD*%
D13*
%TO.P,R8,2*%
%TO.N,/MainBoard/MCU_ADC2*%
X197358000Y-125222000D03*
D14*
%TO.P,R8,1*%
%TO.N,+5V*%
X199898000Y-125222000D03*
%TD*%
D13*
%TO.P,R10,2*%
%TO.N,/MainBoard/MCU_ADC2*%
X197358000Y-121920000D03*
D14*
%TO.P,R10,1*%
%TO.N,Net-(R10-Pad1)*%
X199898000Y-121920000D03*
%TD*%
D13*
%TO.P,R11,2*%
%TO.N,Net-(R11-Pad2)*%
X197358000Y-115316000D03*
D14*
%TO.P,R11,1*%
%TO.N,GNDREF*%
X199898000Y-115316000D03*
%TD*%
D13*
%TO.P,R12,2*%
%TO.N,Net-(R11-Pad2)*%
X197358000Y-118618000D03*
D14*
%TO.P,R12,1*%
%TO.N,Net-(R10-Pad1)*%
X199898000Y-118618000D03*
%TD*%
D13*
%TO.P,R13,2*%
%TO.N,+5V*%
X213360000Y-143764000D03*
D14*
%TO.P,R13,1*%
%TO.N,Net-(Q1-Pad3)*%
X210820000Y-143764000D03*
%TD*%
D13*
%TO.P,R14,2*%
%TO.N,/MainBoard/MCU_PB0*%
X213360000Y-129413000D03*
D14*
%TO.P,R14,1*%
%TO.N,+5V*%
X210820000Y-129413000D03*
%TD*%
D13*
%TO.P,R16,2*%
%TO.N,/MainBoard/CLK_TRG*%
X213360000Y-118110000D03*
D14*
%TO.P,R16,1*%
%TO.N,Net-(D5-Pad1)*%
X210820000Y-118110000D03*
%TD*%
D13*
%TO.P,R18,2*%
%TO.N,Net-(Q1-Pad1)*%
X213360000Y-147066000D03*
D14*
%TO.P,R18,1*%
%TO.N,GNDREF*%
X210820000Y-147066000D03*
%TD*%
D13*
%TO.P,R19,2*%
%TO.N,Net-(Q3-Pad3)*%
X213360000Y-126111000D03*
D14*
%TO.P,R19,1*%
%TO.N,+5V*%
X210820000Y-126111000D03*
%TD*%
D13*
%TO.P,R20,2*%
%TO.N,/MainBoard/MCU_PB0*%
X213360000Y-132715000D03*
D14*
%TO.P,R20,1*%
%TO.N,Net-(Q3-Pad2)*%
X210820000Y-132715000D03*
%TD*%
D13*
%TO.P,R22,2*%
%TO.N,Net-(C12-Pad1)*%
X197358000Y-152019000D03*
D14*
%TO.P,R22,1*%
%TO.N,/MainBoard/MCU_PWM*%
X199898000Y-152019000D03*
%TD*%
D13*
%TO.P,R23,2*%
%TO.N,/MainBoard/OUT*%
X205994000Y-84963000D03*
D14*
%TO.P,R23,1*%
%TO.N,/MainBoard/LED_POS*%
X203454000Y-84963000D03*
%TD*%
D13*
%TO.P,R25,2*%
%TO.N,/MainBoard/OUT*%
X205994000Y-81407000D03*
D14*
%TO.P,R25,1*%
%TO.N,Net-(JP1-Pad1)*%
X203454000Y-81407000D03*
%TD*%
D13*
%TO.P,R26,2*%
%TO.N,/MainBoard/MCU_RESET*%
X197358000Y-135128000D03*
D14*
%TO.P,R26,1*%
%TO.N,+5V*%
X199898000Y-135128000D03*
%TD*%
D13*
%TO.P,R27,2*%
%TO.N,Net-(C12-Pad1)*%
X197358000Y-155321000D03*
D14*
%TO.P,R27,1*%
%TO.N,Net-(JP2-Pad1)*%
X199898000Y-155321000D03*
%TD*%
D13*
%TO.P,R28,2*%
%TO.N,GNDREF*%
X206248000Y-152527000D03*
D14*
%TO.P,R28,1*%
%TO.N,/MainBoard/MCU_PWM*%
X206248000Y-155067000D03*
%TD*%
D12*
%TO.P,J12,1*%
%TO.N,/MainBoard/MCU_PWM*%
X210439000Y-140970000D03*
D10*
%TO.P,J12,2*%
%TO.N,+5V*%
X212979000Y-140970000D03*
%TO.P,J12,3*%
%TO.N,/MainBoard/MCU_ADC1*%
X210439000Y-138430000D03*
%TO.P,J12,4*%
%TO.N,/MainBoard/MCU_PB0*%
X212979000Y-138430000D03*
%TO.P,J12,5*%
%TO.N,/MainBoard/MCU_RESET*%
X210439000Y-135890000D03*
%TO.P,J12,6*%
%TO.N,GNDREF*%
X212979000Y-135890000D03*
%TD*%
D11*
%TO.P,JP1,1*%
%TO.N,Net-(JP1-Pad1)*%
X210312000Y-81534000D03*
D10*
%TO.P,JP1,2*%
%TO.N,/MainBoard/OUT*%
X210312000Y-84074000D03*
%TD*%
D14*
%TO.P,C12,1*%
%TO.N,Net-(C12-Pad1)*%
X202819000Y-149098000D03*
%TO.P,C12,2*%
%TO.N,GNDREF*%
X197819000Y-149098000D03*
%TD*%
D15*
%TO.P,U3,2*%
%TO.N,GNDREF*%
X206248000Y-68326000D03*
%TO.P,U3,3*%
%TO.N,+12V*%
X206248000Y-65786000D03*
D16*
%TO.P,U3,1*%
%TO.N,+5V*%
X206248000Y-70866000D03*
%TD*%
D15*
%TO.P,U4,2*%
%TO.N,-12V*%
X206248000Y-75438000D03*
%TO.P,U4,3*%
%TO.N,-5V*%
X206248000Y-72898000D03*
D16*
%TO.P,U4,1*%
%TO.N,GNDREF*%
X206248000Y-77978000D03*
%TD*%
D14*
%TO.P,C4,2*%
%TO.N,GNDREF*%
X198120000Y-75986000D03*
%TO.P,C4,1*%
%TO.N,+5V*%
X198120000Y-78486000D03*
%TD*%
%TO.P,C10,2*%
%TO.N,GNDREF*%
X203748000Y-135255000D03*
%TO.P,C10,1*%
%TO.N,+5V*%
X206248000Y-135255000D03*
%TD*%
%TO.P,C9,2*%
%TO.N,-12V*%
X213360000Y-108371000D03*
%TO.P,C9,1*%
%TO.N,GNDREF*%
X213360000Y-110871000D03*
%TD*%
%TO.P,C8,2*%
%TO.N,GNDREF*%
X198374000Y-110831000D03*
%TO.P,C8,1*%
%TO.N,+12V*%
X198374000Y-108331000D03*
%TD*%
%TO.P,C6,2*%
%TO.N,-5V*%
X202057000Y-78420600D03*
%TO.P,C6,1*%
%TO.N,GNDREF*%
X202057000Y-75920600D03*
%TD*%
D17*
%TO.P,D11,2*%
%TO.N,-12V*%
X213868000Y-62992000D03*
D18*
%TO.P,D11,1*%
%TO.N,Net-(D11-Pad1)*%
X206248000Y-62992000D03*
%TD*%
%TO.P,D10,1*%
%TO.N,+12V*%
X213868000Y-59563000D03*
D17*
%TO.P,D10,2*%
%TO.N,Net-(D10-Pad2)*%
X206248000Y-59563000D03*
%TD*%
D12*
%TO.P,C2,1*%
%TO.N,GNDREF*%
X211836000Y-74168000D03*
D14*
%TO.P,C2,2*%
%TO.N,-12V*%
X211836000Y-76668000D03*
%TD*%
D12*
%TO.P,C1,1*%
%TO.N,+12V*%
X211836000Y-69596000D03*
D14*
%TO.P,C1,2*%
%TO.N,GNDREF*%
X211836000Y-67096000D03*
%TD*%
D19*
%TO.P,U2,14*%
%TO.N,/MainBoard/OUT*%
X209550000Y-96520000D03*
%TO.P,U2,7*%
%TO.N,Net-(R10-Pad1)*%
X201930000Y-111760000D03*
%TO.P,U2,13*%
%TO.N,Net-(JP1-Pad1)*%
X209550000Y-99060000D03*
%TO.P,U2,6*%
%TO.N,Net-(R11-Pad2)*%
X201930000Y-109220000D03*
%TO.P,U2,12*%
%TO.N,Net-(C12-Pad1)*%
X209550000Y-101600000D03*
%TO.P,U2,5*%
%TO.N,/MainBoard/P2_AVG*%
X201930000Y-106680000D03*
%TO.P,U2,11*%
%TO.N,-12V*%
X209550000Y-104140000D03*
%TO.P,U2,4*%
%TO.N,+12V*%
X201930000Y-104140000D03*
%TO.P,U2,10*%
%TO.N,/MainBoard/P1_AVG*%
X209550000Y-106680000D03*
%TO.P,U2,3*%
%TO.N,GNDREF*%
X201930000Y-101600000D03*
%TO.P,U2,9*%
%TO.N,Net-(R5-Pad2)*%
X209550000Y-109220000D03*
%TO.P,U2,2*%
%TO.N,/MainBoard/LED_POS*%
X201930000Y-99060000D03*
%TO.P,U2,8*%
%TO.N,Net-(R4-Pad1)*%
X209550000Y-111760000D03*
D20*
%TO.P,U2,1*%
%TO.N,/MainBoard/LED_NEG*%
X201930000Y-96520000D03*
%TD*%
%TO.P,U1,1*%
%TO.N,/MainBoard/MCU_RESET*%
X197866000Y-138430000D03*
D19*
%TO.P,U1,5*%
%TO.N,/MainBoard/MCU_PB0*%
X205486000Y-146050000D03*
%TO.P,U1,2*%
%TO.N,/MainBoard/MCU_ADC3*%
X197866000Y-140970000D03*
%TO.P,U1,6*%
%TO.N,/MainBoard/MCU_PWM*%
X205486000Y-143510000D03*
%TO.P,U1,3*%
%TO.N,/MainBoard/MCU_ADC2*%
X197866000Y-143510000D03*
%TO.P,U1,7*%
%TO.N,/MainBoard/MCU_ADC1*%
X205486000Y-140970000D03*
%TO.P,U1,4*%
%TO.N,GNDREF*%
X197866000Y-146050000D03*
%TO.P,U1,8*%
%TO.N,+5V*%
X205486000Y-138430000D03*
%TD*%
D10*
%TO.P,J9,10*%
%TO.N,Net-(D11-Pad1)*%
X198374000Y-69850000D03*
%TO.P,J9,9*%
X200914000Y-69850000D03*
%TO.P,J9,8*%
%TO.N,GNDREF*%
X198374000Y-67310000D03*
%TO.P,J9,7*%
X200914000Y-67310000D03*
%TO.P,J9,6*%
X198374000Y-64770000D03*
%TO.P,J9,5*%
X200914000Y-64770000D03*
%TO.P,J9,4*%
X198374000Y-62230000D03*
%TO.P,J9,3*%
X200914000Y-62230000D03*
%TO.P,J9,2*%
%TO.N,Net-(D10-Pad2)*%
X198374000Y-59690000D03*
D11*
%TO.P,J9,1*%
X200914000Y-59690000D03*
%TD*%
D15*
%TO.P,Q1,2*%
%TO.N,Net-(D5-Pad1)*%
X211582000Y-150876000D03*
%TO.P,Q1,3*%
%TO.N,Net-(Q1-Pad3)*%
X209042000Y-150876000D03*
D16*
%TO.P,Q1,1*%
%TO.N,Net-(Q1-Pad1)*%
X214122000Y-150876000D03*
%TD*%
D15*
%TO.P,Q2,2*%
%TO.N,Net-(Q1-Pad3)*%
X211582000Y-155702000D03*
%TO.P,Q2,3*%
%TO.N,/MainBoard/MCU_PB0*%
X209042000Y-155702000D03*
D16*
%TO.P,Q2,1*%
%TO.N,Net-(Q1-Pad1)*%
X214122000Y-155702000D03*
%TD*%
D15*
%TO.P,Q3,2*%
%TO.N,Net-(Q3-Pad2)*%
X210947000Y-122453400D03*
%TO.P,Q3,3*%
%TO.N,Net-(Q3-Pad3)*%
X213487000Y-122453400D03*
D16*
%TO.P,Q3,1*%
%TO.N,/MainBoard/CLK_LED*%
X208407000Y-122453400D03*
%TD*%
D21*
%TO.N,+12V*%
X200406000Y-93599000D03*
%TO.N,+5V*%
X203073000Y-94107000D03*
X203708000Y-126873000D03*
%TO.N,-12V*%
X209550000Y-94107000D03*
%TO.N,Net-(C12-Pad1)*%
X207645000Y-147320000D03*
X208918584Y-135547001D03*
X208280000Y-125222000D03*
X207391000Y-117094000D03*
%TO.N,/MainBoard/MCU_ADC2*%
X200914000Y-137668000D03*
%TO.N,/MainBoard/MCU_ADC1*%
X207772000Y-137795000D03*
X207772000Y-135763000D03*
%TO.N,Net-(JP1-Pad1)*%
X208153000Y-89535000D03*
%TO.N,/MainBoard/MCU_PB0*%
X207841882Y-141293882D03*
%TO.N,/MainBoard/MCU_ADC3*%
X198628000Y-120269000D03*
X197231000Y-113411000D03*
X198755000Y-133477000D03*
%TO.N,Net-(R5-Pad2)*%
X206756000Y-109220000D03*
%TO.N,/MainBoard/LED_POS*%
X201803000Y-87884000D03*
%TO.N,/MainBoard/CLK_LED*%
X211516540Y-106872460D03*
X211455000Y-110490000D03*
%TD*%
D22*
%TO.N,+12V*%
X199771000Y-94234000D02*
X200406000Y-93599000D01*
X198374000Y-108331000D02*
X199771000Y-106934000D01*
X201930000Y-104140000D02*
X199771000Y-104140000D01*
X199771000Y-104140000D02*
X199771000Y-94234000D01*
X199771000Y-106934000D02*
X199771000Y-104140000D01*
D23*
%TO.N,GNDREF*%
X213487000Y-97282000D02*
X213487000Y-94742000D01*
X213487000Y-92202000D02*
X213487000Y-94742000D01*
X198185400Y-75920600D02*
X198120000Y-75986000D01*
X202057000Y-75920600D02*
X198185400Y-75920600D01*
D22*
X200914000Y-67310000D02*
X200914000Y-64770000D01*
X200914000Y-64770000D02*
X200914000Y-62230000D01*
X200914000Y-62230000D02*
X198374000Y-62230000D01*
X198374000Y-62230000D02*
X198374000Y-64770000D01*
X198374000Y-64770000D02*
X198374000Y-67310000D01*
X198374000Y-64770000D02*
X200914000Y-64770000D01*
X198374000Y-67310000D02*
X200914000Y-67310000D01*
D24*
X213360000Y-111277436D02*
X213360000Y-110871000D01*
X210820000Y-114935000D02*
X210820000Y-113817436D01*
X210820000Y-113817436D02*
X213360000Y-111277436D01*
D23*
X213487000Y-92202000D02*
X208788000Y-92202000D01*
D24*
X197866000Y-149051000D02*
X197819000Y-149098000D01*
X197866000Y-146050000D02*
X197866000Y-149051000D01*
X203708000Y-135215000D02*
X203748000Y-135255000D01*
D22*
X208038997Y-133565999D02*
X208749999Y-134277001D01*
D25*
X211366001Y-134277001D02*
X209296000Y-134277001D01*
X212979000Y-135890000D02*
X211366001Y-134277001D01*
D22*
X208749999Y-134277001D02*
X209296000Y-134277001D01*
D26*
X201803000Y-115316000D02*
X201803000Y-131826000D01*
D22*
X208038997Y-133565999D02*
X203796999Y-133565999D01*
D24*
X203708000Y-133477000D02*
X203708000Y-135215000D01*
D22*
X203796999Y-133565999D02*
X203708000Y-133477000D01*
D24*
X203708000Y-131826000D02*
X203708000Y-133477000D01*
X199898000Y-131826000D02*
X203708000Y-131826000D01*
D23*
X203708000Y-115316000D02*
X200063209Y-115316000D01*
X204724000Y-77978000D02*
X206248000Y-77978000D01*
X203962000Y-77216000D02*
X204724000Y-77978000D01*
X202946000Y-67310000D02*
X203962000Y-68326000D01*
X200914000Y-67310000D02*
X202946000Y-67310000D01*
X207645000Y-77978000D02*
X206248000Y-77978000D01*
X208191999Y-78524999D02*
X207645000Y-77978000D01*
X208191999Y-85509999D02*
X208191999Y-78524999D01*
X210058000Y-87376000D02*
X208191999Y-85509999D01*
X210058000Y-90932000D02*
X210058000Y-87376000D01*
X208788000Y-92202000D02*
X210058000Y-90932000D01*
X210820000Y-114935000D02*
X209042000Y-114935000D01*
X203708000Y-114046000D02*
X203708000Y-115316000D01*
X204851000Y-107442000D02*
X204851000Y-112903000D01*
X204851000Y-112903000D02*
X203708000Y-114046000D01*
X206502000Y-105791000D02*
X204851000Y-107442000D01*
X208788000Y-92202000D02*
X206502000Y-94488000D01*
X207010000Y-112903000D02*
X204851000Y-112903000D01*
X209042000Y-114935000D02*
X207010000Y-112903000D01*
X206502000Y-101600000D02*
X201930000Y-101600000D01*
X206502000Y-94488000D02*
X206502000Y-101600000D01*
X206502000Y-101600000D02*
X206502000Y-105791000D01*
X203860400Y-75920600D02*
X203962000Y-75819000D01*
X202057000Y-75920600D02*
X203860400Y-75920600D01*
X203962000Y-75819000D02*
X203962000Y-77216000D01*
X203962000Y-68326000D02*
X203962000Y-75819000D01*
X206248000Y-68326000D02*
X203962000Y-68326000D01*
D24*
X199936209Y-113395223D02*
X199936209Y-115316000D01*
X198374000Y-111833014D02*
X199936209Y-113395223D01*
X198374000Y-110831000D02*
X198374000Y-111833014D01*
X208128559Y-148972999D02*
X208913001Y-148972999D01*
X208913001Y-148972999D02*
X210820000Y-147066000D01*
X206248000Y-152527000D02*
X206248000Y-150853558D01*
X206248000Y-150853558D02*
X206744779Y-150356779D01*
X206744779Y-150356779D02*
X208128559Y-148972999D01*
X202565000Y-138176000D02*
X202565000Y-146177000D01*
X202565000Y-138049000D02*
X202565000Y-138176000D01*
X203748000Y-136866000D02*
X202565000Y-138049000D01*
X203748000Y-135255000D02*
X203748000Y-136866000D01*
D26*
X206744779Y-150356779D02*
X202565000Y-146177000D01*
D24*
X202438000Y-146050000D02*
X202565000Y-146177000D01*
X197866000Y-146050000D02*
X202438000Y-146050000D01*
D23*
X209042000Y-67691000D02*
X209637000Y-67096000D01*
X209637000Y-67096000D02*
X211836000Y-67096000D01*
X211836000Y-74168000D02*
X209042000Y-71374000D01*
X206248000Y-68326000D02*
X208915000Y-68326000D01*
X209042000Y-68453000D02*
X209042000Y-67691000D01*
X208915000Y-68326000D02*
X209042000Y-68453000D01*
X209042000Y-71374000D02*
X209042000Y-68453000D01*
D22*
%TO.N,+5V*%
X197993000Y-89662000D02*
X198374000Y-89662000D01*
D27*
X212979000Y-143383000D02*
X213360000Y-143764000D01*
D28*
X212979000Y-140970000D02*
X212979000Y-142113000D01*
X213360000Y-142494000D02*
X213360000Y-143764000D01*
X212979000Y-142113000D02*
X213360000Y-142494000D01*
D29*
X213829801Y-130771801D02*
X214718801Y-131660801D01*
X212178801Y-130771801D02*
X213829801Y-130771801D01*
X214718801Y-139230199D02*
X212979000Y-140970000D01*
X214718801Y-131660801D02*
X214718801Y-139230199D01*
X210820000Y-129413000D02*
X212178801Y-130771801D01*
D26*
X198628000Y-89662000D02*
X203073000Y-94107000D01*
X197993000Y-89662000D02*
X198628000Y-89662000D01*
D22*
X210058000Y-126873000D02*
X210820000Y-126111000D01*
X206248000Y-136398000D02*
X206248000Y-135255000D01*
X205613000Y-138303000D02*
X205613000Y-137033000D01*
X205613000Y-137033000D02*
X206248000Y-136398000D01*
X205486000Y-138430000D02*
X205613000Y-138303000D01*
X210058000Y-126873000D02*
X206756000Y-126873000D01*
X206756000Y-126873000D02*
X203708000Y-126873000D01*
D26*
%TO.N,-12V*%
X208788000Y-75438000D02*
X206248000Y-75438000D01*
X211836000Y-76668000D02*
X210018000Y-76668000D01*
X210018000Y-76668000D02*
X208788000Y-75438000D01*
D29*
X209524600Y-104013000D02*
X209550000Y-104013000D01*
D28*
X213360000Y-108371000D02*
X213360000Y-107099462D01*
D22*
X209550000Y-104140000D02*
X210312000Y-104140000D01*
D28*
X211797538Y-105537000D02*
X211709000Y-105537000D01*
X213360000Y-107099462D02*
X211797538Y-105537000D01*
D22*
X211709000Y-105448462D02*
X211797538Y-105537000D01*
X209550000Y-104140000D02*
X211709000Y-104140000D01*
X211709000Y-104140000D02*
X211709000Y-105448462D01*
X210693000Y-94107000D02*
X209550000Y-94107000D01*
X211709000Y-95123000D02*
X210693000Y-94107000D01*
X211709000Y-104140000D02*
X211709000Y-95123000D01*
D26*
%TO.N,-5V*%
X206375000Y-73025000D02*
X206248000Y-72898000D01*
D28*
%TO.N,Net-(C12-Pad1)*%
X197358000Y-152019000D02*
X199263000Y-150114000D01*
X201803000Y-150114000D02*
X202819000Y-149098000D01*
X199263000Y-150114000D02*
X201803000Y-150114000D01*
D27*
X209675001Y-123826999D02*
X209675001Y-120651999D01*
X208280000Y-125222000D02*
X209675001Y-123826999D01*
X209675001Y-119378001D02*
X207391000Y-117094000D01*
X209675001Y-120651999D02*
X209675001Y-119378001D01*
X208915000Y-135550585D02*
X208915000Y-146050000D01*
X208915000Y-146050000D02*
X207645000Y-147320000D01*
X208918584Y-135547001D02*
X208915000Y-135550585D01*
D29*
%TO.N,/MainBoard/MCU_ADC2*%
X197866000Y-143510000D02*
X198120000Y-143510000D01*
D27*
X197866000Y-143510000D02*
X198628000Y-143510000D01*
X197866000Y-143510000D02*
X199771000Y-143510000D01*
X199771000Y-143510000D02*
X201168000Y-142113000D01*
X201168000Y-142113000D02*
X201168000Y-137922000D01*
X201168000Y-137922000D02*
X200914000Y-137668000D01*
%TO.N,/MainBoard/MCU_ADC1*%
X207772000Y-137795000D02*
X207772000Y-135763000D01*
D28*
%TO.N,Net-(JP1-Pad1)*%
X199390000Y-84709000D02*
X200152000Y-84709000D01*
X199390000Y-84709000D02*
X201422000Y-84709000D01*
X201422000Y-84709000D02*
X201422000Y-85598000D01*
X203835000Y-88011000D02*
X207391000Y-88011000D01*
X201422000Y-85598000D02*
X203835000Y-88011000D01*
X208153000Y-88773000D02*
X208153000Y-89535000D01*
X207391000Y-88011000D02*
X208153000Y-88773000D01*
X201422000Y-84709000D02*
X201422000Y-81788000D01*
X201803000Y-81407000D02*
X203454000Y-81407000D01*
X201422000Y-81788000D02*
X201803000Y-81407000D01*
D27*
%TO.N,Net-(Q1-Pad3)*%
X209042000Y-150876000D02*
X209042000Y-152019000D01*
X209042000Y-152019000D02*
X211582000Y-154559000D01*
X211582000Y-154559000D02*
X211582000Y-155702000D01*
%TO.N,Net-(Q1-Pad1)*%
X213614000Y-147066000D02*
X213614000Y-148463000D01*
X214122000Y-148971000D02*
X214122000Y-150876000D01*
X213614000Y-148463000D02*
X214122000Y-148971000D01*
%TO.N,/MainBoard/MCU_PB0*%
X207391000Y-146050000D02*
X205486000Y-146050000D01*
X207841882Y-145599118D02*
X207391000Y-146050000D01*
X207841882Y-141293882D02*
X207841882Y-145599118D01*
D25*
%TO.N,/MainBoard/MCU_PWM*%
X203454000Y-152273000D02*
X206248000Y-155067000D01*
X203073000Y-152273000D02*
X203454000Y-152273000D01*
D29*
%TO.N,/MainBoard/MCU_ADC3*%
X198640799Y-120256201D02*
X198628000Y-120269000D01*
X198640799Y-113931799D02*
X198640799Y-120256201D01*
X198120000Y-113411000D02*
X198640799Y-113931799D01*
X197231000Y-113411000D02*
X198120000Y-113411000D01*
D27*
X199472400Y-140970000D02*
X197866000Y-140970000D01*
X199898000Y-140544400D02*
X199472400Y-140970000D01*
X199898000Y-137160000D02*
X199898000Y-140544400D01*
X201549000Y-135890000D02*
X200660000Y-136779000D01*
X200660000Y-136779000D02*
X200279000Y-136779000D01*
X200279000Y-136779000D02*
X199898000Y-137160000D01*
X201041000Y-133477000D02*
X201549000Y-133985000D01*
X201549000Y-133985000D02*
X201549000Y-135890000D01*
X198755000Y-133477000D02*
X201041000Y-133477000D01*
D22*
%TO.N,/MainBoard/OUT*%
X213487000Y-87249000D02*
X213487000Y-89662000D01*
X210312000Y-84074000D02*
X213487000Y-87249000D01*
D27*
%TO.N,Net-(R5-Pad2)*%
X206756000Y-109220000D02*
X209550000Y-109220000D01*
D28*
%TO.N,/MainBoard/LED_POS*%
X204597000Y-92964000D02*
X201803000Y-90170000D01*
X204597000Y-98202600D02*
X204597000Y-92964000D01*
X203739600Y-99060000D02*
X204597000Y-98202600D01*
X201930000Y-99060000D02*
X203739600Y-99060000D01*
X201803000Y-90170000D02*
X201803000Y-87884000D01*
D27*
%TO.N,/MainBoard/CLK_LED*%
X211455000Y-106934000D02*
X211516540Y-106872460D01*
X211455000Y-110490000D02*
X211455000Y-106934000D01*
%TD*%
M02*
