G04 #@! TF.GenerationSoftware,KiCad,Pcbnew,(5.1.9-0-10_14)*
G04 #@! TF.CreationDate,2021-02-07T03:37:40-06:00*
G04 #@! TF.ProjectId,JNTUB_board2,4a4e5455-425f-4626-9f61-7264322e6b69,rev?*
G04 #@! TF.SameCoordinates,Original*
G04 #@! TF.FileFunction,Legend,Top*
G04 #@! TF.FilePolarity,Positive*
%FSLAX46Y46*%
G04 Gerber Fmt 4.6, Leading zero omitted, Abs format (unit mm)*
G04 Created by KiCad (PCBNEW (5.1.9-0-10_14)) date 2021-02-07 03:37:40*
%MOMM*%
%LPD*%
G01*
G04 APERTURE LIST*
%ADD10C,0.120000*%
%ADD11C,0.100000*%
%ADD12C,0.150000*%
G04 APERTURE END LIST*
D10*
G04 #@! TO.C,R22*
X205018000Y-152019000D02*
G75*
G03*
X205018000Y-152019000I-1310000J0D01*
G01*
D11*
G36*
X205359000Y-152209500D02*
G01*
X204597000Y-152209500D01*
X204597000Y-151828500D01*
X205359000Y-151828500D01*
X205359000Y-152209500D01*
G37*
X205359000Y-152209500D02*
X204597000Y-152209500D01*
X204597000Y-151828500D01*
X205359000Y-151828500D01*
X205359000Y-152209500D01*
D10*
G04 #@! TO.C,R26*
X201208000Y-135128000D02*
G75*
G03*
X201208000Y-135128000I-1310000J0D01*
G01*
D11*
G36*
X198247000Y-134937500D02*
G01*
X199009000Y-134937500D01*
X199009000Y-135318500D01*
X198247000Y-135318500D01*
X198247000Y-134937500D01*
G37*
X198247000Y-134937500D02*
X199009000Y-134937500D01*
X199009000Y-135318500D01*
X198247000Y-135318500D01*
X198247000Y-134937500D01*
D10*
G04 #@! TO.C,R24*
X200700000Y-81407000D02*
G75*
G03*
X200700000Y-81407000I-1310000J0D01*
G01*
D11*
G36*
X199199500Y-83058000D02*
G01*
X199199500Y-82296000D01*
X199580500Y-82296000D01*
X199580500Y-83058000D01*
X199199500Y-83058000D01*
G37*
X199199500Y-83058000D02*
X199199500Y-82296000D01*
X199580500Y-82296000D01*
X199580500Y-83058000D01*
X199199500Y-83058000D01*
D10*
G04 #@! TO.C,R2*
X205018000Y-125222000D02*
G75*
G03*
X205018000Y-125222000I-1310000J0D01*
G01*
D11*
G36*
X205359000Y-125412500D02*
G01*
X204597000Y-125412500D01*
X204597000Y-125031500D01*
X205359000Y-125031500D01*
X205359000Y-125412500D01*
G37*
X205359000Y-125412500D02*
X204597000Y-125412500D01*
X204597000Y-125031500D01*
X205359000Y-125031500D01*
X205359000Y-125412500D01*
D10*
G04 #@! TO.C,R4*
X205018000Y-121920000D02*
G75*
G03*
X205018000Y-121920000I-1310000J0D01*
G01*
D11*
G36*
X205359000Y-122110500D02*
G01*
X204597000Y-122110500D01*
X204597000Y-121729500D01*
X205359000Y-121729500D01*
X205359000Y-122110500D01*
G37*
X205359000Y-122110500D02*
X204597000Y-122110500D01*
X204597000Y-121729500D01*
X205359000Y-121729500D01*
X205359000Y-122110500D01*
D10*
G04 #@! TO.C,R5*
X205018000Y-115316000D02*
G75*
G03*
X205018000Y-115316000I-1310000J0D01*
G01*
D11*
G36*
X205359000Y-115506500D02*
G01*
X204597000Y-115506500D01*
X204597000Y-115125500D01*
X205359000Y-115125500D01*
X205359000Y-115506500D01*
G37*
X205359000Y-115506500D02*
X204597000Y-115506500D01*
X204597000Y-115125500D01*
X205359000Y-115125500D01*
X205359000Y-115506500D01*
D10*
G04 #@! TO.C,R6*
X205018000Y-118618000D02*
G75*
G03*
X205018000Y-118618000I-1310000J0D01*
G01*
D11*
G36*
X205359000Y-118808500D02*
G01*
X204597000Y-118808500D01*
X204597000Y-118427500D01*
X205359000Y-118427500D01*
X205359000Y-118808500D01*
G37*
X205359000Y-118808500D02*
X204597000Y-118808500D01*
X204597000Y-118427500D01*
X205359000Y-118427500D01*
X205359000Y-118808500D01*
D10*
G04 #@! TO.C,R8*
X201208000Y-125222000D02*
G75*
G03*
X201208000Y-125222000I-1310000J0D01*
G01*
D11*
G36*
X198247000Y-125031500D02*
G01*
X199009000Y-125031500D01*
X199009000Y-125412500D01*
X198247000Y-125412500D01*
X198247000Y-125031500D01*
G37*
X198247000Y-125031500D02*
X199009000Y-125031500D01*
X199009000Y-125412500D01*
X198247000Y-125412500D01*
X198247000Y-125031500D01*
D10*
G04 #@! TO.C,R10*
X201208000Y-121920000D02*
G75*
G03*
X201208000Y-121920000I-1310000J0D01*
G01*
D11*
G36*
X198247000Y-121729500D02*
G01*
X199009000Y-121729500D01*
X199009000Y-122110500D01*
X198247000Y-122110500D01*
X198247000Y-121729500D01*
G37*
X198247000Y-121729500D02*
X199009000Y-121729500D01*
X199009000Y-122110500D01*
X198247000Y-122110500D01*
X198247000Y-121729500D01*
D10*
G04 #@! TO.C,R11*
X201208000Y-115316000D02*
G75*
G03*
X201208000Y-115316000I-1310000J0D01*
G01*
D11*
G36*
X198247000Y-115125500D02*
G01*
X199009000Y-115125500D01*
X199009000Y-115506500D01*
X198247000Y-115506500D01*
X198247000Y-115125500D01*
G37*
X198247000Y-115125500D02*
X199009000Y-115125500D01*
X199009000Y-115506500D01*
X198247000Y-115506500D01*
X198247000Y-115125500D01*
D10*
G04 #@! TO.C,R12*
X201208000Y-118618000D02*
G75*
G03*
X201208000Y-118618000I-1310000J0D01*
G01*
D11*
G36*
X198247000Y-118427500D02*
G01*
X199009000Y-118427500D01*
X199009000Y-118808500D01*
X198247000Y-118808500D01*
X198247000Y-118427500D01*
G37*
X198247000Y-118427500D02*
X199009000Y-118427500D01*
X199009000Y-118808500D01*
X198247000Y-118808500D01*
X198247000Y-118427500D01*
D10*
G04 #@! TO.C,R13*
X212130000Y-143764000D02*
G75*
G03*
X212130000Y-143764000I-1310000J0D01*
G01*
D11*
G36*
X212471000Y-143954500D02*
G01*
X211709000Y-143954500D01*
X211709000Y-143573500D01*
X212471000Y-143573500D01*
X212471000Y-143954500D01*
G37*
X212471000Y-143954500D02*
X211709000Y-143954500D01*
X211709000Y-143573500D01*
X212471000Y-143573500D01*
X212471000Y-143954500D01*
D10*
G04 #@! TO.C,R14*
X212130000Y-129413000D02*
G75*
G03*
X212130000Y-129413000I-1310000J0D01*
G01*
D11*
G36*
X212471000Y-129603500D02*
G01*
X211709000Y-129603500D01*
X211709000Y-129222500D01*
X212471000Y-129222500D01*
X212471000Y-129603500D01*
G37*
X212471000Y-129603500D02*
X211709000Y-129603500D01*
X211709000Y-129222500D01*
X212471000Y-129222500D01*
X212471000Y-129603500D01*
D10*
G04 #@! TO.C,R16*
X212130000Y-118110000D02*
G75*
G03*
X212130000Y-118110000I-1310000J0D01*
G01*
D11*
G36*
X212471000Y-118300500D02*
G01*
X211709000Y-118300500D01*
X211709000Y-117919500D01*
X212471000Y-117919500D01*
X212471000Y-118300500D01*
G37*
X212471000Y-118300500D02*
X211709000Y-118300500D01*
X211709000Y-117919500D01*
X212471000Y-117919500D01*
X212471000Y-118300500D01*
D10*
G04 #@! TO.C,R18*
X212130000Y-147066000D02*
G75*
G03*
X212130000Y-147066000I-1310000J0D01*
G01*
D11*
G36*
X212471000Y-147256500D02*
G01*
X211709000Y-147256500D01*
X211709000Y-146875500D01*
X212471000Y-146875500D01*
X212471000Y-147256500D01*
G37*
X212471000Y-147256500D02*
X211709000Y-147256500D01*
X211709000Y-146875500D01*
X212471000Y-146875500D01*
X212471000Y-147256500D01*
D10*
G04 #@! TO.C,R19*
X212130000Y-126111000D02*
G75*
G03*
X212130000Y-126111000I-1310000J0D01*
G01*
D11*
G36*
X212471000Y-126301500D02*
G01*
X211709000Y-126301500D01*
X211709000Y-125920500D01*
X212471000Y-125920500D01*
X212471000Y-126301500D01*
G37*
X212471000Y-126301500D02*
X211709000Y-126301500D01*
X211709000Y-125920500D01*
X212471000Y-125920500D01*
X212471000Y-126301500D01*
D10*
G04 #@! TO.C,R20*
X212130000Y-132715000D02*
G75*
G03*
X212130000Y-132715000I-1310000J0D01*
G01*
D11*
G36*
X212471000Y-132905500D02*
G01*
X211709000Y-132905500D01*
X211709000Y-132524500D01*
X212471000Y-132524500D01*
X212471000Y-132905500D01*
G37*
X212471000Y-132905500D02*
X211709000Y-132905500D01*
X211709000Y-132524500D01*
X212471000Y-132524500D01*
X212471000Y-132905500D01*
G04 #@! TO.C,R23*
G36*
X205105000Y-85153500D02*
G01*
X204343000Y-85153500D01*
X204343000Y-84772500D01*
X205105000Y-84772500D01*
X205105000Y-85153500D01*
G37*
X205105000Y-85153500D02*
X204343000Y-85153500D01*
X204343000Y-84772500D01*
X205105000Y-84772500D01*
X205105000Y-85153500D01*
D10*
X204764000Y-84963000D02*
G75*
G03*
X204764000Y-84963000I-1310000J0D01*
G01*
G04 #@! TO.C,R25*
X204764000Y-81407000D02*
G75*
G03*
X204764000Y-81407000I-1310000J0D01*
G01*
D11*
G36*
X205105000Y-81597500D02*
G01*
X204343000Y-81597500D01*
X204343000Y-81216500D01*
X205105000Y-81216500D01*
X205105000Y-81597500D01*
G37*
X205105000Y-81597500D02*
X204343000Y-81597500D01*
X204343000Y-81216500D01*
X205105000Y-81216500D01*
X205105000Y-81597500D01*
D10*
G04 #@! TO.C,R27*
X205018000Y-155321000D02*
G75*
G03*
X205018000Y-155321000I-1310000J0D01*
G01*
D11*
G36*
X205359000Y-155511500D02*
G01*
X204597000Y-155511500D01*
X204597000Y-155130500D01*
X205359000Y-155130500D01*
X205359000Y-155511500D01*
G37*
X205359000Y-155511500D02*
X204597000Y-155511500D01*
X204597000Y-155130500D01*
X205359000Y-155130500D01*
X205359000Y-155511500D01*
G04 #@! TO.C,R28*
G36*
X197929500Y-153416000D02*
G01*
X197929500Y-154178000D01*
X197548500Y-154178000D01*
X197548500Y-153416000D01*
X197929500Y-153416000D01*
G37*
X197929500Y-153416000D02*
X197929500Y-154178000D01*
X197548500Y-154178000D01*
X197548500Y-153416000D01*
X197929500Y-153416000D01*
D10*
X199049000Y-155067000D02*
G75*
G03*
X199049000Y-155067000I-1310000J0D01*
G01*
D11*
G04 #@! TO.C,D5*
G36*
X214249000Y-113665000D02*
G01*
X214566500Y-113665000D01*
X214566500Y-116205000D01*
X214249000Y-116205000D01*
X214249000Y-113665000D01*
G37*
X214249000Y-113665000D02*
X214566500Y-113665000D01*
X214566500Y-116205000D01*
X214249000Y-116205000D01*
X214249000Y-113665000D01*
D12*
X209550000Y-113665000D02*
X209550000Y-116205000D01*
X214566500Y-113665000D02*
X209550000Y-113665000D01*
X214566500Y-116205000D02*
X214566500Y-113665000D01*
X209550000Y-116205000D02*
X214566500Y-116205000D01*
X211836000Y-115252500D02*
X211836000Y-114617500D01*
X211836000Y-114617500D02*
X212280500Y-114935000D01*
X212280500Y-115252500D02*
X212280500Y-114617500D01*
X212280500Y-114935000D02*
X211836000Y-115252500D01*
D11*
G04 #@! TO.C,D4*
G36*
X196469000Y-133096000D02*
G01*
X196151500Y-133096000D01*
X196151500Y-130556000D01*
X196469000Y-130556000D01*
X196469000Y-133096000D01*
G37*
X196469000Y-133096000D02*
X196151500Y-133096000D01*
X196151500Y-130556000D01*
X196469000Y-130556000D01*
X196469000Y-133096000D01*
D12*
X201168000Y-133096000D02*
X201168000Y-130556000D01*
X196151500Y-133096000D02*
X201168000Y-133096000D01*
X196151500Y-130556000D02*
X196151500Y-133096000D01*
X201168000Y-130556000D02*
X196151500Y-130556000D01*
X198882000Y-131508500D02*
X198882000Y-132143500D01*
X198882000Y-132143500D02*
X198437500Y-131826000D01*
X198437500Y-131508500D02*
X198437500Y-132143500D01*
X198437500Y-131826000D02*
X198882000Y-131508500D01*
D11*
G04 #@! TO.C,D2*
G36*
X207137000Y-130556000D02*
G01*
X207454500Y-130556000D01*
X207454500Y-133096000D01*
X207137000Y-133096000D01*
X207137000Y-130556000D01*
G37*
X207137000Y-130556000D02*
X207454500Y-130556000D01*
X207454500Y-133096000D01*
X207137000Y-133096000D01*
X207137000Y-130556000D01*
D12*
X202438000Y-130556000D02*
X202438000Y-133096000D01*
X207454500Y-130556000D02*
X202438000Y-130556000D01*
X207454500Y-133096000D02*
X207454500Y-130556000D01*
X202438000Y-133096000D02*
X207454500Y-133096000D01*
X204724000Y-132143500D02*
X204724000Y-131508500D01*
X204724000Y-131508500D02*
X205168500Y-131826000D01*
X205168500Y-132143500D02*
X205168500Y-131508500D01*
X205168500Y-131826000D02*
X204724000Y-132143500D01*
G04 #@! TO.C,D1*
X204787500Y-128524000D02*
X205232000Y-128206500D01*
X205232000Y-128841500D02*
X204787500Y-128524000D01*
X205232000Y-128206500D02*
X205232000Y-128841500D01*
X204787500Y-128206500D02*
X204787500Y-128841500D01*
D11*
G36*
X202755500Y-129794000D02*
G01*
X202311000Y-129794000D01*
X202311000Y-127254000D01*
X202755500Y-127254000D01*
X202755500Y-129794000D01*
G37*
X202755500Y-129794000D02*
X202311000Y-129794000D01*
X202311000Y-127254000D01*
X202755500Y-127254000D01*
X202755500Y-129794000D01*
D12*
X202311000Y-129794000D02*
X202311000Y-127254000D01*
X207264000Y-129794000D02*
X202311000Y-129794000D01*
X207264000Y-127254000D02*
X207264000Y-129794000D01*
X202311000Y-127254000D02*
X207264000Y-127254000D01*
G04 #@! TO.C,D3*
X198818500Y-128524000D02*
X198374000Y-128841500D01*
X198374000Y-128206500D02*
X198818500Y-128524000D01*
X198374000Y-128841500D02*
X198374000Y-128206500D01*
X198818500Y-128841500D02*
X198818500Y-128206500D01*
D11*
G36*
X200850500Y-127254000D02*
G01*
X201295000Y-127254000D01*
X201295000Y-129794000D01*
X200850500Y-129794000D01*
X200850500Y-127254000D01*
G37*
X200850500Y-127254000D02*
X201295000Y-127254000D01*
X201295000Y-129794000D01*
X200850500Y-129794000D01*
X200850500Y-127254000D01*
D12*
X201295000Y-127254000D02*
X201295000Y-129794000D01*
X196342000Y-127254000D02*
X201295000Y-127254000D01*
X196342000Y-129794000D02*
X196342000Y-127254000D01*
X201295000Y-129794000D02*
X196342000Y-129794000D01*
D10*
G04 #@! TO.C,J10*
X196663000Y-106232000D02*
X199323000Y-106232000D01*
X196659500Y-88328500D02*
X196663000Y-106232000D01*
X199326500Y-88328500D02*
X199323000Y-106232000D01*
X196663000Y-88328500D02*
X199323000Y-88328500D01*
G04 #@! TO.C,J11*
X212157000Y-88328500D02*
X214817000Y-88328500D01*
X214820500Y-88328500D02*
X214817000Y-106232000D01*
X212157000Y-88328500D02*
X212157000Y-106232000D01*
X212157000Y-106232000D02*
X214817000Y-106232000D01*
D12*
G04 #@! TO.C,H2*
X208940000Y-90678000D02*
G75*
G03*
X208940000Y-90678000I-3200000J0D01*
G01*
D10*
G04 #@! TO.C,C12*
X205958000Y-150108000D02*
X201538000Y-150108000D01*
X205958000Y-148088000D02*
X201538000Y-148088000D01*
X205958000Y-150108000D02*
X205958000Y-150094000D01*
X205958000Y-148102000D02*
X205958000Y-148088000D01*
X201538000Y-150108000D02*
X201538000Y-150094000D01*
X201538000Y-148102000D02*
X201538000Y-148088000D01*
G04 #@! TO.C,U3*
X208098000Y-70126000D02*
X208098000Y-66526000D01*
X207370795Y-70650184D02*
G75*
G03*
X208098000Y-70126000I-1122795J2324184D01*
G01*
X205149193Y-70682400D02*
G75*
G02*
X203648000Y-68326000I1098807J2356400D01*
G01*
X205149193Y-65969600D02*
G75*
G03*
X203648000Y-68326000I1098807J-2356400D01*
G01*
X207370795Y-66001816D02*
G75*
G02*
X208098000Y-66526000I-1122795J-2324184D01*
G01*
G04 #@! TO.C,U4*
X203636000Y-73765000D02*
X203636000Y-77365000D01*
X204363205Y-73240816D02*
G75*
G03*
X203636000Y-73765000I1122795J-2324184D01*
G01*
X206584807Y-73208600D02*
G75*
G02*
X208086000Y-75565000I-1098807J-2356400D01*
G01*
X206584807Y-77921400D02*
G75*
G03*
X208086000Y-75565000I-1098807J2356400D01*
G01*
X204363205Y-77889184D02*
G75*
G02*
X203636000Y-77365000I1122795J2324184D01*
G01*
G04 #@! TO.C,C4*
X199116000Y-75636000D02*
X199180000Y-75636000D01*
X197060000Y-75636000D02*
X197124000Y-75636000D01*
X199116000Y-78756000D02*
X199180000Y-78756000D01*
X197060000Y-78756000D02*
X197124000Y-78756000D01*
X199180000Y-78756000D02*
X199180000Y-75636000D01*
X197060000Y-78756000D02*
X197060000Y-75636000D01*
G04 #@! TO.C,C10*
X203438000Y-134259000D02*
X203438000Y-134195000D01*
X203438000Y-136315000D02*
X203438000Y-136251000D01*
X206558000Y-134259000D02*
X206558000Y-134195000D01*
X206558000Y-136315000D02*
X206558000Y-136251000D01*
X206558000Y-134195000D02*
X203438000Y-134195000D01*
X206558000Y-136315000D02*
X203438000Y-136315000D01*
G04 #@! TO.C,C9*
X214356000Y-108061000D02*
X214420000Y-108061000D01*
X212300000Y-108061000D02*
X212364000Y-108061000D01*
X214356000Y-111181000D02*
X214420000Y-111181000D01*
X212300000Y-111181000D02*
X212364000Y-111181000D01*
X214420000Y-111181000D02*
X214420000Y-108061000D01*
X212300000Y-111181000D02*
X212300000Y-108061000D01*
G04 #@! TO.C,C8*
X197378000Y-111141000D02*
X197314000Y-111141000D01*
X199434000Y-111141000D02*
X199370000Y-111141000D01*
X197378000Y-108021000D02*
X197314000Y-108021000D01*
X199434000Y-108021000D02*
X199370000Y-108021000D01*
X197314000Y-108021000D02*
X197314000Y-111141000D01*
X199434000Y-108021000D02*
X199434000Y-111141000D01*
G04 #@! TO.C,C6*
X201061000Y-78730600D02*
X200997000Y-78730600D01*
X203117000Y-78730600D02*
X203053000Y-78730600D01*
X201061000Y-75610600D02*
X200997000Y-75610600D01*
X203117000Y-75610600D02*
X203053000Y-75610600D01*
X200997000Y-75610600D02*
X200997000Y-78730600D01*
X203117000Y-75610600D02*
X203117000Y-78730600D01*
G04 #@! TO.C,D11*
X207398000Y-61712000D02*
X207398000Y-61582000D01*
X207398000Y-61582000D02*
X212718000Y-61582000D01*
X212718000Y-61582000D02*
X212718000Y-61712000D01*
X207398000Y-64272000D02*
X207398000Y-64402000D01*
X207398000Y-64402000D02*
X212718000Y-64402000D01*
X212718000Y-64402000D02*
X212718000Y-64272000D01*
X208238000Y-61582000D02*
X208238000Y-64402000D01*
G04 #@! TO.C,D10*
X211878000Y-60973000D02*
X211878000Y-58153000D01*
X207398000Y-58153000D02*
X207398000Y-58283000D01*
X212718000Y-58153000D02*
X207398000Y-58153000D01*
X212718000Y-58283000D02*
X212718000Y-58153000D01*
X207398000Y-60973000D02*
X207398000Y-60843000D01*
X212718000Y-60973000D02*
X207398000Y-60973000D01*
X212718000Y-60843000D02*
X212718000Y-60973000D01*
G04 #@! TO.C,C2*
X212486000Y-72568000D02*
X211186000Y-72568000D01*
X211836000Y-71968000D02*
X211836000Y-73168000D01*
X212304000Y-78619000D02*
X211368000Y-78619000D01*
X212512000Y-78579000D02*
X211160000Y-78579000D01*
X212670000Y-78539000D02*
X211002000Y-78539000D01*
X212802000Y-78499000D02*
X210870000Y-78499000D01*
X212917000Y-78459000D02*
X210755000Y-78459000D01*
X213020000Y-78419000D02*
X210652000Y-78419000D01*
X213114000Y-78379000D02*
X210558000Y-78379000D01*
X213200000Y-78339000D02*
X210472000Y-78339000D01*
X213281000Y-78299000D02*
X210391000Y-78299000D01*
X213356000Y-78259000D02*
X210316000Y-78259000D01*
X213427000Y-78219000D02*
X210245000Y-78219000D01*
X213494000Y-78179000D02*
X210178000Y-78179000D01*
X213557000Y-78139000D02*
X210115000Y-78139000D01*
X213617000Y-78099000D02*
X210055000Y-78099000D01*
X213675000Y-78059000D02*
X209997000Y-78059000D01*
X213730000Y-78019000D02*
X209942000Y-78019000D01*
X213782000Y-77979000D02*
X209890000Y-77979000D01*
X213833000Y-77939000D02*
X209839000Y-77939000D01*
X213881000Y-77899000D02*
X209791000Y-77899000D01*
X213928000Y-77859000D02*
X209744000Y-77859000D01*
X213973000Y-77819000D02*
X209699000Y-77819000D01*
X214016000Y-77779000D02*
X209656000Y-77779000D01*
X214058000Y-77739000D02*
X209614000Y-77739000D01*
X214098000Y-77699000D02*
X209574000Y-77699000D01*
X214137000Y-77659000D02*
X209535000Y-77659000D01*
X210856000Y-77619000D02*
X209497000Y-77619000D01*
X214175000Y-77619000D02*
X212816000Y-77619000D01*
X210856000Y-77579000D02*
X209461000Y-77579000D01*
X214211000Y-77579000D02*
X212816000Y-77579000D01*
X210856000Y-77539000D02*
X209425000Y-77539000D01*
X214247000Y-77539000D02*
X212816000Y-77539000D01*
X210856000Y-77499000D02*
X209391000Y-77499000D01*
X214281000Y-77499000D02*
X212816000Y-77499000D01*
X210856000Y-77459000D02*
X209358000Y-77459000D01*
X214314000Y-77459000D02*
X212816000Y-77459000D01*
X210856000Y-77419000D02*
X209326000Y-77419000D01*
X214346000Y-77419000D02*
X212816000Y-77419000D01*
X210856000Y-77379000D02*
X209296000Y-77379000D01*
X214376000Y-77379000D02*
X212816000Y-77379000D01*
X210856000Y-77339000D02*
X209266000Y-77339000D01*
X214406000Y-77339000D02*
X212816000Y-77339000D01*
X210856000Y-77299000D02*
X209237000Y-77299000D01*
X214435000Y-77299000D02*
X212816000Y-77299000D01*
X210856000Y-77259000D02*
X209209000Y-77259000D01*
X214463000Y-77259000D02*
X212816000Y-77259000D01*
X210856000Y-77219000D02*
X209182000Y-77219000D01*
X214490000Y-77219000D02*
X212816000Y-77219000D01*
X210856000Y-77179000D02*
X209155000Y-77179000D01*
X214517000Y-77179000D02*
X212816000Y-77179000D01*
X210856000Y-77139000D02*
X209130000Y-77139000D01*
X214542000Y-77139000D02*
X212816000Y-77139000D01*
X210856000Y-77099000D02*
X209105000Y-77099000D01*
X214567000Y-77099000D02*
X212816000Y-77099000D01*
X210856000Y-77059000D02*
X209081000Y-77059000D01*
X214591000Y-77059000D02*
X212816000Y-77059000D01*
X210856000Y-77019000D02*
X209058000Y-77019000D01*
X214614000Y-77019000D02*
X212816000Y-77019000D01*
X210856000Y-76979000D02*
X209036000Y-76979000D01*
X214636000Y-76979000D02*
X212816000Y-76979000D01*
X210856000Y-76939000D02*
X209014000Y-76939000D01*
X214658000Y-76939000D02*
X212816000Y-76939000D01*
X210856000Y-76899000D02*
X208993000Y-76899000D01*
X214679000Y-76899000D02*
X212816000Y-76899000D01*
X210856000Y-76859000D02*
X208973000Y-76859000D01*
X214699000Y-76859000D02*
X212816000Y-76859000D01*
X210856000Y-76819000D02*
X208954000Y-76819000D01*
X214718000Y-76819000D02*
X212816000Y-76819000D01*
X210856000Y-76779000D02*
X208935000Y-76779000D01*
X214737000Y-76779000D02*
X212816000Y-76779000D01*
X210856000Y-76739000D02*
X208917000Y-76739000D01*
X214755000Y-76739000D02*
X212816000Y-76739000D01*
X210856000Y-76699000D02*
X208899000Y-76699000D01*
X214773000Y-76699000D02*
X212816000Y-76699000D01*
X210856000Y-76659000D02*
X208882000Y-76659000D01*
X214790000Y-76659000D02*
X212816000Y-76659000D01*
X210856000Y-76619000D02*
X208866000Y-76619000D01*
X214806000Y-76619000D02*
X212816000Y-76619000D01*
X210856000Y-76579000D02*
X208850000Y-76579000D01*
X214822000Y-76579000D02*
X212816000Y-76579000D01*
X210856000Y-76539000D02*
X208835000Y-76539000D01*
X214837000Y-76539000D02*
X212816000Y-76539000D01*
X210856000Y-76499000D02*
X208821000Y-76499000D01*
X214851000Y-76499000D02*
X212816000Y-76499000D01*
X210856000Y-76459000D02*
X208807000Y-76459000D01*
X214865000Y-76459000D02*
X212816000Y-76459000D01*
X210856000Y-76419000D02*
X208794000Y-76419000D01*
X214878000Y-76419000D02*
X212816000Y-76419000D01*
X210856000Y-76379000D02*
X208781000Y-76379000D01*
X214891000Y-76379000D02*
X212816000Y-76379000D01*
X210856000Y-76339000D02*
X208769000Y-76339000D01*
X214903000Y-76339000D02*
X212816000Y-76339000D01*
X210856000Y-76299000D02*
X208757000Y-76299000D01*
X214915000Y-76299000D02*
X212816000Y-76299000D01*
X210856000Y-76259000D02*
X208746000Y-76259000D01*
X214926000Y-76259000D02*
X212816000Y-76259000D01*
X210856000Y-76219000D02*
X208736000Y-76219000D01*
X214936000Y-76219000D02*
X212816000Y-76219000D01*
X210856000Y-76179000D02*
X208726000Y-76179000D01*
X214946000Y-76179000D02*
X212816000Y-76179000D01*
X210856000Y-76139000D02*
X208717000Y-76139000D01*
X214955000Y-76139000D02*
X212816000Y-76139000D01*
X210856000Y-76098000D02*
X208708000Y-76098000D01*
X214964000Y-76098000D02*
X212816000Y-76098000D01*
X210856000Y-76058000D02*
X208699000Y-76058000D01*
X214973000Y-76058000D02*
X212816000Y-76058000D01*
X210856000Y-76018000D02*
X208692000Y-76018000D01*
X214980000Y-76018000D02*
X212816000Y-76018000D01*
X210856000Y-75978000D02*
X208684000Y-75978000D01*
X214988000Y-75978000D02*
X212816000Y-75978000D01*
X210856000Y-75938000D02*
X208678000Y-75938000D01*
X214994000Y-75938000D02*
X212816000Y-75938000D01*
X210856000Y-75898000D02*
X208671000Y-75898000D01*
X215001000Y-75898000D02*
X212816000Y-75898000D01*
X210856000Y-75858000D02*
X208666000Y-75858000D01*
X215006000Y-75858000D02*
X212816000Y-75858000D01*
X210856000Y-75818000D02*
X208660000Y-75818000D01*
X215012000Y-75818000D02*
X212816000Y-75818000D01*
X210856000Y-75778000D02*
X208656000Y-75778000D01*
X215016000Y-75778000D02*
X212816000Y-75778000D01*
X210856000Y-75738000D02*
X208651000Y-75738000D01*
X215021000Y-75738000D02*
X212816000Y-75738000D01*
X210856000Y-75698000D02*
X208648000Y-75698000D01*
X215024000Y-75698000D02*
X212816000Y-75698000D01*
X215028000Y-75658000D02*
X208644000Y-75658000D01*
X215030000Y-75618000D02*
X208642000Y-75618000D01*
X215033000Y-75578000D02*
X208639000Y-75578000D01*
X215034000Y-75538000D02*
X208638000Y-75538000D01*
X215036000Y-75498000D02*
X208636000Y-75498000D01*
X215036000Y-75458000D02*
X208636000Y-75458000D01*
X215036000Y-75418000D02*
X208636000Y-75418000D01*
X213015136Y-78435820D02*
G75*
G03*
X213016000Y-72400518I-1179136J3017820D01*
G01*
X210656864Y-78435820D02*
G75*
G02*
X210656000Y-72400518I1179136J3017820D01*
G01*
X210656864Y-78435820D02*
G75*
G03*
X213016000Y-78435482I1179136J3017820D01*
G01*
G04 #@! TO.C,C1*
X212486000Y-65456000D02*
X211186000Y-65456000D01*
X211836000Y-64856000D02*
X211836000Y-66056000D01*
X212304000Y-71507000D02*
X211368000Y-71507000D01*
X212512000Y-71467000D02*
X211160000Y-71467000D01*
X212670000Y-71427000D02*
X211002000Y-71427000D01*
X212802000Y-71387000D02*
X210870000Y-71387000D01*
X212917000Y-71347000D02*
X210755000Y-71347000D01*
X213020000Y-71307000D02*
X210652000Y-71307000D01*
X213114000Y-71267000D02*
X210558000Y-71267000D01*
X213200000Y-71227000D02*
X210472000Y-71227000D01*
X213281000Y-71187000D02*
X210391000Y-71187000D01*
X213356000Y-71147000D02*
X210316000Y-71147000D01*
X213427000Y-71107000D02*
X210245000Y-71107000D01*
X213494000Y-71067000D02*
X210178000Y-71067000D01*
X213557000Y-71027000D02*
X210115000Y-71027000D01*
X213617000Y-70987000D02*
X210055000Y-70987000D01*
X213675000Y-70947000D02*
X209997000Y-70947000D01*
X213730000Y-70907000D02*
X209942000Y-70907000D01*
X213782000Y-70867000D02*
X209890000Y-70867000D01*
X213833000Y-70827000D02*
X209839000Y-70827000D01*
X213881000Y-70787000D02*
X209791000Y-70787000D01*
X213928000Y-70747000D02*
X209744000Y-70747000D01*
X213973000Y-70707000D02*
X209699000Y-70707000D01*
X214016000Y-70667000D02*
X209656000Y-70667000D01*
X214058000Y-70627000D02*
X209614000Y-70627000D01*
X214098000Y-70587000D02*
X209574000Y-70587000D01*
X214137000Y-70547000D02*
X209535000Y-70547000D01*
X210856000Y-70507000D02*
X209497000Y-70507000D01*
X214175000Y-70507000D02*
X212816000Y-70507000D01*
X210856000Y-70467000D02*
X209461000Y-70467000D01*
X214211000Y-70467000D02*
X212816000Y-70467000D01*
X210856000Y-70427000D02*
X209425000Y-70427000D01*
X214247000Y-70427000D02*
X212816000Y-70427000D01*
X210856000Y-70387000D02*
X209391000Y-70387000D01*
X214281000Y-70387000D02*
X212816000Y-70387000D01*
X210856000Y-70347000D02*
X209358000Y-70347000D01*
X214314000Y-70347000D02*
X212816000Y-70347000D01*
X210856000Y-70307000D02*
X209326000Y-70307000D01*
X214346000Y-70307000D02*
X212816000Y-70307000D01*
X210856000Y-70267000D02*
X209296000Y-70267000D01*
X214376000Y-70267000D02*
X212816000Y-70267000D01*
X210856000Y-70227000D02*
X209266000Y-70227000D01*
X214406000Y-70227000D02*
X212816000Y-70227000D01*
X210856000Y-70187000D02*
X209237000Y-70187000D01*
X214435000Y-70187000D02*
X212816000Y-70187000D01*
X210856000Y-70147000D02*
X209209000Y-70147000D01*
X214463000Y-70147000D02*
X212816000Y-70147000D01*
X210856000Y-70107000D02*
X209182000Y-70107000D01*
X214490000Y-70107000D02*
X212816000Y-70107000D01*
X210856000Y-70067000D02*
X209155000Y-70067000D01*
X214517000Y-70067000D02*
X212816000Y-70067000D01*
X210856000Y-70027000D02*
X209130000Y-70027000D01*
X214542000Y-70027000D02*
X212816000Y-70027000D01*
X210856000Y-69987000D02*
X209105000Y-69987000D01*
X214567000Y-69987000D02*
X212816000Y-69987000D01*
X210856000Y-69947000D02*
X209081000Y-69947000D01*
X214591000Y-69947000D02*
X212816000Y-69947000D01*
X210856000Y-69907000D02*
X209058000Y-69907000D01*
X214614000Y-69907000D02*
X212816000Y-69907000D01*
X210856000Y-69867000D02*
X209036000Y-69867000D01*
X214636000Y-69867000D02*
X212816000Y-69867000D01*
X210856000Y-69827000D02*
X209014000Y-69827000D01*
X214658000Y-69827000D02*
X212816000Y-69827000D01*
X210856000Y-69787000D02*
X208993000Y-69787000D01*
X214679000Y-69787000D02*
X212816000Y-69787000D01*
X210856000Y-69747000D02*
X208973000Y-69747000D01*
X214699000Y-69747000D02*
X212816000Y-69747000D01*
X210856000Y-69707000D02*
X208954000Y-69707000D01*
X214718000Y-69707000D02*
X212816000Y-69707000D01*
X210856000Y-69667000D02*
X208935000Y-69667000D01*
X214737000Y-69667000D02*
X212816000Y-69667000D01*
X210856000Y-69627000D02*
X208917000Y-69627000D01*
X214755000Y-69627000D02*
X212816000Y-69627000D01*
X210856000Y-69587000D02*
X208899000Y-69587000D01*
X214773000Y-69587000D02*
X212816000Y-69587000D01*
X210856000Y-69547000D02*
X208882000Y-69547000D01*
X214790000Y-69547000D02*
X212816000Y-69547000D01*
X210856000Y-69507000D02*
X208866000Y-69507000D01*
X214806000Y-69507000D02*
X212816000Y-69507000D01*
X210856000Y-69467000D02*
X208850000Y-69467000D01*
X214822000Y-69467000D02*
X212816000Y-69467000D01*
X210856000Y-69427000D02*
X208835000Y-69427000D01*
X214837000Y-69427000D02*
X212816000Y-69427000D01*
X210856000Y-69387000D02*
X208821000Y-69387000D01*
X214851000Y-69387000D02*
X212816000Y-69387000D01*
X210856000Y-69347000D02*
X208807000Y-69347000D01*
X214865000Y-69347000D02*
X212816000Y-69347000D01*
X210856000Y-69307000D02*
X208794000Y-69307000D01*
X214878000Y-69307000D02*
X212816000Y-69307000D01*
X210856000Y-69267000D02*
X208781000Y-69267000D01*
X214891000Y-69267000D02*
X212816000Y-69267000D01*
X210856000Y-69227000D02*
X208769000Y-69227000D01*
X214903000Y-69227000D02*
X212816000Y-69227000D01*
X210856000Y-69187000D02*
X208757000Y-69187000D01*
X214915000Y-69187000D02*
X212816000Y-69187000D01*
X210856000Y-69147000D02*
X208746000Y-69147000D01*
X214926000Y-69147000D02*
X212816000Y-69147000D01*
X210856000Y-69107000D02*
X208736000Y-69107000D01*
X214936000Y-69107000D02*
X212816000Y-69107000D01*
X210856000Y-69067000D02*
X208726000Y-69067000D01*
X214946000Y-69067000D02*
X212816000Y-69067000D01*
X210856000Y-69027000D02*
X208717000Y-69027000D01*
X214955000Y-69027000D02*
X212816000Y-69027000D01*
X210856000Y-68986000D02*
X208708000Y-68986000D01*
X214964000Y-68986000D02*
X212816000Y-68986000D01*
X210856000Y-68946000D02*
X208699000Y-68946000D01*
X214973000Y-68946000D02*
X212816000Y-68946000D01*
X210856000Y-68906000D02*
X208692000Y-68906000D01*
X214980000Y-68906000D02*
X212816000Y-68906000D01*
X210856000Y-68866000D02*
X208684000Y-68866000D01*
X214988000Y-68866000D02*
X212816000Y-68866000D01*
X210856000Y-68826000D02*
X208678000Y-68826000D01*
X214994000Y-68826000D02*
X212816000Y-68826000D01*
X210856000Y-68786000D02*
X208671000Y-68786000D01*
X215001000Y-68786000D02*
X212816000Y-68786000D01*
X210856000Y-68746000D02*
X208666000Y-68746000D01*
X215006000Y-68746000D02*
X212816000Y-68746000D01*
X210856000Y-68706000D02*
X208660000Y-68706000D01*
X215012000Y-68706000D02*
X212816000Y-68706000D01*
X210856000Y-68666000D02*
X208656000Y-68666000D01*
X215016000Y-68666000D02*
X212816000Y-68666000D01*
X210856000Y-68626000D02*
X208651000Y-68626000D01*
X215021000Y-68626000D02*
X212816000Y-68626000D01*
X210856000Y-68586000D02*
X208648000Y-68586000D01*
X215024000Y-68586000D02*
X212816000Y-68586000D01*
X215028000Y-68546000D02*
X208644000Y-68546000D01*
X215030000Y-68506000D02*
X208642000Y-68506000D01*
X215033000Y-68466000D02*
X208639000Y-68466000D01*
X215034000Y-68426000D02*
X208638000Y-68426000D01*
X215036000Y-68386000D02*
X208636000Y-68386000D01*
X215036000Y-68346000D02*
X208636000Y-68346000D01*
X215036000Y-68306000D02*
X208636000Y-68306000D01*
X213015136Y-71323820D02*
G75*
G03*
X213016000Y-65288518I-1179136J3017820D01*
G01*
X210656864Y-71323820D02*
G75*
G02*
X210656000Y-65288518I1179136J3017820D01*
G01*
X210656864Y-71323820D02*
G75*
G03*
X213016000Y-71323482I1179136J3017820D01*
G01*
G04 #@! TO.C,U2*
X204740000Y-95190000D02*
X203490000Y-95190000D01*
X203490000Y-95190000D02*
X203490000Y-113090000D01*
X203490000Y-113090000D02*
X207990000Y-113090000D01*
X207990000Y-113090000D02*
X207990000Y-95190000D01*
X207990000Y-95190000D02*
X206740000Y-95190000D01*
X200490000Y-95130000D02*
X200490000Y-113150000D01*
X200490000Y-113150000D02*
X210990000Y-113150000D01*
X210990000Y-113150000D02*
X210990000Y-95130000D01*
X210990000Y-95130000D02*
X200490000Y-95130000D01*
X206740000Y-95190000D02*
G75*
G02*
X204740000Y-95190000I-1000000J0D01*
G01*
G04 #@! TO.C,U1*
X206926000Y-137040000D02*
X196426000Y-137040000D01*
X206926000Y-147440000D02*
X206926000Y-137040000D01*
X196426000Y-147440000D02*
X206926000Y-147440000D01*
X196426000Y-137040000D02*
X196426000Y-147440000D01*
X203926000Y-137100000D02*
X202676000Y-137100000D01*
X203926000Y-147380000D02*
X203926000Y-137100000D01*
X199426000Y-147380000D02*
X203926000Y-147380000D01*
X199426000Y-137100000D02*
X199426000Y-147380000D01*
X200676000Y-137100000D02*
X199426000Y-137100000D01*
X202676000Y-137100000D02*
G75*
G02*
X200676000Y-137100000I-1000000J0D01*
G01*
G04 #@! TO.C,Q1*
X213382000Y-149026000D02*
X209782000Y-149026000D01*
X213906184Y-149753205D02*
G75*
G03*
X213382000Y-149026000I-2324184J-1122795D01*
G01*
X213938400Y-151974807D02*
G75*
G02*
X211582000Y-153476000I-2356400J1098807D01*
G01*
X209225600Y-151974807D02*
G75*
G03*
X211582000Y-153476000I2356400J1098807D01*
G01*
X209257816Y-149753205D02*
G75*
G02*
X209782000Y-149026000I2324184J-1122795D01*
G01*
G04 #@! TO.C,Q2*
X213382000Y-153852000D02*
X209782000Y-153852000D01*
X213906184Y-154579205D02*
G75*
G03*
X213382000Y-153852000I-2324184J-1122795D01*
G01*
X213938400Y-156800807D02*
G75*
G02*
X211582000Y-158302000I-2356400J1098807D01*
G01*
X209225600Y-156800807D02*
G75*
G03*
X211582000Y-158302000I2356400J1098807D01*
G01*
X209257816Y-154579205D02*
G75*
G02*
X209782000Y-153852000I2324184J-1122795D01*
G01*
G04 #@! TO.C,Q3*
X209147000Y-124303400D02*
X212747000Y-124303400D01*
X208622816Y-123576195D02*
G75*
G03*
X209147000Y-124303400I2324184J1122795D01*
G01*
X208590600Y-121354593D02*
G75*
G02*
X210947000Y-119853400I2356400J-1098807D01*
G01*
X213303400Y-121354593D02*
G75*
G03*
X210947000Y-119853400I-2356400J-1098807D01*
G01*
X213271184Y-123576195D02*
G75*
G02*
X212747000Y-124303400I-2324184J1122795D01*
G01*
G04 #@! TO.C,R22*
D12*
X207764142Y-152979380D02*
X207430809Y-152503190D01*
X207192714Y-152979380D02*
X207192714Y-151979380D01*
X207573666Y-151979380D01*
X207668904Y-152027000D01*
X207716523Y-152074619D01*
X207764142Y-152169857D01*
X207764142Y-152312714D01*
X207716523Y-152407952D01*
X207668904Y-152455571D01*
X207573666Y-152503190D01*
X207192714Y-152503190D01*
X208145095Y-152074619D02*
X208192714Y-152027000D01*
X208287952Y-151979380D01*
X208526047Y-151979380D01*
X208621285Y-152027000D01*
X208668904Y-152074619D01*
X208716523Y-152169857D01*
X208716523Y-152265095D01*
X208668904Y-152407952D01*
X208097476Y-152979380D01*
X208716523Y-152979380D01*
X209097476Y-152074619D02*
X209145095Y-152027000D01*
X209240333Y-151979380D01*
X209478428Y-151979380D01*
X209573666Y-152027000D01*
X209621285Y-152074619D01*
X209668904Y-152169857D01*
X209668904Y-152265095D01*
X209621285Y-152407952D01*
X209049857Y-152979380D01*
X209668904Y-152979380D01*
X205150738Y-151201380D02*
X204579309Y-151201380D01*
X204865023Y-151201380D02*
X204865023Y-150201380D01*
X204769785Y-150344238D01*
X204674547Y-150439476D01*
X204579309Y-150487095D01*
X205769785Y-150201380D02*
X205865023Y-150201380D01*
X205960261Y-150249000D01*
X206007880Y-150296619D01*
X206055500Y-150391857D01*
X206103119Y-150582333D01*
X206103119Y-150820428D01*
X206055500Y-151010904D01*
X206007880Y-151106142D01*
X205960261Y-151153761D01*
X205865023Y-151201380D01*
X205769785Y-151201380D01*
X205674547Y-151153761D01*
X205626928Y-151106142D01*
X205579309Y-151010904D01*
X205531690Y-150820428D01*
X205531690Y-150582333D01*
X205579309Y-150391857D01*
X205626928Y-150296619D01*
X205674547Y-150249000D01*
X205769785Y-150201380D01*
X206722166Y-150201380D02*
X206817404Y-150201380D01*
X206912642Y-150249000D01*
X206960261Y-150296619D01*
X207007880Y-150391857D01*
X207055500Y-150582333D01*
X207055500Y-150820428D01*
X207007880Y-151010904D01*
X206960261Y-151106142D01*
X206912642Y-151153761D01*
X206817404Y-151201380D01*
X206722166Y-151201380D01*
X206626928Y-151153761D01*
X206579309Y-151106142D01*
X206531690Y-151010904D01*
X206484071Y-150820428D01*
X206484071Y-150582333D01*
X206531690Y-150391857D01*
X206579309Y-150296619D01*
X206626928Y-150249000D01*
X206722166Y-150201380D01*
X207484071Y-151201380D02*
X207484071Y-150201380D01*
X207579309Y-150820428D02*
X207865023Y-151201380D01*
X207865023Y-150534714D02*
X207484071Y-150915666D01*
G04 #@! TO.C,R26*
X201160142Y-134183380D02*
X200826809Y-133707190D01*
X200588714Y-134183380D02*
X200588714Y-133183380D01*
X200969666Y-133183380D01*
X201064904Y-133231000D01*
X201112523Y-133278619D01*
X201160142Y-133373857D01*
X201160142Y-133516714D01*
X201112523Y-133611952D01*
X201064904Y-133659571D01*
X200969666Y-133707190D01*
X200588714Y-133707190D01*
X201541095Y-133278619D02*
X201588714Y-133231000D01*
X201683952Y-133183380D01*
X201922047Y-133183380D01*
X202017285Y-133231000D01*
X202064904Y-133278619D01*
X202112523Y-133373857D01*
X202112523Y-133469095D01*
X202064904Y-133611952D01*
X201493476Y-134183380D01*
X202112523Y-134183380D01*
X202969666Y-133183380D02*
X202779190Y-133183380D01*
X202683952Y-133231000D01*
X202636333Y-133278619D01*
X202541095Y-133421476D01*
X202493476Y-133611952D01*
X202493476Y-133992904D01*
X202541095Y-134088142D01*
X202588714Y-134135761D01*
X202683952Y-134183380D01*
X202874428Y-134183380D01*
X202969666Y-134135761D01*
X203017285Y-134088142D01*
X203064904Y-133992904D01*
X203064904Y-133754809D01*
X203017285Y-133659571D01*
X202969666Y-133611952D01*
X202874428Y-133564333D01*
X202683952Y-133564333D01*
X202588714Y-133611952D01*
X202541095Y-133659571D01*
X202493476Y-133754809D01*
X197048571Y-136850380D02*
X196477142Y-136850380D01*
X196762857Y-136850380D02*
X196762857Y-135850380D01*
X196667619Y-135993238D01*
X196572380Y-136088476D01*
X196477142Y-136136095D01*
X197667619Y-135850380D02*
X197762857Y-135850380D01*
X197858095Y-135898000D01*
X197905714Y-135945619D01*
X197953333Y-136040857D01*
X198000952Y-136231333D01*
X198000952Y-136469428D01*
X197953333Y-136659904D01*
X197905714Y-136755142D01*
X197858095Y-136802761D01*
X197762857Y-136850380D01*
X197667619Y-136850380D01*
X197572380Y-136802761D01*
X197524761Y-136755142D01*
X197477142Y-136659904D01*
X197429523Y-136469428D01*
X197429523Y-136231333D01*
X197477142Y-136040857D01*
X197524761Y-135945619D01*
X197572380Y-135898000D01*
X197667619Y-135850380D01*
X198620000Y-135850380D02*
X198715238Y-135850380D01*
X198810476Y-135898000D01*
X198858095Y-135945619D01*
X198905714Y-136040857D01*
X198953333Y-136231333D01*
X198953333Y-136469428D01*
X198905714Y-136659904D01*
X198858095Y-136755142D01*
X198810476Y-136802761D01*
X198715238Y-136850380D01*
X198620000Y-136850380D01*
X198524761Y-136802761D01*
X198477142Y-136755142D01*
X198429523Y-136659904D01*
X198381904Y-136469428D01*
X198381904Y-136231333D01*
X198429523Y-136040857D01*
X198477142Y-135945619D01*
X198524761Y-135898000D01*
X198620000Y-135850380D01*
X199381904Y-136850380D02*
X199381904Y-135850380D01*
X199477142Y-136469428D02*
X199762857Y-136850380D01*
X199762857Y-136183714D02*
X199381904Y-136564666D01*
G04 #@! TO.C,R24*
X198064380Y-83954857D02*
X197588190Y-84288190D01*
X198064380Y-84526285D02*
X197064380Y-84526285D01*
X197064380Y-84145333D01*
X197112000Y-84050095D01*
X197159619Y-84002476D01*
X197254857Y-83954857D01*
X197397714Y-83954857D01*
X197492952Y-84002476D01*
X197540571Y-84050095D01*
X197588190Y-84145333D01*
X197588190Y-84526285D01*
X197159619Y-83573904D02*
X197112000Y-83526285D01*
X197064380Y-83431047D01*
X197064380Y-83192952D01*
X197112000Y-83097714D01*
X197159619Y-83050095D01*
X197254857Y-83002476D01*
X197350095Y-83002476D01*
X197492952Y-83050095D01*
X198064380Y-83621523D01*
X198064380Y-83002476D01*
X197397714Y-82145333D02*
X198064380Y-82145333D01*
X197016761Y-82383428D02*
X197731047Y-82621523D01*
X197731047Y-82002476D01*
X201747380Y-85161095D02*
X201747380Y-85732523D01*
X201747380Y-85446809D02*
X200747380Y-85446809D01*
X200890238Y-85542047D01*
X200985476Y-85637285D01*
X201033095Y-85732523D01*
X200747380Y-84542047D02*
X200747380Y-84446809D01*
X200795000Y-84351571D01*
X200842619Y-84303952D01*
X200937857Y-84256333D01*
X201128333Y-84208714D01*
X201366428Y-84208714D01*
X201556904Y-84256333D01*
X201652142Y-84303952D01*
X201699761Y-84351571D01*
X201747380Y-84446809D01*
X201747380Y-84542047D01*
X201699761Y-84637285D01*
X201652142Y-84684904D01*
X201556904Y-84732523D01*
X201366428Y-84780142D01*
X201128333Y-84780142D01*
X200937857Y-84732523D01*
X200842619Y-84684904D01*
X200795000Y-84637285D01*
X200747380Y-84542047D01*
X200747380Y-83589666D02*
X200747380Y-83494428D01*
X200795000Y-83399190D01*
X200842619Y-83351571D01*
X200937857Y-83303952D01*
X201128333Y-83256333D01*
X201366428Y-83256333D01*
X201556904Y-83303952D01*
X201652142Y-83351571D01*
X201699761Y-83399190D01*
X201747380Y-83494428D01*
X201747380Y-83589666D01*
X201699761Y-83684904D01*
X201652142Y-83732523D01*
X201556904Y-83780142D01*
X201366428Y-83827761D01*
X201128333Y-83827761D01*
X200937857Y-83780142D01*
X200842619Y-83732523D01*
X200795000Y-83684904D01*
X200747380Y-83589666D01*
X201747380Y-82827761D02*
X200747380Y-82827761D01*
X201366428Y-82732523D02*
X201747380Y-82446809D01*
X201080714Y-82446809D02*
X201461666Y-82827761D01*
X201652142Y-81256333D02*
X201699761Y-81208714D01*
X201747380Y-81256333D01*
X201699761Y-81303952D01*
X201652142Y-81256333D01*
X201747380Y-81256333D01*
X201747380Y-80256333D02*
X201747380Y-80827761D01*
X201747380Y-80542047D02*
X200747380Y-80542047D01*
X200890238Y-80637285D01*
X200985476Y-80732523D01*
X201033095Y-80827761D01*
X201747380Y-79875380D02*
X200747380Y-79113476D01*
X200747380Y-79732523D02*
X200795000Y-79637285D01*
X200890238Y-79589666D01*
X200985476Y-79637285D01*
X201033095Y-79732523D01*
X200985476Y-79827761D01*
X200890238Y-79875380D01*
X200795000Y-79827761D01*
X200747380Y-79732523D01*
X201699761Y-79161095D02*
X201604523Y-79113476D01*
X201509285Y-79161095D01*
X201461666Y-79256333D01*
X201509285Y-79351571D01*
X201604523Y-79399190D01*
X201699761Y-79351571D01*
X201747380Y-79256333D01*
X201699761Y-79161095D01*
G04 #@! TO.C,R2*
X205827333Y-124150380D02*
X205494000Y-123674190D01*
X205255904Y-124150380D02*
X205255904Y-123150380D01*
X205636857Y-123150380D01*
X205732095Y-123198000D01*
X205779714Y-123245619D01*
X205827333Y-123340857D01*
X205827333Y-123483714D01*
X205779714Y-123578952D01*
X205732095Y-123626571D01*
X205636857Y-123674190D01*
X205255904Y-123674190D01*
X206208285Y-123245619D02*
X206255904Y-123198000D01*
X206351142Y-123150380D01*
X206589238Y-123150380D01*
X206684476Y-123198000D01*
X206732095Y-123245619D01*
X206779714Y-123340857D01*
X206779714Y-123436095D01*
X206732095Y-123578952D01*
X206160666Y-124150380D01*
X206779714Y-124150380D01*
G04 #@! TO.C,R4*
X205827333Y-120848380D02*
X205494000Y-120372190D01*
X205255904Y-120848380D02*
X205255904Y-119848380D01*
X205636857Y-119848380D01*
X205732095Y-119896000D01*
X205779714Y-119943619D01*
X205827333Y-120038857D01*
X205827333Y-120181714D01*
X205779714Y-120276952D01*
X205732095Y-120324571D01*
X205636857Y-120372190D01*
X205255904Y-120372190D01*
X206684476Y-120181714D02*
X206684476Y-120848380D01*
X206446380Y-119800761D02*
X206208285Y-120515047D01*
X206827333Y-120515047D01*
G04 #@! TO.C,R5*
X205827333Y-114244380D02*
X205494000Y-113768190D01*
X205255904Y-114244380D02*
X205255904Y-113244380D01*
X205636857Y-113244380D01*
X205732095Y-113292000D01*
X205779714Y-113339619D01*
X205827333Y-113434857D01*
X205827333Y-113577714D01*
X205779714Y-113672952D01*
X205732095Y-113720571D01*
X205636857Y-113768190D01*
X205255904Y-113768190D01*
X206732095Y-113244380D02*
X206255904Y-113244380D01*
X206208285Y-113720571D01*
X206255904Y-113672952D01*
X206351142Y-113625333D01*
X206589238Y-113625333D01*
X206684476Y-113672952D01*
X206732095Y-113720571D01*
X206779714Y-113815809D01*
X206779714Y-114053904D01*
X206732095Y-114149142D01*
X206684476Y-114196761D01*
X206589238Y-114244380D01*
X206351142Y-114244380D01*
X206255904Y-114196761D01*
X206208285Y-114149142D01*
G04 #@! TO.C,R6*
X205827333Y-117546380D02*
X205494000Y-117070190D01*
X205255904Y-117546380D02*
X205255904Y-116546380D01*
X205636857Y-116546380D01*
X205732095Y-116594000D01*
X205779714Y-116641619D01*
X205827333Y-116736857D01*
X205827333Y-116879714D01*
X205779714Y-116974952D01*
X205732095Y-117022571D01*
X205636857Y-117070190D01*
X205255904Y-117070190D01*
X206684476Y-116546380D02*
X206494000Y-116546380D01*
X206398761Y-116594000D01*
X206351142Y-116641619D01*
X206255904Y-116784476D01*
X206208285Y-116974952D01*
X206208285Y-117355904D01*
X206255904Y-117451142D01*
X206303523Y-117498761D01*
X206398761Y-117546380D01*
X206589238Y-117546380D01*
X206684476Y-117498761D01*
X206732095Y-117451142D01*
X206779714Y-117355904D01*
X206779714Y-117117809D01*
X206732095Y-117022571D01*
X206684476Y-116974952D01*
X206589238Y-116927333D01*
X206398761Y-116927333D01*
X206303523Y-116974952D01*
X206255904Y-117022571D01*
X206208285Y-117117809D01*
G04 #@! TO.C,R8*
X196937333Y-124150380D02*
X196604000Y-123674190D01*
X196365904Y-124150380D02*
X196365904Y-123150380D01*
X196746857Y-123150380D01*
X196842095Y-123198000D01*
X196889714Y-123245619D01*
X196937333Y-123340857D01*
X196937333Y-123483714D01*
X196889714Y-123578952D01*
X196842095Y-123626571D01*
X196746857Y-123674190D01*
X196365904Y-123674190D01*
X197508761Y-123578952D02*
X197413523Y-123531333D01*
X197365904Y-123483714D01*
X197318285Y-123388476D01*
X197318285Y-123340857D01*
X197365904Y-123245619D01*
X197413523Y-123198000D01*
X197508761Y-123150380D01*
X197699238Y-123150380D01*
X197794476Y-123198000D01*
X197842095Y-123245619D01*
X197889714Y-123340857D01*
X197889714Y-123388476D01*
X197842095Y-123483714D01*
X197794476Y-123531333D01*
X197699238Y-123578952D01*
X197508761Y-123578952D01*
X197413523Y-123626571D01*
X197365904Y-123674190D01*
X197318285Y-123769428D01*
X197318285Y-123959904D01*
X197365904Y-124055142D01*
X197413523Y-124102761D01*
X197508761Y-124150380D01*
X197699238Y-124150380D01*
X197794476Y-124102761D01*
X197842095Y-124055142D01*
X197889714Y-123959904D01*
X197889714Y-123769428D01*
X197842095Y-123674190D01*
X197794476Y-123626571D01*
X197699238Y-123578952D01*
X202255380Y-125817238D02*
X202255380Y-126388666D01*
X202255380Y-126102952D02*
X201255380Y-126102952D01*
X201398238Y-126198190D01*
X201493476Y-126293428D01*
X201541095Y-126388666D01*
X201255380Y-125198190D02*
X201255380Y-125102952D01*
X201303000Y-125007714D01*
X201350619Y-124960095D01*
X201445857Y-124912476D01*
X201636333Y-124864857D01*
X201874428Y-124864857D01*
X202064904Y-124912476D01*
X202160142Y-124960095D01*
X202207761Y-125007714D01*
X202255380Y-125102952D01*
X202255380Y-125198190D01*
X202207761Y-125293428D01*
X202160142Y-125341047D01*
X202064904Y-125388666D01*
X201874428Y-125436285D01*
X201636333Y-125436285D01*
X201445857Y-125388666D01*
X201350619Y-125341047D01*
X201303000Y-125293428D01*
X201255380Y-125198190D01*
X202255380Y-124436285D02*
X201255380Y-124436285D01*
X201874428Y-124341047D02*
X202255380Y-124055333D01*
X201588714Y-124055333D02*
X201969666Y-124436285D01*
G04 #@! TO.C,R10*
X196969142Y-120848380D02*
X196635809Y-120372190D01*
X196397714Y-120848380D02*
X196397714Y-119848380D01*
X196778666Y-119848380D01*
X196873904Y-119896000D01*
X196921523Y-119943619D01*
X196969142Y-120038857D01*
X196969142Y-120181714D01*
X196921523Y-120276952D01*
X196873904Y-120324571D01*
X196778666Y-120372190D01*
X196397714Y-120372190D01*
X197921523Y-120848380D02*
X197350095Y-120848380D01*
X197635809Y-120848380D02*
X197635809Y-119848380D01*
X197540571Y-119991238D01*
X197445333Y-120086476D01*
X197350095Y-120134095D01*
X198540571Y-119848380D02*
X198635809Y-119848380D01*
X198731047Y-119896000D01*
X198778666Y-119943619D01*
X198826285Y-120038857D01*
X198873904Y-120229333D01*
X198873904Y-120467428D01*
X198826285Y-120657904D01*
X198778666Y-120753142D01*
X198731047Y-120800761D01*
X198635809Y-120848380D01*
X198540571Y-120848380D01*
X198445333Y-120800761D01*
X198397714Y-120753142D01*
X198350095Y-120657904D01*
X198302476Y-120467428D01*
X198302476Y-120229333D01*
X198350095Y-120038857D01*
X198397714Y-119943619D01*
X198445333Y-119896000D01*
X198540571Y-119848380D01*
X202255380Y-122515238D02*
X202255380Y-123086666D01*
X202255380Y-122800952D02*
X201255380Y-122800952D01*
X201398238Y-122896190D01*
X201493476Y-122991428D01*
X201541095Y-123086666D01*
X201255380Y-121896190D02*
X201255380Y-121800952D01*
X201303000Y-121705714D01*
X201350619Y-121658095D01*
X201445857Y-121610476D01*
X201636333Y-121562857D01*
X201874428Y-121562857D01*
X202064904Y-121610476D01*
X202160142Y-121658095D01*
X202207761Y-121705714D01*
X202255380Y-121800952D01*
X202255380Y-121896190D01*
X202207761Y-121991428D01*
X202160142Y-122039047D01*
X202064904Y-122086666D01*
X201874428Y-122134285D01*
X201636333Y-122134285D01*
X201445857Y-122086666D01*
X201350619Y-122039047D01*
X201303000Y-121991428D01*
X201255380Y-121896190D01*
X202255380Y-121134285D02*
X201255380Y-121134285D01*
X201874428Y-121039047D02*
X202255380Y-120753333D01*
X201588714Y-120753333D02*
X201969666Y-121134285D01*
G04 #@! TO.C,R11*
X196969142Y-114244380D02*
X196635809Y-113768190D01*
X196397714Y-114244380D02*
X196397714Y-113244380D01*
X196778666Y-113244380D01*
X196873904Y-113292000D01*
X196921523Y-113339619D01*
X196969142Y-113434857D01*
X196969142Y-113577714D01*
X196921523Y-113672952D01*
X196873904Y-113720571D01*
X196778666Y-113768190D01*
X196397714Y-113768190D01*
X197921523Y-114244380D02*
X197350095Y-114244380D01*
X197635809Y-114244380D02*
X197635809Y-113244380D01*
X197540571Y-113387238D01*
X197445333Y-113482476D01*
X197350095Y-113530095D01*
X198873904Y-114244380D02*
X198302476Y-114244380D01*
X198588190Y-114244380D02*
X198588190Y-113244380D01*
X198492952Y-113387238D01*
X198397714Y-113482476D01*
X198302476Y-113530095D01*
X202255380Y-115911238D02*
X202255380Y-116482666D01*
X202255380Y-116196952D02*
X201255380Y-116196952D01*
X201398238Y-116292190D01*
X201493476Y-116387428D01*
X201541095Y-116482666D01*
X201255380Y-115292190D02*
X201255380Y-115196952D01*
X201303000Y-115101714D01*
X201350619Y-115054095D01*
X201445857Y-115006476D01*
X201636333Y-114958857D01*
X201874428Y-114958857D01*
X202064904Y-115006476D01*
X202160142Y-115054095D01*
X202207761Y-115101714D01*
X202255380Y-115196952D01*
X202255380Y-115292190D01*
X202207761Y-115387428D01*
X202160142Y-115435047D01*
X202064904Y-115482666D01*
X201874428Y-115530285D01*
X201636333Y-115530285D01*
X201445857Y-115482666D01*
X201350619Y-115435047D01*
X201303000Y-115387428D01*
X201255380Y-115292190D01*
X202255380Y-114530285D02*
X201255380Y-114530285D01*
X201874428Y-114435047D02*
X202255380Y-114149333D01*
X201588714Y-114149333D02*
X201969666Y-114530285D01*
G04 #@! TO.C,R12*
X196969142Y-117546380D02*
X196635809Y-117070190D01*
X196397714Y-117546380D02*
X196397714Y-116546380D01*
X196778666Y-116546380D01*
X196873904Y-116594000D01*
X196921523Y-116641619D01*
X196969142Y-116736857D01*
X196969142Y-116879714D01*
X196921523Y-116974952D01*
X196873904Y-117022571D01*
X196778666Y-117070190D01*
X196397714Y-117070190D01*
X197921523Y-117546380D02*
X197350095Y-117546380D01*
X197635809Y-117546380D02*
X197635809Y-116546380D01*
X197540571Y-116689238D01*
X197445333Y-116784476D01*
X197350095Y-116832095D01*
X198302476Y-116641619D02*
X198350095Y-116594000D01*
X198445333Y-116546380D01*
X198683428Y-116546380D01*
X198778666Y-116594000D01*
X198826285Y-116641619D01*
X198873904Y-116736857D01*
X198873904Y-116832095D01*
X198826285Y-116974952D01*
X198254857Y-117546380D01*
X198873904Y-117546380D01*
X202255380Y-119213238D02*
X202255380Y-119784666D01*
X202255380Y-119498952D02*
X201255380Y-119498952D01*
X201398238Y-119594190D01*
X201493476Y-119689428D01*
X201541095Y-119784666D01*
X201255380Y-118594190D02*
X201255380Y-118498952D01*
X201303000Y-118403714D01*
X201350619Y-118356095D01*
X201445857Y-118308476D01*
X201636333Y-118260857D01*
X201874428Y-118260857D01*
X202064904Y-118308476D01*
X202160142Y-118356095D01*
X202207761Y-118403714D01*
X202255380Y-118498952D01*
X202255380Y-118594190D01*
X202207761Y-118689428D01*
X202160142Y-118737047D01*
X202064904Y-118784666D01*
X201874428Y-118832285D01*
X201636333Y-118832285D01*
X201445857Y-118784666D01*
X201350619Y-118737047D01*
X201303000Y-118689428D01*
X201255380Y-118594190D01*
X202255380Y-117832285D02*
X201255380Y-117832285D01*
X201874428Y-117737047D02*
X202255380Y-117451333D01*
X201588714Y-117451333D02*
X201969666Y-117832285D01*
G04 #@! TO.C,R13*
X207891142Y-142946380D02*
X207557809Y-142470190D01*
X207319714Y-142946380D02*
X207319714Y-141946380D01*
X207700666Y-141946380D01*
X207795904Y-141994000D01*
X207843523Y-142041619D01*
X207891142Y-142136857D01*
X207891142Y-142279714D01*
X207843523Y-142374952D01*
X207795904Y-142422571D01*
X207700666Y-142470190D01*
X207319714Y-142470190D01*
X208843523Y-142946380D02*
X208272095Y-142946380D01*
X208557809Y-142946380D02*
X208557809Y-141946380D01*
X208462571Y-142089238D01*
X208367333Y-142184476D01*
X208272095Y-142232095D01*
X209176857Y-141946380D02*
X209795904Y-141946380D01*
X209462571Y-142327333D01*
X209605428Y-142327333D01*
X209700666Y-142374952D01*
X209748285Y-142422571D01*
X209795904Y-142517809D01*
X209795904Y-142755904D01*
X209748285Y-142851142D01*
X209700666Y-142898761D01*
X209605428Y-142946380D01*
X209319714Y-142946380D01*
X209224476Y-142898761D01*
X209176857Y-142851142D01*
X212669571Y-142946380D02*
X212098142Y-142946380D01*
X212383857Y-142946380D02*
X212383857Y-141946380D01*
X212288619Y-142089238D01*
X212193380Y-142184476D01*
X212098142Y-142232095D01*
X213288619Y-141946380D02*
X213383857Y-141946380D01*
X213479095Y-141994000D01*
X213526714Y-142041619D01*
X213574333Y-142136857D01*
X213621952Y-142327333D01*
X213621952Y-142565428D01*
X213574333Y-142755904D01*
X213526714Y-142851142D01*
X213479095Y-142898761D01*
X213383857Y-142946380D01*
X213288619Y-142946380D01*
X213193380Y-142898761D01*
X213145761Y-142851142D01*
X213098142Y-142755904D01*
X213050523Y-142565428D01*
X213050523Y-142327333D01*
X213098142Y-142136857D01*
X213145761Y-142041619D01*
X213193380Y-141994000D01*
X213288619Y-141946380D01*
X214241000Y-141946380D02*
X214336238Y-141946380D01*
X214431476Y-141994000D01*
X214479095Y-142041619D01*
X214526714Y-142136857D01*
X214574333Y-142327333D01*
X214574333Y-142565428D01*
X214526714Y-142755904D01*
X214479095Y-142851142D01*
X214431476Y-142898761D01*
X214336238Y-142946380D01*
X214241000Y-142946380D01*
X214145761Y-142898761D01*
X214098142Y-142851142D01*
X214050523Y-142755904D01*
X214002904Y-142565428D01*
X214002904Y-142327333D01*
X214050523Y-142136857D01*
X214098142Y-142041619D01*
X214145761Y-141994000D01*
X214241000Y-141946380D01*
X215002904Y-142946380D02*
X215002904Y-141946380D01*
X215098142Y-142565428D02*
X215383857Y-142946380D01*
X215383857Y-142279714D02*
X215002904Y-142660666D01*
G04 #@! TO.C,R14*
X208986380Y-130182857D02*
X208510190Y-130516190D01*
X208986380Y-130754285D02*
X207986380Y-130754285D01*
X207986380Y-130373333D01*
X208034000Y-130278095D01*
X208081619Y-130230476D01*
X208176857Y-130182857D01*
X208319714Y-130182857D01*
X208414952Y-130230476D01*
X208462571Y-130278095D01*
X208510190Y-130373333D01*
X208510190Y-130754285D01*
X208986380Y-129230476D02*
X208986380Y-129801904D01*
X208986380Y-129516190D02*
X207986380Y-129516190D01*
X208129238Y-129611428D01*
X208224476Y-129706666D01*
X208272095Y-129801904D01*
X208319714Y-128373333D02*
X208986380Y-128373333D01*
X207938761Y-128611428D02*
X208653047Y-128849523D01*
X208653047Y-128230476D01*
X212923523Y-130595714D02*
X212923523Y-131262380D01*
X212685428Y-130214761D02*
X212447333Y-130929047D01*
X213066380Y-130929047D01*
X213352095Y-130262380D02*
X214018761Y-130262380D01*
X213590190Y-131262380D01*
X214399714Y-131262380D02*
X214399714Y-130262380D01*
X214494952Y-130881428D02*
X214780666Y-131262380D01*
X214780666Y-130595714D02*
X214399714Y-130976666D01*
G04 #@! TO.C,R16*
X209240380Y-118752857D02*
X208764190Y-119086190D01*
X209240380Y-119324285D02*
X208240380Y-119324285D01*
X208240380Y-118943333D01*
X208288000Y-118848095D01*
X208335619Y-118800476D01*
X208430857Y-118752857D01*
X208573714Y-118752857D01*
X208668952Y-118800476D01*
X208716571Y-118848095D01*
X208764190Y-118943333D01*
X208764190Y-119324285D01*
X209240380Y-117800476D02*
X209240380Y-118371904D01*
X209240380Y-118086190D02*
X208240380Y-118086190D01*
X208383238Y-118181428D01*
X208478476Y-118276666D01*
X208526095Y-118371904D01*
X208240380Y-116943333D02*
X208240380Y-117133809D01*
X208288000Y-117229047D01*
X208335619Y-117276666D01*
X208478476Y-117371904D01*
X208668952Y-117419523D01*
X209049904Y-117419523D01*
X209145142Y-117371904D01*
X209192761Y-117324285D01*
X209240380Y-117229047D01*
X209240380Y-117038571D01*
X209192761Y-116943333D01*
X209145142Y-116895714D01*
X209049904Y-116848095D01*
X208811809Y-116848095D01*
X208716571Y-116895714D01*
X208668952Y-116943333D01*
X208621333Y-117038571D01*
X208621333Y-117229047D01*
X208668952Y-117324285D01*
X208716571Y-117371904D01*
X208811809Y-117419523D01*
X213963285Y-120086380D02*
X213391857Y-120086380D01*
X213677571Y-120086380D02*
X213677571Y-119086380D01*
X213582333Y-119229238D01*
X213487095Y-119324476D01*
X213391857Y-119372095D01*
X214391857Y-120086380D02*
X214391857Y-119086380D01*
X214725190Y-119800666D01*
X215058523Y-119086380D01*
X215058523Y-120086380D01*
G04 #@! TO.C,R18*
X207891142Y-145994380D02*
X207557809Y-145518190D01*
X207319714Y-145994380D02*
X207319714Y-144994380D01*
X207700666Y-144994380D01*
X207795904Y-145042000D01*
X207843523Y-145089619D01*
X207891142Y-145184857D01*
X207891142Y-145327714D01*
X207843523Y-145422952D01*
X207795904Y-145470571D01*
X207700666Y-145518190D01*
X207319714Y-145518190D01*
X208843523Y-145994380D02*
X208272095Y-145994380D01*
X208557809Y-145994380D02*
X208557809Y-144994380D01*
X208462571Y-145137238D01*
X208367333Y-145232476D01*
X208272095Y-145280095D01*
X209414952Y-145422952D02*
X209319714Y-145375333D01*
X209272095Y-145327714D01*
X209224476Y-145232476D01*
X209224476Y-145184857D01*
X209272095Y-145089619D01*
X209319714Y-145042000D01*
X209414952Y-144994380D01*
X209605428Y-144994380D01*
X209700666Y-145042000D01*
X209748285Y-145089619D01*
X209795904Y-145184857D01*
X209795904Y-145232476D01*
X209748285Y-145327714D01*
X209700666Y-145375333D01*
X209605428Y-145422952D01*
X209414952Y-145422952D01*
X209319714Y-145470571D01*
X209272095Y-145518190D01*
X209224476Y-145613428D01*
X209224476Y-145803904D01*
X209272095Y-145899142D01*
X209319714Y-145946761D01*
X209414952Y-145994380D01*
X209605428Y-145994380D01*
X209700666Y-145946761D01*
X209748285Y-145899142D01*
X209795904Y-145803904D01*
X209795904Y-145613428D01*
X209748285Y-145518190D01*
X209700666Y-145470571D01*
X209605428Y-145422952D01*
X213526761Y-145994380D02*
X212955333Y-145994380D01*
X213241047Y-145994380D02*
X213241047Y-144994380D01*
X213145809Y-145137238D01*
X213050571Y-145232476D01*
X212955333Y-145280095D01*
X214145809Y-144994380D02*
X214241047Y-144994380D01*
X214336285Y-145042000D01*
X214383904Y-145089619D01*
X214431523Y-145184857D01*
X214479142Y-145375333D01*
X214479142Y-145613428D01*
X214431523Y-145803904D01*
X214383904Y-145899142D01*
X214336285Y-145946761D01*
X214241047Y-145994380D01*
X214145809Y-145994380D01*
X214050571Y-145946761D01*
X214002952Y-145899142D01*
X213955333Y-145803904D01*
X213907714Y-145613428D01*
X213907714Y-145375333D01*
X213955333Y-145184857D01*
X214002952Y-145089619D01*
X214050571Y-145042000D01*
X214145809Y-144994380D01*
X214907714Y-145994380D02*
X214907714Y-144994380D01*
X215002952Y-145613428D02*
X215288666Y-145994380D01*
X215288666Y-145327714D02*
X214907714Y-145708666D01*
G04 #@! TO.C,R19*
X208986380Y-126880857D02*
X208510190Y-127214190D01*
X208986380Y-127452285D02*
X207986380Y-127452285D01*
X207986380Y-127071333D01*
X208034000Y-126976095D01*
X208081619Y-126928476D01*
X208176857Y-126880857D01*
X208319714Y-126880857D01*
X208414952Y-126928476D01*
X208462571Y-126976095D01*
X208510190Y-127071333D01*
X208510190Y-127452285D01*
X208986380Y-125928476D02*
X208986380Y-126499904D01*
X208986380Y-126214190D02*
X207986380Y-126214190D01*
X208129238Y-126309428D01*
X208224476Y-126404666D01*
X208272095Y-126499904D01*
X208986380Y-125452285D02*
X208986380Y-125261809D01*
X208938761Y-125166571D01*
X208891142Y-125118952D01*
X208748285Y-125023714D01*
X208557809Y-124976095D01*
X208176857Y-124976095D01*
X208081619Y-125023714D01*
X208034000Y-125071333D01*
X207986380Y-125166571D01*
X207986380Y-125357047D01*
X208034000Y-125452285D01*
X208081619Y-125499904D01*
X208176857Y-125547523D01*
X208414952Y-125547523D01*
X208510190Y-125499904D01*
X208557809Y-125452285D01*
X208605428Y-125357047D01*
X208605428Y-125166571D01*
X208557809Y-125071333D01*
X208510190Y-125023714D01*
X208414952Y-124976095D01*
X212272714Y-127960380D02*
X211939380Y-127484190D01*
X211701285Y-127960380D02*
X211701285Y-126960380D01*
X212082238Y-126960380D01*
X212177476Y-127008000D01*
X212225095Y-127055619D01*
X212272714Y-127150857D01*
X212272714Y-127293714D01*
X212225095Y-127388952D01*
X212177476Y-127436571D01*
X212082238Y-127484190D01*
X211701285Y-127484190D01*
X212463190Y-128055619D02*
X213225095Y-128055619D01*
X213606047Y-127960380D02*
X213510809Y-127912761D01*
X213463190Y-127817523D01*
X213463190Y-126960380D01*
X214367952Y-127912761D02*
X214272714Y-127960380D01*
X214082238Y-127960380D01*
X213987000Y-127912761D01*
X213939380Y-127817523D01*
X213939380Y-127436571D01*
X213987000Y-127341333D01*
X214082238Y-127293714D01*
X214272714Y-127293714D01*
X214367952Y-127341333D01*
X214415571Y-127436571D01*
X214415571Y-127531809D01*
X213939380Y-127627047D01*
X215272714Y-127960380D02*
X215272714Y-126960380D01*
X215272714Y-127912761D02*
X215177476Y-127960380D01*
X214987000Y-127960380D01*
X214891761Y-127912761D01*
X214844142Y-127865142D01*
X214796523Y-127769904D01*
X214796523Y-127484190D01*
X214844142Y-127388952D01*
X214891761Y-127341333D01*
X214987000Y-127293714D01*
X215177476Y-127293714D01*
X215272714Y-127341333D01*
G04 #@! TO.C,R20*
X208986380Y-133484857D02*
X208510190Y-133818190D01*
X208986380Y-134056285D02*
X207986380Y-134056285D01*
X207986380Y-133675333D01*
X208034000Y-133580095D01*
X208081619Y-133532476D01*
X208176857Y-133484857D01*
X208319714Y-133484857D01*
X208414952Y-133532476D01*
X208462571Y-133580095D01*
X208510190Y-133675333D01*
X208510190Y-134056285D01*
X208081619Y-133103904D02*
X208034000Y-133056285D01*
X207986380Y-132961047D01*
X207986380Y-132722952D01*
X208034000Y-132627714D01*
X208081619Y-132580095D01*
X208176857Y-132532476D01*
X208272095Y-132532476D01*
X208414952Y-132580095D01*
X208986380Y-133151523D01*
X208986380Y-132532476D01*
X207986380Y-131913428D02*
X207986380Y-131818190D01*
X208034000Y-131722952D01*
X208081619Y-131675333D01*
X208176857Y-131627714D01*
X208367333Y-131580095D01*
X208605428Y-131580095D01*
X208795904Y-131627714D01*
X208891142Y-131675333D01*
X208938761Y-131722952D01*
X208986380Y-131818190D01*
X208986380Y-131913428D01*
X208938761Y-132008666D01*
X208891142Y-132056285D01*
X208795904Y-132103904D01*
X208605428Y-132151523D01*
X208367333Y-132151523D01*
X208176857Y-132103904D01*
X208081619Y-132056285D01*
X208034000Y-132008666D01*
X207986380Y-131913428D01*
X212542571Y-134564380D02*
X211971142Y-134564380D01*
X212256857Y-134564380D02*
X212256857Y-133564380D01*
X212161619Y-133707238D01*
X212066380Y-133802476D01*
X211971142Y-133850095D01*
X213161619Y-133564380D02*
X213256857Y-133564380D01*
X213352095Y-133612000D01*
X213399714Y-133659619D01*
X213447333Y-133754857D01*
X213494952Y-133945333D01*
X213494952Y-134183428D01*
X213447333Y-134373904D01*
X213399714Y-134469142D01*
X213352095Y-134516761D01*
X213256857Y-134564380D01*
X213161619Y-134564380D01*
X213066380Y-134516761D01*
X213018761Y-134469142D01*
X212971142Y-134373904D01*
X212923523Y-134183428D01*
X212923523Y-133945333D01*
X212971142Y-133754857D01*
X213018761Y-133659619D01*
X213066380Y-133612000D01*
X213161619Y-133564380D01*
X214114000Y-133564380D02*
X214209238Y-133564380D01*
X214304476Y-133612000D01*
X214352095Y-133659619D01*
X214399714Y-133754857D01*
X214447333Y-133945333D01*
X214447333Y-134183428D01*
X214399714Y-134373904D01*
X214352095Y-134469142D01*
X214304476Y-134516761D01*
X214209238Y-134564380D01*
X214114000Y-134564380D01*
X214018761Y-134516761D01*
X213971142Y-134469142D01*
X213923523Y-134373904D01*
X213875904Y-134183428D01*
X213875904Y-133945333D01*
X213923523Y-133754857D01*
X213971142Y-133659619D01*
X214018761Y-133612000D01*
X214114000Y-133564380D01*
X214875904Y-134564380D02*
X214875904Y-133564380D01*
X214971142Y-134183428D02*
X215256857Y-134564380D01*
X215256857Y-133897714D02*
X214875904Y-134278666D01*
G04 #@! TO.C,R23*
X205351142Y-87066380D02*
X205017809Y-86590190D01*
X204779714Y-87066380D02*
X204779714Y-86066380D01*
X205160666Y-86066380D01*
X205255904Y-86114000D01*
X205303523Y-86161619D01*
X205351142Y-86256857D01*
X205351142Y-86399714D01*
X205303523Y-86494952D01*
X205255904Y-86542571D01*
X205160666Y-86590190D01*
X204779714Y-86590190D01*
X205732095Y-86161619D02*
X205779714Y-86114000D01*
X205874952Y-86066380D01*
X206113047Y-86066380D01*
X206208285Y-86114000D01*
X206255904Y-86161619D01*
X206303523Y-86256857D01*
X206303523Y-86352095D01*
X206255904Y-86494952D01*
X205684476Y-87066380D01*
X206303523Y-87066380D01*
X206636857Y-86066380D02*
X207255904Y-86066380D01*
X206922571Y-86447333D01*
X207065428Y-86447333D01*
X207160666Y-86494952D01*
X207208285Y-86542571D01*
X207255904Y-86637809D01*
X207255904Y-86875904D01*
X207208285Y-86971142D01*
X207160666Y-87018761D01*
X207065428Y-87066380D01*
X206779714Y-87066380D01*
X206684476Y-87018761D01*
X206636857Y-86971142D01*
X208970714Y-87066380D02*
X208637380Y-86590190D01*
X208399285Y-87066380D02*
X208399285Y-86066380D01*
X208780238Y-86066380D01*
X208875476Y-86114000D01*
X208923095Y-86161619D01*
X208970714Y-86256857D01*
X208970714Y-86399714D01*
X208923095Y-86494952D01*
X208875476Y-86542571D01*
X208780238Y-86590190D01*
X208399285Y-86590190D01*
X209161190Y-87161619D02*
X209923095Y-87161619D01*
X210304047Y-87066380D02*
X210208809Y-87018761D01*
X210161190Y-86923523D01*
X210161190Y-86066380D01*
X211065952Y-87018761D02*
X210970714Y-87066380D01*
X210780238Y-87066380D01*
X210685000Y-87018761D01*
X210637380Y-86923523D01*
X210637380Y-86542571D01*
X210685000Y-86447333D01*
X210780238Y-86399714D01*
X210970714Y-86399714D01*
X211065952Y-86447333D01*
X211113571Y-86542571D01*
X211113571Y-86637809D01*
X210637380Y-86733047D01*
X211970714Y-87066380D02*
X211970714Y-86066380D01*
X211970714Y-87018761D02*
X211875476Y-87066380D01*
X211685000Y-87066380D01*
X211589761Y-87018761D01*
X211542142Y-86971142D01*
X211494523Y-86875904D01*
X211494523Y-86590190D01*
X211542142Y-86494952D01*
X211589761Y-86447333D01*
X211685000Y-86399714D01*
X211875476Y-86399714D01*
X211970714Y-86447333D01*
G04 #@! TO.C,R25*
X205224142Y-80335380D02*
X204890809Y-79859190D01*
X204652714Y-80335380D02*
X204652714Y-79335380D01*
X205033666Y-79335380D01*
X205128904Y-79383000D01*
X205176523Y-79430619D01*
X205224142Y-79525857D01*
X205224142Y-79668714D01*
X205176523Y-79763952D01*
X205128904Y-79811571D01*
X205033666Y-79859190D01*
X204652714Y-79859190D01*
X205605095Y-79430619D02*
X205652714Y-79383000D01*
X205747952Y-79335380D01*
X205986047Y-79335380D01*
X206081285Y-79383000D01*
X206128904Y-79430619D01*
X206176523Y-79525857D01*
X206176523Y-79621095D01*
X206128904Y-79763952D01*
X205557476Y-80335380D01*
X206176523Y-80335380D01*
X207081285Y-79335380D02*
X206605095Y-79335380D01*
X206557476Y-79811571D01*
X206605095Y-79763952D01*
X206700333Y-79716333D01*
X206938428Y-79716333D01*
X207033666Y-79763952D01*
X207081285Y-79811571D01*
X207128904Y-79906809D01*
X207128904Y-80144904D01*
X207081285Y-80240142D01*
X207033666Y-80287761D01*
X206938428Y-80335380D01*
X206700333Y-80335380D01*
X206605095Y-80287761D01*
X206557476Y-80240142D01*
X208758404Y-80335380D02*
X208186976Y-80335380D01*
X208472690Y-80335380D02*
X208472690Y-79335380D01*
X208377452Y-79478238D01*
X208282214Y-79573476D01*
X208186976Y-79621095D01*
X209377452Y-79335380D02*
X209472690Y-79335380D01*
X209567928Y-79383000D01*
X209615547Y-79430619D01*
X209663166Y-79525857D01*
X209710785Y-79716333D01*
X209710785Y-79954428D01*
X209663166Y-80144904D01*
X209615547Y-80240142D01*
X209567928Y-80287761D01*
X209472690Y-80335380D01*
X209377452Y-80335380D01*
X209282214Y-80287761D01*
X209234595Y-80240142D01*
X209186976Y-80144904D01*
X209139357Y-79954428D01*
X209139357Y-79716333D01*
X209186976Y-79525857D01*
X209234595Y-79430619D01*
X209282214Y-79383000D01*
X209377452Y-79335380D01*
X210329833Y-79335380D02*
X210425071Y-79335380D01*
X210520309Y-79383000D01*
X210567928Y-79430619D01*
X210615547Y-79525857D01*
X210663166Y-79716333D01*
X210663166Y-79954428D01*
X210615547Y-80144904D01*
X210567928Y-80240142D01*
X210520309Y-80287761D01*
X210425071Y-80335380D01*
X210329833Y-80335380D01*
X210234595Y-80287761D01*
X210186976Y-80240142D01*
X210139357Y-80144904D01*
X210091738Y-79954428D01*
X210091738Y-79716333D01*
X210139357Y-79525857D01*
X210186976Y-79430619D01*
X210234595Y-79383000D01*
X210329833Y-79335380D01*
X211091738Y-80335380D02*
X211091738Y-79335380D01*
X211186976Y-79954428D02*
X211472690Y-80335380D01*
X211472690Y-79668714D02*
X211091738Y-80049666D01*
X212663166Y-80240142D02*
X212710785Y-80287761D01*
X212663166Y-80335380D01*
X212615547Y-80287761D01*
X212663166Y-80240142D01*
X212663166Y-80335380D01*
X213663166Y-80335380D02*
X213091738Y-80335380D01*
X213377452Y-80335380D02*
X213377452Y-79335380D01*
X213282214Y-79478238D01*
X213186976Y-79573476D01*
X213091738Y-79621095D01*
X214044119Y-80335380D02*
X214806023Y-79335380D01*
X214186976Y-79335380D02*
X214282214Y-79383000D01*
X214329833Y-79478238D01*
X214282214Y-79573476D01*
X214186976Y-79621095D01*
X214091738Y-79573476D01*
X214044119Y-79478238D01*
X214091738Y-79383000D01*
X214186976Y-79335380D01*
X214758404Y-80287761D02*
X214806023Y-80192523D01*
X214758404Y-80097285D01*
X214663166Y-80049666D01*
X214567928Y-80097285D01*
X214520309Y-80192523D01*
X214567928Y-80287761D01*
X214663166Y-80335380D01*
X214758404Y-80287761D01*
G04 #@! TO.C,R27*
X207764142Y-154630380D02*
X207430809Y-154154190D01*
X207192714Y-154630380D02*
X207192714Y-153630380D01*
X207573666Y-153630380D01*
X207668904Y-153678000D01*
X207716523Y-153725619D01*
X207764142Y-153820857D01*
X207764142Y-153963714D01*
X207716523Y-154058952D01*
X207668904Y-154106571D01*
X207573666Y-154154190D01*
X207192714Y-154154190D01*
X208145095Y-153725619D02*
X208192714Y-153678000D01*
X208287952Y-153630380D01*
X208526047Y-153630380D01*
X208621285Y-153678000D01*
X208668904Y-153725619D01*
X208716523Y-153820857D01*
X208716523Y-153916095D01*
X208668904Y-154058952D01*
X208097476Y-154630380D01*
X208716523Y-154630380D01*
X209049857Y-153630380D02*
X209716523Y-153630380D01*
X209287952Y-154630380D01*
X205087119Y-154376380D02*
X204515690Y-154376380D01*
X204801404Y-154376380D02*
X204801404Y-153376380D01*
X204706166Y-153519238D01*
X204610928Y-153614476D01*
X204515690Y-153662095D01*
X205706166Y-153376380D02*
X205801404Y-153376380D01*
X205896642Y-153424000D01*
X205944261Y-153471619D01*
X205991880Y-153566857D01*
X206039500Y-153757333D01*
X206039500Y-153995428D01*
X205991880Y-154185904D01*
X205944261Y-154281142D01*
X205896642Y-154328761D01*
X205801404Y-154376380D01*
X205706166Y-154376380D01*
X205610928Y-154328761D01*
X205563309Y-154281142D01*
X205515690Y-154185904D01*
X205468071Y-153995428D01*
X205468071Y-153757333D01*
X205515690Y-153566857D01*
X205563309Y-153471619D01*
X205610928Y-153424000D01*
X205706166Y-153376380D01*
X206468071Y-154376380D02*
X206468071Y-153376380D01*
X206563309Y-153995428D02*
X206849023Y-154376380D01*
X206849023Y-153709714D02*
X206468071Y-154090666D01*
G04 #@! TO.C,R28*
X196842142Y-150058380D02*
X196508809Y-149582190D01*
X196270714Y-150058380D02*
X196270714Y-149058380D01*
X196651666Y-149058380D01*
X196746904Y-149106000D01*
X196794523Y-149153619D01*
X196842142Y-149248857D01*
X196842142Y-149391714D01*
X196794523Y-149486952D01*
X196746904Y-149534571D01*
X196651666Y-149582190D01*
X196270714Y-149582190D01*
X197223095Y-149153619D02*
X197270714Y-149106000D01*
X197365952Y-149058380D01*
X197604047Y-149058380D01*
X197699285Y-149106000D01*
X197746904Y-149153619D01*
X197794523Y-149248857D01*
X197794523Y-149344095D01*
X197746904Y-149486952D01*
X197175476Y-150058380D01*
X197794523Y-150058380D01*
X198365952Y-149486952D02*
X198270714Y-149439333D01*
X198223095Y-149391714D01*
X198175476Y-149296476D01*
X198175476Y-149248857D01*
X198223095Y-149153619D01*
X198270714Y-149106000D01*
X198365952Y-149058380D01*
X198556428Y-149058380D01*
X198651666Y-149106000D01*
X198699285Y-149153619D01*
X198746904Y-149248857D01*
X198746904Y-149296476D01*
X198699285Y-149391714D01*
X198651666Y-149439333D01*
X198556428Y-149486952D01*
X198365952Y-149486952D01*
X198270714Y-149534571D01*
X198223095Y-149582190D01*
X198175476Y-149677428D01*
X198175476Y-149867904D01*
X198223095Y-149963142D01*
X198270714Y-150010761D01*
X198365952Y-150058380D01*
X198556428Y-150058380D01*
X198651666Y-150010761D01*
X198699285Y-149963142D01*
X198746904Y-149867904D01*
X198746904Y-149677428D01*
X198699285Y-149582190D01*
X198651666Y-149534571D01*
X198556428Y-149486952D01*
X196794571Y-151328380D02*
X196223142Y-151328380D01*
X196508857Y-151328380D02*
X196508857Y-150328380D01*
X196413619Y-150471238D01*
X196318380Y-150566476D01*
X196223142Y-150614095D01*
X197413619Y-150328380D02*
X197508857Y-150328380D01*
X197604095Y-150376000D01*
X197651714Y-150423619D01*
X197699333Y-150518857D01*
X197746952Y-150709333D01*
X197746952Y-150947428D01*
X197699333Y-151137904D01*
X197651714Y-151233142D01*
X197604095Y-151280761D01*
X197508857Y-151328380D01*
X197413619Y-151328380D01*
X197318380Y-151280761D01*
X197270761Y-151233142D01*
X197223142Y-151137904D01*
X197175523Y-150947428D01*
X197175523Y-150709333D01*
X197223142Y-150518857D01*
X197270761Y-150423619D01*
X197318380Y-150376000D01*
X197413619Y-150328380D01*
X198366000Y-150328380D02*
X198461238Y-150328380D01*
X198556476Y-150376000D01*
X198604095Y-150423619D01*
X198651714Y-150518857D01*
X198699333Y-150709333D01*
X198699333Y-150947428D01*
X198651714Y-151137904D01*
X198604095Y-151233142D01*
X198556476Y-151280761D01*
X198461238Y-151328380D01*
X198366000Y-151328380D01*
X198270761Y-151280761D01*
X198223142Y-151233142D01*
X198175523Y-151137904D01*
X198127904Y-150947428D01*
X198127904Y-150709333D01*
X198175523Y-150518857D01*
X198223142Y-150423619D01*
X198270761Y-150376000D01*
X198366000Y-150328380D01*
X199127904Y-151328380D02*
X199127904Y-150328380D01*
X199223142Y-150947428D02*
X199508857Y-151328380D01*
X199508857Y-150661714D02*
X199127904Y-151042666D01*
G04 #@! TO.C,D5*
X211351904Y-113355380D02*
X211351904Y-112355380D01*
X211590000Y-112355380D01*
X211732857Y-112403000D01*
X211828095Y-112498238D01*
X211875714Y-112593476D01*
X211923333Y-112783952D01*
X211923333Y-112926809D01*
X211875714Y-113117285D01*
X211828095Y-113212523D01*
X211732857Y-113307761D01*
X211590000Y-113355380D01*
X211351904Y-113355380D01*
X212828095Y-112355380D02*
X212351904Y-112355380D01*
X212304285Y-112831571D01*
X212351904Y-112783952D01*
X212447142Y-112736333D01*
X212685238Y-112736333D01*
X212780476Y-112783952D01*
X212828095Y-112831571D01*
X212875714Y-112926809D01*
X212875714Y-113164904D01*
X212828095Y-113260142D01*
X212780476Y-113307761D01*
X212685238Y-113355380D01*
X212447142Y-113355380D01*
X212351904Y-113307761D01*
X212304285Y-113260142D01*
G04 #@! TO.C,D4*
X196492904Y-134183380D02*
X196492904Y-133183380D01*
X196731000Y-133183380D01*
X196873857Y-133231000D01*
X196969095Y-133326238D01*
X197016714Y-133421476D01*
X197064333Y-133611952D01*
X197064333Y-133754809D01*
X197016714Y-133945285D01*
X196969095Y-134040523D01*
X196873857Y-134135761D01*
X196731000Y-134183380D01*
X196492904Y-134183380D01*
X197921476Y-133516714D02*
X197921476Y-134183380D01*
X197683380Y-133135761D02*
X197445285Y-133850047D01*
X198064333Y-133850047D01*
G04 #@! TO.C,D2*
X205255904Y-134183380D02*
X205255904Y-133183380D01*
X205494000Y-133183380D01*
X205636857Y-133231000D01*
X205732095Y-133326238D01*
X205779714Y-133421476D01*
X205827333Y-133611952D01*
X205827333Y-133754809D01*
X205779714Y-133945285D01*
X205732095Y-134040523D01*
X205636857Y-134135761D01*
X205494000Y-134183380D01*
X205255904Y-134183380D01*
X206208285Y-133278619D02*
X206255904Y-133231000D01*
X206351142Y-133183380D01*
X206589238Y-133183380D01*
X206684476Y-133231000D01*
X206732095Y-133278619D01*
X206779714Y-133373857D01*
X206779714Y-133469095D01*
X206732095Y-133611952D01*
X206160666Y-134183380D01*
X206779714Y-134183380D01*
G04 #@! TO.C,D1*
X205255904Y-127071380D02*
X205255904Y-126071380D01*
X205494000Y-126071380D01*
X205636857Y-126119000D01*
X205732095Y-126214238D01*
X205779714Y-126309476D01*
X205827333Y-126499952D01*
X205827333Y-126642809D01*
X205779714Y-126833285D01*
X205732095Y-126928523D01*
X205636857Y-127023761D01*
X205494000Y-127071380D01*
X205255904Y-127071380D01*
X206779714Y-127071380D02*
X206208285Y-127071380D01*
X206494000Y-127071380D02*
X206494000Y-126071380D01*
X206398761Y-126214238D01*
X206303523Y-126309476D01*
X206208285Y-126357095D01*
G04 #@! TO.C,D3*
X196365904Y-127071380D02*
X196365904Y-126071380D01*
X196604000Y-126071380D01*
X196746857Y-126119000D01*
X196842095Y-126214238D01*
X196889714Y-126309476D01*
X196937333Y-126499952D01*
X196937333Y-126642809D01*
X196889714Y-126833285D01*
X196842095Y-126928523D01*
X196746857Y-127023761D01*
X196604000Y-127071380D01*
X196365904Y-127071380D01*
X197270666Y-126071380D02*
X197889714Y-126071380D01*
X197556380Y-126452333D01*
X197699238Y-126452333D01*
X197794476Y-126499952D01*
X197842095Y-126547571D01*
X197889714Y-126642809D01*
X197889714Y-126880904D01*
X197842095Y-126976142D01*
X197794476Y-127023761D01*
X197699238Y-127071380D01*
X197413523Y-127071380D01*
X197318285Y-127023761D01*
X197270666Y-126976142D01*
G04 #@! TO.C,J10*
X197183476Y-86784380D02*
X197183476Y-87498666D01*
X197135857Y-87641523D01*
X197040619Y-87736761D01*
X196897761Y-87784380D01*
X196802523Y-87784380D01*
X198183476Y-87784380D02*
X197612047Y-87784380D01*
X197897761Y-87784380D02*
X197897761Y-86784380D01*
X197802523Y-86927238D01*
X197707285Y-87022476D01*
X197612047Y-87070095D01*
X198802523Y-86784380D02*
X198897761Y-86784380D01*
X198993000Y-86832000D01*
X199040619Y-86879619D01*
X199088238Y-86974857D01*
X199135857Y-87165333D01*
X199135857Y-87403428D01*
X199088238Y-87593904D01*
X199040619Y-87689142D01*
X198993000Y-87736761D01*
X198897761Y-87784380D01*
X198802523Y-87784380D01*
X198707285Y-87736761D01*
X198659666Y-87689142D01*
X198612047Y-87593904D01*
X198564428Y-87403428D01*
X198564428Y-87165333D01*
X198612047Y-86974857D01*
X198659666Y-86879619D01*
X198707285Y-86832000D01*
X198802523Y-86784380D01*
G04 #@! TO.C,J11*
X212677476Y-86784380D02*
X212677476Y-87498666D01*
X212629857Y-87641523D01*
X212534619Y-87736761D01*
X212391761Y-87784380D01*
X212296523Y-87784380D01*
X213677476Y-87784380D02*
X213106047Y-87784380D01*
X213391761Y-87784380D02*
X213391761Y-86784380D01*
X213296523Y-86927238D01*
X213201285Y-87022476D01*
X213106047Y-87070095D01*
X214629857Y-87784380D02*
X214058428Y-87784380D01*
X214344142Y-87784380D02*
X214344142Y-86784380D01*
X214248904Y-86927238D01*
X214153666Y-87022476D01*
X214058428Y-87070095D01*
G04 #@! TO.C,C12*
X198239142Y-148566142D02*
X198191523Y-148613761D01*
X198048666Y-148661380D01*
X197953428Y-148661380D01*
X197810571Y-148613761D01*
X197715333Y-148518523D01*
X197667714Y-148423285D01*
X197620095Y-148232809D01*
X197620095Y-148089952D01*
X197667714Y-147899476D01*
X197715333Y-147804238D01*
X197810571Y-147709000D01*
X197953428Y-147661380D01*
X198048666Y-147661380D01*
X198191523Y-147709000D01*
X198239142Y-147756619D01*
X199191523Y-148661380D02*
X198620095Y-148661380D01*
X198905809Y-148661380D02*
X198905809Y-147661380D01*
X198810571Y-147804238D01*
X198715333Y-147899476D01*
X198620095Y-147947095D01*
X199572476Y-147756619D02*
X199620095Y-147709000D01*
X199715333Y-147661380D01*
X199953428Y-147661380D01*
X200048666Y-147709000D01*
X200096285Y-147756619D01*
X200143904Y-147851857D01*
X200143904Y-147947095D01*
X200096285Y-148089952D01*
X199524857Y-148661380D01*
X200143904Y-148661380D01*
X202954047Y-149296380D02*
X202382619Y-149296380D01*
X202668333Y-149296380D02*
X202668333Y-148296380D01*
X202573095Y-148439238D01*
X202477857Y-148534476D01*
X202382619Y-148582095D01*
X203382619Y-149201142D02*
X203430238Y-149248761D01*
X203382619Y-149296380D01*
X203335000Y-149248761D01*
X203382619Y-149201142D01*
X203382619Y-149296380D01*
X204001666Y-148724952D02*
X203906428Y-148677333D01*
X203858809Y-148629714D01*
X203811190Y-148534476D01*
X203811190Y-148486857D01*
X203858809Y-148391619D01*
X203906428Y-148344000D01*
X204001666Y-148296380D01*
X204192142Y-148296380D01*
X204287380Y-148344000D01*
X204335000Y-148391619D01*
X204382619Y-148486857D01*
X204382619Y-148534476D01*
X204335000Y-148629714D01*
X204287380Y-148677333D01*
X204192142Y-148724952D01*
X204001666Y-148724952D01*
X203906428Y-148772571D01*
X203858809Y-148820190D01*
X203811190Y-148915428D01*
X203811190Y-149105904D01*
X203858809Y-149201142D01*
X203906428Y-149248761D01*
X204001666Y-149296380D01*
X204192142Y-149296380D01*
X204287380Y-149248761D01*
X204335000Y-149201142D01*
X204382619Y-149105904D01*
X204382619Y-148915428D01*
X204335000Y-148820190D01*
X204287380Y-148772571D01*
X204192142Y-148724952D01*
X204811190Y-148629714D02*
X204811190Y-149296380D01*
X204811190Y-148724952D02*
X204858809Y-148677333D01*
X204954047Y-148629714D01*
X205096904Y-148629714D01*
X205192142Y-148677333D01*
X205239761Y-148772571D01*
X205239761Y-149296380D01*
G04 #@! TO.C,U3*
X203708095Y-64603380D02*
X203708095Y-65412904D01*
X203755714Y-65508142D01*
X203803333Y-65555761D01*
X203898571Y-65603380D01*
X204089047Y-65603380D01*
X204184285Y-65555761D01*
X204231904Y-65508142D01*
X204279523Y-65412904D01*
X204279523Y-64603380D01*
X204660476Y-64603380D02*
X205279523Y-64603380D01*
X204946190Y-64984333D01*
X205089047Y-64984333D01*
X205184285Y-65031952D01*
X205231904Y-65079571D01*
X205279523Y-65174809D01*
X205279523Y-65412904D01*
X205231904Y-65508142D01*
X205184285Y-65555761D01*
X205089047Y-65603380D01*
X204803333Y-65603380D01*
X204708095Y-65555761D01*
X204660476Y-65508142D01*
X202398380Y-69476666D02*
X202398380Y-68810000D01*
X203398380Y-69238571D01*
X202826952Y-68286190D02*
X202779333Y-68381428D01*
X202731714Y-68429047D01*
X202636476Y-68476666D01*
X202588857Y-68476666D01*
X202493619Y-68429047D01*
X202446000Y-68381428D01*
X202398380Y-68286190D01*
X202398380Y-68095714D01*
X202446000Y-68000476D01*
X202493619Y-67952857D01*
X202588857Y-67905238D01*
X202636476Y-67905238D01*
X202731714Y-67952857D01*
X202779333Y-68000476D01*
X202826952Y-68095714D01*
X202826952Y-68286190D01*
X202874571Y-68381428D01*
X202922190Y-68429047D01*
X203017428Y-68476666D01*
X203207904Y-68476666D01*
X203303142Y-68429047D01*
X203350761Y-68381428D01*
X203398380Y-68286190D01*
X203398380Y-68095714D01*
X203350761Y-68000476D01*
X203303142Y-67952857D01*
X203207904Y-67905238D01*
X203017428Y-67905238D01*
X202922190Y-67952857D01*
X202874571Y-68000476D01*
X202826952Y-68095714D01*
X203398380Y-67000476D02*
X203398380Y-67476666D01*
X202398380Y-67476666D01*
X202398380Y-66476666D02*
X202398380Y-66381428D01*
X202446000Y-66286190D01*
X202493619Y-66238571D01*
X202588857Y-66190952D01*
X202779333Y-66143333D01*
X203017428Y-66143333D01*
X203207904Y-66190952D01*
X203303142Y-66238571D01*
X203350761Y-66286190D01*
X203398380Y-66381428D01*
X203398380Y-66476666D01*
X203350761Y-66571904D01*
X203303142Y-66619523D01*
X203207904Y-66667142D01*
X203017428Y-66714761D01*
X202779333Y-66714761D01*
X202588857Y-66667142D01*
X202493619Y-66619523D01*
X202446000Y-66571904D01*
X202398380Y-66476666D01*
X202398380Y-65238571D02*
X202398380Y-65714761D01*
X202874571Y-65762380D01*
X202826952Y-65714761D01*
X202779333Y-65619523D01*
X202779333Y-65381428D01*
X202826952Y-65286190D01*
X202874571Y-65238571D01*
X202969809Y-65190952D01*
X203207904Y-65190952D01*
X203303142Y-65238571D01*
X203350761Y-65286190D01*
X203398380Y-65381428D01*
X203398380Y-65619523D01*
X203350761Y-65714761D01*
X203303142Y-65762380D01*
G04 #@! TO.C,U4*
X207264095Y-72350380D02*
X207264095Y-73159904D01*
X207311714Y-73255142D01*
X207359333Y-73302761D01*
X207454571Y-73350380D01*
X207645047Y-73350380D01*
X207740285Y-73302761D01*
X207787904Y-73255142D01*
X207835523Y-73159904D01*
X207835523Y-72350380D01*
X208740285Y-72683714D02*
X208740285Y-73350380D01*
X208502190Y-72302761D02*
X208264095Y-73017047D01*
X208883142Y-73017047D01*
X202398380Y-74556666D02*
X202398380Y-73890000D01*
X203398380Y-74318571D01*
X203398380Y-73461428D02*
X203398380Y-73270952D01*
X203350761Y-73175714D01*
X203303142Y-73128095D01*
X203160285Y-73032857D01*
X202969809Y-72985238D01*
X202588857Y-72985238D01*
X202493619Y-73032857D01*
X202446000Y-73080476D01*
X202398380Y-73175714D01*
X202398380Y-73366190D01*
X202446000Y-73461428D01*
X202493619Y-73509047D01*
X202588857Y-73556666D01*
X202826952Y-73556666D01*
X202922190Y-73509047D01*
X202969809Y-73461428D01*
X203017428Y-73366190D01*
X203017428Y-73175714D01*
X202969809Y-73080476D01*
X202922190Y-73032857D01*
X202826952Y-72985238D01*
X203398380Y-72080476D02*
X203398380Y-72556666D01*
X202398380Y-72556666D01*
X202398380Y-71556666D02*
X202398380Y-71461428D01*
X202446000Y-71366190D01*
X202493619Y-71318571D01*
X202588857Y-71270952D01*
X202779333Y-71223333D01*
X203017428Y-71223333D01*
X203207904Y-71270952D01*
X203303142Y-71318571D01*
X203350761Y-71366190D01*
X203398380Y-71461428D01*
X203398380Y-71556666D01*
X203350761Y-71651904D01*
X203303142Y-71699523D01*
X203207904Y-71747142D01*
X203017428Y-71794761D01*
X202779333Y-71794761D01*
X202588857Y-71747142D01*
X202493619Y-71699523D01*
X202446000Y-71651904D01*
X202398380Y-71556666D01*
X202398380Y-70318571D02*
X202398380Y-70794761D01*
X202874571Y-70842380D01*
X202826952Y-70794761D01*
X202779333Y-70699523D01*
X202779333Y-70461428D01*
X202826952Y-70366190D01*
X202874571Y-70318571D01*
X202969809Y-70270952D01*
X203207904Y-70270952D01*
X203303142Y-70318571D01*
X203350761Y-70366190D01*
X203398380Y-70461428D01*
X203398380Y-70699523D01*
X203350761Y-70794761D01*
X203303142Y-70842380D01*
G04 #@! TO.C,C4*
X196937333Y-74739142D02*
X196889714Y-74786761D01*
X196746857Y-74834380D01*
X196651619Y-74834380D01*
X196508761Y-74786761D01*
X196413523Y-74691523D01*
X196365904Y-74596285D01*
X196318285Y-74405809D01*
X196318285Y-74262952D01*
X196365904Y-74072476D01*
X196413523Y-73977238D01*
X196508761Y-73882000D01*
X196651619Y-73834380D01*
X196746857Y-73834380D01*
X196889714Y-73882000D01*
X196937333Y-73929619D01*
X197794476Y-74167714D02*
X197794476Y-74834380D01*
X197556380Y-73786761D02*
X197318285Y-74501047D01*
X197937333Y-74501047D01*
G04 #@! TO.C,C10*
X207637142Y-137009142D02*
X207589523Y-137056761D01*
X207446666Y-137104380D01*
X207351428Y-137104380D01*
X207208571Y-137056761D01*
X207113333Y-136961523D01*
X207065714Y-136866285D01*
X207018095Y-136675809D01*
X207018095Y-136532952D01*
X207065714Y-136342476D01*
X207113333Y-136247238D01*
X207208571Y-136152000D01*
X207351428Y-136104380D01*
X207446666Y-136104380D01*
X207589523Y-136152000D01*
X207637142Y-136199619D01*
X208589523Y-137104380D02*
X208018095Y-137104380D01*
X208303809Y-137104380D02*
X208303809Y-136104380D01*
X208208571Y-136247238D01*
X208113333Y-136342476D01*
X208018095Y-136390095D01*
X209208571Y-136104380D02*
X209303809Y-136104380D01*
X209399047Y-136152000D01*
X209446666Y-136199619D01*
X209494285Y-136294857D01*
X209541904Y-136485333D01*
X209541904Y-136723428D01*
X209494285Y-136913904D01*
X209446666Y-137009142D01*
X209399047Y-137056761D01*
X209303809Y-137104380D01*
X209208571Y-137104380D01*
X209113333Y-137056761D01*
X209065714Y-137009142D01*
X209018095Y-136913904D01*
X208970476Y-136723428D01*
X208970476Y-136485333D01*
X209018095Y-136294857D01*
X209065714Y-136199619D01*
X209113333Y-136152000D01*
X209208571Y-136104380D01*
G04 #@! TO.C,C9*
X214082333Y-107418142D02*
X214034714Y-107465761D01*
X213891857Y-107513380D01*
X213796619Y-107513380D01*
X213653761Y-107465761D01*
X213558523Y-107370523D01*
X213510904Y-107275285D01*
X213463285Y-107084809D01*
X213463285Y-106941952D01*
X213510904Y-106751476D01*
X213558523Y-106656238D01*
X213653761Y-106561000D01*
X213796619Y-106513380D01*
X213891857Y-106513380D01*
X214034714Y-106561000D01*
X214082333Y-106608619D01*
X214558523Y-107513380D02*
X214749000Y-107513380D01*
X214844238Y-107465761D01*
X214891857Y-107418142D01*
X214987095Y-107275285D01*
X215034714Y-107084809D01*
X215034714Y-106703857D01*
X214987095Y-106608619D01*
X214939476Y-106561000D01*
X214844238Y-106513380D01*
X214653761Y-106513380D01*
X214558523Y-106561000D01*
X214510904Y-106608619D01*
X214463285Y-106703857D01*
X214463285Y-106941952D01*
X214510904Y-107037190D01*
X214558523Y-107084809D01*
X214653761Y-107132428D01*
X214844238Y-107132428D01*
X214939476Y-107084809D01*
X214987095Y-107037190D01*
X215034714Y-106941952D01*
G04 #@! TO.C,C8*
X197064333Y-107418142D02*
X197016714Y-107465761D01*
X196873857Y-107513380D01*
X196778619Y-107513380D01*
X196635761Y-107465761D01*
X196540523Y-107370523D01*
X196492904Y-107275285D01*
X196445285Y-107084809D01*
X196445285Y-106941952D01*
X196492904Y-106751476D01*
X196540523Y-106656238D01*
X196635761Y-106561000D01*
X196778619Y-106513380D01*
X196873857Y-106513380D01*
X197016714Y-106561000D01*
X197064333Y-106608619D01*
X197635761Y-106941952D02*
X197540523Y-106894333D01*
X197492904Y-106846714D01*
X197445285Y-106751476D01*
X197445285Y-106703857D01*
X197492904Y-106608619D01*
X197540523Y-106561000D01*
X197635761Y-106513380D01*
X197826238Y-106513380D01*
X197921476Y-106561000D01*
X197969095Y-106608619D01*
X198016714Y-106703857D01*
X198016714Y-106751476D01*
X197969095Y-106846714D01*
X197921476Y-106894333D01*
X197826238Y-106941952D01*
X197635761Y-106941952D01*
X197540523Y-106989571D01*
X197492904Y-107037190D01*
X197445285Y-107132428D01*
X197445285Y-107322904D01*
X197492904Y-107418142D01*
X197540523Y-107465761D01*
X197635761Y-107513380D01*
X197826238Y-107513380D01*
X197921476Y-107465761D01*
X197969095Y-107418142D01*
X198016714Y-107322904D01*
X198016714Y-107132428D01*
X197969095Y-107037190D01*
X197921476Y-106989571D01*
X197826238Y-106941952D01*
G04 #@! TO.C,C6*
X200493333Y-74779142D02*
X200445714Y-74826761D01*
X200302857Y-74874380D01*
X200207619Y-74874380D01*
X200064761Y-74826761D01*
X199969523Y-74731523D01*
X199921904Y-74636285D01*
X199874285Y-74445809D01*
X199874285Y-74302952D01*
X199921904Y-74112476D01*
X199969523Y-74017238D01*
X200064761Y-73922000D01*
X200207619Y-73874380D01*
X200302857Y-73874380D01*
X200445714Y-73922000D01*
X200493333Y-73969619D01*
X201350476Y-73874380D02*
X201160000Y-73874380D01*
X201064761Y-73922000D01*
X201017142Y-73969619D01*
X200921904Y-74112476D01*
X200874285Y-74302952D01*
X200874285Y-74683904D01*
X200921904Y-74779142D01*
X200969523Y-74826761D01*
X201064761Y-74874380D01*
X201255238Y-74874380D01*
X201350476Y-74826761D01*
X201398095Y-74779142D01*
X201445714Y-74683904D01*
X201445714Y-74445809D01*
X201398095Y-74350571D01*
X201350476Y-74302952D01*
X201255238Y-74255333D01*
X201064761Y-74255333D01*
X200969523Y-74302952D01*
X200921904Y-74350571D01*
X200874285Y-74445809D01*
G04 #@! TO.C,D11*
X203144380Y-63698285D02*
X202144380Y-63698285D01*
X202144380Y-63460190D01*
X202192000Y-63317333D01*
X202287238Y-63222095D01*
X202382476Y-63174476D01*
X202572952Y-63126857D01*
X202715809Y-63126857D01*
X202906285Y-63174476D01*
X203001523Y-63222095D01*
X203096761Y-63317333D01*
X203144380Y-63460190D01*
X203144380Y-63698285D01*
X203144380Y-62174476D02*
X203144380Y-62745904D01*
X203144380Y-62460190D02*
X202144380Y-62460190D01*
X202287238Y-62555428D01*
X202382476Y-62650666D01*
X202430095Y-62745904D01*
X203144380Y-61222095D02*
X203144380Y-61793523D01*
X203144380Y-61507809D02*
X202144380Y-61507809D01*
X202287238Y-61603047D01*
X202382476Y-61698285D01*
X202430095Y-61793523D01*
X204668380Y-63229857D02*
X204668380Y-63801285D01*
X204668380Y-63515571D02*
X203668380Y-63515571D01*
X203811238Y-63610809D01*
X203906476Y-63706047D01*
X203954095Y-63801285D01*
X204668380Y-62801285D02*
X203668380Y-62801285D01*
X204668380Y-62229857D01*
X203668380Y-62229857D01*
X203668380Y-61277476D02*
X203668380Y-61753666D01*
X204144571Y-61801285D01*
X204096952Y-61753666D01*
X204049333Y-61658428D01*
X204049333Y-61420333D01*
X204096952Y-61325095D01*
X204144571Y-61277476D01*
X204239809Y-61229857D01*
X204477904Y-61229857D01*
X204573142Y-61277476D01*
X204620761Y-61325095D01*
X204668380Y-61420333D01*
X204668380Y-61658428D01*
X204620761Y-61753666D01*
X204573142Y-61801285D01*
X204096952Y-60658428D02*
X204049333Y-60753666D01*
X204001714Y-60801285D01*
X203906476Y-60848904D01*
X203858857Y-60848904D01*
X203763619Y-60801285D01*
X203716000Y-60753666D01*
X203668380Y-60658428D01*
X203668380Y-60467952D01*
X203716000Y-60372714D01*
X203763619Y-60325095D01*
X203858857Y-60277476D01*
X203906476Y-60277476D01*
X204001714Y-60325095D01*
X204049333Y-60372714D01*
X204096952Y-60467952D01*
X204096952Y-60658428D01*
X204144571Y-60753666D01*
X204192190Y-60801285D01*
X204287428Y-60848904D01*
X204477904Y-60848904D01*
X204573142Y-60801285D01*
X204620761Y-60753666D01*
X204668380Y-60658428D01*
X204668380Y-60467952D01*
X204620761Y-60372714D01*
X204573142Y-60325095D01*
X204477904Y-60277476D01*
X204287428Y-60277476D01*
X204192190Y-60325095D01*
X204144571Y-60372714D01*
X204096952Y-60467952D01*
X204668380Y-59325095D02*
X204668380Y-59896523D01*
X204668380Y-59610809D02*
X203668380Y-59610809D01*
X203811238Y-59706047D01*
X203906476Y-59801285D01*
X203954095Y-59896523D01*
X204096952Y-58753666D02*
X204049333Y-58848904D01*
X204001714Y-58896523D01*
X203906476Y-58944142D01*
X203858857Y-58944142D01*
X203763619Y-58896523D01*
X203716000Y-58848904D01*
X203668380Y-58753666D01*
X203668380Y-58563190D01*
X203716000Y-58467952D01*
X203763619Y-58420333D01*
X203858857Y-58372714D01*
X203906476Y-58372714D01*
X204001714Y-58420333D01*
X204049333Y-58467952D01*
X204096952Y-58563190D01*
X204096952Y-58753666D01*
X204144571Y-58848904D01*
X204192190Y-58896523D01*
X204287428Y-58944142D01*
X204477904Y-58944142D01*
X204573142Y-58896523D01*
X204620761Y-58848904D01*
X204668380Y-58753666D01*
X204668380Y-58563190D01*
X204620761Y-58467952D01*
X204573142Y-58420333D01*
X204477904Y-58372714D01*
X204287428Y-58372714D01*
X204192190Y-58420333D01*
X204144571Y-58467952D01*
X204096952Y-58563190D01*
G04 #@! TO.C,D10*
X203144380Y-60777285D02*
X202144380Y-60777285D01*
X202144380Y-60539190D01*
X202192000Y-60396333D01*
X202287238Y-60301095D01*
X202382476Y-60253476D01*
X202572952Y-60205857D01*
X202715809Y-60205857D01*
X202906285Y-60253476D01*
X203001523Y-60301095D01*
X203096761Y-60396333D01*
X203144380Y-60539190D01*
X203144380Y-60777285D01*
X203144380Y-59253476D02*
X203144380Y-59824904D01*
X203144380Y-59539190D02*
X202144380Y-59539190D01*
X202287238Y-59634428D01*
X202382476Y-59729666D01*
X202430095Y-59824904D01*
X202144380Y-58634428D02*
X202144380Y-58539190D01*
X202192000Y-58443952D01*
X202239619Y-58396333D01*
X202334857Y-58348714D01*
X202525333Y-58301095D01*
X202763428Y-58301095D01*
X202953904Y-58348714D01*
X203049142Y-58396333D01*
X203096761Y-58443952D01*
X203144380Y-58539190D01*
X203144380Y-58634428D01*
X203096761Y-58729666D01*
X203049142Y-58777285D01*
X202953904Y-58824904D01*
X202763428Y-58872523D01*
X202525333Y-58872523D01*
X202334857Y-58824904D01*
X202239619Y-58777285D01*
X202192000Y-58729666D01*
X202144380Y-58634428D01*
G04 #@! TO.C,C2*
X213955333Y-72366142D02*
X213907714Y-72413761D01*
X213764857Y-72461380D01*
X213669619Y-72461380D01*
X213526761Y-72413761D01*
X213431523Y-72318523D01*
X213383904Y-72223285D01*
X213336285Y-72032809D01*
X213336285Y-71889952D01*
X213383904Y-71699476D01*
X213431523Y-71604238D01*
X213526761Y-71509000D01*
X213669619Y-71461380D01*
X213764857Y-71461380D01*
X213907714Y-71509000D01*
X213955333Y-71556619D01*
X214336285Y-71556619D02*
X214383904Y-71509000D01*
X214479142Y-71461380D01*
X214717238Y-71461380D01*
X214812476Y-71509000D01*
X214860095Y-71556619D01*
X214907714Y-71651857D01*
X214907714Y-71747095D01*
X214860095Y-71889952D01*
X214288666Y-72461380D01*
X214907714Y-72461380D01*
G04 #@! TO.C,C1*
X213955333Y-65254142D02*
X213907714Y-65301761D01*
X213764857Y-65349380D01*
X213669619Y-65349380D01*
X213526761Y-65301761D01*
X213431523Y-65206523D01*
X213383904Y-65111285D01*
X213336285Y-64920809D01*
X213336285Y-64777952D01*
X213383904Y-64587476D01*
X213431523Y-64492238D01*
X213526761Y-64397000D01*
X213669619Y-64349380D01*
X213764857Y-64349380D01*
X213907714Y-64397000D01*
X213955333Y-64444619D01*
X214907714Y-65349380D02*
X214336285Y-65349380D01*
X214622000Y-65349380D02*
X214622000Y-64349380D01*
X214526761Y-64492238D01*
X214431523Y-64587476D01*
X214336285Y-64635095D01*
G04 #@! TO.C,U2*
X200914095Y-93686380D02*
X200914095Y-94495904D01*
X200961714Y-94591142D01*
X201009333Y-94638761D01*
X201104571Y-94686380D01*
X201295047Y-94686380D01*
X201390285Y-94638761D01*
X201437904Y-94591142D01*
X201485523Y-94495904D01*
X201485523Y-93686380D01*
X201914095Y-93781619D02*
X201961714Y-93734000D01*
X202056952Y-93686380D01*
X202295047Y-93686380D01*
X202390285Y-93734000D01*
X202437904Y-93781619D01*
X202485523Y-93876857D01*
X202485523Y-93972095D01*
X202437904Y-94114952D01*
X201866476Y-94686380D01*
X202485523Y-94686380D01*
X205192380Y-105370047D02*
X205192380Y-104798619D01*
X206192380Y-105084333D02*
X205192380Y-105084333D01*
X206192380Y-103989095D02*
X206192380Y-104465285D01*
X205192380Y-104465285D01*
X205192380Y-103465285D02*
X205192380Y-103370047D01*
X205240000Y-103274809D01*
X205287619Y-103227190D01*
X205382857Y-103179571D01*
X205573333Y-103131952D01*
X205811428Y-103131952D01*
X206001904Y-103179571D01*
X206097142Y-103227190D01*
X206144761Y-103274809D01*
X206192380Y-103370047D01*
X206192380Y-103465285D01*
X206144761Y-103560523D01*
X206097142Y-103608142D01*
X206001904Y-103655761D01*
X205811428Y-103703380D01*
X205573333Y-103703380D01*
X205382857Y-103655761D01*
X205287619Y-103608142D01*
X205240000Y-103560523D01*
X205192380Y-103465285D01*
X205192380Y-102798619D02*
X205192380Y-102131952D01*
X206192380Y-102560523D01*
X205525714Y-101322428D02*
X206192380Y-101322428D01*
X205144761Y-101560523D02*
X205859047Y-101798619D01*
X205859047Y-101179571D01*
G04 #@! TO.C,U1*
X201168095Y-135723380D02*
X201168095Y-136532904D01*
X201215714Y-136628142D01*
X201263333Y-136675761D01*
X201358571Y-136723380D01*
X201549047Y-136723380D01*
X201644285Y-136675761D01*
X201691904Y-136628142D01*
X201739523Y-136532904D01*
X201739523Y-135723380D01*
X202739523Y-136723380D02*
X202168095Y-136723380D01*
X202453809Y-136723380D02*
X202453809Y-135723380D01*
X202358571Y-135866238D01*
X202263333Y-135961476D01*
X202168095Y-136009095D01*
X201842666Y-145168571D02*
X201842666Y-144692380D01*
X202128380Y-145263809D02*
X201128380Y-144930476D01*
X202128380Y-144597142D01*
X201128380Y-144406666D02*
X201128380Y-143835238D01*
X202128380Y-144120952D02*
X201128380Y-144120952D01*
X201461714Y-143644761D02*
X201461714Y-143263809D01*
X201128380Y-143501904D02*
X201985523Y-143501904D01*
X202080761Y-143454285D01*
X202128380Y-143359047D01*
X202128380Y-143263809D01*
X202128380Y-142930476D02*
X201461714Y-142930476D01*
X201128380Y-142930476D02*
X201176000Y-142978095D01*
X201223619Y-142930476D01*
X201176000Y-142882857D01*
X201128380Y-142930476D01*
X201223619Y-142930476D01*
X201461714Y-142454285D02*
X202128380Y-142454285D01*
X201556952Y-142454285D02*
X201509333Y-142406666D01*
X201461714Y-142311428D01*
X201461714Y-142168571D01*
X201509333Y-142073333D01*
X201604571Y-142025714D01*
X202128380Y-142025714D01*
X201461714Y-141644761D02*
X202128380Y-141406666D01*
X201461714Y-141168571D02*
X202128380Y-141406666D01*
X202366476Y-141501904D01*
X202414095Y-141549523D01*
X202461714Y-141644761D01*
X201556952Y-140644761D02*
X201509333Y-140740000D01*
X201461714Y-140787619D01*
X201366476Y-140835238D01*
X201318857Y-140835238D01*
X201223619Y-140787619D01*
X201176000Y-140740000D01*
X201128380Y-140644761D01*
X201128380Y-140454285D01*
X201176000Y-140359047D01*
X201223619Y-140311428D01*
X201318857Y-140263809D01*
X201366476Y-140263809D01*
X201461714Y-140311428D01*
X201509333Y-140359047D01*
X201556952Y-140454285D01*
X201556952Y-140644761D01*
X201604571Y-140740000D01*
X201652190Y-140787619D01*
X201747428Y-140835238D01*
X201937904Y-140835238D01*
X202033142Y-140787619D01*
X202080761Y-140740000D01*
X202128380Y-140644761D01*
X202128380Y-140454285D01*
X202080761Y-140359047D01*
X202033142Y-140311428D01*
X201937904Y-140263809D01*
X201747428Y-140263809D01*
X201652190Y-140311428D01*
X201604571Y-140359047D01*
X201556952Y-140454285D01*
X201128380Y-139359047D02*
X201128380Y-139835238D01*
X201604571Y-139882857D01*
X201556952Y-139835238D01*
X201509333Y-139740000D01*
X201509333Y-139501904D01*
X201556952Y-139406666D01*
X201604571Y-139359047D01*
X201699809Y-139311428D01*
X201937904Y-139311428D01*
X202033142Y-139359047D01*
X202080761Y-139406666D01*
X202128380Y-139501904D01*
X202128380Y-139740000D01*
X202080761Y-139835238D01*
X202033142Y-139882857D01*
G04 #@! TO.C,Q1*
X214280761Y-149137619D02*
X214185523Y-149090000D01*
X214090285Y-148994761D01*
X213947428Y-148851904D01*
X213852190Y-148804285D01*
X213756952Y-148804285D01*
X213804571Y-149042380D02*
X213709333Y-148994761D01*
X213614095Y-148899523D01*
X213566476Y-148709047D01*
X213566476Y-148375714D01*
X213614095Y-148185238D01*
X213709333Y-148090000D01*
X213804571Y-148042380D01*
X213995047Y-148042380D01*
X214090285Y-148090000D01*
X214185523Y-148185238D01*
X214233142Y-148375714D01*
X214233142Y-148709047D01*
X214185523Y-148899523D01*
X214090285Y-148994761D01*
X213995047Y-149042380D01*
X213804571Y-149042380D01*
X215185523Y-149042380D02*
X214614095Y-149042380D01*
X214899809Y-149042380D02*
X214899809Y-148042380D01*
X214804571Y-148185238D01*
X214709333Y-148280476D01*
X214614095Y-148328095D01*
G04 #@! TO.C,Q2*
X214280761Y-153963619D02*
X214185523Y-153916000D01*
X214090285Y-153820761D01*
X213947428Y-153677904D01*
X213852190Y-153630285D01*
X213756952Y-153630285D01*
X213804571Y-153868380D02*
X213709333Y-153820761D01*
X213614095Y-153725523D01*
X213566476Y-153535047D01*
X213566476Y-153201714D01*
X213614095Y-153011238D01*
X213709333Y-152916000D01*
X213804571Y-152868380D01*
X213995047Y-152868380D01*
X214090285Y-152916000D01*
X214185523Y-153011238D01*
X214233142Y-153201714D01*
X214233142Y-153535047D01*
X214185523Y-153725523D01*
X214090285Y-153820761D01*
X213995047Y-153868380D01*
X213804571Y-153868380D01*
X214614095Y-152963619D02*
X214661714Y-152916000D01*
X214756952Y-152868380D01*
X214995047Y-152868380D01*
X215090285Y-152916000D01*
X215137904Y-152963619D01*
X215185523Y-153058857D01*
X215185523Y-153154095D01*
X215137904Y-153296952D01*
X214566476Y-153868380D01*
X215185523Y-153868380D01*
G04 #@! TO.C,Q3*
X214026761Y-124753619D02*
X213931523Y-124706000D01*
X213836285Y-124610761D01*
X213693428Y-124467904D01*
X213598190Y-124420285D01*
X213502952Y-124420285D01*
X213550571Y-124658380D02*
X213455333Y-124610761D01*
X213360095Y-124515523D01*
X213312476Y-124325047D01*
X213312476Y-123991714D01*
X213360095Y-123801238D01*
X213455333Y-123706000D01*
X213550571Y-123658380D01*
X213741047Y-123658380D01*
X213836285Y-123706000D01*
X213931523Y-123801238D01*
X213979142Y-123991714D01*
X213979142Y-124325047D01*
X213931523Y-124515523D01*
X213836285Y-124610761D01*
X213741047Y-124658380D01*
X213550571Y-124658380D01*
X214312476Y-123658380D02*
X214931523Y-123658380D01*
X214598190Y-124039333D01*
X214741047Y-124039333D01*
X214836285Y-124086952D01*
X214883904Y-124134571D01*
X214931523Y-124229809D01*
X214931523Y-124467904D01*
X214883904Y-124563142D01*
X214836285Y-124610761D01*
X214741047Y-124658380D01*
X214455333Y-124658380D01*
X214360095Y-124610761D01*
X214312476Y-124563142D01*
G04 #@! TD*
M02*
