%TF.GenerationSoftware,KiCad,Pcbnew,(5.1.9-0-10_14)*%
%TF.CreationDate,2020-12-31T21:37:28-06:00*%
%TF.ProjectId,JNTUB_board2,4a4e5455-425f-4626-9f61-7264322e6b69,rev?*%
%TF.SameCoordinates,Original*%
%TF.FileFunction,Copper,L2,Bot*%
%TF.FilePolarity,Positive*%
%FSLAX46Y46*%
G04 Gerber Fmt 4.6, Leading zero omitted, Abs format (unit mm)*
G04 Created by KiCad (PCBNEW (5.1.9-0-10_14)) date 2020-12-31 21:37:28*
%MOMM*%
%LPD*%
G01*
G04 APERTURE LIST*
%TA.AperFunction,ComponentPad*%
%ADD10R,1.700000X1.700000*%
%TD*%
%TA.AperFunction,ComponentPad*%
%ADD11O,1.700000X1.700000*%
%TD*%
%TA.AperFunction,ComponentPad*%
%ADD12C,1.600000*%
%TD*%
%TA.AperFunction,ComponentPad*%
%ADD13C,1.520000*%
%TD*%
%TA.AperFunction,ComponentPad*%
%ADD14R,1.520000X1.520000*%
%TD*%
%TA.AperFunction,ComponentPad*%
%ADD15R,1.600000X1.600000*%
%TD*%
%TA.AperFunction,ComponentPad*%
%ADD16O,1.600000X1.600000*%
%TD*%
%TA.AperFunction,ComponentPad*%
%ADD17O,1.400000X1.400000*%
%TD*%
%TA.AperFunction,ComponentPad*%
%ADD18C,1.400000*%
%TD*%
%TA.AperFunction,ComponentPad*%
%ADD19O,2.200000X2.200000*%
%TD*%
%TA.AperFunction,ComponentPad*%
%ADD20R,2.200000X2.200000*%
%TD*%
%TA.AperFunction,ComponentPad*%
%ADD21O,2.400000X1.600000*%
%TD*%
%TA.AperFunction,ComponentPad*%
%ADD22R,2.400000X1.600000*%
%TD*%
%TA.AperFunction,ViaPad*%
%ADD23C,0.762000*%
%TD*%
%TA.AperFunction,ViaPad*%
%ADD24C,0.609600*%
%TD*%
%TA.AperFunction,Conductor*%
%ADD25C,0.762000*%
%TD*%
%TA.AperFunction,Conductor*%
%ADD26C,1.016000*%
%TD*%
%TA.AperFunction,Conductor*%
%ADD27C,0.609600*%
%TD*%
%TA.AperFunction,Conductor*%
%ADD28C,0.406400*%
%TD*%
%TA.AperFunction,Conductor*%
%ADD29C,0.304800*%
%TD*%
%TA.AperFunction,Conductor*%
%ADD30C,0.254000*%
%TD*%
%TA.AperFunction,Conductor*%
%ADD31C,0.250000*%
%TD*%
%TA.AperFunction,Conductor*%
%ADD32C,0.203200*%
%TD*%
G04 APERTURE END LIST*
D10*
%TO.P,JP1,1*%
%TO.N,Net-(JP1-Pad1)*%
X213487000Y-83439000D03*
D11*
%TO.P,JP1,2*%
%TO.N,Net-(JP1-Pad2)*%
X213487000Y-80899000D03*
%TD*%
D12*
%TO.P,C12,1*%
%TO.N,Net-(C12-Pad1)*%
X204216000Y-148336000D03*
%TO.P,C12,2*%
%TO.N,GNDREF*%
X199216000Y-148336000D03*
%TD*%
D13*
%TO.P,U3,2*%
%TO.N,GNDREF*%
X206248000Y-68326000D03*
%TO.P,U3,3*%
%TO.N,+12V*%
X206248000Y-65786000D03*
D14*
%TO.P,U3,1*%
%TO.N,+5V*%
X206248000Y-70866000D03*
%TD*%
D13*
%TO.P,U4,2*%
%TO.N,-5V*%
X206248000Y-75438000D03*
%TO.P,U4,3*%
%TO.N,-12V*%
X206248000Y-72898000D03*
D14*
%TO.P,U4,1*%
%TO.N,GNDREF*%
X206248000Y-77978000D03*
%TD*%
D15*
%TO.P,D5,1*%
%TO.N,Net-(D5-Pad1)*%
X214249000Y-152527000D03*
D16*
%TO.P,D5,2*%
%TO.N,GNDREF*%
X207391000Y-152527000D03*
%TD*%
D15*
%TO.P,D4,1*%
%TO.N,/MainBoard/MCU_ADC1*%
X207391000Y-128778000D03*
D16*
%TO.P,D4,2*%
%TO.N,GNDREF*%
X214249000Y-128778000D03*
%TD*%
%TO.P,D3,2*%
%TO.N,/MainBoard/MCU_ADC1*%
X207391000Y-125730000D03*
D15*
%TO.P,D3,1*%
%TO.N,+5V*%
X214249000Y-125730000D03*
%TD*%
%TO.P,D2,1*%
%TO.N,/MainBoard/MCU_ADC2*%
X204063600Y-128778000D03*
D16*
%TO.P,D2,2*%
%TO.N,GNDREF*%
X197205600Y-128778000D03*
%TD*%
D15*
%TO.P,D1,1*%
%TO.N,+5V*%
X197231000Y-125730000D03*
D16*
%TO.P,D1,2*%
%TO.N,/MainBoard/MCU_ADC2*%
X204089000Y-125730000D03*
%TD*%
D12*
%TO.P,C4,2*%
%TO.N,GNDREF*%
X198120000Y-75478000D03*
%TO.P,C4,1*%
%TO.N,+5V*%
X198120000Y-77978000D03*
%TD*%
%TO.P,C10,2*%
%TO.N,GNDREF*%
X197271000Y-131826000D03*
%TO.P,C10,1*%
%TO.N,+5V*%
X199771000Y-131826000D03*
%TD*%
%TO.P,C9,2*%
%TO.N,-12V*%
X210210400Y-96276800D03*
%TO.P,C9,1*%
%TO.N,GNDREF*%
X210210400Y-93776800D03*
%TD*%
%TO.P,C8,2*%
%TO.N,GNDREF*%
X201462000Y-95910400D03*
%TO.P,C8,1*%
%TO.N,+12V*%
X203962000Y-95910400D03*
%TD*%
%TO.P,C6,2*%
%TO.N,-5V*%
X202057000Y-77912600D03*
%TO.P,C6,1*%
%TO.N,GNDREF*%
X202057000Y-75412600D03*
%TD*%
D17*
%TO.P,R25,2*%
%TO.N,Net-(JP1-Pad2)*%
X210566000Y-83629500D03*
D18*
%TO.P,R25,1*%
%TO.N,Net-(JP1-Pad1)*%
X205486000Y-83629500D03*
%TD*%
D17*
%TO.P,R24,2*%
%TO.N,Net-(JP1-Pad1)*%
X203327000Y-81026000D03*
D18*
%TO.P,R24,1*%
%TO.N,+5V*%
X198247000Y-81026000D03*
%TD*%
%TO.P,R23,1*%
%TO.N,Net-(JP1-Pad2)*%
X201422000Y-83185000D03*
D17*
%TO.P,R23,2*%
%TO.N,/MainBoard/OUT_LED+*%
X201422000Y-88265000D03*
%TD*%
%TO.P,R22,2*%
%TO.N,Net-(C12-Pad1)*%
X204216000Y-145669000D03*
D18*
%TO.P,R22,1*%
%TO.N,/MainBoard/MCU_PWM*%
X199136000Y-145669000D03*
%TD*%
%TO.P,R21,1*%
%TO.N,/MainBoard/OUT*%
X210566000Y-85979000D03*
D17*
%TO.P,R21,2*%
%TO.N,Net-(JP1-Pad2)*%
X205486000Y-85979000D03*
%TD*%
D18*
%TO.P,R20,1*%
%TO.N,Net-(Q3-Pad2)*%
X213487000Y-155194000D03*
D17*
%TO.P,R20,2*%
%TO.N,/MainBoard/MCU_PB0*%
X208407000Y-155194000D03*
%TD*%
D18*
%TO.P,R19,1*%
%TO.N,Net-(Q3-Pad3)*%
X199136000Y-151003000D03*
D17*
%TO.P,R19,2*%
%TO.N,+5V*%
X204216000Y-151003000D03*
%TD*%
D18*
%TO.P,R18,1*%
%TO.N,GNDREF*%
X209245200Y-137033000D03*
D17*
%TO.P,R18,2*%
%TO.N,Net-(Q1-Pad1)*%
X214325200Y-137033000D03*
%TD*%
D18*
%TO.P,R17,1*%
%TO.N,GNDREF*%
X209245200Y-131953000D03*
D17*
%TO.P,R17,2*%
%TO.N,/MainBoard/CLK_TRG*%
X214325200Y-131953000D03*
%TD*%
D18*
%TO.P,R16,1*%
%TO.N,Net-(D5-Pad1)*%
X209245200Y-134366000D03*
D17*
%TO.P,R16,2*%
%TO.N,/MainBoard/CLK_TRG*%
X214325200Y-134366000D03*
%TD*%
D18*
%TO.P,R14,1*%
%TO.N,/MainBoard/MCU_PB0*%
X213487000Y-149860000D03*
D17*
%TO.P,R14,2*%
%TO.N,+5V*%
X208407000Y-149860000D03*
%TD*%
D18*
%TO.P,R13,1*%
%TO.N,Net-(Q1-Pad3)*%
X213537800Y-147243800D03*
D17*
%TO.P,R13,2*%
%TO.N,+5V*%
X208457800Y-147243800D03*
%TD*%
D18*
%TO.P,R12,1*%
%TO.N,Net-(R10-Pad1)*%
X213106000Y-115316000D03*
D17*
%TO.P,R12,2*%
%TO.N,Net-(R11-Pad1)*%
X213106000Y-110236000D03*
%TD*%
D18*
%TO.P,R11,1*%
%TO.N,Net-(R11-Pad1)*%
X207645000Y-117475000D03*
D17*
%TO.P,R11,2*%
%TO.N,GNDREF*%
X212725000Y-117475000D03*
%TD*%
D18*
%TO.P,R10,1*%
%TO.N,Net-(R10-Pad1)*%
X212801200Y-120142000D03*
D17*
%TO.P,R10,2*%
%TO.N,/MainBoard/MCU_ADC1*%
X207721200Y-120142000D03*
%TD*%
D18*
%TO.P,R8,1*%
%TO.N,+5V*%
X212852000Y-122809000D03*
D17*
%TO.P,R8,2*%
%TO.N,/MainBoard/MCU_ADC1*%
X207772000Y-122809000D03*
%TD*%
D18*
%TO.P,R6,1*%
%TO.N,Net-(R4-Pad1)*%
X197993000Y-115316000D03*
D17*
%TO.P,R6,2*%
%TO.N,Net-(R5-Pad1)*%
X197993000Y-110236000D03*
%TD*%
D18*
%TO.P,R5,1*%
%TO.N,Net-(R5-Pad1)*%
X203835000Y-117475000D03*
D17*
%TO.P,R5,2*%
%TO.N,GNDREF*%
X198755000Y-117475000D03*
%TD*%
D18*
%TO.P,R4,1*%
%TO.N,Net-(R4-Pad1)*%
X198755000Y-120142000D03*
D17*
%TO.P,R4,2*%
%TO.N,/MainBoard/MCU_ADC2*%
X203835000Y-120142000D03*
%TD*%
D18*
%TO.P,R2,1*%
%TO.N,+5V*%
X198755000Y-122809000D03*
D17*
%TO.P,R2,2*%
%TO.N,/MainBoard/MCU_ADC2*%
X203835000Y-122809000D03*
%TD*%
D19*
%TO.P,D11,2*%
%TO.N,-12V*%
X213868000Y-62992000D03*
D20*
%TO.P,D11,1*%
%TO.N,Net-(D11-Pad1)*%
X206248000Y-62992000D03*
%TD*%
%TO.P,D10,1*%
%TO.N,+12V*%
X213868000Y-59563000D03*
D19*
%TO.P,D10,2*%
%TO.N,Net-(D10-Pad2)*%
X206248000Y-59563000D03*
%TD*%
D15*
%TO.P,C2,1*%
%TO.N,GNDREF*%
X211836000Y-74168000D03*
D12*
%TO.P,C2,2*%
%TO.N,-12V*%
X211836000Y-76668000D03*
%TD*%
D15*
%TO.P,C1,1*%
%TO.N,+12V*%
X211836000Y-69596000D03*
D12*
%TO.P,C1,2*%
%TO.N,GNDREF*%
X211836000Y-67096000D03*
%TD*%
D21*
%TO.P,U2,14*%
%TO.N,Net-(JP1-Pad2)*%
X209550000Y-98933000D03*
%TO.P,U2,7*%
%TO.N,Net-(R4-Pad1)*%
X201930000Y-114173000D03*
%TO.P,U2,13*%
%TO.N,Net-(JP1-Pad1)*%
X209550000Y-101473000D03*
%TO.P,U2,6*%
%TO.N,Net-(R5-Pad1)*%
X201930000Y-111633000D03*
%TO.P,U2,12*%
%TO.N,Net-(C12-Pad1)*%
X209550000Y-104013000D03*
%TO.P,U2,5*%
%TO.N,/MainBoard/P1_AVG*%
X201930000Y-109093000D03*
%TO.P,U2,11*%
%TO.N,-12V*%
X209550000Y-106553000D03*
%TO.P,U2,4*%
%TO.N,+12V*%
X201930000Y-106553000D03*
%TO.P,U2,10*%
%TO.N,/MainBoard/P2_AVG*%
X209550000Y-109093000D03*
%TO.P,U2,3*%
%TO.N,GNDREF*%
X201930000Y-104013000D03*
%TO.P,U2,9*%
%TO.N,Net-(R11-Pad1)*%
X209550000Y-111633000D03*
%TO.P,U2,2*%
%TO.N,/MainBoard/OUT_LED+*%
X201930000Y-101473000D03*
%TO.P,U2,8*%
%TO.N,Net-(R10-Pad1)*%
X209550000Y-114173000D03*
D22*
%TO.P,U2,1*%
%TO.N,/MainBoard/OUT_LED-*%
X201930000Y-98933000D03*
%TD*%
%TO.P,U1,1*%
%TO.N,+5V*%
X197739000Y-135128000D03*
D21*
%TO.P,U1,5*%
%TO.N,/MainBoard/MCU_PB0*%
X205359000Y-142748000D03*
%TO.P,U1,2*%
%TO.N,/MainBoard/MCU_ADC3*%
X197739000Y-137668000D03*
%TO.P,U1,6*%
%TO.N,/MainBoard/MCU_PWM*%
X205359000Y-140208000D03*
%TO.P,U1,3*%
%TO.N,/MainBoard/MCU_ADC2*%
X197739000Y-140208000D03*
%TO.P,U1,7*%
%TO.N,/MainBoard/MCU_ADC1*%
X205359000Y-137668000D03*
%TO.P,U1,4*%
%TO.N,GNDREF*%
X197739000Y-142748000D03*
%TO.P,U1,8*%
%TO.N,+5V*%
X205359000Y-135128000D03*
%TD*%
D11*
%TO.P,J9,10*%
%TO.N,Net-(D11-Pad1)*%
X198374000Y-69850000D03*
%TO.P,J9,9*%
X200914000Y-69850000D03*
%TO.P,J9,8*%
%TO.N,GNDREF*%
X198374000Y-67310000D03*
%TO.P,J9,7*%
X200914000Y-67310000D03*
%TO.P,J9,6*%
X198374000Y-64770000D03*
%TO.P,J9,5*%
X200914000Y-64770000D03*
%TO.P,J9,4*%
X198374000Y-62230000D03*
%TO.P,J9,3*%
X200914000Y-62230000D03*
%TO.P,J9,2*%
%TO.N,Net-(D10-Pad2)*%
X198374000Y-59690000D03*
D10*
%TO.P,J9,1*%
X200914000Y-59690000D03*
%TD*%
D13*
%TO.P,Q1,2*%
%TO.N,Net-(D5-Pad1)*%
X214122000Y-142113000D03*
%TO.P,Q1,3*%
%TO.N,Net-(Q1-Pad3)*%
X214122000Y-144653000D03*
D14*
%TO.P,Q1,1*%
%TO.N,Net-(Q1-Pad1)*%
X214122000Y-139573000D03*
%TD*%
D13*
%TO.P,Q2,2*%
%TO.N,Net-(Q1-Pad3)*%
X209359500Y-142113000D03*
%TO.P,Q2,3*%
%TO.N,/MainBoard/MCU_PB0*%
X209359500Y-144653000D03*
D14*
%TO.P,Q2,1*%
%TO.N,Net-(Q1-Pad1)*%
X209359500Y-139573000D03*
%TD*%
D13*
%TO.P,Q3,2*%
%TO.N,Net-(Q3-Pad2)*%
X201676000Y-154178000D03*
%TO.P,Q3,3*%
%TO.N,Net-(Q3-Pad3)*%
X199136000Y-154178000D03*
D14*
%TO.P,Q3,1*%
%TO.N,/MainBoard/IN_LED+*%
X204216000Y-154178000D03*
%TD*%
D10*
%TO.P,J10,1*%
%TO.N,+5V*%
X197993000Y-87122000D03*
D11*
%TO.P,J10,2*%
%TO.N,-5V*%
X197993000Y-89662000D03*
%TO.P,J10,3*%
%TO.N,GNDREF*%
X197993000Y-92202000D03*
%TO.P,J10,4*%
X197993000Y-94742000D03*
%TO.P,J10,5*%
X197993000Y-97282000D03*
%TO.P,J10,6*%
%TO.N,/MainBoard/OUT_LED-*%
X197993000Y-99822000D03*
%TO.P,J10,7*%
%TO.N,/MainBoard/OUT_LED+*%
X197993000Y-102362000D03*
%TO.P,J10,8*%
%TO.N,/MainBoard/MCU_ADC3*%
X197993000Y-104902000D03*
%TO.P,J10,9*%
%TO.N,/MainBoard/P1_AVG*%
X197993000Y-107442000D03*
%TD*%
D10*
%TO.P,J11,1*%
%TO.N,/MainBoard/OUT*%
X213487000Y-87122000D03*
D11*
%TO.P,J11,2*%
%TO.N,GNDREF*%
X213487000Y-89662000D03*
%TO.P,J11,3*%
X213487000Y-92202000D03*
%TO.P,J11,4*%
X213487000Y-94742000D03*
%TO.P,J11,5*%
X213487000Y-97282000D03*
%TO.P,J11,6*%
X213487000Y-99822000D03*
%TO.P,J11,7*%
%TO.N,/MainBoard/IN_LED+*%
X213487000Y-102362000D03*
%TO.P,J11,8*%
%TO.N,/MainBoard/CLK_TRG*%
X213487000Y-104902000D03*
%TO.P,J11,9*%
%TO.N,/MainBoard/P2_AVG*%
X213487000Y-107442000D03*
%TD*%
D23*
%TO.N,*%
X201422000Y-130632200D03*
X201422000Y-133045200D03*
%TO.N,GNDREF*%
X210947000Y-143446500D03*
X211836000Y-137985500D03*
%TO.N,+5V*%
X199707500Y-115443000D03*
D24*
X199720611Y-105486611D03*
D23*
X200025410Y-90932000D03*
X211188389Y-124869579D03*
%TO.N,Net-(C12-Pad1)*%
X205740000Y-107772200D03*
%TO.N,Net-(D5-Pad1)*%
X210745789Y-141097000D03*
%TO.N,Net-(JP1-Pad1)*%
X209650132Y-80618132D03*
%TO.N,Net-(JP1-Pad2)*%
X208330800Y-87731600D03*
%TO.N,/MainBoard/MCU_PB0*%
X206663306Y-147137596D03*
X211366122Y-149861523D03*
%TO.N,/MainBoard/MCU_PWM*%
X201977695Y-143379895D03*
%TO.N,/MainBoard/IN_LED+*%
X211582000Y-115316000D03*
%TO.N,/MainBoard/OUT_LED+*%
X205155800Y-102006400D03*
X201741001Y-93980000D03*
X204128601Y-94132400D03*
%TD*%
D25*
%TO.N,*%
X201460001Y-130670201D02*
X201422000Y-130632200D01*
X201460001Y-133045200D02*
X201460001Y-130670201D01*
D26*
%TO.N,+12V*%
X213868000Y-59563000D02*
X213868000Y-59690000D01*
X213868000Y-59690000D02*
X207772000Y-65786000D01*
X207772000Y-65786000D02*
X206248000Y-65786000D01*
X211582000Y-69596000D02*
X211836000Y-69596000D01*
X207772000Y-65786000D02*
X211582000Y-69596000D01*
D27*
X202934801Y-94730801D02*
X203962000Y-95758000D01*
X209423000Y-78740000D02*
X206046301Y-82116699D01*
X204759855Y-82116699D02*
X202934801Y-83941753D01*
X206046301Y-82116699D02*
X204759855Y-82116699D01*
X202934801Y-83941753D02*
X202934801Y-94730801D01*
X209423000Y-72009000D02*
X209423000Y-78740000D01*
X211836000Y-69596000D02*
X209423000Y-72009000D01*
X203739600Y-106553000D02*
X201930000Y-106553000D01*
X203962000Y-106330600D02*
X203739600Y-106553000D01*
X203962000Y-95758000D02*
X203962000Y-106330600D01*
D26*
%TO.N,GNDREF*%
X198374000Y-62230000D02*
X200914000Y-62230000D01*
X200914000Y-64770000D02*
X200914000Y-62230000D01*
X198374000Y-62230000D02*
X198374000Y-64770000D01*
X198374000Y-64770000D02*
X200914000Y-64770000D01*
X198374000Y-64770000D02*
X198374000Y-67310000D01*
X200914000Y-67310000D02*
X198374000Y-67310000D01*
X200914000Y-64770000D02*
X200914000Y-67310000D01*
D27*
X211010500Y-143319500D02*
X211939589Y-142390411D01*
X211939589Y-138089089D02*
X211836000Y-137985500D01*
X211939589Y-142390411D02*
X211939589Y-138089089D01*
D26*
%TO.N,+5V*%
X206248000Y-70866000D02*
X203534918Y-70866000D01*
D27*
X196988199Y-86117199D02*
X197993000Y-87122000D01*
X198120000Y-77978000D02*
X196988199Y-79109801D01*
D26*
X198307682Y-77978000D02*
X198120000Y-77978000D01*
X199936001Y-76349681D02*
X198307682Y-77978000D01*
X199936001Y-74464917D02*
X199936001Y-76349681D01*
X203534918Y-70866000D02*
X199936001Y-74464917D01*
D27*
X199771000Y-128270000D02*
X197231000Y-125730000D01*
X199771000Y-131826000D02*
X199771000Y-128270000D01*
X208788000Y-147294600D02*
X208838800Y-147243800D01*
X199720611Y-91236799D02*
X200025410Y-90932000D01*
X199720611Y-105486611D02*
X199720611Y-91236799D01*
X197612000Y-81026000D02*
X196988199Y-80402199D01*
X198424800Y-81026000D02*
X197612000Y-81026000D01*
X196988199Y-80402199D02*
X196988199Y-86117199D01*
X196988199Y-79109801D02*
X196988199Y-80402199D01*
X207732399Y-134564201D02*
X207732399Y-131103601D01*
X207732399Y-131103601D02*
X208445199Y-130390801D01*
X205359000Y-135128000D02*
X207168600Y-135128000D01*
X207168600Y-135128000D02*
X207732399Y-134564201D01*
X208445199Y-130390801D02*
X208841241Y-130390801D01*
X211188389Y-128043653D02*
X208841241Y-130390801D01*
X211188389Y-124869579D02*
X211188389Y-128043653D01*
X199707500Y-115443000D02*
X201320400Y-117055900D01*
X201320400Y-120243600D02*
X198755000Y-122809000D01*
X201320400Y-117055900D02*
X201320400Y-120243600D01*
X199771000Y-133096000D02*
X197739000Y-135128000D01*
X199771000Y-131826000D02*
X199771000Y-133096000D01*
X208838800Y-149809200D02*
X208788000Y-149860000D01*
X205359000Y-149860000D02*
X208407000Y-149860000D01*
X204216000Y-151003000D02*
X205359000Y-149860000D01*
X208407000Y-147294600D02*
X208457800Y-147243800D01*
X208407000Y-149860000D02*
X208407000Y-147294600D01*
X207416400Y-135375800D02*
X207168600Y-135128000D01*
X207416400Y-146202400D02*
X207416400Y-135375800D01*
X208457800Y-147243800D02*
X207416400Y-146202400D01*
D26*
%TO.N,-12V*%
X212967370Y-76668000D02*
X211836000Y-76668000D01*
X213868000Y-75767370D02*
X212967370Y-76668000D01*
X213868000Y-62992000D02*
X213868000Y-75767370D01*
D27*
X209409143Y-106553000D02*
X209550000Y-106553000D01*
X211359600Y-106553000D02*
X211562810Y-106349790D01*
X209550000Y-106553000D02*
X211359600Y-106553000D01*
X209053199Y-86705145D02*
X211823201Y-89475147D01*
X209053199Y-82903355D02*
X209053199Y-86705145D01*
X211819554Y-80137000D02*
X209053199Y-82903355D01*
X211823201Y-94729201D02*
X210275602Y-96276800D01*
X211823201Y-89475147D02*
X211823201Y-94729201D01*
X211836000Y-80137000D02*
X211819554Y-80137000D01*
X210275602Y-96276800D02*
X210210400Y-96276800D01*
X211836000Y-76668000D02*
X211836000Y-80137000D01*
X211562810Y-97629210D02*
X211562810Y-106349790D01*
X210210400Y-96276800D02*
X211562810Y-97629210D01*
%TO.N,-5V*%
X201676000Y-77912600D02*
X201676000Y-78232000D01*
X201676000Y-77912600D02*
X201991999Y-78228599D01*
D26*
X202244682Y-77912600D02*
X202057000Y-77912600D01*
X204719282Y-75438000D02*
X202244682Y-77912600D01*
X206248000Y-75438000D02*
X204719282Y-75438000D01*
D27*
X200598400Y-77912600D02*
X202057000Y-77912600D01*
X197993000Y-89662000D02*
X199195081Y-89662000D01*
X199759801Y-78751199D02*
X200598400Y-77912600D01*
X199759801Y-89097280D02*
X199759801Y-78751199D01*
X199195081Y-89662000D02*
X199759801Y-89097280D01*
D28*
%TO.N,Net-(C12-Pad1)*%
X204216000Y-145669000D02*
X204216000Y-148590000D01*
D29*
X204216000Y-146304000D02*
X203701790Y-145789790D01*
X202793600Y-135928796D02*
X202793600Y-134518400D01*
D30*
X202793600Y-134473714D02*
X204571600Y-132695714D01*
X202793600Y-134518400D02*
X202793600Y-134473714D01*
D29*
X203701791Y-145154791D02*
X203701791Y-141611209D01*
X204216000Y-145669000D02*
X203701791Y-145154791D01*
X202793600Y-140703018D02*
X202793600Y-135928796D01*
X203701791Y-141611209D02*
X202793600Y-140703018D01*
D28*
X205740000Y-131508500D02*
X205740000Y-107772200D01*
X204571600Y-132676900D02*
X205740000Y-131508500D01*
X204571600Y-132695714D02*
X204571600Y-132676900D01*
D30*
%TO.N,/MainBoard/MCU_ADC2*%
X204063600Y-125755400D02*
X204089000Y-125730000D01*
D28*
X204063600Y-128778000D02*
X204063600Y-125755400D01*
D30*
X203835000Y-125476000D02*
X204089000Y-125730000D01*
D28*
X203835000Y-122809000D02*
X203835000Y-125476000D01*
X203835000Y-120142000D02*
X203835000Y-122809000D01*
D30*
X199644000Y-140208000D02*
X197739000Y-140208000D01*
X201168000Y-135283276D02*
X201168000Y-138684000D01*
X201726809Y-134724467D02*
X201168000Y-135283276D01*
X201168000Y-138684000D02*
X199644000Y-140208000D01*
X204063600Y-130238421D02*
X202831621Y-131470400D01*
X201726810Y-134718153D02*
X201726809Y-134724467D01*
X204063600Y-128778000D02*
X204063600Y-130238421D01*
X202831620Y-133613343D02*
X201726810Y-134718153D01*
X202831621Y-131470400D02*
X202831620Y-133613343D01*
%TO.N,/MainBoard/MCU_ADC1*%
X207721200Y-122758200D02*
X207772000Y-122809000D01*
D28*
X207721200Y-120142000D02*
X207721200Y-122758200D01*
D30*
X207772000Y-125349000D02*
X207391000Y-125730000D01*
D28*
X207772000Y-122809000D02*
X207772000Y-125349000D01*
X207391000Y-125730000D02*
X207391000Y-128778000D01*
D30*
X207391000Y-130115908D02*
X206792589Y-130714319D01*
X207391000Y-128778000D02*
X207391000Y-130115908D01*
X206792589Y-133253801D02*
X206353400Y-133692990D01*
X206792589Y-130714319D02*
X206792589Y-133253801D01*
X204364600Y-133692990D02*
X203523990Y-134533600D01*
X206353400Y-133692990D02*
X204364600Y-133692990D01*
X203523990Y-135832990D02*
X205359000Y-137668000D01*
X203523990Y-134533600D02*
X203523990Y-135832990D01*
D28*
%TO.N,Net-(D5-Pad1)*%
X214745801Y-152030199D02*
X214249000Y-152527000D01*
X214745801Y-146038801D02*
X214745801Y-152030199D01*
X214742799Y-146035799D02*
X214745801Y-146038801D01*
X213450357Y-146035799D02*
X214742799Y-146035799D01*
X212676199Y-145261641D02*
X213450357Y-146035799D01*
X212676199Y-144044359D02*
X213335559Y-143384999D01*
X212676199Y-145261641D02*
X212676199Y-144044359D01*
X213335559Y-143384999D02*
X214122000Y-143384999D01*
X214122000Y-142290800D02*
X213944200Y-142113000D01*
D29*
X210756500Y-135877300D02*
X209245200Y-134366000D01*
X210745789Y-135888011D02*
X210756500Y-135877300D01*
X210745789Y-141097000D02*
X210745789Y-135888011D01*
D28*
X214122000Y-143384999D02*
X214122000Y-142113000D01*
%TO.N,Net-(JP1-Pad1)*%
X206638764Y-83629500D02*
X209650132Y-80618132D01*
X205486000Y-83629500D02*
X206638764Y-83629500D01*
D29*
X206638764Y-83629500D02*
X206768700Y-83629500D01*
D28*
X205486000Y-83629500D02*
X204216000Y-84899500D01*
X204216000Y-86496842D02*
X205349158Y-87630000D01*
X204216000Y-84899500D02*
X204216000Y-86496842D01*
X206131198Y-87630000D02*
X208026000Y-89524802D01*
X205349158Y-87630000D02*
X206131198Y-87630000D01*
X208026000Y-89524802D02*
X208026000Y-92456000D01*
X208026000Y-92456000D02*
X206883000Y-93599000D01*
X206883000Y-98806000D02*
X209550000Y-101473000D01*
X206883000Y-93599000D02*
X206883000Y-98806000D01*
%TO.N,Net-(JP1-Pad2)*%
X213296500Y-80899000D02*
X210566000Y-83629500D01*
X213487000Y-80899000D02*
X213296500Y-80899000D01*
X207238600Y-87731600D02*
X205486000Y-85979000D01*
X208330800Y-87731600D02*
X207238600Y-87731600D01*
X208330800Y-87731600D02*
X208788000Y-88188800D01*
X208788000Y-92962622D02*
X208026000Y-93724622D01*
X208788000Y-88188800D02*
X208788000Y-92962622D01*
X208026000Y-97409000D02*
X209550000Y-98933000D01*
X208026000Y-93724622D02*
X208026000Y-97409000D01*
%TO.N,Net-(Q1-Pad1)*%
X214325200Y-139192000D02*
X213944200Y-139573000D01*
X214325200Y-137033000D02*
X214325200Y-139192000D01*
%TO.N,/MainBoard/MCU_PB0*%
X208407000Y-155194000D02*
X210947000Y-155194000D01*
X210947000Y-155194000D02*
X212852000Y-153289000D01*
X212852000Y-150495000D02*
X213487000Y-149860000D01*
X212852000Y-153289000D02*
X212852000Y-150495000D01*
X205424001Y-142813001D02*
X205359000Y-142748000D01*
X211366122Y-146659622D02*
X209359500Y-144653000D01*
X211366122Y-149861523D02*
X211366122Y-146659622D01*
X206400390Y-143738590D02*
X206400390Y-146874680D01*
X205409800Y-142748000D02*
X206400390Y-143738590D01*
X206400390Y-146874680D02*
X206663306Y-147137596D01*
X205359000Y-142748000D02*
X205409800Y-142748000D01*
D29*
%TO.N,Net-(Q3-Pad2)*%
X212329799Y-156351201D02*
X213487000Y-155194000D01*
X203849201Y-156351201D02*
X212329799Y-156351201D01*
X201676000Y-154178000D02*
X203849201Y-156351201D01*
D28*
%TO.N,Net-(Q3-Pad3)*%
X199136000Y-151003000D02*
X199136000Y-154178000D01*
%TO.N,Net-(R4-Pad1)*%
X199136000Y-114173000D02*
X201930000Y-114173000D01*
X197993000Y-115316000D02*
X199136000Y-114173000D01*
X197343799Y-118730799D02*
X198755000Y-120142000D01*
X197343799Y-116797623D02*
X197343799Y-118730799D01*
X197993000Y-116148422D02*
X197343799Y-116797623D01*
X197993000Y-115316000D02*
X197993000Y-116148422D01*
%TO.N,Net-(R5-Pad1)*%
X203835000Y-113538000D02*
X201930000Y-111633000D01*
X203835000Y-117475000D02*
X203835000Y-113538000D01*
X197993000Y-110236000D02*
X197993000Y-111328200D01*
X198297800Y-111633000D02*
X201930000Y-111633000D01*
X197993000Y-111328200D02*
X198297800Y-111633000D01*
D29*
%TO.N,Net-(R10-Pad1)*%
X214085401Y-118857799D02*
X212801200Y-120142000D01*
X214085401Y-116295401D02*
X214085401Y-118857799D01*
X213106000Y-115316000D02*
X214085401Y-116295401D01*
X213106000Y-115316000D02*
X213106000Y-114554000D01*
X212725000Y-114173000D02*
X209550000Y-114173000D01*
X213106000Y-114554000D02*
X212725000Y-114173000D01*
D28*
%TO.N,Net-(R11-Pad1)*%
X213106000Y-110236000D02*
X213106000Y-111379000D01*
X212852000Y-111633000D02*
X209550000Y-111633000D01*
X213106000Y-111379000D02*
X212852000Y-111633000D01*
X207645000Y-113538000D02*
X209550000Y-111633000D01*
X207645000Y-117475000D02*
X207645000Y-113538000D01*
D29*
%TO.N,/MainBoard/MCU_PWM*%
X201977695Y-143379895D02*
X199688590Y-145669000D01*
X199688590Y-145669000D02*
X199136000Y-145669000D01*
D26*
%TO.N,Net-(D10-Pad2)*%
X198374000Y-59690000D02*
X200914000Y-59690000D01*
D31*
X206121000Y-59690000D02*
X206248000Y-59563000D01*
D26*
X200914000Y-59690000D02*
X206121000Y-59690000D01*
%TO.N,Net-(D11-Pad1)*%
X198374000Y-69850000D02*
X200914000Y-69850000D01*
X200914000Y-69850000D02*
X202184000Y-69850000D01*
X203200000Y-63754000D02*
X203962000Y-62992000D01*
X203962000Y-62992000D02*
X206248000Y-62992000D01*
X203200000Y-68834000D02*
X203200000Y-63754000D01*
X202184000Y-69850000D02*
X203200000Y-68834000D01*
D30*
%TO.N,/MainBoard/MCU_ADC3*%
X199193000Y-137668000D02*
X197739000Y-137668000D01*
X200279000Y-136582000D02*
X199193000Y-137668000D01*
X200279000Y-135382000D02*
X200279000Y-136582000D01*
X201168000Y-134486687D02*
X201168000Y-134493000D01*
X201168000Y-134493000D02*
X200279000Y-135382000D01*
X202272811Y-133381876D02*
X201168000Y-134486687D01*
X197993000Y-104902000D02*
X196685799Y-106209201D01*
X202272811Y-130235551D02*
X202272811Y-133381876D01*
D28*
X198599961Y-124218799D02*
X198151405Y-124218799D01*
X201231401Y-129184353D02*
X201231401Y-126850239D01*
X198151405Y-124218799D02*
X196685799Y-122753193D01*
X201231401Y-126850239D02*
X198599961Y-124218799D01*
X202277705Y-130230657D02*
X201231401Y-129184353D01*
X196685799Y-122670199D02*
X196672200Y-122656600D01*
X196685799Y-122753193D02*
X196685799Y-122670199D01*
X196672200Y-122656600D02*
X196672200Y-119354600D01*
D30*
X196672200Y-117957600D02*
X196685799Y-117944001D01*
X196685799Y-117944001D02*
X196685799Y-106209201D01*
X196672200Y-119354600D02*
X196672200Y-117957600D01*
D29*
%TO.N,/MainBoard/IN_LED+*%
X211364599Y-115533401D02*
X211582000Y-115316000D01*
X212015790Y-143770808D02*
X212904799Y-142881799D01*
X208425639Y-153987401D02*
X212329799Y-150083241D01*
X212904799Y-130383797D02*
X212229789Y-129708788D01*
X212015789Y-145535191D02*
X212015790Y-143770808D01*
X212329799Y-145849201D02*
X212015789Y-145535191D01*
X204216000Y-154178000D02*
X204406599Y-153987401D01*
X212904799Y-142881799D02*
X212904799Y-130383797D01*
X211364599Y-123334993D02*
X211364599Y-115533401D01*
X212329799Y-150083241D02*
X212329799Y-145849201D01*
X212229789Y-124200183D02*
X211364599Y-123334993D01*
X204406599Y-153987401D02*
X208425639Y-153987401D01*
X212229789Y-129708788D02*
X212229789Y-124200183D01*
D28*
%TO.N,/MainBoard/OUT*%
X212344000Y-85979000D02*
X213487000Y-87122000D01*
X210566000Y-85979000D02*
X212344000Y-85979000D01*
D29*
%TO.N,/MainBoard/OUT_LED+*%
X201422000Y-88265000D02*
X201422000Y-92492599D01*
X201422000Y-93660999D02*
X201741001Y-93980000D01*
X201422000Y-92492599D02*
X201422000Y-93660999D01*
X205422401Y-101739799D02*
X205155800Y-102006400D01*
X204345394Y-94132400D02*
X205422401Y-95209407D01*
X205422401Y-95209407D02*
X205422401Y-101739799D01*
X204128601Y-94132400D02*
X204345394Y-94132400D01*
D32*
%TO.N,/MainBoard/CLK_TRG*%
X213487000Y-104902000D02*
X214757000Y-106172000D01*
X214757000Y-106172000D02*
X214757000Y-109347000D01*
D30*
X214325200Y-131953000D02*
X214325200Y-134366000D01*
X214325200Y-130978002D02*
X214325200Y-131953000D01*
X212813999Y-129466801D02*
X214325200Y-130978002D01*
X212813999Y-124421999D02*
X212813999Y-129466801D01*
X214757000Y-122879802D02*
X213341803Y-124294999D01*
X213341803Y-124294999D02*
X212940999Y-124294999D01*
X212940999Y-124294999D02*
X212813999Y-124421999D01*
X214757000Y-109347000D02*
X214757000Y-122879802D01*
D28*
%TO.N,/MainBoard/P2_AVG*%
X211836000Y-109093000D02*
X213487000Y-107442000D01*
X209550000Y-109093000D02*
X211836000Y-109093000D01*
%TO.N,/MainBoard/P1_AVG*%
X197993000Y-107442000D02*
X197993000Y-108026200D01*
X199059800Y-109093000D02*
X201930000Y-109093000D01*
X197993000Y-108026200D02*
X199059800Y-109093000D01*
%TD*%
M02*
