G04 #@! TF.GenerationSoftware,KiCad,Pcbnew,(5.1.9-0-10_14)*
G04 #@! TF.CreationDate,2021-02-07T03:36:00-06:00*
G04 #@! TF.ProjectId,JNTUB_board1,4a4e5455-425f-4626-9f61-7264312e6b69,rev?*
G04 #@! TF.SameCoordinates,Original*
G04 #@! TF.FileFunction,Copper,L1,Top*
G04 #@! TF.FilePolarity,Positive*
%FSLAX46Y46*%
G04 Gerber Fmt 4.6, Leading zero omitted, Abs format (unit mm)*
G04 Created by KiCad (PCBNEW (5.1.9-0-10_14)) date 2021-02-07 03:36:00*
%MOMM*%
%LPD*%
G01*
G04 APERTURE LIST*
G04 #@! TA.AperFunction,ComponentPad*
%ADD10O,2.500000X2.800000*%
G04 #@! TD*
G04 #@! TA.AperFunction,ComponentPad*
%ADD11C,2.100000*%
G04 #@! TD*
G04 #@! TA.AperFunction,ComponentPad*
%ADD12O,1.600000X1.600000*%
G04 #@! TD*
G04 #@! TA.AperFunction,ComponentPad*
%ADD13C,1.600000*%
G04 #@! TD*
G04 #@! TA.AperFunction,ComponentPad*
%ADD14R,1.700000X1.700000*%
G04 #@! TD*
G04 #@! TA.AperFunction,ComponentPad*
%ADD15O,1.700000X1.700000*%
G04 #@! TD*
G04 #@! TA.AperFunction,ComponentPad*
%ADD16C,2.000000*%
G04 #@! TD*
G04 #@! TA.AperFunction,ComponentPad*
%ADD17R,1.800000X1.800000*%
G04 #@! TD*
G04 #@! TA.AperFunction,ComponentPad*
%ADD18C,1.800000*%
G04 #@! TD*
G04 #@! TA.AperFunction,ViaPad*
%ADD19C,1.016000*%
G04 #@! TD*
G04 #@! TA.AperFunction,ViaPad*
%ADD20C,0.762000*%
G04 #@! TD*
G04 #@! TA.AperFunction,Conductor*
%ADD21C,1.270000*%
G04 #@! TD*
G04 #@! TA.AperFunction,Conductor*
%ADD22C,0.609600*%
G04 #@! TD*
G04 #@! TA.AperFunction,Conductor*
%ADD23C,0.350000*%
G04 #@! TD*
G04 #@! TA.AperFunction,Conductor*
%ADD24C,0.508000*%
G04 #@! TD*
G04 #@! TA.AperFunction,Conductor*
%ADD25C,0.406400*%
G04 #@! TD*
G04 #@! TA.AperFunction,Conductor*
%ADD26C,0.762000*%
G04 #@! TD*
G04 #@! TA.AperFunction,Conductor*
%ADD27C,0.304800*%
G04 #@! TD*
G04 APERTURE END LIST*
D10*
G04 #@! TO.P,RV3,MP*
G04 #@! TO.N,GNDREF*
X232784000Y-60452000D03*
X222384000Y-60452000D03*
D11*
G04 #@! TO.P,RV3,3*
G04 #@! TO.N,+5V*
X230084000Y-67952000D03*
G04 #@! TO.P,RV3,2*
G04 #@! TO.N,/PeripheralBoard/P3_POT*
X227584000Y-67952000D03*
G04 #@! TO.P,RV3,1*
G04 #@! TO.N,GNDREF*
X225084000Y-67952000D03*
G04 #@! TD*
D10*
G04 #@! TO.P,RV1,MP*
G04 #@! TO.N,GNDREF*
X232784000Y-101092000D03*
X222384000Y-101092000D03*
D11*
G04 #@! TO.P,RV1,3*
G04 #@! TO.N,+5V*
X230084000Y-108592000D03*
G04 #@! TO.P,RV1,2*
G04 #@! TO.N,/PeripheralBoard/P1_POT*
X227584000Y-108592000D03*
G04 #@! TO.P,RV1,1*
G04 #@! TO.N,-5V*
X225084000Y-108592000D03*
G04 #@! TD*
D10*
G04 #@! TO.P,RV2,MP*
G04 #@! TO.N,GNDREF*
X232784000Y-80772000D03*
X222384000Y-80772000D03*
D11*
G04 #@! TO.P,RV2,3*
G04 #@! TO.N,+5V*
X230084000Y-88272000D03*
G04 #@! TO.P,RV2,2*
G04 #@! TO.N,/PeripheralBoard/P2_POT*
X227584000Y-88272000D03*
G04 #@! TO.P,RV2,1*
G04 #@! TO.N,-5V*
X225084000Y-88272000D03*
G04 #@! TD*
D12*
G04 #@! TO.P,R1,2*
G04 #@! TO.N,/PeripheralBoard/P2_POT*
X229616000Y-74168000D03*
D13*
G04 #@! TO.P,R1,1*
G04 #@! TO.N,/PeripheralBoard/P2_AVG*
X227076000Y-74168000D03*
G04 #@! TD*
D12*
G04 #@! TO.P,R3,2*
G04 #@! TO.N,/PeripheralBoard/P2_CV*
X229616000Y-70612000D03*
D13*
G04 #@! TO.P,R3,1*
G04 #@! TO.N,/PeripheralBoard/P2_AVG*
X227076000Y-70612000D03*
G04 #@! TD*
D12*
G04 #@! TO.P,R7,2*
G04 #@! TO.N,/PeripheralBoard/P1_AVG*
X220218000Y-70612000D03*
D13*
G04 #@! TO.P,R7,1*
G04 #@! TO.N,/PeripheralBoard/P1_POT*
X222758000Y-70612000D03*
G04 #@! TD*
D12*
G04 #@! TO.P,R9,2*
G04 #@! TO.N,/PeripheralBoard/P1_AVG*
X220218000Y-74168000D03*
D13*
G04 #@! TO.P,R9,1*
G04 #@! TO.N,/PeripheralBoard/P1_CV*
X222758000Y-74168000D03*
G04 #@! TD*
D12*
G04 #@! TO.P,R15,2*
G04 #@! TO.N,/PeripheralBoard/DITTO*
X235331000Y-155448000D03*
D13*
G04 #@! TO.P,R15,1*
G04 #@! TO.N,/PeripheralBoard/CLK_TRG*
X232791000Y-155448000D03*
G04 #@! TD*
D12*
G04 #@! TO.P,R17,2*
G04 #@! TO.N,/PeripheralBoard/CLK_TRG*
X219837000Y-155448000D03*
D13*
G04 #@! TO.P,R17,1*
G04 #@! TO.N,GNDREF*
X222377000Y-155448000D03*
G04 #@! TD*
D12*
G04 #@! TO.P,R21,2*
G04 #@! TO.N,/PeripheralBoard/OUT*
X231902000Y-111760000D03*
D13*
G04 #@! TO.P,R21,1*
G04 #@! TO.N,/PeripheralBoard/OUT1*
X229362000Y-111760000D03*
G04 #@! TD*
D12*
G04 #@! TO.P,R29,2*
G04 #@! TO.N,Net-(J1-Pad2)*
X223266000Y-111760000D03*
D13*
G04 #@! TO.P,R29,1*
G04 #@! TO.N,GNDREF*
X225806000Y-111760000D03*
G04 #@! TD*
D14*
G04 #@! TO.P,J7,1*
G04 #@! TO.N,+5V*
X219837000Y-91694000D03*
D15*
G04 #@! TO.P,J7,2*
G04 #@! TO.N,-5V*
X219837000Y-94234000D03*
G04 #@! TO.P,J7,3*
G04 #@! TO.N,Net-(J7-Pad3)*
X219837000Y-96774000D03*
G04 #@! TO.P,J7,4*
G04 #@! TO.N,/PeripheralBoard/LED_NEG*
X219837000Y-99314000D03*
G04 #@! TO.P,J7,5*
G04 #@! TO.N,/PeripheralBoard/LED_POS*
X219837000Y-101854000D03*
G04 #@! TO.P,J7,6*
G04 #@! TO.N,/PeripheralBoard/P3_POT*
X219837000Y-104394000D03*
G04 #@! TO.P,J7,7*
G04 #@! TO.N,/PeripheralBoard/P2_AVG*
X219837000Y-106934000D03*
G04 #@! TD*
G04 #@! TO.P,J8,7*
G04 #@! TO.N,/PeripheralBoard/P1_AVG*
X235331000Y-106934000D03*
G04 #@! TO.P,J8,6*
G04 #@! TO.N,/PeripheralBoard/CLK_TRG*
X235331000Y-104394000D03*
G04 #@! TO.P,J8,5*
G04 #@! TO.N,/PeripheralBoard/CLK_LED*
X235331000Y-101854000D03*
G04 #@! TO.P,J8,4*
G04 #@! TO.N,GNDREF*
X235331000Y-99314000D03*
G04 #@! TO.P,J8,3*
X235331000Y-96774000D03*
G04 #@! TO.P,J8,2*
X235331000Y-94234000D03*
D14*
G04 #@! TO.P,J8,1*
G04 #@! TO.N,/PeripheralBoard/OUT*
X235331000Y-91694000D03*
G04 #@! TD*
D16*
G04 #@! TO.P,J4,3*
G04 #@! TO.N,/PeripheralBoard/DITTO*
X232664000Y-137508000D03*
G04 #@! TO.P,J4,2*
G04 #@! TO.N,Net-(J4-Pad2)*
X232664000Y-129208000D03*
G04 #@! TD*
G04 #@! TO.P,J3,3*
G04 #@! TO.N,/PeripheralBoard/CLK_TRG*
X222504000Y-137508000D03*
G04 #@! TO.P,J3,2*
G04 #@! TO.N,Net-(J3-Pad2)*
X222504000Y-129208000D03*
G04 #@! TD*
G04 #@! TO.P,J6,1*
G04 #@! TO.N,GNDREF*
X232664000Y-151768000D03*
G04 #@! TO.P,J6,2*
G04 #@! TO.N,Net-(J6-Pad2)*
X232664000Y-148668000D03*
G04 #@! TO.P,J6,3*
G04 #@! TO.N,/PeripheralBoard/OUT1*
X232664000Y-140368000D03*
G04 #@! TD*
G04 #@! TO.P,J5,1*
G04 #@! TO.N,GNDREF*
X222504000Y-151768000D03*
G04 #@! TO.P,J5,2*
G04 #@! TO.N,Net-(J5-Pad2)*
X222504000Y-148668000D03*
G04 #@! TO.P,J5,3*
G04 #@! TO.N,/PeripheralBoard/OUT1*
X222504000Y-140368000D03*
G04 #@! TD*
G04 #@! TO.P,J2,1*
G04 #@! TO.N,GNDREF*
X232664000Y-126368000D03*
G04 #@! TO.P,J2,2*
G04 #@! TO.N,Net-(J1-Pad2)*
X232664000Y-123268000D03*
G04 #@! TO.P,J2,3*
G04 #@! TO.N,/PeripheralBoard/P2_CV*
X232664000Y-114968000D03*
G04 #@! TD*
G04 #@! TO.P,J1,1*
G04 #@! TO.N,GNDREF*
X222504000Y-126368000D03*
G04 #@! TO.P,J1,2*
G04 #@! TO.N,Net-(J1-Pad2)*
X222504000Y-123268000D03*
G04 #@! TO.P,J1,3*
G04 #@! TO.N,/PeripheralBoard/P1_CV*
X222504000Y-114968000D03*
G04 #@! TD*
D17*
G04 #@! TO.P,D6,1*
G04 #@! TO.N,GNDREF*
X226314000Y-126238000D03*
D18*
G04 #@! TO.P,D6,2*
G04 #@! TO.N,/PeripheralBoard/CLK_LED*
X228854000Y-126238000D03*
G04 #@! TD*
D17*
G04 #@! TO.P,D7,1*
G04 #@! TO.N,/PeripheralBoard/LED_NEG*
X226314000Y-151638000D03*
D18*
G04 #@! TO.P,D7,2*
G04 #@! TO.N,/PeripheralBoard/LED_POS*
X228854000Y-151638000D03*
G04 #@! TD*
D17*
G04 #@! TO.P,D8,1*
G04 #@! TO.N,/PeripheralBoard/LED_POS*
X228854000Y-155448000D03*
D18*
G04 #@! TO.P,D8,2*
G04 #@! TO.N,/PeripheralBoard/LED_NEG*
X226314000Y-155448000D03*
G04 #@! TD*
D19*
G04 #@! TO.N,GNDREF*
X226822000Y-113411000D03*
X224155000Y-155448000D03*
D20*
G04 #@! TO.N,+5V*
X232537000Y-75946000D03*
X232537000Y-72390000D03*
X229362000Y-96869902D03*
X228727000Y-104521000D03*
G04 #@! TO.N,-5V*
X226441000Y-104521000D03*
X228092000Y-98171000D03*
G04 #@! TO.N,/PeripheralBoard/OUT*
X234188000Y-84836000D03*
G04 #@! TO.N,/PeripheralBoard/CLK_TRG*
X218795600Y-137515600D03*
X234188000Y-153670000D03*
X236474000Y-111760000D03*
X236474000Y-151384000D03*
G04 #@! TO.N,/PeripheralBoard/P2_AVG*
X224663000Y-76454000D03*
X221742000Y-76454000D03*
G04 #@! TO.N,/PeripheralBoard/P1_AVG*
X220218000Y-67056000D03*
X220218000Y-64135000D03*
G04 #@! TO.N,/PeripheralBoard/CLK_LED*
X227203000Y-135255000D03*
X229616000Y-135255000D03*
G04 #@! TO.N,/PeripheralBoard/LED_NEG*
X226822000Y-148209000D03*
G04 #@! TO.N,/PeripheralBoard/LED_POS*
X228346000Y-148209000D03*
X219964000Y-108966000D03*
X226949000Y-141859000D03*
X226949000Y-138684000D03*
G04 #@! TO.N,/PeripheralBoard/OUT1*
X227838000Y-120142000D03*
X227838000Y-122301000D03*
G04 #@! TD*
D21*
G04 #@! TO.N,GNDREF*
X225806000Y-112395000D02*
X226822000Y-113411000D01*
X225806000Y-111760000D02*
X225806000Y-112395000D01*
X222377000Y-155448000D02*
X224155000Y-155448000D01*
D22*
G04 #@! TO.N,+5V*
X230084000Y-85685000D02*
X230084000Y-88272000D01*
D23*
X219913200Y-91617800D02*
X219837000Y-91694000D01*
D22*
X230084000Y-78399000D02*
X232537000Y-75946000D01*
X230084000Y-85685000D02*
X230084000Y-78399000D01*
X232537000Y-70405000D02*
X230084000Y-67952000D01*
X232537000Y-72390000D02*
X232537000Y-70405000D01*
X230084000Y-105878000D02*
X228727000Y-104521000D01*
X230084000Y-108592000D02*
X230084000Y-105878000D01*
X230084000Y-96147902D02*
X229362000Y-96869902D01*
X230084000Y-88272000D02*
X230084000Y-96147902D01*
G04 #@! TO.N,-5V*
X225044000Y-108552000D02*
X225084000Y-108592000D01*
X225084000Y-105878000D02*
X226441000Y-104521000D01*
X225084000Y-108592000D02*
X225084000Y-105878000D01*
X225084000Y-95163000D02*
X228092000Y-98171000D01*
X225084000Y-88272000D02*
X225084000Y-95163000D01*
D24*
G04 #@! TO.N,Net-(J1-Pad2)*
X222504000Y-123268000D02*
X224487000Y-121285000D01*
X230681000Y-121285000D02*
X232664000Y-123268000D01*
X224487000Y-121285000D02*
X225806000Y-121285000D01*
X225806000Y-121285000D02*
X230681000Y-121285000D01*
X223266000Y-112776000D02*
X223266000Y-111760000D01*
X225806000Y-115316000D02*
X223266000Y-112776000D01*
X225806000Y-121285000D02*
X225806000Y-115316000D01*
G04 #@! TO.N,/PeripheralBoard/P1_CV*
X222681801Y-74244199D02*
X222758000Y-74168000D01*
X222681801Y-77520801D02*
X222681801Y-74244199D01*
X224536000Y-79375000D02*
X222681801Y-77520801D01*
X226314000Y-102997000D02*
X226314000Y-99187000D01*
X222250000Y-86741000D02*
X224536000Y-84455000D01*
X222250000Y-88900000D02*
X222250000Y-86741000D01*
X221488000Y-107823000D02*
X226314000Y-102997000D01*
X221488000Y-113952000D02*
X221488000Y-107823000D01*
X226314000Y-99187000D02*
X223266000Y-96139000D01*
X223266000Y-89916000D02*
X222250000Y-88900000D01*
X224536000Y-84455000D02*
X224536000Y-79375000D01*
X223266000Y-96139000D02*
X223266000Y-89916000D01*
X222504000Y-114968000D02*
X221488000Y-113952000D01*
G04 #@! TO.N,/PeripheralBoard/P2_CV*
X229616000Y-71743370D02*
X231913630Y-74041000D01*
X233871399Y-110173399D02*
X233871399Y-113760601D01*
X233871399Y-113760601D02*
X232664000Y-114968000D01*
X233299000Y-109601000D02*
X233299000Y-106680000D01*
X234188000Y-77089000D02*
X234188000Y-78232000D01*
X234188000Y-78232000D02*
X235331000Y-79375000D01*
X235331000Y-79375000D02*
X235331000Y-87122000D01*
X235331000Y-87122000D02*
X232664000Y-89789000D01*
X232664000Y-89789000D02*
X232664000Y-96520000D01*
X232664000Y-96520000D02*
X229616000Y-99568000D01*
X229616000Y-99568000D02*
X229616000Y-102616000D01*
X229616000Y-102616000D02*
X233299000Y-106299000D01*
X233299000Y-106299000D02*
X233299000Y-106680000D01*
X233871399Y-110173399D02*
X233299000Y-109601000D01*
X234188000Y-75311000D02*
X234188000Y-77089000D01*
X232918000Y-74041000D02*
X234188000Y-75311000D01*
X231913630Y-74041000D02*
X232918000Y-74041000D01*
X229616000Y-70612000D02*
X229616000Y-71743370D01*
G04 #@! TO.N,/PeripheralBoard/OUT*
X231902000Y-111760000D02*
X231902000Y-106172000D01*
X231902000Y-106172000D02*
X231648000Y-105918000D01*
X228727000Y-102997000D02*
X231648000Y-105918000D01*
X228727000Y-99060000D02*
X228727000Y-102997000D01*
X229362000Y-98425000D02*
X228727000Y-99060000D01*
X231648000Y-96139000D02*
X229362000Y-98425000D01*
X231648000Y-91821000D02*
X231648000Y-96139000D01*
X231648000Y-89281000D02*
X231648000Y-91821000D01*
X232156000Y-88773000D02*
X231648000Y-89281000D01*
X234188000Y-86741000D02*
X232156000Y-88773000D01*
X234188000Y-84836000D02*
X234188000Y-86741000D01*
G04 #@! TO.N,/PeripheralBoard/P3_POT*
X219202000Y-65786000D02*
X227076000Y-65786000D01*
X221488000Y-90678000D02*
X218694000Y-87884000D01*
X221488000Y-96901000D02*
X221488000Y-90678000D01*
X224536000Y-99949000D02*
X221488000Y-96901000D01*
X227076000Y-65786000D02*
X227584000Y-66294000D01*
X218694000Y-66294000D02*
X219202000Y-65786000D01*
X224536000Y-102235000D02*
X224536000Y-99949000D01*
X218694000Y-87884000D02*
X218694000Y-66294000D01*
X222377000Y-104394000D02*
X224536000Y-102235000D01*
X227584000Y-66294000D02*
X227584000Y-67952000D01*
X219837000Y-104394000D02*
X222377000Y-104394000D01*
D22*
G04 #@! TO.N,/PeripheralBoard/P2_POT*
X229616000Y-75946000D02*
X229616000Y-74168000D01*
X227584000Y-77978000D02*
X229616000Y-75946000D01*
X227584000Y-88272000D02*
X227584000Y-77978000D01*
D24*
G04 #@! TO.N,/PeripheralBoard/P1_POT*
X224663000Y-74930000D02*
X223647000Y-75946000D01*
X224078810Y-95681810D02*
X227584000Y-99187000D01*
X224078810Y-89579324D02*
X224078810Y-95681810D01*
X223266000Y-88766514D02*
X224078810Y-89579324D01*
X227584000Y-99187000D02*
X227584000Y-108592000D01*
X223266000Y-87249000D02*
X223266000Y-88766514D01*
X225806000Y-84709000D02*
X223266000Y-87249000D01*
X225806000Y-79248000D02*
X225806000Y-84709000D01*
X223647000Y-77089000D02*
X225806000Y-79248000D01*
X223647000Y-75946000D02*
X223647000Y-77089000D01*
X224663000Y-71501000D02*
X224663000Y-74930000D01*
X223774000Y-70612000D02*
X224663000Y-71501000D01*
X222758000Y-70612000D02*
X223774000Y-70612000D01*
D22*
G04 #@! TO.N,/PeripheralBoard/CLK_TRG*
X218795600Y-153212800D02*
X219163601Y-153580801D01*
X218795600Y-137515600D02*
X218795600Y-153212800D01*
X219837000Y-155448000D02*
X219837000Y-153593202D01*
D25*
X220218000Y-153593202D02*
X220205599Y-153580801D01*
D22*
X219163601Y-153580801D02*
X220205599Y-153580801D01*
X236474000Y-133223000D02*
X236474000Y-111760000D01*
X236474000Y-151384000D02*
X236474000Y-133223000D01*
X224790000Y-149733000D02*
X224409000Y-150114000D01*
X230378000Y-149733000D02*
X224790000Y-149733000D01*
X230759000Y-153162000D02*
X230759000Y-150114000D01*
X220815199Y-153580801D02*
X220205599Y-153580801D01*
X223990199Y-153580801D02*
X220815199Y-153580801D01*
X224409000Y-153162000D02*
X223990199Y-153580801D01*
X224409000Y-150114000D02*
X224409000Y-153162000D01*
X230759000Y-150114000D02*
X230378000Y-149733000D01*
X231267000Y-153670000D02*
X230759000Y-153162000D01*
X232791000Y-153670000D02*
X232791000Y-155448000D01*
X234188000Y-153670000D02*
X232791000Y-153670000D01*
X232791000Y-153670000D02*
X231267000Y-153670000D01*
G04 #@! TO.N,/PeripheralBoard/P2_AVG*
X227076000Y-70612000D02*
X227076000Y-74168000D01*
D24*
X219583000Y-87503000D02*
X219583000Y-78613000D01*
D22*
X226060000Y-76454000D02*
X227076000Y-75438000D01*
X227076000Y-75438000D02*
X227076000Y-74168000D01*
X224663000Y-76454000D02*
X226060000Y-76454000D01*
D24*
X219583000Y-78613000D02*
X221742000Y-76454000D01*
X219837000Y-106934000D02*
X221107000Y-106934000D01*
X221107000Y-106934000D02*
X225425000Y-102616000D01*
X225425000Y-102616000D02*
X225425000Y-99568000D01*
X225425000Y-99568000D02*
X222377000Y-96520000D01*
X222377000Y-96520000D02*
X222377000Y-90297000D01*
X222377000Y-90297000D02*
X219583000Y-87503000D01*
D26*
G04 #@! TO.N,/PeripheralBoard/P1_AVG*
X220218000Y-70612000D02*
X220218000Y-73914000D01*
D24*
X233680000Y-105283000D02*
X235331000Y-106934000D01*
X220218000Y-64135000D02*
X235331000Y-64135000D01*
X235331000Y-64135000D02*
X236347000Y-65151000D01*
X236347000Y-65151000D02*
X236347000Y-78867000D01*
X233680000Y-105283000D02*
X230632000Y-102235000D01*
X230632000Y-102235000D02*
X230632000Y-99949000D01*
X230632000Y-99949000D02*
X233680000Y-96901000D01*
X233680000Y-96901000D02*
X233680000Y-90170000D01*
X233680000Y-90170000D02*
X236347000Y-87503000D01*
X236347000Y-87503000D02*
X236347000Y-78867000D01*
X220218000Y-70612000D02*
X220218000Y-67056000D01*
D25*
G04 #@! TO.N,/PeripheralBoard/CLK_LED*
X228854000Y-125476000D02*
X228854000Y-126238000D01*
D27*
X235331000Y-101854000D02*
X236703790Y-103226790D01*
X236703790Y-107495868D02*
X235331000Y-108868658D01*
X236703790Y-103226790D02*
X236703790Y-107495868D01*
X235331000Y-108868658D02*
X235331000Y-109220000D01*
D22*
X235331000Y-134874000D02*
X235331000Y-109220000D01*
X234950000Y-135255000D02*
X235331000Y-134874000D01*
X229616000Y-135255000D02*
X234950000Y-135255000D01*
X228854000Y-127762000D02*
X228854000Y-126238000D01*
X227203000Y-129413000D02*
X228854000Y-127762000D01*
X227203000Y-135255000D02*
X227203000Y-129413000D01*
D27*
G04 #@! TO.N,/PeripheralBoard/LED_NEG*
X218694000Y-107823000D02*
X218694000Y-108458000D01*
X218464210Y-107593210D02*
X218694000Y-107823000D01*
X218464210Y-100686790D02*
X218464210Y-107593210D01*
X219837000Y-99314000D02*
X218464210Y-100686790D01*
D22*
X224536000Y-142621000D02*
X226822000Y-144907000D01*
X226822000Y-144907000D02*
X226822000Y-148209000D01*
X218694000Y-135636000D02*
X220091000Y-137033000D01*
X220091000Y-137033000D02*
X220091000Y-141351000D01*
X220091000Y-141351000D02*
X221361000Y-142621000D01*
X221361000Y-142621000D02*
X224536000Y-142621000D01*
X218694000Y-108458000D02*
X218694000Y-135636000D01*
D25*
G04 #@! TO.N,/PeripheralBoard/LED_POS*
X219837000Y-101854000D02*
X219837000Y-102384158D01*
D22*
X228346000Y-148209000D02*
X228346000Y-144145000D01*
X226949000Y-138176000D02*
X226949000Y-138684000D01*
X224155000Y-135382000D02*
X226949000Y-138176000D01*
X220853000Y-135382000D02*
X224155000Y-135382000D01*
X219964000Y-134493000D02*
X220853000Y-135382000D01*
X219964000Y-108966000D02*
X219964000Y-134493000D01*
X228346000Y-144145000D02*
X226949000Y-142748000D01*
X226949000Y-142748000D02*
X226949000Y-141859000D01*
G04 #@! TO.N,/PeripheralBoard/DITTO*
X234409000Y-137508000D02*
X232664000Y-137508000D01*
X235331000Y-138430000D02*
X234409000Y-137508000D01*
X235331000Y-155448000D02*
X235331000Y-138430000D01*
D26*
G04 #@! TO.N,/PeripheralBoard/OUT1*
X222504000Y-140368000D02*
X228694000Y-140368000D01*
X228694000Y-140368000D02*
X232664000Y-140368000D01*
X228473000Y-130048000D02*
X230759000Y-127762000D01*
X228473000Y-140368000D02*
X228473000Y-130048000D01*
X230759000Y-125222000D02*
X230759000Y-127762000D01*
X227838000Y-122301000D02*
X230759000Y-125222000D01*
X229362000Y-117094000D02*
X227838000Y-118618000D01*
X227838000Y-118618000D02*
X227838000Y-120142000D01*
X229362000Y-111760000D02*
X229362000Y-117094000D01*
G04 #@! TD*
M02*
