G04 #@! TF.GenerationSoftware,KiCad,Pcbnew,(5.1.9-0-10_14)*
G04 #@! TF.CreationDate,2021-02-07T03:36:00-06:00*
G04 #@! TF.ProjectId,JNTUB_board1,4a4e5455-425f-4626-9f61-7264312e6b69,rev?*
G04 #@! TF.SameCoordinates,Original*
G04 #@! TF.FileFunction,Soldermask,Top*
G04 #@! TF.FilePolarity,Negative*
%FSLAX46Y46*%
G04 Gerber Fmt 4.6, Leading zero omitted, Abs format (unit mm)*
G04 Created by KiCad (PCBNEW (5.1.9-0-10_14)) date 2021-02-07 03:36:00*
%MOMM*%
%LPD*%
G01*
G04 APERTURE LIST*
%ADD10O,2.500000X2.800000*%
%ADD11C,2.100000*%
%ADD12O,1.600000X1.600000*%
%ADD13C,1.600000*%
%ADD14R,1.700000X1.700000*%
%ADD15O,1.700000X1.700000*%
%ADD16C,2.000000*%
%ADD17C,3.000000*%
%ADD18R,1.800000X1.800000*%
%ADD19C,1.800000*%
%ADD20C,3.200000*%
G04 APERTURE END LIST*
D10*
G04 #@! TO.C,RV3*
X232784000Y-60452000D03*
X222384000Y-60452000D03*
D11*
X230084000Y-67952000D03*
X227584000Y-67952000D03*
X225084000Y-67952000D03*
G04 #@! TD*
D10*
G04 #@! TO.C,RV1*
X232784000Y-101092000D03*
X222384000Y-101092000D03*
D11*
X230084000Y-108592000D03*
X227584000Y-108592000D03*
X225084000Y-108592000D03*
G04 #@! TD*
D10*
G04 #@! TO.C,RV2*
X232784000Y-80772000D03*
X222384000Y-80772000D03*
D11*
X230084000Y-88272000D03*
X227584000Y-88272000D03*
X225084000Y-88272000D03*
G04 #@! TD*
D12*
G04 #@! TO.C,R1*
X229616000Y-74168000D03*
D13*
X227076000Y-74168000D03*
G04 #@! TD*
D12*
G04 #@! TO.C,R3*
X229616000Y-70612000D03*
D13*
X227076000Y-70612000D03*
G04 #@! TD*
D12*
G04 #@! TO.C,R7*
X220218000Y-70612000D03*
D13*
X222758000Y-70612000D03*
G04 #@! TD*
D12*
G04 #@! TO.C,R9*
X220218000Y-74168000D03*
D13*
X222758000Y-74168000D03*
G04 #@! TD*
D12*
G04 #@! TO.C,R15*
X235331000Y-155448000D03*
D13*
X232791000Y-155448000D03*
G04 #@! TD*
D12*
G04 #@! TO.C,R17*
X219837000Y-155448000D03*
D13*
X222377000Y-155448000D03*
G04 #@! TD*
D12*
G04 #@! TO.C,R21*
X231902000Y-111760000D03*
D13*
X229362000Y-111760000D03*
G04 #@! TD*
D12*
G04 #@! TO.C,R29*
X223266000Y-111760000D03*
D13*
X225806000Y-111760000D03*
G04 #@! TD*
D14*
G04 #@! TO.C,J7*
X219837000Y-91694000D03*
D15*
X219837000Y-94234000D03*
X219837000Y-96774000D03*
X219837000Y-99314000D03*
X219837000Y-101854000D03*
X219837000Y-104394000D03*
X219837000Y-106934000D03*
G04 #@! TD*
G04 #@! TO.C,J8*
X235331000Y-106934000D03*
X235331000Y-104394000D03*
X235331000Y-101854000D03*
X235331000Y-99314000D03*
X235331000Y-96774000D03*
X235331000Y-94234000D03*
D14*
X235331000Y-91694000D03*
G04 #@! TD*
D16*
G04 #@! TO.C,J4*
X232664000Y-137508000D03*
X232664000Y-129208000D03*
D17*
X232664000Y-132588000D03*
G04 #@! TD*
D16*
G04 #@! TO.C,J3*
X222504000Y-137508000D03*
X222504000Y-129208000D03*
D17*
X222504000Y-132588000D03*
G04 #@! TD*
G04 #@! TO.C,J6*
X232664000Y-145288000D03*
D16*
X232664000Y-151768000D03*
X232664000Y-148668000D03*
X232664000Y-140368000D03*
G04 #@! TD*
D17*
G04 #@! TO.C,J5*
X222504000Y-145288000D03*
D16*
X222504000Y-151768000D03*
X222504000Y-148668000D03*
X222504000Y-140368000D03*
G04 #@! TD*
D17*
G04 #@! TO.C,J2*
X232664000Y-119888000D03*
D16*
X232664000Y-126368000D03*
X232664000Y-123268000D03*
X232664000Y-114968000D03*
G04 #@! TD*
D17*
G04 #@! TO.C,J1*
X222504000Y-119888000D03*
D16*
X222504000Y-126368000D03*
X222504000Y-123268000D03*
X222504000Y-114968000D03*
G04 #@! TD*
D18*
G04 #@! TO.C,D6*
X226314000Y-126238000D03*
D19*
X228854000Y-126238000D03*
G04 #@! TD*
D18*
G04 #@! TO.C,D7*
X226314000Y-151638000D03*
D19*
X228854000Y-151638000D03*
G04 #@! TD*
D18*
G04 #@! TO.C,D8*
X228854000Y-155448000D03*
D19*
X226314000Y-155448000D03*
G04 #@! TD*
D20*
G04 #@! TO.C,H1*
X227605001Y-92756001D03*
G04 #@! TD*
M02*
