M48
; DRILL file {KiCad (5.1.9-0-10_14)} date Sunday, January 17, 2021 at 07:39:35 PM
; FORMAT={-:-/ absolute / inch / decimal}
; #@! TF.CreationDate,2021-01-17T19:39:35-06:00
; #@! TF.GenerationSoftware,Kicad,Pcbnew,(5.1.9-0-10_14)
FMAT,2
INCH
T1C0.0160
T2C0.0315
T3C0.0354
T4C0.0394
T5C0.0551
T6C0.1181
T7C0.1260
%
G90
G05
T1
X8.854Y-5.334
X8.9Y-4.21
X8.91Y-2.445
X8.91Y-2.56
X8.97Y-2.93
X9.085Y-2.93
X9.155Y-4.035
X9.17Y-5.755
X9.175Y-5.38
X9.175Y-5.505
X9.185Y-5.245
X9.21Y-4.65
X9.21Y-4.735
X9.22Y-3.785
X9.23Y-5.755
X9.245Y-4.035
X9.27Y-3.7338
X9.27Y-4.452
X9.28Y-5.245
X9.395Y-2.77
X9.395Y-2.91
X9.435Y-5.97
X9.46Y-3.26
X9.55Y-4.32
X9.55Y-5.97
T2
X8.91Y-2.7
X8.91Y-2.84
X8.91Y-6.04
X9.01Y-2.7
X9.01Y-2.84
X9.01Y-6.04
X9.03Y-4.32
X9.13Y-4.32
X9.18Y-2.7
X9.18Y-2.84
X9.27Y-4.32
X9.28Y-2.7
X9.28Y-2.84
X9.37Y-4.32
X9.39Y-6.04
X9.49Y-6.04
T3
X9.15Y-4.89
X9.15Y-5.89
X9.15Y-6.04
X9.25Y-4.89
X9.25Y-5.89
X9.25Y-6.04
T4
X8.895Y-3.53
X8.895Y-3.63
X8.895Y-3.73
X8.895Y-3.83
X8.895Y-3.93
X8.895Y-4.03
X8.895Y-4.13
X9.0Y-4.4463
X9.0Y-4.7731
X9.0Y-4.8951
X9.0Y-5.0069
X9.0Y-5.3337
X9.0Y-5.4463
X9.0Y-5.7731
X9.0Y-5.8951
X9.1016Y-2.5953
X9.1016Y-3.3953
X9.1016Y-4.1953
X9.2Y-2.5953
X9.2Y-3.3953
X9.2Y-4.1953
X9.2984Y-2.5953
X9.2984Y-3.3953
X9.2984Y-4.1953
X9.4Y-4.4463
X9.4Y-4.7731
X9.4Y-4.8951
X9.4Y-5.0069
X9.4Y-5.3337
X9.4Y-5.4463
X9.4Y-5.7731
X9.4Y-5.8951
X9.505Y-3.53
X9.505Y-3.63
X9.505Y-3.73
X9.505Y-3.83
X9.505Y-3.93
X9.505Y-4.03
X9.505Y-4.13
T6
X9.0Y-4.64
X9.0Y-5.14
X9.0Y-5.64
X9.4Y-4.64
X9.4Y-5.14
X9.4Y-5.64
T7
X9.2008Y-3.5718
T5
G00X8.9992Y-2.3079
M15
G01X8.9992Y-2.2921
M16
G05
G00X8.9992Y-3.1079
M15
G01X8.9992Y-3.0921
M16
G05
G00X8.9992Y-3.9079
M15
G01X8.9992Y-3.8921
M16
G05
G00X9.4008Y-2.3079
M15
G01X9.4008Y-2.2921
M16
G05
G00X9.4008Y-3.1079
M15
G01X9.4008Y-3.0921
M16
G05
G00X9.4008Y-3.9079
M15
G01X9.4008Y-3.8921
M16
G05
T0
M30
