%TF.GenerationSoftware,KiCad,Pcbnew,(5.1.9-0-10_14)*%
%TF.CreationDate,2020-12-31T21:36:22-06:00*%
%TF.ProjectId,JNTUB_board1,4a4e5455-425f-4626-9f61-7264312e6b69,rev?*%
%TF.SameCoordinates,Original*%
%TF.FileFunction,Legend,Bot*%
%TF.FilePolarity,Positive*%
%FSLAX46Y46*%
G04 Gerber Fmt 4.6, Leading zero omitted, Abs format (unit mm)*
G04 Created by KiCad (PCBNEW (5.1.9-0-10_14)) date 2020-12-31 21:36:22*
%MOMM*%
%LPD*%
G01*
G04 APERTURE LIST*
%ADD10C,0.150000*%
%ADD11C,0.300000*%
%ADD12C,0.120000*%
G04 APERTURE END LIST*
D10*
X241115904Y-145550547D02*
X241687333Y-145550547D01*
X241801619Y-145512452D01*
X241877809Y-145436261D01*
X241915904Y-145321976D01*
X241915904Y-145245785D01*
X241915904Y-146312452D02*
X241915904Y-145931500D01*
X241115904Y-145931500D01*
X241839714Y-147036261D02*
X241877809Y-146998166D01*
X241915904Y-146883880D01*
X241915904Y-146807690D01*
X241877809Y-146693404D01*
X241801619Y-146617214D01*
X241725428Y-146579119D01*
X241573047Y-146541023D01*
X241458761Y-146541023D01*
X241306380Y-146579119D01*
X241230190Y-146617214D01*
X241154000Y-146693404D01*
X241115904Y-146807690D01*
X241115904Y-146883880D01*
X241154000Y-146998166D01*
X241192095Y-147036261D01*
X241115904Y-147607690D02*
X241687333Y-147607690D01*
X241801619Y-147569595D01*
X241877809Y-147493404D01*
X241915904Y-147379119D01*
X241915904Y-147302928D01*
X241915904Y-148369595D02*
X241915904Y-147988642D01*
X241115904Y-147988642D01*
X241839714Y-149093404D02*
X241877809Y-149055309D01*
X241915904Y-148941023D01*
X241915904Y-148864833D01*
X241877809Y-148750547D01*
X241801619Y-148674357D01*
X241725428Y-148636261D01*
X241573047Y-148598166D01*
X241458761Y-148598166D01*
X241306380Y-148636261D01*
X241230190Y-148674357D01*
X241154000Y-148750547D01*
X241115904Y-148864833D01*
X241115904Y-148941023D01*
X241154000Y-149055309D01*
X241192095Y-149093404D01*
X241115904Y-149664833D02*
X241687333Y-149664833D01*
X241801619Y-149626738D01*
X241877809Y-149550547D01*
X241915904Y-149436261D01*
X241915904Y-149360071D01*
X241915904Y-150426738D02*
X241915904Y-150045785D01*
X241115904Y-150045785D01*
X241839714Y-151150547D02*
X241877809Y-151112452D01*
X241915904Y-150998166D01*
X241915904Y-150921976D01*
X241877809Y-150807690D01*
X241801619Y-150731500D01*
X241725428Y-150693404D01*
X241573047Y-150655309D01*
X241458761Y-150655309D01*
X241306380Y-150693404D01*
X241230190Y-150731500D01*
X241154000Y-150807690D01*
X241115904Y-150921976D01*
X241115904Y-150998166D01*
X241154000Y-151112452D01*
X241192095Y-151150547D01*
X241115904Y-151721976D02*
X241687333Y-151721976D01*
X241801619Y-151683880D01*
X241877809Y-151607690D01*
X241915904Y-151493404D01*
X241915904Y-151417214D01*
X241915904Y-152483880D02*
X241915904Y-152102928D01*
X241115904Y-152102928D01*
X241839714Y-153207690D02*
X241877809Y-153169595D01*
X241915904Y-153055309D01*
X241915904Y-152979119D01*
X241877809Y-152864833D01*
X241801619Y-152788642D01*
X241725428Y-152750547D01*
X241573047Y-152712452D01*
X241458761Y-152712452D01*
X241306380Y-152750547D01*
X241230190Y-152788642D01*
X241154000Y-152864833D01*
X241115904Y-152979119D01*
X241115904Y-153055309D01*
X241154000Y-153169595D01*
X241192095Y-153207690D01*
X235019857Y-138155642D02*
X235057952Y-138269928D01*
X235096047Y-138308023D01*
X235172238Y-138346119D01*
X235286523Y-138346119D01*
X235362714Y-138308023D01*
X235400809Y-138269928D01*
X235438904Y-138193738D01*
X235438904Y-137888976D01*
X234638904Y-137888976D01*
X234638904Y-138155642D01*
X234677000Y-138231833D01*
X234715095Y-138269928D01*
X234791285Y-138308023D01*
X234867476Y-138308023D01*
X234943666Y-138269928D01*
X234981761Y-138231833D01*
X235019857Y-138155642D01*
X235019857Y-137888976D01*
X235438904Y-138803261D02*
X235400809Y-138727071D01*
X235362714Y-138688976D01*
X235286523Y-138650880D01*
X235057952Y-138650880D01*
X234981761Y-138688976D01*
X234943666Y-138727071D01*
X234905571Y-138803261D01*
X234905571Y-138917547D01*
X234943666Y-138993738D01*
X234981761Y-139031833D01*
X235057952Y-139069928D01*
X235286523Y-139069928D01*
X235362714Y-139031833D01*
X235400809Y-138993738D01*
X235438904Y-138917547D01*
X235438904Y-138803261D01*
X235438904Y-139755642D02*
X235019857Y-139755642D01*
X234943666Y-139717547D01*
X234905571Y-139641357D01*
X234905571Y-139488976D01*
X234943666Y-139412785D01*
X235400809Y-139755642D02*
X235438904Y-139679452D01*
X235438904Y-139488976D01*
X235400809Y-139412785D01*
X235324619Y-139374690D01*
X235248428Y-139374690D01*
X235172238Y-139412785D01*
X235134142Y-139488976D01*
X235134142Y-139679452D01*
X235096047Y-139755642D01*
X235438904Y-140136595D02*
X234905571Y-140136595D01*
X235057952Y-140136595D02*
X234981761Y-140174690D01*
X234943666Y-140212785D01*
X234905571Y-140288976D01*
X234905571Y-140365166D01*
X235438904Y-140974690D02*
X234638904Y-140974690D01*
X235400809Y-140974690D02*
X235438904Y-140898500D01*
X235438904Y-140746119D01*
X235400809Y-140669928D01*
X235362714Y-140631833D01*
X235286523Y-140593738D01*
X235057952Y-140593738D01*
X234981761Y-140631833D01*
X234943666Y-140669928D01*
X234905571Y-140746119D01*
X234905571Y-140898500D01*
X234943666Y-140974690D01*
X235438904Y-142384214D02*
X235438904Y-141927071D01*
X235438904Y-142155642D02*
X234638904Y-142155642D01*
X234753190Y-142079452D01*
X234829380Y-142003261D01*
X234867476Y-141927071D01*
X235438904Y-143450880D02*
X235400809Y-143374690D01*
X235362714Y-143336595D01*
X235286523Y-143298500D01*
X235057952Y-143298500D01*
X234981761Y-143336595D01*
X234943666Y-143374690D01*
X234905571Y-143450880D01*
X234905571Y-143565166D01*
X234943666Y-143641357D01*
X234981761Y-143679452D01*
X235057952Y-143717547D01*
X235286523Y-143717547D01*
X235362714Y-143679452D01*
X235400809Y-143641357D01*
X235438904Y-143565166D01*
X235438904Y-143450880D01*
X234905571Y-143946119D02*
X234905571Y-144250880D01*
X235438904Y-144060404D02*
X234753190Y-144060404D01*
X234677000Y-144098500D01*
X234638904Y-144174690D01*
X234638904Y-144250880D01*
X234715095Y-145088976D02*
X234677000Y-145127071D01*
X234638904Y-145203261D01*
X234638904Y-145393738D01*
X234677000Y-145469928D01*
X234715095Y-145508023D01*
X234791285Y-145546119D01*
X234867476Y-145546119D01*
X234981761Y-145508023D01*
X235438904Y-145050880D01*
X235438904Y-145546119D01*
X234168904Y-128507119D02*
X233787952Y-128240452D01*
X234168904Y-128049976D02*
X233368904Y-128049976D01*
X233368904Y-128354738D01*
X233407000Y-128430928D01*
X233445095Y-128469023D01*
X233521285Y-128507119D01*
X233635571Y-128507119D01*
X233711761Y-128469023D01*
X233749857Y-128430928D01*
X233787952Y-128354738D01*
X233787952Y-128049976D01*
X234130809Y-129154738D02*
X234168904Y-129078547D01*
X234168904Y-128926166D01*
X234130809Y-128849976D01*
X234054619Y-128811880D01*
X233749857Y-128811880D01*
X233673666Y-128849976D01*
X233635571Y-128926166D01*
X233635571Y-129078547D01*
X233673666Y-129154738D01*
X233749857Y-129192833D01*
X233826047Y-129192833D01*
X233902238Y-128811880D01*
X233635571Y-129459500D02*
X234168904Y-129649976D01*
X233635571Y-129840452D01*
X233368904Y-130907119D02*
X233368904Y-130983309D01*
X233407000Y-131059500D01*
X233445095Y-131097595D01*
X233521285Y-131135690D01*
X233673666Y-131173785D01*
X233864142Y-131173785D01*
X234016523Y-131135690D01*
X234092714Y-131097595D01*
X234130809Y-131059500D01*
X234168904Y-130983309D01*
X234168904Y-130907119D01*
X234130809Y-130830928D01*
X234092714Y-130792833D01*
X234016523Y-130754738D01*
X233864142Y-130716642D01*
X233673666Y-130716642D01*
X233521285Y-130754738D01*
X233445095Y-130792833D01*
X233407000Y-130830928D01*
X233368904Y-130907119D01*
X234092714Y-131516642D02*
X234130809Y-131554738D01*
X234168904Y-131516642D01*
X234130809Y-131478547D01*
X234092714Y-131516642D01*
X234168904Y-131516642D01*
X234168904Y-132316642D02*
X234168904Y-131859500D01*
X234168904Y-132088071D02*
X233368904Y-132088071D01*
X233483190Y-132011880D01*
X233559380Y-131935690D01*
X233597476Y-131859500D01*
X235438904Y-128049976D02*
X234638904Y-128049976D01*
X234638904Y-128240452D01*
X234677000Y-128354738D01*
X234753190Y-128430928D01*
X234829380Y-128469023D01*
X234981761Y-128507119D01*
X235096047Y-128507119D01*
X235248428Y-128469023D01*
X235324619Y-128430928D01*
X235400809Y-128354738D01*
X235438904Y-128240452D01*
X235438904Y-128049976D01*
X235400809Y-129154738D02*
X235438904Y-129078547D01*
X235438904Y-128926166D01*
X235400809Y-128849976D01*
X235324619Y-128811880D01*
X235019857Y-128811880D01*
X234943666Y-128849976D01*
X234905571Y-128926166D01*
X234905571Y-129078547D01*
X234943666Y-129154738D01*
X235019857Y-129192833D01*
X235096047Y-129192833D01*
X235172238Y-128811880D01*
X235400809Y-129878547D02*
X235438904Y-129802357D01*
X235438904Y-129649976D01*
X235400809Y-129573785D01*
X235362714Y-129535690D01*
X235286523Y-129497595D01*
X235057952Y-129497595D01*
X234981761Y-129535690D01*
X234943666Y-129573785D01*
X234905571Y-129649976D01*
X234905571Y-129802357D01*
X234943666Y-129878547D01*
X235362714Y-130221404D02*
X235400809Y-130259500D01*
X235438904Y-130221404D01*
X235400809Y-130183309D01*
X235362714Y-130221404D01*
X235438904Y-130221404D01*
X234715095Y-131173785D02*
X234677000Y-131211880D01*
X234638904Y-131288071D01*
X234638904Y-131478547D01*
X234677000Y-131554738D01*
X234715095Y-131592833D01*
X234791285Y-131630928D01*
X234867476Y-131630928D01*
X234981761Y-131592833D01*
X235438904Y-131135690D01*
X235438904Y-131630928D01*
X234638904Y-132126166D02*
X234638904Y-132202357D01*
X234677000Y-132278547D01*
X234715095Y-132316642D01*
X234791285Y-132354738D01*
X234943666Y-132392833D01*
X235134142Y-132392833D01*
X235286523Y-132354738D01*
X235362714Y-132316642D01*
X235400809Y-132278547D01*
X235438904Y-132202357D01*
X235438904Y-132126166D01*
X235400809Y-132049976D01*
X235362714Y-132011880D01*
X235286523Y-131973785D01*
X235134142Y-131935690D01*
X234943666Y-131935690D01*
X234791285Y-131973785D01*
X234715095Y-132011880D01*
X234677000Y-132049976D01*
X234638904Y-132126166D01*
X234715095Y-132697595D02*
X234677000Y-132735690D01*
X234638904Y-132811880D01*
X234638904Y-133002357D01*
X234677000Y-133078547D01*
X234715095Y-133116642D01*
X234791285Y-133154738D01*
X234867476Y-133154738D01*
X234981761Y-133116642D01*
X235438904Y-132659500D01*
X235438904Y-133154738D01*
X234638904Y-133649976D02*
X234638904Y-133726166D01*
X234677000Y-133802357D01*
X234715095Y-133840452D01*
X234791285Y-133878547D01*
X234943666Y-133916642D01*
X235134142Y-133916642D01*
X235286523Y-133878547D01*
X235362714Y-133840452D01*
X235400809Y-133802357D01*
X235438904Y-133726166D01*
X235438904Y-133649976D01*
X235400809Y-133573785D01*
X235362714Y-133535690D01*
X235286523Y-133497595D01*
X235134142Y-133459500D01*
X234943666Y-133459500D01*
X234791285Y-133497595D01*
X234715095Y-133535690D01*
X234677000Y-133573785D01*
X234638904Y-133649976D01*
X231463904Y-128278547D02*
X232035333Y-128278547D01*
X232149619Y-128240452D01*
X232225809Y-128164261D01*
X232263904Y-128049976D01*
X232263904Y-127973785D01*
X232263904Y-128773785D02*
X232225809Y-128697595D01*
X232187714Y-128659500D01*
X232111523Y-128621404D01*
X231882952Y-128621404D01*
X231806761Y-128659500D01*
X231768666Y-128697595D01*
X231730571Y-128773785D01*
X231730571Y-128888071D01*
X231768666Y-128964261D01*
X231806761Y-129002357D01*
X231882952Y-129040452D01*
X232111523Y-129040452D01*
X232187714Y-129002357D01*
X232225809Y-128964261D01*
X232263904Y-128888071D01*
X232263904Y-128773785D01*
X231730571Y-129307119D02*
X232263904Y-129497595D01*
X231730571Y-129688071D02*
X232263904Y-129497595D01*
X232454380Y-129421404D01*
X232492476Y-129383309D01*
X232530571Y-129307119D01*
X231730571Y-129878547D02*
X231730571Y-130183309D01*
X232263904Y-129992833D02*
X231578190Y-129992833D01*
X231502000Y-130030928D01*
X231463904Y-130107119D01*
X231463904Y-130183309D01*
X231730571Y-130792833D02*
X232263904Y-130792833D01*
X231730571Y-130449976D02*
X232149619Y-130449976D01*
X232225809Y-130488071D01*
X232263904Y-130564261D01*
X232263904Y-130678547D01*
X232225809Y-130754738D01*
X232187714Y-130792833D01*
X232263904Y-131288071D02*
X232225809Y-131211880D01*
X232149619Y-131173785D01*
X231463904Y-131173785D01*
X232263904Y-131592833D02*
X231463904Y-131592833D01*
X232263904Y-132049976D01*
X231463904Y-132049976D01*
X232263904Y-132545214D02*
X232225809Y-132469023D01*
X232187714Y-132430928D01*
X232111523Y-132392833D01*
X231882952Y-132392833D01*
X231806761Y-132430928D01*
X231768666Y-132469023D01*
X231730571Y-132545214D01*
X231730571Y-132659500D01*
X231768666Y-132735690D01*
X231806761Y-132773785D01*
X231882952Y-132811880D01*
X232111523Y-132811880D01*
X232187714Y-132773785D01*
X232225809Y-132735690D01*
X232263904Y-132659500D01*
X232263904Y-132545214D01*
X232263904Y-133154738D02*
X231730571Y-133154738D01*
X231463904Y-133154738D02*
X231502000Y-133116642D01*
X231540095Y-133154738D01*
X231502000Y-133192833D01*
X231463904Y-133154738D01*
X231540095Y-133154738D01*
X232225809Y-133497595D02*
X232263904Y-133573785D01*
X232263904Y-133726166D01*
X232225809Y-133802357D01*
X232149619Y-133840452D01*
X232111523Y-133840452D01*
X232035333Y-133802357D01*
X231997238Y-133726166D01*
X231997238Y-133611880D01*
X231959142Y-133535690D01*
X231882952Y-133497595D01*
X231844857Y-133497595D01*
X231768666Y-133535690D01*
X231730571Y-133611880D01*
X231730571Y-133726166D01*
X231768666Y-133802357D01*
X232225809Y-134488071D02*
X232263904Y-134411880D01*
X232263904Y-134259500D01*
X232225809Y-134183309D01*
X232149619Y-134145214D01*
X231844857Y-134145214D01*
X231768666Y-134183309D01*
X231730571Y-134259500D01*
X231730571Y-134411880D01*
X231768666Y-134488071D01*
X231844857Y-134526166D01*
X231921047Y-134526166D01*
X231997238Y-134145214D01*
X231463904Y-135364261D02*
X231463904Y-135821404D01*
X232263904Y-135592833D02*
X231463904Y-135592833D01*
X232263904Y-136088071D02*
X231730571Y-136088071D01*
X231463904Y-136088071D02*
X231502000Y-136049976D01*
X231540095Y-136088071D01*
X231502000Y-136126166D01*
X231463904Y-136088071D01*
X231540095Y-136088071D01*
X231730571Y-136469023D02*
X232263904Y-136469023D01*
X231806761Y-136469023D02*
X231768666Y-136507119D01*
X231730571Y-136583309D01*
X231730571Y-136697595D01*
X231768666Y-136773785D01*
X231844857Y-136811880D01*
X232263904Y-136811880D01*
X231730571Y-137116642D02*
X232263904Y-137307119D01*
X231730571Y-137497595D02*
X232263904Y-137307119D01*
X232454380Y-137230928D01*
X232492476Y-137192833D01*
X232530571Y-137116642D01*
X231463904Y-138411880D02*
X232111523Y-138411880D01*
X232187714Y-138449976D01*
X232225809Y-138488071D01*
X232263904Y-138564261D01*
X232263904Y-138716642D01*
X232225809Y-138792833D01*
X232187714Y-138830928D01*
X232111523Y-138869023D01*
X231463904Y-138869023D01*
X231730571Y-139135690D02*
X231730571Y-139440452D01*
X231463904Y-139249976D02*
X232149619Y-139249976D01*
X232225809Y-139288071D01*
X232263904Y-139364261D01*
X232263904Y-139440452D01*
X232263904Y-139707119D02*
X231730571Y-139707119D01*
X231463904Y-139707119D02*
X231502000Y-139669023D01*
X231540095Y-139707119D01*
X231502000Y-139745214D01*
X231463904Y-139707119D01*
X231540095Y-139707119D01*
X232263904Y-140202357D02*
X232225809Y-140126166D01*
X232149619Y-140088071D01*
X231463904Y-140088071D01*
X232263904Y-140507119D02*
X231730571Y-140507119D01*
X231463904Y-140507119D02*
X231502000Y-140469023D01*
X231540095Y-140507119D01*
X231502000Y-140545214D01*
X231463904Y-140507119D01*
X231540095Y-140507119D01*
X231730571Y-140773785D02*
X231730571Y-141078547D01*
X231463904Y-140888071D02*
X232149619Y-140888071D01*
X232225809Y-140926166D01*
X232263904Y-141002357D01*
X232263904Y-141078547D01*
X231730571Y-141269023D02*
X232263904Y-141459500D01*
X231730571Y-141649976D02*
X232263904Y-141459500D01*
X232454380Y-141383309D01*
X232492476Y-141345214D01*
X232530571Y-141269023D01*
X231844857Y-142830928D02*
X231882952Y-142945214D01*
X231921047Y-142983309D01*
X231997238Y-143021404D01*
X232111523Y-143021404D01*
X232187714Y-142983309D01*
X232225809Y-142945214D01*
X232263904Y-142869023D01*
X232263904Y-142564261D01*
X231463904Y-142564261D01*
X231463904Y-142830928D01*
X231502000Y-142907119D01*
X231540095Y-142945214D01*
X231616285Y-142983309D01*
X231692476Y-142983309D01*
X231768666Y-142945214D01*
X231806761Y-142907119D01*
X231844857Y-142830928D01*
X231844857Y-142564261D01*
X232263904Y-143478547D02*
X232225809Y-143402357D01*
X232187714Y-143364261D01*
X232111523Y-143326166D01*
X231882952Y-143326166D01*
X231806761Y-143364261D01*
X231768666Y-143402357D01*
X231730571Y-143478547D01*
X231730571Y-143592833D01*
X231768666Y-143669023D01*
X231806761Y-143707119D01*
X231882952Y-143745214D01*
X232111523Y-143745214D01*
X232187714Y-143707119D01*
X232225809Y-143669023D01*
X232263904Y-143592833D01*
X232263904Y-143478547D01*
X232263904Y-144430928D02*
X231844857Y-144430928D01*
X231768666Y-144392833D01*
X231730571Y-144316642D01*
X231730571Y-144164261D01*
X231768666Y-144088071D01*
X232225809Y-144430928D02*
X232263904Y-144354738D01*
X232263904Y-144164261D01*
X232225809Y-144088071D01*
X232149619Y-144049976D01*
X232073428Y-144049976D01*
X231997238Y-144088071D01*
X231959142Y-144164261D01*
X231959142Y-144354738D01*
X231921047Y-144430928D01*
X232263904Y-144811880D02*
X231730571Y-144811880D01*
X231882952Y-144811880D02*
X231806761Y-144849976D01*
X231768666Y-144888071D01*
X231730571Y-144964261D01*
X231730571Y-145040452D01*
X232263904Y-145649976D02*
X231463904Y-145649976D01*
X232225809Y-145649976D02*
X232263904Y-145573785D01*
X232263904Y-145421404D01*
X232225809Y-145345214D01*
X232187714Y-145307119D01*
X232111523Y-145269023D01*
X231882952Y-145269023D01*
X231806761Y-145307119D01*
X231768666Y-145345214D01*
X231730571Y-145421404D01*
X231730571Y-145573785D01*
X231768666Y-145649976D01*
X234391200Y-119253000D02*
X233984800Y-119253000D01*
X233629200Y-119405400D02*
X233426000Y-118999000D01*
X235153200Y-118491000D02*
X232511600Y-118491000D01*
X233934000Y-116662200D02*
X233832400Y-116662200D01*
X233222800Y-119405400D02*
X233019600Y-118999000D01*
X233832400Y-118999000D02*
X233629200Y-119405400D01*
X233426000Y-118999000D02*
X233222800Y-119405400D01*
X233984800Y-119253000D02*
X233832400Y-118999000D01*
X232867200Y-117983000D02*
X232765600Y-117983000D01*
X235153200Y-119253000D02*
X234696000Y-119253000D01*
X232765600Y-117983000D02*
X232765600Y-116662200D01*
X233019600Y-118999000D02*
X232867200Y-119253000D01*
X233934000Y-117983000D02*
X233934000Y-116662200D01*
X234696000Y-119253000D02*
X234696000Y-118948200D01*
X235026200Y-117424200D02*
X235026200Y-117983000D01*
D11*
X235051600Y-116255800D02*
X232511600Y-116255800D01*
D10*
X235153200Y-118491000D02*
X235153200Y-119253000D01*
X233832400Y-116662200D02*
X232867200Y-117983000D01*
X234696000Y-119253000D02*
X234696000Y-119557800D01*
X235026200Y-117983000D02*
X234391200Y-117983000D01*
X232511600Y-118491000D02*
X232511600Y-119253000D01*
X234391200Y-118948200D02*
X234391200Y-119557800D01*
X234391200Y-117983000D02*
X234391200Y-116205000D01*
X232867200Y-119253000D02*
X232511600Y-119253000D01*
D12*
%TO.C,J7*%
X227263000Y-85792000D02*
X225933000Y-85792000D01*
X227263000Y-87122000D02*
X227263000Y-85792000D01*
X227263000Y-88392000D02*
X224603000Y-88392000D01*
X224603000Y-88392000D02*
X224603000Y-108772000D01*
X227263000Y-88392000D02*
X227263000Y-108772000D01*
X227263000Y-108772000D02*
X224603000Y-108772000D01*
%TO.C,J8*%
X242757000Y-85792000D02*
X241427000Y-85792000D01*
X242757000Y-87122000D02*
X242757000Y-85792000D01*
X242757000Y-88392000D02*
X240097000Y-88392000D01*
X240097000Y-88392000D02*
X240097000Y-108772000D01*
X242757000Y-88392000D02*
X242757000Y-108772000D01*
X242757000Y-108772000D02*
X240097000Y-108772000D01*
%TD*%
M02*
