%TF.GenerationSoftware,KiCad,Pcbnew,(5.1.9-0-10_14)*%
%TF.CreationDate,2021-01-17T19:39:33-06:00*%
%TF.ProjectId,JNTUB_board1,4a4e5455-425f-4626-9f61-7264312e6b69,rev?*%
%TF.SameCoordinates,Original*%
%TF.FileFunction,Copper,L2,Bot*%
%TF.FilePolarity,Positive*%
%FSLAX46Y46*%
G04 Gerber Fmt 4.6, Leading zero omitted, Abs format (unit mm)*
G04 Created by KiCad (PCBNEW (5.1.9-0-10_14)) date 2021-01-17 19:39:33*
%MOMM*%
%LPD*%
G01*
G04 APERTURE LIST*
%TA.AperFunction,ComponentPad*%
%ADD10R,1.700000X1.700000*%
%TD*%
%TA.AperFunction,ComponentPad*%
%ADD11O,1.700000X1.700000*%
%TD*%
%TA.AperFunction,ComponentPad*%
%ADD12O,1.600000X1.600000*%
%TD*%
%TA.AperFunction,ComponentPad*%
%ADD13C,1.600000*%
%TD*%
%TA.AperFunction,ComponentPad*%
%ADD14O,2.700000X3.300001*%
%TD*%
%TA.AperFunction,ComponentPad*%
%ADD15C,2.100000*%
%TD*%
%TA.AperFunction,ComponentPad*%
%ADD16C,2.000000*%
%TD*%
%TA.AperFunction,ComponentPad*%
%ADD17R,1.800000X1.800000*%
%TD*%
%TA.AperFunction,ComponentPad*%
%ADD18C,1.800000*%
%TD*%
%TA.AperFunction,ViaPad*%
%ADD19C,0.762000*%
%TD*%
%TA.AperFunction,Conductor*%
%ADD20C,0.609600*%
%TD*%
%TA.AperFunction,Conductor*%
%ADD21C,0.350000*%
%TD*%
%TA.AperFunction,Conductor*%
%ADD22C,0.508000*%
%TD*%
%TA.AperFunction,Conductor*%
%ADD23C,0.406400*%
%TD*%
%TA.AperFunction,Conductor*%
%ADD24C,0.762000*%
%TD*%
%TA.AperFunction,Conductor*%
%ADD25C,0.304800*%
%TD*%
G04 APERTURE END LIST*
D10*
%TO.P,J7,1*%
%TO.N,+5V*%
X225933000Y-89662000D03*
D11*
%TO.P,J7,2*%
%TO.N,-5V*%
X225933000Y-92202000D03*
%TO.P,J7,3*%
%TO.N,Net-(J7-Pad3)*%
X225933000Y-94742000D03*
%TO.P,J7,4*%
%TO.N,/PeripheralBoard/LED_NEG*%
X225933000Y-97282000D03*
%TO.P,J7,5*%
%TO.N,/PeripheralBoard/LED_POS*%
X225933000Y-99822000D03*
%TO.P,J7,6*%
%TO.N,/PeripheralBoard/P3_POT*%
X225933000Y-102362000D03*
%TO.P,J7,7*%
%TO.N,/PeripheralBoard/P2_AVG*%
X225933000Y-104902000D03*
%TD*%
%TO.P,J8,7*%
%TO.N,/PeripheralBoard/P1_AVG*%
X241427000Y-104902000D03*
%TO.P,J8,6*%
%TO.N,/PeripheralBoard/CLK_TRG*%
X241427000Y-102362000D03*
%TO.P,J8,5*%
%TO.N,/PeripheralBoard/CLK_LED*%
X241427000Y-99822000D03*
%TO.P,J8,4*%
%TO.N,GNDREF*%
X241427000Y-97282000D03*
%TO.P,J8,3*%
X241427000Y-94742000D03*
%TO.P,J8,2*%
X241427000Y-92202000D03*
D10*
%TO.P,J8,1*%
%TO.N,/PeripheralBoard/OUT*%
X241427000Y-89662000D03*
%TD*%
D12*
%TO.P,R1,2*%
%TO.N,/PeripheralBoard/P2_POT*%
X235712000Y-72136000D03*
D13*
%TO.P,R1,1*%
%TO.N,/PeripheralBoard/P2_AVG*%
X233172000Y-72136000D03*
%TD*%
D12*
%TO.P,R3,2*%
%TO.N,/PeripheralBoard/P2_CV*%
X235712000Y-68580000D03*
D13*
%TO.P,R3,1*%
%TO.N,/PeripheralBoard/P2_AVG*%
X233172000Y-68580000D03*
%TD*%
D12*
%TO.P,R7,2*%
%TO.N,/PeripheralBoard/P1_AVG*%
X226314000Y-68580000D03*
D13*
%TO.P,R7,1*%
%TO.N,/PeripheralBoard/P1_POT*%
X228854000Y-68580000D03*
%TD*%
D12*
%TO.P,R9,2*%
%TO.N,/PeripheralBoard/P1_AVG*%
X226314000Y-72136000D03*
D13*
%TO.P,R9,1*%
%TO.N,/PeripheralBoard/P1_CV*%
X228854000Y-72136000D03*
%TD*%
D12*
%TO.P,R15,2*%
%TO.N,/PeripheralBoard/DITTO*%
X241046000Y-153416000D03*
D13*
%TO.P,R15,1*%
%TO.N,/PeripheralBoard/CLK_TRG*%
X238506000Y-153416000D03*
%TD*%
D12*
%TO.P,R17,2*%
%TO.N,/PeripheralBoard/CLK_TRG*%
X226314000Y-153416000D03*
D13*
%TO.P,R17,1*%
%TO.N,GNDREF*%
X228854000Y-153416000D03*
%TD*%
D12*
%TO.P,R21,2*%
%TO.N,/PeripheralBoard/OUT*%
X237998000Y-109728000D03*
D13*
%TO.P,R21,1*%
%TO.N,/PeripheralBoard/OUT1*%
X235458000Y-109728000D03*
%TD*%
D12*
%TO.P,R29,2*%
%TO.N,Net-(J1-Pad2)*%
X229362000Y-109728000D03*
D13*
%TO.P,R29,1*%
%TO.N,GNDREF*%
X231902000Y-109728000D03*
%TD*%
D14*
%TO.P,RV1,4*%
%TO.N,GNDREF*%
X238780000Y-99060000D03*
X228580000Y-99060000D03*
D15*
%TO.P,RV1,3*%
%TO.N,+5V*%
X236180000Y-106560000D03*
%TO.P,RV1,2*%
%TO.N,/PeripheralBoard/P1_POT*%
X233680000Y-106560000D03*
%TO.P,RV1,1*%
%TO.N,-5V*%
X231180000Y-106560000D03*
%TD*%
D16*
%TO.P,J4,3*%
%TO.N,/PeripheralBoard/DITTO*%
X238760000Y-135476000D03*
%TO.P,J4,2*%
%TO.N,Net-(J4-Pad2)*%
X238760000Y-127176000D03*
%TD*%
%TO.P,J3,3*%
%TO.N,/PeripheralBoard/CLK_TRG*%
X228600000Y-135476000D03*
%TO.P,J3,2*%
%TO.N,Net-(J3-Pad2)*%
X228600000Y-127176000D03*
%TD*%
%TO.P,J6,1*%
%TO.N,GNDREF*%
X238760000Y-149736000D03*
%TO.P,J6,2*%
%TO.N,Net-(J6-Pad2)*%
X238760000Y-146636000D03*
%TO.P,J6,3*%
%TO.N,/PeripheralBoard/OUT1*%
X238760000Y-138336000D03*
%TD*%
%TO.P,J5,1*%
%TO.N,GNDREF*%
X228600000Y-149736000D03*
%TO.P,J5,2*%
%TO.N,Net-(J5-Pad2)*%
X228600000Y-146636000D03*
%TO.P,J5,3*%
%TO.N,/PeripheralBoard/OUT1*%
X228600000Y-138336000D03*
%TD*%
%TO.P,J2,1*%
%TO.N,GNDREF*%
X238760000Y-124336000D03*
%TO.P,J2,2*%
%TO.N,Net-(J1-Pad2)*%
X238760000Y-121236000D03*
%TO.P,J2,3*%
%TO.N,/PeripheralBoard/P2_CV*%
X238760000Y-112936000D03*
%TD*%
%TO.P,J1,1*%
%TO.N,GNDREF*%
X228600000Y-124336000D03*
%TO.P,J1,2*%
%TO.N,Net-(J1-Pad2)*%
X228600000Y-121236000D03*
%TO.P,J1,3*%
%TO.N,/PeripheralBoard/P1_CV*%
X228600000Y-112936000D03*
%TD*%
D14*
%TO.P,RV2,4*%
%TO.N,GNDREF*%
X238780000Y-78740000D03*
X228580000Y-78740000D03*
D15*
%TO.P,RV2,3*%
%TO.N,+5V*%
X236180000Y-86240000D03*
%TO.P,RV2,2*%
%TO.N,/PeripheralBoard/P2_POT*%
X233680000Y-86240000D03*
%TO.P,RV2,1*%
%TO.N,-5V*%
X231180000Y-86240000D03*
%TD*%
D14*
%TO.P,RV3,4*%
%TO.N,GNDREF*%
X238780000Y-58420000D03*
X228580000Y-58420000D03*
D15*
%TO.P,RV3,3*%
%TO.N,+5V*%
X236180000Y-65920000D03*
%TO.P,RV3,2*%
%TO.N,/PeripheralBoard/P3_POT*%
X233680000Y-65920000D03*
%TO.P,RV3,1*%
%TO.N,GNDREF*%
X231180000Y-65920000D03*
%TD*%
D17*
%TO.P,D6,1*%
%TO.N,GNDREF*%
X232410000Y-124206000D03*
D18*
%TO.P,D6,2*%
%TO.N,/PeripheralBoard/CLK_LED*%
X234950000Y-124206000D03*
%TD*%
D17*
%TO.P,D7,1*%
%TO.N,/PeripheralBoard/LED_NEG*%
X232410000Y-149606000D03*
D18*
%TO.P,D7,2*%
%TO.N,/PeripheralBoard/LED_POS*%
X234950000Y-149606000D03*
%TD*%
D17*
%TO.P,D8,1*%
%TO.N,/PeripheralBoard/LED_POS*%
X234950000Y-153416000D03*
D18*
%TO.P,D8,2*%
%TO.N,/PeripheralBoard/LED_NEG*%
X232410000Y-153416000D03*
%TD*%
D19*
%TO.N,+5V*%
X238633000Y-73914000D03*
X238633000Y-70358000D03*
X235458000Y-94837902D03*
X234823000Y-102489000D03*
%TO.N,-5V*%
X232537000Y-102489000D03*
X234188000Y-96139000D03*
%TO.N,/PeripheralBoard/OUT*%
X240284000Y-82804000D03*
%TO.N,/PeripheralBoard/CLK_TRG*%
X224891600Y-135483600D03*
X242570000Y-151638000D03*
X239649000Y-151638000D03*
X242570000Y-109728000D03*
%TO.N,/PeripheralBoard/P2_AVG*%
X230759000Y-74422000D03*
X227838000Y-74422000D03*
%TO.N,/PeripheralBoard/P1_AVG*%
X226314000Y-65024000D03*
X226314000Y-62103000D03*
%TO.N,/PeripheralBoard/CLK_LED*%
X233299000Y-133223000D03*
X235712000Y-133223000D03*
%TO.N,/PeripheralBoard/LED_NEG*%
X232918000Y-146177000D03*
%TO.N,/PeripheralBoard/LED_POS*%
X234442000Y-146177000D03*
X226060000Y-106934000D03*
X233045000Y-139827000D03*
X233045000Y-136652000D03*
%TO.N,/PeripheralBoard/OUT1*%
X235458000Y-113080800D03*
X233934000Y-118110000D03*
X233934000Y-120269000D03*
%TD*%
D20*
%TO.N,+5V*%
X236180000Y-83653000D02*
X236180000Y-86240000D01*
D21*
X226009200Y-89585800D02*
X225933000Y-89662000D01*
D20*
X236180000Y-76367000D02*
X238633000Y-73914000D01*
X236180000Y-83653000D02*
X236180000Y-76367000D01*
X238633000Y-68373000D02*
X236180000Y-65920000D01*
X238633000Y-70358000D02*
X238633000Y-68373000D01*
X236180000Y-103846000D02*
X234823000Y-102489000D01*
X236180000Y-106560000D02*
X236180000Y-103846000D01*
X236180000Y-94115902D02*
X235458000Y-94837902D01*
X236180000Y-86240000D02*
X236180000Y-94115902D01*
%TO.N,-5V*%
X231140000Y-106520000D02*
X231180000Y-106560000D01*
X231180000Y-103846000D02*
X232537000Y-102489000D01*
X231180000Y-106560000D02*
X231180000Y-103846000D01*
X231180000Y-93131000D02*
X234188000Y-96139000D01*
X231180000Y-86240000D02*
X231180000Y-93131000D01*
D22*
%TO.N,Net-(J1-Pad2)*%
X228600000Y-121236000D02*
X230583000Y-119253000D01*
X236777000Y-119253000D02*
X238760000Y-121236000D01*
X231902000Y-119253000D02*
X231902000Y-112522000D01*
X231902000Y-112268000D02*
X231902000Y-112522000D01*
X229362000Y-109728000D02*
X231902000Y-112268000D01*
X230583000Y-119253000D02*
X231902000Y-119253000D01*
X231902000Y-119253000D02*
X236777000Y-119253000D01*
%TO.N,/PeripheralBoard/P1_CV*%
X229362000Y-87884000D02*
X226568000Y-85090000D01*
X229362000Y-94107000D02*
X229362000Y-87884000D01*
X232410000Y-100965000D02*
X232410000Y-97155000D01*
X232410000Y-97155000D02*
X229362000Y-94107000D01*
X227584000Y-105791000D02*
X232410000Y-100965000D01*
X226568000Y-85090000D02*
X226568000Y-77343000D01*
X226568000Y-77343000D02*
X228854000Y-75057000D01*
X228854000Y-75057000D02*
X228854000Y-72136000D01*
X227584000Y-111920000D02*
X228600000Y-112936000D01*
X227584000Y-105791000D02*
X227584000Y-111920000D01*
%TO.N,/PeripheralBoard/P2_CV*%
X235712000Y-69711370D02*
X238009630Y-72009000D01*
X239967399Y-108141399D02*
X239967399Y-111728601D01*
X239967399Y-111728601D02*
X238760000Y-112936000D01*
X239395000Y-107569000D02*
X239395000Y-104648000D01*
X240284000Y-75057000D02*
X240284000Y-76200000D01*
X240284000Y-76200000D02*
X241427000Y-77343000D01*
X241427000Y-77343000D02*
X241427000Y-85090000D01*
X241427000Y-85090000D02*
X238760000Y-87757000D01*
X238760000Y-87757000D02*
X238760000Y-94488000D01*
X238760000Y-94488000D02*
X235712000Y-97536000D01*
X235712000Y-97536000D02*
X235712000Y-100584000D01*
X235712000Y-100584000D02*
X239395000Y-104267000D01*
X239395000Y-104267000D02*
X239395000Y-104648000D01*
X239967399Y-108141399D02*
X239395000Y-107569000D01*
X240284000Y-73279000D02*
X240284000Y-75057000D01*
X239014000Y-72009000D02*
X240284000Y-73279000D01*
X238009630Y-72009000D02*
X239014000Y-72009000D01*
X235712000Y-68580000D02*
X235712000Y-69711370D01*
%TO.N,/PeripheralBoard/OUT*%
X237998000Y-109728000D02*
X237998000Y-104140000D01*
X237998000Y-104140000D02*
X237744000Y-103886000D01*
X234823000Y-100965000D02*
X237744000Y-103886000D01*
X234823000Y-97028000D02*
X234823000Y-100965000D01*
X235458000Y-96393000D02*
X234823000Y-97028000D01*
X237744000Y-94107000D02*
X235458000Y-96393000D01*
X237744000Y-89789000D02*
X237744000Y-94107000D01*
X237744000Y-87249000D02*
X237744000Y-89789000D01*
X238252000Y-86741000D02*
X237744000Y-87249000D01*
X240284000Y-84709000D02*
X238252000Y-86741000D01*
X240284000Y-82804000D02*
X240284000Y-84709000D01*
%TO.N,/PeripheralBoard/P3_POT*%
X225298000Y-63754000D02*
X233172000Y-63754000D01*
X227584000Y-88646000D02*
X224790000Y-85852000D01*
X227584000Y-94869000D02*
X227584000Y-88646000D01*
X230632000Y-97917000D02*
X227584000Y-94869000D01*
X233172000Y-63754000D02*
X233680000Y-64262000D01*
X224790000Y-64262000D02*
X225298000Y-63754000D01*
X230632000Y-100203000D02*
X230632000Y-97917000D01*
X224790000Y-85852000D02*
X224790000Y-64262000D01*
X228473000Y-102362000D02*
X230632000Y-100203000D01*
X233680000Y-64262000D02*
X233680000Y-65920000D01*
X225933000Y-102362000D02*
X228473000Y-102362000D01*
D20*
%TO.N,/PeripheralBoard/P2_POT*%
X235712000Y-73914000D02*
X235712000Y-72136000D01*
X233680000Y-75946000D02*
X235712000Y-73914000D01*
X233680000Y-86240000D02*
X233680000Y-75946000D01*
D22*
%TO.N,/PeripheralBoard/P1_POT*%
X229743000Y-73787000D02*
X230759000Y-72771000D01*
X229743000Y-76200000D02*
X229743000Y-73787000D01*
X230174810Y-93649810D02*
X230174810Y-87547324D01*
X230632000Y-80518000D02*
X230632000Y-77089000D01*
X229870000Y-68580000D02*
X228854000Y-68580000D01*
X229362000Y-81788000D02*
X230632000Y-80518000D01*
X233680000Y-97155000D02*
X230174810Y-93649810D01*
X229362000Y-86734514D02*
X229362000Y-81788000D01*
X230174810Y-87547324D02*
X229362000Y-86734514D01*
X230759000Y-72771000D02*
X230759000Y-69469000D01*
X230632000Y-77089000D02*
X229743000Y-76200000D01*
X230759000Y-69469000D02*
X229870000Y-68580000D01*
X233680000Y-106560000D02*
X233680000Y-97155000D01*
D20*
%TO.N,/PeripheralBoard/CLK_TRG*%
X224891600Y-151180800D02*
X225259601Y-151548801D01*
X224891600Y-135483600D02*
X224891600Y-151180800D01*
X226314000Y-153416000D02*
X226314000Y-151561202D01*
D23*
X226314000Y-151561202D02*
X226301599Y-151548801D01*
D20*
X225259601Y-151548801D02*
X226301599Y-151548801D01*
X226911199Y-151548801D02*
X226301599Y-151548801D01*
X230086199Y-151548801D02*
X226911199Y-151548801D01*
X230886000Y-147701000D02*
X230505000Y-148082000D01*
X230505000Y-151130000D02*
X230086199Y-151548801D01*
X236474000Y-147701000D02*
X230886000Y-147701000D01*
X236855000Y-151130000D02*
X236855000Y-148082000D01*
X236855000Y-148082000D02*
X236474000Y-147701000D01*
X237363000Y-151638000D02*
X236855000Y-151130000D01*
X230505000Y-148082000D02*
X230505000Y-151130000D01*
X242570000Y-131191000D02*
X242570000Y-109728000D01*
X242570000Y-151638000D02*
X242570000Y-131191000D01*
X238506000Y-151638000D02*
X237363000Y-151638000D01*
X238506000Y-153416000D02*
X238506000Y-151638000D01*
X239649000Y-151638000D02*
X238506000Y-151638000D01*
D22*
%TO.N,/PeripheralBoard/P2_AVG*%
X225679000Y-85471000D02*
X225679000Y-76581000D01*
D20*
X232156000Y-74422000D02*
X233172000Y-73406000D01*
X233172000Y-73406000D02*
X233172000Y-72136000D01*
X230759000Y-74422000D02*
X232156000Y-74422000D01*
D22*
X225679000Y-76581000D02*
X227838000Y-74422000D01*
X225933000Y-104902000D02*
X227203000Y-104902000D01*
X227203000Y-104902000D02*
X231521000Y-100584000D01*
X231521000Y-100584000D02*
X231521000Y-97536000D01*
X231521000Y-97536000D02*
X228473000Y-94488000D01*
X228473000Y-94488000D02*
X228473000Y-88265000D01*
X228473000Y-88265000D02*
X225679000Y-85471000D01*
D24*
%TO.N,/PeripheralBoard/P1_AVG*%
X226314000Y-68580000D02*
X226314000Y-71882000D01*
D22*
X239776000Y-103251000D02*
X241427000Y-104902000D01*
X226314000Y-62103000D02*
X241427000Y-62103000D01*
X241427000Y-62103000D02*
X242443000Y-63119000D01*
X242443000Y-63119000D02*
X242443000Y-76835000D01*
X239776000Y-103251000D02*
X236728000Y-100203000D01*
X236728000Y-100203000D02*
X236728000Y-97917000D01*
X236728000Y-97917000D02*
X239776000Y-94869000D01*
X239776000Y-94869000D02*
X239776000Y-88138000D01*
X239776000Y-88138000D02*
X242443000Y-85471000D01*
X242443000Y-85471000D02*
X242443000Y-76835000D01*
X226314000Y-68580000D02*
X226314000Y-65024000D01*
D23*
%TO.N,/PeripheralBoard/CLK_LED*%
X234950000Y-123444000D02*
X234950000Y-124206000D01*
D25*
X241427000Y-99822000D02*
X242799790Y-101194790D01*
X242799790Y-105463868D02*
X241427000Y-106836658D01*
X242799790Y-101194790D02*
X242799790Y-105463868D01*
X241427000Y-106836658D02*
X241427000Y-107188000D01*
D20*
X241427000Y-132842000D02*
X241427000Y-107188000D01*
X241046000Y-133223000D02*
X241427000Y-132842000D01*
X235712000Y-133223000D02*
X241046000Y-133223000D01*
X234950000Y-125730000D02*
X234950000Y-124206000D01*
X233299000Y-127381000D02*
X234950000Y-125730000D01*
X233299000Y-133223000D02*
X233299000Y-127381000D01*
D25*
%TO.N,/PeripheralBoard/LED_NEG*%
X224790000Y-105791000D02*
X224790000Y-106426000D01*
X224560210Y-105561210D02*
X224790000Y-105791000D01*
X224560210Y-98654790D02*
X224560210Y-105561210D01*
X225933000Y-97282000D02*
X224560210Y-98654790D01*
D20*
X230632000Y-140589000D02*
X232918000Y-142875000D01*
X232918000Y-142875000D02*
X232918000Y-146177000D01*
X224790000Y-133604000D02*
X226187000Y-135001000D01*
X226187000Y-135001000D02*
X226187000Y-139319000D01*
X226187000Y-139319000D02*
X227457000Y-140589000D01*
X227457000Y-140589000D02*
X230632000Y-140589000D01*
X224790000Y-106426000D02*
X224790000Y-133604000D01*
D23*
%TO.N,/PeripheralBoard/LED_POS*%
X225933000Y-99822000D02*
X225933000Y-100352158D01*
D20*
X234442000Y-146177000D02*
X234442000Y-142113000D01*
X233045000Y-136144000D02*
X233045000Y-136652000D01*
X230251000Y-133350000D02*
X233045000Y-136144000D01*
X226949000Y-133350000D02*
X230251000Y-133350000D01*
X226060000Y-132461000D02*
X226949000Y-133350000D01*
X226060000Y-106934000D02*
X226060000Y-132461000D01*
X234442000Y-142113000D02*
X233045000Y-140716000D01*
X233045000Y-140716000D02*
X233045000Y-139827000D01*
%TO.N,/PeripheralBoard/DITTO*%
X238760000Y-135476000D02*
X240759000Y-135476000D01*
X241046000Y-135763000D02*
X241046000Y-153416000D01*
X240759000Y-135476000D02*
X241046000Y-135763000D01*
D24*
%TO.N,/PeripheralBoard/OUT1*%
X228600000Y-138336000D02*
X234790000Y-138336000D01*
X234790000Y-138336000D02*
X238760000Y-138336000D01*
X234569000Y-128016000D02*
X236855000Y-125730000D01*
X234569000Y-138336000D02*
X234569000Y-128016000D01*
X235458000Y-113080800D02*
X235458000Y-115062000D01*
X233934000Y-116586000D02*
X233934000Y-118110000D01*
X235458000Y-115062000D02*
X233934000Y-116586000D01*
X236855000Y-123190000D02*
X236855000Y-125730000D01*
X233934000Y-120269000D02*
X236855000Y-123190000D01*
%TD*%
M02*
