G04 #@! TF.GenerationSoftware,KiCad,Pcbnew,(5.1.9-0-10_14)*
G04 #@! TF.CreationDate,2021-02-07T03:36:00-06:00*
G04 #@! TF.ProjectId,JNTUB_board1,4a4e5455-425f-4626-9f61-7264312e6b69,rev?*
G04 #@! TF.SameCoordinates,Original*
G04 #@! TF.FileFunction,Copper,L2,Bot*
G04 #@! TF.FilePolarity,Positive*
%FSLAX46Y46*%
G04 Gerber Fmt 4.6, Leading zero omitted, Abs format (unit mm)*
G04 Created by KiCad (PCBNEW (5.1.9-0-10_14)) date 2021-02-07 03:36:00*
%MOMM*%
%LPD*%
G01*
G04 APERTURE LIST*
G04 #@! TA.AperFunction,ComponentPad*
%ADD10O,2.500000X2.800000*%
G04 #@! TD*
G04 #@! TA.AperFunction,ComponentPad*
%ADD11C,2.100000*%
G04 #@! TD*
G04 #@! TA.AperFunction,ComponentPad*
%ADD12O,1.600000X1.600000*%
G04 #@! TD*
G04 #@! TA.AperFunction,ComponentPad*
%ADD13C,1.600000*%
G04 #@! TD*
G04 #@! TA.AperFunction,ComponentPad*
%ADD14R,1.700000X1.700000*%
G04 #@! TD*
G04 #@! TA.AperFunction,ComponentPad*
%ADD15O,1.700000X1.700000*%
G04 #@! TD*
G04 #@! TA.AperFunction,ComponentPad*
%ADD16C,2.000000*%
G04 #@! TD*
G04 #@! TA.AperFunction,ComponentPad*
%ADD17R,1.800000X1.800000*%
G04 #@! TD*
G04 #@! TA.AperFunction,ComponentPad*
%ADD18C,1.800000*%
G04 #@! TD*
G04 #@! TA.AperFunction,ViaPad*
%ADD19C,1.016000*%
G04 #@! TD*
G04 #@! TA.AperFunction,ViaPad*
%ADD20C,0.762000*%
G04 #@! TD*
G04 #@! TA.AperFunction,Conductor*
%ADD21C,0.609600*%
G04 #@! TD*
G04 #@! TA.AperFunction,Conductor*
%ADD22C,0.508000*%
G04 #@! TD*
G04 #@! TA.AperFunction,Conductor*
%ADD23C,0.304800*%
G04 #@! TD*
G04 #@! TA.AperFunction,Conductor*
%ADD24C,0.762000*%
G04 #@! TD*
G04 #@! TA.AperFunction,Conductor*
%ADD25C,0.406400*%
G04 #@! TD*
G04 #@! TA.AperFunction,Conductor*
%ADD26C,0.100000*%
G04 #@! TD*
G04 APERTURE END LIST*
D10*
G04 #@! TO.P,RV3,MP*
G04 #@! TO.N,GNDREF*
X232784000Y-60452000D03*
X222384000Y-60452000D03*
D11*
G04 #@! TO.P,RV3,3*
G04 #@! TO.N,+5V*
X230084000Y-67952000D03*
G04 #@! TO.P,RV3,2*
G04 #@! TO.N,/PeripheralBoard/P3_POT*
X227584000Y-67952000D03*
G04 #@! TO.P,RV3,1*
G04 #@! TO.N,GNDREF*
X225084000Y-67952000D03*
G04 #@! TD*
D10*
G04 #@! TO.P,RV1,MP*
G04 #@! TO.N,GNDREF*
X232784000Y-101092000D03*
X222384000Y-101092000D03*
D11*
G04 #@! TO.P,RV1,3*
G04 #@! TO.N,+5V*
X230084000Y-108592000D03*
G04 #@! TO.P,RV1,2*
G04 #@! TO.N,/PeripheralBoard/P1_POT*
X227584000Y-108592000D03*
G04 #@! TO.P,RV1,1*
G04 #@! TO.N,-5V*
X225084000Y-108592000D03*
G04 #@! TD*
D10*
G04 #@! TO.P,RV2,MP*
G04 #@! TO.N,GNDREF*
X232784000Y-80772000D03*
X222384000Y-80772000D03*
D11*
G04 #@! TO.P,RV2,3*
G04 #@! TO.N,+5V*
X230084000Y-88272000D03*
G04 #@! TO.P,RV2,2*
G04 #@! TO.N,/PeripheralBoard/P2_POT*
X227584000Y-88272000D03*
G04 #@! TO.P,RV2,1*
G04 #@! TO.N,-5V*
X225084000Y-88272000D03*
G04 #@! TD*
D12*
G04 #@! TO.P,R1,2*
G04 #@! TO.N,/PeripheralBoard/P2_POT*
X229616000Y-74168000D03*
D13*
G04 #@! TO.P,R1,1*
G04 #@! TO.N,/PeripheralBoard/P2_AVG*
X227076000Y-74168000D03*
G04 #@! TD*
D12*
G04 #@! TO.P,R3,2*
G04 #@! TO.N,/PeripheralBoard/P2_CV*
X229616000Y-70612000D03*
D13*
G04 #@! TO.P,R3,1*
G04 #@! TO.N,/PeripheralBoard/P2_AVG*
X227076000Y-70612000D03*
G04 #@! TD*
D12*
G04 #@! TO.P,R7,2*
G04 #@! TO.N,/PeripheralBoard/P1_AVG*
X220218000Y-70612000D03*
D13*
G04 #@! TO.P,R7,1*
G04 #@! TO.N,/PeripheralBoard/P1_POT*
X222758000Y-70612000D03*
G04 #@! TD*
D12*
G04 #@! TO.P,R9,2*
G04 #@! TO.N,/PeripheralBoard/P1_AVG*
X220218000Y-74168000D03*
D13*
G04 #@! TO.P,R9,1*
G04 #@! TO.N,/PeripheralBoard/P1_CV*
X222758000Y-74168000D03*
G04 #@! TD*
D12*
G04 #@! TO.P,R15,2*
G04 #@! TO.N,/PeripheralBoard/DITTO*
X235331000Y-155448000D03*
D13*
G04 #@! TO.P,R15,1*
G04 #@! TO.N,/PeripheralBoard/CLK_TRG*
X232791000Y-155448000D03*
G04 #@! TD*
D12*
G04 #@! TO.P,R17,2*
G04 #@! TO.N,/PeripheralBoard/CLK_TRG*
X219837000Y-155448000D03*
D13*
G04 #@! TO.P,R17,1*
G04 #@! TO.N,GNDREF*
X222377000Y-155448000D03*
G04 #@! TD*
D12*
G04 #@! TO.P,R21,2*
G04 #@! TO.N,/PeripheralBoard/OUT*
X231902000Y-111760000D03*
D13*
G04 #@! TO.P,R21,1*
G04 #@! TO.N,/PeripheralBoard/OUT1*
X229362000Y-111760000D03*
G04 #@! TD*
D12*
G04 #@! TO.P,R29,2*
G04 #@! TO.N,Net-(J1-Pad2)*
X223266000Y-111760000D03*
D13*
G04 #@! TO.P,R29,1*
G04 #@! TO.N,GNDREF*
X225806000Y-111760000D03*
G04 #@! TD*
D14*
G04 #@! TO.P,J7,1*
G04 #@! TO.N,+5V*
X219837000Y-91694000D03*
D15*
G04 #@! TO.P,J7,2*
G04 #@! TO.N,-5V*
X219837000Y-94234000D03*
G04 #@! TO.P,J7,3*
G04 #@! TO.N,Net-(J7-Pad3)*
X219837000Y-96774000D03*
G04 #@! TO.P,J7,4*
G04 #@! TO.N,/PeripheralBoard/LED_NEG*
X219837000Y-99314000D03*
G04 #@! TO.P,J7,5*
G04 #@! TO.N,/PeripheralBoard/LED_POS*
X219837000Y-101854000D03*
G04 #@! TO.P,J7,6*
G04 #@! TO.N,/PeripheralBoard/P3_POT*
X219837000Y-104394000D03*
G04 #@! TO.P,J7,7*
G04 #@! TO.N,/PeripheralBoard/P2_AVG*
X219837000Y-106934000D03*
G04 #@! TD*
G04 #@! TO.P,J8,7*
G04 #@! TO.N,/PeripheralBoard/P1_AVG*
X235331000Y-106934000D03*
G04 #@! TO.P,J8,6*
G04 #@! TO.N,/PeripheralBoard/CLK_TRG*
X235331000Y-104394000D03*
G04 #@! TO.P,J8,5*
G04 #@! TO.N,/PeripheralBoard/CLK_LED*
X235331000Y-101854000D03*
G04 #@! TO.P,J8,4*
G04 #@! TO.N,GNDREF*
X235331000Y-99314000D03*
G04 #@! TO.P,J8,3*
X235331000Y-96774000D03*
G04 #@! TO.P,J8,2*
X235331000Y-94234000D03*
D14*
G04 #@! TO.P,J8,1*
G04 #@! TO.N,/PeripheralBoard/OUT*
X235331000Y-91694000D03*
G04 #@! TD*
D16*
G04 #@! TO.P,J4,3*
G04 #@! TO.N,/PeripheralBoard/DITTO*
X232664000Y-137508000D03*
G04 #@! TO.P,J4,2*
G04 #@! TO.N,Net-(J4-Pad2)*
X232664000Y-129208000D03*
G04 #@! TD*
G04 #@! TO.P,J3,3*
G04 #@! TO.N,/PeripheralBoard/CLK_TRG*
X222504000Y-137508000D03*
G04 #@! TO.P,J3,2*
G04 #@! TO.N,Net-(J3-Pad2)*
X222504000Y-129208000D03*
G04 #@! TD*
G04 #@! TO.P,J6,1*
G04 #@! TO.N,GNDREF*
X232664000Y-151768000D03*
G04 #@! TO.P,J6,2*
G04 #@! TO.N,Net-(J6-Pad2)*
X232664000Y-148668000D03*
G04 #@! TO.P,J6,3*
G04 #@! TO.N,/PeripheralBoard/OUT1*
X232664000Y-140368000D03*
G04 #@! TD*
G04 #@! TO.P,J5,1*
G04 #@! TO.N,GNDREF*
X222504000Y-151768000D03*
G04 #@! TO.P,J5,2*
G04 #@! TO.N,Net-(J5-Pad2)*
X222504000Y-148668000D03*
G04 #@! TO.P,J5,3*
G04 #@! TO.N,/PeripheralBoard/OUT1*
X222504000Y-140368000D03*
G04 #@! TD*
G04 #@! TO.P,J2,1*
G04 #@! TO.N,GNDREF*
X232664000Y-126368000D03*
G04 #@! TO.P,J2,2*
G04 #@! TO.N,Net-(J1-Pad2)*
X232664000Y-123268000D03*
G04 #@! TO.P,J2,3*
G04 #@! TO.N,/PeripheralBoard/P2_CV*
X232664000Y-114968000D03*
G04 #@! TD*
G04 #@! TO.P,J1,1*
G04 #@! TO.N,GNDREF*
X222504000Y-126368000D03*
G04 #@! TO.P,J1,2*
G04 #@! TO.N,Net-(J1-Pad2)*
X222504000Y-123268000D03*
G04 #@! TO.P,J1,3*
G04 #@! TO.N,/PeripheralBoard/P1_CV*
X222504000Y-114968000D03*
G04 #@! TD*
D17*
G04 #@! TO.P,D6,1*
G04 #@! TO.N,GNDREF*
X226314000Y-126238000D03*
D18*
G04 #@! TO.P,D6,2*
G04 #@! TO.N,/PeripheralBoard/CLK_LED*
X228854000Y-126238000D03*
G04 #@! TD*
D17*
G04 #@! TO.P,D7,1*
G04 #@! TO.N,/PeripheralBoard/LED_NEG*
X226314000Y-151638000D03*
D18*
G04 #@! TO.P,D7,2*
G04 #@! TO.N,/PeripheralBoard/LED_POS*
X228854000Y-151638000D03*
G04 #@! TD*
D17*
G04 #@! TO.P,D8,1*
G04 #@! TO.N,/PeripheralBoard/LED_POS*
X228854000Y-155448000D03*
D18*
G04 #@! TO.P,D8,2*
G04 #@! TO.N,/PeripheralBoard/LED_NEG*
X226314000Y-155448000D03*
G04 #@! TD*
D19*
G04 #@! TO.N,GNDREF*
X226822000Y-113411000D03*
X224155000Y-155448000D03*
D20*
G04 #@! TO.N,+5V*
X232537000Y-75946000D03*
X232537000Y-72390000D03*
X229362000Y-96869902D03*
X228727000Y-104521000D03*
G04 #@! TO.N,-5V*
X226441000Y-104521000D03*
X228092000Y-98171000D03*
G04 #@! TO.N,/PeripheralBoard/OUT*
X234188000Y-84836000D03*
G04 #@! TO.N,/PeripheralBoard/CLK_TRG*
X218795600Y-137515600D03*
X234188000Y-153670000D03*
X236474000Y-111760000D03*
X236474000Y-151384000D03*
G04 #@! TO.N,/PeripheralBoard/P2_AVG*
X224663000Y-76454000D03*
X221742000Y-76454000D03*
G04 #@! TO.N,/PeripheralBoard/P1_AVG*
X220218000Y-67056000D03*
X220218000Y-64135000D03*
G04 #@! TO.N,/PeripheralBoard/CLK_LED*
X227203000Y-135255000D03*
X229616000Y-135255000D03*
G04 #@! TO.N,/PeripheralBoard/LED_NEG*
X226822000Y-148209000D03*
G04 #@! TO.N,/PeripheralBoard/LED_POS*
X228346000Y-148209000D03*
X219964000Y-108966000D03*
X226949000Y-141859000D03*
X226949000Y-138684000D03*
G04 #@! TO.N,/PeripheralBoard/OUT1*
X227838000Y-120142000D03*
X227838000Y-122301000D03*
G04 #@! TD*
D21*
G04 #@! TO.N,+5V*
X232537000Y-75946000D02*
X232537000Y-72390000D01*
X221234000Y-91694000D02*
X219837000Y-91694000D01*
X222885000Y-93345000D02*
X221234000Y-91694000D01*
X222885000Y-96012000D02*
X222885000Y-93345000D01*
X226441000Y-98171000D02*
X225044000Y-98171000D01*
X225044000Y-98171000D02*
X222885000Y-96012000D01*
X227742098Y-96869902D02*
X226441000Y-98171000D01*
X229362000Y-96869902D02*
X227742098Y-96869902D01*
X229362000Y-96869902D02*
X229362000Y-98679000D01*
X229362000Y-98679000D02*
X227711000Y-100330000D01*
X227711000Y-103505000D02*
X228727000Y-104521000D01*
X227711000Y-100330000D02*
X227711000Y-103505000D01*
G04 #@! TO.N,-5V*
X226441000Y-99314000D02*
X227000236Y-99314000D01*
X224409000Y-99314000D02*
X226441000Y-99314000D01*
X221615000Y-96520000D02*
X224409000Y-99314000D01*
X221615000Y-94615000D02*
X221615000Y-96520000D01*
X221234000Y-94234000D02*
X221615000Y-94615000D01*
X219837000Y-94234000D02*
X221234000Y-94234000D01*
X227000236Y-99262764D02*
X228092000Y-98171000D01*
X227000236Y-99314000D02*
X227000236Y-99262764D01*
X226441000Y-104521000D02*
X226441000Y-99314000D01*
D22*
G04 #@! TO.N,/PeripheralBoard/OUT*
X235331000Y-91694000D02*
X235331000Y-85979000D01*
X235331000Y-85979000D02*
X234188000Y-84836000D01*
D21*
G04 #@! TO.N,/PeripheralBoard/CLK_TRG*
X222504000Y-137508000D02*
X218803200Y-137508000D01*
X218803200Y-137508000D02*
X218795600Y-137515600D01*
D23*
X236474000Y-110236000D02*
X236474000Y-111760000D01*
X236533081Y-104394000D02*
X236703790Y-104564709D01*
X236703790Y-104564709D02*
X236703790Y-110006210D01*
X235331000Y-104394000D02*
X236533081Y-104394000D01*
X236703790Y-110006210D02*
X236474000Y-110236000D01*
D21*
X236474000Y-151384000D02*
X236474000Y-152146000D01*
X236474000Y-152146000D02*
X234950000Y-153670000D01*
X234188000Y-153670000D02*
X234950000Y-153670000D01*
G04 #@! TO.N,/PeripheralBoard/P2_AVG*
X221742000Y-76454000D02*
X224663000Y-76454000D01*
D22*
G04 #@! TO.N,/PeripheralBoard/P1_AVG*
X220218000Y-67056000D02*
X220218000Y-64135000D01*
D21*
G04 #@! TO.N,/PeripheralBoard/CLK_LED*
X227203000Y-135255000D02*
X229616000Y-135255000D01*
G04 #@! TO.N,/PeripheralBoard/LED_NEG*
X226314000Y-151638000D02*
X226314000Y-155448000D01*
X226314000Y-151638000D02*
X226314000Y-150495000D01*
X226314000Y-150495000D02*
X226822000Y-149987000D01*
X226822000Y-149987000D02*
X226822000Y-148209000D01*
G04 #@! TO.N,/PeripheralBoard/LED_POS*
X228854000Y-151638000D02*
X228854000Y-155448000D01*
D23*
X219837000Y-101854000D02*
X218464210Y-103226790D01*
X218464210Y-107466210D02*
X219964000Y-108966000D01*
X218464210Y-103226790D02*
X218464210Y-107466210D01*
D21*
X228854000Y-151638000D02*
X228854000Y-150495000D01*
X228854000Y-150495000D02*
X228346000Y-149987000D01*
X228346000Y-149987000D02*
X228346000Y-148209000D01*
X226949000Y-141859000D02*
X226949000Y-138684000D01*
D24*
G04 #@! TO.N,/PeripheralBoard/OUT1*
X227838000Y-120142000D02*
X227838000Y-122301000D01*
G04 #@! TD*
D25*
G04 #@! TO.N,GNDREF*
X220910074Y-59005427D02*
X220685446Y-59317889D01*
X220526093Y-59668170D01*
X220438138Y-60042809D01*
X220599348Y-60350400D01*
X222282400Y-60350400D01*
X222282400Y-60330400D01*
X222485600Y-60330400D01*
X222485600Y-60350400D01*
X224168652Y-60350400D01*
X224329862Y-60042809D01*
X224241907Y-59668170D01*
X224082554Y-59317889D01*
X223857926Y-59005427D01*
X223637709Y-58799800D01*
X231530291Y-58799800D01*
X231310074Y-59005427D01*
X231085446Y-59317889D01*
X230926093Y-59668170D01*
X230838138Y-60042809D01*
X230999348Y-60350400D01*
X232682400Y-60350400D01*
X232682400Y-60330400D01*
X232885600Y-60330400D01*
X232885600Y-60350400D01*
X234568652Y-60350400D01*
X234729862Y-60042809D01*
X234641907Y-59668170D01*
X234482554Y-59317889D01*
X234257926Y-59005427D01*
X234037709Y-58799800D01*
X236348201Y-58799800D01*
X236348201Y-85657250D01*
X236321363Y-85568778D01*
X236248013Y-85431550D01*
X236222303Y-85383449D01*
X236122395Y-85261712D01*
X236088991Y-85221009D01*
X236048287Y-85187604D01*
X235327056Y-84466373D01*
X235245932Y-84270524D01*
X235115285Y-84074997D01*
X234949003Y-83908715D01*
X234753476Y-83778068D01*
X234536219Y-83688077D01*
X234305579Y-83642200D01*
X234070421Y-83642200D01*
X233839781Y-83688077D01*
X233622524Y-83778068D01*
X233426997Y-83908715D01*
X233260715Y-84074997D01*
X233130068Y-84270524D01*
X233040077Y-84487781D01*
X232994200Y-84718421D01*
X232994200Y-84953579D01*
X233040077Y-85184219D01*
X233130068Y-85401476D01*
X233260715Y-85597003D01*
X233426997Y-85763285D01*
X233622524Y-85893932D01*
X233818373Y-85975056D01*
X234264201Y-86420884D01*
X234264200Y-90060392D01*
X234168450Y-90089438D01*
X234027248Y-90164912D01*
X233903483Y-90266483D01*
X233801912Y-90390248D01*
X233726438Y-90531450D01*
X233679961Y-90684663D01*
X233664268Y-90844000D01*
X233664268Y-92544000D01*
X233679961Y-92703337D01*
X233726438Y-92856550D01*
X233801912Y-92997752D01*
X233903483Y-93121517D01*
X234027248Y-93223088D01*
X234113224Y-93269043D01*
X234010919Y-93400489D01*
X233873674Y-93674040D01*
X233808183Y-93889943D01*
X233951336Y-94132400D01*
X235229400Y-94132400D01*
X235229400Y-94112400D01*
X235432600Y-94112400D01*
X235432600Y-94132400D01*
X235452600Y-94132400D01*
X235452600Y-94335600D01*
X235432600Y-94335600D01*
X235432600Y-96672400D01*
X235452600Y-96672400D01*
X235452600Y-96875600D01*
X235432600Y-96875600D01*
X235432600Y-99212400D01*
X235452600Y-99212400D01*
X235452600Y-99415600D01*
X235432600Y-99415600D01*
X235432600Y-99435600D01*
X235229400Y-99435600D01*
X235229400Y-99415600D01*
X235209400Y-99415600D01*
X235209400Y-99212400D01*
X235229400Y-99212400D01*
X235229400Y-96875600D01*
X233951336Y-96875600D01*
X233808183Y-97118057D01*
X233873674Y-97333960D01*
X234010919Y-97607511D01*
X234198894Y-97849030D01*
X234424320Y-98044000D01*
X234198894Y-98238970D01*
X234010919Y-98480489D01*
X233873674Y-98754040D01*
X233808183Y-98969943D01*
X233951335Y-99212398D01*
X233769800Y-99212398D01*
X233769800Y-99254597D01*
X233649553Y-99180076D01*
X233289187Y-99045070D01*
X233190737Y-99023440D01*
X232885600Y-99161496D01*
X232885600Y-100990400D01*
X232905600Y-100990400D01*
X232905600Y-101193600D01*
X232885600Y-101193600D01*
X232885600Y-103022504D01*
X233190737Y-103160560D01*
X233289187Y-103138930D01*
X233649553Y-103003924D01*
X233967757Y-102806723D01*
X234039419Y-102913973D01*
X234249446Y-103124000D01*
X234039419Y-103334027D01*
X233857445Y-103606369D01*
X233732100Y-103908979D01*
X233668200Y-104230228D01*
X233668200Y-104557772D01*
X233732100Y-104879021D01*
X233857445Y-105181631D01*
X234039419Y-105453973D01*
X234249446Y-105664000D01*
X234039419Y-105874027D01*
X233857445Y-106146369D01*
X233732100Y-106448979D01*
X233668200Y-106770228D01*
X233668200Y-107097772D01*
X233732100Y-107419021D01*
X233857445Y-107721631D01*
X234039419Y-107993973D01*
X234271027Y-108225581D01*
X234543369Y-108407555D01*
X234845979Y-108532900D01*
X235167228Y-108596800D01*
X235494772Y-108596800D01*
X235738591Y-108548302D01*
X235738591Y-109610645D01*
X235667583Y-109697169D01*
X235577957Y-109864848D01*
X235522766Y-110046789D01*
X235508800Y-110188585D01*
X235504130Y-110236000D01*
X235508800Y-110283412D01*
X235508801Y-111055740D01*
X235416068Y-111194524D01*
X235326077Y-111411781D01*
X235280200Y-111642421D01*
X235280200Y-111877579D01*
X235326077Y-112108219D01*
X235416068Y-112325476D01*
X235546715Y-112521003D01*
X235712997Y-112687285D01*
X235908524Y-112817932D01*
X236125781Y-112907923D01*
X236348200Y-112952165D01*
X236348200Y-150191835D01*
X236125781Y-150236077D01*
X235908524Y-150326068D01*
X235712997Y-150456715D01*
X235546715Y-150622997D01*
X235416068Y-150818524D01*
X235326077Y-151035781D01*
X235280200Y-151266421D01*
X235280200Y-151501579D01*
X235322954Y-151716521D01*
X234520521Y-152518955D01*
X234305579Y-152476200D01*
X234223661Y-152476200D01*
X234265342Y-152394352D01*
X234356768Y-152069911D01*
X234383142Y-151733867D01*
X234343450Y-151399134D01*
X234239218Y-151078577D01*
X234112377Y-150841276D01*
X233823605Y-150752079D01*
X232807684Y-151768000D01*
X232821827Y-151782143D01*
X232678143Y-151925827D01*
X232664000Y-151911684D01*
X231648079Y-152927605D01*
X231737276Y-153216377D01*
X232037648Y-153369342D01*
X232362089Y-153460768D01*
X232698133Y-153487142D01*
X233014650Y-153449610D01*
X232994200Y-153552421D01*
X232994200Y-153787579D01*
X233005890Y-153846348D01*
X232949847Y-153835200D01*
X232632153Y-153835200D01*
X232320563Y-153897179D01*
X232027053Y-154018755D01*
X231762900Y-154195256D01*
X231538256Y-154419900D01*
X231361755Y-154684053D01*
X231240179Y-154977563D01*
X231178200Y-155289153D01*
X231178200Y-155606847D01*
X231240179Y-155918437D01*
X231308840Y-156084200D01*
X230570732Y-156084200D01*
X230570732Y-154548000D01*
X230555039Y-154388663D01*
X230508562Y-154235450D01*
X230433088Y-154094248D01*
X230331517Y-153970483D01*
X230207752Y-153868912D01*
X230066550Y-153793438D01*
X229971600Y-153764635D01*
X229971600Y-152942666D01*
X230184419Y-152729847D01*
X230371864Y-152449315D01*
X230500979Y-152137605D01*
X230566800Y-151806696D01*
X230566800Y-151802133D01*
X230944858Y-151802133D01*
X230984550Y-152136866D01*
X231088782Y-152457423D01*
X231215623Y-152694724D01*
X231504395Y-152783921D01*
X232520316Y-151768000D01*
X231504395Y-150752079D01*
X231215623Y-150841276D01*
X231062658Y-151141648D01*
X230971232Y-151466089D01*
X230944858Y-151802133D01*
X230566800Y-151802133D01*
X230566800Y-151469304D01*
X230500979Y-151138395D01*
X230371864Y-150826685D01*
X230184419Y-150546153D01*
X229959936Y-150321670D01*
X229955429Y-150275912D01*
X229891523Y-150065244D01*
X229787746Y-149871091D01*
X229648086Y-149700914D01*
X229605437Y-149665913D01*
X229463600Y-149524076D01*
X229463600Y-148630425D01*
X229493923Y-148557219D01*
X229539800Y-148326579D01*
X229539800Y-148091421D01*
X229493923Y-147860781D01*
X229403932Y-147643524D01*
X229273285Y-147447997D01*
X229107003Y-147281715D01*
X228911476Y-147151068D01*
X228694219Y-147061077D01*
X228463579Y-147015200D01*
X228228421Y-147015200D01*
X227997781Y-147061077D01*
X227780524Y-147151068D01*
X227584997Y-147281715D01*
X227584000Y-147282712D01*
X227583003Y-147281715D01*
X227387476Y-147151068D01*
X227170219Y-147061077D01*
X226939579Y-147015200D01*
X226704421Y-147015200D01*
X226473781Y-147061077D01*
X226256524Y-147151068D01*
X226060997Y-147281715D01*
X225894715Y-147447997D01*
X225764068Y-147643524D01*
X225674077Y-147860781D01*
X225628200Y-148091421D01*
X225628200Y-148326579D01*
X225674077Y-148557219D01*
X225704400Y-148630425D01*
X225704400Y-149524076D01*
X225562558Y-149665918D01*
X225519915Y-149700914D01*
X225484919Y-149743557D01*
X225380254Y-149871091D01*
X225350069Y-149927565D01*
X225254663Y-149936961D01*
X225101450Y-149983438D01*
X224960248Y-150058912D01*
X224836483Y-150160483D01*
X224734912Y-150284248D01*
X224659438Y-150425450D01*
X224612961Y-150578663D01*
X224597268Y-150738000D01*
X224597268Y-152538000D01*
X224612961Y-152697337D01*
X224659438Y-152850550D01*
X224734912Y-152991752D01*
X224836483Y-153115517D01*
X224960248Y-153217088D01*
X225101450Y-153292562D01*
X225196400Y-153321365D01*
X225196401Y-154143333D01*
X224983581Y-154356153D01*
X224796136Y-154636685D01*
X224667021Y-154948395D01*
X224601200Y-155279304D01*
X224601200Y-155616696D01*
X224667021Y-155947605D01*
X224723601Y-156084200D01*
X223748450Y-156084200D01*
X223795472Y-155990048D01*
X223873964Y-155702903D01*
X223894930Y-155405962D01*
X223857562Y-155110636D01*
X223763297Y-154828275D01*
X223662468Y-154639637D01*
X223394143Y-154574541D01*
X222520684Y-155448000D01*
X222534827Y-155462143D01*
X222391143Y-155605827D01*
X222377000Y-155591684D01*
X222362858Y-155605827D01*
X222219174Y-155462143D01*
X222233316Y-155448000D01*
X221359857Y-154574541D01*
X221216336Y-154609359D01*
X221097066Y-154430857D01*
X221503541Y-154430857D01*
X222377000Y-155304316D01*
X223250459Y-154430857D01*
X223185363Y-154162532D01*
X222919048Y-154029528D01*
X222631903Y-153951036D01*
X222334962Y-153930070D01*
X222039636Y-153967438D01*
X221757275Y-154061703D01*
X221568637Y-154162532D01*
X221503541Y-154430857D01*
X221097066Y-154430857D01*
X221089744Y-154419900D01*
X220865100Y-154195256D01*
X220600947Y-154018755D01*
X220307437Y-153897179D01*
X219995847Y-153835200D01*
X219678153Y-153835200D01*
X219366563Y-153897179D01*
X219073053Y-154018755D01*
X218819800Y-154187973D01*
X218819800Y-152927605D01*
X221488079Y-152927605D01*
X221577276Y-153216377D01*
X221877648Y-153369342D01*
X222202089Y-153460768D01*
X222538133Y-153487142D01*
X222872866Y-153447450D01*
X223193423Y-153343218D01*
X223430724Y-153216377D01*
X223519921Y-152927605D01*
X222504000Y-151911684D01*
X221488079Y-152927605D01*
X218819800Y-152927605D01*
X218819800Y-151802133D01*
X220784858Y-151802133D01*
X220824550Y-152136866D01*
X220928782Y-152457423D01*
X221055623Y-152694724D01*
X221344395Y-152783921D01*
X222360316Y-151768000D01*
X222647684Y-151768000D01*
X223663605Y-152783921D01*
X223952377Y-152694724D01*
X224105342Y-152394352D01*
X224196768Y-152069911D01*
X224223142Y-151733867D01*
X224183450Y-151399134D01*
X224079218Y-151078577D01*
X223952377Y-150841276D01*
X223663605Y-150752079D01*
X222647684Y-151768000D01*
X222360316Y-151768000D01*
X221344395Y-150752079D01*
X221055623Y-150841276D01*
X220902658Y-151141648D01*
X220811232Y-151466089D01*
X220784858Y-151802133D01*
X218819800Y-151802133D01*
X218819800Y-145060209D01*
X220191200Y-145060209D01*
X220191200Y-145515791D01*
X220280079Y-145962619D01*
X220454423Y-146383522D01*
X220707531Y-146762324D01*
X221029676Y-147084469D01*
X221325909Y-147282406D01*
X221095907Y-147512408D01*
X220897518Y-147809317D01*
X220760865Y-148139226D01*
X220691200Y-148489455D01*
X220691200Y-148846545D01*
X220760865Y-149196774D01*
X220897518Y-149526683D01*
X221095907Y-149823592D01*
X221348408Y-150076093D01*
X221645317Y-150274482D01*
X221654563Y-150278312D01*
X221577276Y-150319623D01*
X221488079Y-150608395D01*
X222504000Y-151624316D01*
X223519921Y-150608395D01*
X223430724Y-150319623D01*
X223351323Y-150279188D01*
X223362683Y-150274482D01*
X223659592Y-150076093D01*
X223912093Y-149823592D01*
X224110482Y-149526683D01*
X224247135Y-149196774D01*
X224316800Y-148846545D01*
X224316800Y-148489455D01*
X224247135Y-148139226D01*
X224110482Y-147809317D01*
X223912093Y-147512408D01*
X223682091Y-147282406D01*
X223978324Y-147084469D01*
X224300469Y-146762324D01*
X224553577Y-146383522D01*
X224727921Y-145962619D01*
X224816800Y-145515791D01*
X224816800Y-145060209D01*
X230351200Y-145060209D01*
X230351200Y-145515791D01*
X230440079Y-145962619D01*
X230614423Y-146383522D01*
X230867531Y-146762324D01*
X231189676Y-147084469D01*
X231485909Y-147282406D01*
X231255907Y-147512408D01*
X231057518Y-147809317D01*
X230920865Y-148139226D01*
X230851200Y-148489455D01*
X230851200Y-148846545D01*
X230920865Y-149196774D01*
X231057518Y-149526683D01*
X231255907Y-149823592D01*
X231508408Y-150076093D01*
X231805317Y-150274482D01*
X231814563Y-150278312D01*
X231737276Y-150319623D01*
X231648079Y-150608395D01*
X232664000Y-151624316D01*
X233679921Y-150608395D01*
X233590724Y-150319623D01*
X233511323Y-150279188D01*
X233522683Y-150274482D01*
X233819592Y-150076093D01*
X234072093Y-149823592D01*
X234270482Y-149526683D01*
X234407135Y-149196774D01*
X234476800Y-148846545D01*
X234476800Y-148489455D01*
X234407135Y-148139226D01*
X234270482Y-147809317D01*
X234072093Y-147512408D01*
X233842091Y-147282406D01*
X234138324Y-147084469D01*
X234460469Y-146762324D01*
X234713577Y-146383522D01*
X234887921Y-145962619D01*
X234976800Y-145515791D01*
X234976800Y-145060209D01*
X234887921Y-144613381D01*
X234713577Y-144192478D01*
X234460469Y-143813676D01*
X234138324Y-143491531D01*
X233759522Y-143238423D01*
X233338619Y-143064079D01*
X232891791Y-142975200D01*
X232436209Y-142975200D01*
X231989381Y-143064079D01*
X231568478Y-143238423D01*
X231189676Y-143491531D01*
X230867531Y-143813676D01*
X230614423Y-144192478D01*
X230440079Y-144613381D01*
X230351200Y-145060209D01*
X224816800Y-145060209D01*
X224727921Y-144613381D01*
X224553577Y-144192478D01*
X224300469Y-143813676D01*
X223978324Y-143491531D01*
X223599522Y-143238423D01*
X223178619Y-143064079D01*
X222731791Y-142975200D01*
X222276209Y-142975200D01*
X221829381Y-143064079D01*
X221408478Y-143238423D01*
X221029676Y-143491531D01*
X220707531Y-143813676D01*
X220454423Y-144192478D01*
X220280079Y-144613381D01*
X220191200Y-145060209D01*
X218819800Y-145060209D01*
X218819800Y-138709400D01*
X218913179Y-138709400D01*
X219143819Y-138663523D01*
X219235373Y-138625600D01*
X221070521Y-138625600D01*
X221095907Y-138663592D01*
X221348408Y-138916093D01*
X221381194Y-138938000D01*
X221348408Y-138959907D01*
X221095907Y-139212408D01*
X220897518Y-139509317D01*
X220760865Y-139839226D01*
X220691200Y-140189455D01*
X220691200Y-140546545D01*
X220760865Y-140896774D01*
X220897518Y-141226683D01*
X221095907Y-141523592D01*
X221348408Y-141776093D01*
X221645317Y-141974482D01*
X221975226Y-142111135D01*
X222325455Y-142180800D01*
X222682545Y-142180800D01*
X223032774Y-142111135D01*
X223362683Y-141974482D01*
X223659592Y-141776093D01*
X223912093Y-141523592D01*
X224110482Y-141226683D01*
X224247135Y-140896774D01*
X224316800Y-140546545D01*
X224316800Y-140189455D01*
X224247135Y-139839226D01*
X224110482Y-139509317D01*
X223912093Y-139212408D01*
X223659592Y-138959907D01*
X223626806Y-138938000D01*
X223659592Y-138916093D01*
X223912093Y-138663592D01*
X223977020Y-138566421D01*
X225755200Y-138566421D01*
X225755200Y-138801579D01*
X225801077Y-139032219D01*
X225831401Y-139105427D01*
X225831400Y-141437575D01*
X225801077Y-141510781D01*
X225755200Y-141741421D01*
X225755200Y-141976579D01*
X225801077Y-142207219D01*
X225891068Y-142424476D01*
X226021715Y-142620003D01*
X226187997Y-142786285D01*
X226383524Y-142916932D01*
X226600781Y-143006923D01*
X226831421Y-143052800D01*
X227066579Y-143052800D01*
X227297219Y-143006923D01*
X227514476Y-142916932D01*
X227710003Y-142786285D01*
X227876285Y-142620003D01*
X228006932Y-142424476D01*
X228096923Y-142207219D01*
X228142800Y-141976579D01*
X228142800Y-141741421D01*
X228096923Y-141510781D01*
X228066600Y-141437575D01*
X228066600Y-139105425D01*
X228096923Y-139032219D01*
X228142800Y-138801579D01*
X228142800Y-138566421D01*
X228096923Y-138335781D01*
X228006932Y-138118524D01*
X227876285Y-137922997D01*
X227710003Y-137756715D01*
X227514476Y-137626068D01*
X227297219Y-137536077D01*
X227066579Y-137490200D01*
X226831421Y-137490200D01*
X226600781Y-137536077D01*
X226383524Y-137626068D01*
X226187997Y-137756715D01*
X226021715Y-137922997D01*
X225891068Y-138118524D01*
X225801077Y-138335781D01*
X225755200Y-138566421D01*
X223977020Y-138566421D01*
X224110482Y-138366683D01*
X224247135Y-138036774D01*
X224316800Y-137686545D01*
X224316800Y-137329455D01*
X230851200Y-137329455D01*
X230851200Y-137686545D01*
X230920865Y-138036774D01*
X231057518Y-138366683D01*
X231255907Y-138663592D01*
X231508408Y-138916093D01*
X231541194Y-138938000D01*
X231508408Y-138959907D01*
X231255907Y-139212408D01*
X231057518Y-139509317D01*
X230920865Y-139839226D01*
X230851200Y-140189455D01*
X230851200Y-140546545D01*
X230920865Y-140896774D01*
X231057518Y-141226683D01*
X231255907Y-141523592D01*
X231508408Y-141776093D01*
X231805317Y-141974482D01*
X232135226Y-142111135D01*
X232485455Y-142180800D01*
X232842545Y-142180800D01*
X233192774Y-142111135D01*
X233522683Y-141974482D01*
X233819592Y-141776093D01*
X234072093Y-141523592D01*
X234270482Y-141226683D01*
X234407135Y-140896774D01*
X234476800Y-140546545D01*
X234476800Y-140189455D01*
X234407135Y-139839226D01*
X234270482Y-139509317D01*
X234072093Y-139212408D01*
X233819592Y-138959907D01*
X233786806Y-138938000D01*
X233819592Y-138916093D01*
X234072093Y-138663592D01*
X234270482Y-138366683D01*
X234407135Y-138036774D01*
X234476800Y-137686545D01*
X234476800Y-137329455D01*
X234407135Y-136979226D01*
X234270482Y-136649317D01*
X234072093Y-136352408D01*
X233819592Y-136099907D01*
X233522683Y-135901518D01*
X233192774Y-135764865D01*
X232842545Y-135695200D01*
X232485455Y-135695200D01*
X232135226Y-135764865D01*
X231805317Y-135901518D01*
X231508408Y-136099907D01*
X231255907Y-136352408D01*
X231057518Y-136649317D01*
X230920865Y-136979226D01*
X230851200Y-137329455D01*
X224316800Y-137329455D01*
X224247135Y-136979226D01*
X224110482Y-136649317D01*
X223912093Y-136352408D01*
X223659592Y-136099907D01*
X223362683Y-135901518D01*
X223032774Y-135764865D01*
X222682545Y-135695200D01*
X222325455Y-135695200D01*
X221975226Y-135764865D01*
X221645317Y-135901518D01*
X221348408Y-136099907D01*
X221095907Y-136352408D01*
X221070521Y-136390400D01*
X219198677Y-136390400D01*
X219143819Y-136367677D01*
X218913179Y-136321800D01*
X218819800Y-136321800D01*
X218819800Y-135137421D01*
X226009200Y-135137421D01*
X226009200Y-135372579D01*
X226055077Y-135603219D01*
X226145068Y-135820476D01*
X226275715Y-136016003D01*
X226441997Y-136182285D01*
X226637524Y-136312932D01*
X226854781Y-136402923D01*
X227085421Y-136448800D01*
X227320579Y-136448800D01*
X227551219Y-136402923D01*
X227624425Y-136372600D01*
X229194575Y-136372600D01*
X229267781Y-136402923D01*
X229498421Y-136448800D01*
X229733579Y-136448800D01*
X229964219Y-136402923D01*
X230181476Y-136312932D01*
X230377003Y-136182285D01*
X230543285Y-136016003D01*
X230673932Y-135820476D01*
X230763923Y-135603219D01*
X230809800Y-135372579D01*
X230809800Y-135137421D01*
X230763923Y-134906781D01*
X230673932Y-134689524D01*
X230543285Y-134493997D01*
X230377003Y-134327715D01*
X230181476Y-134197068D01*
X229964219Y-134107077D01*
X229733579Y-134061200D01*
X229498421Y-134061200D01*
X229267781Y-134107077D01*
X229194575Y-134137400D01*
X227624425Y-134137400D01*
X227551219Y-134107077D01*
X227320579Y-134061200D01*
X227085421Y-134061200D01*
X226854781Y-134107077D01*
X226637524Y-134197068D01*
X226441997Y-134327715D01*
X226275715Y-134493997D01*
X226145068Y-134689524D01*
X226055077Y-134906781D01*
X226009200Y-135137421D01*
X218819800Y-135137421D01*
X218819800Y-132360209D01*
X220191200Y-132360209D01*
X220191200Y-132815791D01*
X220280079Y-133262619D01*
X220454423Y-133683522D01*
X220707531Y-134062324D01*
X221029676Y-134384469D01*
X221408478Y-134637577D01*
X221829381Y-134811921D01*
X222276209Y-134900800D01*
X222731791Y-134900800D01*
X223178619Y-134811921D01*
X223599522Y-134637577D01*
X223978324Y-134384469D01*
X224300469Y-134062324D01*
X224553577Y-133683522D01*
X224727921Y-133262619D01*
X224816800Y-132815791D01*
X224816800Y-132360209D01*
X230351200Y-132360209D01*
X230351200Y-132815791D01*
X230440079Y-133262619D01*
X230614423Y-133683522D01*
X230867531Y-134062324D01*
X231189676Y-134384469D01*
X231568478Y-134637577D01*
X231989381Y-134811921D01*
X232436209Y-134900800D01*
X232891791Y-134900800D01*
X233338619Y-134811921D01*
X233759522Y-134637577D01*
X234138324Y-134384469D01*
X234460469Y-134062324D01*
X234713577Y-133683522D01*
X234887921Y-133262619D01*
X234976800Y-132815791D01*
X234976800Y-132360209D01*
X234887921Y-131913381D01*
X234713577Y-131492478D01*
X234460469Y-131113676D01*
X234138324Y-130791531D01*
X233842091Y-130593594D01*
X234072093Y-130363592D01*
X234270482Y-130066683D01*
X234407135Y-129736774D01*
X234476800Y-129386545D01*
X234476800Y-129029455D01*
X234407135Y-128679226D01*
X234270482Y-128349317D01*
X234072093Y-128052408D01*
X233819592Y-127799907D01*
X233634096Y-127675962D01*
X233679921Y-127527605D01*
X232664000Y-126511684D01*
X231648079Y-127527605D01*
X231693904Y-127675962D01*
X231508408Y-127799907D01*
X231255907Y-128052408D01*
X231057518Y-128349317D01*
X230920865Y-128679226D01*
X230851200Y-129029455D01*
X230851200Y-129386545D01*
X230920865Y-129736774D01*
X231057518Y-130066683D01*
X231255907Y-130363592D01*
X231485909Y-130593594D01*
X231189676Y-130791531D01*
X230867531Y-131113676D01*
X230614423Y-131492478D01*
X230440079Y-131913381D01*
X230351200Y-132360209D01*
X224816800Y-132360209D01*
X224727921Y-131913381D01*
X224553577Y-131492478D01*
X224300469Y-131113676D01*
X223978324Y-130791531D01*
X223682091Y-130593594D01*
X223912093Y-130363592D01*
X224110482Y-130066683D01*
X224247135Y-129736774D01*
X224316800Y-129386545D01*
X224316800Y-129029455D01*
X224247135Y-128679226D01*
X224110482Y-128349317D01*
X223912093Y-128052408D01*
X223659592Y-127799907D01*
X223474096Y-127675962D01*
X223519921Y-127527605D01*
X222504000Y-126511684D01*
X221488079Y-127527605D01*
X221533904Y-127675962D01*
X221348408Y-127799907D01*
X221095907Y-128052408D01*
X220897518Y-128349317D01*
X220760865Y-128679226D01*
X220691200Y-129029455D01*
X220691200Y-129386545D01*
X220760865Y-129736774D01*
X220897518Y-130066683D01*
X221095907Y-130363592D01*
X221325909Y-130593594D01*
X221029676Y-130791531D01*
X220707531Y-131113676D01*
X220454423Y-131492478D01*
X220280079Y-131913381D01*
X220191200Y-132360209D01*
X218819800Y-132360209D01*
X218819800Y-126402133D01*
X220784858Y-126402133D01*
X220824550Y-126736866D01*
X220928782Y-127057423D01*
X221055623Y-127294724D01*
X221344395Y-127383921D01*
X222360316Y-126368000D01*
X222647684Y-126368000D01*
X223663605Y-127383921D01*
X223952377Y-127294724D01*
X224032188Y-127138000D01*
X224699359Y-127138000D01*
X224713091Y-127277420D01*
X224753758Y-127411481D01*
X224819798Y-127535033D01*
X224908673Y-127643327D01*
X225016967Y-127732202D01*
X225140519Y-127798242D01*
X225274580Y-127838909D01*
X225414000Y-127852641D01*
X226034600Y-127849200D01*
X226212400Y-127671400D01*
X226212400Y-126339600D01*
X224880600Y-126339600D01*
X224702800Y-126517400D01*
X224699359Y-127138000D01*
X224032188Y-127138000D01*
X224105342Y-126994352D01*
X224196768Y-126669911D01*
X224223142Y-126333867D01*
X224183450Y-125999134D01*
X224079218Y-125678577D01*
X223952377Y-125441276D01*
X223663605Y-125352079D01*
X222647684Y-126368000D01*
X222360316Y-126368000D01*
X221344395Y-125352079D01*
X221055623Y-125441276D01*
X220902658Y-125741648D01*
X220811232Y-126066089D01*
X220784858Y-126402133D01*
X218819800Y-126402133D01*
X218819800Y-119660209D01*
X220191200Y-119660209D01*
X220191200Y-120115791D01*
X220280079Y-120562619D01*
X220454423Y-120983522D01*
X220707531Y-121362324D01*
X221029676Y-121684469D01*
X221325909Y-121882406D01*
X221095907Y-122112408D01*
X220897518Y-122409317D01*
X220760865Y-122739226D01*
X220691200Y-123089455D01*
X220691200Y-123446545D01*
X220760865Y-123796774D01*
X220897518Y-124126683D01*
X221095907Y-124423592D01*
X221348408Y-124676093D01*
X221645317Y-124874482D01*
X221654563Y-124878312D01*
X221577276Y-124919623D01*
X221488079Y-125208395D01*
X222504000Y-126224316D01*
X223390316Y-125338000D01*
X224699359Y-125338000D01*
X224702800Y-125958600D01*
X224880600Y-126136400D01*
X226212400Y-126136400D01*
X226212400Y-124804600D01*
X226415600Y-124804600D01*
X226415600Y-126136400D01*
X226435600Y-126136400D01*
X226435600Y-126339600D01*
X226415600Y-126339600D01*
X226415600Y-127671400D01*
X226593400Y-127849200D01*
X227214000Y-127852641D01*
X227353420Y-127838909D01*
X227487481Y-127798242D01*
X227611033Y-127732202D01*
X227719327Y-127643327D01*
X227774198Y-127576467D01*
X228042685Y-127755864D01*
X228354395Y-127884979D01*
X228685304Y-127950800D01*
X229022696Y-127950800D01*
X229353605Y-127884979D01*
X229665315Y-127755864D01*
X229945847Y-127568419D01*
X230184419Y-127329847D01*
X230371864Y-127049315D01*
X230500979Y-126737605D01*
X230566800Y-126406696D01*
X230566800Y-126402133D01*
X230944858Y-126402133D01*
X230984550Y-126736866D01*
X231088782Y-127057423D01*
X231215623Y-127294724D01*
X231504395Y-127383921D01*
X232520316Y-126368000D01*
X232807684Y-126368000D01*
X233823605Y-127383921D01*
X234112377Y-127294724D01*
X234265342Y-126994352D01*
X234356768Y-126669911D01*
X234383142Y-126333867D01*
X234343450Y-125999134D01*
X234239218Y-125678577D01*
X234112377Y-125441276D01*
X233823605Y-125352079D01*
X232807684Y-126368000D01*
X232520316Y-126368000D01*
X231504395Y-125352079D01*
X231215623Y-125441276D01*
X231062658Y-125741648D01*
X230971232Y-126066089D01*
X230944858Y-126402133D01*
X230566800Y-126402133D01*
X230566800Y-126069304D01*
X230500979Y-125738395D01*
X230371864Y-125426685D01*
X230184419Y-125146153D01*
X229945847Y-124907581D01*
X229665315Y-124720136D01*
X229353605Y-124591021D01*
X229022696Y-124525200D01*
X228685304Y-124525200D01*
X228354395Y-124591021D01*
X228042685Y-124720136D01*
X227774198Y-124899533D01*
X227719327Y-124832673D01*
X227611033Y-124743798D01*
X227487481Y-124677758D01*
X227353420Y-124637091D01*
X227214000Y-124623359D01*
X226593400Y-124626800D01*
X226415600Y-124804600D01*
X226212400Y-124804600D01*
X226034600Y-124626800D01*
X225414000Y-124623359D01*
X225274580Y-124637091D01*
X225140519Y-124677758D01*
X225016967Y-124743798D01*
X224908673Y-124832673D01*
X224819798Y-124940967D01*
X224753758Y-125064519D01*
X224713091Y-125198580D01*
X224699359Y-125338000D01*
X223390316Y-125338000D01*
X223519921Y-125208395D01*
X223430724Y-124919623D01*
X223351323Y-124879188D01*
X223362683Y-124874482D01*
X223659592Y-124676093D01*
X223912093Y-124423592D01*
X224110482Y-124126683D01*
X224247135Y-123796774D01*
X224316800Y-123446545D01*
X224316800Y-123089455D01*
X224247135Y-122739226D01*
X224110482Y-122409317D01*
X223912093Y-122112408D01*
X223682091Y-121882406D01*
X223978324Y-121684469D01*
X224300469Y-121362324D01*
X224553577Y-120983522D01*
X224727921Y-120562619D01*
X224816800Y-120115791D01*
X224816800Y-120024421D01*
X226644200Y-120024421D01*
X226644200Y-120083357D01*
X226644201Y-122183416D01*
X226644200Y-122183421D01*
X226644200Y-122418579D01*
X226655700Y-122476394D01*
X226661475Y-122535026D01*
X226678577Y-122591404D01*
X226690077Y-122649219D01*
X226712634Y-122703676D01*
X226729737Y-122760058D01*
X226757512Y-122812022D01*
X226780068Y-122866476D01*
X226812814Y-122915484D01*
X226840590Y-122967449D01*
X226877969Y-123012995D01*
X226910715Y-123062003D01*
X226952395Y-123103683D01*
X226989773Y-123149228D01*
X227035318Y-123186606D01*
X227076997Y-123228285D01*
X227126004Y-123261030D01*
X227171552Y-123298411D01*
X227223520Y-123326188D01*
X227272524Y-123358932D01*
X227326974Y-123381486D01*
X227378943Y-123409264D01*
X227435330Y-123426369D01*
X227489781Y-123448923D01*
X227547589Y-123460422D01*
X227603975Y-123477526D01*
X227662615Y-123483302D01*
X227720421Y-123494800D01*
X227779357Y-123494800D01*
X227838000Y-123500576D01*
X227896644Y-123494800D01*
X227955579Y-123494800D01*
X228013385Y-123483302D01*
X228072026Y-123477526D01*
X228128414Y-123460421D01*
X228186219Y-123448923D01*
X228240667Y-123426370D01*
X228297058Y-123409264D01*
X228349030Y-123381484D01*
X228403476Y-123358932D01*
X228452476Y-123326191D01*
X228504449Y-123298411D01*
X228550002Y-123261027D01*
X228599003Y-123228285D01*
X228640677Y-123186611D01*
X228686228Y-123149228D01*
X228723611Y-123103677D01*
X228765285Y-123062003D01*
X228798027Y-123013002D01*
X228835411Y-122967449D01*
X228863191Y-122915476D01*
X228895932Y-122866476D01*
X228918484Y-122812030D01*
X228946264Y-122760058D01*
X228963370Y-122703667D01*
X228985923Y-122649219D01*
X228997421Y-122591414D01*
X229014526Y-122535026D01*
X229020302Y-122476384D01*
X229031800Y-122418579D01*
X229031800Y-120024421D01*
X229020302Y-119966616D01*
X229014526Y-119907974D01*
X228997421Y-119851586D01*
X228985923Y-119793781D01*
X228963370Y-119739333D01*
X228946264Y-119682942D01*
X228934113Y-119660209D01*
X230351200Y-119660209D01*
X230351200Y-120115791D01*
X230440079Y-120562619D01*
X230614423Y-120983522D01*
X230867531Y-121362324D01*
X231189676Y-121684469D01*
X231485909Y-121882406D01*
X231255907Y-122112408D01*
X231057518Y-122409317D01*
X230920865Y-122739226D01*
X230851200Y-123089455D01*
X230851200Y-123446545D01*
X230920865Y-123796774D01*
X231057518Y-124126683D01*
X231255907Y-124423592D01*
X231508408Y-124676093D01*
X231805317Y-124874482D01*
X231814563Y-124878312D01*
X231737276Y-124919623D01*
X231648079Y-125208395D01*
X232664000Y-126224316D01*
X233679921Y-125208395D01*
X233590724Y-124919623D01*
X233511323Y-124879188D01*
X233522683Y-124874482D01*
X233819592Y-124676093D01*
X234072093Y-124423592D01*
X234270482Y-124126683D01*
X234407135Y-123796774D01*
X234476800Y-123446545D01*
X234476800Y-123089455D01*
X234407135Y-122739226D01*
X234270482Y-122409317D01*
X234072093Y-122112408D01*
X233842091Y-121882406D01*
X234138324Y-121684469D01*
X234460469Y-121362324D01*
X234713577Y-120983522D01*
X234887921Y-120562619D01*
X234976800Y-120115791D01*
X234976800Y-119660209D01*
X234887921Y-119213381D01*
X234713577Y-118792478D01*
X234460469Y-118413676D01*
X234138324Y-118091531D01*
X233759522Y-117838423D01*
X233338619Y-117664079D01*
X232891791Y-117575200D01*
X232436209Y-117575200D01*
X231989381Y-117664079D01*
X231568478Y-117838423D01*
X231189676Y-118091531D01*
X230867531Y-118413676D01*
X230614423Y-118792478D01*
X230440079Y-119213381D01*
X230351200Y-119660209D01*
X228934113Y-119660209D01*
X228918484Y-119630970D01*
X228895932Y-119576524D01*
X228863191Y-119527524D01*
X228835411Y-119475551D01*
X228798027Y-119429998D01*
X228765285Y-119380997D01*
X228723611Y-119339323D01*
X228686228Y-119293772D01*
X228640678Y-119256390D01*
X228599003Y-119214715D01*
X228549998Y-119181971D01*
X228504448Y-119144589D01*
X228452480Y-119116812D01*
X228403476Y-119084068D01*
X228349026Y-119061514D01*
X228297057Y-119033736D01*
X228240670Y-119016631D01*
X228186219Y-118994077D01*
X228128411Y-118982578D01*
X228072025Y-118965474D01*
X228013385Y-118959698D01*
X227955579Y-118948200D01*
X227896643Y-118948200D01*
X227838000Y-118942424D01*
X227779356Y-118948200D01*
X227720421Y-118948200D01*
X227662615Y-118959698D01*
X227603974Y-118965474D01*
X227547586Y-118982579D01*
X227489781Y-118994077D01*
X227435333Y-119016630D01*
X227378942Y-119033736D01*
X227326970Y-119061516D01*
X227272524Y-119084068D01*
X227223524Y-119116809D01*
X227171551Y-119144589D01*
X227125998Y-119181973D01*
X227076997Y-119214715D01*
X227035323Y-119256389D01*
X226989772Y-119293772D01*
X226952390Y-119339322D01*
X226910715Y-119380997D01*
X226877971Y-119430002D01*
X226840589Y-119475552D01*
X226812812Y-119527520D01*
X226780068Y-119576524D01*
X226757514Y-119630974D01*
X226729736Y-119682943D01*
X226712631Y-119739330D01*
X226690077Y-119793781D01*
X226678578Y-119851589D01*
X226661474Y-119907975D01*
X226655698Y-119966615D01*
X226644200Y-120024421D01*
X224816800Y-120024421D01*
X224816800Y-119660209D01*
X224727921Y-119213381D01*
X224553577Y-118792478D01*
X224300469Y-118413676D01*
X223978324Y-118091531D01*
X223599522Y-117838423D01*
X223178619Y-117664079D01*
X222731791Y-117575200D01*
X222276209Y-117575200D01*
X221829381Y-117664079D01*
X221408478Y-117838423D01*
X221029676Y-118091531D01*
X220707531Y-118413676D01*
X220454423Y-118792478D01*
X220280079Y-119213381D01*
X220191200Y-119660209D01*
X218819800Y-119660209D01*
X218819800Y-114789455D01*
X220691200Y-114789455D01*
X220691200Y-115146545D01*
X220760865Y-115496774D01*
X220897518Y-115826683D01*
X221095907Y-116123592D01*
X221348408Y-116376093D01*
X221645317Y-116574482D01*
X221975226Y-116711135D01*
X222325455Y-116780800D01*
X222682545Y-116780800D01*
X223032774Y-116711135D01*
X223362683Y-116574482D01*
X223659592Y-116376093D01*
X223912093Y-116123592D01*
X224110482Y-115826683D01*
X224247135Y-115496774D01*
X224316800Y-115146545D01*
X224316800Y-114789455D01*
X224247135Y-114439226D01*
X224110482Y-114109317D01*
X223912093Y-113812408D01*
X223659592Y-113559907D01*
X223379568Y-113372800D01*
X223424847Y-113372800D01*
X223736437Y-113310821D01*
X224029947Y-113189245D01*
X224294100Y-113012744D01*
X224518744Y-112788100D01*
X224526065Y-112777143D01*
X224932541Y-112777143D01*
X224997637Y-113045468D01*
X225263952Y-113178472D01*
X225551097Y-113256964D01*
X225848038Y-113277930D01*
X226143364Y-113240562D01*
X226425725Y-113146297D01*
X226614363Y-113045468D01*
X226679459Y-112777143D01*
X225806000Y-111903684D01*
X224932541Y-112777143D01*
X224526065Y-112777143D01*
X224645336Y-112598641D01*
X224788857Y-112633459D01*
X225662316Y-111760000D01*
X225949684Y-111760000D01*
X226823143Y-112633459D01*
X227091468Y-112568363D01*
X227224472Y-112302048D01*
X227302964Y-112014903D01*
X227323930Y-111717962D01*
X227286562Y-111422636D01*
X227192297Y-111140275D01*
X227091468Y-110951637D01*
X226823143Y-110886541D01*
X225949684Y-111760000D01*
X225662316Y-111760000D01*
X224788857Y-110886541D01*
X224645336Y-110921359D01*
X224518744Y-110731900D01*
X224294100Y-110507256D01*
X224029947Y-110330755D01*
X223736437Y-110209179D01*
X223424847Y-110147200D01*
X223107153Y-110147200D01*
X222795563Y-110209179D01*
X222502053Y-110330755D01*
X222237900Y-110507256D01*
X222013256Y-110731900D01*
X221836755Y-110996053D01*
X221715179Y-111289563D01*
X221653200Y-111601153D01*
X221653200Y-111918847D01*
X221715179Y-112230437D01*
X221836755Y-112523947D01*
X222013256Y-112788100D01*
X222237900Y-113012744D01*
X222451101Y-113155200D01*
X222325455Y-113155200D01*
X221975226Y-113224865D01*
X221645317Y-113361518D01*
X221348408Y-113559907D01*
X221095907Y-113812408D01*
X220897518Y-114109317D01*
X220760865Y-114439226D01*
X220691200Y-114789455D01*
X218819800Y-114789455D01*
X218819800Y-109323207D01*
X218906068Y-109531476D01*
X219036715Y-109727003D01*
X219202997Y-109893285D01*
X219398524Y-110023932D01*
X219615781Y-110113923D01*
X219846421Y-110159800D01*
X220081579Y-110159800D01*
X220312219Y-110113923D01*
X220529476Y-110023932D01*
X220725003Y-109893285D01*
X220891285Y-109727003D01*
X221021932Y-109531476D01*
X221111923Y-109314219D01*
X221157800Y-109083579D01*
X221157800Y-108848421D01*
X221111923Y-108617781D01*
X221025249Y-108408530D01*
X223221200Y-108408530D01*
X223221200Y-108775470D01*
X223292787Y-109135359D01*
X223433208Y-109474367D01*
X223637069Y-109779466D01*
X223896534Y-110038931D01*
X224201633Y-110242792D01*
X224540641Y-110383213D01*
X224900530Y-110454800D01*
X225034553Y-110454800D01*
X224997637Y-110474532D01*
X224932541Y-110742857D01*
X225806000Y-111616316D01*
X226679459Y-110742857D01*
X226614363Y-110474532D01*
X226348048Y-110341528D01*
X226060903Y-110263036D01*
X225938379Y-110254385D01*
X225966367Y-110242792D01*
X226271466Y-110038931D01*
X226334000Y-109976397D01*
X226396534Y-110038931D01*
X226701633Y-110242792D01*
X227040641Y-110383213D01*
X227400530Y-110454800D01*
X227767470Y-110454800D01*
X228127359Y-110383213D01*
X228466367Y-110242792D01*
X228771466Y-110038931D01*
X228834000Y-109976397D01*
X228896534Y-110038931D01*
X229091737Y-110169362D01*
X228891563Y-110209179D01*
X228598053Y-110330755D01*
X228333900Y-110507256D01*
X228109256Y-110731900D01*
X227932755Y-110996053D01*
X227811179Y-111289563D01*
X227749200Y-111601153D01*
X227749200Y-111918847D01*
X227811179Y-112230437D01*
X227932755Y-112523947D01*
X228109256Y-112788100D01*
X228333900Y-113012744D01*
X228598053Y-113189245D01*
X228891563Y-113310821D01*
X229203153Y-113372800D01*
X229520847Y-113372800D01*
X229832437Y-113310821D01*
X230125947Y-113189245D01*
X230390100Y-113012744D01*
X230614744Y-112788100D01*
X230632000Y-112762275D01*
X230649256Y-112788100D01*
X230873900Y-113012744D01*
X231138053Y-113189245D01*
X231431563Y-113310821D01*
X231743153Y-113372800D01*
X231788432Y-113372800D01*
X231508408Y-113559907D01*
X231255907Y-113812408D01*
X231057518Y-114109317D01*
X230920865Y-114439226D01*
X230851200Y-114789455D01*
X230851200Y-115146545D01*
X230920865Y-115496774D01*
X231057518Y-115826683D01*
X231255907Y-116123592D01*
X231508408Y-116376093D01*
X231805317Y-116574482D01*
X232135226Y-116711135D01*
X232485455Y-116780800D01*
X232842545Y-116780800D01*
X233192774Y-116711135D01*
X233522683Y-116574482D01*
X233819592Y-116376093D01*
X234072093Y-116123592D01*
X234270482Y-115826683D01*
X234407135Y-115496774D01*
X234476800Y-115146545D01*
X234476800Y-114789455D01*
X234407135Y-114439226D01*
X234270482Y-114109317D01*
X234072093Y-113812408D01*
X233819592Y-113559907D01*
X233522683Y-113361518D01*
X233192774Y-113224865D01*
X232842545Y-113155200D01*
X232716899Y-113155200D01*
X232930100Y-113012744D01*
X233154744Y-112788100D01*
X233331245Y-112523947D01*
X233452821Y-112230437D01*
X233514800Y-111918847D01*
X233514800Y-111601153D01*
X233452821Y-111289563D01*
X233331245Y-110996053D01*
X233154744Y-110731900D01*
X232930100Y-110507256D01*
X232665947Y-110330755D01*
X232372437Y-110209179D01*
X232060847Y-110147200D01*
X231743153Y-110147200D01*
X231431563Y-110209179D01*
X231138053Y-110330755D01*
X230873900Y-110507256D01*
X230649256Y-110731900D01*
X230632000Y-110757725D01*
X230614744Y-110731900D01*
X230390100Y-110507256D01*
X230301472Y-110448037D01*
X230627359Y-110383213D01*
X230966367Y-110242792D01*
X231271466Y-110038931D01*
X231530931Y-109779466D01*
X231734792Y-109474367D01*
X231875213Y-109135359D01*
X231946800Y-108775470D01*
X231946800Y-108408530D01*
X231875213Y-108048641D01*
X231734792Y-107709633D01*
X231530931Y-107404534D01*
X231271466Y-107145069D01*
X230966367Y-106941208D01*
X230627359Y-106800787D01*
X230267470Y-106729200D01*
X229900530Y-106729200D01*
X229540641Y-106800787D01*
X229201633Y-106941208D01*
X228896534Y-107145069D01*
X228834000Y-107207603D01*
X228771466Y-107145069D01*
X228466367Y-106941208D01*
X228127359Y-106800787D01*
X227767470Y-106729200D01*
X227400530Y-106729200D01*
X227040641Y-106800787D01*
X226701633Y-106941208D01*
X226396534Y-107145069D01*
X226334000Y-107207603D01*
X226271466Y-107145069D01*
X225966367Y-106941208D01*
X225627359Y-106800787D01*
X225267470Y-106729200D01*
X224900530Y-106729200D01*
X224540641Y-106800787D01*
X224201633Y-106941208D01*
X223896534Y-107145069D01*
X223637069Y-107404534D01*
X223433208Y-107709633D01*
X223292787Y-108048641D01*
X223221200Y-108408530D01*
X221025249Y-108408530D01*
X221021932Y-108400524D01*
X220901808Y-108220746D01*
X221128581Y-107993973D01*
X221310555Y-107721631D01*
X221435900Y-107419021D01*
X221499800Y-107097772D01*
X221499800Y-106770228D01*
X221435900Y-106448979D01*
X221310555Y-106146369D01*
X221128581Y-105874027D01*
X220918554Y-105664000D01*
X221128581Y-105453973D01*
X221310555Y-105181631D01*
X221435900Y-104879021D01*
X221499800Y-104557772D01*
X221499800Y-104230228D01*
X221435900Y-103908979D01*
X221310555Y-103606369D01*
X221128581Y-103334027D01*
X220918554Y-103124000D01*
X221128581Y-102913973D01*
X221200243Y-102806723D01*
X221518447Y-103003924D01*
X221878813Y-103138930D01*
X221977263Y-103160560D01*
X222282400Y-103022504D01*
X222282400Y-101193600D01*
X222485600Y-101193600D01*
X222485600Y-103022504D01*
X222790737Y-103160560D01*
X222889187Y-103138930D01*
X223249553Y-103003924D01*
X223576656Y-102801208D01*
X223857926Y-102538573D01*
X224082554Y-102226111D01*
X224241907Y-101875830D01*
X224329862Y-101501191D01*
X224168652Y-101193600D01*
X222485600Y-101193600D01*
X222282400Y-101193600D01*
X222262400Y-101193600D01*
X222262400Y-100990400D01*
X222282400Y-100990400D01*
X222282400Y-99161496D01*
X221977263Y-99023440D01*
X221878813Y-99045070D01*
X221518447Y-99180076D01*
X221499800Y-99191632D01*
X221499800Y-99150228D01*
X221435900Y-98828979D01*
X221310555Y-98526369D01*
X221128581Y-98254027D01*
X220918554Y-98044000D01*
X221128581Y-97833973D01*
X221216648Y-97702172D01*
X222616670Y-99102195D01*
X222485600Y-99161496D01*
X222485600Y-100990400D01*
X224168652Y-100990400D01*
X224329862Y-100682809D01*
X224268915Y-100423210D01*
X224354101Y-100431600D01*
X224354104Y-100431600D01*
X224409000Y-100437007D01*
X224463896Y-100431600D01*
X225323401Y-100431600D01*
X225323400Y-104099575D01*
X225293077Y-104172781D01*
X225247200Y-104403421D01*
X225247200Y-104638579D01*
X225293077Y-104869219D01*
X225383068Y-105086476D01*
X225513715Y-105282003D01*
X225679997Y-105448285D01*
X225875524Y-105578932D01*
X226092781Y-105668923D01*
X226323421Y-105714800D01*
X226558579Y-105714800D01*
X226789219Y-105668923D01*
X227006476Y-105578932D01*
X227202003Y-105448285D01*
X227368285Y-105282003D01*
X227498932Y-105086476D01*
X227561324Y-104935849D01*
X227638745Y-105013271D01*
X227669068Y-105086476D01*
X227799715Y-105282003D01*
X227965997Y-105448285D01*
X228161524Y-105578932D01*
X228378781Y-105668923D01*
X228609421Y-105714800D01*
X228844579Y-105714800D01*
X229075219Y-105668923D01*
X229292476Y-105578932D01*
X229488003Y-105448285D01*
X229654285Y-105282003D01*
X229784932Y-105086476D01*
X229874923Y-104869219D01*
X229920800Y-104638579D01*
X229920800Y-104403421D01*
X229874923Y-104172781D01*
X229784932Y-103955524D01*
X229654285Y-103759997D01*
X229488003Y-103593715D01*
X229292476Y-103463068D01*
X229219271Y-103432745D01*
X228828600Y-103042075D01*
X228828600Y-101501191D01*
X230838138Y-101501191D01*
X230926093Y-101875830D01*
X231085446Y-102226111D01*
X231310074Y-102538573D01*
X231591344Y-102801208D01*
X231918447Y-103003924D01*
X232278813Y-103138930D01*
X232377263Y-103160560D01*
X232682400Y-103022504D01*
X232682400Y-101193600D01*
X230999348Y-101193600D01*
X230838138Y-101501191D01*
X228828600Y-101501191D01*
X228828600Y-100792924D01*
X228938715Y-100682809D01*
X230838138Y-100682809D01*
X230999348Y-100990400D01*
X232682400Y-100990400D01*
X232682400Y-99161496D01*
X232377263Y-99023440D01*
X232278813Y-99045070D01*
X231918447Y-99180076D01*
X231591344Y-99382792D01*
X231310074Y-99645427D01*
X231085446Y-99957889D01*
X230926093Y-100308170D01*
X230838138Y-100682809D01*
X228938715Y-100682809D01*
X230113443Y-99508082D01*
X230156086Y-99473086D01*
X230241590Y-99368899D01*
X230295746Y-99302910D01*
X230399523Y-99108756D01*
X230418842Y-99045070D01*
X230463429Y-98898088D01*
X230479600Y-98733899D01*
X230479600Y-98733896D01*
X230485007Y-98679000D01*
X230479600Y-98624104D01*
X230479600Y-97291327D01*
X230509923Y-97218121D01*
X230555800Y-96987481D01*
X230555800Y-96752323D01*
X230509923Y-96521683D01*
X230419932Y-96304426D01*
X230289285Y-96108899D01*
X230123003Y-95942617D01*
X229927476Y-95811970D01*
X229710219Y-95721979D01*
X229479579Y-95676102D01*
X229244421Y-95676102D01*
X229013781Y-95721979D01*
X228940575Y-95752302D01*
X227796986Y-95752302D01*
X227742097Y-95746896D01*
X227687208Y-95752302D01*
X227687199Y-95752302D01*
X227523010Y-95768473D01*
X227312342Y-95832379D01*
X227221965Y-95880687D01*
X227118188Y-95936156D01*
X227057004Y-95986369D01*
X226948012Y-96075816D01*
X226913016Y-96118460D01*
X225978076Y-97053400D01*
X225506925Y-97053400D01*
X224002600Y-95549076D01*
X224002600Y-93399896D01*
X224008007Y-93345000D01*
X223997493Y-93238250D01*
X223986429Y-93125912D01*
X223922523Y-92915244D01*
X223818746Y-92721090D01*
X223714082Y-92593557D01*
X223679086Y-92550914D01*
X223639420Y-92518361D01*
X225192201Y-92518361D01*
X225192201Y-92993641D01*
X225284923Y-93459789D01*
X225466805Y-93898891D01*
X225730856Y-94294072D01*
X226066930Y-94630146D01*
X226462111Y-94894197D01*
X226901213Y-95076079D01*
X227367361Y-95168801D01*
X227842641Y-95168801D01*
X228308789Y-95076079D01*
X228747891Y-94894197D01*
X229143072Y-94630146D01*
X229195161Y-94578057D01*
X233808183Y-94578057D01*
X233873674Y-94793960D01*
X234010919Y-95067511D01*
X234198894Y-95309030D01*
X234424320Y-95504000D01*
X234198894Y-95698970D01*
X234010919Y-95940489D01*
X233873674Y-96214040D01*
X233808183Y-96429943D01*
X233951336Y-96672400D01*
X235229400Y-96672400D01*
X235229400Y-94335600D01*
X233951336Y-94335600D01*
X233808183Y-94578057D01*
X229195161Y-94578057D01*
X229479146Y-94294072D01*
X229743197Y-93898891D01*
X229925079Y-93459789D01*
X230017801Y-92993641D01*
X230017801Y-92518361D01*
X229925079Y-92052213D01*
X229743197Y-91613111D01*
X229479146Y-91217930D01*
X229143072Y-90881856D01*
X228747891Y-90617805D01*
X228308789Y-90435923D01*
X227842641Y-90343201D01*
X227367361Y-90343201D01*
X226901213Y-90435923D01*
X226462111Y-90617805D01*
X226066930Y-90881856D01*
X225730856Y-91217930D01*
X225466805Y-91613111D01*
X225284923Y-92052213D01*
X225192201Y-92518361D01*
X223639420Y-92518361D01*
X223636443Y-92515918D01*
X222063087Y-90942563D01*
X222028086Y-90899914D01*
X221857909Y-90760254D01*
X221663756Y-90656477D01*
X221460814Y-90594915D01*
X221441562Y-90531450D01*
X221366088Y-90390248D01*
X221264517Y-90266483D01*
X221140752Y-90164912D01*
X220999550Y-90089438D01*
X220846337Y-90042961D01*
X220687000Y-90027268D01*
X218987000Y-90027268D01*
X218827663Y-90042961D01*
X218819800Y-90045346D01*
X218819800Y-88088530D01*
X223221200Y-88088530D01*
X223221200Y-88455470D01*
X223292787Y-88815359D01*
X223433208Y-89154367D01*
X223637069Y-89459466D01*
X223896534Y-89718931D01*
X224201633Y-89922792D01*
X224540641Y-90063213D01*
X224900530Y-90134800D01*
X225267470Y-90134800D01*
X225627359Y-90063213D01*
X225966367Y-89922792D01*
X226271466Y-89718931D01*
X226334000Y-89656397D01*
X226396534Y-89718931D01*
X226701633Y-89922792D01*
X227040641Y-90063213D01*
X227400530Y-90134800D01*
X227767470Y-90134800D01*
X228127359Y-90063213D01*
X228466367Y-89922792D01*
X228771466Y-89718931D01*
X228834000Y-89656397D01*
X228896534Y-89718931D01*
X229201633Y-89922792D01*
X229540641Y-90063213D01*
X229900530Y-90134800D01*
X230267470Y-90134800D01*
X230627359Y-90063213D01*
X230966367Y-89922792D01*
X231271466Y-89718931D01*
X231530931Y-89459466D01*
X231734792Y-89154367D01*
X231875213Y-88815359D01*
X231946800Y-88455470D01*
X231946800Y-88088530D01*
X231875213Y-87728641D01*
X231734792Y-87389633D01*
X231530931Y-87084534D01*
X231271466Y-86825069D01*
X230966367Y-86621208D01*
X230627359Y-86480787D01*
X230267470Y-86409200D01*
X229900530Y-86409200D01*
X229540641Y-86480787D01*
X229201633Y-86621208D01*
X228896534Y-86825069D01*
X228834000Y-86887603D01*
X228771466Y-86825069D01*
X228466367Y-86621208D01*
X228127359Y-86480787D01*
X227767470Y-86409200D01*
X227400530Y-86409200D01*
X227040641Y-86480787D01*
X226701633Y-86621208D01*
X226396534Y-86825069D01*
X226334000Y-86887603D01*
X226271466Y-86825069D01*
X225966367Y-86621208D01*
X225627359Y-86480787D01*
X225267470Y-86409200D01*
X224900530Y-86409200D01*
X224540641Y-86480787D01*
X224201633Y-86621208D01*
X223896534Y-86825069D01*
X223637069Y-87084534D01*
X223433208Y-87389633D01*
X223292787Y-87728641D01*
X223221200Y-88088530D01*
X218819800Y-88088530D01*
X218819800Y-81181191D01*
X220438138Y-81181191D01*
X220526093Y-81555830D01*
X220685446Y-81906111D01*
X220910074Y-82218573D01*
X221191344Y-82481208D01*
X221518447Y-82683924D01*
X221878813Y-82818930D01*
X221977263Y-82840560D01*
X222282400Y-82702504D01*
X222282400Y-80873600D01*
X222485600Y-80873600D01*
X222485600Y-82702504D01*
X222790737Y-82840560D01*
X222889187Y-82818930D01*
X223249553Y-82683924D01*
X223576656Y-82481208D01*
X223857926Y-82218573D01*
X224082554Y-81906111D01*
X224241907Y-81555830D01*
X224329862Y-81181191D01*
X230838138Y-81181191D01*
X230926093Y-81555830D01*
X231085446Y-81906111D01*
X231310074Y-82218573D01*
X231591344Y-82481208D01*
X231918447Y-82683924D01*
X232278813Y-82818930D01*
X232377263Y-82840560D01*
X232682400Y-82702504D01*
X232682400Y-80873600D01*
X232885600Y-80873600D01*
X232885600Y-82702504D01*
X233190737Y-82840560D01*
X233289187Y-82818930D01*
X233649553Y-82683924D01*
X233976656Y-82481208D01*
X234257926Y-82218573D01*
X234482554Y-81906111D01*
X234641907Y-81555830D01*
X234729862Y-81181191D01*
X234568652Y-80873600D01*
X232885600Y-80873600D01*
X232682400Y-80873600D01*
X230999348Y-80873600D01*
X230838138Y-81181191D01*
X224329862Y-81181191D01*
X224168652Y-80873600D01*
X222485600Y-80873600D01*
X222282400Y-80873600D01*
X220599348Y-80873600D01*
X220438138Y-81181191D01*
X218819800Y-81181191D01*
X218819800Y-80362809D01*
X220438138Y-80362809D01*
X220599348Y-80670400D01*
X222282400Y-80670400D01*
X222282400Y-78841496D01*
X222485600Y-78841496D01*
X222485600Y-80670400D01*
X224168652Y-80670400D01*
X224329862Y-80362809D01*
X230838138Y-80362809D01*
X230999348Y-80670400D01*
X232682400Y-80670400D01*
X232682400Y-78841496D01*
X232885600Y-78841496D01*
X232885600Y-80670400D01*
X234568652Y-80670400D01*
X234729862Y-80362809D01*
X234641907Y-79988170D01*
X234482554Y-79637889D01*
X234257926Y-79325427D01*
X233976656Y-79062792D01*
X233649553Y-78860076D01*
X233289187Y-78725070D01*
X233190737Y-78703440D01*
X232885600Y-78841496D01*
X232682400Y-78841496D01*
X232377263Y-78703440D01*
X232278813Y-78725070D01*
X231918447Y-78860076D01*
X231591344Y-79062792D01*
X231310074Y-79325427D01*
X231085446Y-79637889D01*
X230926093Y-79988170D01*
X230838138Y-80362809D01*
X224329862Y-80362809D01*
X224241907Y-79988170D01*
X224082554Y-79637889D01*
X223857926Y-79325427D01*
X223576656Y-79062792D01*
X223249553Y-78860076D01*
X222889187Y-78725070D01*
X222790737Y-78703440D01*
X222485600Y-78841496D01*
X222282400Y-78841496D01*
X221977263Y-78703440D01*
X221878813Y-78725070D01*
X221518447Y-78860076D01*
X221191344Y-79062792D01*
X220910074Y-79325427D01*
X220685446Y-79637889D01*
X220526093Y-79988170D01*
X220438138Y-80362809D01*
X218819800Y-80362809D01*
X218819800Y-74978409D01*
X218965256Y-75196100D01*
X219189900Y-75420744D01*
X219454053Y-75597245D01*
X219747563Y-75718821D01*
X220059153Y-75780800D01*
X220376847Y-75780800D01*
X220688437Y-75718821D01*
X220859923Y-75647789D01*
X220814715Y-75692997D01*
X220684068Y-75888524D01*
X220594077Y-76105781D01*
X220548200Y-76336421D01*
X220548200Y-76571579D01*
X220594077Y-76802219D01*
X220684068Y-77019476D01*
X220814715Y-77215003D01*
X220980997Y-77381285D01*
X221176524Y-77511932D01*
X221393781Y-77601923D01*
X221624421Y-77647800D01*
X221859579Y-77647800D01*
X222090219Y-77601923D01*
X222163425Y-77571600D01*
X224241575Y-77571600D01*
X224314781Y-77601923D01*
X224545421Y-77647800D01*
X224780579Y-77647800D01*
X225011219Y-77601923D01*
X225228476Y-77511932D01*
X225424003Y-77381285D01*
X225590285Y-77215003D01*
X225720932Y-77019476D01*
X225810923Y-76802219D01*
X225856800Y-76571579D01*
X225856800Y-76336421D01*
X225810923Y-76105781D01*
X225720932Y-75888524D01*
X225590285Y-75692997D01*
X225424003Y-75526715D01*
X225228476Y-75396068D01*
X225011219Y-75306077D01*
X224780579Y-75260200D01*
X224545421Y-75260200D01*
X224314781Y-75306077D01*
X224241575Y-75336400D01*
X223870444Y-75336400D01*
X224010744Y-75196100D01*
X224187245Y-74931947D01*
X224308821Y-74638437D01*
X224370800Y-74326847D01*
X224370800Y-74009153D01*
X225463200Y-74009153D01*
X225463200Y-74326847D01*
X225525179Y-74638437D01*
X225646755Y-74931947D01*
X225823256Y-75196100D01*
X226047900Y-75420744D01*
X226312053Y-75597245D01*
X226605563Y-75718821D01*
X226917153Y-75780800D01*
X227234847Y-75780800D01*
X227546437Y-75718821D01*
X227839947Y-75597245D01*
X228104100Y-75420744D01*
X228328744Y-75196100D01*
X228346000Y-75170275D01*
X228363256Y-75196100D01*
X228587900Y-75420744D01*
X228852053Y-75597245D01*
X229145563Y-75718821D01*
X229457153Y-75780800D01*
X229774847Y-75780800D01*
X230086437Y-75718821D01*
X230379947Y-75597245D01*
X230644100Y-75420744D01*
X230868744Y-75196100D01*
X231045245Y-74931947D01*
X231166821Y-74638437D01*
X231228800Y-74326847D01*
X231228800Y-74009153D01*
X231166821Y-73697563D01*
X231045245Y-73404053D01*
X230868744Y-73139900D01*
X230644100Y-72915256D01*
X230379947Y-72738755D01*
X230086437Y-72617179D01*
X229774847Y-72555200D01*
X229457153Y-72555200D01*
X229145563Y-72617179D01*
X228852053Y-72738755D01*
X228587900Y-72915256D01*
X228363256Y-73139900D01*
X228346000Y-73165725D01*
X228328744Y-73139900D01*
X228104100Y-72915256D01*
X227839947Y-72738755D01*
X227546437Y-72617179D01*
X227234847Y-72555200D01*
X226917153Y-72555200D01*
X226605563Y-72617179D01*
X226312053Y-72738755D01*
X226047900Y-72915256D01*
X225823256Y-73139900D01*
X225646755Y-73404053D01*
X225525179Y-73697563D01*
X225463200Y-74009153D01*
X224370800Y-74009153D01*
X224308821Y-73697563D01*
X224187245Y-73404053D01*
X224010744Y-73139900D01*
X223786100Y-72915256D01*
X223521947Y-72738755D01*
X223228437Y-72617179D01*
X222916847Y-72555200D01*
X222599153Y-72555200D01*
X222287563Y-72617179D01*
X221994053Y-72738755D01*
X221729900Y-72915256D01*
X221505256Y-73139900D01*
X221488000Y-73165725D01*
X221470744Y-73139900D01*
X221246100Y-72915256D01*
X220981947Y-72738755D01*
X220688437Y-72617179D01*
X220376847Y-72555200D01*
X220059153Y-72555200D01*
X219747563Y-72617179D01*
X219454053Y-72738755D01*
X219189900Y-72915256D01*
X218965256Y-73139900D01*
X218819800Y-73357591D01*
X218819800Y-72272421D01*
X231343200Y-72272421D01*
X231343200Y-72507579D01*
X231389077Y-72738219D01*
X231419401Y-72811427D01*
X231419400Y-75524575D01*
X231389077Y-75597781D01*
X231343200Y-75828421D01*
X231343200Y-76063579D01*
X231389077Y-76294219D01*
X231479068Y-76511476D01*
X231609715Y-76707003D01*
X231775997Y-76873285D01*
X231971524Y-77003932D01*
X232188781Y-77093923D01*
X232419421Y-77139800D01*
X232654579Y-77139800D01*
X232885219Y-77093923D01*
X233102476Y-77003932D01*
X233298003Y-76873285D01*
X233464285Y-76707003D01*
X233594932Y-76511476D01*
X233684923Y-76294219D01*
X233730800Y-76063579D01*
X233730800Y-75828421D01*
X233684923Y-75597781D01*
X233654600Y-75524575D01*
X233654600Y-72811425D01*
X233684923Y-72738219D01*
X233730800Y-72507579D01*
X233730800Y-72272421D01*
X233684923Y-72041781D01*
X233594932Y-71824524D01*
X233464285Y-71628997D01*
X233298003Y-71462715D01*
X233102476Y-71332068D01*
X232885219Y-71242077D01*
X232654579Y-71196200D01*
X232419421Y-71196200D01*
X232188781Y-71242077D01*
X231971524Y-71332068D01*
X231775997Y-71462715D01*
X231609715Y-71628997D01*
X231479068Y-71824524D01*
X231389077Y-72041781D01*
X231343200Y-72272421D01*
X218819800Y-72272421D01*
X218819800Y-71422409D01*
X218965256Y-71640100D01*
X219189900Y-71864744D01*
X219454053Y-72041245D01*
X219747563Y-72162821D01*
X220059153Y-72224800D01*
X220376847Y-72224800D01*
X220688437Y-72162821D01*
X220981947Y-72041245D01*
X221246100Y-71864744D01*
X221470744Y-71640100D01*
X221488000Y-71614275D01*
X221505256Y-71640100D01*
X221729900Y-71864744D01*
X221994053Y-72041245D01*
X222287563Y-72162821D01*
X222599153Y-72224800D01*
X222916847Y-72224800D01*
X223228437Y-72162821D01*
X223521947Y-72041245D01*
X223786100Y-71864744D01*
X224010744Y-71640100D01*
X224187245Y-71375947D01*
X224308821Y-71082437D01*
X224370800Y-70770847D01*
X224370800Y-70453153D01*
X224308821Y-70141563D01*
X224187245Y-69848053D01*
X224010744Y-69583900D01*
X223786100Y-69359256D01*
X223521947Y-69182755D01*
X223228437Y-69061179D01*
X222916847Y-68999200D01*
X222599153Y-68999200D01*
X222287563Y-69061179D01*
X221994053Y-69182755D01*
X221729900Y-69359256D01*
X221505256Y-69583900D01*
X221488000Y-69609725D01*
X221470744Y-69583900D01*
X221246100Y-69359256D01*
X220981947Y-69182755D01*
X220688437Y-69061179D01*
X220376847Y-68999200D01*
X220059153Y-68999200D01*
X219747563Y-69061179D01*
X219454053Y-69182755D01*
X219189900Y-69359256D01*
X218965256Y-69583900D01*
X218819800Y-69801591D01*
X218819800Y-64017421D01*
X219024200Y-64017421D01*
X219024200Y-64252579D01*
X219070077Y-64483219D01*
X219151201Y-64679069D01*
X219151200Y-66511933D01*
X219070077Y-66707781D01*
X219024200Y-66938421D01*
X219024200Y-67173579D01*
X219070077Y-67404219D01*
X219160068Y-67621476D01*
X219290715Y-67817003D01*
X219456997Y-67983285D01*
X219652524Y-68113932D01*
X219869781Y-68203923D01*
X220100421Y-68249800D01*
X220335579Y-68249800D01*
X220566219Y-68203923D01*
X220783476Y-68113932D01*
X220977699Y-67984156D01*
X223314570Y-67984156D01*
X223354842Y-68328737D01*
X223461565Y-68658840D01*
X223594907Y-68908305D01*
X223888794Y-69003522D01*
X224940316Y-67952000D01*
X223888794Y-66900478D01*
X223594907Y-66995695D01*
X223436954Y-67304578D01*
X223342296Y-67638340D01*
X223314570Y-67984156D01*
X220977699Y-67984156D01*
X220979003Y-67983285D01*
X221145285Y-67817003D01*
X221275932Y-67621476D01*
X221365923Y-67404219D01*
X221411800Y-67173579D01*
X221411800Y-66938421D01*
X221375673Y-66756794D01*
X224032478Y-66756794D01*
X225084000Y-67808316D01*
X225098143Y-67794174D01*
X225241827Y-67937858D01*
X225227684Y-67952000D01*
X225241827Y-67966143D01*
X225098143Y-68109827D01*
X225084000Y-68095684D01*
X224032478Y-69147206D01*
X224127695Y-69441093D01*
X224436578Y-69599046D01*
X224770340Y-69693704D01*
X225116156Y-69721430D01*
X225460737Y-69681158D01*
X225790840Y-69574435D01*
X225880812Y-69526344D01*
X225823256Y-69583900D01*
X225646755Y-69848053D01*
X225525179Y-70141563D01*
X225463200Y-70453153D01*
X225463200Y-70770847D01*
X225525179Y-71082437D01*
X225646755Y-71375947D01*
X225823256Y-71640100D01*
X226047900Y-71864744D01*
X226312053Y-72041245D01*
X226605563Y-72162821D01*
X226917153Y-72224800D01*
X227234847Y-72224800D01*
X227546437Y-72162821D01*
X227839947Y-72041245D01*
X228104100Y-71864744D01*
X228328744Y-71640100D01*
X228346000Y-71614275D01*
X228363256Y-71640100D01*
X228587900Y-71864744D01*
X228852053Y-72041245D01*
X229145563Y-72162821D01*
X229457153Y-72224800D01*
X229774847Y-72224800D01*
X230086437Y-72162821D01*
X230379947Y-72041245D01*
X230644100Y-71864744D01*
X230868744Y-71640100D01*
X231045245Y-71375947D01*
X231166821Y-71082437D01*
X231228800Y-70770847D01*
X231228800Y-70453153D01*
X231166821Y-70141563D01*
X231045245Y-69848053D01*
X230899793Y-69630368D01*
X230966367Y-69602792D01*
X231271466Y-69398931D01*
X231530931Y-69139466D01*
X231734792Y-68834367D01*
X231875213Y-68495359D01*
X231946800Y-68135470D01*
X231946800Y-67768530D01*
X231875213Y-67408641D01*
X231734792Y-67069633D01*
X231530931Y-66764534D01*
X231271466Y-66505069D01*
X230966367Y-66301208D01*
X230627359Y-66160787D01*
X230267470Y-66089200D01*
X229900530Y-66089200D01*
X229540641Y-66160787D01*
X229201633Y-66301208D01*
X228896534Y-66505069D01*
X228834000Y-66567603D01*
X228771466Y-66505069D01*
X228466367Y-66301208D01*
X228127359Y-66160787D01*
X227767470Y-66089200D01*
X227400530Y-66089200D01*
X227040641Y-66160787D01*
X226701633Y-66301208D01*
X226396534Y-66505069D01*
X226267488Y-66634115D01*
X226262843Y-66629470D01*
X226135521Y-66756792D01*
X226040305Y-66462907D01*
X225731422Y-66304954D01*
X225397660Y-66210296D01*
X225051844Y-66182570D01*
X224707263Y-66222842D01*
X224377160Y-66329565D01*
X224127695Y-66462907D01*
X224032478Y-66756794D01*
X221375673Y-66756794D01*
X221365923Y-66707781D01*
X221284800Y-66511933D01*
X221284800Y-64679067D01*
X221365923Y-64483219D01*
X221411800Y-64252579D01*
X221411800Y-64017421D01*
X221365923Y-63786781D01*
X221275932Y-63569524D01*
X221145285Y-63373997D01*
X220979003Y-63207715D01*
X220783476Y-63077068D01*
X220566219Y-62987077D01*
X220335579Y-62941200D01*
X220100421Y-62941200D01*
X219869781Y-62987077D01*
X219652524Y-63077068D01*
X219456997Y-63207715D01*
X219290715Y-63373997D01*
X219160068Y-63569524D01*
X219070077Y-63786781D01*
X219024200Y-64017421D01*
X218819800Y-64017421D01*
X218819800Y-60861191D01*
X220438138Y-60861191D01*
X220526093Y-61235830D01*
X220685446Y-61586111D01*
X220910074Y-61898573D01*
X221191344Y-62161208D01*
X221518447Y-62363924D01*
X221878813Y-62498930D01*
X221977263Y-62520560D01*
X222282400Y-62382504D01*
X222282400Y-60553600D01*
X222485600Y-60553600D01*
X222485600Y-62382504D01*
X222790737Y-62520560D01*
X222889187Y-62498930D01*
X223249553Y-62363924D01*
X223576656Y-62161208D01*
X223857926Y-61898573D01*
X224082554Y-61586111D01*
X224241907Y-61235830D01*
X224329862Y-60861191D01*
X230838138Y-60861191D01*
X230926093Y-61235830D01*
X231085446Y-61586111D01*
X231310074Y-61898573D01*
X231591344Y-62161208D01*
X231918447Y-62363924D01*
X232278813Y-62498930D01*
X232377263Y-62520560D01*
X232682400Y-62382504D01*
X232682400Y-60553600D01*
X232885600Y-60553600D01*
X232885600Y-62382504D01*
X233190737Y-62520560D01*
X233289187Y-62498930D01*
X233649553Y-62363924D01*
X233976656Y-62161208D01*
X234257926Y-61898573D01*
X234482554Y-61586111D01*
X234641907Y-61235830D01*
X234729862Y-60861191D01*
X234568652Y-60553600D01*
X232885600Y-60553600D01*
X232682400Y-60553600D01*
X230999348Y-60553600D01*
X230838138Y-60861191D01*
X224329862Y-60861191D01*
X224168652Y-60553600D01*
X222485600Y-60553600D01*
X222282400Y-60553600D01*
X220599348Y-60553600D01*
X220438138Y-60861191D01*
X218819800Y-60861191D01*
X218819800Y-58799800D01*
X221130291Y-58799800D01*
X220910074Y-59005427D01*
G04 #@! TA.AperFunction,Conductor*
D26*
G36*
X220910074Y-59005427D02*
G01*
X220685446Y-59317889D01*
X220526093Y-59668170D01*
X220438138Y-60042809D01*
X220599348Y-60350400D01*
X222282400Y-60350400D01*
X222282400Y-60330400D01*
X222485600Y-60330400D01*
X222485600Y-60350400D01*
X224168652Y-60350400D01*
X224329862Y-60042809D01*
X224241907Y-59668170D01*
X224082554Y-59317889D01*
X223857926Y-59005427D01*
X223637709Y-58799800D01*
X231530291Y-58799800D01*
X231310074Y-59005427D01*
X231085446Y-59317889D01*
X230926093Y-59668170D01*
X230838138Y-60042809D01*
X230999348Y-60350400D01*
X232682400Y-60350400D01*
X232682400Y-60330400D01*
X232885600Y-60330400D01*
X232885600Y-60350400D01*
X234568652Y-60350400D01*
X234729862Y-60042809D01*
X234641907Y-59668170D01*
X234482554Y-59317889D01*
X234257926Y-59005427D01*
X234037709Y-58799800D01*
X236348201Y-58799800D01*
X236348201Y-85657250D01*
X236321363Y-85568778D01*
X236248013Y-85431550D01*
X236222303Y-85383449D01*
X236122395Y-85261712D01*
X236088991Y-85221009D01*
X236048287Y-85187604D01*
X235327056Y-84466373D01*
X235245932Y-84270524D01*
X235115285Y-84074997D01*
X234949003Y-83908715D01*
X234753476Y-83778068D01*
X234536219Y-83688077D01*
X234305579Y-83642200D01*
X234070421Y-83642200D01*
X233839781Y-83688077D01*
X233622524Y-83778068D01*
X233426997Y-83908715D01*
X233260715Y-84074997D01*
X233130068Y-84270524D01*
X233040077Y-84487781D01*
X232994200Y-84718421D01*
X232994200Y-84953579D01*
X233040077Y-85184219D01*
X233130068Y-85401476D01*
X233260715Y-85597003D01*
X233426997Y-85763285D01*
X233622524Y-85893932D01*
X233818373Y-85975056D01*
X234264201Y-86420884D01*
X234264200Y-90060392D01*
X234168450Y-90089438D01*
X234027248Y-90164912D01*
X233903483Y-90266483D01*
X233801912Y-90390248D01*
X233726438Y-90531450D01*
X233679961Y-90684663D01*
X233664268Y-90844000D01*
X233664268Y-92544000D01*
X233679961Y-92703337D01*
X233726438Y-92856550D01*
X233801912Y-92997752D01*
X233903483Y-93121517D01*
X234027248Y-93223088D01*
X234113224Y-93269043D01*
X234010919Y-93400489D01*
X233873674Y-93674040D01*
X233808183Y-93889943D01*
X233951336Y-94132400D01*
X235229400Y-94132400D01*
X235229400Y-94112400D01*
X235432600Y-94112400D01*
X235432600Y-94132400D01*
X235452600Y-94132400D01*
X235452600Y-94335600D01*
X235432600Y-94335600D01*
X235432600Y-96672400D01*
X235452600Y-96672400D01*
X235452600Y-96875600D01*
X235432600Y-96875600D01*
X235432600Y-99212400D01*
X235452600Y-99212400D01*
X235452600Y-99415600D01*
X235432600Y-99415600D01*
X235432600Y-99435600D01*
X235229400Y-99435600D01*
X235229400Y-99415600D01*
X235209400Y-99415600D01*
X235209400Y-99212400D01*
X235229400Y-99212400D01*
X235229400Y-96875600D01*
X233951336Y-96875600D01*
X233808183Y-97118057D01*
X233873674Y-97333960D01*
X234010919Y-97607511D01*
X234198894Y-97849030D01*
X234424320Y-98044000D01*
X234198894Y-98238970D01*
X234010919Y-98480489D01*
X233873674Y-98754040D01*
X233808183Y-98969943D01*
X233951335Y-99212398D01*
X233769800Y-99212398D01*
X233769800Y-99254597D01*
X233649553Y-99180076D01*
X233289187Y-99045070D01*
X233190737Y-99023440D01*
X232885600Y-99161496D01*
X232885600Y-100990400D01*
X232905600Y-100990400D01*
X232905600Y-101193600D01*
X232885600Y-101193600D01*
X232885600Y-103022504D01*
X233190737Y-103160560D01*
X233289187Y-103138930D01*
X233649553Y-103003924D01*
X233967757Y-102806723D01*
X234039419Y-102913973D01*
X234249446Y-103124000D01*
X234039419Y-103334027D01*
X233857445Y-103606369D01*
X233732100Y-103908979D01*
X233668200Y-104230228D01*
X233668200Y-104557772D01*
X233732100Y-104879021D01*
X233857445Y-105181631D01*
X234039419Y-105453973D01*
X234249446Y-105664000D01*
X234039419Y-105874027D01*
X233857445Y-106146369D01*
X233732100Y-106448979D01*
X233668200Y-106770228D01*
X233668200Y-107097772D01*
X233732100Y-107419021D01*
X233857445Y-107721631D01*
X234039419Y-107993973D01*
X234271027Y-108225581D01*
X234543369Y-108407555D01*
X234845979Y-108532900D01*
X235167228Y-108596800D01*
X235494772Y-108596800D01*
X235738591Y-108548302D01*
X235738591Y-109610645D01*
X235667583Y-109697169D01*
X235577957Y-109864848D01*
X235522766Y-110046789D01*
X235508800Y-110188585D01*
X235504130Y-110236000D01*
X235508800Y-110283412D01*
X235508801Y-111055740D01*
X235416068Y-111194524D01*
X235326077Y-111411781D01*
X235280200Y-111642421D01*
X235280200Y-111877579D01*
X235326077Y-112108219D01*
X235416068Y-112325476D01*
X235546715Y-112521003D01*
X235712997Y-112687285D01*
X235908524Y-112817932D01*
X236125781Y-112907923D01*
X236348200Y-112952165D01*
X236348200Y-150191835D01*
X236125781Y-150236077D01*
X235908524Y-150326068D01*
X235712997Y-150456715D01*
X235546715Y-150622997D01*
X235416068Y-150818524D01*
X235326077Y-151035781D01*
X235280200Y-151266421D01*
X235280200Y-151501579D01*
X235322954Y-151716521D01*
X234520521Y-152518955D01*
X234305579Y-152476200D01*
X234223661Y-152476200D01*
X234265342Y-152394352D01*
X234356768Y-152069911D01*
X234383142Y-151733867D01*
X234343450Y-151399134D01*
X234239218Y-151078577D01*
X234112377Y-150841276D01*
X233823605Y-150752079D01*
X232807684Y-151768000D01*
X232821827Y-151782143D01*
X232678143Y-151925827D01*
X232664000Y-151911684D01*
X231648079Y-152927605D01*
X231737276Y-153216377D01*
X232037648Y-153369342D01*
X232362089Y-153460768D01*
X232698133Y-153487142D01*
X233014650Y-153449610D01*
X232994200Y-153552421D01*
X232994200Y-153787579D01*
X233005890Y-153846348D01*
X232949847Y-153835200D01*
X232632153Y-153835200D01*
X232320563Y-153897179D01*
X232027053Y-154018755D01*
X231762900Y-154195256D01*
X231538256Y-154419900D01*
X231361755Y-154684053D01*
X231240179Y-154977563D01*
X231178200Y-155289153D01*
X231178200Y-155606847D01*
X231240179Y-155918437D01*
X231308840Y-156084200D01*
X230570732Y-156084200D01*
X230570732Y-154548000D01*
X230555039Y-154388663D01*
X230508562Y-154235450D01*
X230433088Y-154094248D01*
X230331517Y-153970483D01*
X230207752Y-153868912D01*
X230066550Y-153793438D01*
X229971600Y-153764635D01*
X229971600Y-152942666D01*
X230184419Y-152729847D01*
X230371864Y-152449315D01*
X230500979Y-152137605D01*
X230566800Y-151806696D01*
X230566800Y-151802133D01*
X230944858Y-151802133D01*
X230984550Y-152136866D01*
X231088782Y-152457423D01*
X231215623Y-152694724D01*
X231504395Y-152783921D01*
X232520316Y-151768000D01*
X231504395Y-150752079D01*
X231215623Y-150841276D01*
X231062658Y-151141648D01*
X230971232Y-151466089D01*
X230944858Y-151802133D01*
X230566800Y-151802133D01*
X230566800Y-151469304D01*
X230500979Y-151138395D01*
X230371864Y-150826685D01*
X230184419Y-150546153D01*
X229959936Y-150321670D01*
X229955429Y-150275912D01*
X229891523Y-150065244D01*
X229787746Y-149871091D01*
X229648086Y-149700914D01*
X229605437Y-149665913D01*
X229463600Y-149524076D01*
X229463600Y-148630425D01*
X229493923Y-148557219D01*
X229539800Y-148326579D01*
X229539800Y-148091421D01*
X229493923Y-147860781D01*
X229403932Y-147643524D01*
X229273285Y-147447997D01*
X229107003Y-147281715D01*
X228911476Y-147151068D01*
X228694219Y-147061077D01*
X228463579Y-147015200D01*
X228228421Y-147015200D01*
X227997781Y-147061077D01*
X227780524Y-147151068D01*
X227584997Y-147281715D01*
X227584000Y-147282712D01*
X227583003Y-147281715D01*
X227387476Y-147151068D01*
X227170219Y-147061077D01*
X226939579Y-147015200D01*
X226704421Y-147015200D01*
X226473781Y-147061077D01*
X226256524Y-147151068D01*
X226060997Y-147281715D01*
X225894715Y-147447997D01*
X225764068Y-147643524D01*
X225674077Y-147860781D01*
X225628200Y-148091421D01*
X225628200Y-148326579D01*
X225674077Y-148557219D01*
X225704400Y-148630425D01*
X225704400Y-149524076D01*
X225562558Y-149665918D01*
X225519915Y-149700914D01*
X225484919Y-149743557D01*
X225380254Y-149871091D01*
X225350069Y-149927565D01*
X225254663Y-149936961D01*
X225101450Y-149983438D01*
X224960248Y-150058912D01*
X224836483Y-150160483D01*
X224734912Y-150284248D01*
X224659438Y-150425450D01*
X224612961Y-150578663D01*
X224597268Y-150738000D01*
X224597268Y-152538000D01*
X224612961Y-152697337D01*
X224659438Y-152850550D01*
X224734912Y-152991752D01*
X224836483Y-153115517D01*
X224960248Y-153217088D01*
X225101450Y-153292562D01*
X225196400Y-153321365D01*
X225196401Y-154143333D01*
X224983581Y-154356153D01*
X224796136Y-154636685D01*
X224667021Y-154948395D01*
X224601200Y-155279304D01*
X224601200Y-155616696D01*
X224667021Y-155947605D01*
X224723601Y-156084200D01*
X223748450Y-156084200D01*
X223795472Y-155990048D01*
X223873964Y-155702903D01*
X223894930Y-155405962D01*
X223857562Y-155110636D01*
X223763297Y-154828275D01*
X223662468Y-154639637D01*
X223394143Y-154574541D01*
X222520684Y-155448000D01*
X222534827Y-155462143D01*
X222391143Y-155605827D01*
X222377000Y-155591684D01*
X222362858Y-155605827D01*
X222219174Y-155462143D01*
X222233316Y-155448000D01*
X221359857Y-154574541D01*
X221216336Y-154609359D01*
X221097066Y-154430857D01*
X221503541Y-154430857D01*
X222377000Y-155304316D01*
X223250459Y-154430857D01*
X223185363Y-154162532D01*
X222919048Y-154029528D01*
X222631903Y-153951036D01*
X222334962Y-153930070D01*
X222039636Y-153967438D01*
X221757275Y-154061703D01*
X221568637Y-154162532D01*
X221503541Y-154430857D01*
X221097066Y-154430857D01*
X221089744Y-154419900D01*
X220865100Y-154195256D01*
X220600947Y-154018755D01*
X220307437Y-153897179D01*
X219995847Y-153835200D01*
X219678153Y-153835200D01*
X219366563Y-153897179D01*
X219073053Y-154018755D01*
X218819800Y-154187973D01*
X218819800Y-152927605D01*
X221488079Y-152927605D01*
X221577276Y-153216377D01*
X221877648Y-153369342D01*
X222202089Y-153460768D01*
X222538133Y-153487142D01*
X222872866Y-153447450D01*
X223193423Y-153343218D01*
X223430724Y-153216377D01*
X223519921Y-152927605D01*
X222504000Y-151911684D01*
X221488079Y-152927605D01*
X218819800Y-152927605D01*
X218819800Y-151802133D01*
X220784858Y-151802133D01*
X220824550Y-152136866D01*
X220928782Y-152457423D01*
X221055623Y-152694724D01*
X221344395Y-152783921D01*
X222360316Y-151768000D01*
X222647684Y-151768000D01*
X223663605Y-152783921D01*
X223952377Y-152694724D01*
X224105342Y-152394352D01*
X224196768Y-152069911D01*
X224223142Y-151733867D01*
X224183450Y-151399134D01*
X224079218Y-151078577D01*
X223952377Y-150841276D01*
X223663605Y-150752079D01*
X222647684Y-151768000D01*
X222360316Y-151768000D01*
X221344395Y-150752079D01*
X221055623Y-150841276D01*
X220902658Y-151141648D01*
X220811232Y-151466089D01*
X220784858Y-151802133D01*
X218819800Y-151802133D01*
X218819800Y-145060209D01*
X220191200Y-145060209D01*
X220191200Y-145515791D01*
X220280079Y-145962619D01*
X220454423Y-146383522D01*
X220707531Y-146762324D01*
X221029676Y-147084469D01*
X221325909Y-147282406D01*
X221095907Y-147512408D01*
X220897518Y-147809317D01*
X220760865Y-148139226D01*
X220691200Y-148489455D01*
X220691200Y-148846545D01*
X220760865Y-149196774D01*
X220897518Y-149526683D01*
X221095907Y-149823592D01*
X221348408Y-150076093D01*
X221645317Y-150274482D01*
X221654563Y-150278312D01*
X221577276Y-150319623D01*
X221488079Y-150608395D01*
X222504000Y-151624316D01*
X223519921Y-150608395D01*
X223430724Y-150319623D01*
X223351323Y-150279188D01*
X223362683Y-150274482D01*
X223659592Y-150076093D01*
X223912093Y-149823592D01*
X224110482Y-149526683D01*
X224247135Y-149196774D01*
X224316800Y-148846545D01*
X224316800Y-148489455D01*
X224247135Y-148139226D01*
X224110482Y-147809317D01*
X223912093Y-147512408D01*
X223682091Y-147282406D01*
X223978324Y-147084469D01*
X224300469Y-146762324D01*
X224553577Y-146383522D01*
X224727921Y-145962619D01*
X224816800Y-145515791D01*
X224816800Y-145060209D01*
X230351200Y-145060209D01*
X230351200Y-145515791D01*
X230440079Y-145962619D01*
X230614423Y-146383522D01*
X230867531Y-146762324D01*
X231189676Y-147084469D01*
X231485909Y-147282406D01*
X231255907Y-147512408D01*
X231057518Y-147809317D01*
X230920865Y-148139226D01*
X230851200Y-148489455D01*
X230851200Y-148846545D01*
X230920865Y-149196774D01*
X231057518Y-149526683D01*
X231255907Y-149823592D01*
X231508408Y-150076093D01*
X231805317Y-150274482D01*
X231814563Y-150278312D01*
X231737276Y-150319623D01*
X231648079Y-150608395D01*
X232664000Y-151624316D01*
X233679921Y-150608395D01*
X233590724Y-150319623D01*
X233511323Y-150279188D01*
X233522683Y-150274482D01*
X233819592Y-150076093D01*
X234072093Y-149823592D01*
X234270482Y-149526683D01*
X234407135Y-149196774D01*
X234476800Y-148846545D01*
X234476800Y-148489455D01*
X234407135Y-148139226D01*
X234270482Y-147809317D01*
X234072093Y-147512408D01*
X233842091Y-147282406D01*
X234138324Y-147084469D01*
X234460469Y-146762324D01*
X234713577Y-146383522D01*
X234887921Y-145962619D01*
X234976800Y-145515791D01*
X234976800Y-145060209D01*
X234887921Y-144613381D01*
X234713577Y-144192478D01*
X234460469Y-143813676D01*
X234138324Y-143491531D01*
X233759522Y-143238423D01*
X233338619Y-143064079D01*
X232891791Y-142975200D01*
X232436209Y-142975200D01*
X231989381Y-143064079D01*
X231568478Y-143238423D01*
X231189676Y-143491531D01*
X230867531Y-143813676D01*
X230614423Y-144192478D01*
X230440079Y-144613381D01*
X230351200Y-145060209D01*
X224816800Y-145060209D01*
X224727921Y-144613381D01*
X224553577Y-144192478D01*
X224300469Y-143813676D01*
X223978324Y-143491531D01*
X223599522Y-143238423D01*
X223178619Y-143064079D01*
X222731791Y-142975200D01*
X222276209Y-142975200D01*
X221829381Y-143064079D01*
X221408478Y-143238423D01*
X221029676Y-143491531D01*
X220707531Y-143813676D01*
X220454423Y-144192478D01*
X220280079Y-144613381D01*
X220191200Y-145060209D01*
X218819800Y-145060209D01*
X218819800Y-138709400D01*
X218913179Y-138709400D01*
X219143819Y-138663523D01*
X219235373Y-138625600D01*
X221070521Y-138625600D01*
X221095907Y-138663592D01*
X221348408Y-138916093D01*
X221381194Y-138938000D01*
X221348408Y-138959907D01*
X221095907Y-139212408D01*
X220897518Y-139509317D01*
X220760865Y-139839226D01*
X220691200Y-140189455D01*
X220691200Y-140546545D01*
X220760865Y-140896774D01*
X220897518Y-141226683D01*
X221095907Y-141523592D01*
X221348408Y-141776093D01*
X221645317Y-141974482D01*
X221975226Y-142111135D01*
X222325455Y-142180800D01*
X222682545Y-142180800D01*
X223032774Y-142111135D01*
X223362683Y-141974482D01*
X223659592Y-141776093D01*
X223912093Y-141523592D01*
X224110482Y-141226683D01*
X224247135Y-140896774D01*
X224316800Y-140546545D01*
X224316800Y-140189455D01*
X224247135Y-139839226D01*
X224110482Y-139509317D01*
X223912093Y-139212408D01*
X223659592Y-138959907D01*
X223626806Y-138938000D01*
X223659592Y-138916093D01*
X223912093Y-138663592D01*
X223977020Y-138566421D01*
X225755200Y-138566421D01*
X225755200Y-138801579D01*
X225801077Y-139032219D01*
X225831401Y-139105427D01*
X225831400Y-141437575D01*
X225801077Y-141510781D01*
X225755200Y-141741421D01*
X225755200Y-141976579D01*
X225801077Y-142207219D01*
X225891068Y-142424476D01*
X226021715Y-142620003D01*
X226187997Y-142786285D01*
X226383524Y-142916932D01*
X226600781Y-143006923D01*
X226831421Y-143052800D01*
X227066579Y-143052800D01*
X227297219Y-143006923D01*
X227514476Y-142916932D01*
X227710003Y-142786285D01*
X227876285Y-142620003D01*
X228006932Y-142424476D01*
X228096923Y-142207219D01*
X228142800Y-141976579D01*
X228142800Y-141741421D01*
X228096923Y-141510781D01*
X228066600Y-141437575D01*
X228066600Y-139105425D01*
X228096923Y-139032219D01*
X228142800Y-138801579D01*
X228142800Y-138566421D01*
X228096923Y-138335781D01*
X228006932Y-138118524D01*
X227876285Y-137922997D01*
X227710003Y-137756715D01*
X227514476Y-137626068D01*
X227297219Y-137536077D01*
X227066579Y-137490200D01*
X226831421Y-137490200D01*
X226600781Y-137536077D01*
X226383524Y-137626068D01*
X226187997Y-137756715D01*
X226021715Y-137922997D01*
X225891068Y-138118524D01*
X225801077Y-138335781D01*
X225755200Y-138566421D01*
X223977020Y-138566421D01*
X224110482Y-138366683D01*
X224247135Y-138036774D01*
X224316800Y-137686545D01*
X224316800Y-137329455D01*
X230851200Y-137329455D01*
X230851200Y-137686545D01*
X230920865Y-138036774D01*
X231057518Y-138366683D01*
X231255907Y-138663592D01*
X231508408Y-138916093D01*
X231541194Y-138938000D01*
X231508408Y-138959907D01*
X231255907Y-139212408D01*
X231057518Y-139509317D01*
X230920865Y-139839226D01*
X230851200Y-140189455D01*
X230851200Y-140546545D01*
X230920865Y-140896774D01*
X231057518Y-141226683D01*
X231255907Y-141523592D01*
X231508408Y-141776093D01*
X231805317Y-141974482D01*
X232135226Y-142111135D01*
X232485455Y-142180800D01*
X232842545Y-142180800D01*
X233192774Y-142111135D01*
X233522683Y-141974482D01*
X233819592Y-141776093D01*
X234072093Y-141523592D01*
X234270482Y-141226683D01*
X234407135Y-140896774D01*
X234476800Y-140546545D01*
X234476800Y-140189455D01*
X234407135Y-139839226D01*
X234270482Y-139509317D01*
X234072093Y-139212408D01*
X233819592Y-138959907D01*
X233786806Y-138938000D01*
X233819592Y-138916093D01*
X234072093Y-138663592D01*
X234270482Y-138366683D01*
X234407135Y-138036774D01*
X234476800Y-137686545D01*
X234476800Y-137329455D01*
X234407135Y-136979226D01*
X234270482Y-136649317D01*
X234072093Y-136352408D01*
X233819592Y-136099907D01*
X233522683Y-135901518D01*
X233192774Y-135764865D01*
X232842545Y-135695200D01*
X232485455Y-135695200D01*
X232135226Y-135764865D01*
X231805317Y-135901518D01*
X231508408Y-136099907D01*
X231255907Y-136352408D01*
X231057518Y-136649317D01*
X230920865Y-136979226D01*
X230851200Y-137329455D01*
X224316800Y-137329455D01*
X224247135Y-136979226D01*
X224110482Y-136649317D01*
X223912093Y-136352408D01*
X223659592Y-136099907D01*
X223362683Y-135901518D01*
X223032774Y-135764865D01*
X222682545Y-135695200D01*
X222325455Y-135695200D01*
X221975226Y-135764865D01*
X221645317Y-135901518D01*
X221348408Y-136099907D01*
X221095907Y-136352408D01*
X221070521Y-136390400D01*
X219198677Y-136390400D01*
X219143819Y-136367677D01*
X218913179Y-136321800D01*
X218819800Y-136321800D01*
X218819800Y-135137421D01*
X226009200Y-135137421D01*
X226009200Y-135372579D01*
X226055077Y-135603219D01*
X226145068Y-135820476D01*
X226275715Y-136016003D01*
X226441997Y-136182285D01*
X226637524Y-136312932D01*
X226854781Y-136402923D01*
X227085421Y-136448800D01*
X227320579Y-136448800D01*
X227551219Y-136402923D01*
X227624425Y-136372600D01*
X229194575Y-136372600D01*
X229267781Y-136402923D01*
X229498421Y-136448800D01*
X229733579Y-136448800D01*
X229964219Y-136402923D01*
X230181476Y-136312932D01*
X230377003Y-136182285D01*
X230543285Y-136016003D01*
X230673932Y-135820476D01*
X230763923Y-135603219D01*
X230809800Y-135372579D01*
X230809800Y-135137421D01*
X230763923Y-134906781D01*
X230673932Y-134689524D01*
X230543285Y-134493997D01*
X230377003Y-134327715D01*
X230181476Y-134197068D01*
X229964219Y-134107077D01*
X229733579Y-134061200D01*
X229498421Y-134061200D01*
X229267781Y-134107077D01*
X229194575Y-134137400D01*
X227624425Y-134137400D01*
X227551219Y-134107077D01*
X227320579Y-134061200D01*
X227085421Y-134061200D01*
X226854781Y-134107077D01*
X226637524Y-134197068D01*
X226441997Y-134327715D01*
X226275715Y-134493997D01*
X226145068Y-134689524D01*
X226055077Y-134906781D01*
X226009200Y-135137421D01*
X218819800Y-135137421D01*
X218819800Y-132360209D01*
X220191200Y-132360209D01*
X220191200Y-132815791D01*
X220280079Y-133262619D01*
X220454423Y-133683522D01*
X220707531Y-134062324D01*
X221029676Y-134384469D01*
X221408478Y-134637577D01*
X221829381Y-134811921D01*
X222276209Y-134900800D01*
X222731791Y-134900800D01*
X223178619Y-134811921D01*
X223599522Y-134637577D01*
X223978324Y-134384469D01*
X224300469Y-134062324D01*
X224553577Y-133683522D01*
X224727921Y-133262619D01*
X224816800Y-132815791D01*
X224816800Y-132360209D01*
X230351200Y-132360209D01*
X230351200Y-132815791D01*
X230440079Y-133262619D01*
X230614423Y-133683522D01*
X230867531Y-134062324D01*
X231189676Y-134384469D01*
X231568478Y-134637577D01*
X231989381Y-134811921D01*
X232436209Y-134900800D01*
X232891791Y-134900800D01*
X233338619Y-134811921D01*
X233759522Y-134637577D01*
X234138324Y-134384469D01*
X234460469Y-134062324D01*
X234713577Y-133683522D01*
X234887921Y-133262619D01*
X234976800Y-132815791D01*
X234976800Y-132360209D01*
X234887921Y-131913381D01*
X234713577Y-131492478D01*
X234460469Y-131113676D01*
X234138324Y-130791531D01*
X233842091Y-130593594D01*
X234072093Y-130363592D01*
X234270482Y-130066683D01*
X234407135Y-129736774D01*
X234476800Y-129386545D01*
X234476800Y-129029455D01*
X234407135Y-128679226D01*
X234270482Y-128349317D01*
X234072093Y-128052408D01*
X233819592Y-127799907D01*
X233634096Y-127675962D01*
X233679921Y-127527605D01*
X232664000Y-126511684D01*
X231648079Y-127527605D01*
X231693904Y-127675962D01*
X231508408Y-127799907D01*
X231255907Y-128052408D01*
X231057518Y-128349317D01*
X230920865Y-128679226D01*
X230851200Y-129029455D01*
X230851200Y-129386545D01*
X230920865Y-129736774D01*
X231057518Y-130066683D01*
X231255907Y-130363592D01*
X231485909Y-130593594D01*
X231189676Y-130791531D01*
X230867531Y-131113676D01*
X230614423Y-131492478D01*
X230440079Y-131913381D01*
X230351200Y-132360209D01*
X224816800Y-132360209D01*
X224727921Y-131913381D01*
X224553577Y-131492478D01*
X224300469Y-131113676D01*
X223978324Y-130791531D01*
X223682091Y-130593594D01*
X223912093Y-130363592D01*
X224110482Y-130066683D01*
X224247135Y-129736774D01*
X224316800Y-129386545D01*
X224316800Y-129029455D01*
X224247135Y-128679226D01*
X224110482Y-128349317D01*
X223912093Y-128052408D01*
X223659592Y-127799907D01*
X223474096Y-127675962D01*
X223519921Y-127527605D01*
X222504000Y-126511684D01*
X221488079Y-127527605D01*
X221533904Y-127675962D01*
X221348408Y-127799907D01*
X221095907Y-128052408D01*
X220897518Y-128349317D01*
X220760865Y-128679226D01*
X220691200Y-129029455D01*
X220691200Y-129386545D01*
X220760865Y-129736774D01*
X220897518Y-130066683D01*
X221095907Y-130363592D01*
X221325909Y-130593594D01*
X221029676Y-130791531D01*
X220707531Y-131113676D01*
X220454423Y-131492478D01*
X220280079Y-131913381D01*
X220191200Y-132360209D01*
X218819800Y-132360209D01*
X218819800Y-126402133D01*
X220784858Y-126402133D01*
X220824550Y-126736866D01*
X220928782Y-127057423D01*
X221055623Y-127294724D01*
X221344395Y-127383921D01*
X222360316Y-126368000D01*
X222647684Y-126368000D01*
X223663605Y-127383921D01*
X223952377Y-127294724D01*
X224032188Y-127138000D01*
X224699359Y-127138000D01*
X224713091Y-127277420D01*
X224753758Y-127411481D01*
X224819798Y-127535033D01*
X224908673Y-127643327D01*
X225016967Y-127732202D01*
X225140519Y-127798242D01*
X225274580Y-127838909D01*
X225414000Y-127852641D01*
X226034600Y-127849200D01*
X226212400Y-127671400D01*
X226212400Y-126339600D01*
X224880600Y-126339600D01*
X224702800Y-126517400D01*
X224699359Y-127138000D01*
X224032188Y-127138000D01*
X224105342Y-126994352D01*
X224196768Y-126669911D01*
X224223142Y-126333867D01*
X224183450Y-125999134D01*
X224079218Y-125678577D01*
X223952377Y-125441276D01*
X223663605Y-125352079D01*
X222647684Y-126368000D01*
X222360316Y-126368000D01*
X221344395Y-125352079D01*
X221055623Y-125441276D01*
X220902658Y-125741648D01*
X220811232Y-126066089D01*
X220784858Y-126402133D01*
X218819800Y-126402133D01*
X218819800Y-119660209D01*
X220191200Y-119660209D01*
X220191200Y-120115791D01*
X220280079Y-120562619D01*
X220454423Y-120983522D01*
X220707531Y-121362324D01*
X221029676Y-121684469D01*
X221325909Y-121882406D01*
X221095907Y-122112408D01*
X220897518Y-122409317D01*
X220760865Y-122739226D01*
X220691200Y-123089455D01*
X220691200Y-123446545D01*
X220760865Y-123796774D01*
X220897518Y-124126683D01*
X221095907Y-124423592D01*
X221348408Y-124676093D01*
X221645317Y-124874482D01*
X221654563Y-124878312D01*
X221577276Y-124919623D01*
X221488079Y-125208395D01*
X222504000Y-126224316D01*
X223390316Y-125338000D01*
X224699359Y-125338000D01*
X224702800Y-125958600D01*
X224880600Y-126136400D01*
X226212400Y-126136400D01*
X226212400Y-124804600D01*
X226415600Y-124804600D01*
X226415600Y-126136400D01*
X226435600Y-126136400D01*
X226435600Y-126339600D01*
X226415600Y-126339600D01*
X226415600Y-127671400D01*
X226593400Y-127849200D01*
X227214000Y-127852641D01*
X227353420Y-127838909D01*
X227487481Y-127798242D01*
X227611033Y-127732202D01*
X227719327Y-127643327D01*
X227774198Y-127576467D01*
X228042685Y-127755864D01*
X228354395Y-127884979D01*
X228685304Y-127950800D01*
X229022696Y-127950800D01*
X229353605Y-127884979D01*
X229665315Y-127755864D01*
X229945847Y-127568419D01*
X230184419Y-127329847D01*
X230371864Y-127049315D01*
X230500979Y-126737605D01*
X230566800Y-126406696D01*
X230566800Y-126402133D01*
X230944858Y-126402133D01*
X230984550Y-126736866D01*
X231088782Y-127057423D01*
X231215623Y-127294724D01*
X231504395Y-127383921D01*
X232520316Y-126368000D01*
X232807684Y-126368000D01*
X233823605Y-127383921D01*
X234112377Y-127294724D01*
X234265342Y-126994352D01*
X234356768Y-126669911D01*
X234383142Y-126333867D01*
X234343450Y-125999134D01*
X234239218Y-125678577D01*
X234112377Y-125441276D01*
X233823605Y-125352079D01*
X232807684Y-126368000D01*
X232520316Y-126368000D01*
X231504395Y-125352079D01*
X231215623Y-125441276D01*
X231062658Y-125741648D01*
X230971232Y-126066089D01*
X230944858Y-126402133D01*
X230566800Y-126402133D01*
X230566800Y-126069304D01*
X230500979Y-125738395D01*
X230371864Y-125426685D01*
X230184419Y-125146153D01*
X229945847Y-124907581D01*
X229665315Y-124720136D01*
X229353605Y-124591021D01*
X229022696Y-124525200D01*
X228685304Y-124525200D01*
X228354395Y-124591021D01*
X228042685Y-124720136D01*
X227774198Y-124899533D01*
X227719327Y-124832673D01*
X227611033Y-124743798D01*
X227487481Y-124677758D01*
X227353420Y-124637091D01*
X227214000Y-124623359D01*
X226593400Y-124626800D01*
X226415600Y-124804600D01*
X226212400Y-124804600D01*
X226034600Y-124626800D01*
X225414000Y-124623359D01*
X225274580Y-124637091D01*
X225140519Y-124677758D01*
X225016967Y-124743798D01*
X224908673Y-124832673D01*
X224819798Y-124940967D01*
X224753758Y-125064519D01*
X224713091Y-125198580D01*
X224699359Y-125338000D01*
X223390316Y-125338000D01*
X223519921Y-125208395D01*
X223430724Y-124919623D01*
X223351323Y-124879188D01*
X223362683Y-124874482D01*
X223659592Y-124676093D01*
X223912093Y-124423592D01*
X224110482Y-124126683D01*
X224247135Y-123796774D01*
X224316800Y-123446545D01*
X224316800Y-123089455D01*
X224247135Y-122739226D01*
X224110482Y-122409317D01*
X223912093Y-122112408D01*
X223682091Y-121882406D01*
X223978324Y-121684469D01*
X224300469Y-121362324D01*
X224553577Y-120983522D01*
X224727921Y-120562619D01*
X224816800Y-120115791D01*
X224816800Y-120024421D01*
X226644200Y-120024421D01*
X226644200Y-120083357D01*
X226644201Y-122183416D01*
X226644200Y-122183421D01*
X226644200Y-122418579D01*
X226655700Y-122476394D01*
X226661475Y-122535026D01*
X226678577Y-122591404D01*
X226690077Y-122649219D01*
X226712634Y-122703676D01*
X226729737Y-122760058D01*
X226757512Y-122812022D01*
X226780068Y-122866476D01*
X226812814Y-122915484D01*
X226840590Y-122967449D01*
X226877969Y-123012995D01*
X226910715Y-123062003D01*
X226952395Y-123103683D01*
X226989773Y-123149228D01*
X227035318Y-123186606D01*
X227076997Y-123228285D01*
X227126004Y-123261030D01*
X227171552Y-123298411D01*
X227223520Y-123326188D01*
X227272524Y-123358932D01*
X227326974Y-123381486D01*
X227378943Y-123409264D01*
X227435330Y-123426369D01*
X227489781Y-123448923D01*
X227547589Y-123460422D01*
X227603975Y-123477526D01*
X227662615Y-123483302D01*
X227720421Y-123494800D01*
X227779357Y-123494800D01*
X227838000Y-123500576D01*
X227896644Y-123494800D01*
X227955579Y-123494800D01*
X228013385Y-123483302D01*
X228072026Y-123477526D01*
X228128414Y-123460421D01*
X228186219Y-123448923D01*
X228240667Y-123426370D01*
X228297058Y-123409264D01*
X228349030Y-123381484D01*
X228403476Y-123358932D01*
X228452476Y-123326191D01*
X228504449Y-123298411D01*
X228550002Y-123261027D01*
X228599003Y-123228285D01*
X228640677Y-123186611D01*
X228686228Y-123149228D01*
X228723611Y-123103677D01*
X228765285Y-123062003D01*
X228798027Y-123013002D01*
X228835411Y-122967449D01*
X228863191Y-122915476D01*
X228895932Y-122866476D01*
X228918484Y-122812030D01*
X228946264Y-122760058D01*
X228963370Y-122703667D01*
X228985923Y-122649219D01*
X228997421Y-122591414D01*
X229014526Y-122535026D01*
X229020302Y-122476384D01*
X229031800Y-122418579D01*
X229031800Y-120024421D01*
X229020302Y-119966616D01*
X229014526Y-119907974D01*
X228997421Y-119851586D01*
X228985923Y-119793781D01*
X228963370Y-119739333D01*
X228946264Y-119682942D01*
X228934113Y-119660209D01*
X230351200Y-119660209D01*
X230351200Y-120115791D01*
X230440079Y-120562619D01*
X230614423Y-120983522D01*
X230867531Y-121362324D01*
X231189676Y-121684469D01*
X231485909Y-121882406D01*
X231255907Y-122112408D01*
X231057518Y-122409317D01*
X230920865Y-122739226D01*
X230851200Y-123089455D01*
X230851200Y-123446545D01*
X230920865Y-123796774D01*
X231057518Y-124126683D01*
X231255907Y-124423592D01*
X231508408Y-124676093D01*
X231805317Y-124874482D01*
X231814563Y-124878312D01*
X231737276Y-124919623D01*
X231648079Y-125208395D01*
X232664000Y-126224316D01*
X233679921Y-125208395D01*
X233590724Y-124919623D01*
X233511323Y-124879188D01*
X233522683Y-124874482D01*
X233819592Y-124676093D01*
X234072093Y-124423592D01*
X234270482Y-124126683D01*
X234407135Y-123796774D01*
X234476800Y-123446545D01*
X234476800Y-123089455D01*
X234407135Y-122739226D01*
X234270482Y-122409317D01*
X234072093Y-122112408D01*
X233842091Y-121882406D01*
X234138324Y-121684469D01*
X234460469Y-121362324D01*
X234713577Y-120983522D01*
X234887921Y-120562619D01*
X234976800Y-120115791D01*
X234976800Y-119660209D01*
X234887921Y-119213381D01*
X234713577Y-118792478D01*
X234460469Y-118413676D01*
X234138324Y-118091531D01*
X233759522Y-117838423D01*
X233338619Y-117664079D01*
X232891791Y-117575200D01*
X232436209Y-117575200D01*
X231989381Y-117664079D01*
X231568478Y-117838423D01*
X231189676Y-118091531D01*
X230867531Y-118413676D01*
X230614423Y-118792478D01*
X230440079Y-119213381D01*
X230351200Y-119660209D01*
X228934113Y-119660209D01*
X228918484Y-119630970D01*
X228895932Y-119576524D01*
X228863191Y-119527524D01*
X228835411Y-119475551D01*
X228798027Y-119429998D01*
X228765285Y-119380997D01*
X228723611Y-119339323D01*
X228686228Y-119293772D01*
X228640678Y-119256390D01*
X228599003Y-119214715D01*
X228549998Y-119181971D01*
X228504448Y-119144589D01*
X228452480Y-119116812D01*
X228403476Y-119084068D01*
X228349026Y-119061514D01*
X228297057Y-119033736D01*
X228240670Y-119016631D01*
X228186219Y-118994077D01*
X228128411Y-118982578D01*
X228072025Y-118965474D01*
X228013385Y-118959698D01*
X227955579Y-118948200D01*
X227896643Y-118948200D01*
X227838000Y-118942424D01*
X227779356Y-118948200D01*
X227720421Y-118948200D01*
X227662615Y-118959698D01*
X227603974Y-118965474D01*
X227547586Y-118982579D01*
X227489781Y-118994077D01*
X227435333Y-119016630D01*
X227378942Y-119033736D01*
X227326970Y-119061516D01*
X227272524Y-119084068D01*
X227223524Y-119116809D01*
X227171551Y-119144589D01*
X227125998Y-119181973D01*
X227076997Y-119214715D01*
X227035323Y-119256389D01*
X226989772Y-119293772D01*
X226952390Y-119339322D01*
X226910715Y-119380997D01*
X226877971Y-119430002D01*
X226840589Y-119475552D01*
X226812812Y-119527520D01*
X226780068Y-119576524D01*
X226757514Y-119630974D01*
X226729736Y-119682943D01*
X226712631Y-119739330D01*
X226690077Y-119793781D01*
X226678578Y-119851589D01*
X226661474Y-119907975D01*
X226655698Y-119966615D01*
X226644200Y-120024421D01*
X224816800Y-120024421D01*
X224816800Y-119660209D01*
X224727921Y-119213381D01*
X224553577Y-118792478D01*
X224300469Y-118413676D01*
X223978324Y-118091531D01*
X223599522Y-117838423D01*
X223178619Y-117664079D01*
X222731791Y-117575200D01*
X222276209Y-117575200D01*
X221829381Y-117664079D01*
X221408478Y-117838423D01*
X221029676Y-118091531D01*
X220707531Y-118413676D01*
X220454423Y-118792478D01*
X220280079Y-119213381D01*
X220191200Y-119660209D01*
X218819800Y-119660209D01*
X218819800Y-114789455D01*
X220691200Y-114789455D01*
X220691200Y-115146545D01*
X220760865Y-115496774D01*
X220897518Y-115826683D01*
X221095907Y-116123592D01*
X221348408Y-116376093D01*
X221645317Y-116574482D01*
X221975226Y-116711135D01*
X222325455Y-116780800D01*
X222682545Y-116780800D01*
X223032774Y-116711135D01*
X223362683Y-116574482D01*
X223659592Y-116376093D01*
X223912093Y-116123592D01*
X224110482Y-115826683D01*
X224247135Y-115496774D01*
X224316800Y-115146545D01*
X224316800Y-114789455D01*
X224247135Y-114439226D01*
X224110482Y-114109317D01*
X223912093Y-113812408D01*
X223659592Y-113559907D01*
X223379568Y-113372800D01*
X223424847Y-113372800D01*
X223736437Y-113310821D01*
X224029947Y-113189245D01*
X224294100Y-113012744D01*
X224518744Y-112788100D01*
X224526065Y-112777143D01*
X224932541Y-112777143D01*
X224997637Y-113045468D01*
X225263952Y-113178472D01*
X225551097Y-113256964D01*
X225848038Y-113277930D01*
X226143364Y-113240562D01*
X226425725Y-113146297D01*
X226614363Y-113045468D01*
X226679459Y-112777143D01*
X225806000Y-111903684D01*
X224932541Y-112777143D01*
X224526065Y-112777143D01*
X224645336Y-112598641D01*
X224788857Y-112633459D01*
X225662316Y-111760000D01*
X225949684Y-111760000D01*
X226823143Y-112633459D01*
X227091468Y-112568363D01*
X227224472Y-112302048D01*
X227302964Y-112014903D01*
X227323930Y-111717962D01*
X227286562Y-111422636D01*
X227192297Y-111140275D01*
X227091468Y-110951637D01*
X226823143Y-110886541D01*
X225949684Y-111760000D01*
X225662316Y-111760000D01*
X224788857Y-110886541D01*
X224645336Y-110921359D01*
X224518744Y-110731900D01*
X224294100Y-110507256D01*
X224029947Y-110330755D01*
X223736437Y-110209179D01*
X223424847Y-110147200D01*
X223107153Y-110147200D01*
X222795563Y-110209179D01*
X222502053Y-110330755D01*
X222237900Y-110507256D01*
X222013256Y-110731900D01*
X221836755Y-110996053D01*
X221715179Y-111289563D01*
X221653200Y-111601153D01*
X221653200Y-111918847D01*
X221715179Y-112230437D01*
X221836755Y-112523947D01*
X222013256Y-112788100D01*
X222237900Y-113012744D01*
X222451101Y-113155200D01*
X222325455Y-113155200D01*
X221975226Y-113224865D01*
X221645317Y-113361518D01*
X221348408Y-113559907D01*
X221095907Y-113812408D01*
X220897518Y-114109317D01*
X220760865Y-114439226D01*
X220691200Y-114789455D01*
X218819800Y-114789455D01*
X218819800Y-109323207D01*
X218906068Y-109531476D01*
X219036715Y-109727003D01*
X219202997Y-109893285D01*
X219398524Y-110023932D01*
X219615781Y-110113923D01*
X219846421Y-110159800D01*
X220081579Y-110159800D01*
X220312219Y-110113923D01*
X220529476Y-110023932D01*
X220725003Y-109893285D01*
X220891285Y-109727003D01*
X221021932Y-109531476D01*
X221111923Y-109314219D01*
X221157800Y-109083579D01*
X221157800Y-108848421D01*
X221111923Y-108617781D01*
X221025249Y-108408530D01*
X223221200Y-108408530D01*
X223221200Y-108775470D01*
X223292787Y-109135359D01*
X223433208Y-109474367D01*
X223637069Y-109779466D01*
X223896534Y-110038931D01*
X224201633Y-110242792D01*
X224540641Y-110383213D01*
X224900530Y-110454800D01*
X225034553Y-110454800D01*
X224997637Y-110474532D01*
X224932541Y-110742857D01*
X225806000Y-111616316D01*
X226679459Y-110742857D01*
X226614363Y-110474532D01*
X226348048Y-110341528D01*
X226060903Y-110263036D01*
X225938379Y-110254385D01*
X225966367Y-110242792D01*
X226271466Y-110038931D01*
X226334000Y-109976397D01*
X226396534Y-110038931D01*
X226701633Y-110242792D01*
X227040641Y-110383213D01*
X227400530Y-110454800D01*
X227767470Y-110454800D01*
X228127359Y-110383213D01*
X228466367Y-110242792D01*
X228771466Y-110038931D01*
X228834000Y-109976397D01*
X228896534Y-110038931D01*
X229091737Y-110169362D01*
X228891563Y-110209179D01*
X228598053Y-110330755D01*
X228333900Y-110507256D01*
X228109256Y-110731900D01*
X227932755Y-110996053D01*
X227811179Y-111289563D01*
X227749200Y-111601153D01*
X227749200Y-111918847D01*
X227811179Y-112230437D01*
X227932755Y-112523947D01*
X228109256Y-112788100D01*
X228333900Y-113012744D01*
X228598053Y-113189245D01*
X228891563Y-113310821D01*
X229203153Y-113372800D01*
X229520847Y-113372800D01*
X229832437Y-113310821D01*
X230125947Y-113189245D01*
X230390100Y-113012744D01*
X230614744Y-112788100D01*
X230632000Y-112762275D01*
X230649256Y-112788100D01*
X230873900Y-113012744D01*
X231138053Y-113189245D01*
X231431563Y-113310821D01*
X231743153Y-113372800D01*
X231788432Y-113372800D01*
X231508408Y-113559907D01*
X231255907Y-113812408D01*
X231057518Y-114109317D01*
X230920865Y-114439226D01*
X230851200Y-114789455D01*
X230851200Y-115146545D01*
X230920865Y-115496774D01*
X231057518Y-115826683D01*
X231255907Y-116123592D01*
X231508408Y-116376093D01*
X231805317Y-116574482D01*
X232135226Y-116711135D01*
X232485455Y-116780800D01*
X232842545Y-116780800D01*
X233192774Y-116711135D01*
X233522683Y-116574482D01*
X233819592Y-116376093D01*
X234072093Y-116123592D01*
X234270482Y-115826683D01*
X234407135Y-115496774D01*
X234476800Y-115146545D01*
X234476800Y-114789455D01*
X234407135Y-114439226D01*
X234270482Y-114109317D01*
X234072093Y-113812408D01*
X233819592Y-113559907D01*
X233522683Y-113361518D01*
X233192774Y-113224865D01*
X232842545Y-113155200D01*
X232716899Y-113155200D01*
X232930100Y-113012744D01*
X233154744Y-112788100D01*
X233331245Y-112523947D01*
X233452821Y-112230437D01*
X233514800Y-111918847D01*
X233514800Y-111601153D01*
X233452821Y-111289563D01*
X233331245Y-110996053D01*
X233154744Y-110731900D01*
X232930100Y-110507256D01*
X232665947Y-110330755D01*
X232372437Y-110209179D01*
X232060847Y-110147200D01*
X231743153Y-110147200D01*
X231431563Y-110209179D01*
X231138053Y-110330755D01*
X230873900Y-110507256D01*
X230649256Y-110731900D01*
X230632000Y-110757725D01*
X230614744Y-110731900D01*
X230390100Y-110507256D01*
X230301472Y-110448037D01*
X230627359Y-110383213D01*
X230966367Y-110242792D01*
X231271466Y-110038931D01*
X231530931Y-109779466D01*
X231734792Y-109474367D01*
X231875213Y-109135359D01*
X231946800Y-108775470D01*
X231946800Y-108408530D01*
X231875213Y-108048641D01*
X231734792Y-107709633D01*
X231530931Y-107404534D01*
X231271466Y-107145069D01*
X230966367Y-106941208D01*
X230627359Y-106800787D01*
X230267470Y-106729200D01*
X229900530Y-106729200D01*
X229540641Y-106800787D01*
X229201633Y-106941208D01*
X228896534Y-107145069D01*
X228834000Y-107207603D01*
X228771466Y-107145069D01*
X228466367Y-106941208D01*
X228127359Y-106800787D01*
X227767470Y-106729200D01*
X227400530Y-106729200D01*
X227040641Y-106800787D01*
X226701633Y-106941208D01*
X226396534Y-107145069D01*
X226334000Y-107207603D01*
X226271466Y-107145069D01*
X225966367Y-106941208D01*
X225627359Y-106800787D01*
X225267470Y-106729200D01*
X224900530Y-106729200D01*
X224540641Y-106800787D01*
X224201633Y-106941208D01*
X223896534Y-107145069D01*
X223637069Y-107404534D01*
X223433208Y-107709633D01*
X223292787Y-108048641D01*
X223221200Y-108408530D01*
X221025249Y-108408530D01*
X221021932Y-108400524D01*
X220901808Y-108220746D01*
X221128581Y-107993973D01*
X221310555Y-107721631D01*
X221435900Y-107419021D01*
X221499800Y-107097772D01*
X221499800Y-106770228D01*
X221435900Y-106448979D01*
X221310555Y-106146369D01*
X221128581Y-105874027D01*
X220918554Y-105664000D01*
X221128581Y-105453973D01*
X221310555Y-105181631D01*
X221435900Y-104879021D01*
X221499800Y-104557772D01*
X221499800Y-104230228D01*
X221435900Y-103908979D01*
X221310555Y-103606369D01*
X221128581Y-103334027D01*
X220918554Y-103124000D01*
X221128581Y-102913973D01*
X221200243Y-102806723D01*
X221518447Y-103003924D01*
X221878813Y-103138930D01*
X221977263Y-103160560D01*
X222282400Y-103022504D01*
X222282400Y-101193600D01*
X222485600Y-101193600D01*
X222485600Y-103022504D01*
X222790737Y-103160560D01*
X222889187Y-103138930D01*
X223249553Y-103003924D01*
X223576656Y-102801208D01*
X223857926Y-102538573D01*
X224082554Y-102226111D01*
X224241907Y-101875830D01*
X224329862Y-101501191D01*
X224168652Y-101193600D01*
X222485600Y-101193600D01*
X222282400Y-101193600D01*
X222262400Y-101193600D01*
X222262400Y-100990400D01*
X222282400Y-100990400D01*
X222282400Y-99161496D01*
X221977263Y-99023440D01*
X221878813Y-99045070D01*
X221518447Y-99180076D01*
X221499800Y-99191632D01*
X221499800Y-99150228D01*
X221435900Y-98828979D01*
X221310555Y-98526369D01*
X221128581Y-98254027D01*
X220918554Y-98044000D01*
X221128581Y-97833973D01*
X221216648Y-97702172D01*
X222616670Y-99102195D01*
X222485600Y-99161496D01*
X222485600Y-100990400D01*
X224168652Y-100990400D01*
X224329862Y-100682809D01*
X224268915Y-100423210D01*
X224354101Y-100431600D01*
X224354104Y-100431600D01*
X224409000Y-100437007D01*
X224463896Y-100431600D01*
X225323401Y-100431600D01*
X225323400Y-104099575D01*
X225293077Y-104172781D01*
X225247200Y-104403421D01*
X225247200Y-104638579D01*
X225293077Y-104869219D01*
X225383068Y-105086476D01*
X225513715Y-105282003D01*
X225679997Y-105448285D01*
X225875524Y-105578932D01*
X226092781Y-105668923D01*
X226323421Y-105714800D01*
X226558579Y-105714800D01*
X226789219Y-105668923D01*
X227006476Y-105578932D01*
X227202003Y-105448285D01*
X227368285Y-105282003D01*
X227498932Y-105086476D01*
X227561324Y-104935849D01*
X227638745Y-105013271D01*
X227669068Y-105086476D01*
X227799715Y-105282003D01*
X227965997Y-105448285D01*
X228161524Y-105578932D01*
X228378781Y-105668923D01*
X228609421Y-105714800D01*
X228844579Y-105714800D01*
X229075219Y-105668923D01*
X229292476Y-105578932D01*
X229488003Y-105448285D01*
X229654285Y-105282003D01*
X229784932Y-105086476D01*
X229874923Y-104869219D01*
X229920800Y-104638579D01*
X229920800Y-104403421D01*
X229874923Y-104172781D01*
X229784932Y-103955524D01*
X229654285Y-103759997D01*
X229488003Y-103593715D01*
X229292476Y-103463068D01*
X229219271Y-103432745D01*
X228828600Y-103042075D01*
X228828600Y-101501191D01*
X230838138Y-101501191D01*
X230926093Y-101875830D01*
X231085446Y-102226111D01*
X231310074Y-102538573D01*
X231591344Y-102801208D01*
X231918447Y-103003924D01*
X232278813Y-103138930D01*
X232377263Y-103160560D01*
X232682400Y-103022504D01*
X232682400Y-101193600D01*
X230999348Y-101193600D01*
X230838138Y-101501191D01*
X228828600Y-101501191D01*
X228828600Y-100792924D01*
X228938715Y-100682809D01*
X230838138Y-100682809D01*
X230999348Y-100990400D01*
X232682400Y-100990400D01*
X232682400Y-99161496D01*
X232377263Y-99023440D01*
X232278813Y-99045070D01*
X231918447Y-99180076D01*
X231591344Y-99382792D01*
X231310074Y-99645427D01*
X231085446Y-99957889D01*
X230926093Y-100308170D01*
X230838138Y-100682809D01*
X228938715Y-100682809D01*
X230113443Y-99508082D01*
X230156086Y-99473086D01*
X230241590Y-99368899D01*
X230295746Y-99302910D01*
X230399523Y-99108756D01*
X230418842Y-99045070D01*
X230463429Y-98898088D01*
X230479600Y-98733899D01*
X230479600Y-98733896D01*
X230485007Y-98679000D01*
X230479600Y-98624104D01*
X230479600Y-97291327D01*
X230509923Y-97218121D01*
X230555800Y-96987481D01*
X230555800Y-96752323D01*
X230509923Y-96521683D01*
X230419932Y-96304426D01*
X230289285Y-96108899D01*
X230123003Y-95942617D01*
X229927476Y-95811970D01*
X229710219Y-95721979D01*
X229479579Y-95676102D01*
X229244421Y-95676102D01*
X229013781Y-95721979D01*
X228940575Y-95752302D01*
X227796986Y-95752302D01*
X227742097Y-95746896D01*
X227687208Y-95752302D01*
X227687199Y-95752302D01*
X227523010Y-95768473D01*
X227312342Y-95832379D01*
X227221965Y-95880687D01*
X227118188Y-95936156D01*
X227057004Y-95986369D01*
X226948012Y-96075816D01*
X226913016Y-96118460D01*
X225978076Y-97053400D01*
X225506925Y-97053400D01*
X224002600Y-95549076D01*
X224002600Y-93399896D01*
X224008007Y-93345000D01*
X223997493Y-93238250D01*
X223986429Y-93125912D01*
X223922523Y-92915244D01*
X223818746Y-92721090D01*
X223714082Y-92593557D01*
X223679086Y-92550914D01*
X223639420Y-92518361D01*
X225192201Y-92518361D01*
X225192201Y-92993641D01*
X225284923Y-93459789D01*
X225466805Y-93898891D01*
X225730856Y-94294072D01*
X226066930Y-94630146D01*
X226462111Y-94894197D01*
X226901213Y-95076079D01*
X227367361Y-95168801D01*
X227842641Y-95168801D01*
X228308789Y-95076079D01*
X228747891Y-94894197D01*
X229143072Y-94630146D01*
X229195161Y-94578057D01*
X233808183Y-94578057D01*
X233873674Y-94793960D01*
X234010919Y-95067511D01*
X234198894Y-95309030D01*
X234424320Y-95504000D01*
X234198894Y-95698970D01*
X234010919Y-95940489D01*
X233873674Y-96214040D01*
X233808183Y-96429943D01*
X233951336Y-96672400D01*
X235229400Y-96672400D01*
X235229400Y-94335600D01*
X233951336Y-94335600D01*
X233808183Y-94578057D01*
X229195161Y-94578057D01*
X229479146Y-94294072D01*
X229743197Y-93898891D01*
X229925079Y-93459789D01*
X230017801Y-92993641D01*
X230017801Y-92518361D01*
X229925079Y-92052213D01*
X229743197Y-91613111D01*
X229479146Y-91217930D01*
X229143072Y-90881856D01*
X228747891Y-90617805D01*
X228308789Y-90435923D01*
X227842641Y-90343201D01*
X227367361Y-90343201D01*
X226901213Y-90435923D01*
X226462111Y-90617805D01*
X226066930Y-90881856D01*
X225730856Y-91217930D01*
X225466805Y-91613111D01*
X225284923Y-92052213D01*
X225192201Y-92518361D01*
X223639420Y-92518361D01*
X223636443Y-92515918D01*
X222063087Y-90942563D01*
X222028086Y-90899914D01*
X221857909Y-90760254D01*
X221663756Y-90656477D01*
X221460814Y-90594915D01*
X221441562Y-90531450D01*
X221366088Y-90390248D01*
X221264517Y-90266483D01*
X221140752Y-90164912D01*
X220999550Y-90089438D01*
X220846337Y-90042961D01*
X220687000Y-90027268D01*
X218987000Y-90027268D01*
X218827663Y-90042961D01*
X218819800Y-90045346D01*
X218819800Y-88088530D01*
X223221200Y-88088530D01*
X223221200Y-88455470D01*
X223292787Y-88815359D01*
X223433208Y-89154367D01*
X223637069Y-89459466D01*
X223896534Y-89718931D01*
X224201633Y-89922792D01*
X224540641Y-90063213D01*
X224900530Y-90134800D01*
X225267470Y-90134800D01*
X225627359Y-90063213D01*
X225966367Y-89922792D01*
X226271466Y-89718931D01*
X226334000Y-89656397D01*
X226396534Y-89718931D01*
X226701633Y-89922792D01*
X227040641Y-90063213D01*
X227400530Y-90134800D01*
X227767470Y-90134800D01*
X228127359Y-90063213D01*
X228466367Y-89922792D01*
X228771466Y-89718931D01*
X228834000Y-89656397D01*
X228896534Y-89718931D01*
X229201633Y-89922792D01*
X229540641Y-90063213D01*
X229900530Y-90134800D01*
X230267470Y-90134800D01*
X230627359Y-90063213D01*
X230966367Y-89922792D01*
X231271466Y-89718931D01*
X231530931Y-89459466D01*
X231734792Y-89154367D01*
X231875213Y-88815359D01*
X231946800Y-88455470D01*
X231946800Y-88088530D01*
X231875213Y-87728641D01*
X231734792Y-87389633D01*
X231530931Y-87084534D01*
X231271466Y-86825069D01*
X230966367Y-86621208D01*
X230627359Y-86480787D01*
X230267470Y-86409200D01*
X229900530Y-86409200D01*
X229540641Y-86480787D01*
X229201633Y-86621208D01*
X228896534Y-86825069D01*
X228834000Y-86887603D01*
X228771466Y-86825069D01*
X228466367Y-86621208D01*
X228127359Y-86480787D01*
X227767470Y-86409200D01*
X227400530Y-86409200D01*
X227040641Y-86480787D01*
X226701633Y-86621208D01*
X226396534Y-86825069D01*
X226334000Y-86887603D01*
X226271466Y-86825069D01*
X225966367Y-86621208D01*
X225627359Y-86480787D01*
X225267470Y-86409200D01*
X224900530Y-86409200D01*
X224540641Y-86480787D01*
X224201633Y-86621208D01*
X223896534Y-86825069D01*
X223637069Y-87084534D01*
X223433208Y-87389633D01*
X223292787Y-87728641D01*
X223221200Y-88088530D01*
X218819800Y-88088530D01*
X218819800Y-81181191D01*
X220438138Y-81181191D01*
X220526093Y-81555830D01*
X220685446Y-81906111D01*
X220910074Y-82218573D01*
X221191344Y-82481208D01*
X221518447Y-82683924D01*
X221878813Y-82818930D01*
X221977263Y-82840560D01*
X222282400Y-82702504D01*
X222282400Y-80873600D01*
X222485600Y-80873600D01*
X222485600Y-82702504D01*
X222790737Y-82840560D01*
X222889187Y-82818930D01*
X223249553Y-82683924D01*
X223576656Y-82481208D01*
X223857926Y-82218573D01*
X224082554Y-81906111D01*
X224241907Y-81555830D01*
X224329862Y-81181191D01*
X230838138Y-81181191D01*
X230926093Y-81555830D01*
X231085446Y-81906111D01*
X231310074Y-82218573D01*
X231591344Y-82481208D01*
X231918447Y-82683924D01*
X232278813Y-82818930D01*
X232377263Y-82840560D01*
X232682400Y-82702504D01*
X232682400Y-80873600D01*
X232885600Y-80873600D01*
X232885600Y-82702504D01*
X233190737Y-82840560D01*
X233289187Y-82818930D01*
X233649553Y-82683924D01*
X233976656Y-82481208D01*
X234257926Y-82218573D01*
X234482554Y-81906111D01*
X234641907Y-81555830D01*
X234729862Y-81181191D01*
X234568652Y-80873600D01*
X232885600Y-80873600D01*
X232682400Y-80873600D01*
X230999348Y-80873600D01*
X230838138Y-81181191D01*
X224329862Y-81181191D01*
X224168652Y-80873600D01*
X222485600Y-80873600D01*
X222282400Y-80873600D01*
X220599348Y-80873600D01*
X220438138Y-81181191D01*
X218819800Y-81181191D01*
X218819800Y-80362809D01*
X220438138Y-80362809D01*
X220599348Y-80670400D01*
X222282400Y-80670400D01*
X222282400Y-78841496D01*
X222485600Y-78841496D01*
X222485600Y-80670400D01*
X224168652Y-80670400D01*
X224329862Y-80362809D01*
X230838138Y-80362809D01*
X230999348Y-80670400D01*
X232682400Y-80670400D01*
X232682400Y-78841496D01*
X232885600Y-78841496D01*
X232885600Y-80670400D01*
X234568652Y-80670400D01*
X234729862Y-80362809D01*
X234641907Y-79988170D01*
X234482554Y-79637889D01*
X234257926Y-79325427D01*
X233976656Y-79062792D01*
X233649553Y-78860076D01*
X233289187Y-78725070D01*
X233190737Y-78703440D01*
X232885600Y-78841496D01*
X232682400Y-78841496D01*
X232377263Y-78703440D01*
X232278813Y-78725070D01*
X231918447Y-78860076D01*
X231591344Y-79062792D01*
X231310074Y-79325427D01*
X231085446Y-79637889D01*
X230926093Y-79988170D01*
X230838138Y-80362809D01*
X224329862Y-80362809D01*
X224241907Y-79988170D01*
X224082554Y-79637889D01*
X223857926Y-79325427D01*
X223576656Y-79062792D01*
X223249553Y-78860076D01*
X222889187Y-78725070D01*
X222790737Y-78703440D01*
X222485600Y-78841496D01*
X222282400Y-78841496D01*
X221977263Y-78703440D01*
X221878813Y-78725070D01*
X221518447Y-78860076D01*
X221191344Y-79062792D01*
X220910074Y-79325427D01*
X220685446Y-79637889D01*
X220526093Y-79988170D01*
X220438138Y-80362809D01*
X218819800Y-80362809D01*
X218819800Y-74978409D01*
X218965256Y-75196100D01*
X219189900Y-75420744D01*
X219454053Y-75597245D01*
X219747563Y-75718821D01*
X220059153Y-75780800D01*
X220376847Y-75780800D01*
X220688437Y-75718821D01*
X220859923Y-75647789D01*
X220814715Y-75692997D01*
X220684068Y-75888524D01*
X220594077Y-76105781D01*
X220548200Y-76336421D01*
X220548200Y-76571579D01*
X220594077Y-76802219D01*
X220684068Y-77019476D01*
X220814715Y-77215003D01*
X220980997Y-77381285D01*
X221176524Y-77511932D01*
X221393781Y-77601923D01*
X221624421Y-77647800D01*
X221859579Y-77647800D01*
X222090219Y-77601923D01*
X222163425Y-77571600D01*
X224241575Y-77571600D01*
X224314781Y-77601923D01*
X224545421Y-77647800D01*
X224780579Y-77647800D01*
X225011219Y-77601923D01*
X225228476Y-77511932D01*
X225424003Y-77381285D01*
X225590285Y-77215003D01*
X225720932Y-77019476D01*
X225810923Y-76802219D01*
X225856800Y-76571579D01*
X225856800Y-76336421D01*
X225810923Y-76105781D01*
X225720932Y-75888524D01*
X225590285Y-75692997D01*
X225424003Y-75526715D01*
X225228476Y-75396068D01*
X225011219Y-75306077D01*
X224780579Y-75260200D01*
X224545421Y-75260200D01*
X224314781Y-75306077D01*
X224241575Y-75336400D01*
X223870444Y-75336400D01*
X224010744Y-75196100D01*
X224187245Y-74931947D01*
X224308821Y-74638437D01*
X224370800Y-74326847D01*
X224370800Y-74009153D01*
X225463200Y-74009153D01*
X225463200Y-74326847D01*
X225525179Y-74638437D01*
X225646755Y-74931947D01*
X225823256Y-75196100D01*
X226047900Y-75420744D01*
X226312053Y-75597245D01*
X226605563Y-75718821D01*
X226917153Y-75780800D01*
X227234847Y-75780800D01*
X227546437Y-75718821D01*
X227839947Y-75597245D01*
X228104100Y-75420744D01*
X228328744Y-75196100D01*
X228346000Y-75170275D01*
X228363256Y-75196100D01*
X228587900Y-75420744D01*
X228852053Y-75597245D01*
X229145563Y-75718821D01*
X229457153Y-75780800D01*
X229774847Y-75780800D01*
X230086437Y-75718821D01*
X230379947Y-75597245D01*
X230644100Y-75420744D01*
X230868744Y-75196100D01*
X231045245Y-74931947D01*
X231166821Y-74638437D01*
X231228800Y-74326847D01*
X231228800Y-74009153D01*
X231166821Y-73697563D01*
X231045245Y-73404053D01*
X230868744Y-73139900D01*
X230644100Y-72915256D01*
X230379947Y-72738755D01*
X230086437Y-72617179D01*
X229774847Y-72555200D01*
X229457153Y-72555200D01*
X229145563Y-72617179D01*
X228852053Y-72738755D01*
X228587900Y-72915256D01*
X228363256Y-73139900D01*
X228346000Y-73165725D01*
X228328744Y-73139900D01*
X228104100Y-72915256D01*
X227839947Y-72738755D01*
X227546437Y-72617179D01*
X227234847Y-72555200D01*
X226917153Y-72555200D01*
X226605563Y-72617179D01*
X226312053Y-72738755D01*
X226047900Y-72915256D01*
X225823256Y-73139900D01*
X225646755Y-73404053D01*
X225525179Y-73697563D01*
X225463200Y-74009153D01*
X224370800Y-74009153D01*
X224308821Y-73697563D01*
X224187245Y-73404053D01*
X224010744Y-73139900D01*
X223786100Y-72915256D01*
X223521947Y-72738755D01*
X223228437Y-72617179D01*
X222916847Y-72555200D01*
X222599153Y-72555200D01*
X222287563Y-72617179D01*
X221994053Y-72738755D01*
X221729900Y-72915256D01*
X221505256Y-73139900D01*
X221488000Y-73165725D01*
X221470744Y-73139900D01*
X221246100Y-72915256D01*
X220981947Y-72738755D01*
X220688437Y-72617179D01*
X220376847Y-72555200D01*
X220059153Y-72555200D01*
X219747563Y-72617179D01*
X219454053Y-72738755D01*
X219189900Y-72915256D01*
X218965256Y-73139900D01*
X218819800Y-73357591D01*
X218819800Y-72272421D01*
X231343200Y-72272421D01*
X231343200Y-72507579D01*
X231389077Y-72738219D01*
X231419401Y-72811427D01*
X231419400Y-75524575D01*
X231389077Y-75597781D01*
X231343200Y-75828421D01*
X231343200Y-76063579D01*
X231389077Y-76294219D01*
X231479068Y-76511476D01*
X231609715Y-76707003D01*
X231775997Y-76873285D01*
X231971524Y-77003932D01*
X232188781Y-77093923D01*
X232419421Y-77139800D01*
X232654579Y-77139800D01*
X232885219Y-77093923D01*
X233102476Y-77003932D01*
X233298003Y-76873285D01*
X233464285Y-76707003D01*
X233594932Y-76511476D01*
X233684923Y-76294219D01*
X233730800Y-76063579D01*
X233730800Y-75828421D01*
X233684923Y-75597781D01*
X233654600Y-75524575D01*
X233654600Y-72811425D01*
X233684923Y-72738219D01*
X233730800Y-72507579D01*
X233730800Y-72272421D01*
X233684923Y-72041781D01*
X233594932Y-71824524D01*
X233464285Y-71628997D01*
X233298003Y-71462715D01*
X233102476Y-71332068D01*
X232885219Y-71242077D01*
X232654579Y-71196200D01*
X232419421Y-71196200D01*
X232188781Y-71242077D01*
X231971524Y-71332068D01*
X231775997Y-71462715D01*
X231609715Y-71628997D01*
X231479068Y-71824524D01*
X231389077Y-72041781D01*
X231343200Y-72272421D01*
X218819800Y-72272421D01*
X218819800Y-71422409D01*
X218965256Y-71640100D01*
X219189900Y-71864744D01*
X219454053Y-72041245D01*
X219747563Y-72162821D01*
X220059153Y-72224800D01*
X220376847Y-72224800D01*
X220688437Y-72162821D01*
X220981947Y-72041245D01*
X221246100Y-71864744D01*
X221470744Y-71640100D01*
X221488000Y-71614275D01*
X221505256Y-71640100D01*
X221729900Y-71864744D01*
X221994053Y-72041245D01*
X222287563Y-72162821D01*
X222599153Y-72224800D01*
X222916847Y-72224800D01*
X223228437Y-72162821D01*
X223521947Y-72041245D01*
X223786100Y-71864744D01*
X224010744Y-71640100D01*
X224187245Y-71375947D01*
X224308821Y-71082437D01*
X224370800Y-70770847D01*
X224370800Y-70453153D01*
X224308821Y-70141563D01*
X224187245Y-69848053D01*
X224010744Y-69583900D01*
X223786100Y-69359256D01*
X223521947Y-69182755D01*
X223228437Y-69061179D01*
X222916847Y-68999200D01*
X222599153Y-68999200D01*
X222287563Y-69061179D01*
X221994053Y-69182755D01*
X221729900Y-69359256D01*
X221505256Y-69583900D01*
X221488000Y-69609725D01*
X221470744Y-69583900D01*
X221246100Y-69359256D01*
X220981947Y-69182755D01*
X220688437Y-69061179D01*
X220376847Y-68999200D01*
X220059153Y-68999200D01*
X219747563Y-69061179D01*
X219454053Y-69182755D01*
X219189900Y-69359256D01*
X218965256Y-69583900D01*
X218819800Y-69801591D01*
X218819800Y-64017421D01*
X219024200Y-64017421D01*
X219024200Y-64252579D01*
X219070077Y-64483219D01*
X219151201Y-64679069D01*
X219151200Y-66511933D01*
X219070077Y-66707781D01*
X219024200Y-66938421D01*
X219024200Y-67173579D01*
X219070077Y-67404219D01*
X219160068Y-67621476D01*
X219290715Y-67817003D01*
X219456997Y-67983285D01*
X219652524Y-68113932D01*
X219869781Y-68203923D01*
X220100421Y-68249800D01*
X220335579Y-68249800D01*
X220566219Y-68203923D01*
X220783476Y-68113932D01*
X220977699Y-67984156D01*
X223314570Y-67984156D01*
X223354842Y-68328737D01*
X223461565Y-68658840D01*
X223594907Y-68908305D01*
X223888794Y-69003522D01*
X224940316Y-67952000D01*
X223888794Y-66900478D01*
X223594907Y-66995695D01*
X223436954Y-67304578D01*
X223342296Y-67638340D01*
X223314570Y-67984156D01*
X220977699Y-67984156D01*
X220979003Y-67983285D01*
X221145285Y-67817003D01*
X221275932Y-67621476D01*
X221365923Y-67404219D01*
X221411800Y-67173579D01*
X221411800Y-66938421D01*
X221375673Y-66756794D01*
X224032478Y-66756794D01*
X225084000Y-67808316D01*
X225098143Y-67794174D01*
X225241827Y-67937858D01*
X225227684Y-67952000D01*
X225241827Y-67966143D01*
X225098143Y-68109827D01*
X225084000Y-68095684D01*
X224032478Y-69147206D01*
X224127695Y-69441093D01*
X224436578Y-69599046D01*
X224770340Y-69693704D01*
X225116156Y-69721430D01*
X225460737Y-69681158D01*
X225790840Y-69574435D01*
X225880812Y-69526344D01*
X225823256Y-69583900D01*
X225646755Y-69848053D01*
X225525179Y-70141563D01*
X225463200Y-70453153D01*
X225463200Y-70770847D01*
X225525179Y-71082437D01*
X225646755Y-71375947D01*
X225823256Y-71640100D01*
X226047900Y-71864744D01*
X226312053Y-72041245D01*
X226605563Y-72162821D01*
X226917153Y-72224800D01*
X227234847Y-72224800D01*
X227546437Y-72162821D01*
X227839947Y-72041245D01*
X228104100Y-71864744D01*
X228328744Y-71640100D01*
X228346000Y-71614275D01*
X228363256Y-71640100D01*
X228587900Y-71864744D01*
X228852053Y-72041245D01*
X229145563Y-72162821D01*
X229457153Y-72224800D01*
X229774847Y-72224800D01*
X230086437Y-72162821D01*
X230379947Y-72041245D01*
X230644100Y-71864744D01*
X230868744Y-71640100D01*
X231045245Y-71375947D01*
X231166821Y-71082437D01*
X231228800Y-70770847D01*
X231228800Y-70453153D01*
X231166821Y-70141563D01*
X231045245Y-69848053D01*
X230899793Y-69630368D01*
X230966367Y-69602792D01*
X231271466Y-69398931D01*
X231530931Y-69139466D01*
X231734792Y-68834367D01*
X231875213Y-68495359D01*
X231946800Y-68135470D01*
X231946800Y-67768530D01*
X231875213Y-67408641D01*
X231734792Y-67069633D01*
X231530931Y-66764534D01*
X231271466Y-66505069D01*
X230966367Y-66301208D01*
X230627359Y-66160787D01*
X230267470Y-66089200D01*
X229900530Y-66089200D01*
X229540641Y-66160787D01*
X229201633Y-66301208D01*
X228896534Y-66505069D01*
X228834000Y-66567603D01*
X228771466Y-66505069D01*
X228466367Y-66301208D01*
X228127359Y-66160787D01*
X227767470Y-66089200D01*
X227400530Y-66089200D01*
X227040641Y-66160787D01*
X226701633Y-66301208D01*
X226396534Y-66505069D01*
X226267488Y-66634115D01*
X226262843Y-66629470D01*
X226135521Y-66756792D01*
X226040305Y-66462907D01*
X225731422Y-66304954D01*
X225397660Y-66210296D01*
X225051844Y-66182570D01*
X224707263Y-66222842D01*
X224377160Y-66329565D01*
X224127695Y-66462907D01*
X224032478Y-66756794D01*
X221375673Y-66756794D01*
X221365923Y-66707781D01*
X221284800Y-66511933D01*
X221284800Y-64679067D01*
X221365923Y-64483219D01*
X221411800Y-64252579D01*
X221411800Y-64017421D01*
X221365923Y-63786781D01*
X221275932Y-63569524D01*
X221145285Y-63373997D01*
X220979003Y-63207715D01*
X220783476Y-63077068D01*
X220566219Y-62987077D01*
X220335579Y-62941200D01*
X220100421Y-62941200D01*
X219869781Y-62987077D01*
X219652524Y-63077068D01*
X219456997Y-63207715D01*
X219290715Y-63373997D01*
X219160068Y-63569524D01*
X219070077Y-63786781D01*
X219024200Y-64017421D01*
X218819800Y-64017421D01*
X218819800Y-60861191D01*
X220438138Y-60861191D01*
X220526093Y-61235830D01*
X220685446Y-61586111D01*
X220910074Y-61898573D01*
X221191344Y-62161208D01*
X221518447Y-62363924D01*
X221878813Y-62498930D01*
X221977263Y-62520560D01*
X222282400Y-62382504D01*
X222282400Y-60553600D01*
X222485600Y-60553600D01*
X222485600Y-62382504D01*
X222790737Y-62520560D01*
X222889187Y-62498930D01*
X223249553Y-62363924D01*
X223576656Y-62161208D01*
X223857926Y-61898573D01*
X224082554Y-61586111D01*
X224241907Y-61235830D01*
X224329862Y-60861191D01*
X230838138Y-60861191D01*
X230926093Y-61235830D01*
X231085446Y-61586111D01*
X231310074Y-61898573D01*
X231591344Y-62161208D01*
X231918447Y-62363924D01*
X232278813Y-62498930D01*
X232377263Y-62520560D01*
X232682400Y-62382504D01*
X232682400Y-60553600D01*
X232885600Y-60553600D01*
X232885600Y-62382504D01*
X233190737Y-62520560D01*
X233289187Y-62498930D01*
X233649553Y-62363924D01*
X233976656Y-62161208D01*
X234257926Y-61898573D01*
X234482554Y-61586111D01*
X234641907Y-61235830D01*
X234729862Y-60861191D01*
X234568652Y-60553600D01*
X232885600Y-60553600D01*
X232682400Y-60553600D01*
X230999348Y-60553600D01*
X230838138Y-60861191D01*
X224329862Y-60861191D01*
X224168652Y-60553600D01*
X222485600Y-60553600D01*
X222282400Y-60553600D01*
X220599348Y-60553600D01*
X220438138Y-60861191D01*
X218819800Y-60861191D01*
X218819800Y-58799800D01*
X221130291Y-58799800D01*
X220910074Y-59005427D01*
G37*
G04 #@! TD.AperFunction*
G04 #@! TD*
M02*
