G04 #@! TF.GenerationSoftware,KiCad,Pcbnew,(5.1.9-0-10_14)*
G04 #@! TF.CreationDate,2021-02-07T03:36:00-06:00*
G04 #@! TF.ProjectId,JNTUB_board1,4a4e5455-425f-4626-9f61-7264312e6b69,rev?*
G04 #@! TF.SameCoordinates,Original*
G04 #@! TF.FileFunction,Legend,Top*
G04 #@! TF.FilePolarity,Positive*
%FSLAX46Y46*%
G04 Gerber Fmt 4.6, Leading zero omitted, Abs format (unit mm)*
G04 Created by KiCad (PCBNEW (5.1.9-0-10_14)) date 2021-02-07 03:36:00*
%MOMM*%
%LPD*%
G01*
G04 APERTURE LIST*
%ADD10C,0.200000*%
%ADD11C,0.150000*%
%ADD12C,0.120000*%
%ADD13C,0.100000*%
G04 APERTURE END LIST*
D10*
X219400380Y-124118190D02*
X218400380Y-124118190D01*
X218400380Y-123737238D01*
X218448000Y-123642000D01*
X218495619Y-123594380D01*
X218590857Y-123546761D01*
X218733714Y-123546761D01*
X218828952Y-123594380D01*
X218876571Y-123642000D01*
X218924190Y-123737238D01*
X218924190Y-124118190D01*
X219114666Y-123165809D02*
X219114666Y-122689619D01*
X219400380Y-123261047D02*
X218400380Y-122927714D01*
X219400380Y-122594380D01*
X219400380Y-121689619D02*
X218924190Y-122022952D01*
X219400380Y-122261047D02*
X218400380Y-122261047D01*
X218400380Y-121880095D01*
X218448000Y-121784857D01*
X218495619Y-121737238D01*
X218590857Y-121689619D01*
X218733714Y-121689619D01*
X218828952Y-121737238D01*
X218876571Y-121784857D01*
X218924190Y-121880095D01*
X218924190Y-122261047D01*
X219114666Y-121308666D02*
X219114666Y-120832476D01*
X219400380Y-121403904D02*
X218400380Y-121070571D01*
X219400380Y-120737238D01*
X219400380Y-120403904D02*
X218400380Y-120403904D01*
X219114666Y-120070571D01*
X218400380Y-119737238D01*
X219400380Y-119737238D01*
X219400380Y-118737238D02*
X219400380Y-119308666D01*
X219400380Y-119022952D02*
X218400380Y-119022952D01*
X218543238Y-119118190D01*
X218638476Y-119213428D01*
X218686095Y-119308666D01*
X219495619Y-118546761D02*
X219495619Y-117784857D01*
X219305142Y-116975333D02*
X219352761Y-117022952D01*
X219400380Y-117165809D01*
X219400380Y-117261047D01*
X219352761Y-117403904D01*
X219257523Y-117499142D01*
X219162285Y-117546761D01*
X218971809Y-117594380D01*
X218828952Y-117594380D01*
X218638476Y-117546761D01*
X218543238Y-117499142D01*
X218448000Y-117403904D01*
X218400380Y-117261047D01*
X218400380Y-117165809D01*
X218448000Y-117022952D01*
X218495619Y-116975333D01*
X218400380Y-116689619D02*
X219400380Y-116356285D01*
X218400380Y-116022952D01*
X229560380Y-123991190D02*
X228560380Y-123991190D01*
X228560380Y-123610238D01*
X228608000Y-123515000D01*
X228655619Y-123467380D01*
X228750857Y-123419761D01*
X228893714Y-123419761D01*
X228988952Y-123467380D01*
X229036571Y-123515000D01*
X229084190Y-123610238D01*
X229084190Y-123991190D01*
X229274666Y-123038809D02*
X229274666Y-122562619D01*
X229560380Y-123134047D02*
X228560380Y-122800714D01*
X229560380Y-122467380D01*
X229560380Y-121562619D02*
X229084190Y-121895952D01*
X229560380Y-122134047D02*
X228560380Y-122134047D01*
X228560380Y-121753095D01*
X228608000Y-121657857D01*
X228655619Y-121610238D01*
X228750857Y-121562619D01*
X228893714Y-121562619D01*
X228988952Y-121610238D01*
X229036571Y-121657857D01*
X229084190Y-121753095D01*
X229084190Y-122134047D01*
X229274666Y-121181666D02*
X229274666Y-120705476D01*
X229560380Y-121276904D02*
X228560380Y-120943571D01*
X229560380Y-120610238D01*
X229560380Y-120276904D02*
X228560380Y-120276904D01*
X229274666Y-119943571D01*
X228560380Y-119610238D01*
X229560380Y-119610238D01*
X228655619Y-119181666D02*
X228608000Y-119134047D01*
X228560380Y-119038809D01*
X228560380Y-118800714D01*
X228608000Y-118705476D01*
X228655619Y-118657857D01*
X228750857Y-118610238D01*
X228846095Y-118610238D01*
X228988952Y-118657857D01*
X229560380Y-119229285D01*
X229560380Y-118610238D01*
X229655619Y-118419761D02*
X229655619Y-117657857D01*
X229465142Y-116848333D02*
X229512761Y-116895952D01*
X229560380Y-117038809D01*
X229560380Y-117134047D01*
X229512761Y-117276904D01*
X229417523Y-117372142D01*
X229322285Y-117419761D01*
X229131809Y-117467380D01*
X228988952Y-117467380D01*
X228798476Y-117419761D01*
X228703238Y-117372142D01*
X228608000Y-117276904D01*
X228560380Y-117134047D01*
X228560380Y-117038809D01*
X228608000Y-116895952D01*
X228655619Y-116848333D01*
X228560380Y-116562619D02*
X229560380Y-116229285D01*
X228560380Y-115895952D01*
X229433380Y-138183714D02*
X228433380Y-138183714D01*
X228433380Y-137945619D01*
X228481000Y-137802761D01*
X228576238Y-137707523D01*
X228671476Y-137659904D01*
X228861952Y-137612285D01*
X229004809Y-137612285D01*
X229195285Y-137659904D01*
X229290523Y-137707523D01*
X229385761Y-137802761D01*
X229433380Y-137945619D01*
X229433380Y-138183714D01*
X229433380Y-137183714D02*
X228433380Y-137183714D01*
X228433380Y-136850380D02*
X228433380Y-136278952D01*
X229433380Y-136564666D02*
X228433380Y-136564666D01*
X228433380Y-136088476D02*
X228433380Y-135517047D01*
X229433380Y-135802761D02*
X228433380Y-135802761D01*
X228433380Y-134993238D02*
X228433380Y-134802761D01*
X228481000Y-134707523D01*
X228576238Y-134612285D01*
X228766714Y-134564666D01*
X229100047Y-134564666D01*
X229290523Y-134612285D01*
X229385761Y-134707523D01*
X229433380Y-134802761D01*
X229433380Y-134993238D01*
X229385761Y-135088476D01*
X229290523Y-135183714D01*
X229100047Y-135231333D01*
X228766714Y-135231333D01*
X228576238Y-135183714D01*
X228481000Y-135088476D01*
X228433380Y-134993238D01*
X219305142Y-137628000D02*
X219352761Y-137675619D01*
X219400380Y-137818476D01*
X219400380Y-137913714D01*
X219352761Y-138056571D01*
X219257523Y-138151809D01*
X219162285Y-138199428D01*
X218971809Y-138247047D01*
X218828952Y-138247047D01*
X218638476Y-138199428D01*
X218543238Y-138151809D01*
X218448000Y-138056571D01*
X218400380Y-137913714D01*
X218400380Y-137818476D01*
X218448000Y-137675619D01*
X218495619Y-137628000D01*
X219400380Y-136723238D02*
X219400380Y-137199428D01*
X218400380Y-137199428D01*
X219400380Y-136389904D02*
X218400380Y-136389904D01*
X219400380Y-135818476D02*
X218828952Y-136247047D01*
X218400380Y-135818476D02*
X218971809Y-136389904D01*
X218352761Y-134675619D02*
X219638476Y-135532761D01*
X218400380Y-134485142D02*
X218400380Y-133913714D01*
X219400380Y-134199428D02*
X218400380Y-134199428D01*
X219400380Y-133008952D02*
X218924190Y-133342285D01*
X219400380Y-133580380D02*
X218400380Y-133580380D01*
X218400380Y-133199428D01*
X218448000Y-133104190D01*
X218495619Y-133056571D01*
X218590857Y-133008952D01*
X218733714Y-133008952D01*
X218828952Y-133056571D01*
X218876571Y-133104190D01*
X218924190Y-133199428D01*
X218924190Y-133580380D01*
X218448000Y-132056571D02*
X218400380Y-132151809D01*
X218400380Y-132294666D01*
X218448000Y-132437523D01*
X218543238Y-132532761D01*
X218638476Y-132580380D01*
X218828952Y-132628000D01*
X218971809Y-132628000D01*
X219162285Y-132580380D01*
X219257523Y-132532761D01*
X219352761Y-132437523D01*
X219400380Y-132294666D01*
X219400380Y-132199428D01*
X219352761Y-132056571D01*
X219305142Y-132008952D01*
X218971809Y-132008952D01*
X218971809Y-132199428D01*
X228433380Y-149304190D02*
X228433380Y-149113714D01*
X228481000Y-149018476D01*
X228576238Y-148923238D01*
X228766714Y-148875619D01*
X229100047Y-148875619D01*
X229290523Y-148923238D01*
X229385761Y-149018476D01*
X229433380Y-149113714D01*
X229433380Y-149304190D01*
X229385761Y-149399428D01*
X229290523Y-149494666D01*
X229100047Y-149542285D01*
X228766714Y-149542285D01*
X228576238Y-149494666D01*
X228481000Y-149399428D01*
X228433380Y-149304190D01*
X228433380Y-148447047D02*
X229242904Y-148447047D01*
X229338142Y-148399428D01*
X229385761Y-148351809D01*
X229433380Y-148256571D01*
X229433380Y-148066095D01*
X229385761Y-147970857D01*
X229338142Y-147923238D01*
X229242904Y-147875619D01*
X228433380Y-147875619D01*
X228433380Y-147542285D02*
X228433380Y-146970857D01*
X229433380Y-147256571D02*
X228433380Y-147256571D01*
X228528619Y-146685142D02*
X228481000Y-146637523D01*
X228433380Y-146542285D01*
X228433380Y-146304190D01*
X228481000Y-146208952D01*
X228528619Y-146161333D01*
X228623857Y-146113714D01*
X228719095Y-146113714D01*
X228861952Y-146161333D01*
X229433380Y-146732761D01*
X229433380Y-146113714D01*
X218400380Y-149304190D02*
X218400380Y-149113714D01*
X218448000Y-149018476D01*
X218543238Y-148923238D01*
X218733714Y-148875619D01*
X219067047Y-148875619D01*
X219257523Y-148923238D01*
X219352761Y-149018476D01*
X219400380Y-149113714D01*
X219400380Y-149304190D01*
X219352761Y-149399428D01*
X219257523Y-149494666D01*
X219067047Y-149542285D01*
X218733714Y-149542285D01*
X218543238Y-149494666D01*
X218448000Y-149399428D01*
X218400380Y-149304190D01*
X218400380Y-148447047D02*
X219209904Y-148447047D01*
X219305142Y-148399428D01*
X219352761Y-148351809D01*
X219400380Y-148256571D01*
X219400380Y-148066095D01*
X219352761Y-147970857D01*
X219305142Y-147923238D01*
X219209904Y-147875619D01*
X218400380Y-147875619D01*
X218400380Y-147542285D02*
X218400380Y-146970857D01*
X219400380Y-147256571D02*
X218400380Y-147256571D01*
X219400380Y-146113714D02*
X219400380Y-146685142D01*
X219400380Y-146399428D02*
X218400380Y-146399428D01*
X218543238Y-146494666D01*
X218638476Y-146589904D01*
X218686095Y-146685142D01*
D11*
X218173428Y-93148142D02*
X218782952Y-93148142D01*
X219544857Y-92652904D02*
X219163904Y-92652904D01*
X219125809Y-93033857D01*
X219163904Y-92995761D01*
X219240095Y-92957666D01*
X219430571Y-92957666D01*
X219506761Y-92995761D01*
X219544857Y-93033857D01*
X219582952Y-93110047D01*
X219582952Y-93300523D01*
X219544857Y-93376714D01*
X219506761Y-93414809D01*
X219430571Y-93452904D01*
X219240095Y-93452904D01*
X219163904Y-93414809D01*
X219125809Y-93376714D01*
X219811523Y-92652904D02*
X220078190Y-93452904D01*
X220344857Y-92652904D01*
X218192428Y-95865904D02*
X218192428Y-95065904D01*
X218649571Y-95865904D01*
X218649571Y-95065904D01*
X219487666Y-95789714D02*
X219449571Y-95827809D01*
X219335285Y-95865904D01*
X219259095Y-95865904D01*
X219144809Y-95827809D01*
X219068619Y-95751619D01*
X219030523Y-95675428D01*
X218992428Y-95523047D01*
X218992428Y-95408761D01*
X219030523Y-95256380D01*
X219068619Y-95180190D01*
X219144809Y-95104000D01*
X219259095Y-95065904D01*
X219335285Y-95065904D01*
X219449571Y-95104000D01*
X219487666Y-95142095D01*
X218173428Y-90354142D02*
X218782952Y-90354142D01*
X218478190Y-90658904D02*
X218478190Y-90049380D01*
X219544857Y-89858904D02*
X219163904Y-89858904D01*
X219125809Y-90239857D01*
X219163904Y-90201761D01*
X219240095Y-90163666D01*
X219430571Y-90163666D01*
X219506761Y-90201761D01*
X219544857Y-90239857D01*
X219582952Y-90316047D01*
X219582952Y-90506523D01*
X219544857Y-90582714D01*
X219506761Y-90620809D01*
X219430571Y-90658904D01*
X219240095Y-90658904D01*
X219163904Y-90620809D01*
X219125809Y-90582714D01*
X219811523Y-89858904D02*
X220078190Y-90658904D01*
X220344857Y-89858904D01*
X218230523Y-103612904D02*
X218230523Y-102812904D01*
X218535285Y-102812904D01*
X218611476Y-102851000D01*
X218649571Y-102889095D01*
X218687666Y-102965285D01*
X218687666Y-103079571D01*
X218649571Y-103155761D01*
X218611476Y-103193857D01*
X218535285Y-103231952D01*
X218230523Y-103231952D01*
X218954333Y-102812904D02*
X219449571Y-102812904D01*
X219182904Y-103117666D01*
X219297190Y-103117666D01*
X219373380Y-103155761D01*
X219411476Y-103193857D01*
X219449571Y-103270047D01*
X219449571Y-103460523D01*
X219411476Y-103536714D01*
X219373380Y-103574809D01*
X219297190Y-103612904D01*
X219068619Y-103612904D01*
X218992428Y-103574809D01*
X218954333Y-103536714D01*
X218573380Y-100945904D02*
X218192428Y-100945904D01*
X218192428Y-100145904D01*
X218840047Y-100641142D02*
X219449571Y-100641142D01*
X219144809Y-100945904D02*
X219144809Y-100336380D01*
X218230523Y-106025904D02*
X218230523Y-105225904D01*
X218535285Y-105225904D01*
X218611476Y-105264000D01*
X218649571Y-105302095D01*
X218687666Y-105378285D01*
X218687666Y-105492571D01*
X218649571Y-105568761D01*
X218611476Y-105606857D01*
X218535285Y-105644952D01*
X218230523Y-105644952D01*
X218992428Y-105302095D02*
X219030523Y-105264000D01*
X219106714Y-105225904D01*
X219297190Y-105225904D01*
X219373380Y-105264000D01*
X219411476Y-105302095D01*
X219449571Y-105378285D01*
X219449571Y-105454476D01*
X219411476Y-105568761D01*
X218954333Y-106025904D01*
X219449571Y-106025904D01*
X218573380Y-98405904D02*
X218192428Y-98405904D01*
X218192428Y-97605904D01*
X218840047Y-98101142D02*
X219449571Y-98101142D01*
X235356476Y-95104000D02*
X235280285Y-95065904D01*
X235166000Y-95065904D01*
X235051714Y-95104000D01*
X234975523Y-95180190D01*
X234937428Y-95256380D01*
X234899333Y-95408761D01*
X234899333Y-95523047D01*
X234937428Y-95675428D01*
X234975523Y-95751619D01*
X235051714Y-95827809D01*
X235166000Y-95865904D01*
X235242190Y-95865904D01*
X235356476Y-95827809D01*
X235394571Y-95789714D01*
X235394571Y-95523047D01*
X235242190Y-95523047D01*
X235737428Y-95865904D02*
X235737428Y-95065904D01*
X236194571Y-95865904D01*
X236194571Y-95065904D01*
X236575523Y-95865904D02*
X236575523Y-95065904D01*
X236766000Y-95065904D01*
X236880285Y-95104000D01*
X236956476Y-95180190D01*
X236994571Y-95256380D01*
X237032666Y-95408761D01*
X237032666Y-95523047D01*
X236994571Y-95675428D01*
X236956476Y-95751619D01*
X236880285Y-95827809D01*
X236766000Y-95865904D01*
X236575523Y-95865904D01*
X235356476Y-92691000D02*
X235280285Y-92652904D01*
X235166000Y-92652904D01*
X235051714Y-92691000D01*
X234975523Y-92767190D01*
X234937428Y-92843380D01*
X234899333Y-92995761D01*
X234899333Y-93110047D01*
X234937428Y-93262428D01*
X234975523Y-93338619D01*
X235051714Y-93414809D01*
X235166000Y-93452904D01*
X235242190Y-93452904D01*
X235356476Y-93414809D01*
X235394571Y-93376714D01*
X235394571Y-93110047D01*
X235242190Y-93110047D01*
X235737428Y-93452904D02*
X235737428Y-92652904D01*
X236194571Y-93452904D01*
X236194571Y-92652904D01*
X236575523Y-93452904D02*
X236575523Y-92652904D01*
X236766000Y-92652904D01*
X236880285Y-92691000D01*
X236956476Y-92767190D01*
X236994571Y-92843380D01*
X237032666Y-92995761D01*
X237032666Y-93110047D01*
X236994571Y-93262428D01*
X236956476Y-93338619D01*
X236880285Y-93414809D01*
X236766000Y-93452904D01*
X236575523Y-93452904D01*
X235356476Y-97644000D02*
X235280285Y-97605904D01*
X235166000Y-97605904D01*
X235051714Y-97644000D01*
X234975523Y-97720190D01*
X234937428Y-97796380D01*
X234899333Y-97948761D01*
X234899333Y-98063047D01*
X234937428Y-98215428D01*
X234975523Y-98291619D01*
X235051714Y-98367809D01*
X235166000Y-98405904D01*
X235242190Y-98405904D01*
X235356476Y-98367809D01*
X235394571Y-98329714D01*
X235394571Y-98063047D01*
X235242190Y-98063047D01*
X235737428Y-98405904D02*
X235737428Y-97605904D01*
X236194571Y-98405904D01*
X236194571Y-97605904D01*
X236575523Y-98405904D02*
X236575523Y-97605904D01*
X236766000Y-97605904D01*
X236880285Y-97644000D01*
X236956476Y-97720190D01*
X236994571Y-97796380D01*
X237032666Y-97948761D01*
X237032666Y-98063047D01*
X236994571Y-98215428D01*
X236956476Y-98291619D01*
X236880285Y-98367809D01*
X236766000Y-98405904D01*
X236575523Y-98405904D01*
X235166000Y-89858904D02*
X235318380Y-89858904D01*
X235394571Y-89897000D01*
X235470761Y-89973190D01*
X235508857Y-90125571D01*
X235508857Y-90392238D01*
X235470761Y-90544619D01*
X235394571Y-90620809D01*
X235318380Y-90658904D01*
X235166000Y-90658904D01*
X235089809Y-90620809D01*
X235013619Y-90544619D01*
X234975523Y-90392238D01*
X234975523Y-90125571D01*
X235013619Y-89973190D01*
X235089809Y-89897000D01*
X235166000Y-89858904D01*
X235851714Y-89858904D02*
X235851714Y-90506523D01*
X235889809Y-90582714D01*
X235927904Y-90620809D01*
X236004095Y-90658904D01*
X236156476Y-90658904D01*
X236232666Y-90620809D01*
X236270761Y-90582714D01*
X236308857Y-90506523D01*
X236308857Y-89858904D01*
X236575523Y-89858904D02*
X237032666Y-89858904D01*
X236804095Y-90658904D02*
X236804095Y-89858904D01*
X236194619Y-100945904D02*
X235813666Y-100945904D01*
X235813666Y-100145904D01*
X236918428Y-100869714D02*
X236880333Y-100907809D01*
X236766047Y-100945904D01*
X236689857Y-100945904D01*
X236575571Y-100907809D01*
X236499380Y-100831619D01*
X236461285Y-100755428D01*
X236423190Y-100603047D01*
X236423190Y-100488761D01*
X236461285Y-100336380D01*
X236499380Y-100260190D01*
X236575571Y-100184000D01*
X236689857Y-100145904D01*
X236766047Y-100145904D01*
X236880333Y-100184000D01*
X236918428Y-100222095D01*
X235756523Y-106025904D02*
X235756523Y-105225904D01*
X236061285Y-105225904D01*
X236137476Y-105264000D01*
X236175571Y-105302095D01*
X236213666Y-105378285D01*
X236213666Y-105492571D01*
X236175571Y-105568761D01*
X236137476Y-105606857D01*
X236061285Y-105644952D01*
X235756523Y-105644952D01*
X236975571Y-106025904D02*
X236518428Y-106025904D01*
X236747000Y-106025904D02*
X236747000Y-105225904D01*
X236670809Y-105340190D01*
X236594619Y-105416380D01*
X236518428Y-105454476D01*
X235489809Y-103409714D02*
X235451714Y-103447809D01*
X235337428Y-103485904D01*
X235261238Y-103485904D01*
X235146952Y-103447809D01*
X235070761Y-103371619D01*
X235032666Y-103295428D01*
X234994571Y-103143047D01*
X234994571Y-103028761D01*
X235032666Y-102876380D01*
X235070761Y-102800190D01*
X235146952Y-102724000D01*
X235261238Y-102685904D01*
X235337428Y-102685904D01*
X235451714Y-102724000D01*
X235489809Y-102762095D01*
X236213619Y-103485904D02*
X235832666Y-103485904D01*
X235832666Y-102685904D01*
X236480285Y-103485904D02*
X236480285Y-102685904D01*
X236937428Y-103485904D02*
X236594571Y-103028761D01*
X236937428Y-102685904D02*
X236480285Y-103143047D01*
D12*
G04 #@! TO.C,RV3*
X222784000Y-67012000D02*
X222784000Y-63146000D01*
X222784000Y-58757000D02*
X222784000Y-55452000D01*
X232384000Y-67012000D02*
X232384000Y-63146000D01*
X232384000Y-58757000D02*
X232384000Y-55452000D01*
X222784000Y-67012000D02*
X224259000Y-67012000D01*
X225909000Y-67012000D02*
X226759000Y-67012000D01*
X228409000Y-67012000D02*
X229259000Y-67012000D01*
X230909000Y-67012000D02*
X232384000Y-67012000D01*
X222784000Y-55452000D02*
X232384000Y-55452000D01*
X229881753Y-62380295D02*
G75*
G02*
X225286000Y-62380000I-2297753J1928295D01*
G01*
X224821568Y-59280018D02*
G75*
G02*
X230346000Y-59279000I2762432J-1171982D01*
G01*
G04 #@! TO.C,RV1*
X222784000Y-107652000D02*
X222784000Y-103786000D01*
X222784000Y-99397000D02*
X222784000Y-96092000D01*
X232384000Y-107652000D02*
X232384000Y-103786000D01*
X232384000Y-99397000D02*
X232384000Y-96092000D01*
X222784000Y-107652000D02*
X224259000Y-107652000D01*
X225909000Y-107652000D02*
X226759000Y-107652000D01*
X228409000Y-107652000D02*
X229259000Y-107652000D01*
X230909000Y-107652000D02*
X232384000Y-107652000D01*
X222784000Y-96092000D02*
X232384000Y-96092000D01*
X229881753Y-103020295D02*
G75*
G02*
X225286000Y-103020000I-2297753J1928295D01*
G01*
X224821568Y-99920018D02*
G75*
G02*
X230346000Y-99919000I2762432J-1171982D01*
G01*
G04 #@! TO.C,RV2*
X222784000Y-87332000D02*
X222784000Y-83466000D01*
X222784000Y-79077000D02*
X222784000Y-75772000D01*
X232384000Y-87332000D02*
X232384000Y-83466000D01*
X232384000Y-79077000D02*
X232384000Y-75772000D01*
X222784000Y-87332000D02*
X224259000Y-87332000D01*
X225909000Y-87332000D02*
X226759000Y-87332000D01*
X228409000Y-87332000D02*
X229259000Y-87332000D01*
X230909000Y-87332000D02*
X232384000Y-87332000D01*
X222784000Y-75772000D02*
X232384000Y-75772000D01*
X229881753Y-82700295D02*
G75*
G02*
X225286000Y-82700000I-2297753J1928295D01*
G01*
X224821568Y-79600018D02*
G75*
G02*
X230346000Y-79599000I2762432J-1171982D01*
G01*
G04 #@! TO.C,R1*
X228386000Y-74168000D02*
G75*
G03*
X228386000Y-74168000I-1310000J0D01*
G01*
D13*
G36*
X228727000Y-74358500D02*
G01*
X227965000Y-74358500D01*
X227965000Y-73977500D01*
X228727000Y-73977500D01*
X228727000Y-74358500D01*
G37*
X228727000Y-74358500D02*
X227965000Y-74358500D01*
X227965000Y-73977500D01*
X228727000Y-73977500D01*
X228727000Y-74358500D01*
D12*
G04 #@! TO.C,R3*
X228386000Y-70612000D02*
G75*
G03*
X228386000Y-70612000I-1310000J0D01*
G01*
D13*
G36*
X228727000Y-70802500D02*
G01*
X227965000Y-70802500D01*
X227965000Y-70421500D01*
X228727000Y-70421500D01*
X228727000Y-70802500D01*
G37*
X228727000Y-70802500D02*
X227965000Y-70802500D01*
X227965000Y-70421500D01*
X228727000Y-70421500D01*
X228727000Y-70802500D01*
D12*
G04 #@! TO.C,R7*
X224068000Y-70612000D02*
G75*
G03*
X224068000Y-70612000I-1310000J0D01*
G01*
D13*
G36*
X221107000Y-70421500D02*
G01*
X221869000Y-70421500D01*
X221869000Y-70802500D01*
X221107000Y-70802500D01*
X221107000Y-70421500D01*
G37*
X221107000Y-70421500D02*
X221869000Y-70421500D01*
X221869000Y-70802500D01*
X221107000Y-70802500D01*
X221107000Y-70421500D01*
D12*
G04 #@! TO.C,R9*
X224068000Y-74168000D02*
G75*
G03*
X224068000Y-74168000I-1310000J0D01*
G01*
D13*
G36*
X221107000Y-73977500D02*
G01*
X221869000Y-73977500D01*
X221869000Y-74358500D01*
X221107000Y-74358500D01*
X221107000Y-73977500D01*
G37*
X221107000Y-73977500D02*
X221869000Y-73977500D01*
X221869000Y-74358500D01*
X221107000Y-74358500D01*
X221107000Y-73977500D01*
D12*
G04 #@! TO.C,R15*
X234101000Y-155448000D02*
G75*
G03*
X234101000Y-155448000I-1310000J0D01*
G01*
D13*
G36*
X234442000Y-155638500D02*
G01*
X233680000Y-155638500D01*
X233680000Y-155257500D01*
X234442000Y-155257500D01*
X234442000Y-155638500D01*
G37*
X234442000Y-155638500D02*
X233680000Y-155638500D01*
X233680000Y-155257500D01*
X234442000Y-155257500D01*
X234442000Y-155638500D01*
D12*
G04 #@! TO.C,R17*
X223687000Y-155448000D02*
G75*
G03*
X223687000Y-155448000I-1310000J0D01*
G01*
D13*
G36*
X220726000Y-155257500D02*
G01*
X221488000Y-155257500D01*
X221488000Y-155638500D01*
X220726000Y-155638500D01*
X220726000Y-155257500D01*
G37*
X220726000Y-155257500D02*
X221488000Y-155257500D01*
X221488000Y-155638500D01*
X220726000Y-155638500D01*
X220726000Y-155257500D01*
D12*
G04 #@! TO.C,R21*
X230672000Y-111760000D02*
G75*
G03*
X230672000Y-111760000I-1310000J0D01*
G01*
D13*
G36*
X231013000Y-111950500D02*
G01*
X230251000Y-111950500D01*
X230251000Y-111569500D01*
X231013000Y-111569500D01*
X231013000Y-111950500D01*
G37*
X231013000Y-111950500D02*
X230251000Y-111950500D01*
X230251000Y-111569500D01*
X231013000Y-111569500D01*
X231013000Y-111950500D01*
D12*
G04 #@! TO.C,R29*
X227116000Y-111760000D02*
G75*
G03*
X227116000Y-111760000I-1310000J0D01*
G01*
D13*
G36*
X224155000Y-111569500D02*
G01*
X224917000Y-111569500D01*
X224917000Y-111950500D01*
X224155000Y-111950500D01*
X224155000Y-111569500D01*
G37*
X224155000Y-111569500D02*
X224917000Y-111569500D01*
X224917000Y-111950500D01*
X224155000Y-111950500D01*
X224155000Y-111569500D01*
D11*
G04 #@! TO.C,J4*
X232664000Y-128088000D02*
X232664000Y-127127000D01*
X234664000Y-132588000D02*
G75*
G03*
X234664000Y-132588000I-2000000J0D01*
G01*
X237264000Y-127988000D02*
X237264000Y-138688000D01*
X228064000Y-127988000D02*
X237264000Y-127988000D01*
X228064000Y-138688000D02*
X228064000Y-127988000D01*
X237264000Y-138688000D02*
X228064000Y-138688000D01*
G04 #@! TO.C,J3*
X222504000Y-128088000D02*
X222504000Y-127127000D01*
X224504000Y-132588000D02*
G75*
G03*
X224504000Y-132588000I-2000000J0D01*
G01*
X227104000Y-127988000D02*
X227104000Y-138688000D01*
X217904000Y-127988000D02*
X227104000Y-127988000D01*
X217904000Y-138688000D02*
X217904000Y-127988000D01*
X227104000Y-138688000D02*
X217904000Y-138688000D01*
G04 #@! TO.C,J6*
X234664000Y-145288000D02*
G75*
G03*
X234664000Y-145288000I-2000000J0D01*
G01*
X228064000Y-149888000D02*
X228064000Y-139188000D01*
X237264000Y-149888000D02*
X228064000Y-149888000D01*
X237264000Y-139188000D02*
X237264000Y-149888000D01*
X228064000Y-139188000D02*
X237264000Y-139188000D01*
X233864000Y-152988000D02*
X233864000Y-149888000D01*
X231464000Y-152988000D02*
X233864000Y-152988000D01*
X231464000Y-149888000D02*
X231464000Y-152988000D01*
G04 #@! TO.C,J5*
X224504000Y-145288000D02*
G75*
G03*
X224504000Y-145288000I-2000000J0D01*
G01*
X217904000Y-149888000D02*
X217904000Y-139188000D01*
X227104000Y-149888000D02*
X217904000Y-149888000D01*
X227104000Y-139188000D02*
X227104000Y-149888000D01*
X217904000Y-139188000D02*
X227104000Y-139188000D01*
X223704000Y-152988000D02*
X223704000Y-149888000D01*
X221304000Y-152988000D02*
X223704000Y-152988000D01*
X221304000Y-149888000D02*
X221304000Y-152988000D01*
G04 #@! TO.C,J2*
X234664000Y-119888000D02*
G75*
G03*
X234664000Y-119888000I-2000000J0D01*
G01*
X228064000Y-124488000D02*
X228064000Y-113788000D01*
X237264000Y-124488000D02*
X228064000Y-124488000D01*
X237264000Y-113788000D02*
X237264000Y-124488000D01*
X228064000Y-113788000D02*
X237264000Y-113788000D01*
X233864000Y-127588000D02*
X233864000Y-124488000D01*
X231464000Y-127588000D02*
X233864000Y-127588000D01*
X231464000Y-124488000D02*
X231464000Y-127588000D01*
G04 #@! TO.C,J1*
X224504000Y-119888000D02*
G75*
G03*
X224504000Y-119888000I-2000000J0D01*
G01*
X217904000Y-124488000D02*
X217904000Y-113788000D01*
X227104000Y-124488000D02*
X217904000Y-124488000D01*
X227104000Y-113788000D02*
X227104000Y-124488000D01*
X217904000Y-113788000D02*
X227104000Y-113788000D01*
X223704000Y-127588000D02*
X223704000Y-124488000D01*
X221304000Y-127588000D02*
X223704000Y-127588000D01*
X221304000Y-124488000D02*
X221304000Y-127588000D01*
G04 #@! TO.C,D6*
X230251000Y-125857000D02*
X230251000Y-125349000D01*
X229997000Y-125603000D02*
X230505000Y-125603000D01*
D12*
X226024000Y-127318000D02*
X226024000Y-127474000D01*
X226024000Y-125002000D02*
X226024000Y-125158000D01*
X229256335Y-125159392D02*
G75*
G03*
X226024000Y-125002484I-1672335J-1078608D01*
G01*
X229256335Y-127316608D02*
G75*
G02*
X226024000Y-127473516I-1672335J1078608D01*
G01*
X228625130Y-125158163D02*
G75*
G03*
X226543039Y-125158000I-1041130J-1079837D01*
G01*
X228625130Y-127317837D02*
G75*
G02*
X226543039Y-127318000I-1041130J1079837D01*
G01*
D11*
G04 #@! TO.C,D7*
X229489000Y-152781000D02*
X229997000Y-152781000D01*
X229743000Y-152527000D02*
X229743000Y-153035000D01*
D12*
X226024000Y-152718000D02*
X226024000Y-152874000D01*
X226024000Y-150402000D02*
X226024000Y-150558000D01*
X229256335Y-150559392D02*
G75*
G03*
X226024000Y-150402484I-1672335J-1078608D01*
G01*
X229256335Y-152716608D02*
G75*
G02*
X226024000Y-152873516I-1672335J1078608D01*
G01*
X228625130Y-150558163D02*
G75*
G03*
X226543039Y-150558000I-1041130J-1079837D01*
G01*
X228625130Y-152717837D02*
G75*
G02*
X226543039Y-152718000I-1041130J1079837D01*
G01*
D11*
G04 #@! TO.C,D8*
X225679000Y-154178000D02*
X225171000Y-154178000D01*
X225425000Y-154432000D02*
X225425000Y-153924000D01*
D12*
X229144000Y-154368000D02*
X229144000Y-154212000D01*
X229144000Y-156684000D02*
X229144000Y-156528000D01*
X225911665Y-156526608D02*
G75*
G03*
X229144000Y-156683516I1672335J1078608D01*
G01*
X225911665Y-154369392D02*
G75*
G02*
X229144000Y-154212484I1672335J-1078608D01*
G01*
X226542870Y-156527837D02*
G75*
G03*
X228624961Y-156528000I1041130J1079837D01*
G01*
X226542870Y-154368163D02*
G75*
G02*
X228624961Y-154368000I1041130J-1079837D01*
G01*
G04 #@! TO.C,RV3*
D11*
X233751380Y-65619238D02*
X233275190Y-65952571D01*
X233751380Y-66190666D02*
X232751380Y-66190666D01*
X232751380Y-65809714D01*
X232799000Y-65714476D01*
X232846619Y-65666857D01*
X232941857Y-65619238D01*
X233084714Y-65619238D01*
X233179952Y-65666857D01*
X233227571Y-65714476D01*
X233275190Y-65809714D01*
X233275190Y-66190666D01*
X232751380Y-65333523D02*
X233751380Y-65000190D01*
X232751380Y-64666857D01*
X232751380Y-64428761D02*
X232751380Y-63809714D01*
X233132333Y-64143047D01*
X233132333Y-64000190D01*
X233179952Y-63904952D01*
X233227571Y-63857333D01*
X233322809Y-63809714D01*
X233560904Y-63809714D01*
X233656142Y-63857333D01*
X233703761Y-63904952D01*
X233751380Y-64000190D01*
X233751380Y-64285904D01*
X233703761Y-64381142D01*
X233656142Y-64428761D01*
X225726857Y-65206571D02*
X225869714Y-65254190D01*
X225917333Y-65301809D01*
X225964952Y-65397047D01*
X225964952Y-65539904D01*
X225917333Y-65635142D01*
X225869714Y-65682761D01*
X225774476Y-65730380D01*
X225393523Y-65730380D01*
X225393523Y-64730380D01*
X225726857Y-64730380D01*
X225822095Y-64778000D01*
X225869714Y-64825619D01*
X225917333Y-64920857D01*
X225917333Y-65016095D01*
X225869714Y-65111333D01*
X225822095Y-65158952D01*
X225726857Y-65206571D01*
X225393523Y-65206571D01*
X226917333Y-65730380D02*
X226345904Y-65730380D01*
X226631619Y-65730380D02*
X226631619Y-64730380D01*
X226536380Y-64873238D01*
X226441142Y-64968476D01*
X226345904Y-65016095D01*
X227536380Y-64730380D02*
X227631619Y-64730380D01*
X227726857Y-64778000D01*
X227774476Y-64825619D01*
X227822095Y-64920857D01*
X227869714Y-65111333D01*
X227869714Y-65349428D01*
X227822095Y-65539904D01*
X227774476Y-65635142D01*
X227726857Y-65682761D01*
X227631619Y-65730380D01*
X227536380Y-65730380D01*
X227441142Y-65682761D01*
X227393523Y-65635142D01*
X227345904Y-65539904D01*
X227298285Y-65349428D01*
X227298285Y-65111333D01*
X227345904Y-64920857D01*
X227393523Y-64825619D01*
X227441142Y-64778000D01*
X227536380Y-64730380D01*
X228488761Y-64730380D02*
X228584000Y-64730380D01*
X228679238Y-64778000D01*
X228726857Y-64825619D01*
X228774476Y-64920857D01*
X228822095Y-65111333D01*
X228822095Y-65349428D01*
X228774476Y-65539904D01*
X228726857Y-65635142D01*
X228679238Y-65682761D01*
X228584000Y-65730380D01*
X228488761Y-65730380D01*
X228393523Y-65682761D01*
X228345904Y-65635142D01*
X228298285Y-65539904D01*
X228250666Y-65349428D01*
X228250666Y-65111333D01*
X228298285Y-64920857D01*
X228345904Y-64825619D01*
X228393523Y-64778000D01*
X228488761Y-64730380D01*
X229250666Y-65730380D02*
X229250666Y-64730380D01*
X229822095Y-65730380D02*
X229393523Y-65158952D01*
X229822095Y-64730380D02*
X229250666Y-65301809D01*
G04 #@! TO.C,RV1*
X233751380Y-106259238D02*
X233275190Y-106592571D01*
X233751380Y-106830666D02*
X232751380Y-106830666D01*
X232751380Y-106449714D01*
X232799000Y-106354476D01*
X232846619Y-106306857D01*
X232941857Y-106259238D01*
X233084714Y-106259238D01*
X233179952Y-106306857D01*
X233227571Y-106354476D01*
X233275190Y-106449714D01*
X233275190Y-106830666D01*
X232751380Y-105973523D02*
X233751380Y-105640190D01*
X232751380Y-105306857D01*
X233751380Y-104449714D02*
X233751380Y-105021142D01*
X233751380Y-104735428D02*
X232751380Y-104735428D01*
X232894238Y-104830666D01*
X232989476Y-104925904D01*
X233037095Y-105021142D01*
D10*
X225566857Y-106100571D02*
X225709714Y-106148190D01*
X225757333Y-106195809D01*
X225804952Y-106291047D01*
X225804952Y-106433904D01*
X225757333Y-106529142D01*
X225709714Y-106576761D01*
X225614476Y-106624380D01*
X225233523Y-106624380D01*
X225233523Y-105624380D01*
X225566857Y-105624380D01*
X225662095Y-105672000D01*
X225709714Y-105719619D01*
X225757333Y-105814857D01*
X225757333Y-105910095D01*
X225709714Y-106005333D01*
X225662095Y-106052952D01*
X225566857Y-106100571D01*
X225233523Y-106100571D01*
X226757333Y-106624380D02*
X226185904Y-106624380D01*
X226471619Y-106624380D02*
X226471619Y-105624380D01*
X226376380Y-105767238D01*
X226281142Y-105862476D01*
X226185904Y-105910095D01*
X227376380Y-105624380D02*
X227471619Y-105624380D01*
X227566857Y-105672000D01*
X227614476Y-105719619D01*
X227662095Y-105814857D01*
X227709714Y-106005333D01*
X227709714Y-106243428D01*
X227662095Y-106433904D01*
X227614476Y-106529142D01*
X227566857Y-106576761D01*
X227471619Y-106624380D01*
X227376380Y-106624380D01*
X227281142Y-106576761D01*
X227233523Y-106529142D01*
X227185904Y-106433904D01*
X227138285Y-106243428D01*
X227138285Y-106005333D01*
X227185904Y-105814857D01*
X227233523Y-105719619D01*
X227281142Y-105672000D01*
X227376380Y-105624380D01*
X228328761Y-105624380D02*
X228424000Y-105624380D01*
X228519238Y-105672000D01*
X228566857Y-105719619D01*
X228614476Y-105814857D01*
X228662095Y-106005333D01*
X228662095Y-106243428D01*
X228614476Y-106433904D01*
X228566857Y-106529142D01*
X228519238Y-106576761D01*
X228424000Y-106624380D01*
X228328761Y-106624380D01*
X228233523Y-106576761D01*
X228185904Y-106529142D01*
X228138285Y-106433904D01*
X228090666Y-106243428D01*
X228090666Y-106005333D01*
X228138285Y-105814857D01*
X228185904Y-105719619D01*
X228233523Y-105672000D01*
X228328761Y-105624380D01*
X229090666Y-106624380D02*
X229090666Y-105624380D01*
X229662095Y-106624380D02*
X229233523Y-106052952D01*
X229662095Y-105624380D02*
X229090666Y-106195809D01*
G04 #@! TO.C,RV2*
D11*
X233751380Y-85939238D02*
X233275190Y-86272571D01*
X233751380Y-86510666D02*
X232751380Y-86510666D01*
X232751380Y-86129714D01*
X232799000Y-86034476D01*
X232846619Y-85986857D01*
X232941857Y-85939238D01*
X233084714Y-85939238D01*
X233179952Y-85986857D01*
X233227571Y-86034476D01*
X233275190Y-86129714D01*
X233275190Y-86510666D01*
X232751380Y-85653523D02*
X233751380Y-85320190D01*
X232751380Y-84986857D01*
X232846619Y-84701142D02*
X232799000Y-84653523D01*
X232751380Y-84558285D01*
X232751380Y-84320190D01*
X232799000Y-84224952D01*
X232846619Y-84177333D01*
X232941857Y-84129714D01*
X233037095Y-84129714D01*
X233179952Y-84177333D01*
X233751380Y-84748761D01*
X233751380Y-84129714D01*
X225566857Y-85526571D02*
X225709714Y-85574190D01*
X225757333Y-85621809D01*
X225804952Y-85717047D01*
X225804952Y-85859904D01*
X225757333Y-85955142D01*
X225709714Y-86002761D01*
X225614476Y-86050380D01*
X225233523Y-86050380D01*
X225233523Y-85050380D01*
X225566857Y-85050380D01*
X225662095Y-85098000D01*
X225709714Y-85145619D01*
X225757333Y-85240857D01*
X225757333Y-85336095D01*
X225709714Y-85431333D01*
X225662095Y-85478952D01*
X225566857Y-85526571D01*
X225233523Y-85526571D01*
X226757333Y-86050380D02*
X226185904Y-86050380D01*
X226471619Y-86050380D02*
X226471619Y-85050380D01*
X226376380Y-85193238D01*
X226281142Y-85288476D01*
X226185904Y-85336095D01*
X227376380Y-85050380D02*
X227471619Y-85050380D01*
X227566857Y-85098000D01*
X227614476Y-85145619D01*
X227662095Y-85240857D01*
X227709714Y-85431333D01*
X227709714Y-85669428D01*
X227662095Y-85859904D01*
X227614476Y-85955142D01*
X227566857Y-86002761D01*
X227471619Y-86050380D01*
X227376380Y-86050380D01*
X227281142Y-86002761D01*
X227233523Y-85955142D01*
X227185904Y-85859904D01*
X227138285Y-85669428D01*
X227138285Y-85431333D01*
X227185904Y-85240857D01*
X227233523Y-85145619D01*
X227281142Y-85098000D01*
X227376380Y-85050380D01*
X228328761Y-85050380D02*
X228424000Y-85050380D01*
X228519238Y-85098000D01*
X228566857Y-85145619D01*
X228614476Y-85240857D01*
X228662095Y-85431333D01*
X228662095Y-85669428D01*
X228614476Y-85859904D01*
X228566857Y-85955142D01*
X228519238Y-86002761D01*
X228424000Y-86050380D01*
X228328761Y-86050380D01*
X228233523Y-86002761D01*
X228185904Y-85955142D01*
X228138285Y-85859904D01*
X228090666Y-85669428D01*
X228090666Y-85431333D01*
X228138285Y-85240857D01*
X228185904Y-85145619D01*
X228233523Y-85098000D01*
X228328761Y-85050380D01*
X229090666Y-86050380D02*
X229090666Y-85050380D01*
X229662095Y-86050380D02*
X229233523Y-85478952D01*
X229662095Y-85050380D02*
X229090666Y-85621809D01*
G04 #@! TO.C,R1*
X231862333Y-73985380D02*
X231529000Y-73509190D01*
X231290904Y-73985380D02*
X231290904Y-72985380D01*
X231671857Y-72985380D01*
X231767095Y-73033000D01*
X231814714Y-73080619D01*
X231862333Y-73175857D01*
X231862333Y-73318714D01*
X231814714Y-73413952D01*
X231767095Y-73461571D01*
X231671857Y-73509190D01*
X231290904Y-73509190D01*
X232814714Y-73985380D02*
X232243285Y-73985380D01*
X232529000Y-73985380D02*
X232529000Y-72985380D01*
X232433761Y-73128238D01*
X232338523Y-73223476D01*
X232243285Y-73271095D01*
X231814761Y-75255380D02*
X231243333Y-75255380D01*
X231529047Y-75255380D02*
X231529047Y-74255380D01*
X231433809Y-74398238D01*
X231338571Y-74493476D01*
X231243333Y-74541095D01*
X232433809Y-74255380D02*
X232529047Y-74255380D01*
X232624285Y-74303000D01*
X232671904Y-74350619D01*
X232719523Y-74445857D01*
X232767142Y-74636333D01*
X232767142Y-74874428D01*
X232719523Y-75064904D01*
X232671904Y-75160142D01*
X232624285Y-75207761D01*
X232529047Y-75255380D01*
X232433809Y-75255380D01*
X232338571Y-75207761D01*
X232290952Y-75160142D01*
X232243333Y-75064904D01*
X232195714Y-74874428D01*
X232195714Y-74636333D01*
X232243333Y-74445857D01*
X232290952Y-74350619D01*
X232338571Y-74303000D01*
X232433809Y-74255380D01*
X233195714Y-75255380D02*
X233195714Y-74255380D01*
X233290952Y-74874428D02*
X233576666Y-75255380D01*
X233576666Y-74588714D02*
X233195714Y-74969666D01*
G04 #@! TO.C,R3*
X231989333Y-69921380D02*
X231656000Y-69445190D01*
X231417904Y-69921380D02*
X231417904Y-68921380D01*
X231798857Y-68921380D01*
X231894095Y-68969000D01*
X231941714Y-69016619D01*
X231989333Y-69111857D01*
X231989333Y-69254714D01*
X231941714Y-69349952D01*
X231894095Y-69397571D01*
X231798857Y-69445190D01*
X231417904Y-69445190D01*
X232322666Y-68921380D02*
X232941714Y-68921380D01*
X232608380Y-69302333D01*
X232751238Y-69302333D01*
X232846476Y-69349952D01*
X232894095Y-69397571D01*
X232941714Y-69492809D01*
X232941714Y-69730904D01*
X232894095Y-69826142D01*
X232846476Y-69873761D01*
X232751238Y-69921380D01*
X232465523Y-69921380D01*
X232370285Y-69873761D01*
X232322666Y-69826142D01*
X231814761Y-71318380D02*
X231243333Y-71318380D01*
X231529047Y-71318380D02*
X231529047Y-70318380D01*
X231433809Y-70461238D01*
X231338571Y-70556476D01*
X231243333Y-70604095D01*
X232433809Y-70318380D02*
X232529047Y-70318380D01*
X232624285Y-70366000D01*
X232671904Y-70413619D01*
X232719523Y-70508857D01*
X232767142Y-70699333D01*
X232767142Y-70937428D01*
X232719523Y-71127904D01*
X232671904Y-71223142D01*
X232624285Y-71270761D01*
X232529047Y-71318380D01*
X232433809Y-71318380D01*
X232338571Y-71270761D01*
X232290952Y-71223142D01*
X232243333Y-71127904D01*
X232195714Y-70937428D01*
X232195714Y-70699333D01*
X232243333Y-70508857D01*
X232290952Y-70413619D01*
X232338571Y-70366000D01*
X232433809Y-70318380D01*
X233195714Y-71318380D02*
X233195714Y-70318380D01*
X233290952Y-70937428D02*
X233576666Y-71318380D01*
X233576666Y-70651714D02*
X233195714Y-71032666D01*
G04 #@! TO.C,R7*
X219416333Y-68270380D02*
X219083000Y-67794190D01*
X218844904Y-68270380D02*
X218844904Y-67270380D01*
X219225857Y-67270380D01*
X219321095Y-67318000D01*
X219368714Y-67365619D01*
X219416333Y-67460857D01*
X219416333Y-67603714D01*
X219368714Y-67698952D01*
X219321095Y-67746571D01*
X219225857Y-67794190D01*
X218844904Y-67794190D01*
X219749666Y-67270380D02*
X220416333Y-67270380D01*
X219987761Y-68270380D01*
X219368761Y-69540380D02*
X218797333Y-69540380D01*
X219083047Y-69540380D02*
X219083047Y-68540380D01*
X218987809Y-68683238D01*
X218892571Y-68778476D01*
X218797333Y-68826095D01*
X219987809Y-68540380D02*
X220083047Y-68540380D01*
X220178285Y-68588000D01*
X220225904Y-68635619D01*
X220273523Y-68730857D01*
X220321142Y-68921333D01*
X220321142Y-69159428D01*
X220273523Y-69349904D01*
X220225904Y-69445142D01*
X220178285Y-69492761D01*
X220083047Y-69540380D01*
X219987809Y-69540380D01*
X219892571Y-69492761D01*
X219844952Y-69445142D01*
X219797333Y-69349904D01*
X219749714Y-69159428D01*
X219749714Y-68921333D01*
X219797333Y-68730857D01*
X219844952Y-68635619D01*
X219892571Y-68588000D01*
X219987809Y-68540380D01*
X220749714Y-69540380D02*
X220749714Y-68540380D01*
X220844952Y-69159428D02*
X221130666Y-69540380D01*
X221130666Y-68873714D02*
X220749714Y-69254666D01*
G04 #@! TO.C,R9*
X219416333Y-76398380D02*
X219083000Y-75922190D01*
X218844904Y-76398380D02*
X218844904Y-75398380D01*
X219225857Y-75398380D01*
X219321095Y-75446000D01*
X219368714Y-75493619D01*
X219416333Y-75588857D01*
X219416333Y-75731714D01*
X219368714Y-75826952D01*
X219321095Y-75874571D01*
X219225857Y-75922190D01*
X218844904Y-75922190D01*
X219892523Y-76398380D02*
X220083000Y-76398380D01*
X220178238Y-76350761D01*
X220225857Y-76303142D01*
X220321095Y-76160285D01*
X220368714Y-75969809D01*
X220368714Y-75588857D01*
X220321095Y-75493619D01*
X220273476Y-75446000D01*
X220178238Y-75398380D01*
X219987761Y-75398380D01*
X219892523Y-75446000D01*
X219844904Y-75493619D01*
X219797285Y-75588857D01*
X219797285Y-75826952D01*
X219844904Y-75922190D01*
X219892523Y-75969809D01*
X219987761Y-76017428D01*
X220178238Y-76017428D01*
X220273476Y-75969809D01*
X220321095Y-75922190D01*
X220368714Y-75826952D01*
X219368761Y-77668380D02*
X218797333Y-77668380D01*
X219083047Y-77668380D02*
X219083047Y-76668380D01*
X218987809Y-76811238D01*
X218892571Y-76906476D01*
X218797333Y-76954095D01*
X219987809Y-76668380D02*
X220083047Y-76668380D01*
X220178285Y-76716000D01*
X220225904Y-76763619D01*
X220273523Y-76858857D01*
X220321142Y-77049333D01*
X220321142Y-77287428D01*
X220273523Y-77477904D01*
X220225904Y-77573142D01*
X220178285Y-77620761D01*
X220083047Y-77668380D01*
X219987809Y-77668380D01*
X219892571Y-77620761D01*
X219844952Y-77573142D01*
X219797333Y-77477904D01*
X219749714Y-77287428D01*
X219749714Y-77049333D01*
X219797333Y-76858857D01*
X219844952Y-76763619D01*
X219892571Y-76716000D01*
X219987809Y-76668380D01*
X220749714Y-77668380D02*
X220749714Y-76668380D01*
X220844952Y-77287428D02*
X221130666Y-77668380D01*
X221130666Y-77001714D02*
X220749714Y-77382666D01*
G04 #@! TO.C,R15*
X234942142Y-153106380D02*
X234608809Y-152630190D01*
X234370714Y-153106380D02*
X234370714Y-152106380D01*
X234751666Y-152106380D01*
X234846904Y-152154000D01*
X234894523Y-152201619D01*
X234942142Y-152296857D01*
X234942142Y-152439714D01*
X234894523Y-152534952D01*
X234846904Y-152582571D01*
X234751666Y-152630190D01*
X234370714Y-152630190D01*
X235894523Y-153106380D02*
X235323095Y-153106380D01*
X235608809Y-153106380D02*
X235608809Y-152106380D01*
X235513571Y-152249238D01*
X235418333Y-152344476D01*
X235323095Y-152392095D01*
X236799285Y-152106380D02*
X236323095Y-152106380D01*
X236275476Y-152582571D01*
X236323095Y-152534952D01*
X236418333Y-152487333D01*
X236656428Y-152487333D01*
X236751666Y-152534952D01*
X236799285Y-152582571D01*
X236846904Y-152677809D01*
X236846904Y-152915904D01*
X236799285Y-153011142D01*
X236751666Y-153058761D01*
X236656428Y-153106380D01*
X236418333Y-153106380D01*
X236323095Y-153058761D01*
X236275476Y-153011142D01*
X233838904Y-154376380D02*
X233505571Y-153900190D01*
X233267476Y-154376380D02*
X233267476Y-153376380D01*
X233648428Y-153376380D01*
X233743666Y-153424000D01*
X233791285Y-153471619D01*
X233838904Y-153566857D01*
X233838904Y-153709714D01*
X233791285Y-153804952D01*
X233743666Y-153852571D01*
X233648428Y-153900190D01*
X233267476Y-153900190D01*
X234029380Y-154471619D02*
X234791285Y-154471619D01*
X235172238Y-154376380D02*
X235077000Y-154328761D01*
X235029380Y-154233523D01*
X235029380Y-153376380D01*
X235553190Y-154376380D02*
X235553190Y-153709714D01*
X235553190Y-153376380D02*
X235505571Y-153424000D01*
X235553190Y-153471619D01*
X235600809Y-153424000D01*
X235553190Y-153376380D01*
X235553190Y-153471619D01*
X236029380Y-154376380D02*
X236029380Y-153709714D01*
X236029380Y-153804952D02*
X236077000Y-153757333D01*
X236172238Y-153709714D01*
X236315095Y-153709714D01*
X236410333Y-153757333D01*
X236457952Y-153852571D01*
X236457952Y-154376380D01*
X236457952Y-153852571D02*
X236505571Y-153757333D01*
X236600809Y-153709714D01*
X236743666Y-153709714D01*
X236838904Y-153757333D01*
X236886523Y-153852571D01*
X236886523Y-154376380D01*
G04 #@! TO.C,R17*
X218813142Y-152598380D02*
X218479809Y-152122190D01*
X218241714Y-152598380D02*
X218241714Y-151598380D01*
X218622666Y-151598380D01*
X218717904Y-151646000D01*
X218765523Y-151693619D01*
X218813142Y-151788857D01*
X218813142Y-151931714D01*
X218765523Y-152026952D01*
X218717904Y-152074571D01*
X218622666Y-152122190D01*
X218241714Y-152122190D01*
X219765523Y-152598380D02*
X219194095Y-152598380D01*
X219479809Y-152598380D02*
X219479809Y-151598380D01*
X219384571Y-151741238D01*
X219289333Y-151836476D01*
X219194095Y-151884095D01*
X220098857Y-151598380D02*
X220765523Y-151598380D01*
X220336952Y-152598380D01*
X218892571Y-154122380D02*
X218321142Y-154122380D01*
X218606857Y-154122380D02*
X218606857Y-153122380D01*
X218511619Y-153265238D01*
X218416380Y-153360476D01*
X218321142Y-153408095D01*
X219511619Y-153122380D02*
X219606857Y-153122380D01*
X219702095Y-153170000D01*
X219749714Y-153217619D01*
X219797333Y-153312857D01*
X219844952Y-153503333D01*
X219844952Y-153741428D01*
X219797333Y-153931904D01*
X219749714Y-154027142D01*
X219702095Y-154074761D01*
X219606857Y-154122380D01*
X219511619Y-154122380D01*
X219416380Y-154074761D01*
X219368761Y-154027142D01*
X219321142Y-153931904D01*
X219273523Y-153741428D01*
X219273523Y-153503333D01*
X219321142Y-153312857D01*
X219368761Y-153217619D01*
X219416380Y-153170000D01*
X219511619Y-153122380D01*
X220464000Y-153122380D02*
X220559238Y-153122380D01*
X220654476Y-153170000D01*
X220702095Y-153217619D01*
X220749714Y-153312857D01*
X220797333Y-153503333D01*
X220797333Y-153741428D01*
X220749714Y-153931904D01*
X220702095Y-154027142D01*
X220654476Y-154074761D01*
X220559238Y-154122380D01*
X220464000Y-154122380D01*
X220368761Y-154074761D01*
X220321142Y-154027142D01*
X220273523Y-153931904D01*
X220225904Y-153741428D01*
X220225904Y-153503333D01*
X220273523Y-153312857D01*
X220321142Y-153217619D01*
X220368761Y-153170000D01*
X220464000Y-153122380D01*
X221225904Y-154122380D02*
X221225904Y-153122380D01*
X221321142Y-153741428D02*
X221606857Y-154122380D01*
X221606857Y-153455714D02*
X221225904Y-153836666D01*
G04 #@! TO.C,R21*
X233545142Y-111450380D02*
X233211809Y-110974190D01*
X232973714Y-111450380D02*
X232973714Y-110450380D01*
X233354666Y-110450380D01*
X233449904Y-110498000D01*
X233497523Y-110545619D01*
X233545142Y-110640857D01*
X233545142Y-110783714D01*
X233497523Y-110878952D01*
X233449904Y-110926571D01*
X233354666Y-110974190D01*
X232973714Y-110974190D01*
X233926095Y-110545619D02*
X233973714Y-110498000D01*
X234068952Y-110450380D01*
X234307047Y-110450380D01*
X234402285Y-110498000D01*
X234449904Y-110545619D01*
X234497523Y-110640857D01*
X234497523Y-110736095D01*
X234449904Y-110878952D01*
X233878476Y-111450380D01*
X234497523Y-111450380D01*
X235449904Y-111450380D02*
X234878476Y-111450380D01*
X235164190Y-111450380D02*
X235164190Y-110450380D01*
X235068952Y-110593238D01*
X234973714Y-110688476D01*
X234878476Y-110736095D01*
X233457904Y-112974380D02*
X233124571Y-112498190D01*
X232886476Y-112974380D02*
X232886476Y-111974380D01*
X233267428Y-111974380D01*
X233362666Y-112022000D01*
X233410285Y-112069619D01*
X233457904Y-112164857D01*
X233457904Y-112307714D01*
X233410285Y-112402952D01*
X233362666Y-112450571D01*
X233267428Y-112498190D01*
X232886476Y-112498190D01*
X233648380Y-113069619D02*
X234410285Y-113069619D01*
X234791238Y-112974380D02*
X234696000Y-112926761D01*
X234648380Y-112831523D01*
X234648380Y-111974380D01*
X235172190Y-112974380D02*
X235172190Y-112307714D01*
X235172190Y-111974380D02*
X235124571Y-112022000D01*
X235172190Y-112069619D01*
X235219809Y-112022000D01*
X235172190Y-111974380D01*
X235172190Y-112069619D01*
X235648380Y-112974380D02*
X235648380Y-112307714D01*
X235648380Y-112402952D02*
X235696000Y-112355333D01*
X235791238Y-112307714D01*
X235934095Y-112307714D01*
X236029333Y-112355333D01*
X236076952Y-112450571D01*
X236076952Y-112974380D01*
X236076952Y-112450571D02*
X236124571Y-112355333D01*
X236219809Y-112307714D01*
X236362666Y-112307714D01*
X236457904Y-112355333D01*
X236505523Y-112450571D01*
X236505523Y-112974380D01*
G04 #@! TO.C,R29*
X219067142Y-111450380D02*
X218733809Y-110974190D01*
X218495714Y-111450380D02*
X218495714Y-110450380D01*
X218876666Y-110450380D01*
X218971904Y-110498000D01*
X219019523Y-110545619D01*
X219067142Y-110640857D01*
X219067142Y-110783714D01*
X219019523Y-110878952D01*
X218971904Y-110926571D01*
X218876666Y-110974190D01*
X218495714Y-110974190D01*
X219448095Y-110545619D02*
X219495714Y-110498000D01*
X219590952Y-110450380D01*
X219829047Y-110450380D01*
X219924285Y-110498000D01*
X219971904Y-110545619D01*
X220019523Y-110640857D01*
X220019523Y-110736095D01*
X219971904Y-110878952D01*
X219400476Y-111450380D01*
X220019523Y-111450380D01*
X220495714Y-111450380D02*
X220686190Y-111450380D01*
X220781428Y-111402761D01*
X220829047Y-111355142D01*
X220924285Y-111212285D01*
X220971904Y-111021809D01*
X220971904Y-110640857D01*
X220924285Y-110545619D01*
X220876666Y-110498000D01*
X220781428Y-110450380D01*
X220590952Y-110450380D01*
X220495714Y-110498000D01*
X220448095Y-110545619D01*
X220400476Y-110640857D01*
X220400476Y-110878952D01*
X220448095Y-110974190D01*
X220495714Y-111021809D01*
X220590952Y-111069428D01*
X220781428Y-111069428D01*
X220876666Y-111021809D01*
X220924285Y-110974190D01*
X220971904Y-110878952D01*
X218979904Y-112974380D02*
X218646571Y-112498190D01*
X218408476Y-112974380D02*
X218408476Y-111974380D01*
X218789428Y-111974380D01*
X218884666Y-112022000D01*
X218932285Y-112069619D01*
X218979904Y-112164857D01*
X218979904Y-112307714D01*
X218932285Y-112402952D01*
X218884666Y-112450571D01*
X218789428Y-112498190D01*
X218408476Y-112498190D01*
X219170380Y-113069619D02*
X219932285Y-113069619D01*
X220313238Y-112974380D02*
X220218000Y-112926761D01*
X220170380Y-112831523D01*
X220170380Y-111974380D01*
X220694190Y-112974380D02*
X220694190Y-112307714D01*
X220694190Y-111974380D02*
X220646571Y-112022000D01*
X220694190Y-112069619D01*
X220741809Y-112022000D01*
X220694190Y-111974380D01*
X220694190Y-112069619D01*
X221170380Y-112974380D02*
X221170380Y-112307714D01*
X221170380Y-112402952D02*
X221218000Y-112355333D01*
X221313238Y-112307714D01*
X221456095Y-112307714D01*
X221551333Y-112355333D01*
X221598952Y-112450571D01*
X221598952Y-112974380D01*
X221598952Y-112450571D02*
X221646571Y-112355333D01*
X221741809Y-112307714D01*
X221884666Y-112307714D01*
X221979904Y-112355333D01*
X222027523Y-112450571D01*
X222027523Y-112974380D01*
G04 #@! TO.C,J4*
X235886666Y-128484380D02*
X235886666Y-129198666D01*
X235839047Y-129341523D01*
X235743809Y-129436761D01*
X235600952Y-129484380D01*
X235505714Y-129484380D01*
X236791428Y-128817714D02*
X236791428Y-129484380D01*
X236553333Y-128436761D02*
X236315238Y-129151047D01*
X236934285Y-129151047D01*
G04 #@! TO.C,J3*
X225726666Y-128484380D02*
X225726666Y-129198666D01*
X225679047Y-129341523D01*
X225583809Y-129436761D01*
X225440952Y-129484380D01*
X225345714Y-129484380D01*
X226107619Y-128484380D02*
X226726666Y-128484380D01*
X226393333Y-128865333D01*
X226536190Y-128865333D01*
X226631428Y-128912952D01*
X226679047Y-128960571D01*
X226726666Y-129055809D01*
X226726666Y-129293904D01*
X226679047Y-129389142D01*
X226631428Y-129436761D01*
X226536190Y-129484380D01*
X226250476Y-129484380D01*
X226155238Y-129436761D01*
X226107619Y-129389142D01*
G04 #@! TO.C,J6*
X235886666Y-139660380D02*
X235886666Y-140374666D01*
X235839047Y-140517523D01*
X235743809Y-140612761D01*
X235600952Y-140660380D01*
X235505714Y-140660380D01*
X236791428Y-139660380D02*
X236600952Y-139660380D01*
X236505714Y-139708000D01*
X236458095Y-139755619D01*
X236362857Y-139898476D01*
X236315238Y-140088952D01*
X236315238Y-140469904D01*
X236362857Y-140565142D01*
X236410476Y-140612761D01*
X236505714Y-140660380D01*
X236696190Y-140660380D01*
X236791428Y-140612761D01*
X236839047Y-140565142D01*
X236886666Y-140469904D01*
X236886666Y-140231809D01*
X236839047Y-140136571D01*
X236791428Y-140088952D01*
X236696190Y-140041333D01*
X236505714Y-140041333D01*
X236410476Y-140088952D01*
X236362857Y-140136571D01*
X236315238Y-140231809D01*
G04 #@! TO.C,J5*
X225726666Y-139660380D02*
X225726666Y-140374666D01*
X225679047Y-140517523D01*
X225583809Y-140612761D01*
X225440952Y-140660380D01*
X225345714Y-140660380D01*
X226679047Y-139660380D02*
X226202857Y-139660380D01*
X226155238Y-140136571D01*
X226202857Y-140088952D01*
X226298095Y-140041333D01*
X226536190Y-140041333D01*
X226631428Y-140088952D01*
X226679047Y-140136571D01*
X226726666Y-140231809D01*
X226726666Y-140469904D01*
X226679047Y-140565142D01*
X226631428Y-140612761D01*
X226536190Y-140660380D01*
X226298095Y-140660380D01*
X226202857Y-140612761D01*
X226155238Y-140565142D01*
G04 #@! TO.C,J2*
X235632666Y-114260380D02*
X235632666Y-114974666D01*
X235585047Y-115117523D01*
X235489809Y-115212761D01*
X235346952Y-115260380D01*
X235251714Y-115260380D01*
X236061238Y-114355619D02*
X236108857Y-114308000D01*
X236204095Y-114260380D01*
X236442190Y-114260380D01*
X236537428Y-114308000D01*
X236585047Y-114355619D01*
X236632666Y-114450857D01*
X236632666Y-114546095D01*
X236585047Y-114688952D01*
X236013619Y-115260380D01*
X236632666Y-115260380D01*
G04 #@! TO.C,J1*
X225726666Y-114260380D02*
X225726666Y-114974666D01*
X225679047Y-115117523D01*
X225583809Y-115212761D01*
X225440952Y-115260380D01*
X225345714Y-115260380D01*
X226726666Y-115260380D02*
X226155238Y-115260380D01*
X226440952Y-115260380D02*
X226440952Y-114260380D01*
X226345714Y-114403238D01*
X226250476Y-114498476D01*
X226155238Y-114546095D01*
G04 #@! TO.C,D6*
X229639904Y-127706380D02*
X229639904Y-126706380D01*
X229878000Y-126706380D01*
X230020857Y-126754000D01*
X230116095Y-126849238D01*
X230163714Y-126944476D01*
X230211333Y-127134952D01*
X230211333Y-127277809D01*
X230163714Y-127468285D01*
X230116095Y-127563523D01*
X230020857Y-127658761D01*
X229878000Y-127706380D01*
X229639904Y-127706380D01*
X231068476Y-126706380D02*
X230878000Y-126706380D01*
X230782761Y-126754000D01*
X230735142Y-126801619D01*
X230639904Y-126944476D01*
X230592285Y-127134952D01*
X230592285Y-127515904D01*
X230639904Y-127611142D01*
X230687523Y-127658761D01*
X230782761Y-127706380D01*
X230973238Y-127706380D01*
X231068476Y-127658761D01*
X231116095Y-127611142D01*
X231163714Y-127515904D01*
X231163714Y-127277809D01*
X231116095Y-127182571D01*
X231068476Y-127134952D01*
X230973238Y-127087333D01*
X230782761Y-127087333D01*
X230687523Y-127134952D01*
X230639904Y-127182571D01*
X230592285Y-127277809D01*
G04 #@! TO.C,D7*
X229766904Y-151074380D02*
X229766904Y-150074380D01*
X230005000Y-150074380D01*
X230147857Y-150122000D01*
X230243095Y-150217238D01*
X230290714Y-150312476D01*
X230338333Y-150502952D01*
X230338333Y-150645809D01*
X230290714Y-150836285D01*
X230243095Y-150931523D01*
X230147857Y-151026761D01*
X230005000Y-151074380D01*
X229766904Y-151074380D01*
X230671666Y-150074380D02*
X231338333Y-150074380D01*
X230909761Y-151074380D01*
G04 #@! TO.C,D8*
X229639904Y-154376380D02*
X229639904Y-153376380D01*
X229878000Y-153376380D01*
X230020857Y-153424000D01*
X230116095Y-153519238D01*
X230163714Y-153614476D01*
X230211333Y-153804952D01*
X230211333Y-153947809D01*
X230163714Y-154138285D01*
X230116095Y-154233523D01*
X230020857Y-154328761D01*
X229878000Y-154376380D01*
X229639904Y-154376380D01*
X230782761Y-153804952D02*
X230687523Y-153757333D01*
X230639904Y-153709714D01*
X230592285Y-153614476D01*
X230592285Y-153566857D01*
X230639904Y-153471619D01*
X230687523Y-153424000D01*
X230782761Y-153376380D01*
X230973238Y-153376380D01*
X231068476Y-153424000D01*
X231116095Y-153471619D01*
X231163714Y-153566857D01*
X231163714Y-153614476D01*
X231116095Y-153709714D01*
X231068476Y-153757333D01*
X230973238Y-153804952D01*
X230782761Y-153804952D01*
X230687523Y-153852571D01*
X230639904Y-153900190D01*
X230592285Y-153995428D01*
X230592285Y-154185904D01*
X230639904Y-154281142D01*
X230687523Y-154328761D01*
X230782761Y-154376380D01*
X230973238Y-154376380D01*
X231068476Y-154328761D01*
X231116095Y-154281142D01*
X231163714Y-154185904D01*
X231163714Y-153995428D01*
X231116095Y-153900190D01*
X231068476Y-153852571D01*
X230973238Y-153804952D01*
G04 #@! TD*
M02*
