M48
; DRILL file {KiCad (5.1.9-0-10_14)} date Thursday, December 31, 2020 at 09:36:25 PM
; FORMAT={-:-/ absolute / inch / decimal}
; #@! TF.CreationDate,2020-12-31T21:36:25-06:00
; #@! TF.GenerationSoftware,Kicad,Pcbnew,(5.1.9-0-10_14)
FMAT,2
INCH
T1C0.0160
T2C0.0276
T3C0.0354
T4C0.0394
T5C0.0787
T6C0.1181
T7C0.1260
%
G90
G05
T1
X8.85Y-4.36
X8.89Y-4.3784
X8.97Y-3.483
X8.97Y-3.577
X9.005Y-3.4543
X9.005Y-3.6051
X9.02Y-3.222
X9.02Y-3.316
X9.04Y-3.577
X9.0468Y-3.4818
X9.125Y-2.99
X9.16Y-3.73
X9.205Y-4.49
X9.2196Y-3.7296
X9.245Y-3.27
X9.292Y-2.99
X9.34Y-2.78
X9.34Y-2.875
X9.4609Y-4.3189
X9.51Y-4.32
T2
X8.94Y-2.72
X8.94Y-2.83
X9.1Y-4.775
X9.14Y-2.72
X9.14Y-2.83
X9.26Y-2.72
X9.26Y-2.83
X9.3Y-4.775
X9.46Y-2.72
X9.46Y-2.83
T3
X9.15Y-4.89
X9.15Y-5.9
X9.15Y-6.055
X9.25Y-4.89
X9.25Y-5.9
X9.25Y-6.055
T4
X8.895Y-3.43
X8.895Y-3.53
X8.895Y-3.63
X8.895Y-3.73
X8.895Y-3.83
X8.895Y-3.93
X8.895Y-4.03
X8.895Y-4.13
X8.895Y-4.23
X9.0Y-4.3563
X9.0Y-4.6831
X9.0Y-4.8051
X9.0Y-4.8949
X9.0Y-5.0169
X9.0Y-5.3437
X9.0Y-5.4463
X9.0Y-5.7731
X9.0Y-5.8951
X9.1016Y-2.5953
X9.1016Y-3.3953
X9.1016Y-4.1953
X9.2Y-2.5953
X9.2Y-3.3953
X9.2Y-4.1953
X9.2984Y-2.5953
X9.2984Y-3.3953
X9.2984Y-4.1953
X9.4Y-4.3563
X9.4Y-4.6831
X9.4Y-4.8051
X9.4Y-4.8949
X9.4Y-5.0169
X9.4Y-5.3437
X9.4Y-5.4463
X9.4Y-5.7731
X9.4Y-5.8951
X9.505Y-3.43
X9.505Y-3.53
X9.505Y-3.63
X9.505Y-3.73
X9.505Y-3.83
X9.505Y-3.93
X9.505Y-4.03
X9.505Y-4.13
X9.505Y-4.23
T5
X9.011Y-2.3
X9.011Y-3.1
X9.011Y-3.9
X9.389Y-2.3
X9.389Y-3.1
X9.389Y-3.9
T6
X9.0Y-4.55
X9.0Y-5.15
X9.0Y-5.64
X9.4Y-4.55
X9.4Y-5.15
X9.4Y-5.64
T7
X9.2008Y-3.5718
T0
M30
