M48
; DRILL file {KiCad (5.1.9-0-10_14)} date Sunday, February 07, 2021 at 03:36:04 AM
; FORMAT={-:-/ absolute / inch / decimal}
; #@! TF.CreationDate,2021-02-07T03:36:04-06:00
; #@! TF.GenerationSoftware,Kicad,Pcbnew,(5.1.9-0-10_14)
FMAT,2
INCH
T1C0.0160
T2C0.0240
T3C0.0315
T4C0.0354
T5C0.0394
T6C0.0512
T7C0.1181
T8C0.1260
%
G90
G05
T1
X8.614Y-5.414
X8.66Y-4.29
X8.67Y-2.525
X8.67Y-2.64
X8.73Y-3.01
X8.845Y-3.01
X8.915Y-4.115
X8.93Y-5.835
X8.935Y-5.46
X8.935Y-5.585
X8.945Y-5.325
X8.97Y-4.73
X8.97Y-4.815
X8.98Y-3.865
X8.99Y-5.835
X9.005Y-4.115
X9.03Y-3.8138
X9.04Y-5.325
X9.155Y-2.85
X9.155Y-2.99
X9.22Y-3.34
X9.22Y-6.05
X9.31Y-4.4
X9.31Y-5.96
T2
X8.825Y-6.12
X8.93Y-4.465
T3
X8.655Y-6.12
X8.67Y-2.78
X8.67Y-2.92
X8.755Y-6.12
X8.77Y-2.78
X8.77Y-2.92
X8.79Y-4.4
X8.89Y-4.4
X8.94Y-2.78
X8.94Y-2.92
X9.03Y-4.4
X9.04Y-2.78
X9.04Y-2.92
X9.13Y-4.4
X9.165Y-6.12
X9.265Y-6.12
T4
X8.91Y-4.97
X8.91Y-5.97
X8.91Y-6.12
X9.01Y-4.97
X9.01Y-5.97
X9.01Y-6.12
T5
X8.655Y-3.61
X8.655Y-3.71
X8.655Y-3.81
X8.655Y-3.91
X8.655Y-4.01
X8.655Y-4.11
X8.655Y-4.21
X8.76Y-4.5263
X8.76Y-4.8531
X8.76Y-4.9751
X8.76Y-5.0869
X8.76Y-5.4137
X8.76Y-5.5263
X8.76Y-5.8531
X8.76Y-5.9751
X8.8616Y-2.6753
X8.8616Y-3.4753
X8.8616Y-4.2753
X8.96Y-2.6753
X8.96Y-3.4753
X8.96Y-4.2753
X9.0584Y-2.6753
X9.0584Y-3.4753
X9.0584Y-4.2753
X9.16Y-4.5263
X9.16Y-4.8531
X9.16Y-4.9751
X9.16Y-5.0869
X9.16Y-5.4137
X9.16Y-5.5263
X9.16Y-5.8531
X9.16Y-5.9751
X9.265Y-3.61
X9.265Y-3.71
X9.265Y-3.81
X9.265Y-3.91
X9.265Y-4.01
X9.265Y-4.11
X9.265Y-4.21
T7
X8.76Y-4.72
X8.76Y-5.22
X8.76Y-5.72
X9.16Y-4.72
X9.16Y-5.22
X9.16Y-5.72
T8
X8.9608Y-3.6518
T6
G00X8.7553Y-2.3839
M15
G01X8.7553Y-2.3761
M16
G05
G00X8.7553Y-3.1839
M15
G01X8.7553Y-3.1761
M16
G05
G00X8.7553Y-3.9839
M15
G01X8.7553Y-3.9761
M16
G05
G00X9.1647Y-2.3839
M15
G01X9.1647Y-2.3761
M16
G05
G00X9.1647Y-3.1839
M15
G01X9.1647Y-3.1761
M16
G05
G00X9.1647Y-3.9839
M15
G01X9.1647Y-3.9761
M16
G05
T0
M30
