%TF.GenerationSoftware,KiCad,Pcbnew,(5.1.9-0-10_14)*%
%TF.CreationDate,2021-01-07T01:07:36-06:00*%
%TF.ProjectId,JNTUB_panel,4a4e5455-425f-4706-916e-656c2e6b6963,rev?*%
%TF.SameCoordinates,Original*%
%TF.FileFunction,Legend,Top*%
%TF.FilePolarity,Positive*%
%FSLAX46Y46*%
G04 Gerber Fmt 4.6, Leading zero omitted, Abs format (unit mm)*
G04 Created by KiCad (PCBNEW (5.1.9-0-10_14)) date 2021-01-07 01:07:36*
%MOMM*%
%LPD*%
G01*
G04 APERTURE LIST*
%ADD10C,1.000000*%
%ADD11C,0.100000*%
%ADD12C,0.250000*%
%ADD13C,0.300000*%
%ADD14C,1.630000*%
%ADD15C,1.300000*%
G04 APERTURE END LIST*
D10*
X92205168Y-57153333D02*
G75*
G02*
X102362000Y-57150000I5076832J4829333D01*
G01*
X92205168Y-77473333D02*
G75*
G02*
X102362000Y-77470000I5076832J4829333D01*
G01*
X92205168Y-97793333D02*
G75*
G02*
X102362000Y-97790000I5076832J4829333D01*
G01*
D11*
G36*
X105918000Y-156464000D02*
G01*
X88646000Y-156464000D01*
X88646000Y-150876000D01*
X105918000Y-150876000D01*
X105918000Y-156464000D01*
G37*
X105918000Y-156464000D02*
X88646000Y-156464000D01*
X88646000Y-150876000D01*
X105918000Y-150876000D01*
X105918000Y-156464000D01*
D12*
X90902000Y-143306095D02*
X91149619Y-143306095D01*
X91273428Y-143368000D01*
X91397238Y-143491809D01*
X91459142Y-143739428D01*
X91459142Y-144172761D01*
X91397238Y-144420380D01*
X91273428Y-144544190D01*
X91149619Y-144606095D01*
X90902000Y-144606095D01*
X90778190Y-144544190D01*
X90654380Y-144420380D01*
X90592476Y-144172761D01*
X90592476Y-143739428D01*
X90654380Y-143491809D01*
X90778190Y-143368000D01*
X90902000Y-143306095D01*
X92016285Y-143306095D02*
X92016285Y-144358476D01*
X92078190Y-144482285D01*
X92140095Y-144544190D01*
X92263904Y-144606095D01*
X92511523Y-144606095D01*
X92635333Y-144544190D01*
X92697238Y-144482285D01*
X92759142Y-144358476D01*
X92759142Y-143306095D01*
X93192476Y-143306095D02*
X93935333Y-143306095D01*
X93563904Y-144606095D02*
X93563904Y-143306095D01*
D13*
X99822000Y-147574000D02*
X101346000Y-147574000D01*
D11*
G36*
X104394000Y-63246000D02*
G01*
X89916000Y-63246000D01*
X89916000Y-59182000D01*
X104394000Y-59182000D01*
X104394000Y-63246000D01*
G37*
X104394000Y-63246000D02*
X89916000Y-63246000D01*
X89916000Y-59182000D01*
X104394000Y-59182000D01*
X104394000Y-63246000D01*
D14*
X105918000Y-84074000D02*
X104140000Y-82296000D01*
X105918000Y-105918000D02*
X105918000Y-84074000D01*
D11*
G36*
X104394000Y-83566000D02*
G01*
X89916000Y-83566000D01*
X89916000Y-79502000D01*
X104394000Y-79502000D01*
X104394000Y-83566000D01*
G37*
X104394000Y-83566000D02*
X89916000Y-83566000D01*
X89916000Y-79502000D01*
X104394000Y-79502000D01*
X104394000Y-83566000D01*
D14*
X88646000Y-104038400D02*
X90424000Y-102260400D01*
X88646000Y-105918000D02*
X88646000Y-104038400D01*
D11*
G36*
X104394000Y-103886000D02*
G01*
X89916000Y-103886000D01*
X89916000Y-99822000D01*
X104394000Y-99822000D01*
X104394000Y-103886000D01*
G37*
X104394000Y-103886000D02*
X89916000Y-103886000D01*
X89916000Y-99822000D01*
X104394000Y-99822000D01*
X104394000Y-103886000D01*
D12*
X100040571Y-118190095D02*
X100040571Y-116890095D01*
X100350095Y-116890095D01*
X100535809Y-116952000D01*
X100659619Y-117075809D01*
X100721523Y-117199619D01*
X100783428Y-117447238D01*
X100783428Y-117632952D01*
X100721523Y-117880571D01*
X100659619Y-118004380D01*
X100535809Y-118128190D01*
X100350095Y-118190095D01*
X100040571Y-118190095D01*
X101340571Y-118190095D02*
X101340571Y-116890095D01*
X101773904Y-116890095D02*
X102516761Y-116890095D01*
X102145333Y-118190095D02*
X102145333Y-116890095D01*
X102764380Y-116890095D02*
X103507238Y-116890095D01*
X103135809Y-118190095D02*
X103135809Y-116890095D01*
X104188190Y-116890095D02*
X104435809Y-116890095D01*
X104559619Y-116952000D01*
X104683428Y-117075809D01*
X104745333Y-117323428D01*
X104745333Y-117756761D01*
X104683428Y-118004380D01*
X104559619Y-118128190D01*
X104435809Y-118190095D01*
X104188190Y-118190095D01*
X104064380Y-118128190D01*
X103940571Y-118004380D01*
X103878666Y-117756761D01*
X103878666Y-117323428D01*
X103940571Y-117075809D01*
X104064380Y-116952000D01*
X104188190Y-116890095D01*
X90747238Y-116966285D02*
X90685333Y-117028190D01*
X90499619Y-117090095D01*
X90375809Y-117090095D01*
X90190095Y-117028190D01*
X90066285Y-116904380D01*
X90004380Y-116780571D01*
X89942476Y-116532952D01*
X89942476Y-116347238D01*
X90004380Y-116099619D01*
X90066285Y-115975809D01*
X90190095Y-115852000D01*
X90375809Y-115790095D01*
X90499619Y-115790095D01*
X90685333Y-115852000D01*
X90747238Y-115913904D01*
X91923428Y-117090095D02*
X91304380Y-117090095D01*
X91304380Y-115790095D01*
X92356761Y-117090095D02*
X92356761Y-115790095D01*
X93099619Y-117090095D02*
X92542476Y-116347238D01*
X93099619Y-115790095D02*
X92356761Y-116532952D01*
X94585333Y-115728190D02*
X93471047Y-117399619D01*
X90530571Y-117990095D02*
X91273428Y-117990095D01*
X90902000Y-119290095D02*
X90902000Y-117990095D01*
X92449619Y-119290095D02*
X92016285Y-118671047D01*
X91706761Y-119290095D02*
X91706761Y-117990095D01*
X92202000Y-117990095D01*
X92325809Y-118052000D01*
X92387714Y-118113904D01*
X92449619Y-118237714D01*
X92449619Y-118423428D01*
X92387714Y-118547238D01*
X92325809Y-118609142D01*
X92202000Y-118671047D01*
X91706761Y-118671047D01*
X93687714Y-118052000D02*
X93563904Y-117990095D01*
X93378190Y-117990095D01*
X93192476Y-118052000D01*
X93068666Y-118175809D01*
X93006761Y-118299619D01*
X92944857Y-118547238D01*
X92944857Y-118732952D01*
X93006761Y-118980571D01*
X93068666Y-119104380D01*
X93192476Y-119228190D01*
X93378190Y-119290095D01*
X93502000Y-119290095D01*
X93687714Y-119228190D01*
X93749619Y-119166285D01*
X93749619Y-118732952D01*
X93502000Y-118732952D01*
D13*
X99822000Y-143764000D02*
X101346000Y-143764000D01*
X100584000Y-143002000D02*
X100584000Y-144526000D01*
D11*
G36*
X97663000Y-125349000D02*
G01*
X95885000Y-125349000D01*
X95885000Y-124079000D01*
X97663000Y-124079000D01*
X97663000Y-125349000D01*
G37*
X97663000Y-125349000D02*
X95885000Y-125349000D01*
X95885000Y-124079000D01*
X97663000Y-124079000D01*
X97663000Y-125349000D01*
D15*
X92200389Y-128397000D02*
G75*
G02*
X88519000Y-124714000I1611J3683000D01*
G01*
D11*
G36*
X96520000Y-129032000D02*
G01*
X95250000Y-129032000D01*
X95250000Y-120396000D01*
X96520000Y-120396000D01*
X96520000Y-129032000D01*
G37*
X96520000Y-129032000D02*
X95250000Y-129032000D01*
X95250000Y-120396000D01*
X96520000Y-120396000D01*
X96520000Y-129032000D01*
G36*
X96520000Y-129032000D02*
G01*
X87884000Y-129032000D01*
X87884000Y-127762000D01*
X96520000Y-127762000D01*
X96520000Y-129032000D01*
G37*
X96520000Y-129032000D02*
X87884000Y-129032000D01*
X87884000Y-127762000D01*
X96520000Y-127762000D01*
X96520000Y-129032000D01*
D15*
X88519000Y-124714000D02*
G75*
G02*
X92202000Y-121032611I3683000J-1611D01*
G01*
X95883389Y-124715611D02*
G75*
G02*
X92200389Y-128397000I-3683000J1611D01*
G01*
D11*
G36*
X89027000Y-129032000D02*
G01*
X87884000Y-129032000D01*
X87884000Y-120396000D01*
X89027000Y-120396000D01*
X89027000Y-129032000D01*
G37*
X89027000Y-129032000D02*
X87884000Y-129032000D01*
X87884000Y-120396000D01*
X89027000Y-120396000D01*
X89027000Y-129032000D01*
G36*
X96520000Y-121666000D02*
G01*
X87884000Y-121666000D01*
X87884000Y-120396000D01*
X96520000Y-120396000D01*
X96520000Y-121666000D01*
G37*
X96520000Y-121666000D02*
X87884000Y-121666000D01*
X87884000Y-120396000D01*
X96520000Y-120396000D01*
X96520000Y-121666000D01*
D15*
X92202000Y-121032611D02*
G75*
G02*
X95883389Y-124715611I-1611J-3683000D01*
G01*
X106043389Y-109475611D02*
G75*
G02*
X102360389Y-113157000I-3683000J1611D01*
G01*
X102360389Y-113157000D02*
G75*
G02*
X98679000Y-109474000I1611J3683000D01*
G01*
D11*
G36*
X106680000Y-113792000D02*
G01*
X105410000Y-113792000D01*
X105410000Y-105156000D01*
X106680000Y-105156000D01*
X106680000Y-113792000D01*
G37*
X106680000Y-113792000D02*
X105410000Y-113792000D01*
X105410000Y-105156000D01*
X106680000Y-105156000D01*
X106680000Y-113792000D01*
G36*
X106680000Y-113792000D02*
G01*
X98044000Y-113792000D01*
X98044000Y-112522000D01*
X106680000Y-112522000D01*
X106680000Y-113792000D01*
G37*
X106680000Y-113792000D02*
X98044000Y-113792000D01*
X98044000Y-112522000D01*
X106680000Y-112522000D01*
X106680000Y-113792000D01*
G36*
X99187000Y-113792000D02*
G01*
X98044000Y-113792000D01*
X98044000Y-105156000D01*
X99187000Y-105156000D01*
X99187000Y-113792000D01*
G37*
X99187000Y-113792000D02*
X98044000Y-113792000D01*
X98044000Y-105156000D01*
X99187000Y-105156000D01*
X99187000Y-113792000D01*
G36*
X106680000Y-106426000D02*
G01*
X98044000Y-106426000D01*
X98044000Y-105156000D01*
X106680000Y-105156000D01*
X106680000Y-106426000D01*
G37*
X106680000Y-106426000D02*
X98044000Y-106426000D01*
X98044000Y-105156000D01*
X106680000Y-105156000D01*
X106680000Y-106426000D01*
D15*
X102362000Y-105792611D02*
G75*
G02*
X106043389Y-109475611I-1611J-3683000D01*
G01*
X98679000Y-109474000D02*
G75*
G02*
X102362000Y-105792611I3683000J-1611D01*
G01*
X95883389Y-109475611D02*
G75*
G02*
X92200389Y-113157000I-3683000J1611D01*
G01*
X92202000Y-105792611D02*
G75*
G02*
X95883389Y-109475611I-1611J-3683000D01*
G01*
X88519000Y-109474000D02*
G75*
G02*
X92202000Y-105792611I3683000J-1611D01*
G01*
X92200389Y-113157000D02*
G75*
G02*
X88519000Y-109474000I1611J3683000D01*
G01*
D11*
G36*
X96520000Y-106426000D02*
G01*
X87884000Y-106426000D01*
X87884000Y-105156000D01*
X96520000Y-105156000D01*
X96520000Y-106426000D01*
G37*
X96520000Y-106426000D02*
X87884000Y-106426000D01*
X87884000Y-105156000D01*
X96520000Y-105156000D01*
X96520000Y-106426000D01*
G36*
X89027000Y-113792000D02*
G01*
X87884000Y-113792000D01*
X87884000Y-105156000D01*
X89027000Y-105156000D01*
X89027000Y-113792000D01*
G37*
X89027000Y-113792000D02*
X87884000Y-113792000D01*
X87884000Y-105156000D01*
X89027000Y-105156000D01*
X89027000Y-113792000D01*
G36*
X96520000Y-113792000D02*
G01*
X87884000Y-113792000D01*
X87884000Y-112522000D01*
X96520000Y-112522000D01*
X96520000Y-113792000D01*
G37*
X96520000Y-113792000D02*
X87884000Y-113792000D01*
X87884000Y-112522000D01*
X96520000Y-112522000D01*
X96520000Y-113792000D01*
G36*
X96520000Y-113792000D02*
G01*
X95250000Y-113792000D01*
X95250000Y-105156000D01*
X96520000Y-105156000D01*
X96520000Y-113792000D01*
G37*
X96520000Y-113792000D02*
X95250000Y-113792000D01*
X95250000Y-105156000D01*
X96520000Y-105156000D01*
X96520000Y-113792000D01*
M02*
