M48
; DRILL file {KiCad (5.1.9-0-10_14)} date Sunday, February 07, 2021 at 01:41:03 AM
; FORMAT={-:-/ absolute / inch / decimal}
; #@! TF.CreationDate,2021-02-07T01:41:03-06:00
; #@! TF.GenerationSoftware,Kicad,Pcbnew,(5.1.9-0-10_14)
FMAT,2
INCH
T1C0.0160
T2C0.0197
T3C0.1102
T4C0.1260
T5C0.2441
T6C0.2756
T7C0.2756
%
G90
G05
T1
X3.45Y-4.99
X3.85Y-4.99
X4.35Y-4.99
X4.75Y-4.99
X5.25Y-4.99
X5.65Y-4.99
T2
X4.0528Y-1.1855
X4.0528Y-1.217
X4.0528Y-1.2485
X4.0528Y-1.28
X4.0528Y-1.3115
X4.0528Y-1.343
X4.0528Y-1.3745
X4.0528Y-3.4005
X4.0528Y-3.432
X4.0528Y-3.4635
X4.0528Y-3.495
X4.0528Y-3.5265
X4.0528Y-3.558
X4.0528Y-3.5895
X4.0528Y-5.4905
X4.0528Y-5.522
X4.0528Y-5.5535
X4.0528Y-5.585
X4.0528Y-5.6165
X4.0528Y-5.648
X4.0528Y-5.6795
X4.1433Y-1.1855
X4.1433Y-1.217
X4.1433Y-1.2485
X4.1433Y-1.28
X4.1433Y-1.3115
X4.1433Y-1.343
X4.1433Y-1.3745
X4.1433Y-3.4005
X4.1433Y-3.432
X4.1433Y-3.4635
X4.1433Y-3.495
X4.1433Y-3.5265
X4.1433Y-3.558
X4.1433Y-3.5895
X4.1433Y-5.4905
X4.1433Y-5.522
X4.1433Y-5.5535
X4.1433Y-5.585
X4.1433Y-5.6165
X4.1433Y-5.648
X4.1433Y-5.6795
X4.9528Y-1.1805
X4.9528Y-1.212
X4.9528Y-1.2435
X4.9528Y-1.275
X4.9528Y-1.3065
X4.9528Y-1.338
X4.9528Y-1.3695
X4.9528Y-3.4005
X4.9528Y-3.432
X4.9528Y-3.4635
X4.9528Y-3.495
X4.9528Y-3.5265
X4.9528Y-3.558
X4.9528Y-3.5895
X4.9528Y-5.4905
X4.9528Y-5.522
X4.9528Y-5.5535
X4.9528Y-5.585
X4.9528Y-5.6165
X4.9528Y-5.648
X4.9528Y-5.6795
X5.0433Y-1.1805
X5.0433Y-1.212
X5.0433Y-1.2435
X5.0433Y-1.275
X5.0433Y-1.3065
X5.0433Y-1.338
X5.0433Y-1.3695
X5.0433Y-3.4005
X5.0433Y-3.432
X5.0433Y-3.4635
X5.0433Y-3.495
X5.0433Y-3.5265
X5.0433Y-3.558
X5.0433Y-3.5895
X5.0433Y-5.4905
X5.0433Y-5.522
X5.0433Y-5.5535
X5.0433Y-5.585
X5.0433Y-5.6165
X5.0433Y-5.648
X5.0433Y-5.6795
T3
X3.65Y-4.39
X3.65Y-5.39
X3.65Y-5.54
X4.55Y-4.39
X4.55Y-5.39
X4.55Y-5.54
X5.45Y-4.39
X5.45Y-5.39
X5.45Y-5.54
T5
X3.45Y-4.14
X3.45Y-4.64
X3.45Y-5.14
X3.85Y-4.14
X3.85Y-4.64
X3.85Y-5.14
X4.35Y-4.14
X4.35Y-4.64
X4.35Y-5.14
X4.75Y-4.14
X4.75Y-4.64
X4.75Y-5.14
X5.25Y-4.14
X5.25Y-4.64
X5.25Y-5.14
X5.65Y-4.14
X5.65Y-4.64
X5.65Y-5.14
T6
X3.65Y-3.4
X4.55Y-3.4
X5.45Y-3.4
T7
X3.65Y-1.8
X3.65Y-2.6
X4.55Y-1.8
X4.55Y-2.6
X5.45Y-1.8
X5.45Y-2.6
T4
G00X3.5165Y-1.048
M15
G01X3.5735Y-1.048
M16
G05
G00X3.5165Y-5.872
M15
G01X3.5735Y-5.872
M16
G05
G00X4.4165Y-1.048
M15
G01X4.4735Y-1.048
M16
G05
G00X4.4165Y-5.872
M15
G01X4.4735Y-5.872
M16
G05
G00X5.3165Y-1.048
M15
G01X5.3735Y-1.048
M16
G05
G00X5.3165Y-5.872
M15
G01X5.3735Y-5.872
M16
G05
T0
M30
