%TF.GenerationSoftware,KiCad,Pcbnew,(5.1.9-0-10_14)*%
%TF.CreationDate,2021-01-17T19:37:13-06:00*%
%TF.ProjectId,JNTUB_panel,4a4e5455-425f-4706-916e-656c2e6b6963,rev?*%
%TF.SameCoordinates,Original*%
%TF.FileFunction,Legend,Bot*%
%TF.FilePolarity,Positive*%
%FSLAX46Y46*%
G04 Gerber Fmt 4.6, Leading zero omitted, Abs format (unit mm)*
G04 Created by KiCad (PCBNEW (5.1.9-0-10_14)) date 2021-01-17 19:37:13*
%MOMM*%
%LPD*%
G01*
G04 APERTURE LIST*
%ADD10C,0.150000*%
%ADD11C,0.300000*%
G04 APERTURE END LIST*
D10*
X90881200Y-154432000D02*
X90474800Y-154432000D01*
D11*
X91490800Y-151434800D02*
X89154000Y-151434800D01*
D10*
X91465400Y-152603200D02*
X91465400Y-153162000D01*
X89357200Y-154432000D02*
X89001600Y-154432000D01*
X89916000Y-154178000D02*
X89712800Y-154584400D01*
X90271600Y-151841200D02*
X89306400Y-153162000D01*
X91643200Y-153670000D02*
X91643200Y-154432000D01*
X90881200Y-154127200D02*
X90881200Y-154736800D01*
X90830400Y-153162000D02*
X90830400Y-151384000D01*
X91643200Y-153670000D02*
X89001600Y-153670000D01*
X90119200Y-154584400D02*
X89916000Y-154178000D01*
X90322400Y-154178000D02*
X90119200Y-154584400D01*
X89712800Y-154584400D02*
X89509600Y-154178000D01*
X90373200Y-151841200D02*
X90271600Y-151841200D01*
X89509600Y-154178000D02*
X89357200Y-154432000D01*
X89204800Y-153162000D02*
X89204800Y-151841200D01*
X89001600Y-153670000D02*
X89001600Y-154432000D01*
X91643200Y-154432000D02*
X91186000Y-154432000D01*
X89306400Y-153162000D02*
X89204800Y-153162000D01*
X90474800Y-154432000D02*
X90322400Y-154178000D01*
X91465400Y-153162000D02*
X90830400Y-153162000D01*
X91186000Y-154736800D02*
X91186000Y-154127200D01*
X90373200Y-153162000D02*
X90373200Y-151841200D01*
X88606380Y-90376952D02*
X89320666Y-90376952D01*
X89463523Y-90329333D01*
X89558761Y-90234095D01*
X89606380Y-90091238D01*
X89606380Y-89996000D01*
X89606380Y-91329333D02*
X89606380Y-90853142D01*
X88606380Y-90853142D01*
X89511142Y-92234095D02*
X89558761Y-92186476D01*
X89606380Y-92043619D01*
X89606380Y-91948380D01*
X89558761Y-91805523D01*
X89463523Y-91710285D01*
X89368285Y-91662666D01*
X89177809Y-91615047D01*
X89034952Y-91615047D01*
X88844476Y-91662666D01*
X88749238Y-91710285D01*
X88654000Y-91805523D01*
X88606380Y-91948380D01*
X88606380Y-92043619D01*
X88654000Y-92186476D01*
X88701619Y-92234095D01*
X88606380Y-92948380D02*
X89320666Y-92948380D01*
X89463523Y-92900761D01*
X89558761Y-92805523D01*
X89606380Y-92662666D01*
X89606380Y-92567428D01*
X89606380Y-93900761D02*
X89606380Y-93424571D01*
X88606380Y-93424571D01*
X89511142Y-94805523D02*
X89558761Y-94757904D01*
X89606380Y-94615047D01*
X89606380Y-94519809D01*
X89558761Y-94376952D01*
X89463523Y-94281714D01*
X89368285Y-94234095D01*
X89177809Y-94186476D01*
X89034952Y-94186476D01*
X88844476Y-94234095D01*
X88749238Y-94281714D01*
X88654000Y-94376952D01*
X88606380Y-94519809D01*
X88606380Y-94615047D01*
X88654000Y-94757904D01*
X88701619Y-94805523D01*
X88606380Y-95519809D02*
X89320666Y-95519809D01*
X89463523Y-95472190D01*
X89558761Y-95376952D01*
X89606380Y-95234095D01*
X89606380Y-95138857D01*
X89606380Y-96472190D02*
X89606380Y-95996000D01*
X88606380Y-95996000D01*
X89511142Y-97376952D02*
X89558761Y-97329333D01*
X89606380Y-97186476D01*
X89606380Y-97091238D01*
X89558761Y-96948380D01*
X89463523Y-96853142D01*
X89368285Y-96805523D01*
X89177809Y-96757904D01*
X89034952Y-96757904D01*
X88844476Y-96805523D01*
X88749238Y-96853142D01*
X88654000Y-96948380D01*
X88606380Y-97091238D01*
X88606380Y-97186476D01*
X88654000Y-97329333D01*
X88701619Y-97376952D01*
X88606380Y-98091238D02*
X89320666Y-98091238D01*
X89463523Y-98043619D01*
X89558761Y-97948380D01*
X89606380Y-97805523D01*
X89606380Y-97710285D01*
X89606380Y-99043619D02*
X89606380Y-98567428D01*
X88606380Y-98567428D01*
X89511142Y-99948380D02*
X89558761Y-99900761D01*
X89606380Y-99757904D01*
X89606380Y-99662666D01*
X89558761Y-99519809D01*
X89463523Y-99424571D01*
X89368285Y-99376952D01*
X89177809Y-99329333D01*
X89034952Y-99329333D01*
X88844476Y-99376952D01*
X88749238Y-99424571D01*
X88654000Y-99519809D01*
X88606380Y-99662666D01*
X88606380Y-99757904D01*
X88654000Y-99900761D01*
X88701619Y-99948380D01*
M02*
