%TF.GenerationSoftware,KiCad,Pcbnew,(5.1.9-0-10_14)*%
%TF.CreationDate,2021-01-17T19:37:13-06:00*%
%TF.ProjectId,JNTUB_panel,4a4e5455-425f-4706-916e-656c2e6b6963,rev?*%
%TF.SameCoordinates,Original*%
%TF.FileFunction,Soldermask,Bot*%
%TF.FilePolarity,Negative*%
%FSLAX46Y46*%
G04 Gerber Fmt 4.6, Leading zero omitted, Abs format (unit mm)*
G04 Created by KiCad (PCBNEW (5.1.9-0-10_14)) date 2021-01-17 19:37:13*
%MOMM*%
%LPD*%
G01*
G04 APERTURE LIST*
%ADD10C,0.500000*%
%ADD11O,4.750000X3.300000*%
%ADD12O,4.650000X3.200000*%
%ADD13C,3.000000*%
%ADD14C,6.200000*%
%ADD15C,7.000000*%
%ADD16C,0.254000*%
%ADD17C,0.100000*%
G04 APERTURE END LIST*
D10*
X105429285Y-155221952D02*
X105429285Y-157007666D01*
X105548333Y-157364809D01*
X105786428Y-157602904D01*
X106143571Y-157721952D01*
X106381666Y-157721952D01*
X104238809Y-157721952D02*
X104238809Y-155221952D01*
X102810238Y-157721952D01*
X102810238Y-155221952D01*
X101976904Y-155221952D02*
X100548333Y-155221952D01*
X101262619Y-157721952D02*
X101262619Y-155221952D01*
X99715000Y-155221952D02*
X99715000Y-157245761D01*
X99595952Y-157483857D01*
X99476904Y-157602904D01*
X99238809Y-157721952D01*
X98762619Y-157721952D01*
X98524523Y-157602904D01*
X98405476Y-157483857D01*
X98286428Y-157245761D01*
X98286428Y-155221952D01*
X96262619Y-156412428D02*
X95905476Y-156531476D01*
X95786428Y-156650523D01*
X95667380Y-156888619D01*
X95667380Y-157245761D01*
X95786428Y-157483857D01*
X95905476Y-157602904D01*
X96143571Y-157721952D01*
X97095952Y-157721952D01*
X97095952Y-155221952D01*
X96262619Y-155221952D01*
X96024523Y-155341000D01*
X95905476Y-155460047D01*
X95786428Y-155698142D01*
X95786428Y-155936238D01*
X95905476Y-156174333D01*
X96024523Y-156293380D01*
X96262619Y-156412428D01*
X97095952Y-156412428D01*
D11*
%TO.C,REF\u002A\u002A*%
X94615000Y-160578800D03*
%TD*%
D12*
%TO.C,REF\u002A\u002A*%
X94615000Y-38049200D03*
%TD*%
D13*
%TO.C,REF\u002A\u002A*%
X97282000Y-148590000D03*
%TD*%
%TO.C,REF\u002A\u002A*%
X97282000Y-144780000D03*
%TD*%
%TO.C,REF\u002A\u002A*%
X97282000Y-119380000D03*
%TD*%
D14*
%TO.C,REF\u002A\u002A*%
X102362000Y-138430000D03*
%TD*%
%TO.C,REF\u002A\u002A*%
X92202000Y-138430000D03*
%TD*%
%TO.C,REF\u002A\u002A*%
X92202000Y-125730000D03*
%TD*%
%TO.C,REF\u002A\u002A*%
X102362000Y-125730000D03*
%TD*%
%TO.C,REF\u002A\u002A*%
X102362000Y-113030000D03*
%TD*%
%TO.C,REF\u002A\u002A*%
X92202000Y-113030000D03*
%TD*%
D15*
%TO.C,REF\u002A\u002A*%
X97282000Y-94234000D03*
%TD*%
%TO.C,REF\u002A\u002A*%
X97282000Y-73914000D03*
%TD*%
%TO.C,REF\u002A\u002A*%
X97282000Y-53594000D03*
%TD*%
D16*
X107188000Y-163449000D02*
X87376000Y-163449000D01*
X87376000Y-160578800D01*
X92227400Y-160578800D01*
X92247101Y-160829126D01*
X92305719Y-161073289D01*
X92401811Y-161305276D01*
X92533011Y-161519374D01*
X92696088Y-161710312D01*
X92887026Y-161873389D01*
X93101124Y-162004589D01*
X93333111Y-162100681D01*
X93577274Y-162159299D01*
X93827600Y-162179000D01*
X95402400Y-162179000D01*
X95652726Y-162159299D01*
X95896889Y-162100681D01*
X96128876Y-162004589D01*
X96342974Y-161873389D01*
X96533912Y-161710312D01*
X96696989Y-161519374D01*
X96828189Y-161305276D01*
X96924281Y-161073289D01*
X96982899Y-160829126D01*
X97002600Y-160578800D01*
X96982899Y-160328474D01*
X96924281Y-160084311D01*
X96828189Y-159852324D01*
X96696989Y-159638226D01*
X96533912Y-159447288D01*
X96342974Y-159284211D01*
X96128876Y-159153011D01*
X95896889Y-159056919D01*
X95652726Y-158998301D01*
X95402400Y-158978600D01*
X93827600Y-158978600D01*
X93577274Y-158998301D01*
X93333111Y-159056919D01*
X93101124Y-159153011D01*
X92887026Y-159284211D01*
X92696088Y-159447288D01*
X92533011Y-159638226D01*
X92401811Y-159852324D01*
X92305719Y-160084311D01*
X92247101Y-160328474D01*
X92227400Y-160578800D01*
X87376000Y-160578800D01*
X87376000Y-157861000D01*
X107188000Y-157861000D01*
X107188000Y-163449000D01*
D17*
G36*
X107188000Y-163449000D02*
G01*
X87376000Y-163449000D01*
X87376000Y-160578800D01*
X92227400Y-160578800D01*
X92247101Y-160829126D01*
X92305719Y-161073289D01*
X92401811Y-161305276D01*
X92533011Y-161519374D01*
X92696088Y-161710312D01*
X92887026Y-161873389D01*
X93101124Y-162004589D01*
X93333111Y-162100681D01*
X93577274Y-162159299D01*
X93827600Y-162179000D01*
X95402400Y-162179000D01*
X95652726Y-162159299D01*
X95896889Y-162100681D01*
X96128876Y-162004589D01*
X96342974Y-161873389D01*
X96533912Y-161710312D01*
X96696989Y-161519374D01*
X96828189Y-161305276D01*
X96924281Y-161073289D01*
X96982899Y-160829126D01*
X97002600Y-160578800D01*
X96982899Y-160328474D01*
X96924281Y-160084311D01*
X96828189Y-159852324D01*
X96696989Y-159638226D01*
X96533912Y-159447288D01*
X96342974Y-159284211D01*
X96128876Y-159153011D01*
X95896889Y-159056919D01*
X95652726Y-158998301D01*
X95402400Y-158978600D01*
X93827600Y-158978600D01*
X93577274Y-158998301D01*
X93333111Y-159056919D01*
X93101124Y-159153011D01*
X92887026Y-159284211D01*
X92696088Y-159447288D01*
X92533011Y-159638226D01*
X92401811Y-159852324D01*
X92305719Y-160084311D01*
X92247101Y-160328474D01*
X92227400Y-160578800D01*
X87376000Y-160578800D01*
X87376000Y-157861000D01*
X107188000Y-157861000D01*
X107188000Y-163449000D01*
G37*
M02*
