%TF.GenerationSoftware,KiCad,Pcbnew,(5.1.9-0-10_14)*%
%TF.CreationDate,2021-01-17T19:37:13-06:00*%
%TF.ProjectId,JNTUB_panel,4a4e5455-425f-4706-916e-656c2e6b6963,rev?*%
%TF.SameCoordinates,Original*%
%TF.FileFunction,Profile,NP*%
%FSLAX46Y46*%
G04 Gerber Fmt 4.6, Leading zero omitted, Abs format (unit mm)*
G04 Created by KiCad (PCBNEW (5.1.9-0-10_14)) date 2021-01-17 19:37:13*
%MOMM*%
%LPD*%
G01*
G04 APERTURE LIST*
%TA.AperFunction,Profile*%
%ADD10C,0.150000*%
%TD*%
G04 APERTURE END LIST*
D10*
X94615000Y-162179000D02*
X95402400Y-162179000D01*
X94615000Y-162179000D02*
X93827600Y-162179000D01*
X94615000Y-158978600D02*
X95402400Y-158978600D01*
X94615000Y-158978600D02*
X93827600Y-158978600D01*
X93827600Y-162179000D02*
G75*
G02*
X92227400Y-160578800I0J1600200D01*
G01*
X97002600Y-160578800D02*
G75*
G02*
X95402400Y-162179000I-1600200J0D01*
G01*
X92227400Y-160578800D02*
G75*
G02*
X93827600Y-158978600I1600200J0D01*
G01*
X95402400Y-158978600D02*
G75*
G02*
X97002600Y-160578800I0J-1600200D01*
G01*
X94615000Y-36449000D02*
X95402400Y-36449000D01*
X94615000Y-36449000D02*
X93827600Y-36449000D01*
X97002600Y-38049200D02*
G75*
G02*
X95402400Y-39649400I-1600200J0D01*
G01*
X93827600Y-39649400D02*
G75*
G02*
X92227400Y-38049200I0J1600200D01*
G01*
X95402400Y-36449000D02*
G75*
G02*
X97002600Y-38049200I0J-1600200D01*
G01*
X94615000Y-39649400D02*
X93827600Y-39649400D01*
X94615000Y-39649400D02*
X95402400Y-39649400D01*
X92227400Y-38049200D02*
G75*
G02*
X93827600Y-36449000I1600200J0D01*
G01*
X100782000Y-53594000D02*
G75*
G03*
X100782000Y-53594000I-3500000J0D01*
G01*
X100782000Y-73914000D02*
G75*
G03*
X100782000Y-73914000I-3500000J0D01*
G01*
X100782000Y-94234000D02*
G75*
G03*
X100782000Y-94234000I-3500000J0D01*
G01*
X95302000Y-138430000D02*
G75*
G03*
X95302000Y-138430000I-3100000J0D01*
G01*
X105462000Y-138430000D02*
G75*
G03*
X105462000Y-138430000I-3100000J0D01*
G01*
X105462000Y-125730000D02*
G75*
G03*
X105462000Y-125730000I-3100000J0D01*
G01*
X98782000Y-148590000D02*
G75*
G03*
X98782000Y-148590000I-1500000J0D01*
G01*
X98782000Y-144780000D02*
G75*
G03*
X98782000Y-144780000I-1500000J0D01*
G01*
X95302000Y-125730000D02*
G75*
G03*
X95302000Y-125730000I-3100000J0D01*
G01*
X105462000Y-113030000D02*
G75*
G03*
X105462000Y-113030000I-3100000J0D01*
G01*
X98782000Y-119380000D02*
G75*
G03*
X98782000Y-119380000I-1500000J0D01*
G01*
X95302000Y-113030000D02*
G75*
G03*
X95302000Y-113030000I-3100000J0D01*
G01*
X87249000Y-35052000D02*
X107315000Y-35052000D01*
X87249000Y-163576000D02*
X107315000Y-163576000D01*
X107315000Y-35052000D02*
X107315000Y-163576000D01*
X87249000Y-35052000D02*
X87249000Y-163576000D01*
M02*
