%TF.GenerationSoftware,KiCad,Pcbnew,(5.1.9-0-10_14)*%
%TF.CreationDate,2021-01-17T19:37:13-06:00*%
%TF.ProjectId,JNTUB_panel,4a4e5455-425f-4706-916e-656c2e6b6963,rev?*%
%TF.SameCoordinates,Original*%
%TF.FileFunction,Legend,Top*%
%TF.FilePolarity,Positive*%
%FSLAX46Y46*%
G04 Gerber Fmt 4.6, Leading zero omitted, Abs format (unit mm)*
G04 Created by KiCad (PCBNEW (5.1.9-0-10_14)) date 2021-01-17 19:37:13*
%MOMM*%
%LPD*%
G01*
G04 APERTURE LIST*
%ADD10C,0.250000*%
%ADD11C,0.150000*%
%ADD12C,0.300000*%
%ADD13C,0.200000*%
%ADD14C,0.800000*%
%ADD15C,0.100000*%
%ADD16C,1.300000*%
G04 APERTURE END LIST*
D10*
X92782000Y-63416571D02*
X92782000Y-61916571D01*
X93353428Y-61916571D01*
X93496285Y-61988000D01*
X93567714Y-62059428D01*
X93639142Y-62202285D01*
X93639142Y-62416571D01*
X93567714Y-62559428D01*
X93496285Y-62630857D01*
X93353428Y-62702285D01*
X92782000Y-62702285D01*
X94924857Y-63416571D02*
X94924857Y-62630857D01*
X94853428Y-62488000D01*
X94710571Y-62416571D01*
X94424857Y-62416571D01*
X94282000Y-62488000D01*
X94924857Y-63345142D02*
X94782000Y-63416571D01*
X94424857Y-63416571D01*
X94282000Y-63345142D01*
X94210571Y-63202285D01*
X94210571Y-63059428D01*
X94282000Y-62916571D01*
X94424857Y-62845142D01*
X94782000Y-62845142D01*
X94924857Y-62773714D01*
X95639142Y-63416571D02*
X95639142Y-62416571D01*
X95639142Y-62702285D02*
X95710571Y-62559428D01*
X95782000Y-62488000D01*
X95924857Y-62416571D01*
X96067714Y-62416571D01*
X97210571Y-63416571D02*
X97210571Y-62630857D01*
X97139142Y-62488000D01*
X96996285Y-62416571D01*
X96710571Y-62416571D01*
X96567714Y-62488000D01*
X97210571Y-63345142D02*
X97067714Y-63416571D01*
X96710571Y-63416571D01*
X96567714Y-63345142D01*
X96496285Y-63202285D01*
X96496285Y-63059428D01*
X96567714Y-62916571D01*
X96710571Y-62845142D01*
X97067714Y-62845142D01*
X97210571Y-62773714D01*
X97924857Y-63416571D02*
X97924857Y-62416571D01*
X97924857Y-62559428D02*
X97996285Y-62488000D01*
X98139142Y-62416571D01*
X98353428Y-62416571D01*
X98496285Y-62488000D01*
X98567714Y-62630857D01*
X98567714Y-63416571D01*
X98567714Y-62630857D02*
X98639142Y-62488000D01*
X98782000Y-62416571D01*
X98996285Y-62416571D01*
X99139142Y-62488000D01*
X99210571Y-62630857D01*
X99210571Y-63416571D01*
X100924857Y-61916571D02*
X101853428Y-61916571D01*
X101353428Y-62488000D01*
X101567714Y-62488000D01*
X101710571Y-62559428D01*
X101782000Y-62630857D01*
X101853428Y-62773714D01*
X101853428Y-63130857D01*
X101782000Y-63273714D01*
X101710571Y-63345142D01*
X101567714Y-63416571D01*
X101139142Y-63416571D01*
X100996285Y-63345142D01*
X100924857Y-63273714D01*
X92782000Y-83736571D02*
X92782000Y-82236571D01*
X93353428Y-82236571D01*
X93496285Y-82308000D01*
X93567714Y-82379428D01*
X93639142Y-82522285D01*
X93639142Y-82736571D01*
X93567714Y-82879428D01*
X93496285Y-82950857D01*
X93353428Y-83022285D01*
X92782000Y-83022285D01*
X94924857Y-83736571D02*
X94924857Y-82950857D01*
X94853428Y-82808000D01*
X94710571Y-82736571D01*
X94424857Y-82736571D01*
X94282000Y-82808000D01*
X94924857Y-83665142D02*
X94782000Y-83736571D01*
X94424857Y-83736571D01*
X94282000Y-83665142D01*
X94210571Y-83522285D01*
X94210571Y-83379428D01*
X94282000Y-83236571D01*
X94424857Y-83165142D01*
X94782000Y-83165142D01*
X94924857Y-83093714D01*
X95639142Y-83736571D02*
X95639142Y-82736571D01*
X95639142Y-83022285D02*
X95710571Y-82879428D01*
X95782000Y-82808000D01*
X95924857Y-82736571D01*
X96067714Y-82736571D01*
X97210571Y-83736571D02*
X97210571Y-82950857D01*
X97139142Y-82808000D01*
X96996285Y-82736571D01*
X96710571Y-82736571D01*
X96567714Y-82808000D01*
X97210571Y-83665142D02*
X97067714Y-83736571D01*
X96710571Y-83736571D01*
X96567714Y-83665142D01*
X96496285Y-83522285D01*
X96496285Y-83379428D01*
X96567714Y-83236571D01*
X96710571Y-83165142D01*
X97067714Y-83165142D01*
X97210571Y-83093714D01*
X97924857Y-83736571D02*
X97924857Y-82736571D01*
X97924857Y-82879428D02*
X97996285Y-82808000D01*
X98139142Y-82736571D01*
X98353428Y-82736571D01*
X98496285Y-82808000D01*
X98567714Y-82950857D01*
X98567714Y-83736571D01*
X98567714Y-82950857D02*
X98639142Y-82808000D01*
X98782000Y-82736571D01*
X98996285Y-82736571D01*
X99139142Y-82808000D01*
X99210571Y-82950857D01*
X99210571Y-83736571D01*
X100996285Y-82379428D02*
X101067714Y-82308000D01*
X101210571Y-82236571D01*
X101567714Y-82236571D01*
X101710571Y-82308000D01*
X101782000Y-82379428D01*
X101853428Y-82522285D01*
X101853428Y-82665142D01*
X101782000Y-82879428D01*
X100924857Y-83736571D01*
X101853428Y-83736571D01*
X92782000Y-104056571D02*
X92782000Y-102556571D01*
X93353428Y-102556571D01*
X93496285Y-102628000D01*
X93567714Y-102699428D01*
X93639142Y-102842285D01*
X93639142Y-103056571D01*
X93567714Y-103199428D01*
X93496285Y-103270857D01*
X93353428Y-103342285D01*
X92782000Y-103342285D01*
X94924857Y-104056571D02*
X94924857Y-103270857D01*
X94853428Y-103128000D01*
X94710571Y-103056571D01*
X94424857Y-103056571D01*
X94282000Y-103128000D01*
X94924857Y-103985142D02*
X94782000Y-104056571D01*
X94424857Y-104056571D01*
X94282000Y-103985142D01*
X94210571Y-103842285D01*
X94210571Y-103699428D01*
X94282000Y-103556571D01*
X94424857Y-103485142D01*
X94782000Y-103485142D01*
X94924857Y-103413714D01*
X95639142Y-104056571D02*
X95639142Y-103056571D01*
X95639142Y-103342285D02*
X95710571Y-103199428D01*
X95782000Y-103128000D01*
X95924857Y-103056571D01*
X96067714Y-103056571D01*
X97210571Y-104056571D02*
X97210571Y-103270857D01*
X97139142Y-103128000D01*
X96996285Y-103056571D01*
X96710571Y-103056571D01*
X96567714Y-103128000D01*
X97210571Y-103985142D02*
X97067714Y-104056571D01*
X96710571Y-104056571D01*
X96567714Y-103985142D01*
X96496285Y-103842285D01*
X96496285Y-103699428D01*
X96567714Y-103556571D01*
X96710571Y-103485142D01*
X97067714Y-103485142D01*
X97210571Y-103413714D01*
X97924857Y-104056571D02*
X97924857Y-103056571D01*
X97924857Y-103199428D02*
X97996285Y-103128000D01*
X98139142Y-103056571D01*
X98353428Y-103056571D01*
X98496285Y-103128000D01*
X98567714Y-103270857D01*
X98567714Y-104056571D01*
X98567714Y-103270857D02*
X98639142Y-103128000D01*
X98782000Y-103056571D01*
X98996285Y-103056571D01*
X99139142Y-103128000D01*
X99210571Y-103270857D01*
X99210571Y-104056571D01*
X101853428Y-104056571D02*
X100996285Y-104056571D01*
X101424857Y-104056571D02*
X101424857Y-102556571D01*
X101282000Y-102770857D01*
X101139142Y-102913714D01*
X100996285Y-102985142D01*
D11*
X97231200Y-155600400D02*
X97231200Y-154279600D01*
X96418400Y-157175200D02*
X96418400Y-156565600D01*
X96139000Y-155600400D02*
X96774000Y-155600400D01*
X97129600Y-156870400D02*
X97282000Y-156616400D01*
X98298000Y-155600400D02*
X98399600Y-155600400D01*
X95961200Y-156870400D02*
X96418400Y-156870400D01*
X98602800Y-156108400D02*
X98602800Y-156870400D01*
X98399600Y-155600400D02*
X98399600Y-154279600D01*
X98094800Y-156616400D02*
X98247200Y-156870400D01*
X97231200Y-154279600D02*
X97332800Y-154279600D01*
X97891600Y-157022800D02*
X98094800Y-156616400D01*
X97282000Y-156616400D02*
X97485200Y-157022800D01*
X97485200Y-157022800D02*
X97688400Y-156616400D01*
X95961200Y-156108400D02*
X98602800Y-156108400D01*
X96774000Y-155600400D02*
X96774000Y-153822400D01*
X96723200Y-156565600D02*
X96723200Y-157175200D01*
X95961200Y-156108400D02*
X95961200Y-156870400D01*
X97332800Y-154279600D02*
X98298000Y-155600400D01*
X97688400Y-156616400D02*
X97891600Y-157022800D01*
X98247200Y-156870400D02*
X98602800Y-156870400D01*
X96139000Y-155041600D02*
X96139000Y-155600400D01*
D12*
X96113600Y-153873200D02*
X98450400Y-153873200D01*
D11*
X96723200Y-156870400D02*
X97129600Y-156870400D01*
D13*
X101288190Y-119518857D02*
X101235809Y-119571238D01*
X101078666Y-119623619D01*
X100973904Y-119623619D01*
X100816761Y-119571238D01*
X100712000Y-119466476D01*
X100659619Y-119361714D01*
X100607238Y-119152190D01*
X100607238Y-118995047D01*
X100659619Y-118785523D01*
X100712000Y-118680761D01*
X100816761Y-118576000D01*
X100973904Y-118523619D01*
X101078666Y-118523619D01*
X101235809Y-118576000D01*
X101288190Y-118628380D01*
X101602476Y-118523619D02*
X101969142Y-119623619D01*
X102335809Y-118523619D01*
X103488190Y-118628380D02*
X103540571Y-118576000D01*
X103645333Y-118523619D01*
X103907238Y-118523619D01*
X104012000Y-118576000D01*
X104064380Y-118628380D01*
X104116761Y-118733142D01*
X104116761Y-118837904D01*
X104064380Y-118995047D01*
X103435809Y-119623619D01*
X104116761Y-119623619D01*
X91128190Y-119518857D02*
X91075809Y-119571238D01*
X90918666Y-119623619D01*
X90813904Y-119623619D01*
X90656761Y-119571238D01*
X90552000Y-119466476D01*
X90499619Y-119361714D01*
X90447238Y-119152190D01*
X90447238Y-118995047D01*
X90499619Y-118785523D01*
X90552000Y-118680761D01*
X90656761Y-118576000D01*
X90813904Y-118523619D01*
X90918666Y-118523619D01*
X91075809Y-118576000D01*
X91128190Y-118628380D01*
X91442476Y-118523619D02*
X91809142Y-119623619D01*
X92175809Y-118523619D01*
X93956761Y-119623619D02*
X93328190Y-119623619D01*
X93642476Y-119623619D02*
X93642476Y-118523619D01*
X93537714Y-118680761D01*
X93432952Y-118785523D01*
X93328190Y-118837904D01*
X101262000Y-143923619D02*
X101471523Y-143923619D01*
X101576285Y-143976000D01*
X101681047Y-144080761D01*
X101733428Y-144290285D01*
X101733428Y-144656952D01*
X101681047Y-144866476D01*
X101576285Y-144971238D01*
X101471523Y-145023619D01*
X101262000Y-145023619D01*
X101157238Y-144971238D01*
X101052476Y-144866476D01*
X101000095Y-144656952D01*
X101000095Y-144290285D01*
X101052476Y-144080761D01*
X101157238Y-143976000D01*
X101262000Y-143923619D01*
X102204857Y-143923619D02*
X102204857Y-144814095D01*
X102257238Y-144918857D01*
X102309619Y-144971238D01*
X102414380Y-145023619D01*
X102623904Y-145023619D01*
X102728666Y-144971238D01*
X102781047Y-144918857D01*
X102833428Y-144814095D01*
X102833428Y-143923619D01*
X103200095Y-143923619D02*
X103828666Y-143923619D01*
X103514380Y-145023619D02*
X103514380Y-143923619D01*
D14*
X92205168Y-58423333D02*
G75*
G02*
X102362000Y-58420000I5076832J4829333D01*
G01*
X92205168Y-78743333D02*
G75*
G02*
X102362000Y-78740000I5076832J4829333D01*
G01*
X92205168Y-99063333D02*
G75*
G02*
X102362000Y-99060000I5076832J4829333D01*
G01*
D13*
X91102000Y-143923619D02*
X91311523Y-143923619D01*
X91416285Y-143976000D01*
X91521047Y-144080761D01*
X91573428Y-144290285D01*
X91573428Y-144656952D01*
X91521047Y-144866476D01*
X91416285Y-144971238D01*
X91311523Y-145023619D01*
X91102000Y-145023619D01*
X90997238Y-144971238D01*
X90892476Y-144866476D01*
X90840095Y-144656952D01*
X90840095Y-144290285D01*
X90892476Y-144080761D01*
X90997238Y-143976000D01*
X91102000Y-143923619D01*
X92044857Y-143923619D02*
X92044857Y-144814095D01*
X92097238Y-144918857D01*
X92149619Y-144971238D01*
X92254380Y-145023619D01*
X92463904Y-145023619D01*
X92568666Y-144971238D01*
X92621047Y-144918857D01*
X92673428Y-144814095D01*
X92673428Y-143923619D01*
X93040095Y-143923619D02*
X93668666Y-143923619D01*
X93354380Y-145023619D02*
X93354380Y-143923619D01*
D12*
X96774000Y-151130000D02*
X97790000Y-151130000D01*
D13*
X100397714Y-132323619D02*
X100397714Y-131223619D01*
X100659619Y-131223619D01*
X100816761Y-131276000D01*
X100921523Y-131380761D01*
X100973904Y-131485523D01*
X101026285Y-131695047D01*
X101026285Y-131852190D01*
X100973904Y-132061714D01*
X100921523Y-132166476D01*
X100816761Y-132271238D01*
X100659619Y-132323619D01*
X100397714Y-132323619D01*
X101497714Y-132323619D02*
X101497714Y-131223619D01*
X101864380Y-131223619D02*
X102492952Y-131223619D01*
X102178666Y-132323619D02*
X102178666Y-131223619D01*
X102702476Y-131223619D02*
X103331047Y-131223619D01*
X103016761Y-132323619D02*
X103016761Y-131223619D01*
X103907238Y-131223619D02*
X104116761Y-131223619D01*
X104221523Y-131276000D01*
X104326285Y-131380761D01*
X104378666Y-131590285D01*
X104378666Y-131956952D01*
X104326285Y-132166476D01*
X104221523Y-132271238D01*
X104116761Y-132323619D01*
X103907238Y-132323619D01*
X103802476Y-132271238D01*
X103697714Y-132166476D01*
X103645333Y-131956952D01*
X103645333Y-131590285D01*
X103697714Y-131380761D01*
X103802476Y-131276000D01*
X103907238Y-131223619D01*
X89452000Y-132218857D02*
X89399619Y-132271238D01*
X89242476Y-132323619D01*
X89137714Y-132323619D01*
X88980571Y-132271238D01*
X88875809Y-132166476D01*
X88823428Y-132061714D01*
X88771047Y-131852190D01*
X88771047Y-131695047D01*
X88823428Y-131485523D01*
X88875809Y-131380761D01*
X88980571Y-131276000D01*
X89137714Y-131223619D01*
X89242476Y-131223619D01*
X89399619Y-131276000D01*
X89452000Y-131328380D01*
X90447238Y-132323619D02*
X89923428Y-132323619D01*
X89923428Y-131223619D01*
X90813904Y-132323619D02*
X90813904Y-131223619D01*
X91442476Y-132323619D02*
X90971047Y-131695047D01*
X91442476Y-131223619D02*
X90813904Y-131852190D01*
X92699619Y-131171238D02*
X91756761Y-132585523D01*
X92909142Y-131223619D02*
X93537714Y-131223619D01*
X93223428Y-132323619D02*
X93223428Y-131223619D01*
X94532952Y-132323619D02*
X94166285Y-131799809D01*
X93904380Y-132323619D02*
X93904380Y-131223619D01*
X94323428Y-131223619D01*
X94428190Y-131276000D01*
X94480571Y-131328380D01*
X94532952Y-131433142D01*
X94532952Y-131590285D01*
X94480571Y-131695047D01*
X94428190Y-131747428D01*
X94323428Y-131799809D01*
X93904380Y-131799809D01*
X95580571Y-131276000D02*
X95475809Y-131223619D01*
X95318666Y-131223619D01*
X95161523Y-131276000D01*
X95056761Y-131380761D01*
X95004380Y-131485523D01*
X94952000Y-131695047D01*
X94952000Y-131852190D01*
X95004380Y-132061714D01*
X95056761Y-132166476D01*
X95161523Y-132271238D01*
X95318666Y-132323619D01*
X95423428Y-132323619D01*
X95580571Y-132271238D01*
X95632952Y-132218857D01*
X95632952Y-131852190D01*
X95423428Y-131852190D01*
D12*
X96774000Y-142240000D02*
X97790000Y-142240000D01*
X97282000Y-141732000D02*
X97282000Y-142748000D01*
D15*
G36*
X97663000Y-126365000D02*
G01*
X95885000Y-126365000D01*
X95885000Y-125095000D01*
X97663000Y-125095000D01*
X97663000Y-126365000D01*
G37*
X97663000Y-126365000D02*
X95885000Y-126365000D01*
X95885000Y-125095000D01*
X97663000Y-125095000D01*
X97663000Y-126365000D01*
D16*
X92200389Y-129413000D02*
G75*
G02*
X88519000Y-125730000I1611J3683000D01*
G01*
D15*
G36*
X96520000Y-130048000D02*
G01*
X95250000Y-130048000D01*
X95250000Y-121412000D01*
X96520000Y-121412000D01*
X96520000Y-130048000D01*
G37*
X96520000Y-130048000D02*
X95250000Y-130048000D01*
X95250000Y-121412000D01*
X96520000Y-121412000D01*
X96520000Y-130048000D01*
G36*
X96520000Y-130048000D02*
G01*
X87884000Y-130048000D01*
X87884000Y-128778000D01*
X96520000Y-128778000D01*
X96520000Y-130048000D01*
G37*
X96520000Y-130048000D02*
X87884000Y-130048000D01*
X87884000Y-128778000D01*
X96520000Y-128778000D01*
X96520000Y-130048000D01*
D16*
X88519000Y-125730000D02*
G75*
G02*
X92202000Y-122048611I3683000J-1611D01*
G01*
X95883389Y-125731611D02*
G75*
G02*
X92200389Y-129413000I-3683000J1611D01*
G01*
D15*
G36*
X89027000Y-130048000D02*
G01*
X87884000Y-130048000D01*
X87884000Y-121412000D01*
X89027000Y-121412000D01*
X89027000Y-130048000D01*
G37*
X89027000Y-130048000D02*
X87884000Y-130048000D01*
X87884000Y-121412000D01*
X89027000Y-121412000D01*
X89027000Y-130048000D01*
G36*
X96520000Y-122682000D02*
G01*
X87884000Y-122682000D01*
X87884000Y-121412000D01*
X96520000Y-121412000D01*
X96520000Y-122682000D01*
G37*
X96520000Y-122682000D02*
X87884000Y-122682000D01*
X87884000Y-121412000D01*
X96520000Y-121412000D01*
X96520000Y-122682000D01*
D16*
X92202000Y-122048611D02*
G75*
G02*
X95883389Y-125731611I-1611J-3683000D01*
G01*
X106043389Y-113031611D02*
G75*
G02*
X102360389Y-116713000I-3683000J1611D01*
G01*
X102360389Y-116713000D02*
G75*
G02*
X98679000Y-113030000I1611J3683000D01*
G01*
D15*
G36*
X106680000Y-117348000D02*
G01*
X105410000Y-117348000D01*
X105410000Y-108712000D01*
X106680000Y-108712000D01*
X106680000Y-117348000D01*
G37*
X106680000Y-117348000D02*
X105410000Y-117348000D01*
X105410000Y-108712000D01*
X106680000Y-108712000D01*
X106680000Y-117348000D01*
G36*
X106680000Y-117348000D02*
G01*
X98044000Y-117348000D01*
X98044000Y-116078000D01*
X106680000Y-116078000D01*
X106680000Y-117348000D01*
G37*
X106680000Y-117348000D02*
X98044000Y-117348000D01*
X98044000Y-116078000D01*
X106680000Y-116078000D01*
X106680000Y-117348000D01*
G36*
X99187000Y-117348000D02*
G01*
X98044000Y-117348000D01*
X98044000Y-108712000D01*
X99187000Y-108712000D01*
X99187000Y-117348000D01*
G37*
X99187000Y-117348000D02*
X98044000Y-117348000D01*
X98044000Y-108712000D01*
X99187000Y-108712000D01*
X99187000Y-117348000D01*
G36*
X106680000Y-109982000D02*
G01*
X98044000Y-109982000D01*
X98044000Y-108712000D01*
X106680000Y-108712000D01*
X106680000Y-109982000D01*
G37*
X106680000Y-109982000D02*
X98044000Y-109982000D01*
X98044000Y-108712000D01*
X106680000Y-108712000D01*
X106680000Y-109982000D01*
D16*
X102362000Y-109348611D02*
G75*
G02*
X106043389Y-113031611I-1611J-3683000D01*
G01*
X98679000Y-113030000D02*
G75*
G02*
X102362000Y-109348611I3683000J-1611D01*
G01*
X95883389Y-113031611D02*
G75*
G02*
X92200389Y-116713000I-3683000J1611D01*
G01*
X92202000Y-109348611D02*
G75*
G02*
X95883389Y-113031611I-1611J-3683000D01*
G01*
X88519000Y-113030000D02*
G75*
G02*
X92202000Y-109348611I3683000J-1611D01*
G01*
X92200389Y-116713000D02*
G75*
G02*
X88519000Y-113030000I1611J3683000D01*
G01*
D15*
G36*
X96520000Y-109982000D02*
G01*
X87884000Y-109982000D01*
X87884000Y-108712000D01*
X96520000Y-108712000D01*
X96520000Y-109982000D01*
G37*
X96520000Y-109982000D02*
X87884000Y-109982000D01*
X87884000Y-108712000D01*
X96520000Y-108712000D01*
X96520000Y-109982000D01*
G36*
X89027000Y-117348000D02*
G01*
X87884000Y-117348000D01*
X87884000Y-108712000D01*
X89027000Y-108712000D01*
X89027000Y-117348000D01*
G37*
X89027000Y-117348000D02*
X87884000Y-117348000D01*
X87884000Y-108712000D01*
X89027000Y-108712000D01*
X89027000Y-117348000D01*
G36*
X96520000Y-117348000D02*
G01*
X87884000Y-117348000D01*
X87884000Y-116078000D01*
X96520000Y-116078000D01*
X96520000Y-117348000D01*
G37*
X96520000Y-117348000D02*
X87884000Y-117348000D01*
X87884000Y-116078000D01*
X96520000Y-116078000D01*
X96520000Y-117348000D01*
G36*
X96520000Y-117348000D02*
G01*
X95250000Y-117348000D01*
X95250000Y-108712000D01*
X96520000Y-108712000D01*
X96520000Y-117348000D01*
G37*
X96520000Y-117348000D02*
X95250000Y-117348000D01*
X95250000Y-108712000D01*
X96520000Y-108712000D01*
X96520000Y-117348000D01*
M02*
