%TF.GenerationSoftware,KiCad,Pcbnew,(5.1.9-0-10_14)*%
%TF.CreationDate,2021-01-07T01:07:36-06:00*%
%TF.ProjectId,JNTUB_panel,4a4e5455-425f-4706-916e-656c2e6b6963,rev?*%
%TF.SameCoordinates,Original*%
%TF.FileFunction,Soldermask,Top*%
%TF.FilePolarity,Negative*%
%FSLAX46Y46*%
G04 Gerber Fmt 4.6, Leading zero omitted, Abs format (unit mm)*
G04 Created by KiCad (PCBNEW (5.1.9-0-10_14)) date 2021-01-07 01:07:36*
%MOMM*%
%LPD*%
G01*
G04 APERTURE LIST*
%ADD10C,1.600000*%
%ADD11C,1.800000*%
%ADD12O,4.750000X3.300000*%
%ADD13O,4.650000X3.200000*%
%ADD14C,3.000000*%
%ADD15C,6.200000*%
%ADD16C,7.000000*%
%ADD17C,0.254000*%
%ADD18C,0.100000*%
G04 APERTURE END LIST*
D10*
X106299000Y-124714000D02*
G75*
G03*
X106299000Y-124714000I-3937000J0D01*
G01*
D11*
X96202000Y-137160000D02*
X98362000Y-137160000D01*
D10*
X106299000Y-137160000D02*
G75*
G03*
X106299000Y-137160000I-3937000J0D01*
G01*
X96139000Y-137160000D02*
G75*
G03*
X96139000Y-137160000I-3937000J0D01*
G01*
D12*
%TO.C,REF\u002A\u002A*%
X94615000Y-160578800D03*
%TD*%
D13*
%TO.C,REF\u002A\u002A*%
X94615000Y-38049200D03*
%TD*%
D14*
%TO.C,REF\u002A\u002A*%
X97282000Y-147574000D03*
%TD*%
%TO.C,REF\u002A\u002A*%
X97282000Y-143764000D03*
%TD*%
%TO.C,REF\u002A\u002A*%
X97282000Y-118110000D03*
%TD*%
D15*
%TO.C,REF\u002A\u002A*%
X102362000Y-137160000D03*
%TD*%
%TO.C,REF\u002A\u002A*%
X92202000Y-137160000D03*
%TD*%
%TO.C,REF\u002A\u002A*%
X92202000Y-124714000D03*
%TD*%
%TO.C,REF\u002A\u002A*%
X102362000Y-124714000D03*
%TD*%
%TO.C,REF\u002A\u002A*%
X102362000Y-109474000D03*
%TD*%
%TO.C,REF\u002A\u002A*%
X92202000Y-109474000D03*
%TD*%
D16*
%TO.C,REF\u002A\u002A*%
X97282000Y-92964000D03*
%TD*%
%TO.C,REF\u002A\u002A*%
X97282000Y-72644000D03*
%TD*%
%TO.C,REF\u002A\u002A*%
X97282000Y-52324000D03*
%TD*%
D17*
X107188000Y-163449000D02*
X87376000Y-163449000D01*
X87376000Y-160578800D01*
X92227400Y-160578800D01*
X92247101Y-160829126D01*
X92305719Y-161073289D01*
X92401811Y-161305276D01*
X92533011Y-161519374D01*
X92696088Y-161710312D01*
X92887026Y-161873389D01*
X93101124Y-162004589D01*
X93333111Y-162100681D01*
X93577274Y-162159299D01*
X93827600Y-162179000D01*
X95402400Y-162179000D01*
X95652726Y-162159299D01*
X95896889Y-162100681D01*
X96128876Y-162004589D01*
X96342974Y-161873389D01*
X96533912Y-161710312D01*
X96696989Y-161519374D01*
X96828189Y-161305276D01*
X96924281Y-161073289D01*
X96982899Y-160829126D01*
X97002600Y-160578800D01*
X96982899Y-160328474D01*
X96924281Y-160084311D01*
X96828189Y-159852324D01*
X96696989Y-159638226D01*
X96533912Y-159447288D01*
X96342974Y-159284211D01*
X96128876Y-159153011D01*
X95896889Y-159056919D01*
X95652726Y-158998301D01*
X95402400Y-158978600D01*
X93827600Y-158978600D01*
X93577274Y-158998301D01*
X93333111Y-159056919D01*
X93101124Y-159153011D01*
X92887026Y-159284211D01*
X92696088Y-159447288D01*
X92533011Y-159638226D01*
X92401811Y-159852324D01*
X92305719Y-160084311D01*
X92247101Y-160328474D01*
X92227400Y-160578800D01*
X87376000Y-160578800D01*
X87376000Y-157861000D01*
X107188000Y-157861000D01*
X107188000Y-163449000D01*
D18*
G36*
X107188000Y-163449000D02*
G01*
X87376000Y-163449000D01*
X87376000Y-160578800D01*
X92227400Y-160578800D01*
X92247101Y-160829126D01*
X92305719Y-161073289D01*
X92401811Y-161305276D01*
X92533011Y-161519374D01*
X92696088Y-161710312D01*
X92887026Y-161873389D01*
X93101124Y-162004589D01*
X93333111Y-162100681D01*
X93577274Y-162159299D01*
X93827600Y-162179000D01*
X95402400Y-162179000D01*
X95652726Y-162159299D01*
X95896889Y-162100681D01*
X96128876Y-162004589D01*
X96342974Y-161873389D01*
X96533912Y-161710312D01*
X96696989Y-161519374D01*
X96828189Y-161305276D01*
X96924281Y-161073289D01*
X96982899Y-160829126D01*
X97002600Y-160578800D01*
X96982899Y-160328474D01*
X96924281Y-160084311D01*
X96828189Y-159852324D01*
X96696989Y-159638226D01*
X96533912Y-159447288D01*
X96342974Y-159284211D01*
X96128876Y-159153011D01*
X95896889Y-159056919D01*
X95652726Y-158998301D01*
X95402400Y-158978600D01*
X93827600Y-158978600D01*
X93577274Y-158998301D01*
X93333111Y-159056919D01*
X93101124Y-159153011D01*
X92887026Y-159284211D01*
X92696088Y-159447288D01*
X92533011Y-159638226D01*
X92401811Y-159852324D01*
X92305719Y-160084311D01*
X92247101Y-160328474D01*
X92227400Y-160578800D01*
X87376000Y-160578800D01*
X87376000Y-157861000D01*
X107188000Y-157861000D01*
X107188000Y-163449000D01*
G37*
D17*
X107188000Y-40259000D02*
X87376000Y-40259000D01*
X87376000Y-38049200D01*
X92227400Y-38049200D01*
X92247101Y-38299526D01*
X92305719Y-38543689D01*
X92401811Y-38775676D01*
X92533011Y-38989774D01*
X92696088Y-39180712D01*
X92887026Y-39343789D01*
X93101124Y-39474989D01*
X93333111Y-39571081D01*
X93577274Y-39629699D01*
X93827600Y-39649400D01*
X95402400Y-39649400D01*
X95652726Y-39629699D01*
X95896889Y-39571081D01*
X96128876Y-39474989D01*
X96342974Y-39343789D01*
X96533912Y-39180712D01*
X96696989Y-38989774D01*
X96828189Y-38775676D01*
X96924281Y-38543689D01*
X96982899Y-38299526D01*
X97002600Y-38049200D01*
X96982899Y-37798874D01*
X96924281Y-37554711D01*
X96828189Y-37322724D01*
X96696989Y-37108626D01*
X96533912Y-36917688D01*
X96342974Y-36754611D01*
X96128876Y-36623411D01*
X95896889Y-36527319D01*
X95652726Y-36468701D01*
X95402400Y-36449000D01*
X93827600Y-36449000D01*
X93577274Y-36468701D01*
X93333111Y-36527319D01*
X93101124Y-36623411D01*
X92887026Y-36754611D01*
X92696088Y-36917688D01*
X92533011Y-37108626D01*
X92401811Y-37322724D01*
X92305719Y-37554711D01*
X92247101Y-37798874D01*
X92227400Y-38049200D01*
X87376000Y-38049200D01*
X87376000Y-35179000D01*
X107188000Y-35179000D01*
X107188000Y-40259000D01*
D18*
G36*
X107188000Y-40259000D02*
G01*
X87376000Y-40259000D01*
X87376000Y-38049200D01*
X92227400Y-38049200D01*
X92247101Y-38299526D01*
X92305719Y-38543689D01*
X92401811Y-38775676D01*
X92533011Y-38989774D01*
X92696088Y-39180712D01*
X92887026Y-39343789D01*
X93101124Y-39474989D01*
X93333111Y-39571081D01*
X93577274Y-39629699D01*
X93827600Y-39649400D01*
X95402400Y-39649400D01*
X95652726Y-39629699D01*
X95896889Y-39571081D01*
X96128876Y-39474989D01*
X96342974Y-39343789D01*
X96533912Y-39180712D01*
X96696989Y-38989774D01*
X96828189Y-38775676D01*
X96924281Y-38543689D01*
X96982899Y-38299526D01*
X97002600Y-38049200D01*
X96982899Y-37798874D01*
X96924281Y-37554711D01*
X96828189Y-37322724D01*
X96696989Y-37108626D01*
X96533912Y-36917688D01*
X96342974Y-36754611D01*
X96128876Y-36623411D01*
X95896889Y-36527319D01*
X95652726Y-36468701D01*
X95402400Y-36449000D01*
X93827600Y-36449000D01*
X93577274Y-36468701D01*
X93333111Y-36527319D01*
X93101124Y-36623411D01*
X92887026Y-36754611D01*
X92696088Y-36917688D01*
X92533011Y-37108626D01*
X92401811Y-37322724D01*
X92305719Y-37554711D01*
X92247101Y-37798874D01*
X92227400Y-38049200D01*
X87376000Y-38049200D01*
X87376000Y-35179000D01*
X107188000Y-35179000D01*
X107188000Y-40259000D01*
G37*
M02*
