%TF.GenerationSoftware,KiCad,Pcbnew,(5.1.9-0-10_14)*%
%TF.CreationDate,2021-01-07T01:07:36-06:00*%
%TF.ProjectId,JNTUB_panel,4a4e5455-425f-4706-916e-656c2e6b6963,rev?*%
%TF.SameCoordinates,Original*%
%TF.FileFunction,Legend,Bot*%
%TF.FilePolarity,Positive*%
%FSLAX46Y46*%
G04 Gerber Fmt 4.6, Leading zero omitted, Abs format (unit mm)*
G04 Created by KiCad (PCBNEW (5.1.9-0-10_14)) date 2021-01-07 01:07:36*
%MOMM*%
%LPD*%
G01*
G04 APERTURE LIST*
%ADD10C,0.150000*%
%ADD11C,0.300000*%
G04 APERTURE END LIST*
D10*
X90881200Y-154432000D02*
X90474800Y-154432000D01*
D11*
X91490800Y-151434800D02*
X89154000Y-151434800D01*
D10*
X91465400Y-152603200D02*
X91465400Y-153162000D01*
X89357200Y-154432000D02*
X89001600Y-154432000D01*
X89916000Y-154178000D02*
X89712800Y-154584400D01*
X90271600Y-151841200D02*
X89306400Y-153162000D01*
X91643200Y-153670000D02*
X91643200Y-154432000D01*
X90881200Y-154127200D02*
X90881200Y-154736800D01*
X90830400Y-153162000D02*
X90830400Y-151384000D01*
X91643200Y-153670000D02*
X89001600Y-153670000D01*
X90119200Y-154584400D02*
X89916000Y-154178000D01*
X90322400Y-154178000D02*
X90119200Y-154584400D01*
X89712800Y-154584400D02*
X89509600Y-154178000D01*
X90373200Y-151841200D02*
X90271600Y-151841200D01*
X89509600Y-154178000D02*
X89357200Y-154432000D01*
X89204800Y-153162000D02*
X89204800Y-151841200D01*
X89001600Y-153670000D02*
X89001600Y-154432000D01*
X91643200Y-154432000D02*
X91186000Y-154432000D01*
X89306400Y-153162000D02*
X89204800Y-153162000D01*
X90474800Y-154432000D02*
X90322400Y-154178000D01*
X91465400Y-153162000D02*
X90830400Y-153162000D01*
X91186000Y-154736800D02*
X91186000Y-154127200D01*
X90373200Y-153162000D02*
X90373200Y-151841200D01*
X88606380Y-89106952D02*
X89320666Y-89106952D01*
X89463523Y-89059333D01*
X89558761Y-88964095D01*
X89606380Y-88821238D01*
X89606380Y-88726000D01*
X89606380Y-90059333D02*
X89606380Y-89583142D01*
X88606380Y-89583142D01*
X89511142Y-90964095D02*
X89558761Y-90916476D01*
X89606380Y-90773619D01*
X89606380Y-90678380D01*
X89558761Y-90535523D01*
X89463523Y-90440285D01*
X89368285Y-90392666D01*
X89177809Y-90345047D01*
X89034952Y-90345047D01*
X88844476Y-90392666D01*
X88749238Y-90440285D01*
X88654000Y-90535523D01*
X88606380Y-90678380D01*
X88606380Y-90773619D01*
X88654000Y-90916476D01*
X88701619Y-90964095D01*
X88606380Y-91678380D02*
X89320666Y-91678380D01*
X89463523Y-91630761D01*
X89558761Y-91535523D01*
X89606380Y-91392666D01*
X89606380Y-91297428D01*
X89606380Y-92630761D02*
X89606380Y-92154571D01*
X88606380Y-92154571D01*
X89511142Y-93535523D02*
X89558761Y-93487904D01*
X89606380Y-93345047D01*
X89606380Y-93249809D01*
X89558761Y-93106952D01*
X89463523Y-93011714D01*
X89368285Y-92964095D01*
X89177809Y-92916476D01*
X89034952Y-92916476D01*
X88844476Y-92964095D01*
X88749238Y-93011714D01*
X88654000Y-93106952D01*
X88606380Y-93249809D01*
X88606380Y-93345047D01*
X88654000Y-93487904D01*
X88701619Y-93535523D01*
X88606380Y-94249809D02*
X89320666Y-94249809D01*
X89463523Y-94202190D01*
X89558761Y-94106952D01*
X89606380Y-93964095D01*
X89606380Y-93868857D01*
X89606380Y-95202190D02*
X89606380Y-94726000D01*
X88606380Y-94726000D01*
X89511142Y-96106952D02*
X89558761Y-96059333D01*
X89606380Y-95916476D01*
X89606380Y-95821238D01*
X89558761Y-95678380D01*
X89463523Y-95583142D01*
X89368285Y-95535523D01*
X89177809Y-95487904D01*
X89034952Y-95487904D01*
X88844476Y-95535523D01*
X88749238Y-95583142D01*
X88654000Y-95678380D01*
X88606380Y-95821238D01*
X88606380Y-95916476D01*
X88654000Y-96059333D01*
X88701619Y-96106952D01*
X88606380Y-96821238D02*
X89320666Y-96821238D01*
X89463523Y-96773619D01*
X89558761Y-96678380D01*
X89606380Y-96535523D01*
X89606380Y-96440285D01*
X89606380Y-97773619D02*
X89606380Y-97297428D01*
X88606380Y-97297428D01*
X89511142Y-98678380D02*
X89558761Y-98630761D01*
X89606380Y-98487904D01*
X89606380Y-98392666D01*
X89558761Y-98249809D01*
X89463523Y-98154571D01*
X89368285Y-98106952D01*
X89177809Y-98059333D01*
X89034952Y-98059333D01*
X88844476Y-98106952D01*
X88749238Y-98154571D01*
X88654000Y-98249809D01*
X88606380Y-98392666D01*
X88606380Y-98487904D01*
X88654000Y-98630761D01*
X88701619Y-98678380D01*
M02*
